<svg width="41" height="29" viewBox="0 0 41 29" fill="none" xmlns="http://www.w3.org/2000/svg">
<path d="M0 20.085C0.12 19.595 0.22 19.085 0.38 18.605C1.03 16.645 2.3 15.205 4.13 14.245C4.24 14.185 4.33 13.995 4.34 13.855C4.59 11.135 5.9 9.135 8.36 7.935C9.99 7.145 11.69 7.075 13.41 7.615C13.54 7.655 13.68 7.695 13.77 7.715C14.17 6.925 14.5 6.135 14.95 5.425C16.67 2.755 19.11 1.175 22.26 0.764999C27.48 0.0749991 32.32 3.425 33.54 8.535C33.67 9.085 33.73 9.645 33.79 10.205C33.81 10.445 33.92 10.535 34.13 10.605C37.17 11.675 39.16 13.755 40.05 16.845C41.43 21.665 38.43 26.805 33.5 28.015C32.69 28.215 31.84 28.295 31.01 28.295C23.23 28.315 15.46 28.285 7.68 28.315C3.88 28.325 1.13 25.885 0.29 22.935C0.18 22.555 0.1 22.145 0 21.735V20.085ZM19.35 26.865C23.26 26.875 27.18 26.865 31.09 26.875C32.37 26.875 33.58 26.615 34.73 26.055C39.63 23.645 40.38 16.735 36.13 13.315C35.24 12.595 34.24 12.095 33.14 11.805C32.54 11.645 32.43 11.485 32.39 10.885C32.35 10.325 32.32 9.755 32.22 9.205C31.34 4.575 26.77 1.375 22.18 2.215C18.81 2.825 16.51 4.785 15.29 7.995C15.18 8.275 15.12 8.575 15.03 8.855C14.85 9.425 14.46 9.605 13.91 9.375C13.8 9.335 13.7 9.275 13.59 9.225C9.95 7.515 5.7 10.255 5.78 14.275C5.79 14.865 5.6 15.205 5.06 15.425C2.62 16.425 1.12 19.075 1.48 21.805C1.84 24.495 4.38 26.845 7.09 26.865C11.18 26.885 15.27 26.865 19.35 26.865Z" fill="black"/>
</svg>
