<svg width="40" height="41" viewBox="0 0 40 41" fill="none" xmlns="http://www.w3.org/2000/svg">
<g clip-path="url(#clip0_1469_7101)">
<path d="M12.89 0.5C13.46 0.65 14.05 0.76 14.61 0.94C15.62 1.27 16.52 1.81 17.32 2.52C17.42 2.6 17.51 2.69 17.62 2.78C18.55 2.17 19.54 1.84 20.64 1.83C23.24 1.81 25.46 3.67 25.94 6.24C25.96 6.37 26.08 6.57 26.19 6.59C28.18 7.11 29.39 9.45 28.2 11.56C29.71 12.36 30.58 13.61 30.67 15.34C30.73 16.49 30.33 17.51 29.58 18.38C28.11 20.09 24.79 20.65 22.78 18.03C22.16 18.33 21.56 18.69 20.92 18.91C19.49 19.39 18.1 19.23 16.78 18.49C16.53 18.35 16.38 18.36 16.14 18.54C15.14 19.29 14.07 19.36 12.95 18.83C12.82 18.77 12.59 18.72 12.51 18.78C11.79 19.38 10.97 19.72 10.09 19.81C9.98 20.55 9.92 21.26 9.76 21.95C9.52 23.01 9.04 23.95 8.21 24.69C7.99 24.89 7.96 25.16 8.07 25.8H9.29C9.31 25.54 9.32 25.29 9.36 25.04C9.48 24.36 9.94 23.92 10.62 23.86C11.06 23.82 11.5 23.85 11.99 23.85C11.99 23.19 11.99 22.59 11.99 22C11.99 21.51 12.12 21.07 12.53 20.76C13.04 20.38 15.02 20.35 15.48 20.79C15.76 21.05 15.92 21.43 16.17 21.82H35.98C36.05 21.21 36.31 20.67 36.93 20.59C37.64 20.49 38.38 20.5 39.09 20.6C39.66 20.67 40 21.2 40 21.79C40 27.6 40 33.4 40 39.21C40 39.94 39.44 40.48 38.71 40.49C38.32 40.5 37.93 40.49 37.54 40.49C36.59 40.49 36.15 40.12 35.99 39.18H16.05C16.01 39.31 15.98 39.46 15.94 39.6C15.76 40.13 15.29 40.48 14.73 40.48C14.25 40.49 13.77 40.49 13.29 40.48C12.64 40.47 12.11 40.02 12.04 39.37C11.98 38.87 12 38.36 11.99 37.85C11.99 37.64 11.99 37.44 11.99 37.16C11.68 37.16 11.4 37.16 11.12 37.16C9.86 37.16 9.36 36.66 9.32 35.39C9.32 35.33 9.31 35.26 9.3 35.16C8.81 35.16 8.33 35.17 7.86 35.15C7.57 35.14 7.28 35.06 6.98 35.04C6.88 35.03 6.76 35.07 6.67 35.13C4.42 36.7 1.58 35.39 1.33 32.66C1.32 32.58 1.31 32.46 1.26 32.41C0.57 31.9 0.21 31.17 0 30.34V29.25C0.26 28.68 0.51 28.11 0.74 27.6C0.49 27.07 0.24 26.56 0 26.04V25.02C0.19 24.33 0.48 23.69 1.05 23.2C0.45 22.48 0.2 21.65 0 20.8V19.47C0.03 19.39 0.06 19.3 0.08 19.22C0.27 18.28 0.67 17.46 1.32 16.76C1.4 16.67 1.49 16.58 1.53 16.53C1.2 16.06 0.84 15.65 0.6 15.19C0.35 14.68 0.2 14.1 0 13.55V12.3C0.02 12.25 0.05 12.21 0.06 12.16C0.43 10.02 1.67 8.64 3.74 8.02C3.98 7.95 4.03 7.82 4.06 7.61C4.53 4.26 6.38 2.02 9.56 0.9C10.05 0.73 10.58 0.64 11.09 0.51H12.89V0.5ZM18.52 3.86C18.7 4.15 18.88 4.41 19.02 4.69C19.11 4.87 19.23 5.11 19.17 5.26C19.1 5.47 18.9 5.7 18.69 5.79C18.39 5.92 18.12 5.76 17.93 5.48C17.61 5.01 17.34 4.49 16.95 4.08C15.39 2.39 13.45 1.63 11.16 1.92C8.7 2.23 6.96 3.59 5.92 5.83C5.37 7.03 5.24 8.3 5.39 9.6C5.46 10.14 5.24 10.45 4.82 10.5C4.41 10.54 4.12 10.26 4.06 9.75C4.04 9.62 4.01 9.48 3.98 9.35C1.84 10.03 0.82 12.19 1.62 14.23C1.9 14.94 2.4 15.47 3.01 15.92C3.49 16.27 3.48 16.75 3 17.11C2.94 17.16 2.87 17.2 2.81 17.24C1.71 18.11 1.21 19.23 1.37 20.62C1.46 21.44 1.81 22.13 2.39 22.72C2.91 23.25 2.86 23.65 2.24 24.03C2.18 24.06 2.13 24.1 2.08 24.13C1.54 24.52 1.29 25.03 1.38 25.7C1.45 26.28 1.8 26.65 2.26 26.96C2.73 27.28 2.73 27.77 2.3 28.13C2.22 28.2 2.13 28.25 2.05 28.32C1.52 28.79 1.29 29.38 1.39 30.09C1.47 30.67 1.75 31.11 2.23 31.43C2.54 31.64 2.76 31.87 2.71 32.29C2.59 33.4 3.45 34.4 4.56 34.46C5.69 34.52 6.64 33.64 6.64 32.5C6.65 29.9 6.65 27.29 6.64 24.69C6.64 24.37 6.7 24.11 6.97 23.9C8.35 22.86 8.69 21.39 8.6 19.78C8.57 19.25 8.33 18.73 8.15 18.22C7.96 17.7 8.03 17.31 8.41 17.14C8.79 16.97 9.13 17.14 9.37 17.62C9.44 17.77 9.54 17.92 9.57 18.08C9.64 18.46 9.87 18.47 10.17 18.4C10.85 18.25 11.43 17.94 11.91 17.42C12.42 16.86 12.68 16.84 13.24 17.34C13.87 17.9 14.71 17.91 15.37 17.36C15.31 17.28 15.24 17.2 15.18 17.12C14.76 16.61 14.74 16.22 15.09 15.94C15.45 15.65 15.79 15.75 16.23 16.28C17.51 17.82 19.65 18.19 21.37 17.18C22.06 16.77 22.56 16.18 22.95 15.49C23.16 15.11 23.54 15.02 23.88 15.21C24.2 15.39 24.3 15.75 24.12 16.13C24.04 16.3 23.9 16.46 23.84 16.64C23.8 16.78 23.78 16.97 23.84 17.09C24.4 18.04 25.68 18.61 26.76 18.42C28.15 18.18 29.22 17.04 29.28 15.74C29.35 14.18 28.52 12.94 27.05 12.6C26.25 12.41 26.09 11.7 26.67 11.21C27.29 10.69 27.44 9.96 27.19 9.18C26.93 8.38 26.35 7.95 25.54 7.82C24.77 7.7 24.7 7.59 24.59 6.82C24.51 6.27 24.37 5.69 24.11 5.2C23.09 3.21 20.3 2.54 18.52 3.86ZM35.98 23.2H16.04V37.8H35.98V23.2ZM13.36 39.14H14.62V21.84H13.36V39.14ZM38.64 21.86H37.37V39.16H38.64V21.86ZM11.96 25.21H10.72V35.8H11.96V25.21ZM8.05 33.79H9.28V27.19H8.05V33.79Z" fill="black"/>
<path d="M23.3505 30.49C23.3505 32.17 23.3505 33.85 23.3505 35.53C23.3505 35.67 23.3505 35.82 23.3205 35.96C23.2405 36.31 23.0105 36.51 22.6605 36.51C22.3105 36.5 22.0805 36.31 22.0205 35.94C22.0005 35.8 21.9805 35.66 21.9805 35.52C21.9805 32.19 21.9805 28.86 21.9805 25.53C21.9805 25.39 21.9905 25.24 22.0105 25.1C22.0805 24.74 22.3505 24.49 22.6705 24.51C23.0205 24.53 23.2505 24.73 23.3205 25.08C23.3505 25.22 23.3405 25.36 23.3405 25.51C23.3505 27.16 23.3505 28.83 23.3505 30.49Z" fill="black"/>
<path d="M33.351 30.51C33.351 32.16 33.351 33.82 33.351 35.47C33.351 35.56 33.351 35.65 33.351 35.74C33.331 36.2 33.061 36.5 32.681 36.51C32.301 36.52 32.031 36.23 31.981 35.77C31.971 35.67 31.981 35.56 31.981 35.46C31.981 32.15 31.981 28.85 31.981 25.54C31.981 25.37 31.991 25.2 32.021 25.04C32.081 24.7 32.321 24.52 32.651 24.51C32.981 24.5 33.221 24.68 33.301 25.02C33.341 25.17 33.341 25.33 33.341 25.48C33.351 27.15 33.351 28.83 33.351 30.51Z" fill="black"/>
<path d="M25.3203 30.49C25.3203 28.81 25.3203 27.13 25.3203 25.46C25.3203 25.29 25.3303 25.12 25.3803 24.96C25.4703 24.65 25.7103 24.48 26.0303 24.5C26.3603 24.52 26.5903 24.7 26.6503 25.04C26.6803 25.19 26.6903 25.35 26.6903 25.51C26.6903 28.84 26.6903 32.17 26.6903 35.5C26.6903 35.59 26.6903 35.68 26.6803 35.77C26.6403 36.22 26.3503 36.52 25.9803 36.5C25.6003 36.48 25.3303 36.18 25.3303 35.72C25.3203 33.98 25.3203 32.24 25.3203 30.49Z" fill="black"/>
<path d="M18.6705 30.46C18.6705 28.8 18.6705 27.13 18.6705 25.46C18.6705 25.33 18.6605 25.2 18.6805 25.07C18.7205 24.75 19.0105 24.5 19.3205 24.49C19.6405 24.48 19.9505 24.74 20.0005 25.07C20.0205 25.19 20.0105 25.3 20.0105 25.42C20.0105 28.8 20.0105 32.18 20.0105 35.57C20.0105 35.67 20.0205 35.78 20.0105 35.88C19.9805 36.23 19.6605 36.51 19.3305 36.5C19.0005 36.49 18.7105 36.22 18.6905 35.88C18.6705 35.53 18.6805 35.18 18.6805 34.83C18.6705 33.38 18.6705 31.92 18.6705 30.46Z" fill="black"/>
<path d="M28.6705 30.46C28.6705 28.8 28.6705 27.13 28.6705 25.46C28.6705 25.33 28.6605 25.2 28.6805 25.07C28.7205 24.75 29.0105 24.5 29.3205 24.49C29.6405 24.48 29.9505 24.74 30.0005 25.07C30.0205 25.19 30.0105 25.3 30.0105 25.42C30.0105 28.8 30.0105 32.18 30.0105 35.57C30.0105 35.67 30.0205 35.78 30.0105 35.88C29.9805 36.23 29.6605 36.51 29.3305 36.5C29.0005 36.49 28.7105 36.22 28.6905 35.88C28.6705 35.53 28.6805 35.18 28.6805 34.83C28.6705 33.37 28.6705 31.92 28.6705 30.46Z" fill="black"/>
</g>
<defs>
<clipPath id="clip0_1469_7101">
<rect width="40" height="40" fill="white" transform="translate(0 0.5)"/>
</clipPath>
</defs>
</svg>
