<svg width="33" height="47" viewBox="0 0 33 47" fill="none" xmlns="http://www.w3.org/2000/svg">
<g clip-path="url(#clip0_2607_8525)">
<path d="M22.0776 0.644196H10.9219V2.83605H22.0776V0.644196Z" stroke="black" stroke-width="1.5" stroke-miterlimit="10"/>
<path d="M2.83203 42.0586V43.2699H3.56212V46.3558H6.74531V43.2699H7.5046V42.0586H2.83203Z" stroke="black" stroke-miterlimit="10"/>
<path d="M25.5234 42.0586V43.2699H26.2535V46.3558H29.4659V43.2699H30.196V42.0586H25.5234Z" stroke="black" stroke-width="1.5" stroke-miterlimit="10"/>
<path d="M1.86754 2.83606C0.903823 2.83606 0.144531 3.61474 0.144531 4.53763V40.3282C0.144531 41.2799 0.933027 42.0298 1.86754 42.0298H31.1295C32.0932 42.0298 32.8525 41.2511 32.8525 40.3282V4.53763C32.8525 3.5859 32.064 2.83606 31.1295 2.83606H1.86754Z" stroke="black" stroke-width="1.5" stroke-miterlimit="10"/>
<path d="M12.6449 4.7395C11.6812 4.7395 10.9219 5.51819 10.9219 6.44107V38.4536C10.9219 39.4053 11.7104 40.1552 12.6449 40.1552H20.3546C21.3183 40.1552 22.0776 39.3765 22.0776 38.4536V6.44107C22.0776 5.48935 21.2891 4.7395 20.3546 4.7395H12.6449V4.7395Z" stroke="black" stroke-miterlimit="10"/>
<path d="M5.17073 37.2712C6.36808 37.2712 7.361 36.3194 7.361 35.1082C7.361 33.9257 6.39728 32.9451 5.17073 32.9451C3.94419 32.9451 2.98047 33.8969 2.98047 35.1082C2.98047 36.2906 3.94419 37.2712 5.17073 37.2712Z" stroke="black" stroke-width="1.045"/>
<path d="M27.8582 32.9451C29.0556 32.9451 30.0485 33.8969 30.0485 35.1082C30.0485 36.2906 29.0848 37.2712 27.8582 37.2712C26.6609 37.2712 25.668 36.3194 25.668 35.1082C25.668 33.9257 26.6317 32.9451 27.8582 32.9451Z" stroke="black" stroke-width="1.045"/>
<path d="M4.08984 36.8097H6.2217L5.17037 32.8298L4.08984 36.8097Z" fill="black"/>
<path d="M26.8086 33.4066H28.9112L27.8599 37.4154L26.8086 33.4066Z" fill="black"/>
<path d="M15.6826 22.2743H20.0048L17.318 28.2442L20.0924 27.6097L12.9959 38.0498L14.9817 30.1476L12.9375 30.436L15.6826 22.2743Z" stroke="black" stroke-miterlimit="10"/>
</g>
<defs>
<clipPath id="clip0_2607_8525">
<rect width="33" height="46" fill="white" transform="translate(0 0.5)"/>
</clipPath>
</defs>
</svg>
