<svg width="46" height="41" viewBox="0 0 46 41" fill="none" xmlns="http://www.w3.org/2000/svg">
<path d="M25.4102 27.4C25.3802 27.86 25.4102 28.34 25.3202 28.79C25.1302 29.76 24.2102 30.4 23.2202 30.3C22.2602 30.2 21.5002 29.39 21.4802 28.42C21.4702 27.73 21.4702 27.05 21.4802 26.36C21.5002 25.29 22.3602 24.46 23.4402 24.46C24.5002 24.46 25.3502 25.29 25.3802 26.35C25.3902 26.7 25.3802 27.06 25.3802 27.41L25.4102 27.4ZM24.4102 27.4C24.4102 27.07 24.4202 26.73 24.4102 26.4C24.4002 25.85 23.9802 25.44 23.4502 25.44C22.9002 25.44 22.4802 25.85 22.4702 26.41C22.4602 27.06 22.4602 27.71 22.4702 28.36C22.4802 28.92 22.9102 29.34 23.4502 29.34C23.9902 29.34 24.4102 28.91 24.4202 28.35C24.4202 28.03 24.4102 27.71 24.4102 27.4Z" fill="black"/>
<path d="M28.6205 29.33C29.1405 29.33 29.6505 29.33 30.1605 29.33C30.5405 29.33 30.7705 29.52 30.7605 29.83C30.7505 30.12 30.5305 30.31 30.1705 30.31C29.0905 30.31 28.0205 30.31 26.9405 30.31C26.6305 30.31 26.4305 30.18 26.3805 29.93C26.3205 29.65 26.4705 29.48 26.7005 29.36C27.4705 28.96 28.1805 28.48 28.7005 27.77C28.9305 27.46 29.1205 27.11 29.2405 26.74C29.4405 26.15 29.1005 25.57 28.5405 25.45C27.9405 25.32 27.4305 25.72 27.3505 26.37C27.3005 26.74 27.1105 26.92 26.8005 26.88C26.5105 26.85 26.3405 26.6 26.3805 26.24C26.5005 25.09 27.5105 24.3 28.6505 24.47C29.7505 24.64 30.4805 25.74 30.2305 26.85C30.0605 27.61 29.6405 28.23 29.1205 28.78C28.9605 28.96 28.8005 29.14 28.6205 29.33Z" fill="black"/>
<path d="M16.6105 27.38C16.6105 27.01 16.5905 26.64 16.6105 26.27C16.6705 25.23 17.5305 24.46 18.5705 24.46C19.6005 24.47 20.4505 25.27 20.5105 26.3C20.5305 26.63 20.3505 26.87 20.0605 26.89C19.7605 26.91 19.5805 26.74 19.5405 26.38C19.4905 25.94 19.2805 25.62 18.8605 25.49C18.4705 25.37 18.1005 25.44 17.8505 25.77C17.7105 25.95 17.6105 26.19 17.6005 26.41C17.5705 27.06 17.5805 27.71 17.5905 28.35C17.6005 28.9 17.9805 29.31 18.5005 29.34C19.0205 29.37 19.4405 29.01 19.5305 28.47C19.5505 28.37 19.5405 28.26 19.5905 28.16C19.7005 27.94 19.8805 27.84 20.1305 27.89C20.3805 27.94 20.5205 28.14 20.5205 28.41C20.5205 29.37 19.6905 30.24 18.7205 30.3C17.6105 30.37 16.6905 29.57 16.6205 28.46C16.5905 28.1 16.6105 27.74 16.6105 27.38Z" fill="black"/>
<path d="M42.1184 21.83C42.0384 19.58 41.0684 17.77 39.1384 16.49C38.5384 16.1 37.9884 16.17 37.6884 16.66C37.3984 17.13 37.5584 17.63 38.1284 18.01C40.9284 19.9 41.0384 23.58 38.3584 25.63C37.8084 26.05 37.6784 26.54 37.9984 27.01C38.3284 27.47 38.8884 27.52 39.4584 27.09C41.1884 25.79 42.0584 24.05 42.1184 21.83Z" fill="black"/>
<path d="M0.0396455 22.85C0.219645 24.99 1.02965 26.85 2.38965 28.42C4.00965 30.18 5.62965 30.99 6.60965 31.34C7.26965 31.53 7.92965 31.72 8.58965 31.85C9.95965 32.12 11.3396 32 12.6796 31.62C13.0196 31.52 13.1996 31.56 13.4296 31.86C15.0596 33.97 17.0896 35.37 19.5296 36.06C21.4496 36.58 23.1496 36.57 24.3596 36.43C27.6496 36 30.3196 34.46 32.3696 31.83C32.4796 31.69 32.7596 31.56 32.9096 31.6C35.3396 32.24 37.6896 32.07 39.9696 31.01C40.1696 31.03 42.3496 29.66 42.4496 29.35C47.6496 24.61 46.5596 16.21 40.3096 12.97C39.5296 12.56 38.6496 12.34 37.7996 12.07C37.4896 11.97 37.3396 11.86 37.2596 11.53C35.7596 5.29 28.5996 2.5 23.2496 6.09C22.9696 6.28 22.7896 6.28 22.5096 6.09C17.1896 2.5 10.0096 5.28 8.49965 11.54C8.41965 11.87 8.25965 11.99 7.94965 12.07C2.85965 13.25 -0.400355 17.66 0.0396455 22.85ZM1.84965 21.45C2.01965 17.54 5.06965 14.27 9.05965 13.73C9.80965 13.63 9.99965 13.44 10.1196 12.7C10.5896 9.9 12.0896 7.88 14.7396 6.86C17.3696 5.85 19.8296 6.3 22.0396 8.04C22.7596 8.61 22.9896 8.61 23.7196 8.02C25.4796 6.61 27.4796 6.05 29.6996 6.48C32.9296 7.1 35.1496 9.49 35.6396 12.78C35.7296 13.4 35.9896 13.64 36.6096 13.73C36.9096 13.77 37.2096 13.82 37.5096 13.88C42.1996 14.97 44.9696 19.69 43.6096 24.26C42.2396 28.84 37.3796 31.28 32.8396 29.64C32.0496 29.35 31.7696 29.45 31.3096 30.14C27.2196 36.28 18.5196 36.28 14.4296 30.13C13.9696 29.44 13.7096 29.4 12.8996 29.63C11.9796 29.89 11.0296 30.06 10.3096 30.23C9.48965 30.12 8.88964 30.08 8.31964 29.95C4.31964 29.03 1.67965 25.55 1.84965 21.45Z" fill="black"/>
<path d="M14.8781 17.57H12.0781V19.4H14.8781V17.57Z" fill="black"/>
<path d="M15.8086 12.57V11.23C16.6786 11.06 17.1986 10.61 17.5686 10.23C17.7586 10 17.9186 9.75 18.0286 9.5H19.2886V23.7H17.1986V12.57H15.8086Z" fill="black"/>
<path d="M26.2592 20.78C26.2392 21.36 26.1192 21.88 25.9092 22.33C25.7392 22.72 25.4692 23.08 25.0792 23.37C24.6892 23.68 24.1692 23.85 23.4792 23.85C22.7792 23.85 22.2392 23.68 21.8592 23.37C21.4692 23.08 21.2192 22.71 21.0492 22.33C20.8392 21.89 20.7192 21.36 20.6992 20.78V12.41C20.7192 11.85 20.8392 11.33 21.0492 10.88C21.2192 10.49 21.4792 10.11 21.8592 9.82C22.2492 9.53 22.7892 9.34 23.4792 9.34C24.1792 9.34 24.6992 9.53 25.0792 9.82C25.4692 10.11 25.7392 10.5 25.9092 10.88C26.1192 11.32 26.2392 11.85 26.2592 12.41V20.78ZM24.1692 12.41C24.1692 12.02 24.0892 11.75 23.8992 11.52C23.7992 11.42 23.6492 11.37 23.4692 11.37C23.0992 11.37 22.9292 11.64 22.8492 11.89C22.7892 12.04 22.7692 12.22 22.7692 12.41V20.77C22.7692 21.18 22.8692 21.45 23.0592 21.66C23.1592 21.76 23.2892 21.81 23.4692 21.81C23.8392 21.81 24.0092 21.58 24.0892 21.29C24.1492 21.15 24.1692 20.98 24.1692 20.77V12.41Z" fill="black"/>
<path d="M29.288 18.38C29.278 18.78 29.128 19.06 28.888 19.26C28.768 19.37 28.588 19.42 28.358 19.42C27.878 19.42 27.658 19.18 27.528 18.9C27.458 18.76 27.418 18.59 27.418 18.38V15.81C27.418 15.42 27.558 15.16 27.818 14.94C27.938 14.83 28.118 14.78 28.358 14.78C28.828 14.78 29.038 15.05 29.168 15.3C29.238 15.44 29.278 15.61 29.288 15.81V18.38ZM28.018 23.75L31.278 14.88H32.048L28.828 23.75H28.018ZM28.568 15.81C28.568 15.7 28.528 15.61 28.488 15.53C28.468 15.49 28.428 15.48 28.368 15.48C28.238 15.48 28.198 15.56 28.158 15.65C28.148 15.7 28.138 15.75 28.148 15.81V18.38C28.138 18.51 28.158 18.71 28.368 18.71C28.548 18.71 28.568 18.52 28.568 18.38V15.81ZM32.678 22.82C32.668 23.22 32.518 23.48 32.278 23.69C32.158 23.8 31.978 23.85 31.748 23.85C31.268 23.85 31.048 23.6 30.918 23.34C30.848 23.19 30.808 23.03 30.808 22.82V20.25C30.808 19.86 30.948 19.59 31.208 19.37C31.328 19.26 31.508 19.21 31.748 19.21C32.218 19.21 32.428 19.48 32.558 19.73C32.628 19.89 32.668 20.06 32.678 20.25V22.82ZM31.958 20.25C31.958 20.14 31.918 20.05 31.868 19.97C31.848 19.93 31.808 19.92 31.748 19.92C31.618 19.92 31.578 20 31.538 20.09C31.528 20.14 31.508 20.19 31.528 20.25V22.82C31.518 22.95 31.548 23.02 31.608 23.1C31.628 23.14 31.678 23.16 31.738 23.16C31.848 23.16 31.878 23.07 31.918 22.99C31.928 22.94 31.938 22.88 31.938 22.82V20.25H31.958Z" fill="black"/>
</svg>
