<svg width="132" height="132" viewBox="0 0 132 132" fill="none" xmlns="http://www.w3.org/2000/svg">
<path d="M66.2076 18.0967C39.0369 18.0967 16.9247 39.3945 16.9152 65.5688C16.9088 73.9391 19.1826 82.1082 23.4939 89.3032L16.5 113.903L42.6328 107.302C49.902 111.105 57.9847 113.088 66.1884 113.082H66.2076C93.3783 113.082 115.49 91.7814 115.5 65.6071C115.506 52.9287 110.384 40.9944 101.075 32.0237C91.7687 23.0499 79.3937 18.0999 66.2076 18.0967ZM66.2076 105.063H66.1916C58.8401 105.063 51.629 103.16 45.3377 99.5641L43.8368 98.7082L28.3353 102.624L32.4741 88.0609L31.5001 86.5696C27.4089 80.3298 25.2309 73.0302 25.2344 65.5688C25.2439 43.8111 43.626 26.1157 66.2235 26.1157C77.1646 26.1189 87.4511 30.229 95.189 37.6859C102.927 45.1428 107.184 55.0588 107.178 65.6039C107.168 87.3616 88.7892 105.063 66.2044 105.063H66.2076ZM88.6806 75.5071C87.4479 74.9163 81.3929 72.0453 80.2624 71.6461C79.1351 71.2533 78.3143 71.0489 77.4936 72.2369C76.676 73.4249 74.3128 76.0979 73.5975 76.8867C72.8757 77.6787 72.1572 77.7745 70.9245 77.1837C69.6917 76.5897 65.7222 75.3378 61.0213 71.2948C57.3583 68.1524 54.8865 64.269 54.1679 63.0778C53.4494 61.893 54.0913 61.2511 54.7076 60.6603C55.2601 60.1334 55.9403 59.2775 56.5535 58.5845C57.1666 57.8915 57.371 57.3965 57.7862 56.6045C58.195 55.8157 57.9906 55.1195 57.6808 54.5287C57.371 53.9315 54.912 48.0937 53.8805 45.7209C52.8841 43.4087 51.8685 43.7185 51.1117 43.6802C50.3931 43.6483 49.5756 43.6387 48.7485 43.6387C47.9341 43.6387 46.596 43.9357 45.4655 45.1237C44.3382 46.3117 41.1542 49.1795 41.1542 55.0173C41.1542 60.8583 45.5677 66.4981 46.184 67.2901C46.8004 68.0789 54.8705 80.0643 67.2263 85.2059C70.1644 86.4227 72.4574 87.154 74.2489 87.7033C77.1998 88.607 79.8855 88.4761 82.0061 88.1727C84.3693 87.831 89.2937 85.3049 90.3157 82.5361C91.344 79.7673 91.344 77.3913 91.0374 76.8963C90.7372 76.4013 89.9133 76.1043 88.6806 75.5071V75.5071Z" fill="black"/>
</svg>
