<svg width="40" height="40" viewBox="0 0 40 40" fill="none" xmlns="http://www.w3.org/2000/svg">
<path d="M33.2906 39.51H29.6206C29.4106 38.05 29.2006 36.6 28.9806 35.1C26.8106 35.86 24.5906 35.67 22.3606 35.7C22.1806 36.98 21.9906 38.23 21.8106 39.5H18.1306C17.9506 38.24 17.7706 36.99 17.5806 35.7C15.3806 35.66 13.1606 35.88 10.9706 35.1C10.7506 36.59 10.5406 38.04 10.3306 39.5H6.65064C6.55064 38.79 6.44064 38.07 6.34064 37.36C6.09064 35.63 5.86064 33.89 5.60064 32.16C5.58064 32.01 5.46064 31.85 5.35064 31.73C4.03064 30.37 4.03064 30.37 4.03064 28.51C4.03064 22.74 4.09064 16.98 4.00064 11.21C3.96064 8.6 5.80064 6.43 8.47064 6.34V3.82H7.25064V0H17.4006V3.79H16.1706V6.34H21.2406V2.55H25.0606V6.33H27.6206V2.56H31.4506V6.34C32.5406 6.38 33.4906 6.69 34.3006 7.38C35.3406 8.26 35.9206 9.38 35.9206 10.75C35.9306 17.13 35.9306 23.51 35.9206 29.89C35.9206 30.08 35.8406 30.31 35.7206 30.46C35.3706 30.91 34.9706 31.32 34.6006 31.76C34.4906 31.89 34.3806 32.04 34.3506 32.19C34.0406 34.3 33.7506 36.42 33.4506 38.53C33.4006 38.84 33.3406 39.16 33.2906 39.51ZM34.6206 11.49H5.32064V29.3H34.6106V11.49H34.6206ZM34.5506 10.17C34.2106 8.6 32.9506 7.63 31.2606 7.63C23.7406 7.63 16.2206 7.63 8.70064 7.63C8.42064 7.63 8.14064 7.66 7.87064 7.71C6.65064 7.92 5.54064 9.04 5.43064 10.17H34.5506ZM6.08064 30.61C9.23064 33.89 13.1106 34.74 17.4006 34.37C17.2206 33.13 17.0406 31.87 16.8606 30.61H6.08064ZM22.5506 34.38C26.7606 34.93 32.5406 32.98 33.7906 30.6H23.0906C22.9106 31.88 22.7306 33.13 22.5506 34.38ZM20.6906 38.23C21.0506 35.68 21.4106 33.16 21.7806 30.61H18.1806C18.5406 33.16 18.9106 35.69 19.2706 38.23H20.6906ZM14.8406 3.83H9.80064V6.35H14.8406V3.83ZM16.1306 1.28H8.52064V2.5H16.1306V1.28ZM7.07064 33.28C7.30064 34.91 7.54064 36.57 7.78064 38.22H9.20064C9.36064 37.11 9.53064 36.02 9.68064 34.93C9.69064 34.82 9.64064 34.64 9.56064 34.6C8.74064 34.15 7.90064 33.72 7.07064 33.28ZM32.8806 33.25C32.1606 33.65 31.4906 34.04 30.8006 34.4C30.2506 34.69 30.2506 34.67 30.3206 35.26C30.3506 35.5 30.3806 35.73 30.4106 35.97C30.5206 36.72 30.6306 37.48 30.7406 38.22H32.1606C32.4106 36.57 32.6406 34.92 32.8806 33.25ZM22.5406 6.33H23.7806V3.83H22.5406V6.33ZM30.1506 3.83H28.9406V6.35H30.1506V3.83Z" fill="black"/>
<path d="M20.6108 25.4899V28.0099H19.3608V25.4899C19.1908 25.4899 19.0508 25.4899 18.9108 25.4899C17.1208 25.4899 15.3208 25.4899 13.5308 25.4899C10.0908 25.4799 7.13078 22.8999 6.66078 19.4899C6.59078 18.9699 6.59078 18.4299 6.55078 17.8399H7.01078C9.16078 17.8399 11.3108 17.8499 13.4708 17.8399C15.5508 17.8299 17.2908 18.5799 18.7308 20.0699C18.7808 20.1199 18.8208 20.1699 18.8708 20.2099C18.8808 20.2199 18.8908 20.2199 18.9308 20.2399C18.9708 20.1699 19.0208 20.0999 19.0608 20.0199C20.9508 15.9799 24.1008 13.5399 28.4908 12.8699C30.0708 12.6299 31.6908 12.7399 33.3508 12.6899C33.4808 16.3199 32.3308 19.3999 29.8208 21.9299C27.3108 24.4499 24.2108 25.5999 20.6108 25.4899ZM26.7608 21.6299C25.8908 21.2799 25.0708 20.9499 24.2408 20.6399C24.1208 20.5899 23.9008 20.5999 23.8208 20.6699C23.0408 21.4099 22.2608 22.1499 21.5208 22.9299C21.2008 23.2799 20.9908 23.7299 20.7008 24.1799C27.1008 24.5399 31.9608 19.1999 32.0008 13.9599C30.8408 14.0299 29.6808 13.9899 28.5508 14.1799C24.4508 14.8699 21.6408 17.2099 20.0408 21.0299C19.8008 21.5899 19.9608 21.9999 20.2108 22.4299C20.7508 21.8399 21.2108 21.1799 21.8308 20.7099C23.0108 19.7999 23.7408 18.6099 24.3208 17.2799C24.5608 16.7299 24.8608 16.1999 25.1508 15.6299C25.5508 15.8299 25.9108 16.0099 26.3008 16.2099C26.0608 16.6899 25.8408 17.1499 25.5708 17.6899C26.4508 17.1299 27.2408 16.6199 28.0408 16.1399C28.8508 15.6499 29.6808 15.1899 30.5208 14.6999C30.7408 15.1099 30.9308 15.4699 31.1208 15.8499C30.4908 16.2099 29.8908 16.5499 29.2408 16.9299C29.6608 17.0499 30.0008 17.1399 30.3508 17.2399C30.2408 17.6699 30.1308 18.0699 30.0308 18.4699C29.7808 18.4099 29.5808 18.3599 29.3708 18.3199C28.7908 18.1899 28.1708 17.8799 27.6408 17.9799C27.0908 18.0899 26.6108 18.5999 26.1108 18.9399C25.8108 19.1399 25.5208 19.3599 25.1908 19.6099C25.9208 19.9099 26.5808 20.1699 27.2508 20.4499C27.0708 20.8399 26.9208 21.2099 26.7608 21.6299ZM19.2008 23.7999C19.1708 23.6199 19.1708 23.5299 19.1408 23.4399C18.4808 20.8599 16.2208 19.1199 13.4908 19.1099C11.7508 19.0999 10.0108 19.1099 8.27078 19.1099C8.16078 19.1099 8.05078 19.1299 7.93078 19.1299C7.94078 19.2599 7.93078 19.3499 7.95078 19.4399C8.32078 21.6599 10.1208 23.6599 12.3208 24.0199C13.7608 24.2499 15.2408 24.1999 16.7008 24.2799C16.7108 24.2299 16.7208 24.1799 16.7208 24.1299C14.3208 23.0799 11.9208 22.0299 9.50078 20.9699C9.69078 20.5499 9.85078 20.1799 10.0308 19.7899C13.0908 21.1299 16.1108 22.4499 19.2008 23.7999Z" fill="black"/>
</svg>
