<svg width="44" height="44" viewBox="0 0 44 44" fill="none" xmlns="http://www.w3.org/2000/svg">
<path d="M21.4817 42.9504C17.2339 42.9516 13.0812 41.6931 9.54836 39.3338C6.01558 36.9746 3.26228 33.6204 1.63577 29.6961C0.00965296 25.7718 -0.415986 21.4535 0.412274 17.2867C1.24085 13.1206 3.28616 9.29319 6.28984 6.28984C9.29351 3.28648 13.1209 1.24077 17.2867 0.412274C21.4531 -0.415986 25.7712 0.00965311 29.6961 1.63577C33.6204 3.2622 36.9745 6.0155 39.3338 9.54836C41.6931 13.0808 42.9516 17.2337 42.9504 21.4817C42.959 24.4391 42.3489 27.3654 41.1591 30.073C41.0983 30.2344 40.9741 30.3639 40.8154 30.4311C40.6564 30.498 40.4769 30.4971 40.3192 30.4278C40.1611 30.3587 40.0384 30.228 39.9798 30.0656C39.9212 29.9036 39.9316 29.7244 40.0089 29.5703C41.8931 25.2593 42.2133 20.4259 40.9142 15.904C39.6155 11.3822 36.7787 7.45563 32.894 4.80187C29.0093 2.14803 24.3199 0.933406 19.6354 1.36761C14.9509 1.80183 10.5648 3.85789 7.23385 7.18044C3.90329 10.5033 1.83684 14.8842 1.39124 19.5678C0.945658 24.2513 2.14892 28.9432 4.79361 32.8351C7.43795 36.7262 11.3577 39.5722 15.8761 40.882C20.3949 42.1917 25.2287 41.8833 29.544 40.0096C29.8616 39.869 30.2329 40.0126 30.3735 40.3303C30.5141 40.6479 30.3708 41.0192 30.0532 41.1598C27.3508 42.3456 24.4315 42.9553 21.4807 42.951L21.4817 42.9504Z" fill="black"/>
<path d="M21.4801 39.4812C16.7063 39.4812 12.1283 37.5847 8.75257 34.2091C5.37683 30.8335 3.48047 26.2549 3.48047 21.4816C3.48047 16.7083 5.37699 12.1298 8.75257 8.75403C12.1281 5.3783 16.7068 3.48193 21.4801 3.48193C26.2534 3.48193 30.8319 5.37846 34.2077 8.75403C37.5834 12.1296 39.4798 16.7083 39.4798 21.4816C39.4841 23.8854 39.0007 26.2649 38.0592 28.4765C38.004 28.6422 37.8822 28.7772 37.7229 28.8497C37.5639 28.9218 37.382 28.9242 37.2208 28.857C37.0597 28.7895 36.9339 28.6582 36.8735 28.494C36.8133 28.3301 36.8237 28.1485 36.9029 27.9926C38.4186 24.4098 38.6408 20.4115 37.5314 16.683C36.4221 12.9545 34.0505 9.7277 30.8228 7.5559C27.595 5.38442 23.7127 4.40304 19.8408 4.78021C15.9689 5.15738 12.3488 6.86944 9.60049 9.62305C6.85269 12.377 5.14833 16.0006 4.77949 19.8736C4.41062 23.7461 5.39999 27.6265 7.57851 30.8492C9.75698 34.0723 12.989 36.4372 16.7198 37.5385C20.4508 38.6399 24.4488 38.4091 28.0285 36.8861C28.348 36.7489 28.7181 36.8965 28.855 37.216C28.9921 37.5351 28.8445 37.9052 28.5251 38.0424C26.299 38.9959 23.9017 39.4856 21.4798 39.4816L21.4801 39.4812Z" fill="black"/>
<path d="M21.48 7.69243C21.133 7.69243 20.8516 7.41103 20.8516 7.06395V4.10993C20.8516 3.76285 21.133 3.48145 21.48 3.48145C21.8271 3.48145 22.1085 3.76285 22.1085 4.10993V7.06395C22.1085 7.23058 22.0422 7.39046 21.9244 7.5083C21.8066 7.62614 21.6467 7.69243 21.48 7.69243Z" fill="black"/>
<path d="M11.3207 11.9471C11.1528 11.9465 10.992 11.8784 10.8745 11.7587L8.78798 9.67225V9.67194C8.57439 9.42275 8.5885 9.05083 8.82081 8.81885C9.05281 8.58655 9.42474 8.57243 9.6739 8.78602L11.7604 10.8725H11.7607C12.0043 11.1177 12.0043 11.5136 11.7607 11.7587C11.6444 11.8769 11.4863 11.9447 11.3206 11.9472L11.3207 11.9471Z" fill="black"/>
<path d="M7.06297 22.1095H4.10895C3.76187 22.1095 3.48047 21.8281 3.48047 21.481C3.48047 21.1339 3.76187 20.8525 4.10895 20.8525H7.06297C7.41005 20.8525 7.69145 21.1339 7.69145 21.481C7.69145 21.8281 7.41005 22.1095 7.06297 22.1095Z" fill="black"/>
<path d="M9.19629 34.3904C8.94189 34.3895 8.71357 34.2355 8.61721 34.0001C8.52085 33.7647 8.57578 33.4947 8.75622 33.3158L10.8427 31.2293H10.843C11.0922 31.0157 11.4638 31.0301 11.6961 31.2621C11.9281 31.4941 11.9425 31.866 11.7289 32.1152L9.64245 34.2081C9.52369 34.326 9.36319 34.3913 9.19625 34.3904L9.19629 34.3904Z" fill="black"/>
<path d="M21.48 39.4815C21.133 39.4815 20.8516 39.2001 20.8516 38.853V35.899C20.8516 35.5519 21.133 35.2705 21.48 35.2705C21.8271 35.2705 22.1085 35.5519 22.1085 35.899V38.853C22.1085 39.0196 22.0422 39.1795 21.9244 39.2974C21.8066 39.4152 21.6467 39.4815 21.48 39.4815Z" fill="black"/>
<path d="M38.852 22.1095H35.898C35.5509 22.1095 35.2695 21.8281 35.2695 21.481C35.2695 21.1339 35.5509 20.8525 35.898 20.8525H38.852C39.1991 20.8525 39.4805 21.1339 39.4805 21.481C39.4805 21.8281 39.1991 22.1095 38.852 22.1095Z" fill="black"/>
<path d="M31.6753 11.9476C31.42 11.9491 31.1889 11.796 31.091 11.56C30.9931 11.3243 31.0477 11.0527 31.2291 10.8729L33.3156 8.75482C33.4337 8.63575 33.5942 8.56885 33.7618 8.56885C33.9293 8.56885 34.0901 8.63575 34.208 8.75482C34.4516 9.00001 34.4516 9.39588 34.208 9.64105L32.115 11.7275C32.0046 11.8576 31.8456 11.9371 31.6753 11.9476V11.9476Z" fill="black"/>
<path d="M14.3868 29.1993C14.2198 29.2002 14.0593 29.1345 13.9406 29.017C13.6969 28.7718 13.6969 28.3759 13.9406 28.1307L20.8539 21.2174V10.2379C20.8539 9.89078 21.1353 9.60938 21.4823 9.60938C21.8294 9.60938 22.1108 9.89078 22.1108 10.2379V21.4814C22.1084 21.6471 22.0409 21.8055 21.9224 21.9215L14.833 29.017C14.7145 29.1346 14.554 29.2002 14.3868 29.1993L14.3868 29.1993Z" fill="black"/>
<path d="M35.7223 44.0003C33.527 44.0003 31.4218 43.1282 29.8696 41.5761C28.3171 40.0239 27.4453 37.9184 27.4453 35.7233C27.4453 33.5279 28.3172 31.4228 29.8696 29.8706C31.4218 28.3181 33.527 27.4463 35.7223 27.4463C37.9174 27.4463 40.0229 28.3181 41.5751 29.8706C43.1273 31.4228 43.9994 33.5279 43.9994 35.7233C43.9978 37.9181 43.1251 40.0224 41.5732 41.5742C40.0213 43.1261 37.9171 43.9988 35.7223 44.0004L35.7223 44.0003ZM35.7223 28.7094C33.8602 28.7094 32.0742 29.4493 30.7577 30.7664C29.4409 32.0832 28.7016 33.8695 28.7023 35.7316C28.7029 37.5938 29.4431 39.3795 30.7605 40.6957C32.0779 42.0119 33.8642 42.7508 35.7267 42.7497C37.5888 42.7487 39.3742 42.0076 40.6901 40.6899C42.006 39.3721 42.7441 37.5855 42.7425 35.7234C42.7391 33.8631 41.9983 32.0802 40.6824 30.7652C39.3662 29.4506 37.5826 28.7113 35.7223 28.7095V28.7094Z" fill="black"/>
<path d="M34.2223 38.8652C34.0575 38.8646 33.8994 38.7989 33.7825 38.6829L31.7586 36.659C31.6258 36.5452 31.5463 36.381 31.5395 36.2061C31.5328 36.0312 31.5991 35.8612 31.723 35.7375C31.8467 35.6135 32.0167 35.5469 32.1916 35.5537C32.3666 35.5604 32.5307 35.6399 32.6449 35.7731L34.2222 37.3504L38.81 32.7688H38.8103C39.0595 32.5552 39.4311 32.5696 39.6634 32.8019C39.8954 33.0339 39.9098 33.4056 39.6962 33.655L34.6684 38.6829C34.5499 38.8004 34.3891 38.8661 34.2222 38.8652L34.2223 38.8652Z" fill="black"/>
</svg>
