<svg width="33" height="32" viewBox="0 0 33 32" fill="none" xmlns="http://www.w3.org/2000/svg">
<path d="M8.8417 14.4811L6.22856 20.1243C5.54768 21.4871 5.59757 23.0944 6.36195 24.4131C6.64701 24.9157 7.04515 25.3467 7.52546 25.6735C7.76195 25.7988 7.93425 26.0163 7.99978 26.2728C8.0653 26.5293 8.01807 26.8013 7.86972 27.022C7.72171 27.2425 7.48588 27.3914 7.22078 27.4318C6.95567 27.4724 6.68558 27.4009 6.4767 27.2349C5.75357 26.7484 5.15319 26.1048 4.72181 25.3536C3.66976 23.5514 3.56332 21.3595 4.43575 19.466L7.04888 13.8227C7.14202 13.58 7.33261 13.3858 7.57576 13.2864C7.81891 13.187 8.09265 13.1913 8.33247 13.2979C8.57263 13.4045 8.75723 13.6039 8.84272 13.8493C8.9282 14.095 8.90725 14.3643 8.78451 14.594L8.8417 14.4811ZM32.0549 17.8294C33.4609 20.8516 33.2899 24.3594 31.5972 27.235C30.0592 29.8937 27.3054 31.6481 24.2153 31.9378C23.4995 32.0207 22.7761 32.0207 22.0602 31.9378C19.9417 31.692 17.971 30.7433 16.4714 29.2478C14.966 30.746 12.9882 31.6947 10.8638 31.9378C10.5079 31.9591 10.1513 31.9591 9.79539 31.9378C9.4335 31.9591 9.07028 31.9591 8.70835 31.9378C5.62756 31.6045 2.90306 29.8154 1.40294 27.1408C-0.290128 24.2652 -0.460772 20.7574 0.94525 17.7352L8.8417 0.504526C9.01632 0.193217 9.34894 0 9.70947 0C10.0704 0 10.4027 0.193217 10.5776 0.504526L16.4714 13.1265L22.1935 0.523001V0.522673C22.3681 0.211365 22.7004 0.0181473 23.0612 0.0181473C23.4221 0.0181473 23.7544 0.211365 23.929 0.522673L32.0549 17.8294ZM16.9677 18.6006L9.79565 3.17543L2.68115 18.6006C1.54727 21.0826 1.71119 23.9536 3.11988 26.2945C4.3137 28.3733 6.43713 29.7694 8.84198 30.0564C9.41841 30.1263 10.0015 30.1263 10.578 30.0564C12.5624 29.8688 14.3892 28.9073 15.6515 27.3855C16.6696 26.1816 17.3255 24.7205 17.5447 23.1679C17.7639 21.6149 17.5374 20.0328 16.8911 18.6005L16.9677 18.6006ZM30.3195 18.6006L23.1474 3.17543L17.4253 15.3842L18.5506 17.8108C18.7468 18.2379 18.9125 18.6778 19.0465 19.1279C19.0465 19.2785 19.0465 19.41 19.142 19.5606C19.2375 19.7112 19.2947 20.1625 19.3326 20.4637C19.3708 20.7648 19.3326 20.8212 19.3326 20.9905V21.8182V22.3824V23.1723V23.7556C19.3326 23.9626 19.3326 24.2634 19.1799 24.5268C19.0272 24.7902 19.0655 24.9031 19.0083 25.091C18.9511 25.279 18.8367 25.5801 18.7412 25.8245L18.5699 26.2949C18.4555 26.5393 18.341 26.7654 18.2073 26.9911L17.902 27.4989L17.7304 27.8L17.7307 27.7997C18.9095 29.0377 20.4864 29.8355 22.1938 30.0569C22.7703 30.1265 23.353 30.1265 23.9295 30.0569C26.3972 29.8217 28.5952 28.4187 29.8236 26.2949C31.2322 23.954 31.3959 21.0831 30.2623 18.6011L30.3195 18.6006Z" fill="black"/>
</svg>
