<svg width="42" height="42" viewBox="0 0 42 42" fill="none" xmlns="http://www.w3.org/2000/svg">
<path d="M39.9471 0H2.05389C1.50326 0.00687511 0.977962 0.231874 0.592919 0.625318C0.207915 1.01907 -0.00521507 1.54941 9.69846e-05 2.10005V32.2004C-0.00521555 32.751 0.207915 33.2813 0.592919 33.6751C0.977922 34.0685 1.50325 34.2935 2.05389 34.3004H15.974L15.5072 37.1004H14.7C14.4543 37.1004 14.2265 37.2292 14.0999 37.4398L11.9999 40.9399C11.8702 41.1561 11.8665 41.4255 11.9909 41.6452C12.1149 41.8646 12.3477 42.0005 12.5999 42.0005H29.4001C29.6523 42.0005 29.8851 41.8646 30.0092 41.6452C30.1335 41.4255 30.1298 41.1561 30.0001 40.9399L27.9001 37.4398C27.7735 37.2292 27.5457 37.1004 27.3001 37.1004H26.4929L26.026 34.3004H39.9461C40.4968 34.2935 41.0221 34.0685 41.4071 33.6751C41.7921 33.2813 42.0052 32.751 41.9999 32.2004V2.10005C42.0052 1.54942 41.7921 1.01908 41.4071 0.625318C41.0221 0.231874 40.4968 0.00687207 39.9461 0H39.9471ZM2.05389 1.40001H39.9471C40.3205 1.41376 40.6127 1.72658 40.6008 2.10002V28.7003H1.40044V2.10002C1.38856 1.72658 1.68075 1.41377 2.0542 1.40001H2.05389ZM28.1646 40.6004H13.8372L15.0972 38.5004H26.9045L28.1646 40.6004ZM25.0748 37.1004H16.9276L17.3938 34.3003H24.6083L25.0748 37.1004ZM39.9478 32.9003H2.05461C1.68117 32.8866 1.38898 32.5738 1.40086 32.2003V30.1003H40.6012V32.2003C40.6131 32.5738 40.3209 32.8866 39.9475 32.9003H39.9478Z" fill="black"/>
</svg>
