<svg width="42" height="43" viewBox="0 0 42 43" fill="none" xmlns="http://www.w3.org/2000/svg">
<path d="M29.8679 10.3572C32.2953 10.372 34.5551 10.9921 36.573 12.3571C39.6813 14.4606 41.5184 17.3929 41.8917 21.1245C42.0759 22.9731 41.969 24.8529 41.9706 26.7179C41.9706 27.333 41.6549 27.5895 40.9822 27.5895C38.3262 27.5928 35.6701 27.5928 33.0124 27.5895C32.2674 27.5879 31.9894 27.3034 31.9878 26.5485C31.9845 25.2048 31.9894 23.8595 31.9862 22.5159C31.9812 21.169 31.1885 20.3664 29.8416 20.3516C28.9568 20.3417 28.0703 20.3499 27.1855 20.3499C26.7316 20.3499 26.2777 20.3499 25.7794 20.3499C25.7794 20.6443 25.7794 20.8795 25.7794 21.1147C25.7777 22.159 25.5804 22.3564 24.5262 22.3564C19.4344 22.3564 14.3427 22.3564 9.25097 22.3564C9.14078 22.3564 9.02895 22.3597 8.91876 22.3547C8.32341 22.3218 8.06027 22.0587 8.04711 21.4683C8.03889 21.1114 8.04547 20.7545 8.04547 20.3516C7.7922 20.3516 7.60635 20.3516 7.41887 20.3516C5.3154 20.3516 3.21358 20.3532 1.11012 20.3499C0.2138 20.3483 0 20.1263 0 19.2201C0 16.6265 0 14.033 0 11.441C0 10.6171 0.25327 10.3572 1.06571 10.3572C3.21687 10.3556 5.36638 10.3572 7.51754 10.3556C7.68365 10.3556 7.84976 10.3391 8.04547 10.3293C8.04547 9.96253 8.04218 9.64841 8.04547 9.33593C8.05369 8.62216 8.3086 8.36396 9.01579 8.36067C10.1391 8.35738 11.2607 8.35903 12.384 8.35903C12.7425 8.35903 13.101 8.35903 13.4711 8.35903V4.99249C12.5172 4.99249 11.5896 4.99414 10.6604 4.99249C8.91711 4.99085 7.99942 4.04848 8.04547 2.31012C8.08165 0.933578 9.02566 0.00108038 10.394 0.00108038C14.7259 -0.000564241 19.0595 -0.000564517 23.3914 0.00272472C23.5953 0.00272472 23.8058 0.00930321 24.0015 0.0586417C25.2235 0.366185 25.9175 1.46314 25.7646 2.81995C25.6149 4.14387 24.7087 4.96454 23.3388 4.9892C22.5017 5.00565 21.6629 4.99085 20.8241 4.99414C20.658 4.99414 20.4903 5.0073 20.3192 5.01552V8.35738C20.5002 8.35738 20.6547 8.35738 20.8093 8.35738C22.1217 8.35738 23.4342 8.35574 24.7466 8.35903C25.4981 8.36067 25.7679 8.63368 25.7761 9.39349C25.7794 9.69281 25.7761 9.99049 25.7761 10.3589C27.1855 10.3556 28.5259 10.349 29.8679 10.3572ZM9.59963 20.7693H24.1825V9.9395H9.59963V20.7693ZM40.3885 26.0074C40.4017 25.8742 40.4247 25.7525 40.423 25.6324C40.3951 24.0849 40.5135 22.5175 40.303 20.9963C39.729 16.8518 37.369 14.051 33.491 12.5281C32.3184 12.0676 31.0833 11.9114 29.8251 11.918C28.4996 11.9246 27.174 11.9196 25.8123 11.9196V18.7974C27.1362 18.7974 28.4437 18.7859 29.7511 18.804C30.1573 18.8106 30.5751 18.8517 30.9632 18.9635C32.5568 19.4207 33.5206 20.7562 33.5453 22.5159C33.5584 23.4961 33.5485 24.4763 33.5485 25.4565C33.5485 25.6259 33.5485 25.7953 33.5485 26.0091H40.3885V26.0074ZM8.01258 11.9591H1.55745V18.776H8.01258V11.9591ZM23.2532 3.42846C23.967 3.42846 24.2055 3.19657 24.2088 2.51241C24.2137 1.79042 23.9637 1.51906 23.2648 1.51742C19.0151 1.51413 14.7654 1.51413 10.5157 1.51742C9.83646 1.51742 9.56674 1.81674 9.57331 2.52392C9.57989 3.17026 9.83645 3.42682 10.5042 3.42682C12.6372 3.43011 14.7703 3.42846 16.9017 3.42846C19.02 3.42846 21.1366 3.43011 23.2532 3.42846ZM15.1042 8.32942H18.7125V5.0073H15.1042V8.32942Z" fill="black"/>
<path d="M41.5128 35.6826C41.4816 34.408 41.0721 33.2782 40.6576 32.173C39.9537 30.3014 39.1002 28.5647 38.1825 26.8872H35.8011C34.6663 28.9709 33.6302 31.1402 32.8457 33.5413C31.5086 37.643 33.9246 42.1377 37.0099 42.0506C39.5278 42.0456 41.5984 39.1347 41.5128 35.6826ZM39.9521 36.7746C39.7745 38.4374 39.0854 39.5705 37.9391 40.1083C36.7566 40.6625 35.6827 40.2859 34.8258 39.0557C34.0019 37.8732 33.6894 36.4309 34.2042 34.885C34.64 33.5742 35.1811 32.3243 35.7221 31.0843C36.0905 30.2406 36.5362 29.461 36.9836 28.5795C38.1266 30.8178 39.3222 32.8999 39.9093 35.4688C40.0014 35.8734 39.9981 36.3503 39.9521 36.7746Z" fill="black"/>
<path d="M38.1824 26.8872H35.801C34.6662 28.9709 33.6301 31.1402 32.8456 33.5413C31.5217 37.6035 33.8784 42.0522 36.9209 42.0522C36.9505 42.0522 36.9801 42.0522 37.0098 42.0506C39.526 42.0456 41.5966 39.1347 41.5111 35.6826C41.4798 34.408 41.0703 33.2782 40.6559 32.173C39.9553 30.3014 39.1001 28.5647 38.1824 26.8872ZM36.9012 40.3583C36.1282 40.3583 35.4243 39.9159 34.8257 39.0557C34.0017 37.8732 33.6893 36.4309 34.204 34.885C34.6399 33.5742 35.1809 32.3243 35.722 31.0843C36.0904 30.2406 36.5361 29.461 36.9834 28.5795C38.1264 30.8178 39.3221 32.8999 39.9092 35.4688C40.0013 35.8717 39.998 36.3487 39.952 36.773C39.7744 38.4357 39.0853 39.5705 37.939 40.1066C37.5821 40.276 37.2351 40.3583 36.9012 40.3583Z" fill="black"/>
</svg>
