<svg width="49" height="28" viewBox="0 0 49 28" fill="none" xmlns="http://www.w3.org/2000/svg">
<path d="M26.4135 12.1722L27.5079 13.2666H18.5039C18.1058 13.2666 17.7578 13.615 17.7578 14.0126C17.7578 14.4106 18.1062 14.7587 18.5039 14.7587H27.5079L26.4135 15.8531C26.1151 16.1515 26.1151 16.5991 26.4135 16.8979C26.5627 17.0471 26.7619 17.0968 26.9607 17.0968C27.1596 17.0968 27.3587 17.0471 27.508 16.8979L30.3932 14.0127L27.508 11.1274C27.2095 10.829 26.7619 10.829 26.4631 11.1274C26.1647 11.4262 26.1151 11.9234 26.4135 12.1722L26.4135 12.1722Z" fill="black"/>
<path d="M46.0648 11.1271C45.7664 10.8287 45.3187 10.8287 45.0199 11.1271C44.7215 11.4255 44.7215 11.8732 45.0199 12.172L46.1144 13.2664H42.1346C39.7965 13.2664 37.906 11.3759 37.906 9.03777C37.906 5.90367 35.369 3.31714 32.1854 3.31714H30.7925C30.3944 3.31714 30.0464 3.66553 30.0464 4.06319C30.0464 4.4612 30.3948 4.80924 30.7925 4.80924H32.1854C34.5234 4.80924 36.4139 6.69968 36.4139 9.03784C36.4139 10.7291 37.16 12.2216 38.3044 13.2664H37.21C34.0759 13.2664 31.4893 15.8034 31.4893 18.9871C31.4893 21.3251 29.5989 23.2157 27.2607 23.2157H25.7187C25.3207 23.2157 24.9727 23.5641 24.9727 23.9617C24.9727 24.3597 25.321 24.7078 25.7187 24.7078H27.2607C30.3948 24.7078 32.9814 22.1708 32.9814 18.9871C32.9814 16.6491 34.8718 14.7585 37.21 14.7585H46.1145L45.0201 15.853C44.7217 16.1514 44.7217 16.599 45.0201 16.8978C45.1693 17.047 45.3685 17.0966 45.5673 17.0966C45.7662 17.0966 45.9654 17.047 46.1146 16.8978L48.9999 14.0125L46.0648 11.1271Z" fill="black"/>
<path d="M8.25895 14.7587H10.8458C13.9799 14.7587 16.5665 12.2217 16.5665 9.03805C16.5665 6.69999 18.4569 4.80946 20.7951 4.80946H23.8792L22.7848 5.90387C22.4864 6.20229 22.4864 6.64992 22.7848 6.94872C22.934 7.09793 23.1332 7.14755 23.332 7.14755C23.5309 7.14755 23.7301 7.09793 23.8793 6.94872L26.7646 4.06344L23.8793 1.17816C23.5808 0.87974 23.1332 0.87974 22.8344 1.17816C22.536 1.47659 22.536 1.92421 22.8344 2.22301L23.9288 3.31743H20.8447C17.7106 3.31743 15.124 5.85439 15.124 9.03805C15.124 11.3761 13.2336 13.2667 10.8954 13.2667H8.30855C7.91054 13.2667 7.5625 13.615 7.5625 14.0127C7.5625 14.4104 7.86092 14.7588 8.25893 14.7588L8.25895 14.7587Z" fill="black"/>
<path d="M17.9584 21.0766C17.6599 21.375 17.6599 21.8226 17.9584 22.1214L19.0528 23.2158H10.8445C8.50642 23.2158 6.61589 21.3254 6.61589 18.9872C6.61589 15.8531 4.07893 13.2666 0.895262 13.2666H0.746051C0.348037 13.2666 0 13.615 0 14.0127C0 14.4107 0.348392 14.7587 0.746051 14.7587H0.895262C3.23333 14.7587 5.12386 16.6491 5.12386 18.9873C5.12386 22.1214 7.66083 24.7079 10.8445 24.7079H19.0524L17.958 25.8024C17.6596 26.1008 17.6596 26.5484 17.958 26.8472C18.1072 26.9964 18.3064 27.046 18.5052 27.046C18.7041 27.046 18.9033 26.9964 19.0525 26.8472L21.9377 23.9619L19.0028 21.0766C18.7044 20.7782 18.2568 20.7782 17.9583 21.0766L17.9584 21.0766Z" fill="black"/>
</svg>
