<svg width="40" height="40" viewBox="0 0 40 40" fill="none" xmlns="http://www.w3.org/2000/svg">
<path d="M20.4115 0C21.0015 0.18 21.4915 0.52 21.9515 0.92C22.3515 1.28 22.8315 1.31 23.3315 1.11C23.9015 0.87 24.4915 0.76 25.1115 0.93C25.8415 1.13 26.3815 1.55 26.7215 2.22C26.9415 2.64 27.1515 3.07 27.6515 3.19C27.8815 3.25 28.1315 3.27 28.3815 3.27C29.7215 3.27 30.8415 4.3 30.9115 5.56C30.9515 6.36 31.3315 6.86 32.0915 7.15C33.3715 7.64 33.9915 8.87 33.6015 10.19C33.3715 10.96 33.5515 11.53 34.1315 12.06C35.1715 13.01 35.2815 14.35 34.4315 15.47C33.9615 16.09 33.9115 16.68 34.2615 17.37C34.8915 18.62 34.5215 19.93 33.3315 20.67C32.7115 21.06 32.3615 21.55 32.4715 22.3C32.6715 23.66 31.7915 24.8 30.5415 25.13C30.6215 25.27 30.6915 25.4 30.7715 25.52C32.3915 28.05 34.0115 30.57 35.6115 33.11C35.7515 33.34 35.8715 33.63 35.8815 33.89C35.9015 34.46 35.3815 34.84 34.7615 34.78C33.1815 34.63 31.5915 34.49 30.0115 34.34C29.9515 34.33 29.8815 34.34 29.7715 34.34C29.5015 35.08 29.2315 35.82 28.9615 36.57C28.6715 37.37 28.3815 38.17 28.1015 38.97C27.9515 39.39 27.7215 39.71 27.2415 39.76C26.7715 39.81 26.4815 39.55 26.2315 39.17C24.2415 36.05 22.2515 32.94 20.2615 29.82C20.1715 29.68 20.0815 29.54 19.9615 29.36C19.8415 29.53 19.7415 29.66 19.6615 29.79C17.6915 32.87 15.7215 35.95 13.7515 39.04C13.6915 39.13 13.6415 39.22 13.5815 39.3C13.3615 39.63 13.0615 39.81 12.6615 39.76C12.2615 39.71 12.0015 39.48 11.8715 39.11C11.4315 37.9 10.9915 36.68 10.5515 35.47C10.4115 35.09 10.2815 34.72 10.1315 34.32C9.40152 34.38 8.68152 34.44 7.96152 34.5C7.00152 34.6 6.03152 34.69 5.06152 34.78C4.67152 34.81 4.34152 34.67 4.14152 34.33C3.91152 33.95 3.99152 33.57 4.22152 33.2C5.34152 31.45 6.46152 29.69 7.58152 27.94C8.17152 27.02 8.76152 26.09 9.37152 25.14C8.44152 24.87 7.79152 24.33 7.52152 23.41C7.43152 23.11 7.39152 22.77 7.43152 22.46C7.52152 21.69 7.29152 21.12 6.60152 20.7C5.36152 19.93 5.00152 18.66 5.65152 17.35C5.98152 16.68 5.93152 16.11 5.49152 15.52C4.61152 14.34 4.72152 13.04 5.79152 12.05C6.35152 11.54 6.52152 10.98 6.30152 10.25C5.90152 8.88 6.50152 7.67 7.84152 7.15C8.60152 6.84 8.94152 6.32 9.00152 5.53C9.09152 4.28 10.1515 3.26 11.4015 3.3C12.3015 3.32 12.8415 2.96 13.2115 2.16C13.7215 1.09 15.0615 0.59 16.1915 0.99C16.3715 1.05 16.5615 1.11 16.7415 1.18C17.1715 1.32 17.5715 1.25 17.9015 0.96C18.3715 0.54 18.8815 0.2 19.4815 0.01H20.4115V0ZM8.61152 22.26C8.54152 23.28 8.89152 23.86 9.74152 23.99C10.9715 24.18 11.7015 24.87 12.0215 26.05C12.2515 26.89 12.8415 27.23 13.7015 27.05C14.8115 26.82 15.7215 27.13 16.4115 28.04C17.0615 28.89 17.6515 28.99 18.5715 28.43C19.4715 27.89 20.4115 27.84 21.2815 28.43C22.1115 28.99 22.9715 28.8 23.5215 28.01C24.1015 27.16 24.9715 26.86 26.0015 27.03C26.2915 27.08 26.6015 27.12 26.8815 27.06C27.5515 26.94 27.7815 26.41 27.9515 25.82C28.2315 24.83 28.9115 24.25 29.9015 24.03C31.0515 23.78 31.3715 23.4 31.2815 22.25C31.2015 21.16 31.6215 20.35 32.5515 19.78C33.4115 19.25 33.5915 18.64 33.1415 17.76C32.6315 16.75 32.7215 15.8 33.4115 14.9C34.0115 14.12 33.9415 13.48 33.2215 12.83C32.3815 12.07 32.1115 11.15 32.4315 10.06C32.7115 9.13 32.4115 8.52 31.5115 8.19C30.4015 7.78 29.8415 6.98 29.7515 5.83C29.6815 4.95 29.2015 4.48 28.3215 4.49C27.1115 4.51 26.2515 4 25.7315 2.89C25.3615 2.1 24.7215 1.86 23.9015 2.18C22.7915 2.63 21.8115 2.46 20.9415 1.63C20.2815 1.01 19.6215 1.02 18.9515 1.64C18.0815 2.45 17.1215 2.63 16.0215 2.18C15.1815 1.84 14.5515 2.08 14.1615 2.89C13.6415 3.98 12.7915 4.49 11.6015 4.47C10.7015 4.46 10.2315 4.92 10.1515 5.83C10.0515 6.97 9.49152 7.76 8.40152 8.17C7.48152 8.51 7.19152 9.1 7.47152 10.06C7.78152 11.13 7.52152 12.05 6.69152 12.8C5.95152 13.47 5.88152 14.1 6.49152 14.9C7.18152 15.8 7.26152 16.75 6.74152 17.77C6.30152 18.64 6.47152 19.25 7.31152 19.77C8.26152 20.33 8.70152 21.16 8.61152 22.26ZM21.7015 29.89C23.5015 32.71 25.2715 35.47 27.0715 38.29C27.3515 37.51 27.6015 36.81 27.8715 36.11C27.9715 35.85 27.9415 35.66 27.7915 35.43C26.5615 33.5 25.3515 31.57 24.1315 29.64C24.0715 29.54 24.0015 29.46 23.9315 29.35C23.2715 29.85 22.5715 30.08 21.7015 29.89ZM12.8215 38.29C14.6315 35.46 16.3915 32.71 18.1815 29.9C17.3015 30.08 16.6015 29.85 15.9815 29.36C15.9415 29.39 15.9215 29.4 15.9015 29.42C14.6015 31.47 13.3115 33.52 12.0215 35.58C11.9715 35.67 11.9315 35.81 11.9615 35.9C12.2315 36.68 12.5215 37.45 12.8215 38.29ZM5.40152 33.56C6.21152 33.48 6.94152 33.42 7.67152 33.34C7.79152 33.33 7.95152 33.25 8.01152 33.16C9.16152 31.36 10.2915 29.56 11.4215 27.75C11.4715 27.67 11.4515 27.52 11.4115 27.42C11.2415 27.04 11.0415 26.66 10.8615 26.28C10.7515 26.06 10.6615 25.84 10.5215 25.54C8.79152 28.25 7.11152 30.87 5.40152 33.56ZM29.3715 25.54C29.2415 25.8 29.1515 25.98 29.0615 26.16C28.8515 26.58 28.6415 27.01 28.4515 27.44C28.4115 27.53 28.4215 27.69 28.4815 27.77C29.5915 29.56 30.7215 31.34 31.8515 33.12C31.9115 33.21 32.0115 33.31 32.1015 33.32C32.8715 33.41 33.6515 33.47 34.4915 33.55C32.7815 30.88 31.1015 28.25 29.3715 25.54ZM9.46152 33.12C9.91152 33.16 10.3815 33.09 10.7115 33.27C11.0415 33.45 11.2315 33.89 11.4815 34.22C12.6815 32.31 13.9115 30.36 15.1415 28.41C14.7315 28.11 14.3215 28.16 13.9115 28.21C13.5715 28.25 13.2115 28.29 12.8715 28.23C12.6015 28.2 12.5015 28.26 12.3815 28.46C11.5015 29.87 10.6015 31.28 9.72152 32.69C9.62152 32.83 9.54152 32.97 9.46152 33.12ZM30.4715 33.21C30.3815 33.04 30.3315 32.95 30.2815 32.87C29.3615 31.4 28.4315 29.94 27.5115 28.47C27.3715 28.25 27.2515 28.2 26.9915 28.24C26.6615 28.29 26.3015 28.24 25.9515 28.2C25.5315 28.16 25.1115 28.1 24.7515 28.42C25.9915 30.38 27.2115 32.32 28.5115 34.37C28.7015 33.14 29.4815 33.01 30.4715 33.21Z" fill="black"/>
<path d="M22.0299 18.65C22.4399 18.65 22.8199 18.65 23.1899 18.65C23.7799 18.66 24.0599 18.94 24.0699 19.54C24.0799 20.07 24.0799 20.6 24.0699 21.13C24.0599 21.61 23.8299 21.87 23.3599 21.94C23.2299 21.96 23.0999 21.96 22.9699 21.96C20.9499 21.96 18.9299 21.96 16.9099 21.96C16.0299 21.96 15.7799 21.7 15.7699 20.83C15.7699 20.4 15.7599 19.97 15.7699 19.55C15.7899 18.94 16.0899 18.65 16.6899 18.65C17.1699 18.64 17.6399 18.65 18.1399 18.65V13.12C17.9099 13.31 17.7099 13.48 17.5099 13.64C16.9899 14.05 16.5899 14 16.1799 13.48C15.8499 13.06 15.5199 12.65 15.1999 12.22C14.8499 11.76 14.8799 11.38 15.3199 11C16.4399 10.04 17.5699 9.08997 18.7199 8.15997C18.8999 8.00997 19.1799 7.92997 19.4199 7.91997C19.9499 7.87997 20.4799 7.90997 21.0099 7.90997C21.7399 7.90997 22.0199 8.17997 22.0199 8.90997C22.0199 10.49 22.0199 12.07 22.0199 13.65C22.0299 15.29 22.0299 16.94 22.0299 18.65ZM22.8899 19.81C22.4299 19.81 22.0099 19.82 21.5799 19.81C21.1799 19.79 20.9399 19.58 20.8699 19.18C20.8399 19.02 20.8299 18.85 20.8299 18.68C20.8299 15.64 20.8299 12.6 20.8299 9.55997V9.11997C19.9999 9.01997 19.2499 9.00997 18.7099 9.70997C18.6899 9.73997 18.6499 9.75997 18.6199 9.77997C17.8599 10.42 17.0999 11.06 16.3199 11.72C16.5499 12.01 16.7499 12.27 16.9699 12.55C17.3399 12.25 17.6799 11.97 18.0099 11.69C18.2699 11.47 18.5499 11.34 18.8999 11.49C19.2599 11.65 19.3699 11.95 19.3699 12.31C19.3699 14.51 19.3799 16.71 19.3699 18.91C19.3699 19.56 19.0799 19.82 18.4399 19.83C17.9599 19.84 17.4899 19.83 17.0099 19.83V20.73H22.8899V19.81Z" fill="black"/>
<path d="M19.9807 26.09C14.8007 26.12 10.1607 22.41 9.08072 17.37C9.01072 17.07 8.97072 16.76 8.92072 16.45C8.86072 16.05 9.06072 15.75 9.41072 15.69C9.73072 15.64 10.0107 15.84 10.0807 16.23C10.2707 17.34 10.5407 18.43 11.0807 19.43C12.6807 22.44 15.1507 24.26 18.5307 24.77C23.0407 25.45 27.2707 22.96 29.0107 18.98C29.3407 18.22 29.5007 17.38 29.7307 16.58C29.7707 16.46 29.7707 16.33 29.8107 16.2C29.9007 15.84 30.1607 15.63 30.4707 15.68C30.8107 15.73 31.0407 16.05 30.9607 16.43C30.8207 17.11 30.7207 17.81 30.4807 18.46C29.2107 22.05 26.7507 24.45 23.1107 25.58C22.1107 25.89 21.0407 25.98 20.0007 26.17C20.0007 26.16 19.9907 26.13 19.9807 26.09Z" fill="black"/>
<path d="M30.9715 13.4099C30.9415 13.8299 30.8115 14.0799 30.4815 14.1299C30.1415 14.1899 29.9015 14.0399 29.8115 13.6999C29.6015 12.9399 29.4815 12.15 29.1915 11.4299C27.7715 7.92995 25.1915 5.78995 21.4615 5.19995C16.2915 4.36995 11.4415 7.68995 10.2615 12.7799C10.1915 13.0799 10.1615 13.3899 10.0815 13.6899C9.98151 14.0499 9.71151 14.2099 9.38151 14.1299C9.08151 14.0599 8.88151 13.7499 8.95151 13.4099C9.82151 8.71995 12.4915 5.54995 17.1015 4.26995C22.8115 2.67995 28.6415 5.89995 30.5015 11.5199C30.7115 12.1699 30.8315 12.8499 30.9715 13.4099Z" fill="black"/>
</svg>
