<svg width="39" height="39" viewBox="0 0 39 39" fill="none" xmlns="http://www.w3.org/2000/svg">
<path d="M0 17.7128C0.0976359 17.0422 0.170863 16.3674 0.298651 15.7026C1.41572 9.90763 4.52428 5.50827 9.60422 2.50884C11.4205 1.43628 13.3847 0.739907 15.4523 0.330698C15.9908 0.224447 16.3928 0.435514 16.499 0.894977C16.5967 1.31424 16.3124 1.69186 15.784 1.79667C12.8391 2.38393 10.1872 3.6015 7.87836 5.52407C4.70088 8.17173 2.66058 11.5244 1.86226 15.5863C0.884468 20.5543 1.84216 25.1532 4.79565 29.2668C7.56966 33.1306 11.3358 35.5127 16.0396 36.3296C24.7995 37.8516 33.2852 32.664 35.8424 24.1754C38.8203 14.2955 32.8215 4.09686 22.719 1.87995C22.5496 1.84262 22.3787 1.81821 22.2093 1.78231C21.7398 1.68468 21.4569 1.33003 21.5172 0.922258C21.5833 0.481461 21.9523 0.192859 22.4505 0.310596C23.5073 0.557558 24.587 0.771495 25.5935 1.1606C31.6685 3.51392 35.6845 7.81421 37.4362 14.0988C40.3064 24.4037 33.8883 35.1494 23.4786 37.5874C13.2555 39.9824 3.10712 33.8299 0.5571 23.67C0.317318 22.7152 0.231167 21.7201 0.0717911 20.7452C0.0559971 20.6505 0.024409 20.5586 0 20.4652V17.7128Z" fill="black"/>
<path d="M19.2737 0.00192332C19.3441 0.0507413 19.4159 0.0966882 19.4834 0.148378C19.8452 0.424056 19.9055 0.892133 19.6255 1.22381C19.3527 1.54687 18.8401 1.57558 18.5314 1.28411C18.2242 0.995512 18.2299 0.491538 18.5443 0.191451C18.6133 0.126839 18.6836 0.0636645 18.754 0.000488281H19.2737V0.00192332Z" fill="black"/>
<path d="M29.505 9.63511C28.6479 10.5354 27.8854 11.3667 27.0914 12.165C25.6728 13.5879 24.2413 14.9965 22.8012 16.3978C22.5758 16.6175 22.4968 16.8386 22.4982 17.1459C22.5083 20.3205 22.5083 23.4951 22.5025 26.6697C22.4997 28.4114 21.5894 29.7323 20.0645 30.2349C17.816 30.9757 15.4627 29.3188 15.4182 26.9526C15.401 26.0236 15.4139 25.0932 15.4139 24.1628C15.4139 24.0436 15.4139 23.9258 15.4139 23.6904C13.4942 25.6833 11.6492 27.5972 9.7754 29.5428C10.0195 29.7395 10.3813 30.0511 10.7647 30.3339C12.2881 31.4539 13.9694 32.2421 15.8116 32.6772C16.1619 32.759 16.4405 32.9227 16.5152 33.3003C16.6243 33.8503 16.1677 34.2853 15.5876 34.1661C14.3456 33.9106 13.1582 33.4784 12.0411 32.8854C7.45799 30.4517 4.63229 26.6798 3.75787 21.5682C2.34646 13.3209 7.91458 5.37071 16.0945 3.81715C24.26 2.26646 32.2977 7.51871 34.1672 15.6282C36.0696 23.8785 30.9136 32.1847 22.6734 34.1446C22.0948 34.2824 21.6899 34.0929 21.5793 33.6349C21.4673 33.1726 21.7229 32.8122 22.2742 32.6844C23.8063 32.3269 25.245 31.7353 26.5587 30.8738C30.1339 28.532 32.2992 25.2526 32.9022 21.014C33.4923 16.876 32.3738 13.1959 29.7147 9.97827C29.6587 9.91079 29.6228 9.82894 29.505 9.63511ZM22.5068 14.4868C22.5413 14.5025 22.5743 14.5183 22.6088 14.5341C24.5141 12.5556 26.4195 10.5756 28.3234 8.59844C23.5808 4.06412 14.8597 3.418 9.13072 9.18713C3.34292 15.0151 4.20728 23.6387 8.58941 28.3037C8.63393 28.2663 8.68418 28.2319 8.72582 28.1902C10.8968 26.048 13.0706 23.9086 15.2315 21.7563C15.3435 21.6458 15.4024 21.4318 15.4024 21.2667C15.4124 18.6621 15.4096 16.059 15.4096 13.4558V12.3115C15.3478 12.277 15.3062 12.2483 15.2602 12.2296C14.08 11.7357 13.4741 10.6861 13.7124 9.54609C13.9479 8.42184 14.9156 7.67952 16.1576 7.67952C18.0299 7.67808 19.9023 7.67521 21.7746 7.68382C22.0431 7.68526 22.3216 7.71828 22.5786 7.79295C23.5248 8.06288 24.1896 8.91432 24.2499 9.89356C24.3088 10.8512 23.7273 11.7745 22.8213 12.1722C22.7064 12.2225 22.5212 12.3115 22.5183 12.3876C22.4982 13.0868 22.5068 13.7875 22.5068 14.4868ZM20.9777 18.2386C20.903 18.2989 20.8657 18.3233 20.8341 18.3534C19.5806 19.5897 18.3243 20.823 17.0823 22.0708C16.9775 22.1756 16.9258 22.3752 16.9244 22.5317C16.9129 23.9201 16.9143 25.3085 16.9201 26.697C16.9215 26.931 16.9373 27.1708 16.9947 27.3962C17.2474 28.3913 18.1893 28.9986 19.2662 28.8794C20.2124 28.7746 20.9877 27.9002 20.9906 26.9023C20.9978 24.101 20.9935 21.2983 20.9935 18.497C20.9935 18.4281 20.9849 18.3592 20.9777 18.2386ZM18.9589 9.20149C18.0299 9.20149 17.0995 9.19287 16.1706 9.20867C15.9566 9.21298 15.7168 9.25318 15.5388 9.35943C15.2244 9.54896 15.1152 9.86915 15.21 10.231C15.3134 10.6244 15.6307 10.8512 16.116 10.8527C18.0127 10.8599 19.9094 10.8613 21.8062 10.8527C22.3805 10.8498 22.7409 10.5038 22.7351 10.0099C22.7308 9.51163 22.3805 9.20723 21.7861 9.20293C20.8427 9.19862 19.9008 9.20292 18.9589 9.20149ZM16.9488 12.3732V14.1723C17.9165 14.0043 18.745 14.3274 19.5878 14.6806C19.997 14.8529 20.4895 14.8242 20.9763 14.8917V12.3732H16.9488ZM20.4795 16.3777C19.7831 16.4021 19.0436 16.1207 18.3056 15.7934C18.0142 15.6641 17.6595 15.6555 17.3307 15.6368C17.0507 15.6211 16.8942 15.7417 16.9071 16.082C16.9359 16.8602 16.9158 17.6413 16.9158 18.4209C16.9158 18.9479 16.9158 19.4748 16.9158 20.0549C18.1506 18.7813 19.3394 17.5551 20.4795 16.3777Z" fill="black"/>
<path d="M19.7936 33.7942C19.8008 34.2135 19.5064 34.5322 19.0972 34.5466C18.6607 34.5624 18.3219 34.2594 18.309 33.8445C18.296 33.4309 18.622 33.072 19.0269 33.0562C19.4289 33.0404 19.7864 33.3836 19.7936 33.7942Z" fill="black"/>
</svg>
