<svg width="46" height="44" viewBox="0 0 46 44" fill="none" xmlns="http://www.w3.org/2000/svg">
<path d="M45.9995 14.1465C45.9995 6.43807 39.7282 0.166748 32.0198 0.166748C28.5849 0.166748 25.4362 1.41262 22.9998 3.47492C20.5635 1.41262 17.4147 0.166748 13.9797 0.166748C6.27096 0.166748 0 6.43843 0 14.1465C0 20.1969 3.86399 25.361 9.25403 27.3036C9.10087 28.1305 9.02027 28.9828 9.02027 29.8533C9.02027 37.5621 15.2916 43.8339 23 43.8339C30.7084 43.8339 36.9797 37.5623 36.9797 29.8542C36.9797 28.9834 36.8991 28.1314 36.746 27.3045C42.1357 25.3622 46 20.1976 46 14.1474L45.9995 14.1465ZM26.4089 16.2943C25.3172 16.0197 24.1753 15.8732 22.9999 15.8732C21.8245 15.8732 20.6826 16.0197 19.5909 16.2943C19.4705 15.5961 19.4071 14.8784 19.4071 14.1465C19.4071 10.7235 20.7785 7.61525 23 5.34046C25.2213 7.61525 26.5929 10.7235 26.5929 14.1465C26.5929 14.8788 26.5294 15.5961 26.409 16.2943H26.4089ZM22.9999 22.9529C21.5618 21.4802 20.4799 19.6586 19.8962 17.6277C20.8895 17.3755 21.9292 17.2408 22.9999 17.2408C24.0706 17.2408 25.1104 17.3755 26.1037 17.6277C25.52 19.6586 24.4381 21.4802 22.9999 22.9529ZM27.4088 18.0366C31.1262 19.4284 34.0171 22.5258 35.1235 26.372C34.1302 26.6242 33.0905 26.7589 32.0198 26.7589C28.9792 26.7589 26.1864 25.6773 24.0061 23.8788C25.5785 22.2596 26.7633 20.2619 27.4088 18.0366ZM21.9937 23.8792C19.8131 25.6777 17.0206 26.7592 13.98 26.7592C12.9093 26.7592 11.8696 26.6246 10.8763 26.3723C11.9823 22.5262 14.8735 19.4284 18.5909 18.037C19.2364 20.2619 20.4212 22.2596 21.9937 23.8792ZM1.36796 14.1464C1.36796 7.19198 7.02595 1.53409 13.9803 1.53409C17.0208 1.53409 19.8137 2.61561 21.994 4.41417C19.5482 6.93315 18.0397 10.3666 18.0397 14.146C18.0397 15.0169 18.1203 15.8688 18.2734 16.6957C14.086 18.2047 10.8201 21.6587 9.57102 25.9623C4.78458 24.1707 1.36789 19.55 1.36789 14.1458L1.36796 14.1464ZM35.6126 29.8535C35.6126 36.8079 29.9546 42.4658 23.0003 42.4658C16.046 42.4658 10.388 36.8078 10.388 29.8535C10.388 29.1215 10.4515 28.4039 10.5718 27.7057C11.6636 27.9803 12.8055 28.1268 13.9809 28.1268C17.4157 28.1268 20.5641 26.881 23.0009 24.8186C25.4371 26.881 28.5859 28.1268 32.0209 28.1268C33.1963 28.1268 34.3382 27.9803 35.4299 27.7057C35.5499 28.4038 35.6131 29.1212 35.6131 29.8535H35.6126ZM36.429 25.9633C35.1804 21.6594 31.9143 18.2054 27.7266 16.6968C27.8797 15.8699 27.9603 15.0176 27.9603 14.1471C27.9603 10.3673 26.4517 6.93341 24.0061 4.41524C26.1866 2.61633 28.9795 1.5348 32.0201 1.5348C38.9745 1.5348 44.6324 7.19279 44.6324 14.1471C44.6324 19.5514 41.2157 24.1719 36.4289 25.9636L36.429 25.9633Z" fill="black"/>
</svg>
