<svg width="158" height="159" viewBox="0 0 158 159" fill="none" xmlns="http://www.w3.org/2000/svg">
<g filter="url(#filter0_d_2351_2396)">
<path d="M30.5048 123.045C22.0265 114.5 16.1528 103.962 13.1561 92.9785L6.64453 94.726C10.0531 107.238 16.6511 118.666 25.7407 127.815C27.4151 126.134 28.8371 124.706 30.5048 123.045Z" fill="#C0C9FB"/>
<path d="M12.9883 92.3537C10.0515 81.1777 9.95843 69.0848 12.9817 57.643L6.47008 55.8955C3.17443 68.3672 3.17443 81.5631 6.48337 94.1012L12.9883 92.3537Z" fill="#D4BDFC"/>
<path d="M30.5025 26.9592L25.7318 22.1885C16.6355 31.3778 10.0375 42.8063 6.62891 55.2779L13.1405 57.0254C16.1438 46.0886 22.0175 35.5439 30.5025 26.9592Z" fill="#EEB4F8"/>
<path d="M30.9621 123.497L26.1914 128.267C35.3807 137.364 46.8092 143.962 59.2809 147.37C59.7261 145.696 60.8091 141.676 61.0284 140.859C49.653 137.736 39.2146 131.656 30.9621 123.497Z" fill="#B0EBFF"/>
<path d="M96.3566 8.97917L98.1041 2.4676C85.6325 -0.828061 72.4366 -0.821417 59.8984 2.48088L61.6459 8.99246C73.0412 5.98916 85.0876 6.00245 96.3566 8.97917Z" fill="#FFAEB1"/>
<path d="M61.0284 9.15221L59.2809 2.64062C46.7693 6.04924 35.3408 12.6472 26.1914 21.7368L30.9621 26.5076C39.487 18.0425 50.065 12.1489 61.0284 9.15221Z" fill="#FFAFDD"/>
<path d="M144.848 57.0254L151.359 55.2779C147.951 42.7664 141.353 31.3379 132.263 22.1885C130.582 23.8695 129.16 25.2914 127.492 26.9592C135.598 35.1186 141.705 45.5239 144.848 57.0254Z" fill="#FFFFA3"/>
<path d="M127.039 26.5005L131.81 21.7298C122.62 12.6335 111.192 6.03557 98.7201 2.62695L96.9727 9.13854C108.534 12.3146 118.919 18.474 127.039 26.5005Z" fill="#FFCCB1"/>
<path d="M145.016 57.6437C147.979 68.9193 148.012 81.0389 145.022 92.3611L151.534 94.1085C154.829 81.6369 154.823 68.441 151.521 55.9028L145.016 57.6437Z" fill="#FFFFBE"/>
<path d="M127.5 123.038L132.271 127.809C141.367 118.62 147.965 107.191 151.374 94.7197L144.862 92.9722C141.746 104.321 135.706 114.739 127.5 123.038Z" fill="#E7FFBF"/>
<path d="M61.6459 141.019L59.8984 147.53C72.3701 150.826 85.566 150.826 98.1041 147.524L96.3566 141.012C84.6624 144.082 72.6558 143.922 61.6459 141.019Z" fill="#A0EBE4"/>
<path d="M96.9727 140.845L98.7201 147.357C111.232 143.948 122.66 137.35 131.81 128.26L127.039 123.49C118.58 131.888 108.069 137.815 96.9727 140.845Z" fill="#C6F8C8"/>
<path d="M20.2889 91.0654L13.7773 92.8129C16.8537 104.069 22.7872 114.354 30.9599 122.593C32.641 120.912 34.0629 119.49 35.7307 117.823C28.2291 110.261 22.9799 100.893 20.2889 91.0654Z" fill="#8F9DE8"/>
<path d="M36.1848 118.274L31.4141 123.045C39.6864 131.224 49.9721 137.165 61.1946 140.234L62.9421 133.723C52.6498 130.892 43.3874 125.391 36.1848 118.274Z" fill="#78D0FF"/>
<path d="M62.9354 16.288L61.1879 9.77637C49.9322 12.8461 39.6532 18.7796 31.4141 26.959C33.0951 28.64 34.517 30.0619 36.1848 31.7297C43.6067 24.3676 52.9289 19.0255 62.9354 16.288Z" fill="#FF76BC"/>
<path d="M35.7256 32.1814L30.9549 27.4106C22.7822 35.683 16.842 45.9687 13.7656 57.1845L20.2772 58.932C23.0413 48.8856 28.3968 39.5966 35.7256 32.1814Z" fill="#D57DE4"/>
<path d="M20.1242 90.4404C17.4265 80.1481 17.5196 69.4239 20.1176 59.5502L13.606 57.8027C10.6425 69.0252 10.6492 80.8989 13.6126 92.1879L20.1242 90.4404Z" fill="#AD8BE9"/>
<path d="M63.5522 133.888L61.8047 140.4C73.0272 143.363 84.9009 143.357 96.1832 140.393L94.4357 133.882C84.5487 136.473 73.8179 136.586 63.5522 133.888Z" fill="#5FD0C6"/>
<path d="M94.4474 16.1088C94.6866 15.2118 95.7231 11.338 96.1949 9.59719C84.9724 6.63375 73.0987 6.6404 61.8164 9.60383L63.5639 16.1154C73.6569 13.4709 84.4143 13.4709 94.4474 16.1088Z" fill="#FF757B"/>
<path d="M121.824 118.274C114.435 125.597 105.146 130.952 95.0664 133.71L96.8139 140.221C108.07 137.151 118.355 131.211 126.594 123.038C124.913 121.364 123.491 119.942 121.824 118.274Z" fill="#99E39C"/>
<path d="M126.587 26.9593C118.314 18.7799 108.029 12.8398 96.8061 9.77002L95.0586 16.2816C105.371 19.1121 114.613 24.6204 121.816 31.73C123.497 30.0489 124.919 28.627 126.587 26.9593Z" fill="#FFA179"/>
<path d="M122.273 117.823L127.044 122.594C135.224 114.321 141.164 104.036 144.233 92.8198L137.722 91.0723C134.918 101.265 129.503 110.501 122.273 117.823Z" fill="#CAF68F"/>
<path d="M122.273 32.1755C129.748 39.717 135.018 49.0857 137.709 58.9328L144.22 57.1853C141.144 45.9296 135.21 35.6439 127.038 27.4048L122.273 32.1755Z" fill="#FFF165"/>
<path d="M137.879 59.5571C140.563 69.7896 140.497 80.5403 137.886 90.4472L144.397 92.1947C147.361 80.9722 147.354 69.0985 144.39 57.8096L137.879 59.5571Z" fill="#FFFF8C"/>
<path d="M121.368 117.822L116.597 113.051C110.132 119.45 101.972 124.161 93.1484 126.579L94.8959 133.091C104.903 130.353 114.045 125.084 121.368 117.822Z" fill="#6CCF70"/>
<path d="M65.4662 126.752C65.227 127.649 64.1905 131.523 63.7188 133.264C73.6921 135.888 84.2435 135.888 94.2767 133.257L92.5292 126.746C83.6455 129.065 74.2502 129.058 65.4662 126.752Z" fill="#1FB6A7"/>
<path d="M41.3996 113.051C39.7252 114.726 38.2967 116.154 36.6289 117.822C43.9843 125.091 53.1271 130.367 63.0938 133.104L64.8413 126.593C55.8647 124.114 47.7783 119.337 41.3996 113.051Z" fill="#40B6FF"/>
<path d="M40.9499 112.6C34.5978 106.188 29.8669 98.055 27.4217 89.1514L20.9102 90.8989C23.6477 100.905 28.9234 110.042 36.1792 117.37L40.9499 112.6Z" fill="#5E71D5"/>
<path d="M40.9475 37.3977C39.2731 35.7233 37.8446 34.2947 36.1768 32.627C28.9078 39.9824 23.6321 49.1252 20.8945 59.0919L27.4061 60.8394C29.9111 51.7896 34.7483 43.69 40.9475 37.3977Z" fill="#BC46D0"/>
<path d="M27.2514 88.5339C24.9259 79.6303 24.9325 70.2749 27.2448 61.4643L20.7332 59.7168C18.1087 69.6901 18.1087 80.2416 20.7399 90.2747L27.2514 88.5339Z" fill="#8759D7"/>
<path d="M130.582 60.846L137.093 59.0985C134.356 49.092 129.08 39.9558 121.818 32.627C120.137 34.308 118.715 35.7299 117.047 37.3977C123.472 43.8827 128.163 52.0355 130.582 60.846Z" fill="#FFE126"/>
<path d="M117.055 112.6L121.825 117.371C129.088 110.015 134.37 100.872 137.108 90.9057L130.596 89.1582C128.104 98.1747 123.294 106.268 117.055 112.6Z" fill="#ACE75E"/>
<path d="M92.537 23.2448L94.2845 16.7332C84.3111 14.1087 73.7597 14.1087 63.7266 16.7399L65.4741 23.2514C74.0786 20.999 83.4739 20.8661 92.537 23.2448Z" fill="#FF3B43"/>
<path d="M41.4008 36.9455C47.6532 30.7528 55.7263 25.9223 64.8491 23.4173L63.1016 16.9058C53.1017 19.6433 43.9589 24.919 36.6367 32.1814L41.4008 36.9455Z" fill="#FF3D99"/>
<path d="M130.75 61.464C132.976 69.9822 133.149 79.4174 130.757 88.5336L137.268 90.2811C139.893 80.3077 139.893 69.7563 137.262 59.7231L130.75 61.464Z" fill="#FFFF5A"/>
<path d="M116.602 36.9456L121.373 32.1749C114.017 24.9125 104.874 19.6301 94.9077 16.8926L93.1602 23.4042C101.944 25.836 110.097 30.5403 116.602 36.9456Z" fill="#FF7741"/>
<path d="M67.3803 119.61C66.5963 122.533 66.078 124.474 65.6328 126.135C74.3636 128.427 83.5928 128.42 92.3702 126.128L90.6227 119.617C83.2672 121.53 75.1876 121.65 67.3803 119.61Z" fill="#009B89"/>
<path d="M107.544 111.191C102.667 115.038 97.0788 117.842 91.2383 119.45L92.9858 125.962C101.737 123.563 109.73 118.945 116.142 112.6L111.364 107.822C110.301 108.872 108.946 110.081 107.544 111.191Z" fill="#3EBA43"/>
<path d="M46.6368 107.822C43.8129 110.646 44.6833 109.776 41.8594 112.6C48.2979 118.952 56.2912 123.563 65.0154 125.968L66.7628 119.443C59.321 117.384 52.2978 113.39 46.6368 107.822Z" fill="#089BFF"/>
<path d="M123.445 87.2378C121.406 94.6065 117.459 101.643 111.824 107.364L116.602 112.141C122.954 105.703 127.572 97.7095 129.97 88.9853C121.027 86.5933 124.11 87.4172 123.445 87.2378Z" fill="#8FD92E"/>
<path d="M46.1785 107.364C40.6104 101.729 36.6171 94.7328 34.5506 87.2378L28.0391 88.9853C30.4377 97.7361 35.0556 105.729 41.4011 112.141L46.1785 107.364Z" fill="#2E45C2"/>
<path d="M34.3893 63.3774L27.8644 61.6299C25.572 70.3607 25.5787 79.5899 27.871 88.3672L34.3826 86.6197C32.376 78.8922 32.4424 70.8325 34.3893 63.3774Z" fill="#6028C4"/>
<path d="M65.0154 24.0361C56.2646 26.4348 48.2713 31.0527 41.8594 37.3982L46.6368 42.1755C52.1184 36.7603 59.0951 32.6607 66.7628 30.5477L65.0154 24.0361Z" fill="#FF0477"/>
<path d="M123.612 63.3776C125.552 70.8194 125.632 78.8792 123.605 86.62L130.13 88.3675C132.423 79.6366 132.416 70.4075 130.124 61.6301L123.612 63.3776Z" fill="#FFFF29"/>
<path d="M65.6328 23.8695L67.3803 30.3811C74.7225 28.4675 82.7888 28.3412 90.6227 30.3877C91.4067 27.4642 91.925 25.524 92.3702 23.8629C83.6393 21.5772 74.4102 21.5772 65.6328 23.8695Z" fill="#FF020C"/>
<path d="M34.5561 62.7599C36.6425 55.2052 40.6956 48.2019 46.1773 42.6338L41.3999 37.8564C35.0478 44.2949 30.4299 52.2882 28.0312 61.0124L34.5561 62.7599Z" fill="#A20FBC"/>
<path d="M123.448 62.7599L129.96 61.0124C127.561 52.2617 122.943 44.2684 116.598 37.8564C113.774 40.6803 114.644 39.8099 111.82 42.6338C117.461 48.3348 121.408 55.358 123.448 62.7599Z" fill="#FFD100"/>
<path d="M111.364 42.1753L116.142 37.398C109.703 31.0459 101.71 26.4346 92.9858 24.0293L91.2383 30.5542C98.7997 32.6472 105.79 36.687 111.364 42.1753Z" fill="#FF4C09"/>
<path d="M89.332 112.314L91.0795 118.826C98.5612 116.766 105.405 112.812 110.92 107.364L106.156 102.593C101.378 107.298 95.5047 110.606 89.332 112.314Z" fill="#2F8B32"/>
<path d="M122.995 63.5439L116.483 65.2914C118.124 71.617 118.124 78.381 116.477 84.7132L122.988 86.4607C124.948 78.9591 124.948 71.0522 122.995 63.5439Z" fill="#BFBF1F"/>
<path d="M116.309 85.3306C114.588 91.5099 111.279 97.3836 106.602 102.148L111.372 106.918C116.807 101.397 120.761 94.5464 122.827 87.0781L116.309 85.3306Z" fill="#6BA323"/>
<path d="M88.7162 112.48C82.4571 114.101 75.7063 114.141 69.2944 112.473L67.5469 118.985C75.0418 120.945 82.9488 120.945 90.457 118.991L88.7162 112.48Z" fill="#007467"/>
<path d="M51.8528 102.6L47.082 107.364C52.6036 112.799 59.454 116.753 66.9224 118.819L68.6699 112.308C62.1384 110.494 56.3577 107.019 51.8528 102.6Z" fill="#0674BF"/>
<path d="M51.4016 102.148C46.9564 97.6361 43.488 91.8355 41.6874 85.3306L35.1758 87.0781C37.2356 94.5597 41.189 101.404 46.6375 106.918L51.4016 102.148Z" fill="#233492"/>
<path d="M41.694 64.6667C43.4016 58.5206 46.7039 52.6402 51.4016 47.8495L46.6308 43.0854C41.1957 48.607 37.2422 55.4575 35.1758 62.9258C39.0827 63.969 37.7804 63.6235 41.694 64.6667Z" fill="#7A0B8D"/>
<path d="M116.316 64.666L122.827 62.9185C120.768 55.4368 116.807 48.593 111.366 43.0781C108.548 45.8954 109.419 45.025 106.602 47.8422C111.166 52.4867 114.555 58.3139 116.316 64.666Z" fill="#BF9D00"/>
<path d="M41.5255 65.2914L35.0139 63.5439C33.0538 71.0389 33.0538 78.9458 35.0072 86.4541L41.5188 84.7066C39.9241 78.5472 39.8311 71.803 41.5255 65.2914Z" fill="#481E93"/>
<path d="M68.6699 37.6835L66.9224 31.1719C59.4407 33.2317 52.5969 37.1851 47.082 42.6336L51.8528 47.3977C56.6899 42.6336 62.5636 39.3778 68.6699 37.6835Z" fill="#BF0359"/>
<path d="M106.149 47.3979L110.92 42.6338C105.398 37.1986 98.5479 33.2451 91.0795 31.1787C90.641 32.8199 89.7573 36.1222 89.332 37.6903C95.724 39.4644 101.538 42.873 106.149 47.3979Z" fill="#BF3907"/>
<path d="M69.2916 37.5169C75.863 35.8159 82.5872 35.9288 88.7134 37.5235L90.4609 31.0119C82.966 29.0518 75.059 29.0518 67.5508 31.0053L69.2916 37.5169Z" fill="#BF0209"/>
<path d="M109.348 82.7996C118.218 85.1783 115.215 84.3743 115.859 84.5471C117.481 78.3013 117.48 71.7166 115.866 65.4575L109.354 67.205C110.67 72.3412 110.65 77.7498 109.348 82.7996Z" fill="#808015"/>
<path d="M109.18 83.417C107.824 88.2409 105.199 93.0183 101.379 96.9252L106.15 101.689C110.675 97.0847 113.964 91.3771 115.691 85.1578L109.18 83.417Z" fill="#486D17"/>
<path d="M87.418 105.178L89.1655 111.689C95.398 109.962 101.099 106.666 105.697 102.141L100.926 97.377C97.4113 100.825 92.7003 103.709 87.418 105.178Z" fill="#1F5D22"/>
<path d="M86.8018 105.344C81.566 106.686 76.1042 106.606 71.2006 105.337L69.4531 111.849C75.6989 113.47 82.2836 113.477 88.5427 111.856L86.8018 105.344Z" fill="#004E45"/>
<path d="M101.379 53.072C105.173 56.9391 107.831 61.7497 109.18 66.5802L115.691 64.8327C113.964 58.6068 110.675 52.8992 106.143 48.3013L101.379 53.072Z" fill="#806900"/>
<path d="M57.0727 97.377L52.3086 102.141C56.9132 106.659 62.6208 109.955 68.84 111.683L70.5875 105.171C65.3915 103.722 60.7271 100.952 57.0727 97.377Z" fill="#044E80"/>
<path d="M48.6541 67.1982L42.1426 65.4507C40.5213 71.6965 40.5213 78.2812 42.1359 84.5402L48.6475 82.7927C47.2987 77.5436 47.405 72.0486 48.6541 67.1982Z" fill="#301462"/>
<path d="M48.8202 83.417L42.3086 85.1645C44.0362 91.397 47.3252 97.098 51.8567 101.696C54.674 98.8787 53.8035 99.7491 56.6274 96.9252C53.0328 93.2707 50.2487 88.5465 48.8202 83.417Z" fill="#172361"/>
<path d="M100.926 52.6198L105.697 47.8491C101.086 43.3242 95.3847 40.0352 89.1655 38.3076L87.418 44.8192C92.6339 46.281 97.3049 49.0783 100.926 52.6198Z" fill="#802605"/>
<path d="M48.8202 66.5802C50.2487 61.4706 52.9929 56.7796 56.6208 53.072L51.8501 48.3013C47.3252 52.9059 44.0362 58.6135 42.3086 64.8327L48.8202 66.5802Z" fill="#51085E"/>
<path d="M71.2018 44.6529C76.4376 43.304 81.9658 43.4103 86.803 44.6595L88.5505 38.1479C82.3047 36.5267 75.72 36.5267 69.4609 38.1413L71.2018 44.6529Z" fill="#800106"/>
<path d="M70.5836 44.8192L68.8361 38.3076C62.6036 40.0352 56.9027 43.3242 52.3047 47.8557L57.0754 52.6265C60.8163 48.9454 65.5272 46.2278 70.5836 44.8192Z" fill="#80023C"/>
<path d="M102.211 80.8862L108.723 82.6337C110.012 77.6371 110.012 72.3747 108.729 67.3647L102.218 69.1122C103.148 72.7866 103.214 76.9594 102.211 80.8862Z" fill="#40400A"/>
<path d="M102.043 81.5034C100.954 85.3373 98.8805 88.8987 96.1562 91.7027C96.6479 92.1944 94.3888 89.9352 100.927 96.4734C104.535 92.7791 107.166 88.221 108.561 83.2509L102.043 81.5034Z" fill="#24360C"/>
<path d="M102.05 68.4941L108.561 66.7466C107.173 61.7699 104.535 57.2118 100.927 53.5308C99.7908 54.667 96.834 57.6238 96.1562 58.2948C99.04 61.2516 101.027 64.8729 102.05 68.4941Z" fill="#403400"/>
<path d="M85.5039 98.0486C85.6302 98.5204 87.0454 103.796 87.2514 104.56C92.2281 103.172 96.7862 100.54 100.474 96.9257L95.7032 92.1616C92.8726 94.9191 89.3178 96.9722 85.5039 98.0486Z" fill="#102F11"/>
<path d="M95.7032 57.8422L100.474 53.0715C96.7796 49.4636 92.2215 46.8324 87.2514 45.437L85.5039 51.9486C89.3511 53.0449 92.9457 55.1579 95.7032 57.8422Z" fill="#401302"/>
<path d="M73.1147 98.208C73.0947 98.2877 71.4004 104.607 71.3672 104.72C76.3638 106.009 81.6263 106.009 86.6362 104.72L84.8887 98.208C81.2143 99.1449 77.0615 99.218 73.1147 98.208Z" fill="#002722"/>
<path d="M62.2981 57.8422C65.0555 55.1512 68.6103 53.0516 72.4973 51.9486C72.4774 51.8821 70.7698 45.5101 70.7498 45.437C65.7731 46.8257 61.215 49.4569 57.5273 53.0715L62.2981 57.8422Z" fill="#40011E"/>
<path d="M55.953 81.5034L49.4414 83.2509C50.8301 88.2276 53.468 92.7857 57.0759 96.4734C59.8932 93.6562 59.0294 94.5199 61.84 91.7093C59.1955 88.9851 57.056 85.4104 55.953 81.5034Z" fill="#0C1131"/>
<path d="M62.2981 92.1543L57.5273 96.925C61.215 100.533 65.7798 103.164 70.7498 104.56L72.4973 98.048C68.8562 97.0114 65.2216 94.9981 62.2981 92.1543Z" fill="#022740"/>
<path d="M84.8887 51.7899L86.6362 45.2783C81.6395 43.9893 76.3771 43.9893 71.3672 45.2783L73.1147 51.7899C76.8356 50.8397 80.9618 50.7866 84.8887 51.7899Z" fill="#400103"/>
<path d="M55.7917 69.1122L49.2801 67.3647C47.9911 72.3614 47.9911 77.6238 49.2735 82.6337L55.785 80.8862C54.8149 77.0723 54.8216 72.9195 55.7917 69.1122Z" fill="#180A31"/>
<path d="M55.9518 68.4942C57.0614 64.5939 59.1412 61.0723 61.8388 58.2949L57.0681 53.5242C53.4601 57.2185 50.8289 61.7766 49.4336 66.7467L55.9518 68.4942Z" fill="#29042F"/>
<path d="M95.2553 58.2946C92.4779 55.6036 89.0693 53.6302 85.3484 52.5737C85.3085 52.7133 83.8135 58.3013 83.9065 57.9425C86.6839 58.7464 89.242 60.2215 91.3217 62.2215L95.2553 58.2946Z" fill="#2B0D01"/>
<path d="M101.431 68.6593C100.374 64.9318 98.4074 61.5165 95.7031 58.7524L91.7695 62.686C93.7762 64.7657 95.2512 67.3172 96.0552 70.1012C96.1283 70.0746 101.763 68.5663 101.431 68.6593Z" fill="#2B2300"/>
<path d="M101.594 80.7196C102.544 76.9721 102.544 73.032 101.594 69.2778L96.2188 70.7197C96.9164 73.5303 96.9164 76.4804 96.2188 79.2844C96.4314 79.3375 101.661 80.7395 101.594 80.7196Z" fill="#2B2B07"/>
<path d="M85.3403 97.4308C89.0678 96.3743 92.4831 94.4075 95.2472 91.7099L91.3137 87.7764C89.2339 89.783 86.6825 91.2581 83.8984 92.062C83.925 92.1418 85.4333 97.763 85.3403 97.4308Z" fill="#0B1F0B"/>
<path d="M101.425 81.3378L96.0564 79.896C95.2524 82.6734 93.784 85.2315 91.7773 87.3112L95.7109 91.2448C98.4019 88.474 100.369 85.0587 101.425 81.3378Z" fill="#182408"/>
<path d="M83.289 57.7762L84.7308 52.4074C80.9834 51.4573 77.0432 51.4573 73.2891 52.4074C73.309 52.4805 74.804 58.0552 74.7309 57.7828C77.4551 57.0984 80.3986 57.0586 83.289 57.7762Z" fill="#2B0102"/>
<path d="M72.6608 52.5674C68.9333 53.6239 65.518 55.5906 62.7539 58.2949L66.6874 62.2284C68.7672 60.2218 71.3186 58.7467 74.1027 57.9428L72.6608 52.5674Z" fill="#2B0114"/>
<path d="M73.2812 97.5902C77.0287 98.5404 80.9689 98.5404 84.723 97.5902L83.2812 92.2148C80.4706 92.9125 77.5204 92.9125 74.7165 92.2148L73.2812 97.5902Z" fill="#001A17"/>
<path d="M62.75 91.7035C65.5274 94.4012 68.936 96.368 72.6569 97.4244L74.0988 92.0491C71.3214 91.2451 68.7632 89.7767 66.6835 87.77L62.75 91.7035Z" fill="#011A2B"/>
<path d="M66.2286 62.6796L62.2951 58.7461C59.5975 61.5235 57.6307 64.9387 56.5742 68.653C56.6407 68.6729 62.3018 70.1879 61.943 70.0949C62.7469 67.3175 64.222 64.766 66.2286 62.6796Z" fill="#1B031F"/>
<path d="M61.7767 70.7124L56.4079 69.2705C55.4578 73.018 55.4578 76.9582 56.4079 80.7123C57.3049 80.4731 62.0225 79.204 61.7833 79.2704C61.079 76.4665 61.079 73.523 61.7767 70.7124Z" fill="#100721"/>
<path d="M62.2979 91.2511L66.2314 87.3176C64.2247 85.2379 62.7497 82.6864 61.9457 79.9023L56.5703 81.3442C57.6268 85.0651 59.6002 88.4804 62.2979 91.2511Z" fill="#080B21"/>
</g>
<defs>
<filter id="filter0_d_2351_2396" x="0" y="0" width="158" height="158.001" filterUnits="userSpaceOnUse" color-interpolation-filters="sRGB">
<feFlood flood-opacity="0" result="BackgroundImageFix"/>
<feColorMatrix in="SourceAlpha" type="matrix" values="0 0 0 0 0 0 0 0 0 0 0 0 0 0 0 0 0 0 127 0" result="hardAlpha"/>
<feOffset dy="4"/>
<feGaussianBlur stdDeviation="2"/>
<feComposite in2="hardAlpha" operator="out"/>
<feColorMatrix type="matrix" values="0 0 0 0 0 0 0 0 0 0 0 0 0 0 0 0 0 0 0.25 0"/>
<feBlend mode="normal" in2="BackgroundImageFix" result="effect1_dropShadow_2351_2396"/>
<feBlend mode="normal" in="SourceGraphic" in2="effect1_dropShadow_2351_2396" result="shape"/>
</filter>
</defs>
</svg>
