<svg width="102" height="139" viewBox="0 0 102 139" fill="none" xmlns="http://www.w3.org/2000/svg">
<path d="M82.4264 112.445L72.9924 103.017L82.4264 93.5827C88.502 87.5072 88.502 77.6547 82.4264 71.5791C76.3509 65.5036 66.4984 65.5036 60.4229 71.5791L50.9943 81.0077L41.5602 71.5791C35.4847 65.5036 25.6322 65.5036 19.5567 71.5791C13.4811 77.6547 13.4811 87.5072 19.5567 93.5827L28.9852 103.011L19.5567 112.44C13.4811 118.515 13.4811 128.368 19.5567 134.443C25.6322 140.519 35.4847 140.519 41.5602 134.443L50.9943 125.015L60.4229 134.443C66.4984 140.519 76.3509 140.519 82.4264 134.443C88.502 128.373 88.502 118.521 82.4264 112.445Z" fill="#EF7FB0"/>
<path d="M79.902 35.3408L66.5641 35.3447L66.5641 22.0029C66.5641 13.4108 59.5973 6.44399 51.0052 6.44398C42.4131 6.44398 35.4463 13.4108 35.4463 22.0029L35.4463 35.3368L22.1084 35.3408C13.5163 35.3408 6.54955 42.3075 6.54955 50.8996C6.54955 59.4917 13.5163 66.4585 22.1084 66.4585L35.4424 66.4585V79.7925C35.4424 88.3846 42.4092 95.3514 51.0013 95.3514C59.5934 95.3514 66.5602 88.3846 66.5602 79.7925L66.5641 66.4546L79.898 66.4546C88.4901 66.4546 95.4569 59.4878 95.4569 50.8957C95.4609 42.3076 88.4941 35.3408 79.902 35.3408Z" fill="#69F4BA"/>
<mask id="mask0_1788_6141" style="mask-type:alpha" maskUnits="userSpaceOnUse" x="15" y="67" width="72" height="73">
<path d="M82.4265 112.445L72.9924 103.017C72.9924 103.017 70.8516 103.016 69.6105 101.154C68.3694 99.2924 66.7943 93.5828 65.2665 95.569C63.7387 97.5551 52.828 104.878 49.1046 101.154L56.5784 98.0513L63.4048 93.5828L50.9943 81.0077L41.5602 71.5792C35.4847 65.5037 25.6322 65.5037 19.5567 71.5792C13.4811 77.6548 13.4811 87.5073 19.5567 93.5828L28.9852 103.011L19.5567 112.44C13.4811 118.515 13.4811 128.368 19.5567 134.443C25.6322 140.519 35.4847 140.519 41.5602 134.443L50.9943 125.015L60.4229 134.443C66.4984 140.519 76.3509 140.519 82.4265 134.443C88.502 128.373 88.502 118.521 82.4265 112.445Z" fill="#EF7FB0"/>
</mask>
<g mask="url(#mask0_1788_6141)">
<path d="M79.902 35.3409L66.5641 35.3448V22.003C66.5641 13.4109 59.5973 6.44408 51.0052 6.44408C42.4131 6.44408 35.4463 13.4109 35.4463 22.003L35.4463 35.3369L22.1084 35.3408C13.5163 35.3408 6.54955 42.3076 6.54955 50.8997C6.54955 59.4918 13.5163 66.4586 22.1084 66.4586L35.4424 66.4586L35.4424 79.7926C35.4424 88.3847 42.4092 95.3515 51.0013 95.3515C59.5934 95.3515 66.5602 88.3847 66.5602 79.7926L66.5641 66.4547L79.898 66.4547C88.4901 66.4547 95.4569 59.4879 95.4569 50.8958C95.4609 42.3076 88.4941 35.3409 79.902 35.3409Z" fill="#EF7FB0"/>
</g>
</svg>
