<svg width="119" height="133" viewBox="0 0 119 133" fill="none" xmlns="http://www.w3.org/2000/svg">
<path d="M115.626 105.624L75.2035 34.9903C68.1807 22.7116 50.4781 22.7116 43.4465 34.9903L3.03246 105.624C-3.94613 117.815 4.86103 133 18.9066 133H99.7523C113.807 133.009 122.605 117.824 115.626 105.624ZM74.7707 107.188H43.8882C38.5173 107.188 35.1605 101.393 37.8283 96.7288L53.2695 69.742C55.9549 65.0513 62.7127 65.0513 65.3981 69.742L80.8394 96.7288C83.4983 101.384 80.1415 107.188 74.7707 107.188Z" fill="#76B82A"/>
<path d="M3.03246 27.3756L43.4553 98.0096C50.4781 110.288 68.1807 110.288 75.2123 98.0096L115.635 27.3756C122.614 15.1852 113.807 0.00012207 99.7611 0.00012207H18.9066C4.86103 0.00012207 -3.94613 15.1764 3.03246 27.3756ZM43.8882 25.8121H74.7707C80.1415 25.8121 83.4983 31.6158 80.8306 36.2711L65.3981 63.2492C62.7127 67.9398 55.955 67.9398 53.2695 63.2492L37.8283 36.2711C35.1605 31.6158 38.5261 25.8121 43.8882 25.8121Z" fill="#00983A"/>
<path d="M115.625 105.624L75.2025 34.9903C71.457 28.4534 64.6905 25.397 58.1094 25.821V66.341C60.839 65.864 63.8159 66.9947 65.3883 69.7419L80.8296 96.72C83.4973 101.375 80.1317 107.179 74.7697 107.179H58.1182V133H99.7601C113.806 133.009 122.604 117.824 115.625 105.624Z" fill="#76B82A"/>
</svg>
