<svg width="134" height="65" viewBox="0 0 134 65" fill="none" xmlns="http://www.w3.org/2000/svg">
<path d="M97.9665 42.611L74.6043 41.0392L76.6964 64.7862C78.2074 63.2147 81.5432 59.7574 82.7985 58.5002C101.443 69.0924 114.7 63.277 122.549 56.4064C137.187 43.5934 137.683 19.0862 120.806 7.16495C104.738 -4.18468 88.2236 -0.16697 77.7425 9.26124C69.3968 16.7685 55.6007 35.2773 54.3803 36.6742C53.1598 38.0711 43.2222 51.1669 31.0181 49.9446C18.8139 48.7223 14.9783 37.198 15.1527 32.1343C15.327 27.0706 17.2448 21.1338 25.439 16.7685C34.6793 11.846 44.9656 17.467 54.3803 30.2136C56.763 27.1288 61.912 20.5401 63.4462 18.8638C46.8834 -1.74028 33.4852 -1.69215 21.6034 2.27576C9.05039 6.4678 -4.37402 23.0544 2.25109 43.6585C8.8762 64.2626 33.6332 67.9294 46.709 61.818C53.1345 58.8149 59.7653 52.6677 67.1074 44.358C74.7066 35.7574 79.3116 27.77 87.5057 20.4355C97.2586 11.7058 106.981 14.9618 112.263 18.8638C121.329 25.5618 120.806 40.5166 112.263 46.1029C105.955 50.2276 98.8382 51.1678 93.4335 47.5001L97.9665 42.611Z" fill="#00983A"/>
</svg>
