<svg width="134" height="133" viewBox="0 0 134 133" fill="none" xmlns="http://www.w3.org/2000/svg">
<rect x="0.832031" width="133" height="133" fill="#FFF042"/>
<path d="M94.9604 86.76C95.4575 86.76 95.9998 86.986 96.3161 87.483L115.748 115.094C116.29 115.862 116.109 116.857 115.341 117.399C114.573 117.941 113.579 117.76 113.036 116.992L93.6047 89.381C93.1076 88.658 93.2884 87.6186 94.0114 87.0763C94.3277 86.8504 94.6441 86.76 94.9604 86.76Z" fill="black"/>
<path d="M38.5198 15.4951C39.0169 15.4951 39.5592 15.7211 39.8755 16.2182L74.6267 65.6561C75.0334 66.2435 75.0334 66.9666 74.6267 67.554L39.8755 116.992C39.3785 117.715 38.3391 117.941 37.5709 117.399C36.8478 116.856 36.6671 115.862 37.1642 115.094L71.2826 66.605L37.1642 18.1161C36.6219 17.3931 36.8026 16.3537 37.5709 15.8115C37.8872 15.5855 38.2035 15.4951 38.5198 15.4951Z" fill="black"/>
<path d="M114.393 15.4951C114.709 15.4951 115.025 15.5855 115.342 15.8115C116.065 16.3537 116.246 17.3479 115.749 18.1161L96.3168 45.7273C95.7746 46.4503 94.7804 46.6762 94.0121 46.134C93.2439 45.5917 93.1083 44.5975 93.6054 43.8293L113.037 16.2182C113.399 15.7663 113.896 15.4951 114.393 15.4951Z" fill="black"/>
<path d="M90.4846 93.132C90.9817 93.132 91.5239 93.3579 91.8403 93.855L106.798 115.094C107.295 115.863 107.16 116.857 106.391 117.399C105.623 117.941 104.629 117.715 104.087 116.992L89.1289 95.753C88.6318 95.0299 88.7673 93.9906 89.5356 93.4483C89.8519 93.2223 90.1682 93.132 90.4846 93.132Z" fill="black"/>
<path d="M29.5745 15.4951C30.0716 15.4951 30.6139 15.7211 30.9302 16.2182L65.7266 65.6561C66.1333 66.2435 66.1333 66.9666 65.7266 67.554L30.9302 116.992C30.4332 117.715 29.3938 117.941 28.6255 117.399C27.9025 116.856 27.7217 115.862 28.2188 115.094L62.3373 66.605L28.2188 18.1161C27.6766 17.3931 27.8573 16.3537 28.6255 15.8115C28.8967 15.5855 29.2582 15.4951 29.5745 15.4951Z" fill="black"/>
<path d="M105.442 15.4951C105.759 15.4951 106.075 15.5855 106.391 15.8115C107.114 16.3537 107.295 17.3479 106.798 18.1161L91.8403 39.3555C91.3432 40.0785 90.3038 40.3044 89.5356 39.7622C88.7673 39.2199 88.6318 38.2257 89.1289 37.4575L104.087 16.2182C104.403 15.7663 104.9 15.4951 105.442 15.4951Z" fill="black"/>
<path d="M86.0143 99.5033C86.5113 99.5033 87.0536 99.7292 87.37 100.226L97.8089 115.094C98.3511 115.817 98.1704 116.856 97.4021 117.399C96.6339 117.941 95.6397 117.76 95.0975 116.992L84.6134 102.124C84.0711 101.401 84.2518 100.362 85.0201 99.8196C85.3364 99.5937 85.6979 99.5033 86.0143 99.5033Z" fill="black"/>
<path d="M20.5784 15.4951C21.0755 15.4951 21.6178 15.7211 21.9341 16.2182L56.7305 65.6561C57.1372 66.2435 57.1372 66.9666 56.7305 67.554L21.9341 116.992C21.4371 117.715 20.3977 117.941 19.6295 117.399C18.9064 116.856 18.7257 115.862 19.2227 115.094L53.3412 66.605L19.2227 18.1161C18.6805 17.3931 18.8612 16.3537 19.6295 15.8115C19.9458 15.5855 20.2621 15.4951 20.5784 15.4951Z" fill="black"/>
<path d="M96.4992 15.4951C96.8155 15.4951 97.177 15.5855 97.4482 15.8115C98.1712 16.3537 98.352 17.3479 97.8549 18.1161L87.3708 32.9837C86.8737 33.7067 85.8343 33.9326 85.0661 33.3904C84.3431 32.8481 84.1623 31.8539 84.6594 31.0857L95.1435 16.2182C95.4598 15.7663 95.9569 15.4951 96.4992 15.4951Z" fill="black"/>
</svg>
