<svg width="99" height="133" viewBox="0 0 99 133" fill="none" xmlns="http://www.w3.org/2000/svg">
<path d="M95.6475 105.21V68.1664C95.6475 52.8177 83.2061 40.3762 67.8649 40.3762H30.8138C15.4651 40.3762 3.03125 52.8177 3.03125 68.1664V105.217C3.03125 120.566 15.4727 133 30.8138 133H67.8649C83.2061 133 95.6475 120.559 95.6475 105.21ZM30.1079 95.9642V77.4121C30.1079 71.9163 34.5637 67.4605 40.0595 67.4605H58.604C64.0998 67.4605 68.5557 71.9163 68.5557 77.4121V95.9566C68.5557 101.452 64.0998 105.908 58.604 105.908H40.0595C34.5637 105.916 30.1079 101.46 30.1079 95.9642Z" fill="#009FDD"/>
<path d="M0.0782838 49.3864C0.154192 76.5845 22.2588 98.5829 49.4645 98.507C76.6702 98.4311 98.661 76.3264 98.585 49.1207C98.5091 21.9226 76.4045 -0.0757129 49.1988 0.000195861C22.0007 0.0761046 0.00996588 22.1883 0.0782838 49.3864ZM68.1457 49.2042C68.176 59.5961 59.7729 68.0372 49.381 68.0676C38.9891 68.0979 30.5481 59.6948 30.5177 49.3029C30.4949 38.9186 38.8904 30.47 49.2823 30.4396C59.6742 30.4168 68.1229 38.8123 68.1457 49.2042Z" fill="#E84F3E"/>
<path d="M67.8595 40.3762H46.9922V67.4681H58.6138C64.1096 67.4681 68.5654 71.9239 68.5654 77.4197V95.9642C68.5654 101.46 64.1096 105.916 58.6138 105.916H46.9922V133H67.8595C83.2082 133 95.6421 120.559 95.6421 105.21V68.1664C95.6497 52.8177 83.2082 40.3762 67.8595 40.3762Z" fill="#009FDD"/>
</svg>
