<svg width="101" height="100" viewBox="0 0 101 100" fill="none" xmlns="http://www.w3.org/2000/svg">
<path fill-rule="evenodd" clip-rule="evenodd" d="M51.4688 59.3477L56.6936 74.4491L61.1028 59.6122L51.4688 59.3477Z" fill="black"/>
<path fill-rule="evenodd" clip-rule="evenodd" d="M73.0967 50.8818L66.4609 57.5176L80.6585 65.0573L73.0967 50.8818Z" fill="black"/>
<path fill-rule="evenodd" clip-rule="evenodd" d="M74.9219 35.8906L75.1864 45.5247L90.0233 41.1155L74.9219 35.8906Z" fill="black"/>
<path fill-rule="evenodd" clip-rule="evenodd" d="M72.5418 30.4233L79.332 16.6226L65.5312 23.4127L72.5418 30.4233Z" fill="black"/>
<path fill-rule="evenodd" clip-rule="evenodd" d="M60.0623 21.0095L54.8375 5.93018L50.4062 20.767L60.0623 21.0095Z" fill="black"/>
<path fill-rule="evenodd" clip-rule="evenodd" d="M38.4147 29.4973L45.0505 22.8615L30.875 15.2998L38.4147 29.4973Z" fill="black"/>
<path fill-rule="evenodd" clip-rule="evenodd" d="M38.3505 39.7045C38.615 49.3165 46.6177 57.3192 56.2297 57.5837C65.8416 57.8483 73.4475 50.2645 73.1829 40.6525C72.9184 31.0405 64.9157 23.0379 55.3037 22.7733C45.6697 22.5088 38.0859 30.0925 38.3505 39.7045Z" fill="black"/>
<path fill-rule="evenodd" clip-rule="evenodd" d="M38.9919 49.9558L32.1797 63.7565L45.9804 56.9664L38.9919 49.9558Z" fill="black"/>
<path fill-rule="evenodd" clip-rule="evenodd" d="M36.5858 44.4886L36.3212 34.8325L21.4844 39.2637L36.5858 44.4886Z" fill="black"/>
<path fill-rule="evenodd" clip-rule="evenodd" d="M49.5063 57.4075L31.5389 77.359L19.6562 70.3263L25.2338 68.8934L10.9922 63.3158L14.6518 76.3008L17.2973 71.7814L32.1562 84.8546L49.5063 57.4075Z" fill="black"/>
<path d="M84.2718 83.5979H15.9297V86.3536H84.2718V83.5979Z" fill="black"/>
<path d="M50.5 100C22.9206 100 0.5 77.5573 0.5 50C0.5 22.4206 22.9206 0 50.5 0C78.0573 0 100.5 22.4206 100.5 50C100.5 77.5573 78.0573 100 50.5 100ZM50.5 2.62346C24.3757 2.62346 3.12346 23.8757 3.12346 50C3.12346 76.1243 24.3757 97.3765 50.5 97.3765C76.6243 97.3765 97.8765 76.1243 97.8765 50C97.8765 23.8757 76.6243 2.62346 50.5 2.62346Z" fill="black"/>
</svg>
