<svg width="100" height="100" viewBox="0 0 100 100" fill="none" xmlns="http://www.w3.org/2000/svg">
<path fill-rule="evenodd" clip-rule="evenodd" d="M45.4591 36.3091C43.2324 34.5013 40.4767 33.5974 37.1698 33.5974C33.0472 33.5974 29.7404 35.0965 27.2492 38.0948C24.758 41.093 23.5234 44.7747 23.5234 49.1397C23.5234 53.5489 24.758 57.2306 27.2492 60.2068C29.7404 63.1829 33.0472 64.66 37.1698 64.66C40.609 64.66 43.4308 63.5577 45.6575 61.3311C47.8841 59.1045 49.0966 56.2165 49.3171 52.645H44.445C44.2024 54.9378 43.4749 56.8117 42.2183 58.2447C40.9838 59.6777 39.3083 60.4052 37.1698 60.4052C34.3259 60.4052 32.1654 59.3029 30.6883 57.0983C29.2333 54.8937 28.4838 52.2262 28.4838 49.0957C28.4838 45.9651 29.2113 43.2976 30.6883 41.093C32.1434 38.8884 34.3039 37.7861 37.1698 37.7861C40.9617 37.7861 43.3206 39.7482 44.2906 43.6944H49.273C48.9644 40.5859 47.6857 38.1168 45.4591 36.3091ZM73.3691 63.9546V59.4572H58.8629V34.3029H53.8585V63.9546H73.3691V63.9546Z" fill="black"/>
<path fill-rule="evenodd" clip-rule="evenodd" d="M45.4591 36.3091C43.2324 34.5013 40.4767 33.5974 37.1698 33.5974C33.0472 33.5974 29.7404 35.0965 27.2492 38.0948C24.758 41.093 23.5234 44.7747 23.5234 49.1397C23.5234 53.5489 24.758 57.2306 27.2492 60.2068C29.7404 63.1829 33.0472 64.66 37.1698 64.66C40.609 64.66 43.4308 63.5577 45.6575 61.3311C47.8841 59.1045 49.0966 56.2165 49.3171 52.645H44.445C44.2024 54.9378 43.4749 56.8117 42.2183 58.2447C40.9838 59.6777 39.3083 60.4052 37.1698 60.4052C34.3259 60.4052 32.1654 59.3029 30.6883 57.0983C29.2333 54.8937 28.4838 52.2262 28.4838 49.0957C28.4838 45.9651 29.2113 43.2976 30.6883 41.093C32.1434 38.8884 34.3039 37.7861 37.1698 37.7861C40.9617 37.7861 43.3206 39.7482 44.2906 43.6944H49.273C48.9644 40.5859 47.6857 38.1168 45.4591 36.3091ZM73.3691 63.9546V59.4572H58.8629V34.3029H53.8585V63.9546H73.3691V63.9546Z" fill="black"/>
<path d="M37.1651 64.8592C32.9984 64.8592 29.6034 63.338 27.0902 60.3177C24.5769 57.3195 23.3203 53.5496 23.3203 49.1184C23.3203 44.7093 24.599 40.9615 27.0902 37.9412C29.6034 34.9209 32.9984 33.3777 37.1651 33.3777C40.494 33.3777 43.338 34.3036 45.5866 36.1334C47.8353 37.9853 49.1581 40.5205 49.4667 43.6731L49.4887 43.8936H44.1316L44.0875 43.7613C43.1395 39.8812 40.8688 38.0073 37.1651 38.0073C34.3873 38.0073 32.2709 39.0876 30.86 41.226C29.427 43.3865 28.6995 46.032 28.6995 49.1184C28.6995 52.2048 29.427 54.8503 30.86 57.0108C32.2709 59.1493 34.4094 60.2295 37.1651 60.2295C39.2154 60.2295 40.8688 59.5241 42.0813 58.1352C43.2939 56.7242 44.0214 54.8724 44.2639 52.6237L44.2859 52.4473H49.5328L49.5108 52.6678C49.2903 56.2833 48.0558 59.2375 45.8071 61.4861C43.5364 63.7128 40.6263 64.8592 37.1651 64.8592ZM37.1651 33.7745C33.1087 33.7745 29.8238 35.2516 27.3768 38.1837C24.9297 41.1158 23.6951 44.7974 23.6951 49.0964C23.6951 53.4394 24.9297 57.1211 27.3768 60.0311C29.8238 62.9412 33.1087 64.4403 37.1651 64.4403C40.5381 64.4403 43.3379 63.338 45.5205 61.1775C47.6589 59.0611 48.8494 56.2392 49.0919 52.8221H44.5946C44.33 55.0708 43.5805 56.9227 42.3459 58.3556C41.0672 59.8327 39.3256 60.5823 37.1431 60.5823C34.233 60.5823 32.0064 59.4359 30.5073 57.1872C29.0302 54.9606 28.2806 52.2269 28.2806 49.0743C28.2806 45.9218 29.0302 43.1881 30.5073 40.9615C32.0064 38.7128 34.233 37.5664 37.1431 37.5664C40.957 37.5664 43.4041 39.5505 44.3961 43.4747H49.0258C48.673 40.5205 47.4164 38.1396 45.3 36.42C43.1616 34.6784 40.4059 33.7745 37.1651 33.7745ZM73.5628 64.1537H53.6775V34.1052H59.0566V59.2816H73.5628V64.1537ZM54.0522 63.7569H73.166V59.6563H58.6598V34.502H54.0522V63.7569Z" fill="black"/>
<path d="M64.5703 86.1988L64.9451 89.9466L67.0615 89.0207L64.5924 86.1768L64.5703 86.1988Z" fill="black"/>
<path d="M46.012 12.1035C46.2104 12.3681 46.475 12.5885 46.7836 12.7428C47.1363 12.8972 47.5111 12.9633 47.8859 12.9192C48.3048 12.8972 48.6795 12.7869 48.9661 12.5885C49.2527 12.3901 49.4952 12.1476 49.6496 11.861C49.8259 11.5524 49.9582 11.2217 50.0023 10.8689C50.0684 10.4942 50.0905 10.1194 50.0684 9.74461C50.0464 9.36983 49.9803 8.99505 49.87 8.64231C49.7598 8.28958 49.6055 7.98094 49.385 7.69434C49.1866 7.42979 48.9221 7.20933 48.6134 7.05501C48.3048 6.90069 47.93 6.83455 47.5111 6.87864C47.0702 6.90069 46.7175 7.01092 46.4309 7.20933C46.1443 7.3857 45.9018 7.65025 45.7475 7.93684C45.5711 8.24549 45.4609 8.57618 45.3947 8.92891C45.3286 9.30369 45.3065 9.67847 45.3286 10.0532C45.3506 10.428 45.4168 10.8028 45.527 11.1555C45.6372 11.5083 45.7915 11.8169 46.012 12.1035Z" fill="black"/>
<path d="M61.4236 16.3575C61.3574 16.2252 61.3354 16.093 61.3134 15.9607L61.2031 16.3134L61.4236 16.3575Z" fill="black"/>
<path d="M59.1682 9.83242C59.4107 9.65605 59.565 9.3915 59.6311 8.99467C59.6973 8.61989 59.6091 8.3333 59.3886 8.11284C59.1682 7.89238 58.8595 7.76011 58.4848 7.69397L56.3904 7.36328L56.0156 9.61196L58.2202 9.96469C58.617 10.0529 58.9257 10.0088 59.1682 9.83242Z" fill="black"/>
<path d="M23.0616 77.8213C23.3482 77.5788 23.5025 77.3143 23.4584 76.9836C23.4364 76.6749 23.3041 76.3663 23.0616 76.0797L21.7388 74.4263L19.9531 75.8813L21.342 77.6229C21.5845 77.9316 21.8711 78.1079 22.1577 78.152C22.4664 78.1741 22.7529 78.0638 23.0616 77.8213Z" fill="black"/>
<path d="M50 0C22.4206 0 0 22.4206 0 50C0 77.5573 22.4206 100 50 100C77.5573 100 100 77.5794 100 50C99.978 22.4206 77.5573 0 50 0ZM84.8325 19.709L83.4215 21.2963L79.321 17.6808L78.1305 19.0035L81.8783 22.3104L80.5115 23.8536L76.7637 20.5467L75.463 22.0018L79.6737 25.7055L78.1526 27.403L71.9577 21.9356L78.7478 14.3298L84.8325 19.709ZM17.1076 50C17.1076 31.8783 31.8563 17.1296 50 17.1296C68.1437 17.1296 82.8924 31.8783 82.8924 50C82.8924 68.1217 68.1217 82.8704 50 82.8704C31.8563 82.8704 17.1076 68.1217 17.1076 50ZM71.142 9.76631L71.3404 16.9533L71.3624 16.9753L74.2945 11.4418L76.4991 12.6102L71.7372 21.6049L69.3122 20.3483L69.1358 13.0952L69.1138 13.0732L66.1376 18.6728L63.9109 17.5044L68.6728 8.5097L71.142 9.76631ZM59.2593 5.68783C59.7002 5.75397 60.119 5.88624 60.5379 6.06261C60.9347 6.21693 61.2875 6.45944 61.5961 6.74603C61.8827 7.03263 62.1032 7.38536 62.2354 7.76014C62.3898 8.15697 62.4118 8.59788 62.3236 9.10494C62.2355 9.63404 62.015 10.1411 61.6843 10.56C61.3536 10.9788 60.8907 11.2434 60.3175 11.3757V11.3977C60.56 11.4859 60.7584 11.6623 60.9127 11.8607C61.067 12.0591 61.1773 12.2795 61.2434 12.522C61.3316 12.7645 61.3757 13.0291 61.3757 13.2937C61.3977 13.5582 61.3977 13.8228 61.3757 14.0432C61.3757 14.1534 61.3536 14.3078 61.3316 14.5282C61.3095 14.7487 61.2875 14.9691 61.2654 15.2116C61.2654 15.4321 61.2654 15.6746 61.2875 15.8951C61.2875 15.9171 61.3095 15.9392 61.3095 15.9832L64.2416 7.03263L66.7769 7.84832L63.6243 17.5265L61.0891 16.7108L61.1993 16.358L58.8404 15.9612C58.7963 15.851 58.7742 15.7187 58.7522 15.5864C58.7302 15.4321 58.7302 15.2778 58.7522 15.1014C58.7522 14.9471 58.7743 14.7928 58.7963 14.6384C58.8183 14.5062 58.8183 14.3739 58.8183 14.3078C58.8404 14.0432 58.8624 13.8007 58.8624 13.5582C58.8624 13.3157 58.8183 13.0732 58.7522 12.8527C58.6861 12.6323 58.5538 12.4559 58.3995 12.3016C58.2451 12.1473 58.0026 12.0591 57.694 12.015L55.7099 11.6843L55.0926 15.3439L52.4691 14.925L54.1446 4.89418L59.2593 5.68783ZM42.8792 8.13492C43.0556 7.49559 43.3422 6.90035 43.761 6.3933C44.1578 5.88624 44.6649 5.48942 45.2601 5.15873C45.8774 4.85009 46.5608 4.65168 47.3765 4.60758C48.1702 4.56349 48.8977 4.65168 49.537 4.89418C50.1543 5.11464 50.7275 5.46737 51.1905 5.93034C51.6534 6.3933 52.0282 6.94444 52.2707 7.53968C52.5353 8.17901 52.6896 8.88448 52.7337 9.58995C52.7778 10.3395 52.7116 11.0229 52.5132 11.6843C52.3369 12.3236 52.0282 12.9189 51.6314 13.4259C51.2346 13.933 50.7275 14.3519 50.1323 14.6605C49.515 14.9691 48.8316 15.1675 48.0159 15.2116C47.2222 15.2557 46.4947 15.1675 45.8554 14.9471C45.216 14.7046 44.6649 14.3739 44.2019 13.9109C43.739 13.448 43.3862 12.9189 43.1217 12.3016C42.8571 11.6402 42.7028 10.9568 42.6587 10.2513C42.6146 9.52381 42.6808 8.81834 42.8792 8.13492ZM36.3095 6.70194L38.5802 14.2637L43.1437 12.9189L43.7831 15.1014L36.6623 17.1958L33.7522 7.4515L36.3095 6.70194ZM25.8598 11.1552L27.6675 14.3959L30.7319 12.6984L28.9242 9.45767L31.239 8.17901L36.2213 17.0414L33.9065 18.3201L31.8563 14.6605L28.7919 16.358L30.8422 20.0176L28.5273 21.3183L23.545 12.4559L25.8598 11.1552ZM16.843 18.1437C17.1076 17.5265 17.5265 16.9312 18.0996 16.4242C18.5185 16.0494 18.9815 15.7187 19.4885 15.4762C19.9956 15.2337 20.5467 15.0794 21.0758 15.0132C21.627 14.9471 22.1781 15.0132 22.6852 15.1675C23.2363 15.3439 23.7213 15.6526 24.1182 16.0494L22.1781 17.8571C21.8034 17.5485 21.3624 17.4162 20.9215 17.4824C20.4586 17.5265 20.0397 17.7469 19.6208 18.1437C19.3122 18.4303 19.0917 18.739 19.0035 19.0697C18.8933 19.3783 18.8713 19.731 18.9374 20.0617C19.0035 20.4145 19.1138 20.7452 19.2901 21.0538C19.6649 21.7152 20.194 22.2663 20.8113 22.6852C21.1199 22.8836 21.4506 23.0379 21.7813 23.1041C22.112 23.1922 22.4427 23.1922 22.7954 23.1041C23.1702 23.0159 23.5009 22.8175 23.7654 22.5529C24.2284 22.134 24.4709 21.6711 24.4929 21.1861C24.515 20.7011 24.3386 20.2381 23.9859 19.7751L25.9259 17.9674C26.3228 18.4303 26.6314 18.9594 26.8078 19.5547C26.9841 20.1058 27.0503 20.6349 26.9841 21.1861C26.918 21.7152 26.7637 22.2443 26.4771 22.7513C26.2125 23.2584 25.8157 23.7434 25.3527 24.1843C24.7795 24.7134 24.1843 25.0882 23.5229 25.3086C22.8836 25.5291 22.2222 25.6173 21.5608 25.5732C20.8995 25.5291 20.2601 25.3307 19.6649 25.0441C19.0476 24.7354 18.4965 24.3166 17.9894 23.7654C17.4824 23.2143 17.1076 22.6411 16.843 22.0018C16.5785 21.3624 16.4462 20.7231 16.4462 20.0617C16.4462 19.4224 16.5785 18.7831 16.843 18.1437ZM20.657 83.0908C20.5026 83.2451 20.3263 83.3995 20.1499 83.5758C19.9735 83.7522 19.8413 83.9286 19.709 84.1049C19.5988 84.2372 19.5326 84.3915 19.4885 84.5679L17.8571 82.4956C17.9012 82.3633 17.9674 82.2531 18.0556 82.1649C18.1437 82.0326 18.254 81.9224 18.3642 81.7901C18.4744 81.6799 18.5847 81.5697 18.6949 81.4594C18.8051 81.3713 18.8713 81.2831 18.9374 81.239C19.1138 81.0626 19.3122 80.8862 19.4665 80.6878C19.6208 80.5115 19.7531 80.3131 19.8633 80.0926C19.9515 79.8942 19.9956 79.6737 19.9515 79.4533C19.9295 79.2328 19.8192 78.9903 19.6208 78.7478L18.3642 77.1605L15.4762 79.4974L13.8007 77.425L21.7152 70.9877L24.978 75.0661C25.2425 75.4189 25.485 75.7937 25.6834 76.1905C25.8598 76.5653 25.97 76.9841 26.0141 77.403C26.0362 77.8219 25.97 78.2187 25.8157 78.5935C25.6614 78.9903 25.3748 79.343 24.978 79.6737C24.537 80.0265 24.0741 80.2469 23.545 80.3351C23.0159 80.4233 22.4868 80.3351 22.0018 80.0265L21.9797 80.0485C22.0899 80.291 22.134 80.5556 22.112 80.7981C22.0899 81.0406 22.0238 81.2831 21.9136 81.5256C21.8034 81.7681 21.6711 81.9885 21.4947 82.1869C21.3183 82.4074 21.142 82.5838 20.9877 82.7381C20.9436 82.8263 20.8113 82.9365 20.657 83.0908ZM29.1005 89.2196L27.7116 91.0494L21.164 85.9788L27.3589 77.8219L33.7963 82.8042L32.4956 84.5018L28.1746 81.1508L27.0944 82.5838L31.0406 85.6481L29.784 87.3016L25.8157 84.2372L24.6473 85.7804L29.1005 89.2196ZM38.9109 92.4383C38.6684 93.0335 38.3377 93.4965 37.9409 93.8051C37.5661 94.1138 37.1032 94.3122 36.6182 94.4004C36.1332 94.4885 35.6261 94.4885 35.097 94.3783C34.5679 94.2901 34.0388 94.1358 33.5097 93.9153C32.9586 93.6949 32.4735 93.4083 32.0326 93.0776C31.5917 92.7469 31.239 92.3721 30.9744 91.9533C30.7099 91.5123 30.5556 91.0494 30.4894 90.5203C30.4453 89.9912 30.5335 89.44 30.776 88.8228L33.2231 89.8369C33.0247 90.4101 33.0467 90.851 33.2672 91.2037C33.5097 91.5564 33.8845 91.821 34.4136 92.0414C34.5899 92.1076 34.7884 92.1737 34.9868 92.2178C35.1852 92.2619 35.3616 92.2619 35.5379 92.2399C35.7143 92.2178 35.8686 92.1737 36.0009 92.0855C36.1552 91.9974 36.2434 91.843 36.3095 91.6887C36.3977 91.4683 36.3977 91.2698 36.2875 91.0714C36.1993 90.873 36.0229 90.6746 35.8025 90.4762C35.582 90.2778 35.3395 90.0794 35.0529 89.8589C34.7663 89.6384 34.4577 89.418 34.1711 89.1975C33.8845 88.955 33.5979 88.7125 33.3113 88.448C33.0688 88.1834 32.8483 87.8968 32.672 87.5882C32.4956 87.2795 32.3854 86.9268 32.3413 86.552C32.2972 86.1772 32.3633 85.7804 32.5397 85.3395C32.7381 84.8325 33.0467 84.4356 33.4215 84.149C33.7963 83.8845 34.2152 83.7081 34.6781 83.6199C35.1631 83.5317 35.6481 83.5538 36.1332 83.6199C36.6182 83.6861 37.0811 83.8183 37.5441 84.0168C38.0071 84.2152 38.448 84.4577 38.8448 84.7663C39.2416 85.075 39.5723 85.4277 39.8148 85.8245C40.0573 86.2213 40.2337 86.6623 40.2998 87.1252C40.366 87.6102 40.2778 88.1173 40.0794 88.6464L37.6323 87.6323C37.8086 87.2795 37.7646 86.8607 37.522 86.552C37.4118 86.3977 37.2795 86.2654 37.1032 86.1552C36.8166 85.9568 36.4859 85.8245 36.1552 85.7363C36.0009 85.7143 35.8686 85.6922 35.7143 85.7143C35.582 85.7363 35.4497 85.7804 35.3395 85.8466C35.2293 85.9127 35.1411 86.045 35.075 86.1993C34.9868 86.3757 35.0088 86.5961 35.119 86.7504C35.2513 86.9709 35.4277 87.1473 35.6261 87.3236C35.8686 87.5441 36.1332 87.7425 36.3977 87.9189C36.7063 88.1173 36.9929 88.3377 37.3016 88.5802C37.6102 88.8228 37.8968 89.0653 38.1614 89.3518C38.4259 89.6164 38.6464 89.903 38.8228 90.2337C38.9991 90.5423 39.0873 90.8951 39.1314 91.2698C39.1534 91.6005 39.0873 92.0194 38.9109 92.4383ZM39.5723 95.7011L41.7328 85.6702L44.3342 86.2434L42.1737 96.2742L39.5723 95.7011ZM52.5132 95.4586C52.2487 95.8774 51.8959 96.2302 51.4771 96.4727C51.0362 96.7372 50.5511 96.9136 50.0441 96.9797C49.515 97.0679 48.9638 97.112 48.4127 97.0899C47.8175 97.0679 47.2663 96.9797 46.7372 96.8254C46.2081 96.6711 45.7451 96.4286 45.3483 96.1199C44.9515 95.8113 44.6429 95.4145 44.4224 94.9515C44.2019 94.4885 44.0917 93.9153 44.1138 93.254L46.7593 93.3642C46.7593 93.9594 46.9356 94.4004 47.2663 94.6429C47.597 94.8854 48.06 95.0176 48.6111 95.0397C48.8095 95.0397 49.0079 95.0397 49.2063 94.9956C49.4048 94.9735 49.5811 94.9074 49.7354 94.8413C49.8898 94.7751 50.022 94.6649 50.1102 94.5326C50.2205 94.4004 50.2645 94.224 50.2645 94.0476C50.2645 93.8272 50.1984 93.6288 50.0441 93.4744C49.8898 93.3201 49.6693 93.1878 49.4048 93.0776C49.1402 92.9674 48.8316 92.8571 48.4788 92.769C48.1481 92.6808 47.7734 92.5705 47.4206 92.4603C47.0679 92.3501 46.7152 92.1958 46.3624 92.0414C46.0097 91.8871 45.7011 91.6887 45.4365 91.4462C45.172 91.2037 44.9515 90.9171 44.7751 90.5864C44.5988 90.2557 44.5326 89.8369 44.5547 89.3739C44.5767 88.8228 44.731 88.3377 44.9956 87.963C45.2601 87.5882 45.6129 87.2575 46.0097 87.015C46.4286 86.7725 46.8915 86.6182 47.3765 86.53C47.8616 86.4418 48.3686 86.3977 48.8316 86.4198C49.3386 86.4418 49.8457 86.53 50.3086 86.6623C50.7716 86.7945 51.2125 87.015 51.5873 87.3016C51.9621 87.5882 52.2487 87.9409 52.4691 88.3598C52.6896 88.7787 52.7998 89.2857 52.7778 89.8589L50.1323 89.7487C50.1543 89.5503 50.1102 89.3518 50.022 89.1534C49.9339 88.9991 49.8016 88.8668 49.6693 88.7566C49.515 88.6684 49.3386 88.5802 49.1402 88.5362C48.9418 88.4921 48.7434 88.448 48.545 88.448C48.4127 88.448 48.2584 88.448 48.1041 88.47C47.9497 88.4921 47.8175 88.5362 47.6852 88.6023C47.5529 88.6684 47.4427 88.7566 47.3765 88.8668C47.2884 88.9991 47.2443 89.1314 47.2443 89.2857C47.2222 89.4841 47.3104 89.6605 47.4647 89.7928C47.6631 89.9471 47.8836 90.0573 48.1261 90.1455C48.4347 90.2557 48.7434 90.366 49.0741 90.4321C49.4268 90.5203 49.7795 90.6305 50.1543 90.7407C50.5291 90.851 50.8818 91.0053 51.2346 91.1596C51.5653 91.3139 51.8739 91.5123 52.1605 91.7548C52.425 91.9974 52.6455 92.2839 52.7998 92.6146C52.9541 92.9453 53.0203 93.3422 53.0203 93.8051C52.9321 94.4885 52.7998 95.0397 52.5132 95.4586ZM60.1852 95.679L57.5838 96.1861L56.1067 88.3598L53.1305 88.933L52.7116 86.6623L61.2875 85.0088L61.7063 87.2575L58.7302 87.8307L60.1852 95.679ZM69.731 92.0194L68.4303 90.5864L65.1896 92.0194L65.3219 93.9594L62.8307 95.0617L62.2354 84.127L64.7046 83.0467L72.2663 90.9171L69.731 92.0194ZM77.7337 86.3316L71.0097 83.5758L70.9877 83.5979L74.9559 88.5802L73.0159 90.1676L66.6446 82.1649L68.761 80.4453L75.4409 83.1349L75.463 83.1129L71.5388 78.1967L73.4788 76.6093L79.8721 84.5899L77.7337 86.3316ZM83.7963 79.6958L77.3148 75.1543L75.5952 77.6675L73.7213 76.3668L78.6817 69.1358L80.5556 70.4365L78.836 72.9497L85.3175 77.4912L83.7963 79.6958Z" fill="black"/>
</svg>
