<svg width="101" height="100" viewBox="0 0 101 100" fill="none" xmlns="http://www.w3.org/2000/svg">
<path d="M50.5 100C22.9206 100 0.5 77.5573 0.5 50C0.5 22.4206 22.9206 0 50.5 0C78.0573 0 100.5 22.4206 100.5 50C100.5 77.5573 78.0573 100 50.5 100ZM50.5 2.62346C24.3757 2.62346 3.12346 23.8757 3.12346 50C3.12346 76.1243 24.3757 97.3765 50.5 97.3765C76.6243 97.3765 97.8765 76.1243 97.8765 50C97.8765 23.8757 76.6243 2.62346 50.5 2.62346Z" fill="black"/>
<path d="M69.2568 51.5211C61.8935 60.3615 54.2215 55.3351 51.7303 53.2848C53.6704 51.1904 54.5302 50.0441 57.8811 47.2883C61.3423 48.6993 67.5152 46.0097 67.5152 46.0097C63.3485 47.0899 60.1739 46.4726 59.0496 46.186C59.2921 45.9876 63.3926 43.0335 64.6272 41.3139C68.0663 41.4241 70.9102 38.47 70.9102 38.47C70.822 38.3818 69.0804 39.7266 65.7956 39.8809C69.1906 34.8765 69.0363 30.291 69.0363 30.291C69.0363 30.291 67.7797 34.4797 64.5831 39.0873C63.9217 35.8245 64.7594 33.5979 64.6712 33.5317C64.6712 33.5317 62.4446 37.1913 63.4808 40.5643C61.7391 42.5485 58.9834 44.2901 57.9693 45.0617C57.9032 44.8412 56.8229 41.38 57.8591 36.2213C57.8591 36.2213 55.0593 42.6807 56.8009 46.0538C54.6624 47.7072 54.0892 48.104 50.4958 52.1164C42.3829 46.0538 49.3494 35.1852 55.434 32.6499C61.673 30.0485 64.2965 30.5555 70.0063 21.186C76.2894 30.4673 75.2533 44.3121 69.2568 51.5211ZM34.6227 50.5732C38.3044 52.2707 40.8838 54.5635 42.6254 56.746C42.6474 56.6799 42.6695 56.6358 42.6915 56.5476C46.0425 44.5326 27.6562 46.2081 27.6562 46.2081C27.6562 46.2081 30.1915 50.1102 31.6025 54.365C33.2339 59.3033 39.9137 63.4039 42.3167 57.5397C40.6192 55.2248 38.128 52.6675 34.6227 50.5732ZM51.7303 53.2848C51.7083 53.2628 50.4517 52.1384 50.4737 52.1164C47.3212 55.5776 46.0866 58.5538 45.8 62.3236C45.315 61.0229 44.367 58.9506 42.6254 56.746C42.5372 57.0326 42.449 57.2972 42.3388 57.5397C44.2127 60.0529 44.9182 63.47 45.3591 64.5943C45.3591 67.7248 45.7118 69.2901 45.9764 71.9135C45.9764 71.9135 47.6518 72.9056 48.1369 71.0538C47.1889 69.4885 46.2409 58.664 51.7303 53.2848Z" fill="black"/>
<path d="M30.1057 56.7902L22.2353 54.6958C20.5378 54.2328 18.752 55.4233 18.5757 57.209L15.5774 68.4304C15.1586 69.9736 16.0845 71.5388 17.6057 71.9577C19.1489 72.3766 20.7141 71.4507 21.133 69.9295L22.0148 66.6226C25.2115 72.3325 29.9513 76.918 35.8596 79.9163C44.1489 84.1491 54.0475 84.7884 62.9981 81.2831C64.4751 80.7099 65.2027 79.0344 64.6295 77.5574C64.0563 76.0803 62.3808 75.3528 60.9037 75.926C53.6286 78.7699 45.4716 78.351 38.461 74.8016C32.8834 71.9577 28.5625 67.3942 25.939 61.6623L32.4425 63.4039C33.6991 63.7346 34.9778 63.1835 35.6392 62.1253C33.4346 61.1111 31.3623 59.1711 30.1057 56.7902Z" fill="black"/>
<path d="M86.3464 68.4304C85.9275 66.8872 84.3622 65.9833 82.819 66.4022L79.5121 67.284C82.8411 61.6623 84.4504 55.269 84.1197 48.6553C83.7229 41.0054 80.6585 33.8184 75.6321 28.2188C76.6021 32.0327 76.8226 36.1112 76.3375 40.0133C77.4839 42.8352 78.2114 45.8554 78.3658 48.9639C78.6964 55.2249 76.8887 61.2435 73.2511 66.3581L71.5095 59.8546C71.0906 58.3114 69.5254 57.4075 67.9822 57.8263C66.4389 58.2452 65.5351 59.8105 65.9539 61.3537L69.0845 73.06C69.5474 74.7796 71.4654 75.7276 73.1188 74.956L84.3181 71.9577C85.8393 71.5389 86.7652 69.9736 86.3464 68.4304Z" fill="black"/>
<path d="M61.1939 18.8714L53.0149 10.6924C51.8905 9.56804 50.0607 9.56804 48.9364 10.6924C47.8121 11.8167 47.8121 13.6465 48.9364 14.7709L51.3614 17.1959C44.8359 17.1077 38.4867 18.9155 32.9311 22.531C24.9726 27.7118 19.5934 36.0231 18.1824 45.3705C17.9399 46.9358 19.0202 48.4128 20.6075 48.6553C22.1727 48.8979 23.6498 47.8176 23.8923 46.2303C23.9585 45.8335 24.0466 45.4587 24.1348 45.0619C24.201 44.7532 24.245 44.4666 24.3112 44.158C25.8985 37.2797 30.0872 31.2391 36.0837 27.337C41.3306 23.9199 47.4593 22.4649 53.7204 23.0601L48.9584 27.822C47.8341 28.9463 47.8341 30.7762 48.9584 31.9005C49.5096 32.4516 50.2371 32.7162 50.9646 32.7162C51.3394 32.7162 51.7142 32.6721 52.0669 32.5398C52.4196 32.2753 52.7503 32.0548 53.1031 31.8344L54.4038 30.5557L61.6128 23.3467C62.8253 22.0901 62.7151 19.9296 61.1939 18.8714Z" fill="black"/>
</svg>
