<svg width="101" height="100" viewBox="0 0 101 100" fill="none" xmlns="http://www.w3.org/2000/svg">
<path d="M50.795 38.9551C56.8355 38.9551 61.7518 43.8713 61.7518 50.0001C61.7518 56.0186 56.8355 61.045 50.795 61.045C44.6883 61.045 39.75 56.0406 39.75 50.0001C39.75 43.8713 44.6662 38.9551 50.795 38.9551Z" fill="black"/>
<path d="M77.9538 25.3305L62.0587 41.2476L59.5234 38.6903L75.4185 22.7952L71.7148 19.0915L83.4873 17.2617L81.6354 29.0342L77.9538 25.3305Z" fill="black"/>
<path d="M75.4171 77.2046L59.5 61.3095L62.0353 58.7522L77.9524 74.6693L81.634 70.9656L83.4859 82.7381L71.7134 80.8862L75.4171 77.2046Z" fill="black"/>
<path d="M23.5491 74.6473L39.4442 58.7522L41.9795 61.2875L26.0844 77.1825L29.7881 80.8862L18.0156 82.7381L19.8675 70.9656L23.5491 74.6473Z" fill="black"/>
<path d="M26.0844 22.7952L42.0015 38.6903L39.4662 41.2256L23.5491 25.3305L19.8675 29.0342L18.0156 17.2617L29.7881 19.0915L26.0844 22.7952Z" fill="black"/>
<path d="M50.75 100C23.1927 100 0.75 77.5794 0.75 50C0.75 22.4206 23.1927 0 50.75 0C78.3073 0 100.75 22.4206 100.75 50C100.75 77.5573 78.3073 100 50.75 100ZM50.75 2.62346C24.6257 2.62346 3.37345 23.8757 3.37345 50C3.37345 76.1243 24.6257 97.3765 50.75 97.3765C76.8743 97.3765 98.1265 76.1243 98.1265 50C98.1265 23.8757 76.8743 2.62346 50.75 2.62346Z" fill="black"/>
</svg>
