<svg width="101" height="100" viewBox="0 0 101 100" fill="none" xmlns="http://www.w3.org/2000/svg">
<path d="M72.6714 14.5944C61.3178 15.5865 52.9403 21.2523 48.0462 29.4533C44.7834 33.5538 38.2358 46.0979 35.8548 52.6455C31.5338 60.8025 27.786 70.5027 24.8319 79.2549C23.0241 84.612 31.1149 88.0953 32.9227 82.7161C35.1273 76.1685 37.7948 69.0918 40.7931 62.5221C43.7693 69.202 46.8116 75.8378 50.0523 82.4075C52.5656 87.478 60.1714 83.0247 57.6582 77.9762C54.3072 71.2302 51.1987 64.396 48.1344 57.5177C48.1785 57.3854 48.2225 57.2531 48.2666 57.1209C48.7737 57.2752 49.3469 57.3193 49.9642 57.187C54.6599 56.3052 59.3557 55.4233 64.0515 54.5415C66.0576 54.1667 66.8292 51.9621 66.4986 50.2205C65.5506 44.9515 62.5523 41.2919 58.8266 37.8307C58.2754 35.9348 56.4236 34.2814 54.3733 32.6279C58.54 25.9039 65.3301 22.2664 74.1705 21.4727C78.6458 21.0759 77.1467 14.1976 72.6714 14.5944ZM55.5638 44.5106C56.7322 45.7232 57.7022 46.9798 58.4518 48.4568C56.1811 48.8757 53.9104 49.3166 51.6396 49.7355C52.8081 47.9057 54.1088 46.1641 55.5638 44.5106Z" fill="black"/>
<path d="M65.2828 26.4329C68.6117 26.4329 71.3233 29.1445 71.3233 32.4734C71.3233 35.8023 68.6117 38.514 65.2828 38.514C61.9538 38.514 59.2422 35.8023 59.2422 32.4734C59.2422 29.1445 61.9318 26.4329 65.2828 26.4329Z" fill="black"/>
<path d="M50.25 100C22.6927 100 0.25 77.5794 0.25 50C0.25 22.4206 22.6927 0 50.25 0C77.8073 0 100.25 22.4206 100.25 50C100.25 77.5573 77.8293 100 50.25 100ZM50.25 2.62346C24.1256 2.62346 2.87346 23.8757 2.87346 50C2.87346 76.1243 24.1256 97.3765 50.25 97.3765C76.3743 97.3765 97.6265 76.1243 97.6265 50C97.6265 23.8757 76.3743 2.62346 50.25 2.62346Z" fill="black"/>
</svg>
