<svg width="302" height="92" viewBox="0 0 302 92" fill="none" xmlns="http://www.w3.org/2000/svg">
<path d="M0.425781 73.7842H1.91625V79.9613H10.1407V73.7842H11.627V87.945H10.1407V81.1518H1.91625V87.945H0.425781V73.7842Z" fill="#002D74"/>
<path d="M13.5703 78.2803H14.9617V84.4366C14.9617 85.1234 15.1723 85.702 15.5934 86.1724C16.0517 86.7135 16.6999 86.984 17.538 86.984C18.5041 86.984 19.3299 86.6177 20.0194 85.8851C20.7337 85.1151 21.0887 84.2659 21.0887 83.3377V78.2803H22.4636V87.9414H21.258L21.163 86.2972C20.9607 86.5636 20.7419 86.8009 20.5148 87.0132C20.2878 87.2255 20.0359 87.4045 19.7717 87.5626C19.0574 87.9706 18.2771 88.1787 17.4265 88.1787C16.254 88.1787 15.3209 87.8332 14.6231 87.1505C13.9254 86.4512 13.5744 85.6063 13.5744 84.6031V78.2803H13.5703Z" fill="#002D74"/>
<path d="M33.1068 81.4806V87.945H31.7319V81.568C31.7319 80.8937 31.4718 80.3401 30.9516 79.9072C30.4272 79.4618 29.8079 79.2412 29.0813 79.2412C28.1152 79.2412 27.2812 79.62 26.5834 80.3776C25.8815 81.1476 25.5347 82.0176 25.5347 82.9791V87.945H24.2383V78.2838H25.4397L25.4975 80.0904C25.8402 79.595 26.2407 79.1871 26.699 78.8624C27.4504 78.3338 28.2968 78.0674 29.2382 78.0674C30.3323 78.0674 31.2447 78.3796 31.9838 79.0039C32.7311 79.62 33.1068 80.4442 33.1068 81.4806Z" fill="#002D74"/>
<path d="M42.4604 79.3661L42.8403 78.2797H43.8518V87.0209C43.8518 88.5236 43.4637 89.6682 42.6875 90.4508C41.9113 91.2333 40.7099 91.6246 39.0831 91.6246C38.4225 91.6246 37.795 91.5164 37.2046 91.2916C36.61 91.071 35.9907 90.7214 35.3425 90.2552V88.6692C35.7513 89.0314 36.1517 89.3311 36.544 89.5808C36.9362 89.8264 37.3284 90.0179 37.7083 90.1511C38.1542 90.3051 38.6125 90.3842 39.0831 90.3842C40.0864 90.3842 40.8709 90.1677 41.4282 89.7348C42.1177 89.2062 42.4604 88.3571 42.4604 87.1916V85.9969C41.9774 86.7545 41.3787 87.2915 40.6686 87.6037C40.1855 87.8201 39.6529 87.9283 39.0666 87.9283C37.8074 87.9283 36.7504 87.4496 35.8999 86.5006C35.0618 85.5266 34.6406 84.4027 34.6406 83.1248C34.6406 81.8511 35.037 80.723 35.8256 79.749C36.7421 78.6293 37.9106 78.0674 39.335 78.0674C40.0493 78.0674 40.7222 78.2297 41.3581 78.5544C41.548 78.6626 41.7379 78.7833 41.9196 78.9165C42.1012 79.0456 42.2829 79.1954 42.4604 79.3661ZM42.4604 83.2663V80.6107C42.2457 80.3817 42.0269 80.1903 41.804 80.0321C41.581 79.8781 41.3622 79.7365 41.1475 79.6158C40.8915 79.4826 40.6314 79.3869 40.363 79.3286C40.0947 79.2662 39.8222 79.237 39.5414 79.237C38.5877 79.237 37.7991 79.5576 37.1757 80.1944C36.4779 80.9145 36.127 81.8677 36.127 83.0499C36.127 84.1196 36.4201 85.0063 37.0064 85.7014C37.5803 86.3882 38.3234 86.7295 39.24 86.7295C40.1442 86.7295 40.9039 86.4007 41.5273 85.7347C42.1466 85.102 42.4604 84.2778 42.4604 83.2663Z" fill="#002D74"/>
<path d="M51.2109 73.7842H53.0069L57.5857 80.3026L62.086 73.7842H63.9563L58.3082 81.5514V87.945H56.8177V81.5514L51.2109 73.7842Z" fill="#002D74"/>
<path d="M73.9478 82.7254H66.1817C66.1817 84.1116 66.5202 85.1688 67.2014 85.8931C67.8827 86.6215 68.7745 86.9837 69.881 86.9837C70.7191 86.9837 71.5283 86.7298 72.3045 86.2261C72.5234 86.0929 72.7504 85.9264 72.994 85.7308C73.2376 85.531 73.4977 85.302 73.7744 85.0398V86.6091C73.4688 86.8255 73.1881 87.017 72.928 87.1793C72.6637 87.3416 72.4243 87.479 72.1931 87.5872C71.3921 87.9827 70.5911 88.1825 69.7901 88.1825C68.4029 88.1825 67.2262 87.7288 66.2601 86.8297C65.2155 85.8765 64.6953 84.6444 64.6953 83.125C64.6953 81.6931 65.166 80.4944 66.1073 79.5328C67.0611 78.5588 68.2378 78.0718 69.6374 78.0718C70.9999 78.0718 72.0775 78.538 72.8826 79.4829C73.5886 80.3278 73.9478 81.4101 73.9478 82.7254ZM66.3716 81.6224H72.3417C72.1889 80.8065 71.8628 80.1946 71.3591 79.7909C70.8554 79.3871 70.2484 79.1832 69.5342 79.1832C68.7456 79.1832 68.0809 79.4204 67.5317 79.8866C67.028 80.3237 66.6399 80.8981 66.3716 81.6224Z" fill="#002D74"/>
<path d="M84.3299 81.4806V87.945H82.955V81.568C82.955 80.8937 82.6949 80.3401 82.1706 79.9072C81.6503 79.4618 81.0269 79.2412 80.3003 79.2412C79.3341 79.2412 78.5001 79.62 77.7982 80.3776C77.1005 81.1476 76.7495 82.0176 76.7495 82.9791V87.945H75.4531V78.2838H76.6546L76.7124 80.0904C77.0551 79.595 77.4556 79.1871 77.9138 78.8624C78.6653 78.3338 79.5117 78.0674 80.453 78.0674C81.5471 78.0674 82.4637 78.3796 83.1986 79.0039C83.9583 79.62 84.3299 80.4442 84.3299 81.4806Z" fill="#002D74"/>
<path d="M92.1758 73.7842H93.6828V80.8646L100.991 73.7842H102.993L97.1385 79.3661L103.435 87.945H101.47L95.937 80.4525L93.6869 82.5837V87.945H92.1799V73.7842H92.1758Z" fill="#002D74"/>
<path d="M111.857 81.4806V87.945H110.482V81.568C110.482 80.8937 110.222 80.3401 109.702 79.9072C109.181 79.4618 108.558 79.2412 107.831 79.2412C106.865 79.2412 106.031 79.62 105.333 80.3776C104.636 81.1476 104.285 82.0176 104.285 82.9791V87.945H102.988V78.2838H104.19L104.248 80.0904C104.594 79.595 104.991 79.1871 105.449 78.8624C106.2 78.3338 107.043 78.0674 107.988 78.0674C109.082 78.0674 109.999 78.3796 110.738 79.0039C111.481 79.62 111.857 80.4442 111.857 81.4806Z" fill="#002D74"/>
<path d="M114.225 74.2004C114.493 74.2004 114.712 74.2837 114.894 74.4544C115.071 74.625 115.162 74.8623 115.162 75.1745C115.162 75.4908 115.08 75.7281 114.914 75.8987C114.749 76.0694 114.518 76.1526 114.229 76.1526C113.94 76.1526 113.709 76.0569 113.552 75.8613C113.391 75.6698 113.312 75.445 113.312 75.1953C113.312 74.7957 113.407 74.5334 113.597 74.4002C113.787 74.267 113.998 74.2004 114.225 74.2004ZM113.556 78.2797H114.931V87.9408H113.556V78.2797Z" fill="#002D74"/>
<path d="M117.885 75.4285H119.144V78.2631H121.836V79.4369H119.144V85.5766C119.144 86.0803 119.243 86.4424 119.442 86.6589C119.64 86.8753 119.978 86.9835 120.461 86.9835C120.742 86.9835 120.982 86.9544 121.176 86.892C121.374 86.8295 121.589 86.7546 121.832 86.6589V87.8327C121.63 87.891 121.382 87.9492 121.097 88.0033C120.812 88.0575 120.523 88.0824 120.23 88.0824C119.466 88.0824 118.876 87.9201 118.455 87.5954C117.984 87.2583 117.749 86.7171 117.749 85.972V79.4328H116.031V78.259H117.749L117.885 75.4285Z" fill="#002D74"/>
<path d="M124.42 75.4285H125.679V78.2631H128.371V79.4369H125.679V85.5766C125.679 86.0803 125.779 86.4424 125.973 86.6589C126.171 86.8753 126.509 86.9835 126.992 86.9835C127.273 86.9835 127.508 86.9544 127.707 86.892C127.905 86.8295 128.124 86.7546 128.367 86.6589V87.8327C128.161 87.891 127.917 87.9492 127.632 88.0033C127.347 88.0575 127.058 88.0824 126.765 88.0824C126.001 88.0824 125.407 87.9201 124.99 87.5954C124.519 87.2583 124.284 86.7171 124.284 85.972V79.4328H122.566V78.259H124.284L124.42 75.4285Z" fill="#002D74"/>
<path d="M130.311 74.2004C130.575 74.2004 130.798 74.2837 130.98 74.4544C131.157 74.625 131.248 74.8623 131.248 75.1745C131.248 75.4908 131.166 75.7281 131 75.8987C130.835 76.0652 130.604 76.1526 130.315 76.1526C130.022 76.1526 129.795 76.0569 129.638 75.8613C129.481 75.6698 129.398 75.445 129.398 75.1953C129.398 74.7957 129.493 74.5334 129.687 74.4002C129.869 74.267 130.08 74.2004 130.311 74.2004ZM129.642 78.2797H131.017V87.9408H129.642V78.2797Z" fill="#002D74"/>
<path d="M141.642 81.4806V87.945H140.267V81.568C140.267 80.8937 140.007 80.3401 139.487 79.9072C138.967 79.4618 138.343 79.2412 137.616 79.2412C136.65 79.2412 135.816 79.62 135.119 80.3776C134.421 81.1476 134.07 82.0176 134.07 82.9791V87.945H132.773V78.2838H133.975L134.033 80.0904C134.375 79.595 134.776 79.1871 135.234 78.8624C135.986 78.3338 136.828 78.0674 137.769 78.0674C138.863 78.0674 139.78 78.3796 140.515 79.0039C141.266 79.62 141.642 80.4442 141.642 81.4806Z" fill="#002D74"/>
<path d="M150.999 79.3661L151.379 78.2797H152.391V87.0209C152.391 88.5236 151.999 89.6682 151.227 90.4508C150.45 91.2333 149.249 91.6246 147.622 91.6246C146.962 91.6246 146.334 91.5164 145.744 91.2916C145.153 91.071 144.534 90.7214 143.886 90.2552V88.6692C144.29 89.0314 144.695 89.3311 145.087 89.5808C145.479 89.8264 145.867 90.0179 146.251 90.1511C146.697 90.3051 147.156 90.3842 147.626 90.3842C148.63 90.3842 149.414 90.1677 149.971 89.7348C150.657 89.2062 151.004 88.3571 151.004 87.1916V85.9969C150.521 86.7545 149.922 87.2915 149.208 87.6037C148.725 87.8201 148.188 87.9283 147.606 87.9283C146.346 87.9283 145.289 87.4496 144.439 86.5006C143.601 85.5266 143.18 84.4027 143.18 83.1248C143.18 81.8511 143.572 80.723 144.361 79.749C145.277 78.6293 146.446 78.0674 147.87 78.0674C148.58 78.0674 149.253 78.2297 149.893 78.5544C150.083 78.6626 150.273 78.7833 150.454 78.9165C150.64 79.0456 150.818 79.1954 150.999 79.3661ZM150.999 83.2663V80.6107C150.781 80.3817 150.562 80.1903 150.339 80.0321C150.116 79.8781 149.897 79.7365 149.682 79.6158C149.426 79.4826 149.166 79.3869 148.898 79.3286C148.634 79.2662 148.361 79.237 148.076 79.237C147.123 79.237 146.334 79.5576 145.711 80.1944C145.013 80.9145 144.662 81.8677 144.662 83.0499C144.662 84.1196 144.955 85.0063 145.541 85.7014C146.115 86.3882 146.858 86.7295 147.775 86.7295C148.679 86.7295 149.443 86.4007 150.062 85.7347C150.686 85.102 150.999 84.2778 150.999 83.2663Z" fill="#002D74"/>
<path d="M170.391 74.1465V75.6284C169.384 75.1372 168.43 74.8874 167.53 74.8874C166.844 74.8874 166.275 75.0206 165.833 75.2829C165.387 75.5493 165.164 75.9447 165.164 76.4775C165.164 76.7189 165.218 76.9562 165.325 77.1893C165.432 77.4266 165.565 77.643 165.713 77.8511L170.581 83.9533C170.948 83.3997 171.217 82.7795 171.382 82.0927C171.547 81.4059 171.63 80.6775 171.63 79.9074H173.083C173.083 80.9813 172.959 81.8513 172.716 82.5256C172.476 83.2374 172.051 84.0699 171.44 85.0189L173.748 87.9452H171.877L170.465 86.1595C170.172 86.4342 169.891 86.6756 169.623 86.8796C169.359 87.0835 169.095 87.2584 168.843 87.404C167.889 87.9202 166.878 88.1824 165.808 88.1824C164.487 88.1824 163.347 87.8036 162.394 87.0419C161.386 86.2469 160.887 85.2104 160.887 83.9367C160.887 83.1208 161.11 82.3758 161.556 81.7139C161.911 81.2186 162.447 80.7274 163.158 80.2321C163.372 80.0989 163.636 79.949 163.938 79.7784C164.243 79.6077 164.586 79.437 164.97 79.2539C164.499 78.6878 164.161 78.2174 163.958 77.847C163.703 77.4016 163.579 76.9437 163.579 76.4733C163.579 75.6159 163.958 74.9166 164.722 74.3796C165.523 73.826 166.498 73.5471 167.645 73.5471C168.087 73.5471 168.546 73.5971 169.016 73.6928C169.487 73.7927 169.945 73.9426 170.391 74.1465ZM169.685 85.1646L165.717 80.1821C164.623 80.794 163.868 81.306 163.447 81.7181C162.811 82.3425 162.493 83.0542 162.493 83.8493C162.493 84.6443 162.769 85.3311 163.314 85.9097C163.938 86.5382 164.801 86.8504 165.907 86.8504C166.783 86.8504 167.559 86.6631 168.236 86.2885C168.653 86.0554 169.136 85.6808 169.685 85.1646Z" fill="#002D74"/>
<path d="M181.004 73.7676H184.592C185.913 73.7676 187.019 73.9258 187.911 74.2379C188.279 74.3711 188.63 74.5335 188.96 74.7333C189.29 74.9331 189.604 75.1703 189.893 75.4451C190.591 76.1069 191.128 76.9019 191.495 77.8302C191.862 78.7584 192.048 79.7283 192.048 80.7397C192.048 82.9917 191.371 84.7607 190.009 86.0469C188.634 87.3123 186.755 87.945 184.361 87.945H181.004V73.7676ZM184.001 75.0122H182.511V86.6963H184.972C186.408 86.6963 187.626 86.2259 188.617 85.2852C189.773 84.1905 190.351 82.667 190.351 80.7189C190.351 80.3318 190.331 79.9697 190.285 79.6325C190.24 79.2954 190.174 78.9707 190.087 78.6585C189.81 77.7469 189.311 76.9602 188.601 76.3109C188.076 75.8405 187.474 75.5075 186.788 75.2994C186.128 75.1079 185.195 75.0122 184.001 75.0122Z" fill="#002D74"/>
<path d="M193.539 78.2803H195.063L198.572 86.4429L201.569 78.2803H203.076L198.824 89.0611C198.518 89.8312 198.126 90.3806 197.639 90.7053C197.209 90.9842 196.693 91.1216 196.095 91.1216C195.789 91.1216 195.533 91.1007 195.331 91.0591C195.129 91.0175 194.93 90.9592 194.741 90.8885V89.6397C194.918 89.7271 195.12 89.7979 195.343 89.8562C195.566 89.9144 195.764 89.9477 195.942 89.9477C196.388 89.9477 196.735 89.8395 196.982 89.6231C197.23 89.4108 197.449 89.0653 197.639 88.5949L197.87 87.854L193.539 78.2803Z" fill="#002D74"/>
<path d="M213.451 82.7254H205.689C205.689 84.1116 206.028 85.1688 206.709 85.8931C207.386 86.6215 208.282 86.9837 209.389 86.9837C210.227 86.9837 211.036 86.7298 211.812 86.2261C212.031 86.0929 212.258 85.9264 212.502 85.7308C212.741 85.531 213.006 85.302 213.282 85.0398V86.6091C212.977 86.8255 212.696 87.017 212.436 87.1793C212.176 87.3416 211.932 87.479 211.701 87.5872C210.9 87.9827 210.099 88.1825 209.298 88.1825C207.911 88.1825 206.734 87.7288 205.768 86.8297C204.723 85.8765 204.203 84.6444 204.203 83.125C204.203 81.6931 204.674 80.4944 205.615 79.5328C206.569 78.5588 207.746 78.0718 209.145 78.0718C210.508 78.0718 211.589 78.538 212.386 79.4829C213.096 80.3278 213.451 81.4101 213.451 82.7254ZM205.875 81.6224H211.845C211.693 80.8065 211.366 80.1946 210.863 79.7909C210.363 79.3871 209.752 79.1832 209.042 79.1832C208.253 79.1832 207.585 79.4204 207.04 79.8866C206.532 80.3237 206.144 80.8981 205.875 81.6224Z" fill="#002D74"/>
<path d="M215.53 74.2004C215.798 74.2004 216.021 74.2837 216.199 74.4544C216.376 74.625 216.467 74.8623 216.467 75.1745C216.467 75.4908 216.384 75.7281 216.219 75.8987C216.054 76.0652 215.823 76.1526 215.53 76.1526C215.237 76.1526 215.014 76.0569 214.857 75.8613C214.696 75.6698 214.617 75.445 214.617 75.1953C214.617 74.7957 214.712 74.5334 214.906 74.4002C215.092 74.267 215.303 74.2004 215.53 74.2004ZM214.865 78.2797H216.236V87.9408H214.865V78.2797Z" fill="#002D74"/>
<path d="M226.853 81.4806V87.945H225.483V81.568C225.483 80.8937 225.222 80.3401 224.698 79.9072C224.178 79.4618 223.554 79.2412 222.828 79.2412C221.862 79.2412 221.028 79.62 220.326 80.3776C219.628 81.1476 219.277 82.0176 219.277 82.9791V87.945H217.977V78.2838H219.182L219.24 80.0904C219.583 79.595 219.983 79.1871 220.441 78.8624C221.193 78.3338 222.035 78.0674 222.981 78.0674C224.075 78.0674 224.991 78.3796 225.726 79.0039C226.478 79.62 226.853 80.4442 226.853 81.4806Z" fill="#002D74"/>
<path d="M236.211 79.3661L236.591 78.2797H237.602V87.0209C237.602 88.5236 237.214 89.6682 236.438 90.4508C235.662 91.2333 234.46 91.6246 232.829 91.6246C232.173 91.6246 231.545 91.5164 230.955 91.2916C230.365 91.071 229.745 90.7214 229.093 90.2552V88.6692C229.498 89.0314 229.902 89.3311 230.294 89.5808C230.687 89.8264 231.075 90.0179 231.455 90.1511C231.9 90.3051 232.359 90.3842 232.825 90.3842C233.833 90.3842 234.613 90.1677 235.175 89.7348C235.86 89.2062 236.207 88.3571 236.207 87.1916V85.9969C235.724 86.7545 235.125 87.2915 234.415 87.6037C233.932 87.8201 233.395 87.9283 232.809 87.9283C231.554 87.9283 230.493 87.4496 229.642 86.5006C228.804 85.5266 228.383 84.4027 228.383 83.1248C228.383 81.8511 228.779 80.723 229.568 79.749C230.484 78.6293 231.653 78.0674 233.077 78.0674C233.787 78.0674 234.464 78.2297 235.1 78.5544C235.29 78.6626 235.476 78.7833 235.662 78.9165C235.848 79.0456 236.029 79.1954 236.211 79.3661ZM236.211 83.2663V80.6107C235.992 80.3817 235.773 80.1903 235.55 80.0321C235.327 79.8781 235.104 79.7365 234.89 79.6158C234.634 79.4826 234.374 79.3869 234.109 79.3286C233.841 79.2662 233.569 79.237 233.288 79.237C232.334 79.237 231.545 79.5576 230.922 80.1944C230.22 80.9145 229.869 81.8677 229.869 83.0499C229.869 84.1196 230.162 85.0063 230.744 85.7014C231.318 86.3882 232.066 86.7295 232.978 86.7295C233.878 86.7295 234.642 86.4007 235.265 85.7347C235.897 85.102 236.211 84.2778 236.211 83.2663Z" fill="#002D74"/>
<path d="M256.867 74.9041V76.7273C256.396 76.2902 255.855 75.9197 255.244 75.6076C254.291 75.1247 253.333 74.8833 252.363 74.8833C250.872 74.8833 249.596 75.4785 248.531 76.669C247.994 77.2601 247.598 77.9052 247.338 78.6045C247.078 79.3038 246.946 80.0489 246.946 80.844C246.946 82.4673 247.478 83.8659 248.548 85.0356C249.6 86.2011 250.889 86.7838 252.4 86.7838C253.114 86.7838 253.841 86.6506 254.584 86.3801C255.327 86.1095 256.087 85.6891 256.863 85.123V86.8754C255.162 87.7412 253.614 88.1741 252.226 88.1741C250.434 88.1741 248.861 87.5164 247.515 86.2053C246.066 84.7942 245.344 83.0334 245.344 80.9147C245.344 78.8543 246.017 77.1144 247.363 75.695C248.738 74.2631 250.439 73.5471 252.457 73.5471C253.246 73.5471 254.002 73.6637 254.724 73.8926C255.455 74.1215 256.169 74.4587 256.867 74.9041Z" fill="#002D74"/>
<path d="M263.322 88.1781C262.014 88.1781 260.858 87.7244 259.867 86.8253C258.814 85.872 258.281 84.64 258.281 83.1206C258.281 81.6887 258.744 80.4899 259.673 79.5284C260.626 78.5544 261.803 78.0674 263.203 78.0674C264.586 78.0674 265.758 78.5544 266.712 79.5284C267.653 80.4941 268.124 81.6846 268.124 83.104C268.124 84.5942 267.616 85.8304 266.601 86.8086C265.659 87.7202 264.569 88.1781 263.322 88.1781ZM263.186 86.9876C264.103 86.9876 264.916 86.6255 265.626 85.9053C266.316 85.1727 266.658 84.2404 266.658 83.1082C266.658 81.9385 266.291 80.9894 265.552 80.2527C264.875 79.5784 264.094 79.2412 263.207 79.2412C262.29 79.2412 261.506 79.5867 260.858 80.286C260.147 81.056 259.792 82.0009 259.792 83.1206C259.792 84.2528 260.139 85.1977 260.841 85.9553C261.489 86.6421 262.27 86.9876 263.186 86.9876Z" fill="#002D74"/>
<path d="M271.54 87.999C271.235 87.999 270.974 87.8783 270.76 87.6369C270.545 87.3996 270.434 87.0999 270.434 86.7545C270.434 86.3965 270.545 86.0926 270.768 85.8429C270.987 85.5931 271.247 85.4724 271.54 85.4724C271.821 85.4724 272.073 85.5806 272.296 85.8054C272.519 86.0302 272.63 86.334 272.63 86.717C272.63 87.0791 272.523 87.383 272.308 87.6286C272.085 87.8742 271.833 87.999 271.54 87.999Z" fill="#002D74"/>
<path d="M276.391 73.7842H277.902V86.6962H285.284V87.9408H276.395V73.7842H276.391Z" fill="#002D74"/>
<path d="M287.99 75.4285H289.25V78.2631H291.941V79.4369H289.25V85.5766C289.25 86.0803 289.349 86.4424 289.547 86.6589C289.745 86.8753 290.084 86.9835 290.567 86.9835C290.847 86.9835 291.087 86.9544 291.281 86.892C291.479 86.8295 291.698 86.7546 291.941 86.6589V87.8327C291.735 87.891 291.491 87.9492 291.207 88.0033C290.917 88.0575 290.628 88.0824 290.339 88.0824C289.576 88.0824 288.985 87.9201 288.564 87.5954C288.093 87.2583 287.858 86.7171 287.858 85.972V79.4328H286.141V78.259H287.858L287.99 75.4285Z" fill="#002D74"/>
<path d="M300.447 73.7842H301.917V87.945H300.604L300.472 86.3757C300.295 86.6171 300.117 86.8294 299.94 87.0167C299.762 87.204 299.58 87.3622 299.407 87.4954C298.771 87.9533 298.036 88.1822 297.194 88.1822C295.885 88.1822 294.799 87.7035 293.928 86.7378C293.078 85.7763 292.652 84.6067 292.652 83.2372C292.652 81.8178 293.102 80.6065 294.007 79.6075C294.923 78.5835 296.067 78.0715 297.442 78.0715C298.011 78.0715 298.548 78.1673 299.044 78.3629C299.221 78.4337 299.428 78.5336 299.663 78.6501C299.898 78.7708 300.162 78.9165 300.456 79.083V73.7842H300.447ZM300.447 83.2663V80.4858C299.849 79.9905 299.328 79.6616 298.883 79.491C298.437 79.3203 298.007 79.237 297.586 79.237C296.542 79.237 295.695 79.6533 295.051 80.4816C294.44 81.2642 294.135 82.1716 294.135 83.2081C294.135 84.3153 294.473 85.2352 295.146 85.9719C295.77 86.6463 296.509 86.9834 297.359 86.9834C298.201 86.9834 298.924 86.6379 299.535 85.9387C300.146 85.2435 300.447 84.3486 300.447 83.2663Z" fill="#002D74"/>
<path d="M38.2361 7.82129H53.2482V68.0692H38.2361V45.5126H15.0079V68.0692H0V7.82129H15.0079V30.3778H38.2361V7.82129Z" fill="#002D74"/>
<path d="M105.193 8.69556H122.257L109.359 33.2709C107.286 37.271 104.087 43.2109 99.7556 51.0822C99.5988 51.3195 99.4006 51.5484 99.1652 51.7856L96.9564 55.9148C94.8796 59.6569 91.7459 62.7746 87.5594 65.2846C83.3729 67.7946 79.1409 69.0475 74.8594 69.0475H66.3625V54.0043H74.8594C76.2426 54.0043 77.7537 53.5589 79.3928 52.6681C81.0319 51.7732 82.32 50.7284 83.2655 49.5213L65.7969 8.69556H82.0517L92.3859 32.8005C94.9127 28.3592 99.1818 20.3214 105.193 8.69556Z" fill="#00A0DF"/>
<path d="M269.814 3.19275C279.178 7.77565 285.825 16.3837 289.744 29.0127L301.548 67.037H281.412L272.816 39.3606C270.929 33.2876 267.663 29.2708 263.027 27.3102C258.382 25.358 253.848 25.7326 249.418 28.4424L186.261 67.037H140.02L242.044 4.69541C251.181 -0.890653 260.442 -1.38599 269.814 3.19275Z" fill="#00A0DF"/>
<path d="M238.045 40.9883L246.125 67.0371H225.985L221.109 51.3404L238.045 40.9883Z" fill="#002D74"/>
<path d="M158.456 3.19286C149.084 -1.38588 139.823 -0.890546 130.682 4.69968L124.398 8.53749V36.7966L138.056 28.4467C138.94 27.9097 139.827 27.481 140.723 27.1272L168.142 10.3773C165.326 7.37616 162.094 4.9744 158.456 3.19286Z" fill="#00A0DF"/>
<path d="M124.398 67.0367H130.823L193.984 28.4421C194.029 28.4171 194.075 28.4004 194.12 28.3671L223.892 10.177C221.114 7.2633 217.951 4.92814 214.384 3.18822C205.008 -1.39052 195.755 -0.895185 186.614 4.69504L124.407 42.6986V67.0367H124.398Z" fill="#002D74"/>
<path d="M293.064 3.96269H294.769C295.355 3.96269 295.781 4.05843 296.057 4.24574C296.33 4.43305 296.47 4.72859 296.47 5.12819C296.47 5.5819 296.33 5.9149 296.057 6.12719C295.785 6.33947 295.36 6.44353 294.769 6.44353H293.064V3.96269ZM291.809 10.989H292.436H293.064V7.51329L294.398 7.50081L296.454 10.989H297.189H297.911L295.616 7.45502C296.194 7.3801 296.664 7.1803 297.023 6.86811C297.519 6.44353 297.763 5.85662 297.763 5.11986C297.763 4.43305 297.519 3.90025 297.028 3.5173C296.54 3.13019 295.863 2.94288 295 2.94288H292.432H291.805V10.989H291.809ZM300.5 6.96801C300.5 8.58722 299.951 9.95668 298.865 11.0722C297.771 12.1878 296.437 12.7455 294.86 12.7455C293.283 12.7455 291.949 12.1878 290.859 11.0722C289.769 9.95668 289.228 8.58722 289.228 6.96801C289.228 5.3488 289.769 3.97518 290.859 2.85963C291.949 1.73992 293.283 1.18215 294.86 1.18215C296.445 1.18215 297.779 1.73992 298.865 2.85963C299.955 3.97518 300.5 5.3488 300.5 6.96801ZM294.86 0C292.891 0 291.227 0.674323 289.864 2.01881C288.498 3.36329 287.816 5.01164 287.816 6.96801C287.816 8.91605 288.498 10.5602 289.86 11.9047C291.223 13.2534 292.886 13.9235 294.864 13.9235C296.846 13.9235 298.514 13.2534 299.876 11.9047C301.239 10.5602 301.92 8.91605 301.92 6.96801C301.92 5.01164 301.235 3.36329 299.872 2.01881C298.506 0.674323 296.834 0 294.86 0Z" fill="#002D74"/>
</svg>
