<svg width="33" height="33" viewBox="0 0 33 33" fill="none" xmlns="http://www.w3.org/2000/svg">
<path d="M25.1423 8.64279H26.7137M7.07087 0.785645H25.928C29.3995 0.785645 32.2137 3.59985 32.2137 7.07136V25.9285C32.2137 29.4 29.3995 32.2142 25.928 32.2142H7.07087C3.59937 32.2142 0.785156 29.4 0.785156 25.9285V7.07136C0.785156 3.59985 3.59937 0.785645 7.07087 0.785645ZM16.4994 22.7856C13.0279 22.7856 10.2137 19.9714 10.2137 16.4999C10.2137 13.0284 13.0279 10.2142 16.4994 10.2142C19.9709 10.2142 22.7852 13.0284 22.7852 16.4999C22.7852 19.9714 19.9709 22.7856 16.4994 22.7856Z" stroke="black" stroke-width="1.5"/>
</svg>
