<svg width="35" height="35" viewBox="0 0 35 35" fill="none" xmlns="http://www.w3.org/2000/svg">
<path d="M9.25 31.5249L17.5 15.19M10.0246 22.12C8.425 20.8 7.6 19.2749 7.6 17.5V15.85C7.6 11.3848 11.3848 7.6 15.85 7.6H19.15C23.6152 7.6 27.4 11.3848 27.4 15.85V17.5C27.4 21.3273 23.8023 24.1 19.975 24.1C17.5765 24.1 15.5114 22.4071 15.041 20.0551L15.025 19.975M17.5 34C8.3873 34 1 26.6127 1 17.5C1 8.3873 8.3873 1 17.5 1C26.6127 1 34 8.3873 34 17.5C34 26.6127 26.6127 34 17.5 34Z" stroke="black" stroke-width="1.5"/>
</svg>
