<svg width="33" height="33" viewBox="0 0 33 33" fill="none" xmlns="http://www.w3.org/2000/svg">
<path d="M3.92756 25.9294L4.59838 26.2648L4.80586 25.8499L4.52721 25.4789L3.92756 25.9294ZM7.06997 29.0718L7.52044 28.4722L7.14952 28.1935L6.73456 28.401L7.06997 29.0718ZM0.785156 32.2142L0.114336 31.8788C-0.0300349 32.1676 0.026556 32.5163 0.254826 32.7446C0.483096 32.9728 0.831825 33.0294 1.12057 32.885L0.785156 32.2142ZM10.2137 10.2142L9.76373 9.61423C9.57487 9.75587 9.46373 9.97817 9.46373 10.2142H10.2137ZM22.7852 22.7857V23.5357C23.0064 23.5357 23.2163 23.438 23.3588 23.2688L22.7852 22.7857ZM11.1903 9.4818L10.7403 8.8818L11.1903 9.4818ZM13.6925 10.544L12.9482 10.6371L13.6925 10.544ZM14.047 13.3802L14.7912 13.2872L14.047 13.3802ZM13.5988 14.6863L13.0685 14.1559L13.5988 14.6863ZM23.4818 21.9584L22.9081 21.4753L23.4818 21.9584ZM22.5073 19.3913L22.6159 18.6493L22.5073 19.3913ZM19.6373 18.9713L19.7459 18.2293L19.6373 18.9713ZM18.2986 19.415L18.829 19.9454H18.829L18.2986 19.415ZM0.0351754 16.4999C0.0351754 20.206 1.26055 23.6279 3.32792 26.3799L4.52721 25.4789C2.64828 22.9778 1.53518 19.87 1.53518 16.4999H0.0351754ZM16.4995 0.0356445C7.40649 0.0356445 0.0351754 7.40696 0.0351754 16.4999H1.53518C1.53518 8.23538 8.23492 1.53564 16.4995 1.53564V0.0356445ZM32.9637 16.4999C32.9637 7.40696 25.5924 0.0356445 16.4995 0.0356445V1.53564C24.764 1.53564 31.4637 8.23538 31.4637 16.4999H32.9637ZM16.4995 32.9642C25.5924 32.9642 32.9637 25.5929 32.9637 16.4999H31.4637C31.4637 24.7645 24.764 31.4642 16.4995 31.4642V32.9642ZM6.61949 29.6715C9.37144 31.7388 12.7934 32.9642 16.4995 32.9642V31.4642C13.1294 31.4642 10.0215 30.3511 7.52044 28.4722L6.61949 29.6715ZM1.12057 32.885L7.40538 29.7426L6.73456 28.401L0.449746 31.5434L1.12057 32.885ZM3.25674 25.594L0.114336 31.8788L1.45598 32.5496L4.59838 26.2648L3.25674 25.594ZM9.46373 10.2142V11.7857H10.9637V10.2142H9.46373ZM21.2137 23.5357H22.7852V22.0357H21.2137V23.5357ZM9.46373 11.7857C9.46373 18.275 14.7244 23.5357 21.2137 23.5357V22.0357C15.5528 22.0357 10.9637 17.4466 10.9637 11.7857H9.46373ZM10.6637 10.8142L11.6403 10.0818L10.7403 8.8818L9.76373 9.61423L10.6637 10.8142ZM12.9482 10.6371L13.3028 13.4732L14.7912 13.2872L14.4367 10.451L12.9482 10.6371ZM13.0685 14.1559L11.2548 15.9696L12.3155 17.0303L14.1292 15.2166L13.0685 14.1559ZM13.3028 13.4732C13.3342 13.7247 13.2478 13.9767 13.0685 14.1559L14.1292 15.2166C14.6357 14.71 14.88 13.998 14.7912 13.2872L13.3028 13.4732ZM11.6403 10.0818C12.1449 9.70338 12.87 10.0112 12.9482 10.6371L14.4367 10.451C14.2156 8.68233 12.1663 7.81234 10.7403 8.8818L11.6403 10.0818ZM23.3588 23.2688L24.0555 22.4415L22.9081 21.4753L22.2115 22.3026L23.3588 23.2688ZM22.6159 18.6493L19.7459 18.2293L19.5287 19.7134L22.3987 20.1334L22.6159 18.6493ZM17.7683 18.8847L15.9691 20.6839L17.0298 21.7446L18.829 19.9454L17.7683 18.8847ZM19.7459 18.2293C19.0202 18.123 18.2869 18.3661 17.7683 18.8847L18.829 19.9454C19.0125 19.7619 19.2719 19.6759 19.5287 19.7134L19.7459 18.2293ZM24.0555 22.4415C25.2272 21.05 24.4159 18.9127 22.6159 18.6493L22.3987 20.1334C23.0356 20.2266 23.3227 20.983 22.9081 21.4753L24.0555 22.4415Z" fill="black"/>
</svg>
