<svg width="136" height="41" viewBox="0 0 136 41" fill="none" xmlns="http://www.w3.org/2000/svg">
<path d="M40.4894 18.9535V13.6047H43.2171C44.7174 13.6047 45.9448 14.8007 45.9448 16.2791C45.9448 17.7575 44.7344 18.9535 43.2171 18.9535H40.4894ZM47.9395 13.6047C47.4621 12.7907 46.7802 12.1263 45.9448 11.6445C45.1436 11.196 44.2059 10.9302 43.2171 10.9302H37.7617V29.6844H40.4894V21.6445H43.2171C44.2059 21.6445 45.1436 21.3787 45.9448 20.9302C46.7631 20.4651 47.4621 19.7841 47.9395 18.9701C48.3998 18.1894 48.6725 17.2758 48.6725 16.2957C48.6725 15.299 48.3998 14.3854 47.9395 13.6047Z" fill="black"/>
<path d="M3.66521 13.6047H6.39291C7.89315 13.6047 9.12062 14.8007 9.12062 16.2791C9.12062 17.7575 7.89315 18.9535 6.39291 18.9535H3.66521V13.6047ZM3.66521 21.6445H4.26189L9.99008 29.6844H13.3145L7.50104 21.5116C8.08068 21.3954 8.60917 21.196 9.10357 20.9136C9.95598 20.4485 10.6379 19.7674 11.1153 18.9535C11.5756 18.1728 11.8483 17.2591 11.8483 16.2791C11.8483 15.299 11.5756 14.3854 11.1153 13.6047C10.6379 12.7907 9.95598 12.1096 9.12062 11.6445C8.31936 11.196 7.38171 10.9302 6.39291 10.9302H0.9375V29.6844H3.66521V21.6445Z" fill="black"/>
<path d="M22.759 13.6047H29.5782V10.9302H20.0312V29.6678H29.5782V26.9934H22.759V21.6445H28.2144V18.9535H22.759V13.6047Z" fill="black"/>
<path d="M88.4465 13.6047H95.2657V10.9302H85.7188V29.6678H95.2657V26.9934H88.4465V21.6445H93.9019V18.9535H88.4465V13.6047Z" fill="black"/>
<path d="M124.587 13.6047H131.406V10.9302H121.859V29.6678H131.406V26.9934H124.587V21.6445H130.043V18.9535H124.587V13.6047Z" fill="black"/>
<path d="M108.562 22.6744L104.215 10.9136H101.316L108.562 30.4983L115.824 10.9136H112.926L108.562 22.6744Z" fill="black"/>
<path d="M51.6544 9.58472C54.9788 5.24917 60.2297 2.44186 66.1795 2.44186C70.953 2.44186 75.2661 4.25249 78.5223 7.2093H77.1244V9.58472H82.8185V3.98671H80.3976V5.63123C76.6982 2.17608 71.7031 0.0498352 66.1965 0.0498352C59.4625 0.0498352 53.4786 3.22259 49.7109 8.13954L51.6544 9.56811" fill="#79B945"/>
<path d="M80.707 31.0133C77.3826 35.3488 72.1318 38.1561 66.182 38.1561C61.4085 38.1561 57.0953 36.3455 53.8391 33.3887H55.2371V31.0133H49.543V36.6113H51.9638V34.9668C55.6633 38.4219 60.6584 40.5482 66.1649 40.5482C72.899 40.5482 78.8829 37.3588 82.6505 32.4419L80.707 31.0133Z" fill="#79B945"/>
<path d="M52.082 20.299C52.082 27.9402 58.3899 34.1362 66.1809 34.1362C68.4824 34.1362 70.6475 33.588 72.5739 32.6246L64.7488 21.6445H64.1351V29.6844H61.4074V10.9136H66.8628C67.8516 10.9136 68.7892 11.1794 69.5905 11.6279C70.4088 12.093 71.1078 12.7741 71.5851 13.588C72.0454 14.3854 72.3182 15.2824 72.3182 16.2625C72.3182 17.2425 72.0454 18.1561 71.5851 18.9369C71.1078 19.7508 70.4259 20.4153 69.5905 20.897C69.0961 21.1794 68.5506 21.3787 67.9709 21.495L74.8584 31.1628C78.1487 28.6213 80.2626 24.701 80.2626 20.2824C80.2626 12.6412 73.9548 6.44518 66.1638 6.44518C58.3898 6.46179 52.082 12.6578 52.082 20.299Z" fill="black"/>
<path d="M69.5921 16.2791C69.5921 14.8007 68.3647 13.6047 66.8644 13.6047H64.1367V18.9535H66.8644C68.3647 18.9535 69.5921 17.7575 69.5921 16.2791Z" fill="black"/>
<path d="M133.931 11.7608H134.136C134.255 11.7608 134.34 11.8439 134.34 11.9601C134.34 12.0764 134.255 12.1595 134.136 12.1595H133.931V11.7608ZM133.931 12.3754H133.982L134.426 12.99H134.681L134.238 12.3588C134.272 12.3422 134.323 12.3422 134.357 12.309C134.426 12.2757 134.477 12.2259 134.511 12.1595C134.545 12.093 134.562 12.0266 134.562 11.9601C134.562 11.8771 134.545 11.8106 134.511 11.7608C134.477 11.6944 134.426 11.6445 134.357 11.6113C134.289 11.5781 134.221 11.5615 134.153 11.5615H133.727V12.99H133.931V12.3754Z" fill="black"/>
<path d="M134.083 13.4053C133.452 13.4053 132.923 12.8904 132.923 12.2758C132.923 11.6445 133.435 11.1462 134.083 11.1462C134.713 11.1462 135.242 11.6445 135.242 12.2758C135.242 12.8904 134.713 13.4053 134.083 13.4053ZM134.083 10.9302C133.332 10.9302 132.719 11.5282 132.719 12.2758C132.719 13.0067 133.332 13.6213 134.083 13.6213C134.833 13.6213 135.446 13.0233 135.446 12.2758C135.446 11.5282 134.833 10.9302 134.083 10.9302Z" fill="black"/>
</svg>
