<svg width="128" height="45" viewBox="0 0 128 45" fill="none" xmlns="http://www.w3.org/2000/svg">
<path d="M0.664062 0.448029H3.75633C5.566 0.448029 7.01257 1.48757 7.01257 3.55493C7.01257 5.08642 6.21022 6.17281 4.76658 6.53006L7.45767 10.8581H6.41813L3.82953 6.65012H1.55426V10.8581H0.675776L0.664062 0.448029ZM3.77097 5.81556C5.15311 5.81556 6.11359 5.02786 6.11359 3.55493C6.11359 2.08201 5.16776 1.2943 3.80903 1.2943H1.55426V5.81556H3.77097Z" fill="black"/>
<path d="M7.94531 5.65153C7.94531 2.38064 9.2074 0.283997 11.7111 0.283997C14.2148 0.283997 15.4827 2.38064 15.4827 5.65153C15.4827 8.92242 14.2206 11.022 11.7111 11.022C9.20154 11.022 7.94531 8.92535 7.94531 5.65153ZM14.5925 5.65153C14.5925 2.82867 13.6555 1.11563 11.7228 1.11563C9.79013 1.11563 8.83551 2.82867 8.83551 5.65153C8.83551 8.47439 9.7872 10.1874 11.7111 10.1874C13.635 10.1874 14.5925 8.48318 14.5925 5.65153Z" fill="black"/>
<path d="M19.1721 0.448029H20.1238L23.6378 10.8581H22.7007L21.7929 8.0762H17.5089L16.6011 10.8581H15.6641L19.1721 0.448029ZM21.5148 7.25921L20.0067 2.67938C19.872 2.26356 19.7519 1.85946 19.6494 1.45828C19.544 1.85946 19.4269 2.26356 19.2922 2.67938L17.7754 7.25921H21.5148Z" fill="black"/>
<path d="M31.276 5.65158C31.276 8.656 30.1897 10.8581 26.9627 10.8581H24.5234V0.448029H26.9627C30.1897 0.448029 31.276 2.65009 31.276 5.65158ZM25.4166 1.2943V10.0089H26.9627C29.4605 10.0089 30.3829 8.44809 30.3829 5.65158C30.3829 2.85507 29.4605 1.2943 26.9627 1.2943H25.4166Z" fill="black"/>
<path d="M32.6914 0.448029H33.6138L36.7646 6.72626L39.9184 0.448029H40.8408V10.8581H39.9623V4.49198C39.9623 3.64571 39.9623 2.84336 40.0385 2.02344L36.9872 8.10548H36.5421L33.4938 2.02344C33.5523 2.84336 33.5845 3.64571 33.5845 4.49198V10.8581H32.6914V0.448029Z" fill="black"/>
<path d="M45.2532 0.448029H46.2049L49.7188 10.8581H48.7818L47.874 8.0762H43.587L42.6792 10.8581H41.7422L45.2532 0.448029ZM47.5958 7.25921L46.0848 2.67938C45.9501 2.26356 45.833 1.85946 45.7276 1.45828C45.6251 1.85946 45.505 2.26356 45.3703 2.67938L43.8535 7.25921H47.5958Z" fill="black"/>
<path d="M56.8115 3.7482C56.8115 5.97955 55.444 7.06594 53.318 7.06594H51.5025V10.8727H50.6094V0.448029H53.318C55.441 0.448029 56.8115 1.51978 56.8115 3.7482ZM51.4996 1.2943V6.21674H53.359C54.9813 6.21674 55.9183 5.37047 55.9183 3.7482C55.9183 2.12593 54.9959 1.2943 53.359 1.2943H51.4996Z" fill="black"/>
<path d="M61.9088 1.2943H59.0391V0.448029H65.6716V1.2943H62.799V10.8581H61.9205L61.9088 1.2943Z" fill="black"/>
<path d="M65.7734 5.65153C65.7734 2.38064 67.0355 0.283997 69.5509 0.283997C72.0663 0.283997 73.3138 2.38064 73.3138 5.65153C73.3138 8.92242 72.037 11.022 69.5509 11.022C67.0648 11.022 65.7734 8.92535 65.7734 5.65153ZM72.4206 5.65153C72.4206 2.82867 71.4836 1.11563 69.5509 1.11563C67.6183 1.11563 66.6636 2.82867 66.6636 5.65153C66.6636 8.47439 67.6183 10.1874 69.5509 10.1874C71.4836 10.1874 72.4206 8.48318 72.4206 5.65153Z" fill="black"/>
<path d="M12.6853 35.271H22.6766V43.7279H0V35.271L9.61061 25.2768H0.770137V16.8199H22.293V25.2768L12.6853 35.271Z" fill="black"/>
<path d="M36.9356 36.0412H48.4672V43.7279H26.9414V16.8199H47.6971V24.5096H36.9356V26.4306H46.9298V34.1173H36.9356V36.0412Z" fill="black"/>
<path d="M67.2438 43.728L62.6317 34.8875H62.2481V43.728H52.2539V16.82H63.3989C65.2478 16.7891 67.0919 17.0168 68.8777 17.4964C70.2681 17.8683 71.5729 18.5067 72.7196 19.3764C73.7015 20.1412 74.4733 21.1427 74.9627 22.2871C75.4599 23.4694 75.709 24.7411 75.6948 26.0236C75.7269 27.1995 75.5443 28.3714 75.156 29.4819C74.8636 30.2835 74.4626 31.0412 73.9642 31.7337C73.4909 32.3737 72.9043 32.9216 72.2336 33.3501L78.7695 43.728H67.2438ZM63.3989 27.968C64.0047 27.9894 64.596 27.7801 65.0534 27.3823C65.2583 27.2042 65.4225 26.9842 65.5351 26.7372C65.6476 26.4901 65.7059 26.2218 65.7059 25.9504C65.7059 25.6789 65.6476 25.4106 65.5351 25.1636C65.4225 24.9166 65.2583 24.6966 65.0534 24.5184C64.596 24.1207 64.0047 23.9114 63.3989 23.9328H62.2481V27.968H63.3989Z" fill="black"/>
<path d="M101.628 3.18591C97.5901 3.18649 93.6432 4.38436 90.2862 6.62805C86.9292 8.87173 84.3129 12.0605 82.7681 15.7911C81.2233 19.5216 80.8194 23.6265 81.6075 27.5866C82.3956 31.5467 84.3402 35.1842 87.1956 38.0392C90.0509 40.8941 93.6887 42.8382 97.6489 43.6258C101.609 44.4133 105.714 44.0088 109.444 42.4635C113.175 40.9182 116.363 38.3014 118.606 34.9441C120.849 31.5868 122.047 27.6396 122.047 23.6019C122.047 20.9205 121.519 18.2652 120.493 15.7879C119.467 13.3106 117.963 11.0596 116.067 9.16372C114.171 7.26781 111.92 5.76405 109.442 4.73836C106.965 3.71267 104.309 3.18514 101.628 3.18591ZM101.628 33.2506C99.7153 33.254 97.8447 32.6899 96.2529 31.6295C94.6612 30.5692 93.4199 29.0603 92.6862 27.294C91.9526 25.5277 91.7596 23.5835 92.1316 21.7074C92.5037 19.8314 93.4241 18.1079 94.7763 16.7553C96.1285 15.4027 97.8517 14.4817 99.7276 14.1091C101.604 13.7365 103.548 13.9289 105.314 14.662C107.081 15.3951 108.59 16.636 109.651 18.2274C110.712 19.8188 111.277 21.6893 111.274 23.6019C111.27 26.1592 110.252 28.6107 108.444 30.4192C106.636 32.2278 104.185 33.2459 101.628 33.2506Z" fill="black"/>
<path d="M122.156 4.03813L76.0742 33.057L81.9195 42.3392L128.001 13.3203L122.156 4.03813Z" fill="#185CBF"/>
</svg>
