<svg width="125" height="57" viewBox="0 0 125 57" fill="none" xmlns="http://www.w3.org/2000/svg">
<path d="M59.5461 23.9536C59.5461 23.9536 59.3625 23.6736 59.0156 23.1441C58.837 22.8845 58.6125 22.5638 58.3524 22.1921C58.0769 21.8256 57.7759 21.3979 57.4086 20.9397C56.6842 20.0131 55.7558 18.9389 54.5977 17.7985C53.4397 16.6581 52.0266 15.4871 50.3687 14.3976C49.5422 13.8529 48.6342 13.3489 47.6802 12.8805C46.7211 12.4172 45.7111 11.9845 44.6347 11.6332C42.4921 10.9255 40.1352 10.4775 37.6763 10.3604C35.2226 10.2484 32.6463 10.4469 30.1313 10.9713C27.6214 11.5008 25.1473 12.4376 22.872 13.7154C20.5866 14.978 18.4899 16.5817 16.684 18.4196C14.8832 20.2575 13.3375 22.299 12.1387 24.4424C10.9398 26.5857 10.0522 28.8258 9.47061 30.9895C9.17473 32.1299 8.96557 33.1634 8.80743 34.2326C8.7207 34.762 8.67479 35.2813 8.61357 35.7955C8.58296 36.3097 8.52175 36.8138 8.51664 37.3127C8.44012 39.2982 8.55235 41.1259 8.77172 42.7347C8.99618 44.3435 9.31247 45.7283 9.61855 46.8585C9.95014 47.9836 10.2409 48.8644 10.4654 49.4499C10.6949 50.0404 10.8174 50.351 10.8174 50.351C10.8174 50.351 10.6643 50.0506 10.3787 49.4855C10.0981 48.9153 9.70527 48.0753 9.29206 46.9603C8.88905 45.8454 8.45033 44.4657 8.11873 42.8416C7.78204 41.2176 7.53717 39.344 7.52187 37.2923C7.50146 36.7781 7.53717 36.2537 7.54227 35.7192C7.57798 35.1846 7.59839 34.6399 7.65961 34.09C7.76164 32.9954 7.96569 31.8143 8.21056 30.7044C8.74111 28.3778 9.56754 26.0054 10.797 23.7144C12.0213 21.4284 13.5721 19.2087 15.4852 17.2537C17.388 15.2937 19.602 13.5678 22.0303 12.2085C24.4688 10.8644 27.1062 9.89201 29.7947 9.34217C30.1313 9.28108 30.4833 9.20471 30.8098 9.1538C31.1465 9.10289 31.4424 9.05707 31.8097 9.01125C32.1464 8.97561 32.478 8.93997 32.8147 8.90433C33.1463 8.87379 33.483 8.85342 33.8146 8.83306C35.146 8.75669 36.4673 8.76178 37.7631 8.85342C40.3597 9.01634 42.8339 9.60182 45.0581 10.4317C47.2925 11.2564 49.2566 12.3816 50.9247 13.5932C52.5929 14.8049 53.9652 16.1082 55.0722 17.3505C56.1843 18.5876 57.0311 19.7586 57.6841 20.7462C58.3473 21.7288 58.786 22.5536 59.0921 23.1034C59.3931 23.6533 59.5461 23.9536 59.5461 23.9536Z" fill="#6FC2D7"/>
<path d="M38.8626 26.601C38.8626 26.601 39.1074 26.433 39.5666 26.1123C40.0257 25.7915 40.6889 25.313 41.5204 24.6867C42.3468 24.0555 43.3416 23.2816 44.4384 22.3398C45.5403 21.4081 46.7443 20.3084 47.9584 19.0407C48.5604 18.4043 49.1623 17.7119 49.698 16.9737C49.9633 16.6072 50.2081 16.2101 50.3561 15.8333C50.4275 15.65 50.4632 15.4617 50.4479 15.3853C50.4428 15.37 50.4428 15.3598 50.4428 15.3548C50.453 15.37 50.4275 15.3242 50.4632 15.3853L50.453 15.3649L50.402 15.2835C50.3918 15.2784 50.351 15.2275 50.2948 15.1918C50.0653 15.0187 49.6164 14.9016 49.147 14.8711C48.6726 14.8406 48.1676 14.8456 47.6523 14.8864C46.6218 14.9678 45.5505 15.1358 44.469 15.3497C42.2958 15.7773 40.0665 16.3984 37.8678 17.2079C35.6691 18.0174 33.4806 18.9847 31.3686 20.0844C29.2413 21.1586 27.1803 22.3499 25.15 23.5158C23.1247 24.6867 21.1505 25.8628 19.2935 27.0847C17.4417 28.3116 15.6766 29.5284 14.0697 30.7503C13.2637 31.3561 12.4985 31.9721 11.7945 32.5983C11.0854 33.2143 10.4273 33.8406 9.88143 34.4871C9.61105 34.8079 9.36108 35.1337 9.16723 35.4595C8.97338 35.7803 8.84074 36.1112 8.82034 36.3657C8.81013 36.4879 8.83564 36.5948 8.86625 36.6661L8.90196 36.7323C8.91216 36.7476 8.91216 36.7425 8.91726 36.7527C8.91726 36.7578 8.93767 36.7781 8.95297 36.7985C8.98868 36.8392 9.03459 36.8799 9.08561 36.9156C9.29987 37.0683 9.62126 37.165 9.94265 37.221C10.5956 37.328 11.2639 37.3178 11.8761 37.2872C12.4883 37.2516 13.0596 37.1803 13.5698 37.1141C14.5951 36.9767 15.4012 36.8087 15.947 36.7018C16.498 36.5897 16.7887 36.5287 16.7887 36.5287L16.8347 36.6508C16.8347 36.6508 16.5541 36.7527 16.0235 36.9461C15.493 37.1294 14.7074 37.3891 13.682 37.6589C13.1718 37.7963 12.5954 37.9185 11.9577 38.0204C11.32 38.1222 10.616 38.1985 9.82021 38.1324C9.4223 38.0916 8.99378 38.0254 8.54486 37.7709C8.43263 37.7098 8.3204 37.6283 8.21837 37.5316C8.16735 37.4858 8.11634 37.4349 8.06022 37.3636L7.9837 37.2618L7.94289 37.2007C7.77454 36.9309 7.70823 36.6254 7.70312 36.3454C7.70823 35.7752 7.89698 35.3068 8.11124 34.8842C8.3306 34.4566 8.59587 34.0697 8.88665 33.6929C10.0447 32.2012 11.5343 30.8928 13.1616 29.5946C14.7992 28.3065 16.6051 27.0745 18.5334 25.8984C20.4618 24.7275 22.4819 23.5667 24.5837 22.4925C26.6855 21.4132 28.8842 20.4459 31.088 19.4989C33.302 18.5774 35.5109 17.661 37.6995 16.7904C39.8931 15.93 42.0561 15.0747 44.2344 14.4231C45.3261 14.1074 46.4178 13.8325 47.5299 13.7001C48.0859 13.634 48.6522 13.5932 49.2287 13.634C49.5194 13.6543 49.8102 13.69 50.1163 13.7714C50.4173 13.8529 50.7336 13.9649 51.0346 14.194C51.1825 14.3111 51.3202 14.4434 51.4529 14.6471L51.4988 14.7285L51.5243 14.7642C51.5702 14.8456 51.5498 14.81 51.56 14.8406L51.5957 14.9271C51.6365 15.0442 51.662 15.1562 51.6722 15.2682C51.7028 15.6959 51.5906 16.0064 51.4835 16.2864C51.2539 16.8312 50.958 17.2639 50.6571 17.6763C50.0551 18.4909 49.3868 19.1782 48.7389 19.8146C47.4381 21.0924 46.1321 22.1208 44.9639 23.0016C43.7803 23.8722 42.7141 24.5798 41.8163 25.1246C40.9184 25.6744 40.194 26.0715 39.6941 26.3312C39.1942 26.5857 38.9238 26.7181 38.9238 26.7181L38.8626 26.601Z" fill="#6FC2D7"/>
<path d="M35.6191 10.6506C35.6191 10.6506 35.6344 10.6964 35.6701 10.7779C35.7007 10.8644 35.7364 11.0171 35.7415 11.1953C35.7517 11.567 35.6038 12.1016 35.262 12.6819C35.0936 12.9721 34.8845 13.2878 34.6447 13.6136C34.3947 13.9343 34.1142 14.2704 33.7979 14.6216C33.1602 15.314 32.3797 16.0421 31.4563 16.7395C30.5279 17.4319 29.4515 18.0785 28.2577 18.6385C27.0589 19.2036 25.7427 19.6567 24.3552 20.0386C22.9676 20.4204 21.529 20.7513 20.0394 20.9804C19.6669 21.0415 19.2894 21.0772 18.9068 21.1026C18.5242 21.1332 18.1365 21.1484 17.7488 21.1179C17.356 21.0975 16.9581 21.0466 16.5551 20.899C16.1572 20.7513 15.7491 20.5324 15.4838 20.0233C15.4022 19.9062 15.3103 19.5651 15.3052 19.3462C15.3001 19.1069 15.3307 18.8727 15.3869 18.6589C15.4991 18.2262 15.6878 17.8494 15.897 17.4981C16.3306 16.8057 16.8612 16.2152 17.4172 15.6806C18.5395 14.6166 19.7639 13.7358 20.9933 12.9721C22.2228 12.2034 23.4777 11.5772 24.6969 11.0681C25.9264 10.5589 27.115 10.1517 28.2475 9.90728C29.38 9.64764 30.4411 9.52545 31.3849 9.47963C31.8542 9.45927 32.2981 9.45927 32.7062 9.47454C33.1143 9.4949 33.4867 9.53563 33.8183 9.59673C34.4866 9.70873 34.9916 9.93783 35.2722 10.1873C35.4099 10.3095 35.4967 10.4266 35.5477 10.508C35.5936 10.6048 35.6191 10.6455 35.6191 10.6506ZM35.4915 10.7066C35.4915 10.7066 35.4711 10.6709 35.4252 10.5946C35.3793 10.5233 35.3028 10.4215 35.1753 10.3146C35.0426 10.2077 34.859 10.1058 34.6294 10.0193C34.3947 9.93783 34.1091 9.88692 33.7877 9.85637C33.1449 9.80546 32.3491 9.89201 31.4716 10.1007C30.5891 10.3044 29.6249 10.6404 28.5842 11.0273C27.5537 11.4295 26.4314 11.8674 25.2836 12.4019C24.1256 12.9365 22.9319 13.5322 21.7279 14.2093C20.5291 14.8915 19.3252 15.6704 18.2386 16.5919C17.9631 16.821 17.7029 17.0603 17.4529 17.3098C17.203 17.5541 16.9581 17.8138 16.754 18.0887C16.5449 18.3585 16.3561 18.6436 16.2439 18.9287C16.1827 19.0713 16.1521 19.2138 16.1317 19.3513C16.1317 19.5091 16.1113 19.5447 16.1878 19.7637C16.1674 19.7128 16.1827 19.7535 16.1827 19.7484L16.1878 19.7586L16.198 19.7789L16.2184 19.8248C16.2286 19.8553 16.2541 19.8808 16.2694 19.9113C16.3 19.9724 16.3561 20.0182 16.402 20.0742C16.5143 20.171 16.6418 20.2626 16.7898 20.3339C17.0856 20.4764 17.4376 20.563 17.7947 20.6139C18.5089 20.7055 19.2537 20.6699 19.9781 20.5681C21.432 20.3746 22.8196 19.9062 24.1052 19.3513C25.3856 18.7913 26.5845 18.1498 27.7068 17.5592C28.8291 16.9585 29.88 16.3781 30.8391 15.8231C31.7981 15.2682 32.6705 14.7337 33.3949 14.1889C34.1193 13.6492 34.6906 13.0943 35.063 12.5648C35.2467 12.3001 35.3895 12.0506 35.4762 11.8164C35.5579 11.5823 35.5987 11.3735 35.5987 11.2055C35.5936 11.0324 35.5681 10.9204 35.5426 10.8339C35.5069 10.7422 35.4915 10.7015 35.4915 10.7066Z" fill="#6FC2D7"/>
<path d="M23.0585 12.6768C23.0585 12.6768 22.7116 12.9976 22.1555 13.5983C21.8749 13.8936 21.5535 14.2704 21.1862 14.7031C20.824 15.1359 20.4363 15.6399 20.0231 16.1948C19.6201 16.7599 19.2018 17.3759 18.7937 18.048C18.3805 18.7149 17.9928 19.448 17.6153 20.2117C17.2326 20.9753 16.9215 21.8001 16.6103 22.63C16.3195 23.47 16.0593 24.3406 15.8808 25.2264L15.7328 25.8883L15.6257 26.5552C15.539 26.9981 15.5084 27.4461 15.4625 27.8891C15.4369 28.108 15.4216 28.332 15.4165 28.5509C15.4012 28.7698 15.391 28.9887 15.3757 29.2077C15.3502 29.6455 15.3706 30.0782 15.3655 30.5059C15.3961 31.3561 15.4369 32.186 15.5339 32.9649C15.5594 33.1584 15.5696 33.3569 15.6002 33.5453C15.6308 33.7336 15.6614 33.922 15.692 34.1053C15.7532 34.4719 15.7838 34.8333 15.8655 35.1693C16.0134 35.8414 16.1205 36.4778 16.2736 37.0174C16.4215 37.5622 16.5184 38.0509 16.6511 38.4378C16.8857 39.2219 17.0031 39.6801 17.0031 39.6801C17.0031 39.6801 16.7735 39.2728 16.3909 38.5346C16.192 38.1731 15.993 37.7098 15.7685 37.1803C15.5288 36.6559 15.3196 36.0348 15.0901 35.3577C14.9676 35.0217 14.886 34.6602 14.7789 34.2886C14.6717 33.9169 14.5799 33.53 14.5085 33.1227C14.335 32.3183 14.2126 31.4579 14.1412 30.5568C14.0851 29.6608 14.0494 28.724 14.1259 27.772C14.1667 27.2985 14.1973 26.8199 14.2789 26.3465L14.3861 25.6286L14.5289 24.9159C14.733 23.9689 15.0288 23.0474 15.3553 22.1565C15.5339 21.7136 15.6971 21.2757 15.9114 20.8583C16.0134 20.6495 16.1154 20.4408 16.2124 20.2371C16.3195 20.0335 16.4266 19.8349 16.5338 19.6364C16.7429 19.2393 16.9827 18.8625 17.2122 18.496C17.4571 18.1396 17.6867 17.7832 17.9417 17.4574C18.4213 16.7854 18.9365 16.205 19.4161 15.6755C20.3904 14.6267 21.3087 13.8682 21.977 13.3794C22.6401 12.8958 23.0585 12.6768 23.0585 12.6768Z" fill="#6FC2D7"/>
<path d="M22.9414 12.6514C22.9414 12.6514 23.3699 12.4529 24.1657 12.2136C24.9565 11.9743 26.1196 11.6943 27.5429 11.5466C28.2571 11.4754 29.0325 11.4143 29.8589 11.4346C30.2721 11.4295 30.6956 11.4601 31.1292 11.4805C31.5628 11.5161 32.0015 11.5517 32.4504 11.623C32.6749 11.6586 32.8994 11.6892 33.1289 11.7248C33.3534 11.7656 33.583 11.8114 33.8125 11.8572C34.2716 11.9387 34.7257 12.071 35.1848 12.1881C36.0929 12.463 37.0111 12.7787 37.8937 13.1809L38.5517 13.4914L39.1894 13.8376C39.6179 14.0566 40.0209 14.3213 40.424 14.5708C41.23 15.0748 41.9595 15.6653 42.6482 16.2508C43.3267 16.8465 43.9439 17.4625 44.4847 18.0785C44.7653 18.3789 45.0203 18.6844 45.255 18.9949C45.4846 19.3055 45.7294 19.5855 45.9284 19.8859C46.3314 20.4713 46.7089 21.011 46.9844 21.5201C47.2752 22.019 47.5302 22.4518 47.6986 22.8285C48.0608 23.5718 48.2495 23.9995 48.2495 23.9995C48.2495 23.9995 47.9536 23.6278 47.4639 22.9711C47.2292 22.6351 46.8977 22.2634 46.5457 21.8205C46.1988 21.3725 45.76 20.9092 45.306 20.3848C45.0866 20.1201 44.8163 19.8757 44.5561 19.6059C44.4286 19.4735 44.2959 19.336 44.1633 19.1986C44.0307 19.0611 43.8827 18.9338 43.7399 18.7964C43.1736 18.2516 42.5308 17.7221 41.8677 17.1876C41.5208 16.9381 41.1892 16.6632 40.8219 16.4188C40.6382 16.2966 40.4546 16.1795 40.2709 16.0574C40.0924 15.9301 39.9036 15.8079 39.7098 15.6959C39.3272 15.4668 38.9496 15.2275 38.5415 15.029L37.9396 14.7184L37.3223 14.4384C36.5061 14.0464 35.6541 13.7358 34.8022 13.4609C33.9452 13.2114 33.0983 12.962 32.2566 12.8143C31.4149 12.6565 30.5986 12.5292 29.813 12.4579C29.0274 12.3816 28.2826 12.351 27.5888 12.3307C26.895 12.3256 26.2624 12.3358 25.6962 12.3612C25.1299 12.3969 24.6351 12.4274 24.2321 12.4732C23.4056 12.5649 22.9414 12.6514 22.9414 12.6514Z" fill="#6FC2D7"/>
<path d="M23.5149 26.4992C23.5149 26.4992 23.3516 26.3312 23.0965 26.0155C22.969 25.8577 22.8109 25.6744 22.6425 25.4504C22.4997 25.2061 22.3313 24.9261 22.163 24.6104C21.9742 24.2948 21.8518 23.9333 21.709 23.5515C21.6426 23.358 21.561 23.1645 21.5049 22.9558C21.4539 22.7471 21.408 22.5332 21.357 22.3194C21.2447 21.8867 21.1988 21.4285 21.158 20.9652C21.0917 20.5019 21.1274 20.0284 21.1223 19.5549C21.1376 19.0815 21.1988 18.6131 21.2498 18.1549C21.2906 17.9258 21.3314 17.7018 21.3774 17.4778C21.4182 17.2538 21.4641 17.0348 21.5253 16.8261C21.6375 16.4035 21.7549 15.9963 21.8977 15.6195C22.0252 15.2428 22.1834 14.8966 22.3262 14.5758C22.6272 13.9445 22.918 13.4456 23.1476 13.1096C23.372 12.7736 23.5302 12.5954 23.5302 12.5954C23.5302 12.5954 23.4842 12.8194 23.4026 13.2165C23.3618 13.41 23.3159 13.6493 23.2598 13.9191C23.2088 14.1889 23.1527 14.4893 23.0914 14.8253C23.0353 15.1562 22.9639 15.5075 22.9078 15.8893C22.8415 16.261 22.7905 16.6581 22.7343 17.0654C22.668 17.4727 22.6476 17.8952 22.5864 18.3178C22.566 18.7455 22.515 19.1782 22.5099 19.6058C22.5099 20.0386 22.4691 20.4713 22.5048 20.8939C22.515 21.1026 22.5201 21.3165 22.5252 21.5252C22.5252 21.7339 22.566 21.9325 22.5813 22.1361C22.6017 22.3398 22.6221 22.5332 22.6323 22.7318C22.6527 22.9252 22.6986 23.1085 22.7241 23.2969C22.7854 23.6635 22.8262 24.0249 22.918 24.3253C22.9945 24.6359 23.0608 24.9362 23.1169 25.2061C23.2139 25.4657 23.2853 25.6999 23.3465 25.8934C23.4587 26.2701 23.5149 26.4992 23.5149 26.4992Z" fill="#6FC2D7"/>
<path d="M35.1432 20.2779C35.1432 20.2779 34.985 20.1099 34.7249 19.7942C34.5973 19.6364 34.4392 19.448 34.2708 19.2291C34.077 19.0305 33.8627 18.8167 33.6434 18.5825C33.4393 18.3382 33.1587 18.1091 32.8833 17.8545C32.7404 17.7323 32.6129 17.5898 32.4598 17.4676C32.3017 17.3505 32.1486 17.2232 31.9905 17.0959C31.8273 16.9737 31.6844 16.8312 31.5059 16.7192C31.3324 16.6021 31.159 16.485 30.9855 16.3577C30.6488 16.1032 30.2662 15.8944 29.904 15.6602C29.5367 15.4311 29.149 15.2377 28.7766 15.0188C28.3889 14.8406 28.0216 14.6216 27.6441 14.4536C27.2717 14.2754 26.9146 14.1024 26.5626 13.9547C26.2157 13.7918 25.879 13.6594 25.5729 13.5271C25.2617 13.3998 24.9761 13.2776 24.721 13.1758C24.4659 13.0739 24.2364 12.9823 24.0527 12.911C23.6752 12.7634 23.4609 12.6768 23.4609 12.6768C23.4609 12.6768 23.6956 12.6412 24.0986 12.6412C24.5067 12.631 25.0883 12.6616 25.7821 12.7583C26.129 12.8143 26.5014 12.8703 26.8891 12.9721C27.2819 13.0587 27.6849 13.1809 28.1032 13.3183C28.3124 13.3794 28.5215 13.4609 28.7307 13.5525C28.9399 13.634 29.1541 13.7256 29.3633 13.8173C29.7765 14.0209 30.205 14.2296 30.608 14.474C31.0008 14.7387 31.414 14.9678 31.7711 15.2784C32.1384 15.5686 32.4955 15.8537 32.7965 16.1897C32.9496 16.3475 33.1077 16.5054 33.2506 16.6632C33.3934 16.821 33.5158 16.9941 33.6383 17.157C33.8831 17.4879 34.1178 17.7832 34.2759 18.1141C34.4494 18.4298 34.5922 18.7251 34.7198 18.9796C34.8167 19.2393 34.8881 19.4735 34.9493 19.6669C35.0871 20.0488 35.1432 20.2779 35.1432 20.2779Z" fill="#6FC2D7"/>
<path d="M24.4569 46.8993C24.4569 46.8993 24.9161 47.1895 25.7068 47.7087C26.1047 47.9582 26.5638 48.2179 27.0995 48.5386C27.3596 48.7015 27.6759 48.8441 27.9769 49.0222C28.2881 49.1903 28.6044 49.3837 28.9564 49.5466C29.3033 49.7146 29.6655 49.8928 30.0379 50.0863C30.4154 50.2594 30.8082 50.4376 31.2112 50.6209C31.6091 50.8143 32.0376 50.9721 32.4611 51.1503C32.6753 51.2369 32.8896 51.3336 33.114 51.4151C33.3385 51.4965 33.563 51.578 33.7874 51.6594C34.0119 51.746 34.2414 51.8274 34.471 51.914C34.7006 51.9955 34.9352 52.0667 35.175 52.1431C35.6494 52.2907 36.1188 52.4587 36.6085 52.586C37.0931 52.7184 37.5778 52.8762 38.0828 52.9831C38.5828 53.1002 39.0725 53.2479 39.5775 53.3344L40.3325 53.4821C40.5825 53.5381 40.8376 53.589 41.0875 53.6246C41.5926 53.701 42.0976 53.8028 42.6027 53.8588C43.1077 53.9199 43.6025 53.9963 44.1025 54.0421C44.5973 54.0777 45.0922 54.1337 45.5768 54.1744C46.0614 54.1897 46.541 54.2152 47.0103 54.2457C47.4796 54.2661 47.9387 54.2508 48.3928 54.2661C48.505 54.2661 48.6172 54.2712 48.7295 54.2712H48.8111H48.8213C48.8519 54.2661 48.7907 54.2763 48.8009 54.2763H48.8213H48.8621L49.0305 54.2712C49.2549 54.2661 49.4794 54.2559 49.6987 54.2508C50.1324 54.2355 50.5762 54.2457 50.9588 54.2101C51.3516 54.1846 51.7291 54.1643 52.0862 54.1439C52.4484 54.1337 52.7902 54.0981 53.1167 54.0624C53.4432 54.0319 53.7493 54.0013 54.0349 53.9759C54.3206 53.9555 54.5808 53.925 54.8155 53.8893C55.2899 53.8333 55.6623 53.7926 55.9174 53.7621C56.1775 53.7366 56.3153 53.7264 56.3153 53.7264C56.3153 53.7264 56.1928 53.7926 55.9684 53.9199C55.7388 54.0421 55.4021 54.2203 54.9787 54.4443C54.5502 54.6785 54.0043 54.8872 53.382 55.1519C52.7647 55.4269 52.0199 55.6407 51.2139 55.9054C50.8057 56.0378 50.4027 56.1192 49.9742 56.2363C49.76 56.2872 49.5457 56.3382 49.3212 56.3942L49.1529 56.4349L49.1121 56.4451L49.0917 56.4502L49.0407 56.4553L48.9539 56.4705C48.8366 56.4909 48.7193 56.5113 48.6019 56.5316C48.1275 56.6131 47.6378 56.7047 47.1327 56.7658C46.6277 56.8218 46.1124 56.8778 45.587 56.9236C45.0616 56.9491 44.5208 56.9796 43.9749 56.9949C43.4291 57.0051 42.8781 56.9796 42.3221 56.9695C41.21 56.9084 40.0775 56.8167 38.9603 56.6233C37.843 56.4451 36.7309 56.2058 35.6545 55.9003C35.1138 55.768 34.5883 55.5898 34.068 55.4116C33.8078 55.325 33.5528 55.2385 33.2977 55.1468C33.0477 55.0501 32.7977 54.9483 32.5478 54.8516C32.0529 54.6632 31.5734 54.4545 31.1092 54.2304C30.6501 54.0064 30.1858 53.8181 29.7624 53.5737C29.339 53.3395 28.9207 53.1104 28.5228 52.8915C28.13 52.6573 27.7575 52.4231 27.4005 52.194C27.0382 51.9751 26.7118 51.7307 26.3955 51.5118C26.0792 51.2878 25.7833 51.0841 25.5078 50.8652C24.9671 50.4274 24.4722 50.0507 24.1202 49.7299C23.4213 49.0884 23.0234 48.7219 23.0234 48.7219L24.4569 46.8993Z" fill="#008295"/>
<path d="M22.9757 54.0573L25.0724 48.9051L30.2503 46.8331L18.0273 41.8387L22.9757 54.0573Z" fill="#008295"/>
<path d="M64.5135 17.9054C64.5135 17.9054 64.2584 17.5694 63.7788 16.9381C63.6564 16.7803 63.5289 16.597 63.3758 16.4137C63.2228 16.2304 63.0595 16.037 62.8759 15.8232C62.6922 15.6093 62.5086 15.3802 62.2943 15.1409C62.075 14.9068 61.8403 14.6522 61.5954 14.3875C60.6007 13.3387 59.3508 12.1066 57.7745 10.8746C56.2134 9.62728 54.3463 8.3596 52.1884 7.2141C50.0305 6.07878 47.5819 5.05038 44.8883 4.36308C44.5516 4.27653 44.2149 4.18998 43.8731 4.10343C43.5313 4.01688 43.1844 3.96088 42.8324 3.88451L42.307 3.7776L42.0927 3.73687L41.8121 3.69614C41.4397 3.64523 41.0622 3.58923 40.6847 3.53832L40.1236 3.46195C39.9297 3.43141 39.741 3.41104 39.5675 3.40086C39.2104 3.3754 38.8533 3.34995 38.4911 3.32449C38.1289 3.30413 37.7769 3.25322 37.3994 3.25831C37.027 3.25831 36.6495 3.25831 36.272 3.25322C33.2571 3.2634 30.1401 3.66051 27.0946 4.51072C24.0388 5.33548 21.0698 6.6388 18.3354 8.30868C15.6011 9.98875 13.0963 12.0354 10.9792 14.3773L10.5762 14.81L10.4742 14.9169L10.4231 14.9729L10.3976 14.9984C10.3568 15.0442 10.4231 14.9628 10.4078 14.9831L10.214 15.2275C9.95381 15.5482 9.69364 15.869 9.43857 16.1897L9.05086 16.6683C8.91822 16.8261 8.8264 16.9839 8.71417 17.1367C8.49481 17.4472 8.28055 17.7578 8.06119 18.0683L7.7347 18.5316L7.43371 19.0255C7.22966 19.3564 7.0307 19.6822 6.82664 20.008C6.61749 20.3288 6.44914 20.675 6.27059 21.011C6.09204 21.347 5.91349 21.683 5.74004 22.019C4.38307 24.7224 3.4342 27.5276 2.84754 30.2615C2.6945 30.9437 2.60267 31.6259 2.47514 32.298C2.40372 32.634 2.37821 32.97 2.3374 33.3009C2.29659 33.6318 2.26088 33.9628 2.22517 34.2937C2.20476 34.4566 2.18946 34.6195 2.16905 34.7824C2.15885 34.9453 2.14865 35.1083 2.14354 35.2712C2.12824 35.597 2.11294 35.9177 2.09763 36.2385C2.07213 36.5592 2.03642 36.8749 2.04152 37.1905C2.04662 37.5062 2.04662 37.8167 2.05172 38.1222C2.05682 38.4277 2.05682 38.7331 2.06192 39.0335C2.06192 39.3339 2.10273 39.6292 2.11804 39.9244C2.16905 40.5099 2.18436 41.0903 2.25067 41.6503C2.3272 42.2104 2.39862 42.7551 2.47004 43.2846C2.50064 43.5493 2.54656 43.809 2.60267 44.0635C2.65369 44.3181 2.7047 44.5675 2.75572 44.817C3.15873 46.7974 3.66377 48.4877 4.16371 49.8776C4.66364 51.242 5.11767 52.3162 5.45947 53.0239C5.79616 53.7417 5.97981 54.1235 5.97981 54.1235C5.97981 54.1235 5.74514 53.7722 5.30132 53.1155C5.07176 52.7897 4.82689 52.362 4.53101 51.8682C4.22492 51.3794 3.91884 50.7889 3.57194 50.1219C3.38829 49.791 3.24035 49.4346 3.0669 49.0681C2.98018 48.8848 2.89345 48.6913 2.80163 48.4979L2.73531 48.3502L2.66899 48.1873C2.62818 48.0855 2.58737 47.9786 2.54656 47.8768C2.37821 47.4593 2.20986 47.0214 2.02621 46.5683C1.83746 46.1152 1.70992 45.6265 1.55178 45.1276C0.914104 43.1369 0.39376 40.8052 0.164196 38.2189C-0.0806721 35.6326 -0.0500636 32.7867 0.398861 29.8186C0.842684 26.8505 1.70992 23.7704 3.0567 20.7615C3.23525 20.3899 3.4138 20.0182 3.59235 19.6415C3.7709 19.2647 3.94434 18.888 4.1586 18.5265C4.36266 18.16 4.57182 17.7934 4.77588 17.4269L5.08706 16.8719C5.19929 16.6886 5.32173 16.5105 5.44416 16.3272C5.68393 15.9657 5.92369 15.5991 6.16856 15.2377C6.291 15.0595 6.40833 14.8609 6.53586 14.7031L6.90827 14.2144C7.15824 13.8885 7.40821 13.5576 7.65817 13.2318L7.84693 12.9823L7.90814 12.906L7.93365 12.8754L7.98467 12.8143L8.09179 12.6921L8.52031 12.2034C10.8057 9.57637 13.5248 7.24973 16.5397 5.39148C19.5445 3.51795 22.8349 2.10263 26.2018 1.21168C29.5688 0.325832 33.0122 -0.0763649 36.323 0.020366C39.6951 0.112006 42.8018 0.666936 45.7096 1.56297C48.6021 2.45901 51.1937 3.69614 53.4281 5.06565C55.6727 6.42498 57.55 7.93194 59.0957 9.36763C59.4733 9.73928 59.8559 10.0753 60.1926 10.4368C60.5292 10.7931 60.8557 11.1393 61.172 11.4703C61.4781 11.8114 61.7536 12.1474 62.024 12.4681C62.1566 12.631 62.2892 12.7838 62.4168 12.9365C62.5392 13.0943 62.6565 13.2471 62.7688 13.3998C62.9983 13.7002 63.2126 13.9853 63.4166 14.25C63.6156 14.5249 63.7891 14.7897 63.9574 15.0289C64.2941 15.5177 64.5747 15.9301 64.7736 16.2661C65.1868 16.9432 65.4062 17.2996 65.4062 17.2996L64.5135 17.9054Z" fill="#008295"/>
<path d="M67.6156 11.8928L64.0344 16.1541L58.4688 16.541L68.5696 25.0381L67.6156 11.8928Z" fill="#008295"/>
<path d="M31.0135 37.1447C30.3656 37.3891 29.0953 37.72 27.7332 37.72C26.009 37.72 24.7081 37.2822 23.7439 36.3607C22.8359 35.5003 22.3053 34.1562 22.3206 32.6187C22.3206 29.4062 24.6163 27.3392 27.9883 27.3392C29.2433 27.3392 30.2278 27.5938 30.6921 27.8229L30.2839 29.3146C29.7228 29.0753 29.0443 28.8767 27.973 28.8767C25.7947 28.8767 24.2694 30.1597 24.2694 32.5271C24.2694 34.8333 25.6927 36.2079 27.8047 36.2079C28.4678 36.2079 28.9678 36.1163 29.2126 35.9941V33.4587H27.4118V31.9976H31.0083V37.1447H31.0135Z" fill="black"/>
<path d="M34.755 26.9014H32.8828V37.6131H34.755V26.9014Z" fill="black"/>
<path d="M43.7693 33.866C43.7693 36.5643 41.8664 37.7709 39.9891 37.7709C37.9026 37.7709 36.3008 36.3403 36.3008 33.9831C36.3008 31.57 37.8873 30.0884 40.1115 30.0884C42.3 30.0986 43.7693 31.6361 43.7693 33.866ZM38.2189 33.9424C38.2189 35.3628 38.9127 36.432 40.0452 36.432C41.1012 36.432 41.846 35.3883 41.846 33.9119C41.846 32.7664 41.3308 31.4529 40.0656 31.4529C38.7495 31.4529 38.2189 32.7205 38.2189 33.9424Z" fill="black"/>
<path d="M45.2344 37.608C45.265 37.1091 45.2956 36.2945 45.2956 35.541V26.8963H47.1576V31.2696H47.1882C47.6422 30.5619 48.4432 30.0935 49.5451 30.0935C51.3459 30.0935 52.6263 31.5852 52.6161 33.8202C52.6161 36.4625 50.9378 37.7709 49.2747 37.7709C48.3207 37.7709 47.4739 37.4094 46.9485 36.5032H46.9178L46.826 37.6029H45.2344V37.608ZM47.1576 34.5788C47.1576 34.7315 47.1729 34.8792 47.2035 35.0166C47.3974 35.7548 48.0504 36.3148 48.8513 36.3148C50.0144 36.3148 50.7235 35.3781 50.7235 33.9017C50.7235 32.6034 50.1062 31.5496 48.8666 31.5496C48.1116 31.5496 47.428 32.0943 47.2188 32.9089C47.1882 33.0464 47.1576 33.2093 47.1576 33.3925V34.5788Z" fill="black"/>
<path d="M58.2865 37.608L58.1641 36.7934H58.1182C57.6641 37.3636 56.8938 37.776 55.9398 37.776C54.4604 37.776 53.6289 36.7069 53.6289 35.5868C53.6289 33.7337 55.2767 32.7969 57.9957 32.8122V32.69C57.9957 32.2063 57.8019 31.407 56.501 31.407C55.7766 31.407 55.0216 31.631 54.5217 31.9518L54.1595 30.7452C54.7053 30.4143 55.6542 30.0986 56.8173 30.0986C59.1741 30.0986 59.8577 31.5903 59.8577 33.1889V35.8414C59.8577 36.5032 59.8883 37.1549 59.9649 37.608H58.2865ZM58.0416 34.0188C56.7255 33.9882 55.4705 34.2733 55.4705 35.3933C55.4705 36.1163 55.9398 36.4472 56.5265 36.4472C57.2662 36.4472 57.8121 35.9636 57.9804 35.4341C58.0263 35.2966 58.0416 35.149 58.0416 35.0268V34.0188Z" fill="black"/>
<path d="M63.6964 26.9014H61.8242V37.6131H63.6964V26.9014Z" fill="black"/>
<path d="M68.9113 27.5785C69.6051 27.4563 70.6509 27.3647 71.7222 27.3647C73.1863 27.3647 74.1862 27.604 74.8647 28.1793C75.4258 28.6476 75.7421 29.3553 75.7421 30.2157C75.7421 31.5292 74.8494 32.4202 73.8954 32.7663V32.8122C74.6198 33.082 75.0585 33.7948 75.3187 34.7722C75.635 36.0399 75.9054 37.216 76.1196 37.608H74.2015C74.0485 37.3076 73.8087 36.4778 73.523 35.2101C73.2373 33.8813 72.7527 33.4587 71.6916 33.4282H70.753V37.608H68.9062V27.5785H68.9113ZM70.7581 32.074H71.86C73.1149 32.074 73.9005 31.4121 73.9005 30.399C73.9005 29.284 73.1149 28.7698 71.9059 28.7698C71.3192 28.7698 70.9366 28.8156 70.7581 28.8615V32.074Z" fill="black"/>
<path d="M78.7984 34.4566C78.8443 35.7854 79.885 36.3556 81.0634 36.3556C81.9256 36.3556 82.5428 36.2334 83.104 36.0246L83.3744 37.3076C82.7418 37.5622 81.8644 37.7607 80.8033 37.7607C78.4158 37.7607 77.0078 36.2996 77.0078 34.0493C77.0078 32.0129 78.2475 30.0986 80.6043 30.0986C82.9918 30.0986 83.7774 32.0587 83.7774 33.6726C83.7774 34.0188 83.7468 34.2886 83.7162 34.4566H78.7984ZM82.0378 33.1584C82.0531 32.4812 81.7521 31.3612 80.5125 31.3612C79.3647 31.3612 78.88 32.3998 78.8035 33.1584H82.0378Z" fill="black"/>
<path d="M90.6983 37.384C90.3055 37.5672 89.5352 37.7607 88.6119 37.7607C86.3162 37.7607 84.8164 36.2996 84.8164 34.0187C84.8164 31.8143 86.3264 30.0935 88.9128 30.0935C89.5913 30.0935 90.2902 30.2462 90.7137 30.4397L90.3821 31.8296C90.0811 31.6921 89.6424 31.5445 88.9741 31.5445C87.5508 31.5445 86.7039 32.5831 86.7192 33.9271C86.7192 35.4341 87.7038 36.2945 88.9741 36.2945C89.6219 36.2945 90.076 36.157 90.4382 36.0094L90.6983 37.384Z" fill="black"/>
<path d="M93.4793 30.2615L94.8107 34.197C94.9638 34.6501 95.1117 35.2101 95.2188 35.6326H95.2648C95.3872 35.2101 95.5198 34.6653 95.6576 34.1817L96.8054 30.2615H98.8L96.9533 35.2712C95.9381 38.0153 95.2596 39.2372 94.3822 39.9906C93.6578 40.6372 92.9028 40.8816 92.4335 40.9427L92.0101 39.3746C92.3263 39.2982 92.7192 39.1353 93.0967 38.8604C93.4436 38.6364 93.8517 38.1986 94.1067 37.6996C94.1833 37.5622 94.2292 37.4553 94.2292 37.3687C94.2292 37.2924 94.2139 37.1905 94.122 37.0073L91.4336 30.2615H93.4793Z" fill="black"/>
<path d="M105.089 37.384C104.696 37.5672 103.926 37.7607 103.002 37.7607C100.707 37.7607 99.207 36.2996 99.207 34.0187C99.207 31.8143 100.717 30.0935 103.303 30.0935C103.982 30.0935 104.681 30.2462 105.104 30.4397L104.773 31.8296C104.472 31.6921 104.033 31.5445 103.365 31.5445C101.941 31.5445 101.095 32.5831 101.11 33.9271C101.11 35.4341 102.094 36.2945 103.365 36.2945C104.013 36.2945 104.467 36.157 104.829 36.0094L105.089 37.384Z" fill="black"/>
<path d="M108.341 26.9014H106.469V37.6131H108.341V26.9014Z" fill="black"/>
<path d="M111.666 34.4566C111.712 35.7854 112.752 36.3556 113.931 36.3556C114.793 36.3556 115.41 36.2334 115.971 36.0246L116.242 37.3076C115.609 37.5622 114.732 37.7607 113.67 37.7607C111.283 37.7607 109.875 36.2996 109.875 34.0493C109.875 32.0129 111.115 30.0986 113.471 30.0986C115.859 30.0986 116.645 32.0587 116.645 33.6726C116.645 34.0188 116.614 34.2886 116.583 34.4566H111.666ZM114.9 33.1584C114.915 32.4812 114.614 31.3612 113.375 31.3612C112.227 31.3612 111.742 32.3998 111.666 33.1584H114.9Z" fill="black"/>
<path d="M124.942 26.9014V35.5461C124.942 36.2996 124.972 37.1141 125.003 37.6131H123.34L123.263 36.4523H123.233C122.794 37.2669 121.901 37.7811 120.83 37.7811C119.075 37.7811 117.688 36.2894 117.688 34.0239C117.672 31.5648 119.213 30.1037 120.983 30.1037C121.998 30.1037 122.723 30.5263 123.054 31.071H123.085V26.9065H124.942V26.9014ZM123.085 33.3264C123.085 33.1736 123.07 32.9954 123.039 32.8427C122.871 32.1198 122.284 31.5292 121.437 31.5292C120.243 31.5292 119.58 32.5831 119.58 33.9577C119.58 35.3017 120.243 36.2792 121.422 36.2792C122.177 36.2792 122.845 35.765 123.024 34.9657C123.07 34.7977 123.085 34.6195 123.085 34.421V33.3264Z" fill="black"/>
<path d="M52.3612 47.9735C52.9683 48.3197 53.8713 48.6251 54.8252 48.6251C56.019 48.6251 56.6821 48.0651 56.6821 47.2353C56.6821 46.4665 56.1669 46.0134 54.8711 45.545C53.1928 44.9443 52.1215 44.0533 52.1215 42.5871C52.1215 40.9274 53.5142 39.6597 55.718 39.6597C56.8199 39.6597 57.6361 39.9041 58.1667 40.1739L57.7126 41.6656C57.3504 41.467 56.6413 41.1819 55.6874 41.1819C54.5089 41.1819 53.9937 41.8132 53.9937 42.4038C53.9937 43.1878 54.5855 43.5493 55.9424 44.0788C57.7126 44.7406 58.5748 45.6316 58.5748 47.0978C58.5748 48.727 57.3351 50.1474 54.7028 50.1474C53.6315 50.1474 52.5092 49.847 51.9531 49.5161L52.3612 47.9735Z" fill="black"/>
<path d="M62.2471 40.5507V42.6482H64.0173V44.0381H62.2471V47.2811C62.2471 48.172 62.4869 48.6404 63.2011 48.6404C63.5174 48.6404 63.7622 48.5946 63.9255 48.5488L63.9561 49.9692C63.6857 50.0761 63.2011 50.1474 62.6093 50.1474C61.9308 50.1474 61.3544 49.9234 61.0075 49.5415C60.6146 49.119 60.431 48.4571 60.431 47.4898V44.0381H59.375V42.6482H60.431V40.9885L62.2471 40.5507Z" fill="black"/>
<path d="M69.5638 49.9946L69.4414 49.1801H69.3955C68.9415 49.7554 68.1711 50.1626 67.2172 50.1626C65.7378 50.1626 64.9062 49.0884 64.9062 47.9735C64.9062 46.1203 66.554 45.1835 69.2731 45.1988V45.0766C69.2731 44.593 69.0741 43.7937 67.7783 43.7937C67.0539 43.7937 66.2989 44.0177 65.799 44.3384L65.4368 43.1318C65.9826 42.8009 66.9315 42.4853 68.0997 42.4853C70.4566 42.4853 71.1402 43.977 71.1402 45.5756V48.2331C71.1402 48.895 71.1708 49.5466 71.2473 49.9997H69.5638V49.9946ZM69.3241 46.4054C68.0079 46.3749 66.753 46.66 66.753 47.78C66.753 48.5029 67.2223 48.8339 67.8089 48.8339C68.5487 48.8339 69.0945 48.3502 69.2629 47.8258C69.3088 47.6884 69.3241 47.5407 69.3241 47.4185V46.4054Z" fill="black"/>
<path d="M73.1042 44.8373C73.1042 43.9922 73.0889 43.2846 73.043 42.6482H74.6754L74.7672 43.7478H74.8132C75.1294 43.1726 75.9304 42.4802 77.1547 42.4802C78.4403 42.4802 79.7717 43.31 79.7717 45.6316V49.9895H77.9097V45.8403C77.9097 44.7864 77.5169 43.9871 76.5017 43.9871C75.762 43.9871 75.2468 44.5166 75.0529 45.0715C74.9917 45.2344 74.9764 45.4635 74.9764 45.6723V49.9844H73.1042V44.8373Z" fill="black"/>
<path d="M88.5356 39.283V47.9276C88.5356 48.6811 88.5662 49.4957 88.5968 49.9946H86.9337L86.8572 48.8339H86.8266C86.3879 49.6484 85.4951 50.1626 84.4238 50.1626C82.669 50.1626 81.2814 48.671 81.2814 46.4054C81.2661 43.9464 82.8067 42.4853 84.5769 42.4853C85.5921 42.4853 86.3165 42.9078 86.6481 43.4475H86.6787V39.283H88.5356ZM86.6787 45.7079C86.6787 45.5552 86.6634 45.377 86.6328 45.2243C86.4644 44.5013 85.8777 43.9108 85.0309 43.9108C83.8372 43.9108 83.174 44.9646 83.174 46.3392C83.174 47.6833 83.8372 48.6608 85.0156 48.6608C85.7706 48.6608 86.4389 48.1466 86.6174 47.3473C86.6634 47.1843 86.6787 47.0011 86.6787 46.8025V45.7079Z" fill="black"/>
<path d="M94.6771 49.9946L94.5547 49.1801H94.5088C94.0548 49.7554 93.2845 50.1626 92.3305 50.1626C90.8511 50.1626 90.0195 49.0884 90.0195 47.9735C90.0195 46.1203 91.6673 45.1835 94.3864 45.1988V45.0766C94.3864 44.593 94.1874 43.7937 92.8916 43.7937C92.1672 43.7937 91.4122 44.0177 90.9123 44.3384L90.5501 43.1318C91.0959 42.8009 92.0448 42.4853 93.213 42.4853C95.5699 42.4853 96.2535 43.977 96.2535 45.5756V48.2331C96.2535 48.895 96.2841 49.5466 96.3606 49.9997H94.6771V49.9946ZM94.4323 46.4054C93.1161 46.3749 91.8612 46.66 91.8612 47.78C91.8612 48.5029 92.3305 48.8339 92.9171 48.8339C93.6569 48.8339 94.2027 48.3502 94.3711 47.8258C94.417 47.6884 94.4323 47.5407 94.4323 47.4185V46.4054Z" fill="black"/>
<path d="M98.2136 45.0155C98.2136 44.0177 98.1983 43.31 98.1523 42.6482H99.7695L99.8307 44.0482H99.8919C100.254 43.0096 101.116 42.4802 101.902 42.4802C102.086 42.4802 102.188 42.4954 102.341 42.526V44.2773C102.188 44.2468 102.024 44.2162 101.795 44.2162C100.902 44.2162 100.3 44.7864 100.132 45.6163C100.101 45.7843 100.07 45.9778 100.07 46.1916V49.9946H98.2136V45.0155Z" fill="black"/>
<path d="M110.247 39.283V47.9276C110.247 48.6811 110.277 49.4957 110.308 49.9946H108.645L108.568 48.8339H108.538C108.099 49.6484 107.206 50.1626 106.135 50.1626C104.38 50.1626 102.992 48.671 102.992 46.4054C102.977 43.9464 104.518 42.4853 106.288 42.4853C107.303 42.4853 108.027 42.9078 108.359 43.4475H108.39V39.283H110.247ZM108.39 45.7079C108.39 45.5552 108.374 45.377 108.344 45.2243C108.18 44.5013 107.589 43.9108 106.742 43.9108C105.548 43.9108 104.885 44.9646 104.885 46.3392C104.885 47.6833 105.548 48.6608 106.727 48.6608C107.482 48.6608 108.15 48.1466 108.328 47.3473C108.374 47.1843 108.39 47.0011 108.39 46.8025V45.7079Z" fill="black"/>
</svg>
