<svg width="120" height="47" viewBox="0 0 120 47" fill="none" xmlns="http://www.w3.org/2000/svg">
<path d="M120.406 0H0V46.759H120.406V0Z" fill="#FFF042"/>
<path d="M26.8041 25.6512C26.9095 25.6512 27.0246 25.6991 27.0917 25.8046L31.2135 31.6614C31.3285 31.8244 31.2902 32.0353 31.1272 32.1503C30.9643 32.2653 30.7534 32.227 30.6384 32.064L26.5165 26.2072C26.4111 26.0538 26.4494 25.8333 26.6028 25.7183C26.6699 25.6704 26.737 25.6512 26.8041 25.6512Z" fill="black"/>
<path d="M14.8383 10.5347C14.9437 10.5347 15.0587 10.5826 15.1258 10.6881L22.4972 21.1748C22.5835 21.2994 22.5835 21.4528 22.4972 21.5774L15.1258 32.0642C15.0204 32.2175 14.7999 32.2655 14.637 32.1504C14.4836 32.0354 14.4452 31.8245 14.5507 31.6616L21.7879 21.3761L14.5507 11.0907C14.4357 10.9373 14.474 10.7168 14.637 10.6018C14.7041 10.5539 14.7712 10.5347 14.8383 10.5347Z" fill="black"/>
<path d="M30.9286 10.5347C30.9957 10.5347 31.0628 10.5539 31.1299 10.6018C31.2833 10.7168 31.3216 10.9277 31.2162 11.0907L27.0943 16.9475C26.9793 17.1009 26.7684 17.1488 26.6054 17.0338C26.4425 16.9188 26.4137 16.7079 26.5192 16.5449L30.641 10.6881C30.7177 10.5922 30.8231 10.5347 30.9286 10.5347Z" fill="black"/>
<path d="M25.8614 27.0031C25.9669 27.0031 26.0819 27.051 26.149 27.1565L29.3219 31.6617C29.4273 31.8247 29.3985 32.0356 29.2356 32.1506C29.0726 32.2656 28.8617 32.2177 28.7467 32.0643L25.5739 27.5591C25.4684 27.4057 25.4972 27.1852 25.6601 27.0702C25.7272 27.0223 25.7943 27.0031 25.8614 27.0031Z" fill="black"/>
<path d="M12.9398 10.5347C13.0453 10.5347 13.1603 10.5826 13.2274 10.6881L20.6084 21.1748C20.6946 21.2994 20.6946 21.4528 20.6084 21.5774L13.2274 32.0642C13.1219 32.2175 12.9015 32.2655 12.7385 32.1504C12.5851 32.0354 12.5468 31.8245 12.6522 31.6616L19.8894 21.3761L12.6522 11.0907C12.5372 10.9373 12.5756 10.7168 12.7385 10.6018C12.796 10.5539 12.8727 10.5347 12.9398 10.5347Z" fill="black"/>
<path d="M29.0343 10.5347C29.1014 10.5347 29.1685 10.5539 29.2356 10.6018C29.389 10.7168 29.4273 10.9277 29.3219 11.0907L26.149 15.596C26.0436 15.7493 25.8231 15.7973 25.6601 15.6822C25.4972 15.5672 25.4684 15.3563 25.5739 15.1934L28.7467 10.6881C28.8138 10.5922 28.9193 10.5347 29.0343 10.5347Z" fill="black"/>
<path d="M24.9103 28.3544C25.0158 28.3544 25.1308 28.4023 25.1979 28.5078L27.4122 31.6615C27.5272 31.8148 27.4889 32.0353 27.3259 32.1503C27.163 32.2654 26.9521 32.227 26.8371 32.0641L24.6132 28.9104C24.4982 28.757 24.5365 28.5365 24.6995 28.4215C24.7666 28.3736 24.8432 28.3544 24.9103 28.3544Z" fill="black"/>
<path d="M11.0297 10.5347C11.1351 10.5347 11.2501 10.5826 11.3172 10.6881L18.6982 21.1748C18.7845 21.2994 18.7845 21.4528 18.6982 21.5774L11.3172 32.0642C11.2118 32.2175 10.9913 32.2655 10.8284 32.1504C10.675 32.0354 10.6366 31.8245 10.7421 31.6616L17.9793 21.3761L10.7421 11.0907C10.6271 10.9373 10.6654 10.7168 10.8284 10.6018C10.8955 10.5539 10.9626 10.5347 11.0297 10.5347Z" fill="black"/>
<path d="M27.1334 10.5347C27.2005 10.5347 27.2772 10.5539 27.3347 10.6018C27.4881 10.7168 27.5265 10.9277 27.421 11.0907L25.1971 14.2444C25.0917 14.3977 24.8712 14.4457 24.7083 14.3306C24.5549 14.2156 24.5166 14.0047 24.622 13.8418L26.8459 10.6881C26.913 10.5922 27.0184 10.5347 27.1334 10.5347Z" fill="black"/>
<path d="M106.572 18.5963V17.9157H107.08C107.358 17.9157 107.512 18.0404 107.512 18.2512C107.512 18.4525 107.358 18.5867 107.08 18.5867H106.572V18.5963ZM105.767 20.0821H106.572V19.229H106.918L107.493 20.0821H108.422L107.742 19.0948C108.097 18.951 108.327 18.6443 108.327 18.2033C108.327 17.5419 107.838 17.2447 107.138 17.2447H105.777V20.0821H105.767ZM106.946 21.1174C105.585 21.1174 104.569 20.0342 104.569 18.7209V18.7114C104.569 17.3981 105.604 16.3053 106.946 16.3053C108.307 16.3053 109.324 17.3885 109.324 18.6922V18.7114C109.314 20.015 108.288 21.1174 106.946 21.1174ZM106.946 21.4049C108.442 21.4049 109.63 20.1684 109.63 18.7018V18.6922C109.63 17.2256 108.461 16.0082 106.946 16.0082C105.451 16.0082 104.262 17.2447 104.262 18.7114V18.7209C104.262 20.1875 105.432 21.4049 106.946 21.4049ZM94.9738 26.9646H103.198V24.8462H97.3318V22.584H102.422V20.4655H97.3318V18.2704H103.122V16.152H94.9738V26.9646ZM89.1552 27.1468C91.2353 27.1468 92.4719 26.4087 93.5838 25.22L92.0693 23.6959C91.2258 24.4723 90.4685 24.9612 89.2319 24.9612C87.3819 24.9612 86.0974 23.4179 86.0974 21.5679V21.5391C86.0974 19.6891 87.4106 18.1746 89.2319 18.1746C90.3151 18.1746 91.1587 18.6347 91.9926 19.3919L93.5071 17.6473C92.5007 16.66 91.2833 15.9794 89.2511 15.9794C85.9345 15.9794 83.6147 18.4909 83.6147 21.5679V21.5966C83.6147 24.6928 85.9824 27.1468 89.1552 27.1468ZM72.2653 26.9646H74.6138V20.1013L79.8476 26.9646H81.8701V16.1616H79.5216V22.814L74.4604 16.1616H72.2653V26.9646ZM63.8778 22.4402L65.3157 18.9414L66.7535 22.4402H63.8778ZM59.6218 26.9646H62.0469L63.0343 24.5394H67.597L68.5844 26.9646H71.0671L66.4372 16.0849H64.2516L59.6218 26.9646ZM51.0617 26.9646H58.8261V24.8078H53.439V16.1711H51.0617V26.9646ZM46.9591 16.1616L44.6585 19.6603L42.4059 16.1616H39.626L43.2398 21.472L39.4727 26.9646H42.1758L44.6106 23.2645L47.0358 26.9646H49.8156L46.0484 21.4433L49.6622 16.1711H46.9591V16.1616Z" fill="black"/>
<path d="M92.4899 36.2146H93.2089V34.4605C93.2089 33.9812 93.4964 33.684 93.9086 33.684C94.3304 33.684 94.5796 33.962 94.5796 34.4413V36.2146H95.289V34.2208C95.289 33.5019 94.8864 33.0322 94.177 33.0322C93.6882 33.0322 93.4006 33.2814 93.1993 33.5786V33.0993H92.4804V36.2146H92.4899ZM90.1798 35.6587C89.6238 35.6587 89.2308 35.1986 89.2308 34.6618V34.6522C89.2308 34.1058 89.5951 33.6553 90.1702 33.6553C90.7358 33.6553 91.1288 34.1058 91.1288 34.6618V34.6713C91.1288 35.2081 90.7645 35.6587 90.1798 35.6587ZM90.1702 36.2817C91.1288 36.2817 91.8381 35.5436 91.8381 34.6618V34.6522C91.8381 33.7607 91.1384 33.0322 90.1798 33.0322C89.2212 33.0322 88.5119 33.7703 88.5119 34.6618V34.6713C88.5119 35.5532 89.2212 36.2817 90.1702 36.2817ZM87.1411 36.2146H87.8601V33.0993H87.1411V36.2146ZM87.1124 32.62H87.8792V31.9394H87.1124V32.62ZM85.8279 36.2626C86.0963 36.2626 86.2976 36.2051 86.4701 36.0996V35.5149C86.3264 35.582 86.1826 35.6203 86.0292 35.6203C85.7896 35.6203 85.6458 35.5053 85.6458 35.2273V33.6936H86.4797V33.0801H85.6458V32.227H84.9364V33.0801H84.5434V33.6936H84.9364V35.3328C84.9364 36.0325 85.3007 36.2626 85.8279 36.2626ZM82.54 35.7545C82.1949 35.7545 81.9361 35.582 81.9361 35.2848V35.2752C81.9361 34.9493 82.2045 34.7576 82.6646 34.7576C82.9522 34.7576 83.1918 34.8151 83.374 34.8822V35.0931C83.374 35.4861 83.0097 35.7545 82.54 35.7545ZM82.3387 36.2722C82.818 36.2722 83.1439 36.0709 83.3548 35.8216V36.2146H84.0546V34.3646C84.0546 33.962 83.9491 33.6265 83.719 33.406C83.4986 33.1856 83.1535 33.061 82.6838 33.061C82.1853 33.061 81.8498 33.1664 81.5048 33.3102L81.6965 33.8661C81.984 33.7511 82.2429 33.6744 82.5879 33.6744C83.0864 33.6744 83.3644 33.9141 83.3644 34.355V34.4317C83.1247 34.355 82.8755 34.3071 82.5304 34.3071C81.7732 34.3071 81.2364 34.633 81.2364 35.3136V35.3232C81.2268 35.9367 81.754 36.2722 82.3387 36.2722ZM79.07 36.2338H79.7122L80.9871 33.0897H80.2394L79.3959 35.3807L78.562 33.0897H77.7951L79.07 36.2338ZM75.9355 35.6587C75.3795 35.6587 74.9865 35.1986 74.9865 34.6618V34.6522C74.9865 34.1058 75.3507 33.6553 75.9259 33.6553C76.4914 33.6553 76.8845 34.1058 76.8845 34.6618V34.6713C76.8845 35.2081 76.5202 35.6587 75.9355 35.6587ZM75.9259 36.2817C76.8845 36.2817 77.5938 35.5436 77.5938 34.6618V34.6522C77.5938 33.7607 76.894 33.0322 75.9355 33.0322C74.9769 33.0322 74.2676 33.7703 74.2676 34.6618V34.6713C74.2772 35.5532 74.9769 36.2817 75.9259 36.2817ZM70.8551 36.2146H71.574V34.4605C71.574 33.9812 71.8616 33.684 72.2737 33.684C72.6955 33.684 72.9447 33.962 72.9447 34.4413V36.2146H73.6541V34.2208C73.6541 33.5019 73.2515 33.0322 72.5421 33.0322C72.0629 33.0322 71.7657 33.2814 71.5644 33.5786V33.0993H70.8455V36.2146H70.8551ZM67.2508 36.2146H67.9698V34.4605C67.9698 33.9812 68.2573 33.684 68.6695 33.684C69.0913 33.684 69.3405 33.962 69.3405 34.4413V36.2146H70.0594V34.2208C70.0594 33.5019 69.6473 33.0322 68.9475 33.0322C68.4682 33.0322 68.1711 33.2814 67.9698 33.5786V33.0993H67.2508V36.2146ZM65.6884 36.2146H66.4073V33.0993H65.6884V36.2146ZM65.6596 32.62H66.4265V31.9394H65.6596V32.62ZM61.1448 34.4317C61.2119 33.9428 61.5186 33.6073 61.95 33.6073C62.4197 33.6073 62.6976 33.9716 62.7456 34.4317H61.1448ZM62.0362 36.2817C62.6114 36.2817 63.014 36.0517 63.3111 35.697L62.8894 35.3232C62.6401 35.5628 62.3909 35.697 62.0458 35.697C61.5857 35.697 61.2214 35.4094 61.1448 34.9014H63.4357C63.4453 34.8343 63.4453 34.7672 63.4453 34.7001C63.4453 33.799 62.9469 33.0226 61.95 33.0226C61.0585 33.0226 60.4258 33.7511 60.4258 34.6426V34.6522C60.445 35.6299 61.1352 36.2817 62.0362 36.2817ZM59.0455 36.2146H59.7644V31.9011H59.0455V36.2146ZM56.7353 35.6587C56.2465 35.6587 55.8247 35.2561 55.8247 34.6618V34.6522C55.8247 34.0579 56.2465 33.6553 56.7353 33.6553C57.2146 33.6553 57.6268 34.0483 57.6268 34.6522V34.6618C57.6268 35.2752 57.2242 35.6587 56.7353 35.6587ZM56.9079 36.2722C57.646 36.2722 58.3553 35.6874 58.3553 34.6522V34.6426C58.3553 33.6073 57.6364 33.0226 56.9079 33.0226C56.3998 33.0226 56.0739 33.2814 55.8439 33.6073V31.9011H55.125V36.2051H55.8439V35.7258C56.0643 36.0133 56.3903 36.2722 56.9079 36.2722ZM53.5625 36.2146H54.2814V33.0993H53.5625V36.2146ZM53.5433 32.62H54.3102V31.9394H53.5433V32.62ZM51.7412 36.2722C52.393 36.2722 52.9011 35.9462 52.9011 35.2944V35.2752C52.9011 34.7193 52.393 34.5084 51.9329 34.3646C51.5687 34.2496 51.2332 34.1537 51.2332 33.9237V33.9141C51.2332 33.7415 51.3961 33.6073 51.6645 33.6073C51.9233 33.6073 52.2397 33.7224 52.5464 33.9045L52.8244 33.3964C52.4985 33.176 52.0671 33.0418 51.6837 33.0418C51.0606 33.0418 50.5718 33.406 50.5718 34.0003V34.0099C50.5718 34.6042 51.0798 34.7864 51.5399 34.9206C51.9042 35.0356 52.2397 35.1123 52.2397 35.3615V35.3711C52.2397 35.582 52.0671 35.7066 51.7604 35.7066C51.4441 35.7066 51.0798 35.5724 50.7347 35.3232L50.4184 35.8025C50.8018 36.1188 51.2907 36.2722 51.7412 36.2722ZM49.1147 36.2146H49.8337V33.0993H49.1147V36.2146ZM49.086 32.62H49.8528V31.9394H49.086V32.62ZM46.6704 36.2338H47.3126L48.5875 33.0897H47.8398L46.9963 35.3807L46.1623 33.0897H45.3955L46.6704 36.2338ZM42.2418 36.2146H42.9607V34.4605C42.9607 33.9812 43.2483 33.684 43.6605 33.684C44.0822 33.684 44.3315 33.962 44.3315 34.4413V36.2146H45.0408V34.2208C45.0408 33.5019 44.6382 33.0322 43.9289 33.0322C43.44 33.0322 43.1524 33.2814 42.9511 33.5786V33.0993H42.2322V36.2146H42.2418ZM40.6793 36.2146H41.3983V33.0993H40.6793V36.2146ZM40.6602 32.62H41.427V31.9394H40.6602V32.62Z" fill="black"/>
</svg>
