<svg width="156" height="54" viewBox="0 0 156 54" fill="none" xmlns="http://www.w3.org/2000/svg">
<path d="M1.13281 0.291382H4.88151C7.07536 0.291382 8.82901 1.5516 8.82901 4.05783C8.82901 5.91443 7.85634 7.23145 6.10623 7.66454L9.3686 12.9113H8.10838L4.97026 7.81008H2.21198V12.9113H1.14701L1.13281 0.291382ZM4.89926 6.79836C6.57482 6.79836 7.73919 5.84343 7.73919 4.05783C7.73919 2.27223 6.59257 1.3173 4.94541 1.3173H2.21198V6.79836H4.89926Z" fill="#002D74"/>
<path d="M9.96094 6.59951C9.96094 2.63426 11.4909 0.0925293 14.5261 0.0925293C17.5613 0.0925293 19.0984 2.63426 19.0984 6.59951C19.0984 10.5648 17.5684 13.11 14.5261 13.11C11.4838 13.11 9.96094 10.5683 9.96094 6.59951ZM18.0192 6.59951C18.0192 3.1774 16.8833 1.1007 14.5403 1.1007C12.1974 1.1007 11.0401 3.1774 11.0401 6.59951C11.0401 10.0216 12.1938 12.0983 14.5261 12.0983C16.8584 12.0983 18.0192 10.0323 18.0192 6.59951Z" fill="#002D74"/>
<path d="M23.5692 0.291382H24.7229L28.9828 12.9113H27.8468L26.7464 9.53889H21.5528L20.4524 12.9113H19.3164L23.5692 0.291382ZM26.4091 8.54846L24.5809 2.99641C24.4176 2.49232 24.2721 2.00244 24.1478 1.5161C24.02 2.00244 23.878 2.49232 23.7147 2.99641L21.8759 8.54846H26.4091Z" fill="#002D74"/>
<path d="M38.2447 6.59956C38.2447 10.2418 36.9277 12.9113 33.0157 12.9113H30.0586V0.291382H33.0157C36.9277 0.291382 38.2447 2.96091 38.2447 6.59956ZM31.1413 1.3173V11.8818H33.0157C36.0437 11.8818 37.162 9.98973 37.162 6.59956C37.162 3.2094 36.0437 1.3173 33.0157 1.3173H31.1413Z" fill="#002D74"/>
<path d="M39.957 0.291382H41.0753L44.895 7.90238L48.7182 0.291382H49.8364V12.9113H48.7715V5.1938C48.7715 4.16788 48.7715 3.1952 48.8637 2.20123L45.1647 9.57439H44.6252L40.9297 2.20123C41.0007 3.1952 41.0398 4.16788 41.0398 5.1938V12.9113H39.957V0.291382Z" fill="#002D74"/>
<path d="M55.1899 0.291382H56.3436L60.6035 12.9113H59.4676L58.3671 9.53889H53.17L52.0696 12.9113H50.9336L55.1899 0.291382ZM58.0299 8.54846L56.1981 2.99641C56.0348 2.49232 55.8928 2.00244 55.765 1.5161C55.6408 2.00244 55.4952 2.49232 55.3319 2.99641L53.4931 8.54846H58.0299Z" fill="#002D74"/>
<path d="M69.1984 4.29213C69.1984 6.99716 67.5406 8.31417 64.9634 8.31417H62.7624V12.929H61.6797V0.291382H64.9634C67.537 0.291382 69.1984 1.59065 69.1984 4.29213ZM62.7589 1.3173V7.2847H65.013C66.9797 7.2847 68.1157 6.25877 68.1157 4.29213C68.1157 2.32548 66.9974 1.3173 65.013 1.3173H62.7589Z" fill="#002D74"/>
<path d="M75.3773 1.3173H71.8984V0.291382H79.939V1.3173H76.4565V12.9113H75.3915L75.3773 1.3173Z" fill="#002D74"/>
<path d="M80.0625 6.59951C80.0625 2.63426 81.5925 0.0925293 84.6419 0.0925293C87.6912 0.0925293 89.2035 2.63426 89.2035 6.59951C89.2035 10.5648 87.6557 13.11 84.6419 13.11C81.628 13.11 80.0625 10.5683 80.0625 6.59951ZM88.1208 6.59951C88.1208 3.1774 86.9848 1.1007 84.6419 1.1007C82.2989 1.1007 81.1417 3.1774 81.1417 6.59951C81.1417 10.0216 82.2989 12.0983 84.6419 12.0983C86.9848 12.0983 88.1208 10.0323 88.1208 6.59951Z" fill="#002D74"/>
<path d="M15.7063 42.5068H27.8186V52.7589H0.328125V42.5068L11.9789 30.3909H1.26175V20.1388H27.3536V30.3909L15.7063 42.5068Z" fill="#002D74"/>
<path d="M45.1041 43.4404H59.0836V52.7589H32.9883V20.1388H58.15V29.4608H45.1041V31.7896H57.2199V41.1081H45.1041V43.4404Z" fill="#002D74"/>
<path d="M81.8478 52.7589L76.2567 42.0418H75.7916V52.7589H63.6758V20.1389H77.1867C79.4281 20.1014 81.6637 20.3774 83.8286 20.9589C85.5141 21.4096 87.0959 22.1837 88.4861 23.2379C89.6764 24.1651 90.612 25.3792 91.2053 26.7665C91.808 28.1998 92.1101 29.7415 92.0928 31.2962C92.1317 32.7218 91.9103 34.1425 91.4396 35.4886C91.0852 36.4604 90.599 37.379 89.9948 38.2185C89.421 38.9944 88.7099 39.6585 87.8968 40.1781L95.8202 52.7589H81.8478ZM77.1867 33.6533C77.9211 33.6793 78.6379 33.4256 79.1924 32.9434C79.4408 32.7274 79.6399 32.4607 79.7763 32.1613C79.9128 31.8618 79.9834 31.5365 79.9834 31.2075C79.9834 30.8784 79.9128 30.5531 79.7763 30.2537C79.6399 29.9542 79.4408 29.6875 79.1924 29.4716C78.6379 28.9894 77.9211 28.7356 77.1867 28.7616H75.7916V33.6533H77.1867Z" fill="#002D74"/>
<path d="M123.532 3.61047C118.637 3.61118 113.852 5.06333 109.782 7.78332C105.713 10.5033 102.541 14.369 100.668 18.8915C98.7954 23.414 98.3058 28.3903 99.2612 33.1911C100.217 37.9919 102.574 42.4015 106.036 45.8625C109.497 49.3235 113.907 51.6804 118.708 52.6351C123.509 53.5898 128.485 53.0994 133.007 51.2261C137.53 49.3527 141.395 46.1804 144.114 42.1104C146.834 38.0404 148.285 33.2553 148.285 28.3604C148.286 25.1098 147.646 21.8909 146.402 18.8877C145.158 15.8844 143.334 13.1557 141.036 10.8573C138.737 8.55889 136.008 6.73591 133.005 5.49248C130.001 4.24906 126.782 3.60954 123.532 3.61047V3.61047ZM123.532 40.0574C121.213 40.0616 118.945 39.3777 117.016 38.0922C115.086 36.8068 113.581 34.9776 112.692 32.8364C111.802 30.6951 111.568 28.3381 112.019 26.0638C112.47 23.7895 113.586 21.7002 115.225 20.0604C116.865 18.4207 118.954 17.3042 121.228 16.8525C123.502 16.4008 125.859 16.634 128.001 17.5228C130.142 18.4115 131.972 19.9158 133.258 21.845C134.544 23.7743 135.228 26.0418 135.225 28.3604C135.22 31.4606 133.987 34.4325 131.795 36.625C129.603 38.8175 126.632 40.0517 123.532 40.0574V40.0574Z" fill="#002D74"/>
<path d="M148.414 4.6436L92.5508 39.8228L99.637 51.0754L155.501 15.8962L148.414 4.6436Z" fill="#185CBF"/>
</svg>
