<svg width="121" height="60" viewBox="0 0 121 60" fill="none" xmlns="http://www.w3.org/2000/svg">
<path d="M24.684 48.2133H24.1826V44.6628H23.1484V44.2397H25.7338V44.6628H24.684" fill="black"/>
<path d="M26.0795 46.7777C26.0795 47.2309 26.0795 47.9259 26.675 47.9259C27.145 47.9259 27.2077 47.4576 27.2077 47.2309H27.6935C27.6935 47.5482 27.4898 48.2885 26.6593 48.2885C25.9072 48.2885 25.5781 47.7748 25.5781 46.7475C25.5781 46.0071 25.7348 45.1309 26.675 45.1309C27.6308 45.1309 27.7091 45.9316 27.7091 46.5662V46.7475L26.0795 46.7777ZM27.192 46.4151V46.2489C27.192 45.9165 27.0824 45.5237 26.6593 45.5237C26.1422 45.5237 26.0952 46.128 26.0952 46.3093V46.4151H27.192Z" fill="black"/>
<path d="M29.5745 46.0978C29.5745 45.7201 29.4649 45.5086 29.1201 45.5086C28.9634 45.5086 28.6187 45.5539 28.6187 45.9619C28.6187 46.3094 28.9948 46.3849 29.3865 46.5058C29.7626 46.6266 30.1386 46.7626 30.1386 47.3518C30.1386 47.9864 29.7156 48.2886 29.1358 48.2886C28.086 48.2886 28.0703 47.5331 28.0703 47.231H28.5561C28.5561 47.5936 28.6657 47.926 29.1358 47.926C29.2925 47.926 29.6529 47.8504 29.6529 47.4274C29.6529 47.0195 29.2768 46.9439 28.9008 46.823C28.5247 46.7022 28.133 46.5964 28.133 45.977C28.133 45.4179 28.5874 45.146 29.1201 45.146C30.0289 45.146 30.0603 45.7503 30.0603 46.0978" fill="black"/>
<path d="M30.7435 44.3604H31.2292V45.2366H31.7619V45.5992H31.2292V47.518C31.2292 47.7598 31.2919 47.8504 31.5426 47.8504C31.6523 47.8504 31.6993 47.8353 31.7619 47.8353V48.2281C31.6993 48.2432 31.5739 48.2583 31.3702 48.2583C30.8688 48.2583 30.7435 48.0619 30.7435 47.6691V45.5992H30.2891V45.2366H30.7435" fill="black"/>
<path d="M32.5014 46.7777C32.5014 47.2309 32.5014 47.9259 33.0968 47.9259C33.5669 47.9259 33.6296 47.4576 33.6296 47.2309H34.1153C34.1153 47.5482 33.9116 48.2885 33.0812 48.2885C32.329 48.2885 32 47.7748 32 46.7475C32 46.0071 32.1567 45.1309 33.0968 45.1309C34.0526 45.1309 34.131 45.9316 34.131 46.5662V46.7475L32.5014 46.7777ZM33.6296 46.4151V46.2489C33.6296 45.9165 33.5199 45.5237 33.0968 45.5237C32.5798 45.5237 32.5327 46.128 32.5327 46.3093V46.4151H33.6296Z" fill="black"/>
<path d="M36.717 48.2133H36.2626V47.8507H36.2469C36.1843 48.0773 35.9179 48.304 35.5732 48.304C34.8367 48.304 34.5547 47.6694 34.5547 46.7327C34.5547 46.1132 34.6644 45.1614 35.5262 45.1614C35.8082 45.1614 36.0903 45.3276 36.1999 45.5844H36.2156V44.2549H36.7014L36.717 48.2133ZM35.6359 47.896C36.1686 47.896 36.2626 47.4126 36.2626 46.7327C36.2626 46.1434 36.1529 45.5542 35.6359 45.5542C35.1815 45.5542 35.0718 46.0075 35.0718 46.7327C35.0718 47.4428 35.1815 47.896 35.6359 47.896Z" fill="black"/>
<path d="M38.8919 45.5995H38.4375V45.2368H38.8919V44.8894C38.8919 44.4361 39.0956 44.2095 39.5657 44.2095H39.9261V44.6174H39.7067C39.503 44.6174 39.3933 44.6929 39.3933 44.9045V45.252H39.9261V45.6146H39.3933V48.2434H38.9076" fill="black"/>
<path d="M41.2141 45.146C42.1072 45.146 42.3266 45.8712 42.3266 46.7173C42.3266 47.5634 42.1072 48.2886 41.2141 48.2886C40.3209 48.2886 40.1016 47.5634 40.1016 46.7173C40.1016 45.8863 40.3209 45.146 41.2141 45.146ZM41.8252 46.7173C41.8252 46.0676 41.7312 45.5086 41.1984 45.5086C40.7127 45.5086 40.603 46.0676 40.603 46.7173C40.603 47.367 40.697 47.926 41.1984 47.926C41.7312 47.926 41.8252 47.367 41.8252 46.7173Z" fill="black"/>
<path d="M42.8281 45.2215H43.3139V45.6748H43.3295C43.4706 45.3877 43.6586 45.146 44.0033 45.146C44.0973 45.146 44.1757 45.1611 44.2227 45.1762V45.6295C44.1757 45.6295 44.113 45.6144 43.9563 45.6144C43.7056 45.6144 43.3139 45.8259 43.3139 46.3245V48.213H42.8281" fill="black"/>
<path d="M45.9297 44.2397H46.4154V45.5693H46.4311C46.5565 45.3276 46.9012 45.1463 47.1832 45.1463C47.9823 45.1463 47.9823 45.7506 47.9823 46.0981V48.2133H47.4966V46.1434C47.4966 45.9168 47.4809 45.5391 47.0422 45.5391C46.7758 45.5391 46.4311 45.7053 46.4311 46.1434V48.2133H45.9454" fill="black"/>
<path d="M48.5471 46.128C48.5471 45.4482 48.8449 45.146 49.5813 45.146C50.5214 45.146 50.5214 45.6899 50.5214 46.0072V47.6691C50.5214 47.79 50.5214 47.9109 50.6781 47.9109C50.7408 47.9109 50.7721 47.8957 50.7878 47.8806V48.213C50.7565 48.213 50.6311 48.2432 50.5058 48.2432C50.3177 48.2432 50.0827 48.2432 50.067 47.8504H50.0514C49.8947 48.1224 49.597 48.2735 49.2993 48.2735C48.7195 48.2735 48.4531 47.9411 48.4531 47.3972C48.4531 46.9741 48.6412 46.6871 49.0329 46.5662L49.691 46.3849C50.0357 46.2791 50.0357 46.1885 50.0357 45.9316C50.0357 45.6597 49.8633 45.4935 49.5343 45.4935C49.0015 45.4935 49.0015 45.977 49.0015 46.0827V46.1129L48.5471 46.128ZM50.0357 46.5964C49.8633 46.7777 49.4246 46.823 49.2052 46.9439C49.0485 47.0346 48.9702 47.1554 48.9702 47.4123C48.9702 47.7144 49.0799 47.926 49.4089 47.926C49.7223 47.926 50.0357 47.6691 50.0357 47.3518V46.5964Z" fill="black"/>
<path d="M51.1953 45.2215H51.6811V45.6748H51.6967C51.8377 45.3877 52.0258 45.146 52.3705 45.146C52.4645 45.146 52.5429 45.1611 52.5899 45.1762V45.6295C52.5429 45.6295 52.4802 45.6144 52.3235 45.6144C52.0728 45.6144 51.6811 45.8259 51.6811 46.3245V48.213H51.1953" fill="black"/>
<path d="M52.9532 45.2215H53.4076V45.569H53.4232C53.5486 45.2971 53.8776 45.146 54.1754 45.146C54.5357 45.146 54.7551 45.282 54.8491 45.6144C54.9901 45.3575 55.2722 45.146 55.5856 45.146C56.4004 45.146 56.4004 45.7503 56.4004 46.0978V48.213H55.9146V46.1432C55.9146 45.9165 55.899 45.5388 55.4916 45.5388C55.2722 45.5388 54.9118 45.6748 54.9118 46.1432V48.213H54.4261V46.1432C54.4261 45.9165 54.4104 45.5388 54.003 45.5388C53.7836 45.5388 53.4232 45.6748 53.4232 46.1432V48.213H52.9375" fill="black"/>
<path d="M57.2435 45.5995H56.7891V45.2368H57.2435V44.8894C57.2435 44.4361 57.4472 44.2095 57.9172 44.2095H58.2776V44.6174H58.0583C57.8546 44.6174 57.7449 44.6929 57.7449 44.9045V45.252H58.2776V45.6146H57.7449V48.2434H57.2591" fill="black"/>
<path d="M60.6464 48.2132H60.1763V47.8657H60.1607C60.0353 48.1376 59.7063 48.2887 59.4085 48.2887C58.5938 48.2887 58.5938 47.6844 58.5938 47.3369V45.2217H59.0795V47.2915C59.0795 47.5182 59.0952 47.8959 59.5339 47.8959C59.8003 47.8959 60.145 47.7297 60.145 47.2915V45.2217H60.6307" fill="black"/>
<path d="M61.806 44.2397H61.3203V48.2284H61.806V44.2397Z" fill="black"/>
<path d="M65.1839 46.0978C65.1839 45.7201 65.0742 45.5086 64.7295 45.5086C64.5728 45.5086 64.2281 45.5539 64.2281 45.9619C64.2281 46.3094 64.6042 46.3849 64.9959 46.5058C65.372 46.6266 65.748 46.7626 65.748 47.3518C65.748 47.9864 65.3249 48.2886 64.7452 48.2886C63.6954 48.2886 63.6797 47.5331 63.6797 47.231H64.1654C64.1654 47.5936 64.2751 47.926 64.7452 47.926C64.9019 47.926 65.2623 47.8504 65.2623 47.4274C65.2623 47.0195 64.8862 46.9439 64.5101 46.823C64.1341 46.7022 63.7424 46.5964 63.7424 45.977C63.7424 45.4179 64.1968 45.146 64.7295 45.146C65.6383 45.146 65.6697 45.7503 65.6697 46.0978" fill="black"/>
<path d="M68.2558 48.2132H67.7857V47.8657H67.77C67.6447 48.1376 67.3156 48.2887 67.0179 48.2887C66.2031 48.2887 66.2031 47.6844 66.2031 47.3369V45.2217H66.6889V47.2915C66.6889 47.5182 66.7045 47.8959 67.1433 47.8959C67.4096 47.8959 67.7544 47.7297 67.7544 47.2915V45.2217H68.2401" fill="black"/>
<path d="M68.8985 44.2397H69.3842V45.5693H69.3999C69.5096 45.3124 69.8073 45.1463 70.1207 45.1463C70.9668 45.1463 71.0608 46.0981 71.0608 46.7175C71.0608 47.5636 70.7631 48.2888 70.0423 48.2888C69.7133 48.2888 69.4312 48.0622 69.3686 47.8356H69.3529V48.1982H68.8828L68.8985 44.2397ZM69.9797 47.896C70.4341 47.896 70.5438 47.4125 70.5438 46.7326C70.5438 46.0225 70.4341 45.5542 69.9797 45.5542C69.4626 45.5542 69.3529 46.1434 69.3529 46.7326C69.3529 47.337 69.4626 47.896 69.9797 47.896Z" fill="black"/>
<path d="M72.9105 46.0978C72.9105 45.7201 72.8008 45.5086 72.4561 45.5086C72.2994 45.5086 71.9547 45.5539 71.9547 45.9619C71.9547 46.3094 72.3307 46.3849 72.7225 46.5058C73.0985 46.6266 73.4746 46.7626 73.4746 47.3518C73.4746 47.9864 73.0515 48.2886 72.4718 48.2886C71.4219 48.2886 71.4062 47.5331 71.4062 47.231H71.892C71.892 47.5936 72.0017 47.926 72.4718 47.926C72.6284 47.926 72.9888 47.8504 72.9888 47.4274C72.9888 47.0195 72.6128 46.9439 72.2367 46.823C71.8607 46.7022 71.4689 46.5964 71.4689 45.977C71.4689 45.4179 71.9233 45.146 72.4561 45.146C73.3649 45.146 73.3962 45.7503 73.3962 46.0978" fill="black"/>
<path d="M74.0872 44.3604H74.573V45.2366H75.1057V45.5992H74.573V47.518C74.573 47.7598 74.6356 47.8504 74.8863 47.8504C74.996 47.8504 75.043 47.8353 75.1057 47.8353V48.2281C75.043 48.2432 74.9177 48.2583 74.714 48.2583C74.2126 48.2583 74.0872 48.0619 74.0872 47.6691V45.5992H73.6328V45.2366H74.0872" fill="black"/>
<path d="M75.3753 46.128C75.3753 45.4482 75.673 45.146 76.4094 45.146C77.3496 45.146 77.3496 45.6899 77.3496 46.0072V47.6691C77.3496 47.79 77.3496 47.9109 77.5063 47.9109C77.5689 47.9109 77.6003 47.8957 77.6159 47.8806V48.213C77.5846 48.213 77.4593 48.2432 77.3339 48.2432C77.1459 48.2432 76.9108 48.2432 76.8952 47.8504H76.8795C76.7228 48.1224 76.4251 48.2735 76.1274 48.2735C75.5476 48.2735 75.2812 47.9411 75.2812 47.3972C75.2812 46.9741 75.4693 46.6871 75.861 46.5662L76.5191 46.3849C76.8638 46.2791 76.8638 46.1885 76.8638 45.9316C76.8638 45.6597 76.6915 45.4935 76.3624 45.4935C75.8297 45.4935 75.8297 45.977 75.8297 46.0827V46.1129L75.3753 46.128ZM76.8638 46.5964C76.6915 46.7777 76.2527 46.823 76.0334 46.9439C75.8767 47.0346 75.7983 47.1554 75.7983 47.4123C75.7983 47.7144 75.908 47.926 76.2371 47.926C76.5504 47.926 76.8638 47.6691 76.8638 47.3518V46.5964Z" fill="black"/>
<path d="M78.0234 45.2215H78.4778V45.569H78.4935C78.6189 45.2971 78.9479 45.146 79.2456 45.146C80.0604 45.146 80.0604 45.7503 80.0604 46.0978V48.213H79.5747V46.1432C79.5747 45.9165 79.559 45.5388 79.1203 45.5388C78.8539 45.5388 78.5092 45.705 78.5092 46.1432V48.213H78.0234" fill="black"/>
<path d="M82.1686 46.1432C82.1686 45.8561 82.0432 45.5237 81.6828 45.5237C81.3851 45.5237 81.0717 45.6748 81.0717 46.7626C81.0717 47.1555 81.0717 47.9411 81.6671 47.9411C82.0745 47.9411 82.1842 47.5181 82.1842 47.2008H82.67C82.67 47.6691 82.4193 48.3188 81.6515 48.3188C80.8994 48.3188 80.5703 47.8051 80.5703 46.7777C80.5703 46.0223 80.7113 45.1611 81.6671 45.1611C82.5133 45.1611 82.6543 45.7957 82.6543 46.1432" fill="black"/>
<path d="M83.5795 46.7777C83.5795 47.2309 83.5795 47.9259 84.175 47.9259C84.645 47.9259 84.7077 47.4576 84.7077 47.2309H85.1935C85.1935 47.5482 84.9898 48.2885 84.1593 48.2885C83.4072 48.2885 83.0781 47.7748 83.0781 46.7475C83.0781 46.0071 83.2348 45.1309 84.175 45.1309C85.1308 45.1309 85.2091 45.9316 85.2091 46.5662V46.7475L83.5795 46.7777ZM84.6921 46.4151V46.2489C84.6921 45.9165 84.5824 45.5237 84.1593 45.5237C83.6579 45.5237 83.5952 46.128 83.5952 46.3093V46.4151H84.6921Z" fill="black"/>
<path d="M87.0745 46.0978C87.0745 45.7201 86.9649 45.5086 86.6201 45.5086C86.4634 45.5086 86.1187 45.5539 86.1187 45.9619C86.1187 46.3094 86.4948 46.3849 86.8865 46.5058C87.2626 46.6266 87.6386 46.7626 87.6386 47.3518C87.6386 47.9864 87.2156 48.2886 86.6358 48.2886C85.586 48.2886 85.5703 47.5331 85.5703 47.231H86.056C86.056 47.5936 86.1657 47.926 86.6358 47.926C86.7925 47.926 87.1529 47.8504 87.1529 47.4274C87.1529 47.0195 86.7768 46.9439 86.3851 46.823C86.009 46.7022 85.6173 46.5964 85.6173 45.977C85.6173 45.4179 86.0717 45.146 86.6045 45.146C87.5133 45.146 87.5446 45.7503 87.5446 46.0978" fill="black"/>
<path d="M88.7515 47.624H88.2188V48.2133H88.7515V47.624Z" fill="black"/>
<path d="M18.2734 51.9297H18.7905L19.2919 54.3773L19.8247 51.9297H20.4044L20.9058 54.3773H20.9215L21.4073 51.9297H21.9087L21.1722 54.9212H20.6395L20.1067 52.4887H20.0911L19.574 54.9212H19.0099" fill="black"/>
<path d="M22.0312 51.9297H22.5483L23.0341 54.3773H23.0497L23.5825 51.9297H24.1466L24.6636 54.3773H24.6793L25.1651 51.9297H25.6665L24.93 54.9212H24.3973L23.8645 52.4887H23.8489L23.3318 54.9212H22.752" fill="black"/>
<path d="M25.7969 51.9297H26.2983L26.7997 54.3773H26.8154L27.3481 51.9297H27.9122L28.4293 54.3773H28.4449L28.915 51.9297H29.4321L28.6957 54.9212H28.1629L27.6145 52.4887L27.0817 54.9212H26.5177" fill="black"/>
<path d="M30.2437 54.332H29.7109V54.9213H30.2437V54.332Z" fill="black"/>
<path d="M31.9563 51.854C32.8494 51.854 33.0688 52.5792 33.0688 53.4253C33.0688 54.2714 32.8494 54.9966 31.9563 54.9966C31.0631 54.9966 30.8438 54.2714 30.8438 53.4253C30.8438 52.5943 31.0631 51.854 31.9563 51.854ZM32.5674 53.4253C32.5674 52.7756 32.4733 52.2166 31.9406 52.2166C31.4548 52.2166 31.3452 52.7756 31.3452 53.4253C31.3452 54.075 31.4392 54.634 31.9406 54.634C32.4577 54.634 32.5674 54.075 32.5674 53.4253Z" fill="black"/>
<path d="M33.978 53.4862C33.978 53.9394 33.978 54.6344 34.5734 54.6344C35.0435 54.6344 35.1061 54.1661 35.1061 53.9394H35.5919C35.5919 54.2567 35.3882 54.997 34.5577 54.997C33.8056 54.997 33.4766 54.4833 33.4766 53.456C33.4766 52.7005 33.6333 51.8394 34.5734 51.8394C35.5292 51.8394 35.6076 52.6401 35.6076 53.2747V53.456L33.978 53.4862ZM35.0905 53.1236V52.9574C35.0905 52.625 34.9808 52.2322 34.5577 52.2322C34.0406 52.2322 33.9936 52.8365 33.9936 53.0178V53.1236H35.0905V53.1236Z" fill="black"/>
<path d="M38.4518 54.9213H37.8878L37.026 53.4407L36.6186 53.9241V54.9213H36.1328V50.9478H36.6186V53.3198H36.6342L37.7154 51.9298H38.2795L37.3393 53.0629" fill="black"/>
<path d="M39.675 51.854C40.5681 51.854 40.7875 52.5792 40.7875 53.4253C40.7875 54.2714 40.5681 54.9966 39.675 54.9966C38.7819 54.9966 38.5625 54.2714 38.5625 53.4253C38.5625 52.5943 38.7819 51.854 39.675 51.854ZM40.2861 53.4253C40.2861 52.7756 40.1921 52.2166 39.6593 52.2166C39.1736 52.2166 39.0639 52.7756 39.0639 53.4253C39.0639 54.075 39.1579 54.634 39.6593 54.634C40.1764 54.634 40.2861 54.075 40.2861 53.4253Z" fill="black"/>
<path d="M42.6837 53.1235H41.2734V53.5617H42.6837V53.1235Z" fill="black"/>
<path d="M43.47 51.0686H43.9558V51.9449H44.4885V52.3075H43.9558V54.2263C43.9558 54.468 44.0184 54.5587 44.2691 54.5587C44.3788 54.5587 44.4258 54.5436 44.4885 54.5436V54.9364C44.4258 54.9515 44.3005 54.9666 44.0968 54.9666C43.5954 54.9666 43.47 54.7702 43.47 54.3774V52.3075H43.0156V51.9449H43.47" fill="black"/>
<path d="M45.228 53.4862C45.228 53.9394 45.228 54.6344 45.8234 54.6344C46.2935 54.6344 46.3561 54.1661 46.3561 53.9394H46.8419C46.8419 54.2567 46.6382 54.997 45.8077 54.997C45.0556 54.997 44.7266 54.4833 44.7266 53.456C44.7266 52.7005 44.8833 51.8394 45.8234 51.8394C46.7792 51.8394 46.8576 52.6401 46.8576 53.2747V53.456L45.228 53.4862ZM46.3561 53.1236V52.9574C46.3561 52.625 46.2465 52.2322 45.8234 52.2322C45.3063 52.2322 45.2593 52.8365 45.2593 53.0178V53.1236H46.3561V53.1236Z" fill="black"/>
<path d="M47.1642 51.9297H47.6969L48.261 53.0024L48.8251 51.9297H49.3579L48.5587 53.365L49.3892 54.9212H48.8565L48.2454 53.7427L47.6499 54.9212H47.1172L47.9633 53.365" fill="black"/>
<path d="M50.3921 54.332H49.8594V54.9213H50.3921V54.332Z" fill="black"/>
<path d="M52.6217 52.8517C52.6217 52.5646 52.4963 52.2322 52.1359 52.2322C51.8382 52.2322 51.5249 52.3833 51.5249 53.4711C51.5249 53.8639 51.5248 54.6496 52.1203 54.6496C52.5433 54.6496 52.6374 54.2265 52.6374 53.9093H53.1231C53.1231 54.3776 52.8724 55.0273 52.1046 55.0273C51.3525 55.0273 51.0234 54.5136 51.0234 53.4862C51.0234 52.7459 51.1801 51.8696 52.1203 51.8696C52.9664 51.8696 53.1074 52.5042 53.1074 52.8517" fill="black"/>
<path d="M54.5812 51.854C55.4744 51.854 55.6938 52.5792 55.6938 53.4253C55.6938 54.2714 55.4744 54.9966 54.5812 54.9966C53.6881 54.9966 53.4688 54.2714 53.4688 53.4253C53.4688 52.5943 53.6881 51.854 54.5812 51.854ZM55.1923 53.4253C55.1923 52.7756 55.0983 52.2166 54.5656 52.2166C54.0798 52.2166 53.9702 52.7756 53.9702 53.4253C53.9702 54.075 54.0642 54.634 54.5656 54.634C55.0827 54.634 55.1923 54.075 55.1923 53.4253Z" fill="black"/>
<path d="M56.2422 51.9295H56.7123V52.277H56.7279C56.8533 52.0051 57.1823 51.854 57.48 51.854C57.8404 51.854 58.0598 51.99 58.1538 52.3224C58.2948 52.0655 58.5769 51.854 58.8903 51.854C59.705 51.854 59.705 52.4583 59.705 52.8058V54.921H59.2193V52.8512C59.2193 52.6245 59.2036 52.2468 58.7962 52.2468C58.5769 52.2468 58.2165 52.3828 58.2165 52.8512V54.921H57.7307V52.8512C57.7307 52.6245 57.7151 52.2468 57.3077 52.2468C57.0883 52.2468 56.7279 52.3828 56.7279 52.8512V54.921H56.2422" fill="black"/>
<path d="M61.3475 50.8721H61.7236L60.3761 55.0118H60L61.3475 50.8721Z" fill="black"/>
<path d="M63.3245 52.8058C63.3245 52.4281 63.2149 52.2166 62.8701 52.2166C62.7134 52.2166 62.3687 52.2619 62.3687 52.6699C62.3687 53.0174 62.7448 53.0929 63.1365 53.2138C63.5126 53.3346 63.8886 53.4706 63.8886 54.0598C63.8886 54.6944 63.4656 54.9966 62.8858 54.9966C61.836 54.9966 61.8203 54.2411 61.8203 53.939H62.306C62.306 54.3016 62.4157 54.634 62.8858 54.634C63.0425 54.634 63.4029 54.5584 63.4029 54.1354C63.4029 53.7275 63.0268 53.6519 62.6508 53.531C62.2747 53.4102 61.883 53.3044 61.883 52.685C61.883 52.126 62.3374 51.854 62.8701 51.854C63.7789 51.854 63.8103 52.4583 63.8103 52.8058" fill="black"/>
<path d="M64.5013 51.0684H64.987V51.9446H65.5198V52.3073H64.987V54.226C64.987 54.4678 65.0497 54.5584 65.3004 54.5584C65.4101 54.5584 65.4571 54.5433 65.5198 54.5433V54.9361C65.4571 54.9512 65.3317 54.9663 65.128 54.9663C64.6266 54.9663 64.5013 54.7699 64.5013 54.3771V52.3073H64.0469V51.9446H64.5013" fill="black"/>
<path d="M65.7659 52.8361C65.7659 52.1562 66.0636 51.854 66.8 51.854C67.7402 51.854 67.7402 52.3979 67.7402 52.7152V54.3771C67.7402 54.498 67.7402 54.6189 67.8969 54.6189C67.9596 54.6189 67.9909 54.6037 68.0066 54.5886V54.921C67.9752 54.921 67.8499 54.9512 67.7245 54.9512C67.5365 54.9512 67.3015 54.9512 67.2858 54.5584H67.2701C67.1134 54.8304 66.8157 54.9815 66.518 54.9815C65.9383 54.9815 65.6719 54.6491 65.6719 54.1052C65.6719 53.6821 65.8599 53.3951 66.2516 53.2742L66.9097 53.0929C67.2545 52.9871 67.2544 52.8965 67.2544 52.6396C67.2544 52.3677 67.0821 52.2015 66.753 52.2015C66.2203 52.2015 66.2203 52.685 66.2203 52.7907V52.8209L65.7659 52.8361ZM67.2701 53.3044C67.0978 53.4857 66.659 53.531 66.4397 53.6519C66.283 53.7426 66.2046 53.8634 66.2046 54.1203C66.2046 54.4224 66.3143 54.634 66.6434 54.634C66.9567 54.634 67.2701 54.3771 67.2701 54.0598V53.3044Z" fill="black"/>
<path d="M68.4297 51.9295H68.8841V52.277H68.8998C69.0251 52.0051 69.3542 51.854 69.6519 51.854C70.4667 51.854 70.4667 52.4583 70.4667 52.8058V54.921H69.9809V52.8512C69.9809 52.6245 69.9652 52.2468 69.5265 52.2468C69.2601 52.2468 68.9154 52.413 68.9154 52.8512V54.921H68.4297" fill="black"/>
<path d="M73.1467 54.9213H72.6923V54.5587H72.6766C72.6139 54.7853 72.3476 55.012 72.0029 55.012C71.2664 55.012 70.9844 54.3774 70.9844 53.4407C70.9844 52.8212 71.0941 51.8694 71.9558 51.8694C72.2379 51.8694 72.5199 52.0356 72.6296 52.2924H72.6453V50.9629H73.131L73.1467 54.9213ZM72.0655 54.604C72.5983 54.604 72.6923 54.1054 72.6923 53.4256C72.6923 52.8514 72.5826 52.2471 72.0655 52.2471C71.6111 52.2471 71.5015 52.7004 71.5015 53.4256C71.5015 54.1508 71.6111 54.604 72.0655 54.604Z" fill="black"/>
<path d="M73.7112 52.8363C73.7112 52.1564 74.0089 51.8542 74.7454 51.8542C75.6855 51.8542 75.6855 52.3982 75.6855 52.7154V54.3774C75.6855 54.4982 75.6855 54.6191 75.8422 54.6191C75.9049 54.6191 75.9362 54.604 75.9519 54.5889V54.9213C75.9205 54.9213 75.7952 54.9515 75.6698 54.9515C75.4818 54.9515 75.2468 54.9515 75.2311 54.5587H75.2154C75.0587 54.8306 74.761 54.9817 74.4633 54.9817C73.8836 54.9817 73.6172 54.6493 73.6172 54.1054C73.6172 53.6824 73.8052 53.3953 74.1969 53.2744L74.855 53.0931C75.1998 52.9874 75.1998 52.8967 75.1998 52.6399C75.1998 52.3679 75.0274 52.2017 74.6983 52.2017C74.1656 52.2017 74.1656 52.6852 74.1656 52.791V52.8212L73.7112 52.8363ZM75.2154 53.3047C75.0431 53.486 74.6043 53.5313 74.385 53.6522C74.2283 53.7428 74.1499 53.8637 74.1499 54.1205C74.1499 54.4227 74.2596 54.6342 74.5887 54.6342C74.902 54.6342 75.2154 54.3774 75.2154 54.0601V53.3047Z" fill="black"/>
<path d="M76.3594 51.9298H76.8451V52.383H76.8608C77.0018 52.096 77.1898 51.8542 77.5345 51.8542C77.6286 51.8542 77.7069 51.8694 77.7539 51.8845V52.3377C77.7069 52.3377 77.6442 52.3226 77.4875 52.3226C77.2368 52.3226 76.8451 52.5341 76.8451 53.0327V54.9213H76.3594" fill="black"/>
<path d="M80.1233 54.9213H79.6532V54.5587H79.6376C79.5749 54.7853 79.3085 55.012 78.9638 55.012C78.2274 55.012 77.9453 54.3774 77.9453 53.4407C77.9453 52.8212 78.055 51.8694 78.9168 51.8694C79.1988 51.8694 79.4809 52.0356 79.5906 52.2924H79.6062V50.9629H80.092L80.1233 54.9213ZM79.0421 54.604C79.5749 54.604 79.6689 54.1054 79.6689 53.4256C79.6689 52.8514 79.5592 52.2471 79.0421 52.2471C78.5877 52.2471 78.4781 52.7004 78.4781 53.4256C78.4781 54.1508 78.5877 54.604 79.0421 54.604Z" fill="black"/>
<path d="M80.8438 51.6277C81.3608 51.5975 81.8309 51.537 81.8622 50.978H82.207V54.9364H81.7212V51.9601H80.8438" fill="black"/>
<path d="M83.4375 53.0026C83.4375 52.1263 83.5002 50.978 84.6127 50.978C85.7095 50.978 85.7879 52.0356 85.7879 53.0026C85.7879 53.8335 85.7252 54.9969 84.6127 54.9969C83.5158 55.012 83.4375 53.9393 83.4375 53.0026ZM84.6127 54.6343C85.2394 54.6343 85.2708 53.8335 85.2708 53.0026C85.2708 52.1263 85.2394 51.3406 84.6127 51.3406C83.9859 51.3406 83.9546 52.1414 83.9546 53.0026C83.9546 53.8335 83.9859 54.6343 84.6127 54.6343Z" fill="black"/>
<path d="M86.2344 53.0026C86.2344 52.1263 86.2971 50.978 87.4096 50.978C88.5064 50.978 88.5847 52.0356 88.5847 53.0026C88.5847 53.8335 88.5221 54.9969 87.4096 54.9969C86.2971 55.012 86.2344 53.9393 86.2344 53.0026ZM87.4096 54.6343C88.0363 54.6343 88.0677 53.8335 88.0677 53.0026C88.0677 52.1263 88.0363 51.3406 87.4096 51.3406C86.7828 51.3406 86.7515 52.1414 86.7515 53.0026C86.7515 53.8335 86.7828 54.6343 87.4096 54.6343Z" fill="black"/>
<path d="M21.4211 20.0206C21.4054 20.0357 21.3741 20.0659 21.3271 20.0961C21.2801 20.1263 21.2174 20.1565 21.1391 20.1867C21.0607 20.217 20.9667 20.2472 20.857 20.2623C20.7473 20.2774 20.622 20.2925 20.481 20.2925C20.2146 20.2925 19.9796 20.2472 19.7759 20.1716C19.5722 20.081 19.4155 19.9752 19.2901 19.8241C19.1648 19.6731 19.0708 19.4918 19.0081 19.2953C18.9454 19.0838 18.9141 18.8572 18.9141 18.6155C18.9141 18.3737 18.9454 18.1471 19.0081 17.9356C19.0708 17.7241 19.1648 17.5428 19.3058 17.3917C19.4311 17.2406 19.6035 17.1197 19.7915 17.0291C19.9796 16.9384 20.2146 16.9082 20.481 16.9082C20.6063 16.9082 20.7317 16.9233 20.8414 16.9384C20.951 16.9686 21.0294 16.9837 21.1234 17.014C21.2017 17.0442 21.2644 17.0744 21.3114 17.1046C21.3584 17.1348 21.4054 17.165 21.4211 17.1953C21.4525 17.2255 21.4838 17.2557 21.4995 17.2859C21.5308 17.3161 21.5308 17.3615 21.5308 17.4068C21.5308 17.4672 21.4995 17.5428 21.4525 17.6032C21.4054 17.6636 21.3428 17.7241 21.2801 17.7845C21.2331 17.7543 21.2017 17.709 21.1391 17.6636C21.0921 17.6183 21.0294 17.5881 20.9667 17.5579C20.904 17.5277 20.8414 17.4974 20.763 17.4823C20.6847 17.4521 20.5907 17.4521 20.4966 17.4521C20.3243 17.4521 20.1833 17.4823 20.0736 17.5579C19.9639 17.6183 19.8699 17.709 19.7915 17.8147C19.7289 17.9205 19.6662 18.0413 19.6505 18.1773C19.6192 18.3133 19.6035 18.4493 19.6035 18.6004C19.6035 18.7514 19.6192 18.9025 19.6505 19.0385C19.6818 19.1745 19.7289 19.2953 19.8072 19.4011C19.8855 19.5069 19.9796 19.5975 20.0892 19.6579C20.2146 19.7184 20.3556 19.7486 20.528 19.7486C20.622 19.7486 20.716 19.7335 20.7944 19.7184C20.8727 19.7033 20.9354 19.6731 20.998 19.6428C21.0607 19.6126 21.1077 19.5673 21.1547 19.5371C21.2017 19.5069 21.2331 19.4766 21.2644 19.4464C21.2801 19.4766 21.3114 19.4918 21.3271 19.5371C21.3584 19.5673 21.3741 19.5975 21.4054 19.6428C21.4368 19.6731 21.4525 19.7184 21.4681 19.7486C21.4838 19.7788 21.4995 19.8241 21.4995 19.8392C21.4995 19.8846 21.4838 19.9148 21.4681 19.945C21.4838 19.9601 21.4525 19.9903 21.4211 20.0206Z" fill="#878787"/>
<path d="M25.532 18.5701C25.532 18.7967 25.5007 19.0234 25.438 19.2349C25.3753 19.4464 25.297 19.6277 25.1716 19.7788C25.0463 19.9299 24.8896 20.0658 24.6859 20.1565C24.4979 20.2471 24.2628 20.2925 23.9808 20.2925C23.7144 20.2925 23.4794 20.2471 23.2914 20.1565C23.1033 20.0658 22.9466 19.945 22.8213 19.7788C22.6959 19.6277 22.6176 19.4464 22.5549 19.2349C22.4922 19.0234 22.4766 18.8118 22.4766 18.5852C22.4766 18.3586 22.5079 18.1471 22.5706 17.9356C22.6333 17.7391 22.7273 17.5578 22.8526 17.3916C22.978 17.2406 23.1347 17.1197 23.3384 17.029C23.5264 16.9384 23.7614 16.8931 24.0278 16.8931C24.2942 16.8931 24.5135 16.9384 24.7172 17.029C24.9053 17.1197 25.062 17.2406 25.1873 17.3916C25.3127 17.5427 25.391 17.724 25.4537 17.9204C25.5007 18.1169 25.532 18.3435 25.532 18.5701ZM24.8269 18.5852C24.8269 18.4341 24.8113 18.283 24.7799 18.1471C24.7486 18.0111 24.7016 17.8902 24.6389 17.7845C24.5762 17.6787 24.4979 17.5881 24.3882 17.5276C24.2942 17.4672 24.1688 17.437 24.0121 17.437C23.8554 17.437 23.7301 17.4672 23.6204 17.5276C23.5107 17.5881 23.4324 17.6787 23.3697 17.7845C23.307 17.8902 23.26 18.0111 23.2287 18.1471C23.1973 18.283 23.1817 18.4341 23.1817 18.5852C23.1817 18.7363 23.1973 18.8874 23.2287 19.0385C23.26 19.1744 23.307 19.2953 23.3697 19.4162C23.4324 19.5219 23.5107 19.6126 23.6204 19.673C23.7301 19.7335 23.8554 19.7637 23.9965 19.7637C24.1532 19.7637 24.2785 19.7335 24.3725 19.673C24.4822 19.6126 24.5605 19.5219 24.6232 19.4162C24.6859 19.3104 24.7329 19.1896 24.7642 19.0385C24.8113 18.8874 24.8269 18.7363 24.8269 18.5852Z" fill="#878787"/>
<path d="M29.4294 20.2019H28.8496L27.4237 18.0716V20.2019H26.7656V16.9687C26.797 16.9536 26.844 16.9536 26.9066 16.9536C26.9693 16.9536 27.0163 16.9384 27.079 16.9384C27.1887 16.9384 27.267 16.9536 27.3297 16.9838C27.3924 17.014 27.4394 17.0744 27.4864 17.15L28.7869 19.1896V16.9536C28.8339 16.9536 28.8809 16.9384 28.9123 16.9384C28.9593 16.9233 28.9906 16.9233 29.0063 16.9233C29.0533 16.9233 29.1003 16.9233 29.163 16.9384C29.21 16.9536 29.257 16.9687 29.304 16.9989C29.351 17.0291 29.3824 17.0593 29.4137 17.1046C29.445 17.15 29.4607 17.2255 29.4607 17.3011" fill="#878787"/>
<path d="M31.4551 18.2378H32.5362V18.7515H31.4551V20.2019H30.7656V16.9536H32.881C32.881 16.9838 32.8966 17.014 32.8966 17.0443C32.8966 17.0745 32.8966 17.1047 32.8966 17.1349C32.8966 17.2256 32.8653 17.3162 32.8026 17.3766C32.7399 17.4371 32.6303 17.4673 32.4892 17.4673H31.4551" fill="#878787"/>
<path d="M33.9609 16.9687C34.0079 16.9687 34.0549 16.9536 34.102 16.9536C34.149 16.9536 34.1803 16.9536 34.2116 16.9536C34.2586 16.9536 34.3213 16.9536 34.3683 16.9687C34.4153 16.9687 34.478 16.9989 34.5093 17.0292C34.5564 17.0594 34.5877 17.0896 34.619 17.15C34.6504 17.1953 34.666 17.2709 34.666 17.3464V20.2322H33.9766" fill="#878787"/>
<path d="M38.6403 18.5248C38.6403 18.7515 38.609 18.963 38.5463 19.1745C38.4837 19.386 38.3896 19.5522 38.2486 19.7033C38.1233 19.8544 37.9509 19.9752 37.7472 20.0659C37.5435 20.1566 37.3085 20.2019 37.0264 20.2019H35.9609V16.9838C36.1803 16.9536 36.3527 16.9384 36.5094 16.9384C36.666 16.9384 36.7914 16.9233 36.9011 16.9233C37.2301 16.9233 37.5122 16.9687 37.7315 17.0442C37.9509 17.1349 38.1233 17.2406 38.2643 17.3917C38.3896 17.5428 38.4837 17.709 38.5463 17.9054C38.6247 18.1018 38.6403 18.3133 38.6403 18.5248ZM37.9352 18.5399C37.9352 18.3889 37.9196 18.2529 37.8882 18.1169C37.8569 17.9809 37.8099 17.8752 37.7315 17.7694C37.6532 17.6788 37.5592 17.5881 37.4338 17.5428C37.3085 17.4824 37.1518 17.4521 36.9638 17.4521C36.8697 17.4521 36.7601 17.4672 36.666 17.4672V19.7033H36.9324C37.1361 19.7033 37.2928 19.6731 37.4182 19.6126C37.5435 19.5522 37.6532 19.4767 37.7315 19.3709C37.8099 19.2652 37.8569 19.1443 37.8882 19.0083C37.9352 18.8723 37.9352 18.7061 37.9352 18.5399Z" fill="#878787"/>
<path d="M41.6378 19.6882C41.7945 19.6882 41.9042 19.7185 41.9668 19.794C42.0295 19.8695 42.0609 19.9451 42.0609 20.0357C42.0609 20.066 42.0609 20.0962 42.0609 20.1264C42.0609 20.1415 42.0609 20.1717 42.0452 20.2019H39.8672V16.9536H41.9668C41.9668 16.9838 41.9668 17.014 41.9825 17.0443C41.9825 17.0745 41.9825 17.1047 41.9825 17.1349C41.9825 17.2407 41.9512 17.3313 41.8885 17.3918C41.8258 17.4522 41.7161 17.4824 41.5438 17.4824H40.5566V18.2832H41.6221V18.7968H40.5566V19.6882" fill="#878787"/>
<path d="M45.82 20.2019H45.2402L43.8143 18.0716V20.2019H43.1562V16.9687C43.1876 16.9536 43.2346 16.9536 43.2973 16.9536C43.3599 16.9536 43.407 16.9384 43.4696 16.9384C43.5793 16.9384 43.6577 16.9536 43.7203 16.9838C43.783 17.014 43.83 17.0744 43.877 17.15L45.1776 19.1896V16.9536C45.2246 16.9536 45.2716 16.9384 45.3029 16.9384C45.3499 16.9233 45.3812 16.9233 45.3969 16.9233C45.4439 16.9233 45.4909 16.9233 45.5536 16.9384C45.6006 16.9536 45.6476 16.9687 45.6946 16.9989C45.7416 17.0291 45.773 17.0593 45.8043 17.1046C45.8357 17.15 45.8513 17.2255 45.8513 17.3011" fill="#878787"/>
<path d="M49.5461 20.0206C49.5304 20.0357 49.4991 20.0659 49.4521 20.0961C49.4051 20.1263 49.3424 20.1565 49.2641 20.1867C49.1857 20.217 49.0917 20.2472 48.982 20.2623C48.8723 20.2774 48.747 20.2925 48.606 20.2925C48.3396 20.2925 48.1046 20.2472 47.9009 20.1716C47.6972 20.081 47.5405 19.9752 47.4151 19.8241C47.2898 19.6731 47.1958 19.4918 47.1331 19.2953C47.0704 19.0838 47.0391 18.8572 47.0391 18.6155C47.0391 18.3737 47.0704 18.1471 47.1331 17.9356C47.1958 17.7241 47.2898 17.5428 47.4308 17.3917C47.5561 17.2406 47.7285 17.1197 47.9165 17.0291C48.1046 16.9384 48.3396 16.9082 48.606 16.9082C48.7313 16.9082 48.8567 16.9233 48.9664 16.9384C49.076 16.9686 49.1701 16.9837 49.2484 17.014C49.3267 17.0442 49.3894 17.0744 49.4521 17.1046C49.4991 17.1348 49.5461 17.165 49.5774 17.1953C49.6088 17.2255 49.6401 17.2557 49.6558 17.2859C49.6715 17.3161 49.6871 17.3615 49.6871 17.4068C49.6871 17.4672 49.6558 17.5428 49.6088 17.6032C49.5618 17.6636 49.4991 17.7241 49.4364 17.7845C49.4051 17.7543 49.3581 17.709 49.2954 17.6636C49.2484 17.6183 49.1857 17.5881 49.123 17.5579C49.0604 17.5277 48.9977 17.4974 48.9193 17.4823C48.841 17.4521 48.747 17.4521 48.653 17.4521C48.4806 17.4521 48.3396 17.4823 48.2299 17.5579C48.1202 17.6183 48.0262 17.709 47.9479 17.8147C47.8852 17.9205 47.8225 18.0413 47.7912 18.1773C47.7598 18.3133 47.7442 18.4493 47.7442 18.6004C47.7442 18.7514 47.7598 18.9025 47.7912 19.0385C47.8225 19.1745 47.8695 19.2953 47.9479 19.4011C48.0262 19.5069 48.1202 19.5975 48.2299 19.6579C48.3553 19.7184 48.4963 19.7486 48.6686 19.7486C48.7627 19.7486 48.841 19.7335 48.935 19.7184C49.0134 19.7033 49.0917 19.6731 49.1387 19.6428C49.2014 19.6126 49.2484 19.5673 49.2954 19.5371C49.3424 19.5069 49.3738 19.4766 49.4051 19.4464C49.4208 19.4766 49.4521 19.4918 49.4678 19.5371C49.4991 19.5673 49.5148 19.5975 49.5461 19.6428C49.5774 19.6731 49.5931 19.7184 49.6088 19.7486C49.6245 19.7788 49.6401 19.8241 49.6401 19.8392C49.6401 19.8846 49.6245 19.9148 49.6088 19.945C49.6088 19.9601 49.5931 19.9903 49.5461 20.0206Z" fill="#878787"/>
<path d="M52.6378 19.6882C52.7945 19.6882 52.9042 19.7185 52.9668 19.794C53.0295 19.8695 53.0608 19.9451 53.0608 20.0357C53.0608 20.066 53.0608 20.0962 53.0608 20.1264C53.0608 20.1415 53.0608 20.1717 53.0608 20.2019H50.8828V16.9536H52.9825C52.9825 16.9838 52.9982 17.014 52.9982 17.0443V17.1349C52.9982 17.2407 52.9668 17.3313 52.9042 17.3918C52.8415 17.4522 52.7318 17.4824 52.5594 17.4824H51.5566V18.2832H52.6221V18.7968H51.5566V19.6882" fill="#878787"/>
<path d="M55.9609 16.9687C56.0079 16.9687 56.055 16.9536 56.102 16.9536C56.149 16.9536 56.1803 16.9536 56.2116 16.9536C56.2586 16.9536 56.3057 16.9536 56.3683 16.9687C56.4153 16.9687 56.4623 16.9989 56.5093 17.0292C56.5564 17.0594 56.5877 17.0896 56.619 17.15C56.6504 17.1953 56.666 17.2709 56.666 17.3464V20.2322H55.9766" fill="#878787"/>
<path d="M60.6091 20.2019H60.0293L58.5878 18.0716V20.2019H57.9297V16.9687C57.961 16.9536 58.008 16.9536 58.0707 16.9536C58.1177 16.9536 58.1804 16.9384 58.2431 16.9384C58.3528 16.9384 58.4311 16.9536 58.4938 16.9838C58.5565 17.014 58.6035 17.0744 58.6505 17.15L59.951 19.1896V16.9536C59.998 16.9536 60.045 16.9384 60.0764 16.9384C60.1077 16.9233 60.1547 16.9233 60.1704 16.9233C60.2174 16.9233 60.2644 16.9233 60.3271 16.9384C60.3741 16.9536 60.4211 16.9687 60.4681 16.9989C60.5151 17.0291 60.5464 17.0593 60.5778 17.1046C60.6091 17.15 60.6091 17.2255 60.6091 17.3011" fill="#878787"/>
<path d="M64.5265 17.4975H63.461C63.4453 17.4673 63.4453 17.422 63.4453 17.4069C63.4453 17.3767 63.4453 17.3465 63.4453 17.3162C63.4453 17.2256 63.4767 17.1501 63.5393 17.0745C63.602 16.999 63.7117 16.9688 63.8684 16.9688H66.2344C66.2501 17.0292 66.2501 17.1047 66.2501 17.1803C66.2501 17.2709 66.2187 17.3465 66.1561 17.4069C66.0934 17.4824 65.9837 17.5127 65.827 17.5127H65.2003V20.2171H64.5108" fill="#878787"/>
<path d="M69.0753 19.6882C69.232 19.6882 69.3417 19.7185 69.4043 19.794C69.467 19.8695 69.4983 19.9451 69.4983 20.0357C69.4983 20.066 69.4983 20.0962 69.4983 20.1264C69.4983 20.1415 69.4983 20.1717 69.4827 20.2019H67.3047V16.9536H69.4043C69.4043 16.9838 69.42 17.014 69.42 17.0443C69.42 17.0745 69.42 17.1047 69.42 17.1349C69.42 17.2407 69.3887 17.3313 69.326 17.3918C69.2633 17.4522 69.1536 17.4824 68.9813 17.4824H67.9941V18.2832H69.0596V18.7968H67.9941V19.6882" fill="#878787"/>
<path d="M71.707 19.1292L71.0646 20.2019H70.3125L71.3153 18.5853L70.4379 17.0442C70.5005 17.014 70.5789 16.9838 70.6415 16.9687C70.7199 16.9536 70.7982 16.9385 70.8766 16.9385C71.0646 16.9385 71.19 17.014 71.284 17.1802L71.7697 18.0565L72.2711 17.2255C72.3338 17.1198 72.3965 17.0442 72.4748 16.9989C72.5375 16.9536 72.6315 16.9385 72.7412 16.9385C72.8039 16.9385 72.8665 16.9536 72.9292 16.9687C72.9762 16.9838 73.0389 17.014 73.1016 17.0442L72.1614 18.5702L73.1486 20.1868C73.0859 20.217 73.0076 20.2321 72.9449 20.2472C72.8822 20.2623 72.8039 20.2623 72.7569 20.2623C72.6315 20.2623 72.5218 20.2321 72.4435 20.1868C72.3651 20.1415 72.3025 20.0659 72.2555 19.9602" fill="#878787"/>
<path d="M74.9327 17.4975H73.8829C73.8829 17.4673 73.8672 17.422 73.8672 17.4069C73.8672 17.3767 73.8672 17.3465 73.8672 17.3162C73.8672 17.2256 73.8985 17.1501 73.9612 17.0745C74.0239 16.999 74.1336 16.9688 74.2903 16.9688H76.6563C76.6719 17.0292 76.6719 17.1047 76.6719 17.1803C76.6719 17.2709 76.6406 17.3465 76.5779 17.4069C76.5153 17.4824 76.4056 17.5127 76.2645 17.5127H75.6221V20.2171H74.9327" fill="#878787"/>
<path d="M77.6875 16.9687C77.7345 16.9687 77.7815 16.9536 77.8285 16.9536C77.8755 16.9536 77.9069 16.9536 77.9382 16.9536C77.9852 16.9536 78.0479 16.9536 78.0949 16.9687C78.1419 16.9687 78.1889 16.9989 78.2359 17.0292C78.2829 17.0594 78.3143 17.0896 78.3456 17.15C78.3769 17.1953 78.3926 17.2709 78.3926 17.3464V20.2322H77.7032" fill="#878787"/>
<path d="M80.4004 19.6731H81.3875C81.4659 19.6731 81.5286 19.6882 81.5912 19.7033C81.6539 19.7184 81.6853 19.7487 81.7166 19.7789C81.7479 19.8091 81.7636 19.8544 81.7793 19.8997C81.7949 19.9451 81.7949 19.9753 81.7949 20.0206V20.1415C81.7949 20.1868 81.7949 20.217 81.7793 20.217H79.7109V16.9687C79.7579 16.9687 79.805 16.9536 79.852 16.9536C79.899 16.9536 79.9303 16.9385 79.9616 16.9385C80.0087 16.9385 80.0557 16.9385 80.1183 16.9536C80.1653 16.9536 80.2124 16.9838 80.275 17.014C80.322 17.0442 80.3534 17.0745 80.3847 17.1198C80.4161 17.1651 80.4317 17.2406 80.4317 17.3162" fill="#878787"/>
<path d="M84.6769 19.6882C84.8336 19.6882 84.9432 19.7185 85.0059 19.794C85.0686 19.8695 85.0999 19.9451 85.0999 20.0357C85.0999 20.066 85.0999 20.0962 85.0999 20.1264C85.0999 20.1415 85.0999 20.1717 85.0843 20.2019H82.9062V16.9536H85.0059C85.0059 16.9838 85.0216 17.014 85.0216 17.0443C85.0216 17.0745 85.0216 17.1047 85.0216 17.1349C85.0216 17.2407 84.9902 17.3313 84.9276 17.3918C84.8649 17.4522 84.7552 17.4824 84.5828 17.4824H83.5957V18.2832H84.6612V18.7968H83.5957V19.6882" fill="#878787"/>
<path d="M86.1959 19.4615C86.2899 19.537 86.3996 19.5975 86.5406 19.673C86.6816 19.7486 86.8383 19.7788 87.0263 19.7788C87.089 19.7788 87.1674 19.7788 87.23 19.7637C87.2927 19.7486 87.3554 19.7184 87.4024 19.6881C87.4494 19.6579 87.4964 19.6126 87.5278 19.5522C87.5591 19.4917 87.5748 19.4313 87.5748 19.3406C87.5748 19.25 87.5591 19.1896 87.5278 19.1291C87.4964 19.0687 87.4494 19.0234 87.3867 18.978C87.3241 18.9327 87.2614 18.9025 87.1674 18.8723C87.089 18.8421 87.0107 18.8118 86.9167 18.7816C86.807 18.7514 86.6973 18.7061 86.5876 18.6608C86.4779 18.6154 86.3839 18.555 86.2899 18.4946C86.1959 18.419 86.1332 18.3435 86.0705 18.2377C86.0235 18.132 85.9922 17.996 85.9922 17.8449C85.9922 17.6938 86.0235 17.5578 86.0862 17.437C86.1489 17.3161 86.2272 17.2255 86.3526 17.1348C86.4623 17.0593 86.5876 16.9988 86.7286 16.9535C86.8697 16.9082 87.0263 16.8931 87.183 16.8931C87.2927 16.8931 87.4024 16.8931 87.4964 16.9082C87.5904 16.9233 87.6844 16.9535 87.7628 16.9686C87.8411 16.9837 87.9038 17.0139 87.9508 17.0442C87.9978 17.0744 88.0448 17.0895 88.0762 17.1197C88.1702 17.165 88.2172 17.2406 88.2172 17.3312C88.2172 17.3765 88.2015 17.4219 88.1702 17.4823C88.1389 17.5427 88.0918 17.6183 88.0292 17.6787C87.9508 17.6183 87.8411 17.5578 87.7001 17.4974C87.5748 17.437 87.4337 17.4068 87.2771 17.4068C87.2144 17.4068 87.1517 17.4068 87.089 17.4219C87.0263 17.437 86.9637 17.4521 86.9167 17.4823C86.8697 17.5125 86.8226 17.5427 86.7913 17.6032C86.76 17.6485 86.7443 17.7089 86.7443 17.7845C86.7443 17.86 86.76 17.9053 86.7913 17.9658C86.8226 18.0111 86.8697 18.0564 86.9323 18.1017C86.9793 18.132 87.0577 18.1773 87.136 18.2075C87.2144 18.2377 87.2927 18.2679 87.3711 18.2982C87.4807 18.3435 87.5904 18.3737 87.7001 18.419C87.8098 18.4643 87.9195 18.5248 87.9978 18.5852C88.0918 18.6608 88.1545 18.7363 88.2172 18.8421C88.2799 18.9478 88.3112 19.0838 88.3112 19.2349C88.3112 19.4011 88.2799 19.5522 88.2172 19.6881C88.1545 19.8241 88.0762 19.9299 87.9665 20.0205C87.8568 20.1112 87.7158 20.1716 87.5748 20.2169C87.4181 20.2623 87.2457 20.2774 87.0577 20.2774C86.8226 20.2774 86.6189 20.2623 86.4779 20.2018C86.3369 20.1565 86.2272 20.1112 86.1489 20.081C86.1175 20.0507 86.0705 20.0205 86.0549 19.9903C86.0235 19.9601 86.0079 19.9148 86.0079 19.8694C86.0079 19.809 86.0235 19.7486 86.0705 19.673C86.0862 19.5975 86.1332 19.5219 86.1959 19.4615Z" fill="#878787"/>
<path d="M26.3119 9.48996C26.3119 10.1094 26.2336 10.6986 26.0769 11.2577C25.9359 11.8016 25.6852 12.3001 25.3561 12.7081C25.0271 13.1311 24.5883 13.4484 24.0869 13.6901C23.5698 13.9319 22.9431 14.0527 22.2066 14.0527C21.4859 14.0527 20.8748 13.9319 20.3577 13.6901C19.8406 13.4484 19.4332 13.116 19.1042 12.693C18.7751 12.2699 18.5401 11.7864 18.3991 11.2425C18.2424 10.6986 18.1797 10.1094 18.1797 9.50507C18.1797 8.90073 18.258 8.32661 18.4147 7.79781C18.5871 7.25391 18.8221 6.78554 19.1668 6.3625C19.5116 5.95458 19.9346 5.62219 20.4517 5.39556C20.9688 5.15383 21.5799 5.03296 22.3007 5.03296C23.0058 5.03296 23.6012 5.15383 24.1183 5.38045C24.6353 5.60708 25.0271 5.92436 25.3561 6.31718C25.6695 6.72511 25.9202 7.19347 26.0612 7.73738C26.2336 8.26617 26.3119 8.8554 26.3119 9.48996ZM24.416 9.50507C24.416 9.09714 24.3846 8.70432 24.3063 8.32661C24.2436 7.964 24.1183 7.63162 23.9459 7.34456C23.7735 7.0726 23.5542 6.84598 23.2878 6.67978C23.0214 6.51359 22.6767 6.43805 22.3007 6.43805C21.8933 6.43805 21.5329 6.51359 21.2665 6.67978C20.9845 6.84598 20.7494 7.0726 20.5927 7.34456C20.4047 7.63162 20.295 7.9489 20.201 8.32661C20.1227 8.68921 20.0913 9.08203 20.0913 9.50507C20.0913 9.92811 20.1383 10.3058 20.201 10.6986C20.2793 11.0764 20.4047 11.4087 20.5614 11.7109C20.7337 11.998 20.9531 12.2397 21.2352 12.4059C21.5172 12.5721 21.8619 12.6627 22.2536 12.6627C22.661 12.6627 23.0058 12.5721 23.2721 12.4059C23.5385 12.2397 23.7735 11.998 23.9302 11.7109C24.0869 11.4087 24.2123 11.0764 24.2906 10.6986C24.3846 10.3058 24.416 9.913 24.416 9.50507Z" fill="#878787"/>
<path d="M32.5992 12.4664C33.0222 12.4664 33.3199 12.557 33.4766 12.7534C33.6333 12.9347 33.7117 13.1614 33.7117 13.388C33.7117 13.4937 33.7117 13.5693 33.7117 13.6297C33.7117 13.6902 33.696 13.7657 33.696 13.8412H27.8984V5.18408H33.4766C33.4923 5.27473 33.508 5.35028 33.508 5.42582C33.5236 5.48625 33.5236 5.56179 33.5236 5.66755C33.5236 5.96972 33.4296 6.19635 33.2729 6.34743C33.1162 6.49852 32.8185 6.57406 32.3798 6.57406H29.7317V8.70436H32.5835V10.0792H29.7317V12.4664" fill="#878787"/>
<path d="M34.9141 5.19911C35.0394 5.184 35.1648 5.16889 35.2745 5.15378C35.3998 5.13867 35.4938 5.13867 35.5565 5.13867C35.6975 5.13867 35.8229 5.15378 35.9639 5.184C36.1049 5.19911 36.2303 5.25954 36.3556 5.33508C36.4653 5.41062 36.575 5.51638 36.6533 5.63725C36.716 5.77323 36.7473 5.93942 36.7473 6.15094V9.26328C36.7787 9.06687 36.8257 8.87046 36.9354 8.70427C37.0451 8.50786 37.1704 8.32656 37.3114 8.16037L39.1447 5.83366C39.3484 5.57682 39.5521 5.39552 39.7715 5.28976C39.9752 5.184 40.1945 5.13867 40.4139 5.13867C40.6489 5.13867 40.8526 5.16889 41.0563 5.24443C41.2287 5.31997 41.3854 5.41062 41.5107 5.53149L38.5493 9.33883L41.8711 13.6901C41.5264 13.8865 41.166 13.9922 40.8213 13.9922C40.2259 13.9922 39.7401 13.7656 39.3798 13.3124L37.4211 10.8648C37.2488 10.6533 37.1077 10.4417 36.9824 10.2C36.8414 9.97338 36.7787 9.73165 36.763 9.48991V13.8412H34.9297" fill="#878787"/>
<path d="M49.9759 9.4902C49.9759 10.1097 49.8976 10.6989 49.7409 11.2579C49.5842 11.8018 49.3492 12.3004 49.0201 12.7083C48.6911 13.1313 48.268 13.4486 47.7509 13.6904C47.2339 13.9321 46.6071 14.053 45.8863 14.053C45.1499 14.053 44.5388 13.9321 44.0374 13.6904C43.5203 13.4486 43.0972 13.1162 42.7838 12.6932C42.4548 12.2702 42.2354 11.7867 42.0787 11.2428C41.9221 10.6989 41.8594 10.1097 41.8594 9.50531C41.8594 8.90097 41.9377 8.32685 42.1101 7.79805C42.2668 7.25415 42.5175 6.78579 42.8622 6.36275C43.2069 5.95482 43.63 5.62243 44.1471 5.39581C44.6641 5.15407 45.2752 5.0332 45.996 5.0332C46.7011 5.0332 47.3122 5.15407 47.8136 5.3807C48.315 5.60733 48.7381 5.9246 49.0515 6.31742C49.3805 6.72535 49.6156 7.19372 49.7566 7.73762C49.8976 8.26642 49.9759 8.85565 49.9759 9.4902ZM48.0957 9.50531C48.0957 9.09738 48.0643 8.70456 47.986 8.32685C47.9076 7.96425 47.7979 7.63186 47.6256 7.3448C47.4532 7.07285 47.2339 6.84622 46.9675 6.68003C46.7011 6.51383 46.3721 6.43829 45.9803 6.43829C45.5729 6.43829 45.2126 6.51383 44.9462 6.68003C44.6641 6.84622 44.4291 7.07285 44.2567 7.3448C44.0844 7.63186 43.959 7.94914 43.8807 8.32685C43.8023 8.68945 43.7553 9.08228 43.7553 9.50531C43.7553 9.92835 43.8023 10.3061 43.8807 10.6989C43.959 11.0766 44.0687 11.409 44.2411 11.7112C44.4134 11.9982 44.6328 12.2399 44.9148 12.4061C45.1812 12.5723 45.5259 12.663 45.9333 12.663C46.3251 12.663 46.6698 12.5723 46.9518 12.4061C47.2182 12.2399 47.4376 11.9982 47.6099 11.7112C47.7823 11.409 47.9076 11.0766 47.986 10.6989C48.0643 10.3061 48.0957 9.91324 48.0957 9.50531Z" fill="#878787"/>
<path d="M52.4636 10.8949C51.8212 10.8949 51.5078 10.6229 51.5078 10.079C51.5078 9.89773 51.5078 9.70132 51.5392 9.52002H54.8923C55.19 9.52002 55.4251 9.56535 55.6131 9.656C55.8011 9.74665 55.8951 9.97327 55.8951 10.3208V10.5927C55.8795 10.6834 55.8795 10.774 55.8795 10.8647" fill="#878787"/>
<path d="M58.3049 6.63452H55.5158V6.61941C55.4845 6.51366 55.4845 6.43811 55.4688 6.36257C55.4688 6.30214 55.4531 6.21149 55.4531 6.12084C55.4531 5.89421 55.5315 5.68269 55.7195 5.48628C55.8919 5.28987 56.1896 5.19922 56.597 5.19922H62.896C62.9273 5.38052 62.9273 5.56182 62.9273 5.75823C62.9273 5.98486 62.8489 6.19638 62.6923 6.37768C62.5356 6.55898 62.2379 6.64963 61.8305 6.64963H60.1382V13.8564H58.2892" fill="#878787"/>
<path d="M68.6461 12.4664C69.0848 12.4664 69.3669 12.557 69.5235 12.7534C69.6802 12.9347 69.7586 13.1614 69.7586 13.388V13.6297C69.7429 13.6902 69.7429 13.7657 69.7272 13.8412H63.9297V5.18408H69.5235C69.5392 5.27473 69.5549 5.35028 69.5706 5.42582C69.5706 5.48625 69.5862 5.56179 69.5862 5.66755C69.5862 5.96972 69.4922 6.19635 69.3512 6.34743C69.1945 6.49852 68.8811 6.57406 68.4424 6.57406H65.81V8.70436H68.6461V10.0792H65.81V12.4664" fill="#878787"/>
<path d="M73.9167 10.9857L72.2088 13.8412H70.2031L72.8512 9.53526L70.5008 5.42576C70.6889 5.35022 70.8769 5.27468 71.0649 5.22935C71.253 5.18403 71.4567 5.15381 71.676 5.15381C72.1618 5.15381 72.5222 5.36533 72.7415 5.78836L74.0421 8.11507L75.3583 5.92434C75.5306 5.65239 75.703 5.45598 75.8753 5.33511C76.0477 5.21424 76.2984 5.15381 76.5961 5.15381C76.7842 5.15381 76.9565 5.16892 77.0975 5.21424C77.2542 5.24446 77.4109 5.30489 77.5833 5.39554L75.0919 9.45972L77.7086 13.7959C77.5363 13.8563 77.3639 13.9016 77.1602 13.9318C76.9722 13.962 76.7998 13.9923 76.6588 13.9923C76.2984 13.9923 76.0164 13.9167 75.8283 13.7807C75.6403 13.6448 75.4679 13.4484 75.3269 13.1915" fill="#878787"/>
<path d="M84.4117 6.09071C86.4017 6.09071 88 7.64688 88 9.55055C88 11.4542 86.386 13.0104 84.4117 13.0104C82.4374 13.0104 80.8235 11.4542 80.8235 9.55055C80.8235 7.63177 82.4374 6.09071 84.4117 6.09071ZM84.4117 4.98779C81.795 4.98779 79.6797 7.02744 79.6797 9.55055C79.6797 12.0737 81.795 14.1133 84.4117 14.1133C87.0285 14.1133 89.1438 12.0737 89.1438 9.55055C89.1595 7.02744 87.0285 4.98779 84.4117 4.98779Z" fill="#878787"/>
<path d="M86.1339 8.50828C86.1339 8.70469 86.1182 8.85578 86.0712 9.00686C86.0242 9.14284 85.9615 9.27882 85.8675 9.38458C85.7892 9.49034 85.6951 9.58099 85.5855 9.65653C85.4915 9.73207 85.3818 9.7774 85.2564 9.82272L86.4003 11.666C86.3062 11.6962 86.2122 11.7264 86.1182 11.7566C86.0242 11.7717 85.9302 11.7868 85.8362 11.7868C85.6638 11.7868 85.5228 11.7566 85.4131 11.6811C85.3034 11.6055 85.1937 11.4998 85.0997 11.3336L84.3163 10.0342H83.9246V11.7113H82.9688V7.25428C83.1881 7.23917 83.3918 7.22406 83.6112 7.20896C83.8305 7.19385 84.0186 7.19385 84.1909 7.19385C84.8647 7.19385 85.3504 7.29961 85.6638 7.52623C85.9772 7.73775 86.1339 8.05503 86.1339 8.50828ZM85.1467 8.58383C85.1467 8.31187 85.0684 8.11546 84.9274 7.9946C84.7707 7.88884 84.567 7.8284 84.3006 7.8284C84.2066 7.8284 84.1439 7.8284 84.0812 7.8284C84.0186 7.8284 83.9716 7.8284 83.9246 7.84351V9.38458H84.2536C84.52 9.38458 84.7393 9.30903 84.9117 9.18817C85.0684 9.0673 85.1467 8.87089 85.1467 8.58383Z" fill="#878787"/>
<path d="M101.363 36.2168C100.564 36.2168 99.9217 35.5823 99.9217 34.8269C99.9217 34.1772 100.392 33.4822 101.222 32.8779C101.144 32.7721 101.05 32.6664 100.987 32.5606C100.627 32.6361 100.235 32.6512 99.8277 32.5908C99.4673 32.5455 99.1226 32.5153 98.7779 32.5153C98.8563 33.18 98.8563 33.875 98.4959 34.4492C98.1041 35.0837 97.1797 35.3406 96.5059 34.9628C95.8165 34.5851 95.5814 33.7239 95.9731 33.0441C96.3022 32.4851 97.0856 32.1073 98.1198 31.9865C98.1041 31.8505 98.0885 31.7296 98.0728 31.5937C97.7281 31.4879 97.3677 31.3066 97.0543 31.0497C96.7723 30.8382 96.4746 30.6418 96.1768 30.4756C95.8948 31.0951 95.5344 31.6843 94.9233 32.0318C94.2495 32.4095 93.3251 32.1678 92.949 31.5181C92.5573 30.8533 92.7923 29.9922 93.4818 29.5993C94.0615 29.2669 94.9233 29.3274 95.8791 29.7202C95.9261 29.5993 95.9888 29.4785 96.0358 29.3576C95.7851 29.0856 95.5814 28.7684 95.4404 28.4058C95.2994 28.0734 95.1584 27.7712 94.9703 27.4841C94.4062 27.877 93.7951 28.2245 93.09 28.2245C92.2909 28.2245 91.6328 27.5899 91.6328 26.8194C91.6328 26.0488 92.2752 25.4143 93.09 25.4143C93.7638 25.4143 94.4846 25.8675 95.1113 26.6683C95.221 26.5927 95.3307 26.5172 95.4404 26.4266C95.3621 26.0791 95.3464 25.7013 95.4091 25.3085C95.4717 24.961 95.4874 24.6286 95.4874 24.2963C95.268 24.3114 95.0643 24.3265 94.845 24.3265C94.2966 24.3265 93.8578 24.2207 93.4818 24.0243C93.137 23.843 92.902 23.5408 92.808 23.1782C92.714 22.8156 92.761 22.4379 92.949 22.1206C93.3251 21.4861 94.2495 21.2292 94.9233 21.607C95.5187 21.9393 95.9105 22.6797 96.0201 23.6768C96.1612 23.6617 96.2865 23.6466 96.4275 23.6315C96.5372 23.2991 96.7253 22.9516 96.9916 22.6494C97.2267 22.3775 97.4147 22.0904 97.5871 21.8034C96.9446 21.5314 96.3335 21.1839 95.9888 20.5947C95.5971 19.9299 95.8321 19.0687 96.5216 18.691C97.1953 18.3133 98.1198 18.555 98.5115 19.2047C98.8562 19.7637 98.8092 20.5947 98.4018 21.5163C98.5272 21.5616 98.6526 21.6221 98.7779 21.6674C99.0443 21.4256 99.389 21.2292 99.7807 21.0933C100.11 20.9724 100.423 20.8213 100.721 20.6551C100.313 20.1112 99.9531 19.5069 99.9531 18.8421C99.9531 18.0716 100.611 17.437 101.395 17.437C102.194 17.437 102.852 18.0716 102.852 18.8421C102.852 19.4918 102.382 20.1868 101.551 20.7911C101.63 20.8969 101.708 21.0026 101.786 21.1084C102.147 21.0328 102.538 21.0328 102.946 21.0933C103.306 21.1386 103.651 21.1688 103.996 21.1688C103.917 20.4889 103.917 19.809 104.278 19.2198C104.669 18.5701 105.594 18.3435 106.252 18.7061C106.941 19.0838 107.192 19.945 106.785 20.6098C106.456 21.1688 105.688 21.5465 104.654 21.6674C104.669 21.8034 104.685 21.9242 104.701 22.0451C105.046 22.1509 105.406 22.3322 105.719 22.589C106.001 22.8156 106.299 22.9969 106.597 23.1631C106.879 22.5437 107.239 21.9544 107.835 21.6221C108.508 21.2443 109.433 21.4861 109.825 22.1357C110.013 22.4681 110.075 22.8458 109.966 23.1933C109.856 23.5559 109.621 23.8581 109.292 24.0394C108.712 24.3567 107.835 24.3114 106.894 23.9185C106.847 24.0394 106.785 24.1603 106.738 24.2811C106.988 24.538 107.192 24.8704 107.333 25.233C107.459 25.5503 107.615 25.8675 107.803 26.1395C108.367 25.7467 108.978 25.3992 109.684 25.3992C110.483 25.3992 111.125 26.0186 111.125 26.8043C111.125 27.5899 110.483 28.2094 109.684 28.2094C109.01 28.2094 108.289 27.7561 107.662 26.9554C107.553 27.0309 107.443 27.1215 107.333 27.1971C107.412 27.5446 107.412 27.9223 107.349 28.3151C107.302 28.6626 107.271 28.995 107.286 29.3274C107.506 29.3123 107.725 29.2972 107.944 29.2972C108.493 29.2972 108.931 29.4029 109.308 29.5993C109.997 29.9922 110.248 30.8382 109.84 31.5181C109.449 32.1527 108.524 32.4095 107.85 32.0318C107.271 31.6994 106.879 30.9591 106.753 29.9619C106.612 29.977 106.487 29.9922 106.346 30.0073C106.236 30.3396 106.048 30.6871 105.782 30.9893C105.547 31.2613 105.359 31.5332 105.187 31.8354C105.829 32.1073 106.44 32.4548 106.785 33.029C107.192 33.6937 106.957 34.5549 106.252 34.9477C105.578 35.3254 104.654 35.0837 104.278 34.434C103.949 33.8599 103.996 33.0441 104.403 32.1073C104.278 32.062 104.152 32.0016 104.027 31.9563C103.761 32.198 103.416 32.3944 103.04 32.5455C102.695 32.6664 102.382 32.8174 102.1 32.9836C102.507 33.5275 102.868 34.1319 102.868 34.7966C102.821 35.5974 102.178 36.2168 101.363 36.2168ZM101.583 33.316C100.909 33.7995 100.517 34.3585 100.517 34.8269C100.517 35.2801 100.909 35.6578 101.379 35.6578C101.865 35.6578 102.256 35.2801 102.256 34.8269C102.241 34.2981 101.943 33.7995 101.583 33.316ZM104.905 32.3491C104.575 33.1045 104.513 33.7693 104.763 34.1621C104.999 34.5549 105.547 34.6909 105.954 34.4643C106.362 34.2376 106.503 33.7239 106.268 33.316C105.986 32.8779 105.469 32.5908 104.905 32.3491ZM98.1825 32.5455C97.352 32.6512 96.7253 32.9232 96.4746 33.3311C96.2395 33.7391 96.3805 34.2527 96.7879 34.4794C97.1953 34.706 97.7437 34.5549 97.9788 34.1772C98.2608 33.7239 98.2608 33.1347 98.1825 32.5455ZM101.708 32.5606C102.037 32.3642 102.397 32.198 102.789 32.0469C103.024 31.9563 103.244 31.8354 103.432 31.6994C103.212 31.5634 103.009 31.3972 102.883 31.1857C102.617 30.7476 102.774 30.1886 103.228 29.9468C103.682 29.7051 104.262 29.8713 104.513 30.2792C104.748 30.6569 104.701 31.1102 104.403 31.5483C104.481 31.5785 104.544 31.6088 104.622 31.639C104.81 31.3066 105.03 30.9893 105.296 30.672C105.453 30.4756 105.578 30.2641 105.688 30.0526C105.375 30.0375 105.124 29.977 104.936 29.8713C104.481 29.6144 104.34 29.0705 104.591 28.6324C104.842 28.2094 105.453 28.0583 105.876 28.3C106.268 28.5115 106.471 28.9346 106.44 29.4482C106.518 29.4482 106.597 29.4331 106.675 29.418C106.659 29.0403 106.691 28.6475 106.753 28.2547C106.785 28.0129 106.8 27.7712 106.769 27.5446C106.534 27.6654 106.283 27.7561 106.017 27.7561C105.5 27.7561 105.077 27.3482 105.077 26.8496C105.077 26.351 105.5 25.9431 106.017 25.9431C106.471 25.9431 106.863 26.215 107.098 26.6683C107.161 26.623 107.224 26.5776 107.286 26.5323C107.083 26.215 106.91 25.8524 106.753 25.4898C106.659 25.2632 106.534 25.0517 106.393 24.8704C106.252 25.0819 106.08 25.2783 105.845 25.4143C105.406 25.656 104.81 25.5049 104.56 25.0819C104.434 24.8704 104.403 24.6286 104.466 24.3869C104.528 24.1452 104.685 23.9639 104.905 23.843C105.281 23.6315 105.766 23.6768 106.221 23.9488C106.252 23.8732 106.283 23.8128 106.315 23.7372C105.97 23.5559 105.641 23.3444 105.312 23.0876C105.108 22.9365 104.889 22.8005 104.685 22.7099C104.669 22.9667 104.622 23.2236 104.497 23.4351C104.246 23.843 103.651 24.0092 103.212 23.7675C102.758 23.5106 102.601 22.9516 102.868 22.5286C103.087 22.1509 103.526 21.9544 104.058 21.9847C104.043 21.9091 104.043 21.8336 104.027 21.758V21.7429C103.651 21.758 103.228 21.7278 102.821 21.6674C102.554 21.6372 102.303 21.6221 102.084 21.6523C102.225 21.8789 102.319 22.1206 102.319 22.3775C102.319 22.8761 101.896 23.284 101.379 23.284C100.862 23.284 100.439 22.8761 100.439 22.3775C100.439 21.9393 100.721 21.5616 101.191 21.335C101.144 21.2746 101.097 21.2141 101.05 21.1537C100.721 21.3501 100.36 21.5163 99.9688 21.6674C99.7337 21.758 99.5144 21.8789 99.3263 22.0149C99.5457 22.1509 99.7494 22.317 99.8904 22.5286C100.141 22.9667 99.9844 23.5257 99.5457 23.7675C99.4047 23.843 99.248 23.8883 99.0756 23.8883C98.7466 23.8883 98.4175 23.707 98.2608 23.4351C98.0415 23.0574 98.0885 22.6041 98.3705 22.166C98.2922 22.1357 98.2295 22.1055 98.1511 22.0753C97.9631 22.4077 97.7437 22.725 97.4774 23.0423C97.3207 23.2387 97.1797 23.4502 97.1013 23.6466C97.4147 23.6617 97.6654 23.7221 97.8534 23.8279C98.0728 23.9488 98.2295 24.1452 98.2922 24.3718C98.3548 24.6135 98.3235 24.8553 98.1981 25.0668C97.9474 25.4898 97.352 25.6409 96.9133 25.3992C96.5216 25.1877 96.3179 24.7646 96.3492 24.2509C96.2709 24.266 96.1925 24.266 96.1142 24.2811C96.1142 24.6589 96.0985 25.0517 96.0358 25.4445C96.0045 25.6862 96.0045 25.928 96.0201 26.1546C96.2552 26.0337 96.5059 25.9431 96.7723 25.9431C97.2893 25.9431 97.7124 26.351 97.7124 26.8496C97.7124 27.3482 97.2893 27.7561 96.7723 27.7561C96.3179 27.7561 95.9418 27.4841 95.6911 27.0309C95.6284 27.0762 95.5657 27.1215 95.5031 27.1669C95.7068 27.4841 95.8791 27.8468 96.0358 28.2094C96.1298 28.436 96.2552 28.6475 96.3962 28.8288C96.5372 28.6173 96.7096 28.4209 96.9446 28.2849C97.3677 28.0432 97.9788 28.1942 98.2295 28.6173C98.4959 29.0554 98.3392 29.6144 97.8848 29.8713C97.5087 30.0828 97.023 30.0375 96.5686 29.7655C96.5372 29.8411 96.5059 29.9015 96.4746 29.977C96.8193 30.1583 97.1483 30.385 97.4774 30.6267C97.6811 30.7778 97.9004 30.9138 98.1041 31.0044C98.1198 30.7627 98.1668 30.4907 98.2922 30.2792C98.5429 29.8713 99.1383 29.7051 99.577 29.9468C100.016 30.1886 100.188 30.7476 99.9217 31.1857C99.7024 31.5634 99.248 31.7447 98.7309 31.7296C98.7309 31.8052 98.7466 31.8807 98.7622 31.9563C99.154 31.9563 99.5614 31.9714 99.9688 32.0318C100.235 32.0771 100.486 32.0771 100.705 32.0469C100.58 31.8203 100.486 31.5785 100.486 31.3217C100.486 30.8231 100.909 30.4152 101.426 30.4152C101.943 30.4152 102.366 30.8231 102.366 31.3217C102.366 31.7598 102.084 32.1376 101.614 32.3642C101.614 32.4246 101.661 32.4851 101.708 32.5606ZM101.363 30.9742C101.16 30.9742 101.003 31.1253 101.003 31.3217C101.003 31.4728 101.066 31.6692 101.222 31.8958C101.551 31.7598 101.724 31.5483 101.724 31.3217C101.739 31.1253 101.583 30.9742 101.363 30.9742ZM107.286 29.9166C107.38 30.7325 107.678 31.3368 108.101 31.5634C108.508 31.7901 109.057 31.639 109.292 31.2462C109.527 30.8382 109.386 30.3245 108.963 30.0979C108.681 29.9468 108.352 29.8713 107.897 29.8713C107.694 29.8864 107.49 29.9015 107.286 29.9166ZM94.4219 29.9619C94.1712 29.9619 93.9518 30.0073 93.7795 30.0979C93.3564 30.3245 93.2154 30.8382 93.4661 31.2462C93.7011 31.639 94.2495 31.775 94.6569 31.5483C95.127 31.2915 95.4247 30.7778 95.6754 30.2339C95.2054 30.0677 94.7823 29.9619 94.4219 29.9619ZM103.682 30.3699C103.62 30.3699 103.557 30.385 103.51 30.4152C103.338 30.5058 103.275 30.7325 103.385 30.8987C103.463 31.0346 103.62 31.1555 103.87 31.2915C104.074 31.0195 104.137 30.7476 104.011 30.5512C103.949 30.4454 103.823 30.3699 103.682 30.3699ZM98.6212 31.1555C98.8719 31.1706 99.201 31.1706 99.3577 30.8987C99.4517 30.7325 99.389 30.521 99.2166 30.4152C99.0443 30.3245 98.8249 30.385 98.7309 30.5512C98.6526 30.6871 98.6212 30.8836 98.6212 31.1555ZM105.39 28.7382C105.265 28.7382 105.14 28.8137 105.077 28.9195C104.983 29.0856 105.046 29.2972 105.218 29.4029C105.359 29.4785 105.563 29.5087 105.845 29.5087C105.892 29.1612 105.782 28.9043 105.578 28.7986C105.516 28.7533 105.453 28.7382 105.39 28.7382ZM96.7566 29.2518C97.0386 29.4482 97.3207 29.5087 97.5244 29.3878C97.6967 29.2972 97.7594 29.0705 97.6654 28.9043C97.5714 28.7533 97.3363 28.6928 97.164 28.7835C97.0386 28.859 96.8976 29.0101 96.7566 29.2518ZM108.085 26.6532C108.587 27.3028 109.166 27.6806 109.637 27.6806C110.107 27.6806 110.514 27.3028 110.514 26.8345C110.514 26.3661 110.122 26.0035 109.637 26.0035C109.104 26.0035 108.587 26.3057 108.085 26.6532ZM93.1057 26.0035C92.62 26.0035 92.2282 26.3812 92.2282 26.8345C92.2282 27.3028 92.62 27.6806 93.1057 27.6806C93.6541 27.6806 94.1712 27.3784 94.6569 27.0309C94.1555 26.3963 93.5758 26.0035 93.1057 26.0035ZM106.017 26.5021C105.813 26.5021 105.657 26.6532 105.657 26.8496C105.657 27.046 105.829 27.1971 106.017 27.1971C106.174 27.1971 106.362 27.1367 106.612 26.9856C106.471 26.6834 106.252 26.5021 106.017 26.5021ZM96.1298 26.6985C96.2709 27.0158 96.4902 27.182 96.7253 27.182C96.929 27.182 97.0856 27.0309 97.0856 26.8345C97.0856 26.6381 96.929 26.487 96.7253 26.487C96.5686 26.5021 96.3805 26.5625 96.1298 26.6985ZM105.453 24.2509C105.359 24.2509 105.281 24.266 105.218 24.3114C105.14 24.3567 105.077 24.4322 105.046 24.5229C105.03 24.6135 105.03 24.7042 105.077 24.7948C105.171 24.961 105.406 25.0215 105.578 24.9157C105.719 24.8402 105.845 24.6891 105.986 24.4473C105.798 24.3114 105.625 24.2509 105.453 24.2509ZM96.9133 24.1905C96.8819 24.5229 96.976 24.7948 97.1797 24.9006C97.352 24.9912 97.5871 24.9308 97.6811 24.7646C97.7281 24.6891 97.7437 24.5984 97.7124 24.5078C97.6811 24.4171 97.6341 24.3416 97.5401 24.2963C97.3834 24.2207 97.1797 24.1754 96.9133 24.1905ZM94.2182 22.0149C93.9048 22.0149 93.6228 22.1811 93.4661 22.4379C93.3407 22.6343 93.3094 22.861 93.3721 23.0725C93.4348 23.284 93.5758 23.4653 93.7795 23.5862C94.0615 23.7372 94.4062 23.8128 94.845 23.8128C95.0487 23.8128 95.2524 23.7977 95.4561 23.7826C95.3464 22.9818 95.0643 22.3624 94.6413 22.1357C94.5159 22.0602 94.3592 22.0149 94.2182 22.0149ZM107.083 23.4502C107.85 23.7675 108.555 23.8279 108.963 23.5862C109.166 23.4804 109.308 23.2991 109.37 23.0725C109.433 22.861 109.402 22.6343 109.292 22.4379C109.057 22.0602 108.508 21.9091 108.101 22.1357C107.631 22.3926 107.333 22.9063 107.083 23.4502ZM103.98 22.5286C103.776 22.5286 103.526 22.5739 103.385 22.7854C103.338 22.861 103.322 22.9667 103.353 23.0574C103.369 23.148 103.432 23.2236 103.526 23.2689C103.698 23.3595 103.933 23.2991 104.027 23.1329C104.105 22.9969 104.137 22.8005 104.137 22.5286C104.074 22.5286 104.027 22.5286 103.98 22.5286ZM98.8876 22.4077C98.6839 22.6797 98.6212 22.9516 98.7466 23.148C98.8092 23.2538 98.9346 23.3293 99.0599 23.3293C99.1226 23.3293 99.1853 23.3142 99.248 23.284C99.4203 23.1782 99.483 22.9667 99.389 22.8005C99.2793 22.6645 99.1383 22.5286 98.8876 22.4077ZM101.52 21.8034C101.191 21.9393 101.003 22.1509 101.003 22.3775C101.003 22.5739 101.16 22.725 101.363 22.725C101.567 22.725 101.724 22.5739 101.724 22.3775C101.739 22.2113 101.661 22.03 101.52 21.8034ZM97.2423 19.0989C97.0856 19.0989 96.9446 19.1443 96.8036 19.2198C96.3805 19.4464 96.2395 19.9601 96.4902 20.3681C96.7566 20.8213 97.2893 21.1084 97.8534 21.3501C98.1825 20.5947 98.2452 19.9299 98.0101 19.5371C97.8378 19.2651 97.5557 19.0989 97.2423 19.0989ZM105.516 19.0989C105.202 19.0989 104.92 19.2651 104.763 19.522C104.481 19.9752 104.497 20.5645 104.56 21.1537C105.39 21.0479 106.033 20.7609 106.268 20.3681C106.503 19.9752 106.362 19.4615 105.954 19.2198C105.813 19.1443 105.657 19.0989 105.516 19.0989ZM101.363 18.0262C100.893 18.0262 100.502 18.404 100.502 18.8723C100.502 19.386 100.815 19.8997 101.175 20.3832C101.849 19.8846 102.241 19.3407 102.241 18.8723C102.241 18.404 101.849 18.0262 101.363 18.0262Z" fill="#878787"/>
<path d="M98.1094 26.6835C98.1407 26.2001 98.2817 25.7468 98.5011 25.3389H99.6136C99.5196 25.7619 99.4726 26.2152 99.4569 26.6835" fill="#F6A000"/>
<path d="M99.7059 28.6929C99.8156 29.1008 99.9723 29.4634 100.16 29.7656C99.5806 29.5389 99.0791 29.1612 98.7188 28.6929" fill="#F6A000"/>
<path d="M99.4725 27.0156C99.4882 27.484 99.5352 27.9372 99.6292 28.3603H98.5167C98.2974 27.9524 98.1407 27.4991 98.125 27.0156" fill="#F6A000"/>
<path d="M98.7344 25.0063C99.0948 24.5228 99.5962 24.1451 100.176 23.9185C99.9879 24.2206 99.8312 24.5832 99.7215 25.0063" fill="#F6A000"/>
<path d="M102.586 23.9185C103.166 24.1451 103.667 24.5228 104.028 25.0063H103.056C102.931 24.5832 102.774 24.2206 102.586 23.9185Z" fill="#F6A000"/>
<path d="M104.028 28.6929C103.667 29.1763 103.166 29.5541 102.586 29.7656C102.774 29.4634 102.931 29.1008 103.056 28.6929" fill="#F6A000"/>
<path d="M104.645 27.0156C104.614 27.4991 104.473 27.9524 104.238 28.3603H103.125C103.219 27.9372 103.266 27.484 103.282 27.0156" fill="#F6A000"/>
<path d="M104.238 25.3389C104.473 25.7317 104.614 26.2001 104.629 26.6835H103.282C103.266 26.2152 103.219 25.7619 103.125 25.3389" fill="#F6A000"/>
<path d="M100.744 23.7523C100.901 23.7221 101.057 23.707 101.214 23.6919V24.9912H100.07C100.243 24.4473 100.478 24.0243 100.744 23.7523Z" fill="#F6A000"/>
<path d="M99.8125 26.6835C99.8282 26.2001 99.8752 25.7468 99.9692 25.3389H101.191V26.6835" fill="#F6A000"/>
<path d="M99.9692 28.3603C99.8752 27.9675 99.8282 27.4991 99.8125 27.0156H101.207V28.3603" fill="#F6A000"/>
<path d="M101.214 29.9922C101.057 29.9771 100.901 29.962 100.744 29.9318C100.478 29.6598 100.243 29.2368 100.07 28.6929H101.214" fill="#F6A000"/>
<path d="M102.683 28.6928C102.511 29.2367 102.276 29.6598 102.009 29.9317C101.868 29.962 101.711 29.9771 101.539 29.9771V28.6777" fill="#F6A000"/>
<path d="M102.949 27.0156C102.934 27.4991 102.871 27.9524 102.793 28.3603H101.555V27.0156" fill="#F6A000"/>
<path d="M102.777 25.3389C102.871 25.7317 102.934 26.1849 102.934 26.6835H101.539V25.3389" fill="#F6A000"/>
<path d="M101.555 23.707C101.711 23.7221 101.868 23.7372 102.025 23.7675C102.291 24.0394 102.526 24.4625 102.699 25.0064H101.555" fill="#F6A000"/>
<path d="M10.2983 29.3426C10.5177 29.5088 10.7997 29.675 11.1288 29.8412C11.4422 30.0074 11.8339 30.0829 12.2726 30.0829C12.445 30.0829 12.6017 30.0678 12.774 30.0225C12.9307 29.9772 13.0718 29.9167 13.1971 29.8412C13.3225 29.7656 13.4165 29.6599 13.5105 29.5239C13.5888 29.403 13.6358 29.2368 13.6358 29.0404C13.6358 28.844 13.5888 28.6778 13.4948 28.5418C13.4008 28.4059 13.2911 28.285 13.1501 28.1944C13.0091 28.1037 12.8367 28.0131 12.6487 27.9526C12.4607 27.8771 12.257 27.8166 12.0533 27.7411C11.8026 27.6504 11.5362 27.5598 11.2855 27.454C11.0191 27.3634 10.7841 27.2274 10.5804 27.0612C10.3767 26.895 10.2043 26.6986 10.0633 26.4418C9.93794 26.1849 9.85959 25.8828 9.85959 25.4899C9.85959 25.1122 9.93794 24.7949 10.0946 24.5079C10.2513 24.2208 10.455 23.9942 10.7214 23.7978C10.9878 23.6165 11.2855 23.4654 11.6302 23.3747C11.9749 23.2841 12.3353 23.2388 12.727 23.2388C12.9934 23.2388 13.2441 23.2539 13.4635 23.2992C13.6985 23.3294 13.9022 23.3899 14.0746 23.4352C14.2626 23.4805 14.4036 23.5409 14.529 23.6014C14.6543 23.6618 14.7483 23.7071 14.811 23.7525C15.0304 23.8733 15.1557 24.0395 15.1557 24.2661C15.1557 24.3568 15.1087 24.4928 15.0304 24.6439C14.952 24.7949 14.8267 24.9611 14.67 25.1122C14.4663 24.9611 14.2156 24.8101 13.8865 24.6741C13.5732 24.5381 13.2284 24.4626 12.8681 24.4626C12.727 24.4626 12.5703 24.4777 12.4293 24.5079C12.2726 24.5381 12.1316 24.5834 12.0063 24.6439C11.8809 24.7043 11.7869 24.7949 11.7085 24.9158C11.6302 25.0367 11.5832 25.1727 11.5832 25.3388C11.5832 25.505 11.6302 25.641 11.7085 25.7619C11.7869 25.8828 11.8966 25.9885 12.0376 26.0792C12.1786 26.1698 12.3353 26.2454 12.5077 26.3209C12.68 26.3964 12.8681 26.4569 13.0718 26.5324C13.3225 26.6231 13.5888 26.7288 13.8552 26.8346C14.1216 26.9403 14.3566 27.0763 14.576 27.2425C14.7954 27.4087 14.9677 27.6202 15.1087 27.862C15.2498 28.1037 15.3124 28.421 15.3124 28.7987C15.3124 29.2066 15.2341 29.5692 15.0931 29.8714C14.9364 30.1736 14.7483 30.4455 14.482 30.657C14.2156 30.8686 13.9022 31.0347 13.5262 31.1405C13.1501 31.2463 12.7427 31.2916 12.304 31.2916C11.7242 31.2916 11.2541 31.2312 10.8938 31.1254C10.5334 31.0196 10.2827 30.9139 10.1103 30.8232C10.0163 30.7779 9.93794 30.7024 9.87526 30.6117C9.81259 30.5362 9.78125 30.4304 9.78125 30.3246C9.78125 30.1887 9.82826 30.0376 9.93794 29.8563C10.0476 29.675 10.1573 29.4937 10.2983 29.3426Z" fill="#F6A000"/>
<path d="M18.3353 24.6743H15.8282V24.6592C15.8125 24.5686 15.7969 24.493 15.7969 24.4326C15.7969 24.3722 15.7969 24.2966 15.7969 24.206C15.7969 23.9944 15.8752 23.8131 16.0319 23.6318C16.1886 23.4657 16.455 23.375 16.8154 23.375H22.4719C22.4876 23.5412 22.5032 23.7074 22.5032 23.8736C22.5032 24.07 22.4249 24.2513 22.2839 24.4175C22.1429 24.5837 21.8765 24.6592 21.5161 24.6592H19.9962V31.0954H18.3353" fill="#F6A000"/>
<path d="M27.0944 31.1105L26.4049 29.2219H23.6159L22.9578 31.1105H21.3125L24.1016 23.4958C24.1956 23.4656 24.3366 23.4203 24.509 23.3901C24.6813 23.3598 24.8694 23.3447 25.0731 23.3447C25.1671 23.3447 25.2611 23.3447 25.3708 23.3598C25.4805 23.3749 25.5902 23.4052 25.6842 23.4656C25.7939 23.5109 25.8879 23.5865 25.9819 23.6771C26.0759 23.7678 26.1542 23.9037 26.2012 24.0548L28.7866 31.1105H27.0944ZM25.0417 24.78L23.9449 28.0737H26.1072L25.0417 24.78Z" fill="#F6A000"/>
<path d="M36.0571 31.1104H34.6625L31.231 26.034V31.1104H29.6484V23.4051C29.7268 23.39 29.8365 23.3749 29.9775 23.3598C30.1185 23.3447 30.2439 23.3447 30.3849 23.3447C30.6356 23.3447 30.8393 23.39 30.9803 23.4656C31.1213 23.5562 31.2467 23.6771 31.372 23.8584L34.4745 28.7082V23.39C34.5842 23.3749 34.6939 23.3598 34.7879 23.3447C34.8819 23.3296 34.9602 23.3296 35.0229 23.3296C35.1483 23.3296 35.258 23.3447 35.3833 23.3598C35.5087 23.39 35.6183 23.4353 35.7124 23.4958C35.8064 23.5562 35.9004 23.6469 35.9631 23.7677C36.0257 23.8886 36.0571 24.0397 36.0571 24.221" fill="#F6A000"/>
<path d="M44.0649 27.1218C44.0649 27.6657 43.9865 28.1794 43.8299 28.6628C43.6732 29.1463 43.4381 29.5693 43.1247 29.9319C42.8114 30.2945 42.4196 30.5816 41.9339 30.7931C41.4482 31.0046 40.8841 31.1104 40.226 31.1104H37.6562V23.4504C38.1733 23.39 38.6121 23.3446 38.9724 23.3295C39.3328 23.3144 39.6462 23.2993 39.9126 23.2993C40.7117 23.2993 41.3855 23.4051 41.9182 23.6015C42.451 23.813 42.874 24.085 43.1874 24.4325C43.5008 24.7799 43.7358 25.1879 43.8612 25.6411C43.9865 26.1246 44.0649 26.6081 44.0649 27.1218ZM42.3726 27.152C42.3726 26.7894 42.3413 26.457 42.2629 26.1397C42.1846 25.8224 42.0749 25.5505 41.8869 25.3087C41.7145 25.067 41.4795 24.8857 41.1661 24.7497C40.8684 24.6138 40.4923 24.5382 40.0223 24.5382C39.7872 24.5382 39.5522 24.5533 39.3015 24.5684V29.8866H39.9596C40.4297 29.8866 40.8214 29.8262 41.1348 29.6902C41.4482 29.5542 41.6989 29.3729 41.8712 29.1161C42.0436 28.8743 42.1689 28.5873 42.2473 28.2398C42.3413 27.9225 42.3726 27.5599 42.3726 27.152Z" fill="#F6A000"/>
<path d="M49.9225 31.1105L49.233 29.2219H46.4439L45.7858 31.1105H44.1562L46.9453 23.4958C47.0394 23.4656 47.1804 23.4203 47.3527 23.3901C47.5251 23.3598 47.7131 23.3447 47.9168 23.3447C48.0108 23.3447 48.1049 23.3447 48.2145 23.3598C48.3242 23.3749 48.4339 23.4052 48.5279 23.4656C48.6376 23.5109 48.7316 23.5865 48.8256 23.6771C48.9196 23.7678 48.998 23.9037 49.045 24.0548L51.6304 31.1105H49.9225ZM47.8541 24.78L46.7573 28.0737H48.9196L47.8541 24.78Z" fill="#F6A000"/>
<path d="M58.0233 25.5958C58.0233 25.9131 57.9763 26.2002 57.8979 26.4419C57.8196 26.6836 57.6942 26.9103 57.5532 27.0916C57.4122 27.2729 57.2398 27.424 57.0518 27.5599C56.8638 27.6808 56.6757 27.7715 56.4877 27.847L58.4777 31.0349C58.321 31.0953 58.1643 31.1406 57.9919 31.1709C57.8196 31.2011 57.6629 31.2313 57.5062 31.2313C57.2085 31.2313 56.9578 31.1709 56.7698 31.05C56.5661 30.9291 56.378 30.7327 56.2213 30.4457L54.8425 28.2096H54.1844V31.1104H52.5234V23.4353C52.8838 23.39 53.2599 23.3598 53.6203 23.3447C53.9963 23.3296 54.341 23.3145 54.6388 23.3145C55.7983 23.3145 56.6444 23.4958 57.1928 23.8735C57.7569 24.2512 58.0233 24.8253 58.0233 25.5958ZM56.2997 25.7469C56.2997 25.2634 56.1587 24.916 55.908 24.7195C55.6416 24.5231 55.2812 24.4325 54.8268 24.4325C54.6858 24.4325 54.5604 24.4325 54.4507 24.4476C54.3567 24.4476 54.2627 24.4627 54.1844 24.4627V27.1218H54.7484C55.2342 27.1218 55.6102 27.016 55.8766 26.7894C56.1587 26.5628 56.2997 26.2153 56.2997 25.7469Z" fill="#F6A000"/>
<path d="M65.8461 27.1218C65.8461 27.6657 65.7678 28.1794 65.6267 28.6628C65.4701 29.1463 65.235 29.5693 64.9216 29.9319C64.6083 30.2945 64.2009 30.5816 63.7308 30.7931C63.245 31.0046 62.681 31.1104 62.0229 31.1104H59.4531V23.4504C59.9702 23.39 60.4089 23.3446 60.7693 23.3295C61.1297 23.3144 61.4431 23.2993 61.7095 23.2993C62.5086 23.2993 63.1824 23.4051 63.7151 23.6015C64.2479 23.813 64.6709 24.085 64.9843 24.4325C65.2977 24.7799 65.5171 25.1879 65.6581 25.6411C65.7834 26.1246 65.8461 26.6081 65.8461 27.1218ZM64.1695 27.152C64.1695 26.7894 64.1225 26.457 64.0598 26.1397C63.9972 25.8224 63.8561 25.5505 63.6838 25.3087C63.5114 25.067 63.2764 24.8857 62.963 24.7497C62.6653 24.6138 62.2892 24.5382 61.8348 24.5382C61.5998 24.5382 61.3648 24.5533 61.1141 24.5684V29.8866H61.7721C62.2422 29.8866 62.6339 29.8262 62.9473 29.6902C63.2607 29.5542 63.4958 29.3729 63.6838 29.1161C63.8718 28.8743 63.9972 28.5873 64.0598 28.2398C64.1225 27.9225 64.1695 27.5599 64.1695 27.152Z" fill="#F6A000"/>
<path d="M72.2558 31.1102V25.2934L70.6732 26.0489C70.5636 25.8978 70.4539 25.7467 70.3442 25.5805C70.2345 25.4143 70.1875 25.2481 70.1875 25.1121C70.1875 25.0215 70.2188 24.9308 70.2815 24.8402C70.3442 24.7495 70.4382 24.674 70.5792 24.5984L72.2872 23.7373C72.4438 23.6617 72.6005 23.5862 72.7572 23.5408C72.8982 23.4804 73.0549 23.4502 73.2116 23.4502C73.3683 23.4502 73.5093 23.4653 73.619 23.5106C73.7287 23.556 73.8227 23.5862 73.8854 23.6315V31.1253" fill="#F6A000"/>
<path d="M82.0011 27.3485C82.0011 28.6025 81.7661 29.5846 81.2803 30.2645C80.7946 30.9443 80.0424 31.2918 79.0396 31.2918C78.0211 31.2918 77.269 30.9595 76.7833 30.3098C76.2975 29.6601 76.0625 28.663 76.0625 27.3485C76.0625 26.7442 76.1252 26.2003 76.2505 25.7017C76.3759 25.2182 76.5639 24.7952 76.8146 24.4477C77.0653 24.1002 77.3787 23.8434 77.7704 23.647C78.1465 23.4657 78.6009 23.375 79.1023 23.375C79.6194 23.375 80.0738 23.4657 80.4342 23.647C80.8102 23.8283 81.108 24.0851 81.343 24.4326C81.578 24.765 81.7504 25.188 81.8601 25.6866C81.9541 26.155 82.0011 26.714 82.0011 27.3485ZM80.3872 27.3485C80.3872 26.8348 80.3558 26.4118 80.2932 26.0643C80.2305 25.7168 80.1521 25.4298 80.0268 25.2182C79.9171 25.0067 79.7761 24.8556 79.6194 24.765C79.4627 24.6743 79.2747 24.6139 79.0553 24.6139C78.8359 24.6139 78.6479 24.6592 78.4912 24.765C78.3188 24.8556 78.1778 25.0067 78.0681 25.2182C77.9585 25.4298 77.8644 25.7168 77.8018 26.0643C77.7391 26.4118 77.7078 26.85 77.7078 27.3485C77.7078 27.8471 77.7391 28.2701 77.8018 28.6176C77.8644 28.9651 77.9585 29.2371 78.0681 29.4637C78.1778 29.6752 78.3188 29.8263 78.4912 29.9321C78.6636 30.0227 78.8516 30.0681 79.0553 30.0681C79.259 30.0681 79.447 30.0227 79.6194 29.9321C79.7761 29.8414 79.9171 29.6903 80.0268 29.4788C80.1365 29.2673 80.2305 28.9802 80.2932 28.6479C80.3558 28.2853 80.3872 27.8471 80.3872 27.3485Z" fill="#F6A000"/>
<path d="M88.6104 27.3485C88.6104 28.6025 88.3754 29.5846 87.8897 30.2645C87.4039 30.9443 86.6675 31.2918 85.6647 31.2918C84.6462 31.2918 83.8941 30.9595 83.4083 30.3098C82.9226 29.6601 82.6719 28.663 82.6719 27.3485C82.6719 26.7442 82.7346 26.2003 82.8599 25.7017C82.9853 25.2182 83.1733 24.7952 83.424 24.4477C83.6747 24.1002 83.9881 23.8434 84.3641 23.647C84.7402 23.4657 85.1946 23.375 85.696 23.375C86.2131 23.375 86.6675 23.4657 87.0279 23.647C87.4039 23.8283 87.7016 24.0851 87.9367 24.4326C88.1717 24.765 88.3441 25.188 88.4538 25.6866C88.5478 26.155 88.6104 26.714 88.6104 27.3485ZM86.9809 27.3485C86.9809 26.8348 86.9495 26.4118 86.8869 26.0643C86.8242 25.7168 86.7458 25.4298 86.6205 25.2182C86.5108 25.0067 86.3698 24.8556 86.2131 24.765C86.0564 24.6743 85.8684 24.6139 85.649 24.6139C85.4453 24.6139 85.2573 24.6592 85.0849 24.765C84.9125 24.8556 84.7715 25.0067 84.6618 25.2182C84.5522 25.4298 84.4581 25.7168 84.3955 26.0643C84.3328 26.4118 84.3015 26.85 84.3015 27.3485C84.3015 27.8471 84.3328 28.2701 84.3955 28.6176C84.4581 28.9651 84.5365 29.2371 84.6618 29.4637C84.7715 29.6752 84.9282 29.8263 85.0849 29.9321C85.2573 30.0227 85.4453 30.0681 85.649 30.0681C85.8527 30.0681 86.0407 30.0227 86.2131 29.9321C86.3854 29.8414 86.5108 29.6903 86.6205 29.4788C86.7302 29.2673 86.8242 28.9802 86.8869 28.6479C86.9495 28.2853 86.9809 27.8471 86.9809 27.3485Z" fill="#F6A000"/>
<path d="M22.1734 38.6492V38.0751C22.236 37.9995 22.3457 37.9391 22.4397 37.8484C22.5494 37.7276 22.6591 37.6671 22.7688 37.5614C22.8785 37.4254 23.0038 37.3499 23.1135 37.229C23.2075 37.093 23.3486 37.0024 23.4582 36.8815C23.5836 36.7002 23.7403 36.534 23.85 36.3678C23.944 36.1563 23.991 36.0203 23.991 35.839C23.944 35.7181 23.9753 35.6426 23.944 35.5671C23.8656 35.4613 23.8656 35.4311 23.803 35.4009C23.7089 35.3404 23.6776 35.3253 23.6149 35.3102C23.5209 35.2498 23.4739 35.28 23.3956 35.28C23.1762 35.2498 23.0038 35.3253 22.8315 35.416C22.6434 35.4764 22.5181 35.6124 22.3927 35.7333C22.2674 35.6124 22.236 35.552 22.1734 35.4613C22.095 35.3253 22.095 35.3102 22.095 35.2498C22.048 35.1742 22.1107 35.1591 22.142 35.1138C22.1577 35.0383 22.2047 35.0383 22.2517 35.0081C22.2517 34.9325 22.3457 34.9325 22.4241 34.8872C22.4397 34.8267 22.5808 34.7965 22.6905 34.7512C22.7531 34.6908 22.9098 34.6757 23.0508 34.6454C23.1449 34.585 23.3329 34.6001 23.5052 34.6001C23.6463 34.585 23.8656 34.6152 24.038 34.6606C24.1947 34.6606 24.3514 34.7663 24.4767 34.857C24.6021 34.9476 24.6961 35.0685 24.7744 35.2196C24.8058 35.3404 24.8841 35.552 24.8841 35.7484C24.8528 35.8541 24.8528 36.0354 24.8058 36.1865C24.7588 36.2923 24.6961 36.4736 24.6021 36.6095C24.4767 36.7153 24.414 36.8815 24.32 37.0024C24.1633 37.1081 24.1007 37.2441 23.991 37.3499C23.8343 37.4405 23.7559 37.5765 23.6463 37.6823C23.5052 37.7427 23.4269 37.8787 23.3329 37.9542H24.5394C24.6177 37.924 24.7274 37.9693 24.7901 37.9995C24.8058 37.9844 24.9155 38.06 24.9468 38.1053C24.9311 38.1204 25.0095 38.1959 25.0251 38.2413C25.0095 38.2715 25.0565 38.347 25.0565 38.3923C25.0251 38.4075 25.0565 38.483 25.0565 38.5132C25.0251 38.5283 25.0565 38.5736 25.0565 38.619H22.1734V38.6492Z" fill="#17140F"/>
<path d="M26.904 38.6494V35.5824L26.0892 35.9752C26.0265 35.8846 25.9795 35.8241 25.9168 35.7335C25.8541 35.6126 25.8385 35.5673 25.8385 35.4917C25.8071 35.4464 25.8541 35.386 25.8855 35.3407C25.8698 35.2953 25.9638 35.25 26.0422 35.2198L26.9353 34.7665C26.998 34.7212 27.1077 34.691 27.186 34.6608C27.2643 34.6003 27.3427 34.6154 27.4367 34.6154C27.4837 34.6003 27.5934 34.6306 27.6561 34.6457C27.7187 34.6457 27.7658 34.691 27.7971 34.7061V38.6494H26.904V38.6494Z" fill="#17140F"/>
<path d="M32.1573 38.4377C32.0789 38.4226 32.0946 38.4982 32.0319 38.5284C31.9692 38.5586 31.8909 38.6039 31.7969 38.6341C31.6715 38.619 31.5932 38.6946 31.4521 38.7248C31.2955 38.7248 31.1544 38.755 30.9821 38.755C30.6217 38.7097 30.3553 38.7097 30.1046 38.6039C29.8226 38.4679 29.6502 38.3471 29.4935 38.1658C29.2741 37.9391 29.2115 37.7578 29.1331 37.501C29.0234 37.2139 29.0234 36.9571 29.0234 36.6549C29.0234 36.3074 29.0704 36.0657 29.1488 35.8088C29.1958 35.5369 29.3525 35.3254 29.5092 35.1441C29.6659 34.9174 29.8696 34.8117 30.1203 34.7059C30.371 34.5548 30.653 34.5397 30.9821 34.5397C31.1231 34.4944 31.2955 34.5548 31.4208 34.5851C31.5305 34.6002 31.6715 34.6455 31.7655 34.6757C31.8439 34.6757 31.9379 34.7513 32.0162 34.7966C32.0789 34.8117 32.1259 34.8721 32.1573 34.9023C32.1886 34.9174 32.2199 34.9779 32.2513 35.0232C32.2513 35.0232 32.2983 35.1139 32.2983 35.1592C32.2513 35.1894 32.2669 35.3254 32.2043 35.4009C32.1259 35.4614 32.0789 35.552 32.0006 35.6275C31.8909 35.5369 31.8909 35.5369 31.8282 35.4765C31.7185 35.4311 31.7029 35.3858 31.6245 35.3405C31.5148 35.2952 31.4678 35.2649 31.3581 35.2498C31.2171 35.2045 31.1544 35.2045 31.0291 35.2045C30.7784 35.1894 30.6374 35.2498 30.4963 35.3254C30.3396 35.4009 30.23 35.5218 30.1516 35.6578C30.0576 35.7786 30.0106 35.9448 29.9636 36.111C29.8696 36.2621 29.9009 36.4585 29.9009 36.6398C29.8696 36.7909 29.9166 37.0175 29.9636 37.1837C29.9479 37.3348 30.0733 37.5161 30.1516 37.6521C30.23 37.7578 30.3553 37.8938 30.512 37.9694C30.6374 38.0147 30.8411 38.0902 31.0761 38.0902C31.1858 38.0751 31.2955 38.0751 31.3895 38.0449C31.4835 38.0147 31.5775 37.9845 31.6558 37.9391C31.6872 37.8787 31.7969 37.8485 31.8439 37.8183C31.8439 37.7427 31.9536 37.7427 31.9849 37.6974C31.9692 37.6823 32.0319 37.7578 32.0789 37.8032C32.0946 37.8183 32.1416 37.8787 32.1729 37.924C32.2043 37.9542 32.2199 38.0147 32.2513 38.06C32.2513 38.0902 32.2826 38.1507 32.2826 38.1809C32.2513 38.2262 32.2669 38.2715 32.2513 38.3169C32.2043 38.3169 32.1886 38.3924 32.1573 38.4377Z" fill="#17140F"/>
<path d="M34.2861 37.3199L33.487 38.6494H32.5469L33.7847 36.6551L32.6879 34.7514C32.7506 34.7061 32.8603 34.691 32.9543 34.6608C33.0013 34.6154 33.1423 34.6154 33.2363 34.6154C33.4243 34.6003 33.628 34.7061 33.7377 34.9025L34.3488 35.9903L34.9756 34.978C35.0069 34.827 35.1323 34.7665 35.2106 34.7061C35.2733 34.6003 35.4143 34.6154 35.5553 34.6154C35.618 34.6003 35.7277 34.6306 35.7904 34.6457C35.8531 34.6457 35.9314 34.691 36.0097 34.7363L34.8502 36.64L36.0724 38.6645C35.9471 38.6796 35.9157 38.6947 35.8217 38.7098C35.7277 38.7098 35.6494 38.7249 35.5867 38.7249C35.383 38.7098 35.289 38.6947 35.195 38.6343C35.1009 38.5285 35.0226 38.4832 34.9599 38.3623L34.2861 37.3199Z" fill="#17140F"/>
<path d="M38.5172 36.6854C38.4859 36.4134 38.5015 36.2019 38.4702 36.0206C38.4232 35.8091 38.3918 35.6882 38.3292 35.5825C38.2508 35.4314 38.2038 35.3861 38.1098 35.3407C38.0158 35.2803 37.9218 35.2652 37.8278 35.2652C37.7024 35.235 37.6241 35.2954 37.53 35.3407C37.4204 35.3861 37.3733 35.4616 37.3107 35.5825C37.201 35.658 37.201 35.8393 37.1697 36.0206C37.1383 36.1717 37.1226 36.4286 37.1226 36.6854C37.0756 36.9422 37.1383 37.1689 37.1697 37.3502C37.201 37.5013 37.248 37.6826 37.3107 37.7883C37.3263 37.879 37.436 37.9847 37.53 38.03C37.5927 38.03 37.7181 38.1056 37.8278 38.1056C37.9218 38.0905 38.0314 38.0905 38.1098 38.03C38.1881 37.9394 38.2665 37.9092 38.3292 37.7883C38.3605 37.6674 38.4388 37.5315 38.4702 37.3502C38.4858 37.1538 38.5172 36.9573 38.5172 36.6854ZM39.3947 36.6854C39.379 37.3502 39.2693 37.8639 39.0186 38.2265C38.7209 38.574 38.3762 38.7704 37.8434 38.7704C37.295 38.725 36.9189 38.6042 36.6526 38.2416C36.3705 37.879 36.2608 37.3804 36.2608 36.6854C36.2452 36.3681 36.2922 36.0811 36.3549 35.8242C36.3705 35.5523 36.5116 35.3407 36.6526 35.1594C36.7466 34.9328 36.9503 34.8422 37.154 34.7364C37.3107 34.6306 37.5927 34.5853 37.8591 34.5853C38.1098 34.5702 38.3762 34.6306 38.5642 34.7213C38.7052 34.8119 38.9246 34.9479 39.0343 35.1292C39.1126 35.2652 39.2536 35.522 39.3006 35.7789C39.332 36.0508 39.3947 36.3681 39.3947 36.6854Z" fill="#17140F"/>
<path d="M41.9625 36.6854C41.9312 36.4134 41.9468 36.2019 41.9155 36.0206C41.8685 35.8091 41.8371 35.6882 41.7745 35.5825C41.6961 35.4314 41.6491 35.3861 41.5551 35.3407C41.4611 35.2803 41.3671 35.2652 41.2731 35.2652C41.1477 35.235 41.0694 35.2954 40.9754 35.3407C40.8657 35.3861 40.8187 35.4616 40.756 35.5825C40.6463 35.658 40.6463 35.8393 40.615 36.0206C40.5836 36.1717 40.568 36.4286 40.568 36.6854C40.5209 36.9422 40.5836 37.1689 40.615 37.3502C40.6463 37.5013 40.6933 37.6826 40.756 37.7883C40.7717 37.879 40.8813 37.9847 40.9754 38.03C41.038 38.03 41.1634 38.1056 41.2731 38.1056C41.3671 38.0905 41.4768 38.0905 41.5551 38.03C41.6334 37.9394 41.7118 37.9092 41.7745 37.7883C41.8058 37.6674 41.8842 37.5315 41.9155 37.3502C41.9312 37.1538 41.9625 36.9573 41.9625 36.6854ZM42.84 36.6854C42.8243 37.3502 42.7146 37.8639 42.4639 38.2265C42.1662 38.574 41.8215 38.7704 41.2887 38.7704C40.7403 38.725 40.3643 38.6042 40.0979 38.2416C39.8158 37.879 39.7062 37.3804 39.7062 36.6854C39.6905 36.3681 39.7375 36.0811 39.8002 35.8242C39.8158 35.5523 39.9569 35.3407 40.0979 35.1594C40.1919 34.9328 40.3956 34.8422 40.5993 34.7364C40.756 34.6306 41.038 34.5853 41.3044 34.5853C41.5551 34.5702 41.8215 34.6306 42.0095 34.7213C42.1505 34.8119 42.3699 34.9479 42.4796 35.1292C42.5579 35.2652 42.6989 35.522 42.7459 35.7789C42.7773 36.0508 42.84 36.3681 42.84 36.6854Z" fill="#17140F"/>
<path d="M44.6149 38.6494V35.5824L43.8001 35.9752C43.7374 35.8846 43.6748 35.8241 43.6277 35.7335C43.5651 35.6126 43.5494 35.5673 43.5494 35.4917C43.5181 35.4464 43.5651 35.386 43.5964 35.3407C43.5807 35.2953 43.6748 35.25 43.7531 35.2198L44.6462 34.7665C44.7089 34.7212 44.8186 34.691 44.8969 34.6608C44.9753 34.6003 45.0536 34.6154 45.1476 34.6154C45.1946 34.6003 45.3043 34.6306 45.367 34.6457C45.4297 34.6457 45.4767 34.691 45.508 34.7061V38.6494H44.6149V38.6494Z" fill="#17140F"/>
<path d="M49.4864 37.501C49.4551 37.6672 49.4551 37.8485 49.3924 38.0147C49.2827 38.1356 49.2357 38.3018 49.1104 38.4226C48.9693 38.5133 48.8283 38.619 48.6246 38.6795C48.4209 38.7399 48.2172 38.7701 47.9508 38.7701C47.7471 38.7248 47.6531 38.755 47.5121 38.7399C47.3868 38.6946 47.2771 38.6946 47.1831 38.6644C47.089 38.6342 47.0107 38.6039 46.948 38.5737C46.854 38.5133 46.8383 38.5133 46.7913 38.4831C46.713 38.4075 46.6816 38.4075 46.6503 38.3622C46.5876 38.3018 46.6033 38.2564 46.6033 38.2111C46.5876 38.0903 46.6973 37.9089 46.854 37.6672C46.854 37.6823 46.9637 37.7579 47.0264 37.8183C47.089 37.8485 47.1674 37.9241 47.2614 37.9543C47.3241 37.9694 47.4494 38.0298 47.5435 38.06C47.6218 38.0903 47.7628 38.1054 47.8882 38.1054C47.9508 38.0902 48.0605 38.0903 48.1545 38.0751C48.2329 38.0449 48.3112 38.0147 48.3739 37.9694C48.4053 37.8938 48.4993 37.8485 48.5306 37.773C48.5463 37.6823 48.5933 37.5917 48.5933 37.4859C48.5463 37.3348 48.5619 37.2442 48.4993 37.1686C48.4209 37.078 48.3739 37.0327 48.2956 37.0024C48.2172 36.9571 48.1389 36.942 48.0605 36.9269C47.9509 36.8816 47.9038 36.9118 47.8568 36.9118H47.5435V36.247H47.8568C47.9038 36.247 47.9665 36.2319 48.0449 36.2168C48.0919 36.1564 48.1859 36.1715 48.2486 36.1413C48.2799 36.0808 48.3582 36.0506 48.4053 35.9902C48.4053 35.8995 48.4679 35.8391 48.4679 35.7333C48.4523 35.552 48.4209 35.4614 48.3112 35.4009C48.2016 35.3103 48.0605 35.2952 47.8725 35.2952C47.7472 35.265 47.6688 35.3103 47.5748 35.3254C47.4651 35.3103 47.4024 35.3858 47.3241 35.416C47.1987 35.4312 47.1674 35.4916 47.1047 35.5369C47.0107 35.5671 46.9637 35.6276 46.901 35.6729C46.807 35.5822 46.7443 35.5218 46.6973 35.4312C46.6033 35.3103 46.619 35.265 46.619 35.2196C46.6033 35.1441 46.6346 35.1139 46.666 35.0837C46.666 35.0232 46.7287 35.0081 46.7757 34.9779C46.7913 34.9175 46.8697 34.9024 46.948 34.8721C46.995 34.7815 47.1047 34.7966 47.2144 34.7513C47.3084 34.7059 47.4338 34.6908 47.5591 34.6606C47.6688 34.6153 47.8412 34.6304 48.0135 34.6304C48.2329 34.6153 48.4523 34.6606 48.609 34.7059C48.7656 34.7211 48.9223 34.8268 49.032 34.9175C49.0947 34.993 49.22 35.1139 49.2671 35.2347C49.2984 35.3405 49.3454 35.4916 49.3454 35.6427C49.2984 35.7333 49.3297 35.8995 49.2827 36.0053C49.22 36.0959 49.1887 36.2017 49.1104 36.2772C49.032 36.3377 48.9693 36.4132 48.891 36.4585C48.7656 36.4888 48.75 36.5341 48.703 36.5643C48.7343 36.5945 48.844 36.6247 48.938 36.6701C49.0164 36.6852 49.1104 36.7758 49.1887 36.8362C49.2357 36.8665 49.3297 37.0024 49.3924 37.1082C49.4551 37.1686 49.4864 37.3348 49.4864 37.501Z" fill="#17140F"/>
<path d="M51.2124 35.3254L51.1184 36.0506C51.1184 35.9902 51.2438 36.0204 51.3378 36.0053C51.4005 35.9599 51.5102 35.9902 51.6042 35.9902C51.8079 35.9751 51.9959 36.0204 52.1683 36.0657C52.3093 36.0657 52.4816 36.2017 52.607 36.3074C52.701 36.383 52.8264 36.5492 52.9047 36.7154C52.9517 36.8665 52.9987 37.078 52.9987 37.3197C52.9517 37.501 52.9674 37.6974 52.9047 37.8787C52.8264 37.9996 52.748 38.2111 52.6227 38.332C52.466 38.4226 52.325 38.5737 52.1369 38.6493C51.9176 38.7248 51.7139 38.7701 51.4475 38.7701C51.2751 38.7248 51.1184 38.755 50.9774 38.7399C50.8364 38.6946 50.7267 38.6946 50.6327 38.6644C50.4917 38.6341 50.4603 38.6039 50.3977 38.5737C50.3193 38.5133 50.288 38.5133 50.2566 38.4831C50.194 38.4075 50.1783 38.4226 50.1469 38.3773C50.0686 38.3169 50.0999 38.2867 50.0999 38.2262C50.0843 38.1658 50.1156 38.1054 50.1783 37.9996C50.1783 37.8636 50.288 37.7881 50.382 37.6823C50.4133 37.6974 50.4917 37.773 50.5543 37.8183C50.617 37.8334 50.711 37.9089 50.7894 37.9543C50.8364 37.9694 50.9774 38.0298 51.0871 38.06C51.1654 38.0751 51.3065 38.1054 51.4318 38.1054C51.4788 38.0902 51.6042 38.0902 51.6982 38.06C51.7609 38.0298 51.8549 37.9845 51.9332 37.9392C51.9489 37.8636 52.0586 37.8032 52.0899 37.7125C52.0742 37.5766 52.1526 37.5161 52.1526 37.3801C52.1369 37.1988 52.1213 37.0931 52.0742 37.0024C51.9802 36.8967 51.9489 36.8362 51.8705 36.7758C51.7609 36.6852 51.7139 36.6852 51.6198 36.67C51.4788 36.6549 51.4475 36.6398 51.3691 36.6398C51.2124 36.5945 51.1028 36.6549 50.9931 36.67C50.8364 36.6852 50.7737 36.7305 50.664 36.7758L50.3663 36.6549L50.5857 34.6455H52.842C52.8107 34.6606 52.8577 34.721 52.8577 34.7513C52.8107 34.7664 52.8577 34.8117 52.8577 34.857C52.8107 34.993 52.8264 35.0988 52.748 35.1894C52.654 35.2498 52.5287 35.3103 52.325 35.3103H51.2124V35.3254Z" fill="#17140F"/>
<path d="M58.1651 38.4377C58.0867 38.4226 58.1024 38.4982 58.0397 38.5284C57.977 38.5586 57.8987 38.6039 57.8047 38.6341C57.6793 38.619 57.601 38.6946 57.4599 38.7248C57.3033 38.7248 57.1622 38.755 56.9899 38.755C56.6295 38.7097 56.3631 38.7097 56.1124 38.6039C55.8147 38.4679 55.658 38.3471 55.5013 38.1658C55.282 37.9391 55.2193 37.7578 55.1409 37.501C55.0312 37.2139 55.0312 36.9571 55.0312 36.6549C55.0312 36.3074 55.0783 36.0657 55.1566 35.8088C55.2036 35.5369 55.3603 35.3254 55.517 35.1441C55.6737 34.9174 55.8774 34.8117 56.1281 34.7059C56.3788 34.5548 56.6608 34.5397 56.9899 34.5397C57.1309 34.4944 57.3033 34.5548 57.4286 34.5851C57.5383 34.6002 57.6793 34.6455 57.7733 34.6757C57.8517 34.6757 57.9457 34.7513 58.024 34.7966C58.0867 34.8117 58.1337 34.8721 58.1651 34.9023C58.1964 34.9174 58.2277 34.9779 58.2591 35.0232C58.2591 35.0232 58.3061 35.1139 58.3061 35.1592C58.2591 35.1894 58.2747 35.3254 58.2121 35.4009C58.1337 35.4614 58.0867 35.552 58.0084 35.6275C57.9144 35.5369 57.8987 35.5369 57.836 35.4765C57.7263 35.4311 57.7107 35.3858 57.6323 35.3405C57.5226 35.2952 57.4756 35.2649 57.3659 35.2498C57.2249 35.2045 57.1622 35.2045 57.0369 35.2045C56.7862 35.1894 56.6452 35.2498 56.5041 35.3254C56.3474 35.4009 56.2378 35.5218 56.1594 35.6578C56.0654 35.7786 56.0027 35.9448 55.9714 36.111C55.8774 36.2621 55.9087 36.4585 55.9087 36.6398C55.8774 36.7909 55.9244 37.0175 55.9714 37.1837C55.9557 37.3348 56.0654 37.5161 56.1594 37.6521C56.2378 37.7578 56.3631 37.8938 56.5198 37.9694C56.6452 38.0147 56.8489 38.0902 57.0839 38.0902C57.1936 38.0751 57.3033 38.0751 57.3973 38.0449C57.4913 38.0147 57.5853 37.9845 57.6636 37.9391C57.695 37.8787 57.8047 37.8485 57.8517 37.8183C57.8517 37.7427 57.9614 37.7427 57.9927 37.6974C57.977 37.6823 58.0397 37.7578 58.0867 37.8032C58.1024 37.8183 58.1494 37.8787 58.1807 37.924C58.2121 37.9542 58.2277 38.0147 58.2591 38.06C58.2591 38.0902 58.2904 38.1507 58.2904 38.1809C58.2591 38.2262 58.2747 38.2715 58.2591 38.3169C58.2121 38.3169 58.1964 38.3924 58.1651 38.4377Z" fill="#17140F"/>
<path d="M61.3031 37.9849C61.3501 37.9547 61.4912 38.0001 61.5538 38.0152C61.5852 38.0001 61.6792 38.0756 61.7105 38.1209C61.7262 38.136 61.7732 38.2116 61.7889 38.272C61.8045 38.3022 61.8202 38.3778 61.8202 38.4382C61.8045 38.4533 61.8202 38.5289 61.8202 38.5591C61.8045 38.5742 61.8202 38.6195 61.8045 38.6648H59.0781V34.6309H61.6948C61.6792 34.6611 61.7105 34.7064 61.7105 34.7517C61.6792 34.7819 61.7105 34.8273 61.7105 34.8726C61.6792 34.9784 61.6792 35.1294 61.6008 35.205C61.4755 35.2352 61.3815 35.3107 61.1778 35.3107H59.9399V36.2777H61.2718V36.9425H59.9399V38.0303H61.3031V37.9849Z" fill="#17140F"/>
<path d="M64.8743 37.3955V34.6005C64.8743 34.5854 64.9527 34.6005 64.984 34.6005C64.984 34.5854 65.0467 34.6005 65.078 34.6005C65.1094 34.5854 65.1407 34.6005 65.172 34.6005C65.2034 34.5854 65.2974 34.6005 65.3757 34.6156C65.3914 34.6005 65.5011 34.6458 65.5638 34.676C65.6108 34.6609 65.6734 34.7516 65.7048 34.812C65.7361 34.8422 65.7675 34.9631 65.7675 35.0537V38.6344H65.031L63.2134 35.9904V38.6344H62.3359V34.6005C62.3516 34.5854 62.43 34.6005 62.5083 34.6005C62.5553 34.5854 62.6493 34.6005 62.7277 34.6005C62.8217 34.5854 62.9627 34.6156 63.041 34.6609C63.0724 34.676 63.1821 34.7667 63.2447 34.8573L64.8743 37.3955Z" fill="#17140F"/>
<path d="M67.3779 35.2654H66.0773C66.046 35.1898 66.0617 35.1747 66.0617 35.1445C66.046 35.0689 66.0617 35.069 66.0617 35.0236C66.046 34.9179 66.1087 34.8272 66.187 34.7366C66.2653 34.6459 66.4064 34.6006 66.5944 34.6006H69.5402C69.5245 34.6761 69.5559 34.7668 69.5559 34.8574C69.5245 34.8574 69.5402 34.9632 69.5245 35.0085C69.4775 35.0085 69.4775 35.0992 69.4305 35.1445C69.3365 35.1445 69.3365 35.22 69.2738 35.2351C69.1641 35.2351 69.1328 35.2654 69.0388 35.2654H68.2553V38.6497H67.3779V35.2654Z" fill="#17140F"/>
<path d="M71.9898 35.8089C71.9741 35.5369 71.9271 35.3859 71.7861 35.2801C71.5981 35.1441 71.4727 35.1441 71.2377 35.1441C71.1437 35.0988 71.0967 35.1441 71.0497 35.1441C70.987 35.0988 70.9556 35.1441 70.9243 35.1441V36.5341H71.2063C71.4257 36.5341 71.6294 36.4737 71.7704 36.3528C71.8801 36.2017 71.9898 36.0506 71.9898 35.8089ZM72.8673 35.7333C72.8203 35.8542 72.8516 36.0506 72.8046 36.1715C72.7419 36.2621 72.7106 36.4132 72.6322 36.519C72.5382 36.5643 72.4756 36.7003 72.3815 36.7607C72.2562 36.7909 72.1935 36.8816 72.0838 36.9118L73.118 38.5737C73.024 38.5888 72.9613 38.6342 72.8673 38.6644C72.7419 38.6795 72.6949 38.6946 72.6166 38.6946C72.4599 38.6795 72.3345 38.6644 72.2248 38.604C72.0838 38.4982 72.0211 38.4378 71.9428 38.2867L71.269 37.1233H70.94V38.6493H70.0625V34.6153C70.2035 34.5851 70.4386 34.5851 70.6266 34.57C70.799 34.5096 71.0026 34.5549 71.1437 34.5549C71.6921 34.5096 72.1778 34.6606 72.4599 34.8571C72.7263 34.993 72.8673 35.3405 72.8673 35.7333Z" fill="#17140F"/>
<path d="M76.2503 36.6246C76.2346 36.398 76.2346 36.2469 76.2033 36.0807C76.1719 35.8994 76.1093 35.7483 76.0309 35.6274C75.9056 35.4914 75.8586 35.3857 75.7332 35.3253C75.6079 35.2497 75.4512 35.2044 75.2788 35.2044C75.0908 35.1893 74.9341 35.2497 74.7931 35.3253C74.6677 35.4008 74.558 35.5066 74.4797 35.6274C74.4013 35.7634 74.3387 35.9145 74.3073 36.0807C74.229 36.2469 74.2603 36.4282 74.2603 36.6246C74.229 36.7757 74.276 37.0023 74.3073 37.1836C74.2917 37.3498 74.4013 37.516 74.4797 37.652C74.558 37.7728 74.6677 37.8937 74.7931 37.9843C74.8714 38.0297 75.0751 38.1052 75.2631 38.1052C75.4512 38.0901 75.6079 38.0599 75.7332 37.9843C75.8586 37.8786 75.9683 37.803 76.0309 37.652C76.0623 37.4858 76.1563 37.3649 76.2033 37.1836C76.2346 36.9872 76.2503 36.821 76.2503 36.6246ZM77.1278 36.6246C77.0807 36.8814 77.0964 37.1836 77.0181 37.4556C76.9241 37.7124 76.83 37.939 76.689 38.1354C76.5323 38.3016 76.3443 38.4829 76.0936 38.6038C75.8272 38.6793 75.5609 38.77 75.2318 38.77C74.8557 38.7247 74.605 38.7096 74.37 38.6038C74.1193 38.4527 73.9469 38.3318 73.7903 38.1354C73.6022 37.9088 73.5239 37.7124 73.4612 37.4556C73.3672 37.1987 73.3672 36.9268 73.3672 36.6397C73.3672 36.3224 73.3985 36.0958 73.4769 35.8389C73.5082 35.567 73.6649 35.3555 73.8216 35.1742C73.9313 34.9324 74.182 34.8267 74.417 34.7209C74.6207 34.5547 74.9341 34.5547 75.2788 34.5547C75.5922 34.5094 75.8899 34.6152 76.1249 34.7209C76.3286 34.7813 76.548 34.9778 76.7047 35.1591C76.8457 35.3101 76.9554 35.567 77.0337 35.8238C77.0808 36.0505 77.1278 36.3375 77.1278 36.6246Z" fill="#17140F"/>
<path d="M80.8838 38.4377C80.8055 38.4226 80.8211 38.4982 80.7585 38.5284C80.6958 38.5586 80.6174 38.6039 80.5234 38.6341C80.3981 38.619 80.3197 38.6946 80.1787 38.7248C80.022 38.7248 79.881 38.755 79.7086 38.755C79.3482 38.7097 79.0819 38.7097 78.8312 38.6039C78.5334 38.4679 78.3768 38.3471 78.2201 38.1658C78.0007 37.9391 77.938 37.7578 77.8597 37.501C77.75 37.2139 77.75 36.9571 77.75 36.6549C77.75 36.3074 77.797 36.0657 77.8754 35.8088C77.9224 35.5369 78.0791 35.3254 78.2357 35.1441C78.3924 34.9174 78.5961 34.8117 78.8468 34.7059C79.0975 34.5548 79.3796 34.5397 79.7086 34.5397C79.8496 34.4944 80.022 34.5548 80.1474 34.5851C80.257 34.6002 80.3981 34.6455 80.4921 34.6757C80.5704 34.6757 80.6644 34.7513 80.7428 34.7966C80.8055 34.8117 80.8525 34.8721 80.8838 34.9023C80.9151 34.9174 80.9465 34.9779 80.9778 35.0232C80.9778 35.0232 81.0248 35.1139 81.0248 35.1592C80.9778 35.1894 80.9935 35.3254 80.9308 35.4009C80.8525 35.4614 80.8055 35.552 80.7271 35.6275C80.6331 35.5369 80.6174 35.5369 80.5548 35.4765C80.4451 35.4311 80.4294 35.3858 80.3511 35.3405C80.2414 35.2952 80.1944 35.2649 80.0847 35.2498C79.9437 35.2045 79.881 35.2045 79.7556 35.2045C79.5049 35.1894 79.3639 35.2498 79.2229 35.3254C79.0662 35.4009 78.9565 35.5218 78.8782 35.6578C78.7842 35.7786 78.7215 35.9448 78.6901 36.111C78.5961 36.2621 78.6275 36.4585 78.6275 36.6398C78.5961 36.7909 78.6431 37.0175 78.6901 37.1837C78.6745 37.3348 78.7842 37.5161 78.8782 37.6521C78.9565 37.7578 79.0819 37.8938 79.2386 37.9694C79.3639 38.0147 79.5676 38.0902 79.8026 38.0902C79.9123 38.0751 80.022 38.0751 80.116 38.0449C80.21 38.0147 80.3041 37.9845 80.3824 37.9391C80.4137 37.8787 80.5234 37.8485 80.5704 37.8183C80.5704 37.7427 80.6801 37.7427 80.7114 37.6974C80.6958 37.6823 80.7585 37.7578 80.8055 37.8032C80.8211 37.8183 80.8681 37.8787 80.8995 37.924C80.9308 37.9542 80.9465 38.0147 80.9778 38.06C80.9778 38.0902 81.0092 38.1507 81.0092 38.1809C80.9778 38.2262 80.9935 38.2715 80.9778 38.3169C80.9308 38.3169 80.9151 38.3924 80.8838 38.4377Z" fill="#17140F"/>
<path d="M84.2425 36.6246C84.2268 36.398 84.2268 36.2469 84.1955 36.0807C84.1641 35.8994 84.1014 35.7483 84.0231 35.6274C83.8977 35.4914 83.8507 35.3857 83.7254 35.3253C83.6 35.2497 83.4434 35.2044 83.271 35.2044C83.083 35.1893 82.9263 35.2497 82.7853 35.3253C82.6599 35.4008 82.5502 35.5066 82.4719 35.6274C82.3935 35.7634 82.3309 35.9145 82.2995 36.0807C82.2212 36.2469 82.2525 36.4282 82.2525 36.6246C82.2212 36.7757 82.2682 37.0023 82.2995 37.1836C82.2838 37.3498 82.3935 37.516 82.4719 37.652C82.5502 37.7728 82.6599 37.8937 82.7853 37.9843C82.8636 38.0297 83.0673 38.1052 83.2553 38.1052C83.4434 38.0901 83.6 38.0599 83.7254 37.9843C83.8507 37.8786 83.9604 37.803 84.0231 37.652C84.0544 37.4858 84.1485 37.3649 84.1955 37.1836C84.2268 36.9872 84.2425 36.821 84.2425 36.6246ZM85.1199 36.6246C85.0729 36.8814 85.0886 37.1836 85.0102 37.4556C84.9162 37.7124 84.8222 37.939 84.6812 38.1354C84.5245 38.3016 84.3365 38.4829 84.0858 38.6038C83.8194 38.6793 83.553 38.77 83.224 38.77C82.8479 38.7247 82.5972 38.7096 82.3622 38.6038C82.1115 38.4527 81.9391 38.3318 81.7824 38.1354C81.5944 37.9088 81.5317 37.7124 81.4534 37.4556C81.3594 37.1987 81.3594 36.9268 81.3594 36.6397C81.3594 36.3224 81.3907 36.0958 81.4691 35.8389C81.5004 35.567 81.6571 35.3555 81.8138 35.1742C81.9235 34.9324 82.1742 34.8267 82.4092 34.7209C82.6129 34.5547 82.9263 34.5547 83.271 34.5547C83.5844 34.5094 83.8821 34.6152 84.1171 34.7209C84.3208 34.7813 84.5402 34.9778 84.6969 35.1591C84.8379 35.3101 84.9476 35.567 85.0259 35.8238C85.0729 36.0505 85.1199 36.3375 85.1199 36.6246Z" fill="#17140F"/>
<path d="M86.495 35.2654H85.1945C85.1632 35.1898 85.1788 35.1747 85.1788 35.1445C85.1632 35.0689 85.1788 35.069 85.1788 35.0236C85.1632 34.9179 85.2258 34.8272 85.3042 34.7366C85.3825 34.6459 85.5236 34.6006 85.7116 34.6006H88.6574C88.6417 34.6761 88.673 34.7668 88.673 34.8574C88.6417 34.8574 88.6574 34.9632 88.6417 35.0085C88.5947 35.0085 88.5947 35.0992 88.5477 35.1445C88.4537 35.1445 88.4537 35.22 88.391 35.2351C88.2813 35.2351 88.25 35.2654 88.156 35.2654H87.3725V38.6497H86.495V35.2654Z" fill="#17140F"/>
</svg>
