<svg width="204" height="80" viewBox="0 0 204 80" fill="none" xmlns="http://www.w3.org/2000/svg">
<path d="M203.684 0.471191H0.109375V79.5284H203.684V0.471191Z" fill="#FFF042"/>
<path d="M45.4384 43.8408C45.6166 43.8408 45.8111 43.9219 45.9246 44.1001L52.8935 54.0025C53.088 54.2781 53.0232 54.6346 52.7477 54.8291C52.4722 55.0236 52.1156 54.9588 51.9211 54.6832L44.9522 44.7808C44.7739 44.5215 44.8387 44.1488 45.098 43.9543C45.2115 43.8732 45.3249 43.8408 45.4384 43.8408Z" fill="black"/>
<path d="M25.1999 18.2827C25.3782 18.2827 25.5726 18.3637 25.6861 18.542L38.1492 36.2724C38.295 36.4831 38.295 36.7424 38.1492 36.9531L25.6861 54.6834C25.5078 54.9427 25.135 55.0238 24.8595 54.8293C24.6002 54.6348 24.5354 54.2782 24.7137 54.0027L36.9499 36.6127L24.7137 19.2227C24.5192 18.9634 24.584 18.5906 24.8595 18.3962C24.973 18.3151 25.0864 18.2827 25.1999 18.2827Z" fill="black"/>
<path d="M52.404 18.2827C52.5174 18.2827 52.6309 18.3151 52.7443 18.3962C53.0036 18.5906 53.0685 18.9472 52.8902 19.2227L45.9212 29.1251C45.7267 29.3844 45.3702 29.4655 45.0947 29.271C44.8192 29.0765 44.7705 28.72 44.9488 28.4444L51.9178 18.542C52.0474 18.38 52.2257 18.2827 52.404 18.2827Z" fill="black"/>
<path d="M43.8334 46.1265C44.0117 46.1265 44.2062 46.2075 44.3197 46.3858L49.6841 54.003C49.8624 54.2785 49.8138 54.6351 49.5383 54.8296C49.2628 55.0241 48.9062 54.943 48.7117 54.6837L43.3472 47.0665C43.169 46.8072 43.2176 46.4344 43.4931 46.2399C43.6066 46.1589 43.72 46.1265 43.8334 46.1265Z" fill="black"/>
<path d="M21.9889 18.2827C22.1672 18.2827 22.3617 18.3637 22.4751 18.542L34.9545 36.2724C35.1003 36.4831 35.1003 36.7424 34.9545 36.9531L22.4751 54.6834C22.2969 54.9427 21.9241 55.0238 21.6486 54.8293C21.3893 54.6348 21.3245 54.2782 21.5027 54.0027L33.7389 36.6127L21.5027 19.2227C21.3082 18.9634 21.3731 18.5906 21.6486 18.3962C21.7458 18.3151 21.8755 18.2827 21.9889 18.2827Z" fill="black"/>
<path d="M49.1979 18.2827C49.3114 18.2827 49.4248 18.3151 49.5383 18.3962C49.7976 18.5906 49.8624 18.9472 49.6841 19.2227L44.3197 26.84C44.1414 27.0993 43.7686 27.1803 43.4931 26.9858C43.2176 26.7913 43.169 26.4348 43.3472 26.1593L48.7117 18.542C48.8252 18.38 49.0035 18.2827 49.1979 18.2827Z" fill="black"/>
<path d="M42.2317 48.4111C42.41 48.4111 42.6045 48.4922 42.7179 48.6704L46.4617 54.0025C46.6562 54.2618 46.5914 54.6346 46.3158 54.8291C46.0403 55.0235 45.6838 54.9587 45.4893 54.6832L41.7293 49.3511C41.5348 49.0918 41.5996 48.7191 41.8752 48.5246C41.9886 48.4435 42.1183 48.4111 42.2317 48.4111Z" fill="black"/>
<path d="M18.7624 18.2827C18.9407 18.2827 19.1351 18.3637 19.2486 18.542L31.7279 36.2724C31.8738 36.4831 31.8738 36.7424 31.7279 36.9531L19.2486 54.6834C19.0703 54.9427 18.6975 55.0238 18.422 54.8293C18.1627 54.6348 18.0979 54.2782 18.2762 54.0027L30.5124 36.6127L18.2762 19.2227C18.0817 18.9634 18.1465 18.5906 18.422 18.3962C18.5355 18.3151 18.6489 18.2827 18.7624 18.2827Z" fill="black"/>
<path d="M45.9874 18.2827C46.1009 18.2827 46.2305 18.3151 46.3278 18.3962C46.5871 18.5906 46.6519 18.9472 46.4736 19.2227L42.7136 24.5548C42.5354 24.8141 42.1626 24.8951 41.8871 24.7006C41.6278 24.5062 41.5629 24.1496 41.7412 23.8741L45.5012 18.542C45.6147 18.38 45.7929 18.2827 45.9874 18.2827Z" fill="black"/>
<path d="M180.3 31.9128V30.7621H181.159C181.629 30.7621 181.888 30.9728 181.888 31.3293C181.888 31.6697 181.629 31.8966 181.159 31.8966H180.3V31.9128ZM178.938 34.4248H180.3V32.9824H180.883L181.856 34.4248H183.428L182.277 32.7555C182.877 32.5124 183.266 31.9938 183.266 31.2483C183.266 30.13 182.439 29.6276 181.256 29.6276H178.955V34.4248H178.938ZM180.932 36.1752C178.631 36.1752 176.913 34.3438 176.913 32.1235V32.1072C176.913 29.8869 178.663 28.0393 180.932 28.0393C183.233 28.0393 184.951 29.8707 184.951 32.0748V32.1072C184.935 34.3114 183.201 36.1752 180.932 36.1752ZM180.932 36.6614C183.46 36.6614 185.47 34.5707 185.47 32.091V32.0748C185.47 29.5952 183.493 27.5369 180.932 27.5369C178.404 27.5369 176.394 29.6276 176.394 32.1072V32.1235C176.394 34.6031 178.371 36.6614 180.932 36.6614ZM160.689 46.0614H174.595V42.4797H164.676V38.6548H173.282V35.0731H164.676V31.3617H174.465V27.78H160.689V46.0614ZM150.852 46.3693C154.369 46.3693 156.459 45.1214 158.339 43.1117L155.779 40.5348C154.353 41.8476 153.072 42.6741 150.982 42.6741C147.854 42.6741 145.682 40.0648 145.682 36.9369V36.8883C145.682 33.7603 147.902 31.1997 150.982 31.1997C152.813 31.1997 154.239 31.9776 155.649 33.2579L158.21 30.3083C156.508 28.639 154.45 27.4883 151.014 27.4883C145.406 27.4883 141.484 31.7345 141.484 36.9369V36.9855C141.484 42.2204 145.487 46.3693 150.852 46.3693ZM122.295 46.0614H126.266V34.4572L135.115 46.0614H138.535V27.7962H134.564V39.0438L126.007 27.7962H122.295V46.0614V46.0614ZM108.114 38.4117L110.545 32.4962L112.976 38.4117H108.114ZM100.918 46.0614H105.019L106.688 41.961H114.403L116.072 46.0614H120.269L112.442 27.6666H108.746L100.918 46.0614ZM86.4457 46.0614H99.5733V42.4148H90.465V27.8124H86.4457V46.0614V46.0614ZM79.5092 27.7962L75.6195 33.7117L71.8109 27.7962H67.1109L73.2209 36.7748L66.8516 46.0614H71.4219L75.5385 39.8055L79.6388 46.0614H84.3388L77.9695 36.7262L84.0795 27.8124H79.5092V27.7962Z" fill="black"/>
<path d="M156.49 61.7008H157.706V58.735C157.706 57.9246 158.192 57.4222 158.889 57.4222C159.602 57.4222 160.023 57.8922 160.023 58.7025V61.7008H161.222V58.3298C161.222 57.1143 160.542 56.3201 159.342 56.3201C158.516 56.3201 158.03 56.7415 157.689 57.2439V56.4336H156.474V61.7008H156.49ZM152.584 60.7608C151.644 60.7608 150.98 59.9829 150.98 59.0753V59.0591C150.98 58.1353 151.596 57.3736 152.568 57.3736C153.524 57.3736 154.189 58.1353 154.189 59.0753V59.0915C154.189 59.9991 153.573 60.7608 152.584 60.7608ZM152.568 61.8143C154.189 61.8143 155.388 60.5663 155.388 59.0753V59.0591C155.388 57.5519 154.205 56.3201 152.584 56.3201C150.964 56.3201 149.764 57.5681 149.764 59.0753V59.0915C149.764 60.5825 150.964 61.8143 152.568 61.8143ZM147.447 61.7008H148.662V56.4336H147.447V61.7008ZM147.398 55.6232H148.695V54.4725H147.398V55.6232ZM145.226 61.7819C145.68 61.7819 146.02 61.6846 146.312 61.5063V60.5177C146.069 60.6312 145.826 60.696 145.567 60.696C145.161 60.696 144.918 60.5015 144.918 60.0315V57.4384H146.328V56.4012H144.918V54.9587H143.719V56.4012H143.055V57.4384H143.719V60.2098C143.719 61.3929 144.335 61.7819 145.226 61.7819ZM139.667 60.9229C139.084 60.9229 138.646 60.6312 138.646 60.1288V60.1125C138.646 59.5615 139.1 59.2374 139.878 59.2374C140.364 59.2374 140.769 59.3346 141.077 59.4481V59.8046C141.077 60.4691 140.461 60.9229 139.667 60.9229ZM139.327 61.7981C140.137 61.7981 140.688 61.4577 141.045 61.0363V61.7008H142.228V58.5729C142.228 57.8922 142.05 57.325 141.661 56.9522C141.288 56.5794 140.705 56.3688 139.91 56.3688C139.068 56.3688 138.5 56.547 137.917 56.7901L138.241 57.7301C138.727 57.5357 139.165 57.406 139.748 57.406C140.591 57.406 141.061 57.8112 141.061 58.5567V58.6863C140.656 58.5567 140.235 58.4756 139.651 58.4756C138.371 58.4756 137.463 59.0267 137.463 60.1774V60.1936C137.447 61.2308 138.338 61.7981 139.327 61.7981ZM133.8 61.7332H134.886L137.042 56.4174H135.778L134.351 60.2908L132.941 56.4174H131.645L133.8 61.7332ZM128.501 60.7608C127.561 60.7608 126.896 59.9829 126.896 59.0753V59.0591C126.896 58.1353 127.512 57.3736 128.485 57.3736C129.441 57.3736 130.105 58.1353 130.105 59.0753V59.0915C130.105 59.9991 129.489 60.7608 128.501 60.7608ZM128.485 61.8143C130.105 61.8143 131.305 60.5663 131.305 59.0753V59.0591C131.305 57.5519 130.121 56.3201 128.501 56.3201C126.88 56.3201 125.681 57.5681 125.681 59.0753V59.0915C125.697 60.5825 126.88 61.8143 128.485 61.8143ZM119.911 61.7008H121.127V58.735C121.127 57.9246 121.613 57.4222 122.31 57.4222C123.023 57.4222 123.444 57.8922 123.444 58.7025V61.7008H124.644V58.3298C124.644 57.1143 123.963 56.3201 122.764 56.3201C121.953 56.3201 121.451 56.7415 121.11 57.2439V56.4336H119.895V61.7008H119.911ZM113.817 61.7008H115.033V58.735C115.033 57.9246 115.519 57.4222 116.216 57.4222C116.929 57.4222 117.35 57.8922 117.35 58.7025V61.7008H118.566V58.3298C118.566 57.1143 117.869 56.3201 116.686 56.3201C115.876 56.3201 115.373 56.7415 115.033 57.2439V56.4336H113.817V61.7008V61.7008ZM111.176 61.7008H112.391V56.4336H111.176V61.7008ZM111.127 55.6232H112.424V54.4725H111.127V55.6232ZM103.494 58.6863C103.607 57.8598 104.126 57.2925 104.855 57.2925C105.649 57.2925 106.119 57.9084 106.2 58.6863H103.494ZM105.001 61.8143C105.973 61.8143 106.654 61.4253 107.156 60.8257L106.443 60.1936C106.022 60.5987 105.6 60.8257 105.017 60.8257C104.239 60.8257 103.623 60.3394 103.494 59.4805H107.367C107.383 59.367 107.383 59.2536 107.383 59.1401C107.383 57.6167 106.54 56.3039 104.855 56.3039C103.348 56.3039 102.278 57.5356 102.278 59.0429V59.0591C102.31 60.7122 103.477 61.8143 105.001 61.8143ZM99.9442 61.7008H101.16V54.4077H99.9442V61.7008ZM96.0383 60.7608C95.2118 60.7608 94.4987 60.0801 94.4987 59.0753V59.0591C94.4987 58.0543 95.2118 57.3736 96.0383 57.3736C96.8487 57.3736 97.5456 58.0381 97.5456 59.0591V59.0753C97.5456 60.1125 96.8649 60.7608 96.0383 60.7608ZM96.3301 61.7981C97.578 61.7981 98.7773 60.8094 98.7773 59.0591V59.0429C98.7773 57.2925 97.5618 56.3039 96.3301 56.3039C95.4711 56.3039 94.9201 56.7415 94.5311 57.2925V54.4077H93.3156V61.6846H94.5311V60.8743C94.9039 61.3605 95.4549 61.7981 96.3301 61.7981ZM90.6739 61.7008H91.8894V56.4336H90.6739V61.7008ZM90.6414 55.6232H91.938V54.4725H90.6414V55.6232ZM87.5945 61.7981C88.6966 61.7981 89.5556 61.247 89.5556 60.145V60.1125C89.5556 59.1725 88.6966 58.816 87.9187 58.5729C87.3028 58.3784 86.7356 58.2163 86.7356 57.8274V57.8112C86.7356 57.5194 87.0111 57.2925 87.4649 57.2925C87.9025 57.2925 88.4373 57.487 88.9559 57.795L89.4259 56.936C88.8749 56.5632 88.1456 56.3363 87.4973 56.3363C86.4439 56.3363 85.6173 56.9522 85.6173 57.957V57.9732C85.6173 58.9781 86.4763 59.286 87.2542 59.5129C87.8701 59.7074 88.4373 59.837 88.4373 60.2584V60.2746C88.4373 60.6312 88.1456 60.8419 87.627 60.8419C87.0921 60.8419 86.4763 60.615 85.8928 60.1936L85.358 61.0039C86.0063 61.5387 86.8328 61.7981 87.5945 61.7981ZM83.1539 61.7008H84.3694V56.4336H83.1539V61.7008ZM83.1052 55.6232H84.4018V54.4725H83.1052V55.6232ZM79.0211 61.7332H80.107L82.2625 56.4174H80.9983L79.5721 60.2908L78.1621 56.4174H76.8656L79.0211 61.7332ZM71.5335 61.7008H72.749V58.735C72.749 57.9246 73.2352 57.4222 73.9321 57.4222C74.6452 57.4222 75.0666 57.8922 75.0666 58.7025V61.7008H76.2659V58.3298C76.2659 57.1143 75.5852 56.3201 74.3859 56.3201C73.5594 56.3201 73.0732 56.7415 72.7328 57.2439V56.4336H71.5173V61.7008H71.5335ZM68.8918 61.7008H70.1073V56.4336H68.8918V61.7008ZM68.8594 55.6232H70.1559V54.4725H68.8594V55.6232Z" fill="black"/>
</svg>
