<svg width="168" height="86" viewBox="0 0 168 86" fill="none" xmlns="http://www.w3.org/2000/svg">
<g clip-path="url(#clip0_1448_5931)">
<path d="M168 0.101562H0V85.1016H168V0.101562Z" fill="white"/>
<path d="M33.9128 68.4185H33.2104V63.3858H31.7617V62.7861H35.3834V63.3858H33.9128" fill="black"/>
<path d="M35.8664 66.3839C35.8664 67.0264 35.8664 68.0115 36.7005 68.0115C37.359 68.0115 37.4468 67.3476 37.4468 67.0264H38.1272C38.1272 67.4761 37.8419 68.5255 36.6786 68.5255C35.625 68.5255 35.1641 67.7974 35.1641 66.3411C35.1641 65.2917 35.3836 64.0496 36.7005 64.0496C38.0394 64.0496 38.1492 65.1846 38.1492 66.0841V66.3411L35.8664 66.3839ZM37.4249 65.8699V65.6343C37.4249 65.1632 37.2712 64.6064 36.6786 64.6064C35.9542 64.6064 35.8884 65.463 35.8884 65.72V65.8699H37.4249Z" fill="black"/>
<path d="M40.7634 65.4201C40.7634 64.8847 40.6097 64.5849 40.1269 64.5849C39.9074 64.5849 39.4245 64.6492 39.4245 65.2274C39.4245 65.72 39.9513 65.827 40.5 65.9984C41.0268 66.1697 41.5536 66.3624 41.5536 67.1977C41.5536 68.0971 40.9609 68.5255 40.1488 68.5255C38.6782 68.5255 38.6562 67.4547 38.6562 67.0263H39.3367C39.3367 67.5403 39.4903 68.0115 40.1488 68.0115C40.3683 68.0115 40.8731 67.9044 40.8731 67.3047C40.8731 66.7265 40.3463 66.6194 39.8196 66.4481C39.2928 66.2768 38.744 66.1269 38.744 65.2488C38.744 64.4564 39.3806 64.0709 40.1269 64.0709C41.3999 64.0709 41.4438 64.9276 41.4438 65.4201" fill="black"/>
<path d="M42.4061 62.9573H43.0865V64.1994H43.8328V64.7134H43.0865V67.4332C43.0865 67.7759 43.1743 67.9044 43.5255 67.9044C43.6791 67.9044 43.745 67.883 43.8328 67.883V68.4398C43.745 68.4612 43.5694 68.4826 43.284 68.4826C42.5816 68.4826 42.4061 68.2042 42.4061 67.6474V64.7134H41.7695V64.1994H42.4061" fill="black"/>
<path d="M44.8664 66.3839C44.8664 67.0264 44.8664 68.0115 45.7005 68.0115C46.359 68.0115 46.4468 67.3476 46.4468 67.0264H47.1272C47.1272 67.4761 46.8419 68.5255 45.6786 68.5255C44.625 68.5255 44.1641 67.7974 44.1641 66.3411C44.1641 65.2917 44.3836 64.0496 45.7005 64.0496C47.0394 64.0496 47.1492 65.1846 47.1492 66.0841V66.3411L44.8664 66.3839ZM46.4468 65.8699V65.6343C46.4468 65.1632 46.2931 64.6064 45.7005 64.6064C44.9762 64.6064 44.9103 65.463 44.9103 65.72V65.8699H46.4468Z" fill="black"/>
<path d="M50.7712 68.4185H50.1347V67.9045H50.1127C50.0249 68.2257 49.6518 68.547 49.1689 68.547C48.1373 68.547 47.7422 67.6475 47.7422 66.3197C47.7422 65.4417 47.8958 64.0925 49.103 64.0925C49.4981 64.0925 49.8932 64.328 50.0469 64.6921H50.0688V62.8075H50.7492L50.7712 68.4185ZM49.2567 67.9688C50.003 67.9688 50.1347 67.2834 50.1347 66.3197C50.1347 65.4845 49.981 64.6493 49.2567 64.6493C48.6202 64.6493 48.4665 65.2918 48.4665 66.3197C48.4665 67.3263 48.6202 67.9688 49.2567 67.9688Z" fill="black"/>
<path d="M53.8201 64.7134H53.1836V64.1995H53.8201V63.7069C53.8201 63.0644 54.1055 62.7432 54.7639 62.7432H55.2688V63.3214H54.9615C54.6761 63.3214 54.5225 63.4285 54.5225 63.7283V64.2209H55.2688V64.7348H54.5225V68.4612H53.8421" fill="black"/>
<path d="M57.0701 64.0709C58.3212 64.0709 58.6285 65.0989 58.6285 66.2982C58.6285 67.4975 58.3212 68.5255 57.0701 68.5255C55.819 68.5255 55.5117 67.4975 55.5117 66.2982C55.5117 65.1203 55.819 64.0709 57.0701 64.0709ZM57.9262 66.2982C57.9262 65.3773 57.7945 64.5849 57.0482 64.5849C56.3677 64.5849 56.2141 65.3773 56.2141 66.2982C56.2141 67.2191 56.3458 68.0115 57.0482 68.0115C57.7945 68.0115 57.9262 67.2191 57.9262 66.2982Z" fill="black"/>
<path d="M59.332 64.1781H60.0125V64.8206H60.0344C60.2319 64.4137 60.4953 64.071 60.9782 64.071C61.1099 64.071 61.2197 64.0925 61.2855 64.1139V64.7564C61.2197 64.7564 61.1319 64.7349 60.9124 64.7349C60.5612 64.7349 60.0125 65.0348 60.0125 65.7415V68.4185H59.332" fill="black"/>
<path d="M63.6758 62.7861H64.3562V64.6707H64.3782C64.5538 64.3281 65.0366 64.0711 65.4317 64.0711C66.5512 64.0711 66.5512 64.9277 66.5512 65.4203V68.4185H65.8707V65.4845C65.8707 65.1633 65.8488 64.6279 65.2342 64.6279C64.861 64.6279 64.3782 64.8635 64.3782 65.4845V68.4185H63.6977" fill="black"/>
<path d="M67.3426 65.4631C67.3426 64.4994 67.7597 64.071 68.7913 64.071C70.1082 64.071 70.1082 64.842 70.1082 65.2918V67.6475C70.1082 67.8188 70.1082 67.9902 70.3277 67.9902C70.4155 67.9902 70.4594 67.9688 70.4814 67.9473V68.4185C70.4375 68.4185 70.2619 68.4613 70.0863 68.4613C69.8229 68.4613 69.4937 68.4613 69.4717 67.9045H69.4498C69.2303 68.29 68.8132 68.5042 68.3962 68.5042C67.5841 68.5042 67.2109 68.033 67.2109 67.262C67.2109 66.6624 67.4743 66.2555 68.0231 66.0841L68.9449 65.8272C69.4278 65.6772 69.4278 65.5487 69.4278 65.1847C69.4278 64.7992 69.1864 64.5636 68.7254 64.5636C67.9792 64.5636 67.9792 65.2489 67.9792 65.3988V65.4417L67.3426 65.4631ZM69.4278 66.127C69.1864 66.384 68.5718 66.4482 68.2645 66.6195C68.045 66.748 67.9353 66.9194 67.9353 67.2834C67.9353 67.7118 68.0889 68.0116 68.5498 68.0116C68.9888 68.0116 69.4278 67.6475 69.4278 67.1978V66.127Z" fill="black"/>
<path d="M71.0508 64.1781H71.7312V64.8206H71.7532C71.9507 64.4137 72.2141 64.071 72.697 64.071C72.8287 64.071 72.9384 64.0925 73.0043 64.1139V64.7564C72.9384 64.7564 72.8506 64.7349 72.6311 64.7349C72.2799 64.7349 71.7312 65.0348 71.7312 65.7415V68.4185H71.0508" fill="black"/>
<path d="M73.5102 64.1781H74.1468V64.6707H74.1687C74.3443 64.2852 74.8052 64.071 75.2223 64.071C75.7271 64.071 76.0344 64.2638 76.1661 64.7349C76.3636 64.3709 76.7587 64.071 77.1977 64.071C78.3391 64.071 78.3391 64.9277 78.3391 65.4203V68.4185H77.6586V65.4845C77.6586 65.1633 77.6367 64.6279 77.066 64.6279C76.7587 64.6279 76.2539 64.8206 76.2539 65.4845V68.4185H75.5735V65.4845C75.5735 65.1633 75.5515 64.6279 74.9808 64.6279C74.6735 64.6279 74.1687 64.8206 74.1687 65.4845V68.4185H73.4883" fill="black"/>
<path d="M79.5233 64.7134H78.8867V64.1995H79.5233V63.7069C79.5233 63.0644 79.8086 62.7432 80.4671 62.7432H80.9719V63.3214H80.6646C80.3793 63.3214 80.2256 63.4285 80.2256 63.7283V64.2209H80.9719V64.7348H80.2256V68.4612H79.5452" fill="black"/>
<path d="M84.2855 68.4185H83.627V67.9259H83.6051C83.4295 68.3114 82.9686 68.5256 82.5515 68.5256C81.4102 68.5256 81.4102 67.6689 81.4102 67.1763V64.1781H82.0906V67.1121C82.0906 67.4333 82.1125 67.9687 82.7271 67.9687C83.1002 67.9687 83.5831 67.7332 83.5831 67.1121V64.1781H84.2636" fill="black"/>
<path d="M85.9109 62.7861H85.2305V68.44H85.9109V62.7861Z" fill="black"/>
<path d="M90.654 65.4201C90.654 64.8847 90.5004 64.5849 90.0175 64.5849C89.798 64.5849 89.3151 64.6492 89.3151 65.2274C89.3151 65.72 89.8419 65.827 90.3906 65.9984C90.9174 66.1697 91.4442 66.3624 91.4442 67.1977C91.4442 68.0971 90.8516 68.5255 90.0394 68.5255C88.5688 68.5255 88.5469 67.4547 88.5469 67.0263H89.2273C89.2273 67.5403 89.3809 68.0115 90.0394 68.0115C90.2589 68.0115 90.7638 67.9044 90.7638 67.3047C90.7638 66.7265 90.237 66.6194 89.7102 66.4481C89.1834 66.2768 88.6347 66.1269 88.6347 65.2488C88.6347 64.4564 89.2712 64.0709 90.0175 64.0709C91.2905 64.0709 91.3344 64.9276 91.3344 65.4201" fill="black"/>
<path d="M94.9535 68.4185H94.295V67.9259H94.273C94.0975 68.3114 93.6365 68.5256 93.2195 68.5256C92.0781 68.5256 92.0781 67.6689 92.0781 67.1763V64.1781H92.7585V67.1121C92.7585 67.4333 92.7805 67.9687 93.3951 67.9687C93.7682 67.9687 94.2511 67.7332 94.2511 67.1121V64.1781H94.9315" fill="black"/>
<path d="M95.854 62.7861H96.5344V64.6707H96.5564C96.71 64.3067 97.1271 64.0711 97.566 64.0711C98.7513 64.0711 98.883 65.4203 98.883 66.2984C98.883 67.4977 98.466 68.5256 97.4563 68.5256C96.9954 68.5256 96.6003 68.2044 96.5125 67.8831H96.4905V68.3971H95.832L95.854 62.7861ZM97.3685 67.9688C98.005 67.9688 98.1587 67.2835 98.1587 66.3198C98.1587 65.3132 98.005 64.6493 97.3685 64.6493C96.6442 64.6493 96.4905 65.4845 96.4905 66.3198C96.4905 67.1764 96.6442 67.9688 97.3685 67.9688Z" fill="black"/>
<path d="M101.474 65.4201C101.474 64.8847 101.321 64.5849 100.838 64.5849C100.618 64.5849 100.135 64.6492 100.135 65.2274C100.135 65.72 100.662 65.827 101.211 65.9984C101.738 66.1697 102.265 66.3624 102.265 67.1977C102.265 68.0971 101.672 68.5255 100.86 68.5255C99.3891 68.5255 99.3672 67.4547 99.3672 67.0263H100.048C100.048 67.5403 100.201 68.0115 100.86 68.0115C101.079 68.0115 101.584 67.9044 101.584 67.3047C101.584 66.7265 101.057 66.6194 100.531 66.4481C100.004 66.2768 99.455 66.1269 99.455 65.2488C99.455 64.4564 100.092 64.0709 100.838 64.0709C102.111 64.0709 102.155 64.9276 102.155 65.4201" fill="black"/>
<path d="M103.121 62.9573H103.801V64.1994H104.548V64.7134H103.801V67.4332C103.801 67.7759 103.889 67.9044 104.24 67.9044C104.394 67.9044 104.46 67.883 104.548 67.883V68.4398C104.46 68.4612 104.284 68.4826 103.999 68.4826C103.297 68.4826 103.121 68.2042 103.121 67.6474V64.7134H102.484V64.1994H103.121" fill="black"/>
<path d="M104.921 65.4631C104.921 64.4994 105.338 64.071 106.369 64.071C107.686 64.071 107.686 64.842 107.686 65.2918V67.6475C107.686 67.8188 107.686 67.9902 107.906 67.9902C107.994 67.9902 108.038 67.9688 108.06 67.9473V68.4185C108.016 68.4185 107.84 68.4613 107.664 68.4613C107.401 68.4613 107.072 68.4613 107.05 67.9045H107.028C106.808 68.29 106.391 68.5042 105.974 68.5042C105.162 68.5042 104.789 68.033 104.789 67.262C104.789 66.6624 105.052 66.2555 105.601 66.0841L106.523 65.8272C107.006 65.6772 107.006 65.5487 107.006 65.1847C107.006 64.7992 106.765 64.5636 106.304 64.5636C105.557 64.5636 105.557 65.2489 105.557 65.3988V65.4417L104.921 65.4631ZM107.006 66.127C106.765 66.384 106.15 66.4482 105.843 66.6195C105.623 66.748 105.513 66.9194 105.513 67.2834C105.513 67.7118 105.667 68.0116 106.128 68.0116C106.567 68.0116 107.006 67.6475 107.006 67.1978V66.127Z" fill="black"/>
<path d="M108.629 64.1781H109.265V64.6707H109.287C109.463 64.2852 109.924 64.071 110.341 64.071C111.482 64.071 111.482 64.9277 111.482 65.4203V68.4185H110.802V65.4845C110.802 65.1633 110.78 64.6279 110.165 64.6279C109.792 64.6279 109.309 64.8634 109.309 65.4845V68.4185H108.629" fill="black"/>
<path d="M114.446 65.4844C114.446 65.0775 114.27 64.6064 113.765 64.6064C113.348 64.6064 112.909 64.8206 112.909 66.3625C112.909 66.9193 112.909 68.0329 113.743 68.0329C114.314 68.0329 114.468 67.4333 114.468 66.9836H115.148C115.148 67.6475 114.797 68.5683 113.722 68.5683C112.668 68.5683 112.207 67.8402 112.207 66.3839C112.207 65.3131 112.405 64.0924 113.743 64.0924C114.929 64.0924 115.126 64.9919 115.126 65.4844" fill="black"/>
<path d="M116.421 66.3839C116.421 67.0264 116.421 68.0115 117.255 68.0115C117.914 68.0115 118.001 67.3476 118.001 67.0264H118.682C118.682 67.4761 118.397 68.5255 117.233 68.5255C116.18 68.5255 115.719 67.7974 115.719 66.3411C115.719 65.2917 115.938 64.0496 117.255 64.0496C118.594 64.0496 118.704 65.1846 118.704 66.0841V66.3411L116.421 66.3839ZM117.98 65.8699V65.6343C117.98 65.1632 117.826 64.6064 117.233 64.6064C116.531 64.6064 116.443 65.463 116.443 65.72V65.8699H117.98Z" fill="black"/>
<path d="M121.314 65.4201C121.314 64.8847 121.161 64.5849 120.678 64.5849C120.458 64.5849 119.975 64.6492 119.975 65.2274C119.975 65.72 120.502 65.827 121.051 65.9984C121.578 66.1697 122.104 66.3624 122.104 67.1977C122.104 68.0971 121.512 68.5255 120.7 68.5255C119.229 68.5255 119.207 67.4547 119.207 67.0263H119.887C119.887 67.5403 120.041 68.0115 120.7 68.0115C120.919 68.0115 121.424 67.9044 121.424 67.3047C121.424 66.7265 120.897 66.6194 120.348 66.4481C119.822 66.2768 119.273 66.1269 119.273 65.2488C119.273 64.4564 119.909 64.0709 120.656 64.0709C121.929 64.0709 121.973 64.9276 121.973 65.4201" fill="black"/>
<path d="M123.664 67.5833H122.918V68.4185H123.664V67.5833Z" fill="black"/>
<path d="M24.9336 73.6868H25.6579L26.3603 77.1562L27.1066 73.6868H27.9187L28.6211 77.1562H28.643L29.3235 73.6868H30.0258L28.9942 77.9271H28.2479L27.5017 74.4792H27.4797L26.7554 77.9271H25.9652" fill="black"/>
<path d="M30.2031 73.6868H30.9275L31.6079 77.1562H31.6298L32.3761 73.6868H33.1663L33.8906 77.1562H33.9125L34.593 73.6868H35.2954L34.2637 77.9271H33.5175L32.7712 74.4792H32.7492L32.0249 77.9271H31.2128" fill="black"/>
<path d="M35.4688 73.6868H36.1711L36.8735 77.1562H36.8955L37.6417 73.6868H38.4319L39.1562 77.1562H39.1782L39.8367 73.6868H40.561L39.5294 77.9271H38.7831L38.0149 74.4792L37.2686 77.9271H36.4784" fill="black"/>
<path d="M41.7033 77.0919H40.957V77.9271H41.7033V77.0919Z" fill="black"/>
<path d="M44.0975 73.5797C45.3486 73.5797 45.6559 74.6077 45.6559 75.807C45.6559 77.0063 45.3486 78.0342 44.0975 78.0342C42.8464 78.0342 42.5391 77.0063 42.5391 75.807C42.5391 74.6291 42.8464 73.5797 44.0975 73.5797ZM44.9535 75.807C44.9535 74.8861 44.8218 74.0937 44.0755 74.0937C43.3951 74.0937 43.2414 74.8861 43.2414 75.807C43.2414 76.7279 43.3731 77.5203 44.0755 77.5203C44.7999 77.5203 44.9535 76.7279 44.9535 75.807Z" fill="black"/>
<path d="M46.9289 75.8926C46.9289 76.535 46.9289 77.5202 47.763 77.5202C48.4215 77.5202 48.5093 76.8563 48.5093 76.535H49.1897C49.1897 76.9848 48.9044 78.0342 47.7411 78.0342C46.6875 78.0342 46.2266 77.306 46.2266 75.8497C46.2266 74.7789 46.4461 73.5582 47.763 73.5582C49.1019 73.5582 49.2117 74.6933 49.2117 75.5927V75.8497L46.9289 75.8926ZM48.4873 75.3786V75.143C48.4873 74.6719 48.3337 74.115 47.7411 74.115C47.0167 74.115 46.9509 74.9717 46.9509 75.2287V75.3786H48.4873Z" fill="black"/>
<path d="M53.2055 77.9271H52.4154L51.2081 75.8283L50.6375 76.5136V77.9271H49.957V72.2947H50.6375V75.657H50.6594L52.1739 73.6867H52.9641L51.6471 75.2929" fill="black"/>
<path d="M54.9178 73.5797C56.1689 73.5797 56.4762 74.6077 56.4762 75.807C56.4762 77.0063 56.1689 78.0342 54.9178 78.0342C53.6667 78.0342 53.3594 77.0063 53.3594 75.807C53.3594 74.6291 53.6667 73.5797 54.9178 73.5797ZM55.7738 75.807C55.7738 74.8861 55.6421 74.0937 54.8958 74.0937C54.2154 74.0937 54.0618 74.8861 54.0618 75.807C54.0618 76.7279 54.1935 77.5203 54.8958 77.5203C55.6202 77.5203 55.7738 76.7279 55.7738 75.807Z" fill="black"/>
<path d="M59.1317 75.3787H57.1562V75.9997H59.1317V75.3787Z" fill="black"/>
<path d="M60.2303 72.4661H60.9107V73.7082H61.657V74.2222H60.9107V76.942C60.9107 77.2847 60.9985 77.4132 61.3497 77.4132C61.5033 77.4132 61.5692 77.3917 61.657 77.3917V77.9486C61.5692 77.97 61.3936 77.9914 61.1082 77.9914C60.4059 77.9914 60.2303 77.713 60.2303 77.1562V74.2222H59.5938V73.7082H60.2303" fill="black"/>
<path d="M62.6868 75.8926C62.6868 76.535 62.6868 77.5202 63.5208 77.5202C64.1793 77.5202 64.2671 76.8563 64.2671 76.535H64.9475C64.9475 76.9848 64.6622 78.0342 63.4989 78.0342C62.4453 78.0342 61.9844 77.306 61.9844 75.8497C61.9844 74.7789 62.2039 73.5582 63.5208 73.5582C64.8597 73.5582 64.9695 74.6933 64.9695 75.5927V75.8497L62.6868 75.8926ZM64.2671 75.3786V75.143C64.2671 74.6719 64.1135 74.115 63.5208 74.115C62.7965 74.115 62.7307 74.9717 62.7307 75.2287V75.3786H64.2671Z" fill="black"/>
<path d="M65.4096 73.6868H66.1559L66.9461 75.2073L67.7362 73.6868H68.4825L67.3631 75.7213L68.5264 77.9271H67.7801L66.9241 76.2567L66.09 77.9271H65.3438L66.529 75.7213" fill="black"/>
<path d="M69.9338 77.0919H69.1875V77.9271H69.9338V77.0919Z" fill="black"/>
<path d="M73.0474 74.9932C73.0474 74.5863 72.8718 74.1152 72.367 74.1152C71.95 74.1152 71.511 74.3293 71.511 75.8713C71.511 76.4281 71.511 77.5417 72.345 77.5417C72.9377 77.5417 73.0694 76.9421 73.0694 76.4923H73.7498C73.7498 77.1562 73.3986 78.0771 72.3231 78.0771C71.2695 78.0771 70.8086 77.349 70.8086 75.8927C70.8086 74.8433 71.0281 73.6012 72.345 73.6012C73.5303 73.6012 73.7279 74.5007 73.7279 74.9932" fill="black"/>
<path d="M75.7928 73.5797C77.0439 73.5797 77.3512 74.6077 77.3512 75.807C77.3512 77.0063 77.0439 78.0342 75.7928 78.0342C74.5417 78.0342 74.2344 77.0063 74.2344 75.807C74.2344 74.6291 74.5417 73.5797 75.7928 73.5797ZM76.6488 75.807C76.6488 74.8861 76.5171 74.0937 75.7708 74.0937C75.0904 74.0937 74.9368 74.8861 74.9368 75.807C74.9368 76.7279 75.0684 77.5203 75.7708 77.5203C76.4951 77.5203 76.6488 76.7279 76.6488 75.807Z" fill="black"/>
<path d="M78.1172 73.6868H78.7757V74.1794H78.7976C78.9732 73.7939 79.4341 73.5797 79.8512 73.5797C80.356 73.5797 80.6633 73.7725 80.795 74.2436C80.9926 73.8795 81.3876 73.5797 81.8266 73.5797C82.968 73.5797 82.968 74.4363 82.968 74.9289V77.9272H82.2876V74.9932C82.2876 74.6719 82.2656 74.1365 81.6949 74.1365C81.3876 74.1365 80.8828 74.3293 80.8828 74.9932V77.9272H80.2024V74.9932C80.2024 74.6719 80.1804 74.1365 79.6097 74.1365C79.3025 74.1365 78.7976 74.3293 78.7976 74.9932V77.9272H78.1172" fill="black"/>
<path d="M85.2744 72.1876H85.8011L83.9135 78.0556H83.3867L85.2744 72.1876Z" fill="black"/>
<path d="M88.0407 74.9289C88.0407 74.3935 87.8871 74.0937 87.4042 74.0937C87.1847 74.0937 86.7018 74.1579 86.7018 74.7362C86.7018 75.2287 87.2286 75.3358 87.7773 75.5071C88.3041 75.6785 88.8309 75.8712 88.8309 76.7064C88.8309 77.6059 88.2383 78.0342 87.4261 78.0342C85.9555 78.0342 85.9336 76.9634 85.9336 76.5351H86.614C86.614 77.0491 86.7677 77.5203 87.4261 77.5203C87.6456 77.5203 88.1505 77.4132 88.1505 76.8135C88.1505 76.2353 87.6237 76.1282 87.0969 75.9569C86.5701 75.7856 86.0214 75.6356 86.0214 74.7576C86.0214 73.9652 86.6579 73.5797 87.4042 73.5797C88.6773 73.5797 88.7211 74.4363 88.7211 74.9289" fill="black"/>
<path d="M89.6873 72.4661H90.3677V73.7082H91.114V74.2222H90.3677V76.942C90.3677 77.2847 90.4555 77.4132 90.8067 77.4132C90.9604 77.4132 91.0262 77.3917 91.114 77.3917V77.9486C91.0262 77.97 90.8506 77.9914 90.5653 77.9914C89.8629 77.9914 89.6873 77.713 89.6873 77.1562V74.2222H89.0508V73.7082H89.6873" fill="black"/>
<path d="M91.4637 74.9717C91.4637 74.008 91.8808 73.5797 92.9124 73.5797C94.2293 73.5797 94.2293 74.3507 94.2293 74.8004V77.1562C94.2293 77.3275 94.2293 77.4988 94.4488 77.4988C94.5366 77.4988 94.5805 77.4774 94.6025 77.456V77.9272C94.5586 77.9272 94.383 77.97 94.2074 77.97C93.944 77.97 93.6148 77.97 93.5928 77.4132H93.5709C93.3514 77.7987 92.9343 78.0128 92.5173 78.0128C91.7052 78.0128 91.332 77.5417 91.332 76.7707C91.332 76.171 91.5954 75.7641 92.1442 75.5928L93.066 75.3358C93.5489 75.1859 93.5489 75.0574 93.5489 74.6933C93.5489 74.3079 93.3075 74.0723 92.8465 74.0723C92.1003 74.0723 92.1003 74.7576 92.1003 74.9075V74.9503L91.4637 74.9717ZM93.5709 75.6356C93.3294 75.8926 92.7148 75.9569 92.4075 76.1282C92.188 76.2567 92.0783 76.428 92.0783 76.7921C92.0783 77.2204 92.2319 77.5203 92.6929 77.5203C93.1319 77.5203 93.5709 77.1562 93.5709 76.7064V75.6356Z" fill="black"/>
<path d="M95.1953 73.6868H95.8318V74.1794H95.8538C96.0294 73.7939 96.4903 73.5797 96.9074 73.5797C98.0487 73.5797 98.0487 74.4363 98.0487 74.9289V77.9272H97.3683V74.9932C97.3683 74.6719 97.3463 74.1365 96.7318 74.1365C96.3586 74.1365 95.8757 74.3721 95.8757 74.9932V77.9272H95.1953" fill="black"/>
<path d="M101.802 77.9271H101.166V77.4132H101.144C101.056 77.7344 100.683 78.0556 100.2 78.0556C99.1685 78.0556 98.7734 77.1562 98.7734 75.8284C98.7734 74.9503 98.9271 73.6011 100.134 73.6011C100.529 73.6011 100.924 73.8367 101.078 74.2008H101.1V72.3162H101.78L101.802 77.9271ZM100.288 77.4774C101.034 77.4774 101.166 76.7707 101.166 75.807C101.166 74.9932 101.012 74.1365 100.288 74.1365C99.6514 74.1365 99.4978 74.779 99.4978 75.807C99.4978 76.8349 99.6514 77.4774 100.288 77.4774Z" fill="black"/>
<path d="M102.593 74.9717C102.593 74.008 103.01 73.5797 104.041 73.5797C105.358 73.5797 105.358 74.3507 105.358 74.8004V77.1562C105.358 77.3275 105.358 77.4988 105.578 77.4988C105.666 77.4988 105.709 77.4774 105.731 77.456V77.9272C105.687 77.9272 105.512 77.97 105.336 77.97C105.073 77.97 104.744 77.97 104.722 77.4132H104.7C104.48 77.7987 104.063 78.0128 103.646 78.0128C102.834 78.0128 102.461 77.5417 102.461 76.7707C102.461 76.171 102.724 75.7641 103.273 75.5928L104.195 75.3358C104.678 75.1859 104.678 75.0574 104.678 74.6933C104.678 74.3079 104.436 74.0723 103.975 74.0723C103.229 74.0723 103.229 74.7576 103.229 74.9075V74.9503L102.593 74.9717ZM104.7 75.6356C104.458 75.8926 103.844 75.9569 103.536 76.1282C103.317 76.2567 103.207 76.428 103.207 76.7921C103.207 77.2204 103.361 77.5203 103.822 77.5203C104.261 77.5203 104.7 77.1562 104.7 76.7064V75.6356Z" fill="black"/>
<path d="M106.301 73.6868H106.981V74.3293H107.003C107.201 73.9224 107.464 73.5797 107.947 73.5797C108.079 73.5797 108.188 73.6011 108.254 73.6225V74.265C108.188 74.265 108.101 74.2436 107.881 74.2436C107.53 74.2436 106.981 74.5434 106.981 75.2502V77.9272H106.301" fill="black"/>
<path d="M111.57 77.9271H110.912V77.4132H110.89C110.802 77.7344 110.429 78.0556 109.946 78.0556C108.915 78.0556 108.52 77.1562 108.52 75.8284C108.52 74.9503 108.673 73.6011 109.88 73.6011C110.275 73.6011 110.671 73.8367 110.824 74.2008H110.846V72.3162H111.527L111.57 77.9271ZM110.056 77.4774C110.802 77.4774 110.934 76.7707 110.934 75.807C110.934 74.9932 110.78 74.1365 110.056 74.1365C109.419 74.1365 109.266 74.779 109.266 75.807C109.266 76.8349 109.419 77.4774 110.056 77.4774Z" fill="black"/>
<path d="M112.578 73.2585C113.302 73.2157 113.961 73.13 114.005 72.3376H114.488V77.9486H113.807V73.7297H112.578" fill="black"/>
<path d="M116.223 75.2074C116.223 73.9653 116.31 72.3376 117.869 72.3376C119.405 72.3376 119.515 73.8368 119.515 75.2074C119.515 76.3853 119.427 78.0343 117.869 78.0343C116.332 78.0557 116.223 76.5352 116.223 75.2074ZM117.869 77.5203C118.747 77.5203 118.791 76.3853 118.791 75.2074C118.791 73.9653 118.747 72.8516 117.869 72.8516C116.991 72.8516 116.947 73.9867 116.947 75.2074C116.947 76.3853 116.991 77.5203 117.869 77.5203Z" fill="black"/>
<path d="M120.129 75.2074C120.129 73.9653 120.217 72.3376 121.775 72.3376C123.312 72.3376 123.421 73.8368 123.421 75.2074C123.421 76.3853 123.333 78.0343 121.775 78.0343C120.217 78.0557 120.129 76.5352 120.129 75.2074ZM121.775 77.5203C122.653 77.5203 122.697 76.3853 122.697 75.2074C122.697 73.9653 122.653 72.8516 121.775 72.8516C120.897 72.8516 120.853 73.9867 120.853 75.2074C120.853 76.3853 120.897 77.5203 121.775 77.5203Z" fill="black"/>
<path d="M29.3478 28.4562C29.3259 28.4777 29.282 28.5205 29.2161 28.5633C29.1503 28.6062 29.0625 28.649 28.9527 28.6918C28.843 28.7347 28.7113 28.7775 28.5577 28.7989C28.404 28.8203 28.2284 28.8417 28.0309 28.8417C27.6577 28.8417 27.3285 28.7775 27.0431 28.6704C26.7578 28.5419 26.5383 28.392 26.3627 28.1778C26.1871 27.9637 26.0554 27.7067 25.9676 27.4283C25.8798 27.1285 25.8359 26.8072 25.8359 26.4646C25.8359 26.1219 25.8798 25.8007 25.9676 25.5008C26.0554 25.201 26.1871 24.944 26.3847 24.7299C26.5603 24.5157 26.8017 24.3444 27.0651 24.2159C27.3285 24.0874 27.6577 24.0446 28.0309 24.0446C28.2065 24.0446 28.3821 24.066 28.5357 24.0874C28.6893 24.1302 28.7991 24.1516 28.9308 24.1945C29.0405 24.2373 29.1283 24.2801 29.1942 24.323C29.26 24.3658 29.3259 24.4086 29.3478 24.4515C29.3917 24.4943 29.4356 24.5371 29.4576 24.58C29.5015 24.6228 29.5015 24.687 29.5015 24.7513C29.5015 24.8369 29.4576 24.944 29.3917 25.0297C29.3259 25.1154 29.2381 25.201 29.1503 25.2867C29.0844 25.2439 29.0405 25.1796 28.9527 25.1154C28.8869 25.0511 28.7991 25.0083 28.7113 24.9654C28.6235 24.9226 28.5357 24.8798 28.426 24.8584C28.3162 24.8155 28.1845 24.8155 28.0528 24.8155C27.8114 24.8155 27.6138 24.8584 27.4602 24.9654C27.3065 25.0511 27.1748 25.1796 27.0651 25.3295C26.9773 25.4794 26.8895 25.6508 26.8676 25.8435C26.8237 26.0362 26.8017 26.229 26.8017 26.4431C26.8017 26.6573 26.8237 26.8715 26.8676 27.0642C26.9115 27.257 26.9773 27.4283 27.087 27.5782C27.1968 27.7281 27.3285 27.8566 27.4821 27.9423C27.6577 28.0279 27.8553 28.0708 28.0967 28.0708C28.2284 28.0708 28.3601 28.0493 28.4699 28.0279C28.5796 28.0065 28.6674 27.9637 28.7552 27.9208C28.843 27.878 28.9088 27.8138 28.9747 27.7709C29.0405 27.7281 29.0844 27.6853 29.1283 27.6424C29.1503 27.6853 29.1942 27.7067 29.2161 27.7709C29.26 27.8138 29.282 27.8566 29.3259 27.9208C29.3698 27.9637 29.3917 28.0279 29.4137 28.0708C29.4356 28.1136 29.4576 28.1778 29.4576 28.1993C29.4576 28.2635 29.4356 28.3063 29.4137 28.3492C29.4356 28.3706 29.3917 28.4134 29.3478 28.4562Z" fill="#878787"/>
<path d="M35.0965 26.4002C35.0965 26.7215 35.0526 27.0427 34.9648 27.3426C34.877 27.6424 34.7673 27.8994 34.5917 28.1135C34.4161 28.3277 34.1966 28.5204 33.9113 28.6489C33.6479 28.7774 33.3186 28.8417 32.9235 28.8417C32.5504 28.8417 32.2212 28.7774 31.9578 28.6489C31.6944 28.5204 31.4749 28.3491 31.2993 28.1135C31.1237 27.8994 31.014 27.6424 30.9262 27.3426C30.8384 27.0427 30.8164 26.7429 30.8164 26.4217C30.8164 26.1004 30.8603 25.8006 30.9481 25.5008C31.0359 25.2224 31.1676 24.9654 31.3432 24.7298C31.5188 24.5156 31.7383 24.3443 32.0236 24.2158C32.287 24.0873 32.6162 24.0231 32.9894 24.0231C33.3625 24.0231 33.6698 24.0873 33.9552 24.2158C34.2185 24.3443 34.438 24.5156 34.6136 24.7298C34.7892 24.944 34.899 25.201 34.9868 25.4794C35.0526 25.7578 35.0965 26.079 35.0965 26.4002ZM34.1088 26.4217C34.1088 26.2075 34.0869 25.9933 34.043 25.8006C33.9991 25.6079 33.9332 25.4365 33.8454 25.2866C33.7576 25.1367 33.6479 25.0082 33.4942 24.9225C33.3625 24.8369 33.1869 24.794 32.9674 24.794C32.7479 24.794 32.5724 24.8369 32.4187 24.9225C32.2651 25.0082 32.1553 25.1367 32.0675 25.2866C31.9797 25.4365 31.9139 25.6079 31.87 25.8006C31.8261 25.9933 31.8041 26.2075 31.8041 26.4217C31.8041 26.6358 31.8261 26.85 31.87 27.0641C31.9139 27.2569 31.9797 27.4282 32.0675 27.5995C32.1553 27.7495 32.2651 27.878 32.4187 27.9636C32.5724 28.0493 32.7479 28.0921 32.9455 28.0921C33.165 28.0921 33.3406 28.0493 33.4723 27.9636C33.6259 27.878 33.7357 27.7495 33.8235 27.5995C33.9113 27.4496 33.9771 27.2783 34.021 27.0641C34.0869 26.85 34.1088 26.6358 34.1088 26.4217Z" fill="#878787"/>
<path d="M40.5634 28.7132H39.7513L37.7539 25.6935V28.7132H36.832V24.1302C36.8759 24.1088 36.9418 24.1088 37.0296 24.1088C37.1174 24.1088 37.1832 24.0873 37.271 24.0873C37.4247 24.0873 37.5344 24.1087 37.6222 24.1516C37.71 24.1944 37.7758 24.2801 37.8417 24.3872L39.6635 27.2783V24.1088C39.7293 24.1088 39.7952 24.0873 39.8391 24.0873C39.9049 24.0659 39.9488 24.0659 39.9708 24.0659C40.0366 24.0659 40.1025 24.0659 40.1903 24.0873C40.2561 24.1088 40.322 24.1302 40.3878 24.173C40.4537 24.2158 40.4976 24.2587 40.5415 24.3229C40.5854 24.3872 40.6073 24.4942 40.6073 24.6013" fill="#878787"/>
<path d="M43.3955 25.9291H44.91V26.6573H43.3955V28.7132H42.4297V24.1088H45.3929C45.3929 24.1516 45.4148 24.1944 45.4148 24.2373C45.4148 24.2801 45.4148 24.3229 45.4148 24.3658C45.4148 24.4943 45.3709 24.6227 45.2831 24.7084C45.1953 24.7941 45.0417 24.8369 44.8441 24.8369H43.3955" fill="#878787"/>
<path d="M46.9062 24.1302C46.9721 24.1302 47.0379 24.1088 47.1038 24.1088C47.1696 24.1088 47.2135 24.1088 47.2574 24.1088C47.3233 24.1088 47.4111 24.1088 47.4769 24.1302C47.5428 24.1302 47.6306 24.173 47.6745 24.2158C47.7403 24.2587 47.7842 24.3015 47.8281 24.3872C47.872 24.4514 47.894 24.5585 47.894 24.6656V28.756H46.9282" fill="#878787"/>
<path d="M53.4682 26.336C53.4682 26.6573 53.4243 26.9571 53.3365 27.2569C53.2487 27.5567 53.117 27.7923 52.9194 28.0065C52.7438 28.2206 52.5024 28.3919 52.2171 28.5204C51.9317 28.6489 51.6025 28.7132 51.2074 28.7132H49.7148V24.1516C50.0221 24.1087 50.2636 24.0873 50.4831 24.0873C50.7026 24.0873 50.8782 24.0659 51.0318 24.0659C51.4927 24.0659 51.8878 24.1302 52.1951 24.2372C52.5024 24.3657 52.7438 24.5157 52.9414 24.7298C53.117 24.944 53.2487 25.1795 53.3365 25.458C53.4462 25.7364 53.4682 26.0362 53.4682 26.336ZM52.4805 26.3574C52.4805 26.1433 52.4585 25.9505 52.4146 25.7578C52.3707 25.565 52.3049 25.4151 52.1951 25.2652C52.0854 25.1367 51.9537 25.0082 51.7781 24.944C51.6025 24.8583 51.383 24.8155 51.1196 24.8155C50.9879 24.8155 50.8343 24.8369 50.7026 24.8369V28.0065H51.0757C51.361 28.0065 51.5805 27.9636 51.7561 27.878C51.9317 27.7923 52.0854 27.6852 52.1951 27.5353C52.3049 27.3854 52.3707 27.2141 52.4146 27.0213C52.4805 26.8286 52.4805 26.593 52.4805 26.3574Z" fill="#878787"/>
<path d="M57.6639 27.9851C57.8834 27.9851 58.037 28.0279 58.1248 28.135C58.2126 28.242 58.2565 28.3491 58.2565 28.4776C58.2565 28.5205 58.2565 28.5633 58.2565 28.6061C58.2565 28.6275 58.2565 28.6704 58.2346 28.7132H55.1836V24.1088H58.1248C58.1248 24.1516 58.1248 24.1944 58.1468 24.2373C58.1468 24.2801 58.1468 24.3229 58.1468 24.3658C58.1468 24.5157 58.1029 24.6442 58.0151 24.7298C57.9273 24.8155 57.7736 24.8583 57.5322 24.8583H56.1494V25.9934H57.6419V26.7215H56.1494V27.9851" fill="#878787"/>
<path d="M63.5243 28.7132H62.7122L60.7148 25.6935V28.7132H59.793V24.1302C59.8369 24.1088 59.9027 24.1088 59.9905 24.1088C60.0783 24.1088 60.1442 24.0873 60.232 24.0873C60.3856 24.0873 60.4953 24.1087 60.5831 24.1516C60.6709 24.1944 60.7368 24.2801 60.8026 24.3872L62.6244 27.2783V24.1088C62.6903 24.1088 62.7561 24.0873 62.8 24.0873C62.8659 24.0659 62.9098 24.0659 62.9317 24.0659C62.9976 24.0659 63.0634 24.0659 63.1512 24.0873C63.217 24.1088 63.2829 24.1302 63.3487 24.173C63.4146 24.2158 63.4585 24.2587 63.5024 24.3229C63.5463 24.3872 63.5682 24.4942 63.5682 24.6013" fill="#878787"/>
<path d="M68.7463 28.4562C68.7243 28.4777 68.6804 28.5205 68.6146 28.5633C68.5487 28.6062 68.4609 28.649 68.3512 28.6918C68.2414 28.7347 68.1097 28.7775 67.9561 28.7989C67.8024 28.8203 67.6268 28.8417 67.4293 28.8417C67.0562 28.8417 66.7269 28.7775 66.4416 28.6704C66.1562 28.5419 65.9368 28.392 65.7612 28.1778C65.5856 27.9637 65.4539 27.7067 65.3661 27.4283C65.2783 27.1285 65.2344 26.8072 65.2344 26.4646C65.2344 26.1219 65.2783 25.8007 65.3661 25.5008C65.4539 25.201 65.5856 24.944 65.7831 24.7299C65.9587 24.5157 66.2001 24.3444 66.4635 24.2159C66.7269 24.0874 67.0562 24.0446 67.4293 24.0446C67.6049 24.0446 67.7805 24.066 67.9341 24.0874C68.0878 24.1302 68.2195 24.1516 68.3292 24.1945C68.439 24.2373 68.5268 24.2801 68.6146 24.323C68.6804 24.3658 68.7463 24.4086 68.7902 24.4515C68.8341 24.4943 68.878 24.5371 68.8999 24.58C68.9219 24.6228 68.9438 24.687 68.9438 24.7513C68.9438 24.8369 68.8999 24.944 68.8341 25.0297C68.7682 25.1154 68.6804 25.201 68.5926 25.2867C68.5487 25.2439 68.4829 25.1796 68.3951 25.1154C68.3292 25.0511 68.2414 25.0083 68.1536 24.9654C68.0658 24.9226 67.978 24.8798 67.8683 24.8584C67.7585 24.8155 67.6268 24.8155 67.4952 24.8155C67.2537 24.8155 67.0562 24.8584 66.9025 24.9654C66.7489 25.0511 66.6172 25.1796 66.5074 25.3295C66.4196 25.4794 66.3318 25.6508 66.2879 25.8435C66.244 26.0362 66.2221 26.229 66.2221 26.4431C66.2221 26.6573 66.244 26.8715 66.2879 27.0642C66.3318 27.257 66.3977 27.4283 66.5074 27.5782C66.6172 27.7281 66.7489 27.8566 66.9025 27.9423C67.0781 28.0279 67.2757 28.0708 67.5171 28.0708C67.6488 28.0708 67.7585 28.0493 67.8902 28.0279C68 28.0065 68.1097 27.9637 68.1756 27.9208C68.2634 27.878 68.3292 27.8138 68.3951 27.7709C68.4609 27.7281 68.5048 27.6853 68.5487 27.6424C68.5707 27.6853 68.6146 27.7067 68.6365 27.7709C68.6804 27.8138 68.7024 27.8566 68.7463 27.9208C68.7902 27.9637 68.8121 28.0279 68.8341 28.0708C68.856 28.1136 68.878 28.1778 68.878 28.1993C68.878 28.2635 68.856 28.3063 68.8341 28.3492C68.8341 28.3706 68.8121 28.4134 68.7463 28.4562Z" fill="#878787"/>
<path d="M73.0716 27.9851C73.2911 27.9851 73.4448 28.0279 73.5326 28.135C73.6204 28.242 73.6643 28.3491 73.6643 28.4776C73.6643 28.5205 73.6643 28.5633 73.6643 28.6061C73.6643 28.6275 73.6643 28.6704 73.6643 28.7132H70.6133V24.1088H73.5545C73.5545 24.1516 73.5765 24.1944 73.5765 24.2373V24.3658C73.5765 24.5157 73.5326 24.6442 73.4448 24.7298C73.357 24.8155 73.2033 24.8583 72.9619 24.8583H71.5571V25.9934H73.0497V26.7215H71.5571V27.9851" fill="#878787"/>
<path d="M77.7227 24.1302C77.7885 24.1302 77.8544 24.1088 77.9202 24.1088C77.986 24.1088 78.0299 24.1088 78.0738 24.1088C78.1397 24.1088 78.2055 24.1088 78.2933 24.1302C78.3592 24.1302 78.425 24.173 78.4909 24.2158C78.5567 24.2587 78.6006 24.3015 78.6445 24.3872C78.6884 24.4514 78.7104 24.5585 78.7104 24.6656V28.756H77.7446" fill="#878787"/>
<path d="M84.2416 28.7132H83.4295L81.4102 25.6935V28.7132H80.4883V24.1302C80.5322 24.1088 80.598 24.1088 80.6858 24.1088C80.7517 24.1088 80.8395 24.0873 80.9273 24.0873C81.0809 24.0873 81.1907 24.1087 81.2785 24.1516C81.3663 24.1944 81.4321 24.2801 81.498 24.3872L83.3198 27.2783V24.1088C83.3856 24.1088 83.4515 24.0873 83.4954 24.0873C83.5393 24.0659 83.6051 24.0659 83.627 24.0659C83.6929 24.0659 83.7587 24.0659 83.8465 24.0873C83.9124 24.1088 83.9782 24.1302 84.0441 24.173C84.1099 24.2158 84.1538 24.2587 84.1977 24.3229C84.2416 24.3872 84.2416 24.4942 84.2416 24.6013" fill="#878787"/>
<path d="M89.7294 24.8798H88.2368C88.2148 24.837 88.2148 24.7727 88.2148 24.7513C88.2148 24.7085 88.2148 24.6656 88.2148 24.6228C88.2148 24.4943 88.2587 24.3872 88.3465 24.2802C88.4343 24.1731 88.588 24.1302 88.8075 24.1302H92.1218C92.1438 24.2159 92.1438 24.323 92.1438 24.4301C92.1438 24.5586 92.0999 24.6656 92.0121 24.7513C91.9243 24.8584 91.7706 24.9012 91.5511 24.9012H90.6732V28.7347H89.7074" fill="#878787"/>
<path d="M96.0935 27.9851C96.313 27.9851 96.4667 28.0279 96.5545 28.135C96.6423 28.242 96.6862 28.3491 96.6862 28.4776C96.6862 28.5205 96.6862 28.5633 96.6862 28.6061C96.6862 28.6275 96.6862 28.6704 96.6642 28.7132H93.6133V24.1088H96.5545C96.5545 24.1516 96.5764 24.1944 96.5764 24.2373C96.5764 24.2801 96.5764 24.3229 96.5764 24.3658C96.5764 24.5157 96.5325 24.6442 96.4447 24.7298C96.3569 24.8155 96.2033 24.8583 95.9619 24.8583H94.579V25.9934H96.0716V26.7215H94.579V27.9851" fill="#878787"/>
<path d="M99.7816 27.1927L98.8817 28.7133H97.8281L99.2329 26.4217L98.0037 24.2373C98.0915 24.1945 98.2013 24.1517 98.2891 24.1302C98.3988 24.1088 98.5086 24.0874 98.6183 24.0874C98.8817 24.0874 99.0573 24.1945 99.189 24.4301L99.8694 25.6722L100.572 24.4943C100.66 24.3444 100.747 24.2373 100.857 24.1731C100.945 24.1088 101.077 24.0874 101.23 24.0874C101.318 24.0874 101.406 24.1088 101.494 24.1302C101.559 24.1517 101.647 24.1945 101.735 24.2373L100.418 26.4003L101.801 28.6918C101.713 28.7347 101.603 28.7561 101.516 28.7775C101.428 28.7989 101.318 28.7989 101.252 28.7989C101.077 28.7989 100.923 28.7561 100.813 28.6918C100.703 28.6276 100.616 28.5205 100.55 28.3706" fill="#878787"/>
<path d="M104.305 24.8798H102.834C102.834 24.837 102.812 24.7727 102.812 24.7513C102.812 24.7085 102.812 24.6656 102.812 24.6228C102.812 24.4943 102.856 24.3872 102.944 24.2802C103.032 24.1731 103.186 24.1302 103.405 24.1302H106.719C106.741 24.2159 106.741 24.323 106.741 24.4301C106.741 24.5586 106.698 24.6656 106.61 24.7513C106.522 24.8584 106.368 24.9012 106.171 24.9012H105.271V28.7347H104.305" fill="#878787"/>
<path d="M108.168 24.1302C108.234 24.1302 108.3 24.1088 108.366 24.1088C108.431 24.1088 108.475 24.1088 108.519 24.1088C108.585 24.1088 108.673 24.1088 108.739 24.1302C108.805 24.1302 108.87 24.173 108.936 24.2158C109.002 24.2587 109.046 24.3015 109.09 24.3872C109.134 24.4514 109.156 24.5585 109.156 24.6656V28.756H108.19" fill="#878787"/>
<path d="M111.966 27.9637H113.349C113.458 27.9637 113.546 27.9851 113.634 28.0065C113.722 28.0279 113.766 28.0708 113.81 28.1136C113.853 28.1564 113.875 28.2207 113.897 28.2849C113.919 28.3492 113.919 28.392 113.919 28.4563V28.6276C113.919 28.6918 113.919 28.7347 113.897 28.7347H111V24.1302C111.066 24.1302 111.132 24.1088 111.198 24.1088C111.263 24.1088 111.307 24.0874 111.351 24.0874C111.417 24.0874 111.483 24.0874 111.571 24.1088C111.637 24.1088 111.702 24.1517 111.79 24.1945C111.856 24.2373 111.9 24.2801 111.944 24.3444C111.988 24.4086 112.01 24.5157 112.01 24.6228" fill="#878787"/>
<path d="M117.957 27.9851C118.176 27.9851 118.33 28.0279 118.418 28.135C118.506 28.242 118.549 28.3491 118.549 28.4776C118.549 28.5205 118.549 28.5633 118.549 28.6061C118.549 28.6275 118.549 28.6704 118.528 28.7132H115.477V24.1088H118.418C118.418 24.1516 118.44 24.1944 118.44 24.2373C118.44 24.2801 118.44 24.3229 118.44 24.3658C118.44 24.5157 118.396 24.6442 118.308 24.7298C118.22 24.8155 118.067 24.8583 117.825 24.8583H116.442V25.9934H117.935V26.7215H116.442V27.9851" fill="#878787"/>
<path d="M120.086 27.6638C120.218 27.7709 120.371 27.8565 120.569 27.9636C120.767 28.0707 120.986 28.1135 121.249 28.1135C121.337 28.1135 121.447 28.1135 121.535 28.0921C121.623 28.0707 121.71 28.0279 121.776 27.985C121.842 27.9422 121.908 27.8779 121.952 27.7923C121.996 27.7066 122.018 27.621 122.018 27.4925C122.018 27.364 121.996 27.2783 121.952 27.1926C121.908 27.107 121.842 27.0427 121.754 26.9785C121.666 26.9142 121.579 26.8714 121.447 26.8286C121.337 26.7857 121.227 26.7429 121.096 26.7001C120.942 26.6572 120.788 26.593 120.635 26.5287C120.481 26.4645 120.35 26.3788 120.218 26.2932C120.086 26.1861 119.998 26.079 119.911 25.9291C119.845 25.7792 119.801 25.5864 119.801 25.3723C119.801 25.1581 119.845 24.9654 119.932 24.794C120.02 24.6227 120.13 24.4942 120.306 24.3657C120.459 24.2586 120.635 24.173 120.832 24.1087C121.03 24.0445 121.249 24.0231 121.469 24.0231C121.623 24.0231 121.776 24.0231 121.908 24.0445C122.04 24.0659 122.171 24.1087 122.281 24.1302C122.391 24.1516 122.479 24.1944 122.544 24.2372C122.61 24.2801 122.676 24.3015 122.72 24.3443C122.852 24.4086 122.918 24.5156 122.918 24.6441C122.918 24.7084 122.896 24.7726 122.852 24.8583C122.808 24.944 122.742 25.051 122.654 25.1367C122.544 25.051 122.391 24.9654 122.193 24.8797C122.018 24.794 121.82 24.7512 121.601 24.7512C121.513 24.7512 121.425 24.7512 121.337 24.7726C121.249 24.794 121.162 24.8155 121.096 24.8583C121.03 24.9011 120.964 24.944 120.92 25.0296C120.876 25.0939 120.854 25.1795 120.854 25.2866C120.854 25.3937 120.876 25.4579 120.92 25.5436C120.964 25.6079 121.03 25.6721 121.118 25.7364C121.184 25.7792 121.293 25.8434 121.403 25.8863C121.513 25.9291 121.623 25.9719 121.732 26.0148C121.886 26.079 122.04 26.1218 122.193 26.1861C122.347 26.2503 122.501 26.336 122.61 26.4217C122.742 26.5287 122.83 26.6358 122.918 26.7857C123.005 26.9356 123.049 27.1284 123.049 27.3425C123.049 27.5781 123.005 27.7923 122.918 27.985C122.83 28.1778 122.72 28.3277 122.566 28.4562C122.413 28.5847 122.215 28.6703 122.018 28.7346C121.798 28.7988 121.557 28.8203 121.293 28.8203C120.964 28.8203 120.679 28.7988 120.481 28.7132C120.284 28.6489 120.13 28.5847 120.02 28.5418C119.976 28.499 119.911 28.4562 119.889 28.4133C119.845 28.3705 119.823 28.3063 119.823 28.242C119.823 28.1564 119.845 28.0707 119.911 27.9636C119.932 27.8565 119.998 27.7495 120.086 27.6638Z" fill="#878787"/>
<path d="M36.1964 13.5294C36.1964 14.4074 36.0866 15.2427 35.8671 16.0351C35.6696 16.806 35.3184 17.5128 34.8575 18.091C34.3965 18.6906 33.782 19.1404 33.0796 19.483C32.3553 19.8257 31.4773 19.997 30.4457 19.997C29.436 19.997 28.58 19.8257 27.8556 19.483C27.1313 19.1404 26.5606 18.6692 26.0997 18.0696C25.6388 17.4699 25.3095 16.7846 25.112 16.0136C24.8925 15.2427 24.8047 14.4074 24.8047 13.5508C24.8047 12.6942 24.9144 11.8804 25.1339 11.1308C25.3754 10.3598 25.7046 9.69592 26.1875 9.09628C26.6704 8.51804 27.263 8.04689 27.9873 7.72565C28.7117 7.383 29.5677 7.21167 30.5774 7.21167C31.5651 7.21167 32.3992 7.383 33.1235 7.70424C33.8478 8.02548 34.3965 8.47521 34.8575 9.03203C35.2965 9.61026 35.6476 10.2742 35.8452 11.0451C36.0866 11.7947 36.1964 12.6299 36.1964 13.5294ZM33.5405 13.5508C33.5405 12.9726 33.4966 12.4158 33.3869 11.8804C33.2991 11.3664 33.1235 10.8952 32.882 10.4883C32.6406 10.1028 32.3333 9.78159 31.9602 9.54601C31.587 9.31044 31.1041 9.20336 30.5774 9.20336C30.0067 9.20336 29.5018 9.31044 29.1287 9.54601C28.7336 9.78159 28.4044 10.1028 28.1849 10.4883C27.9215 10.8952 27.7678 11.345 27.6361 11.8804C27.5264 12.3943 27.4825 12.9512 27.4825 13.5508C27.4825 14.1504 27.5484 14.6858 27.6361 15.2427C27.7459 15.7781 27.9215 16.2492 28.141 16.6775C28.3824 17.0844 28.6897 17.4271 29.0848 17.6627C29.4799 17.8982 29.9628 18.0267 30.5115 18.0267C31.0822 18.0267 31.5651 17.8982 31.9382 17.6627C32.3114 17.4271 32.6406 17.0844 32.8601 16.6775C33.0796 16.2492 33.2552 15.7781 33.3649 15.2427C33.4966 14.6858 33.5405 14.129 33.5405 13.5508Z" fill="#878787"/>
<path d="M44.9988 17.7483C45.5915 17.7483 46.0085 17.8768 46.228 18.1552C46.4475 18.4122 46.5572 18.7334 46.5572 19.0547C46.5572 19.2046 46.5572 19.3117 46.5572 19.3973C46.5572 19.483 46.5353 19.5901 46.5353 19.6971H38.4141V7.42578H46.228C46.25 7.55428 46.2719 7.66136 46.2719 7.76844C46.2939 7.8541 46.2939 7.96118 46.2939 8.11109C46.2939 8.53941 46.1622 8.86065 45.9427 9.07481C45.7232 9.28897 45.3061 9.39605 44.6916 9.39605H40.9821V12.4157H44.9769V14.3646H40.9821V17.7483" fill="#878787"/>
<path d="M48.2461 7.44711C48.4217 7.4257 48.5973 7.40428 48.7509 7.38287C48.9265 7.36145 49.0582 7.36145 49.146 7.36145C49.3436 7.36145 49.5192 7.38287 49.7167 7.4257C49.9142 7.44711 50.0898 7.53278 50.2654 7.63986C50.4191 7.74694 50.5727 7.89685 50.6825 8.06818C50.7703 8.26092 50.8142 8.4965 50.8142 8.79632V13.208C50.8581 12.9296 50.9239 12.6512 51.0776 12.4156C51.2312 12.1372 51.4068 11.8802 51.6043 11.6446L54.1724 8.34658C54.4578 7.98251 54.7431 7.72552 55.0504 7.57561C55.3357 7.4257 55.643 7.36145 55.9503 7.36145C56.2796 7.36145 56.5649 7.40428 56.8502 7.51136C57.0917 7.61844 57.3112 7.74694 57.4868 7.91827L53.3383 13.3151L57.9916 19.4829C57.5087 19.7613 57.0039 19.9112 56.521 19.9112C55.6869 19.9112 55.0065 19.59 54.5017 18.9475L51.758 15.4781C51.5165 15.1783 51.319 14.8785 51.1434 14.5358C50.9459 14.2146 50.8581 13.8719 50.8361 13.5293V19.6971H48.268" fill="#878787"/>
<path d="M69.3385 13.5294C69.3385 14.4074 69.2287 15.2427 69.0093 16.0351C68.7898 16.806 68.4605 17.5128 67.9996 18.091C67.5386 18.6906 66.946 19.1404 66.2217 19.483C65.4974 19.8257 64.6194 19.997 63.6097 19.997C62.5781 19.997 61.7221 19.8257 61.0197 19.483C60.2954 19.1404 59.7027 18.6692 59.2638 18.0696C58.8028 17.4699 58.4955 16.7846 58.276 16.0136C58.0565 15.2427 57.9688 14.4074 57.9688 13.5508C57.9688 12.6942 58.0785 11.8804 58.3199 11.1308C58.5394 10.3598 58.8906 9.69592 59.3735 9.09628C59.8564 8.51804 60.449 8.04689 61.1734 7.72565C61.8977 7.383 62.7537 7.21167 63.7634 7.21167C64.7511 7.21167 65.6071 7.383 66.3095 7.70424C67.0119 8.02548 67.6045 8.47521 68.0435 9.03203C68.5044 9.61026 68.8337 10.2742 69.0312 11.0451C69.2287 11.7947 69.3385 12.6299 69.3385 13.5294ZM66.7046 13.5508C66.7046 12.9726 66.6607 12.4158 66.5509 11.8804C66.4412 11.3664 66.2875 10.8952 66.0461 10.4883C65.8047 10.1028 65.4974 9.78159 65.1242 9.54601C64.7511 9.31044 64.2902 9.20336 63.7414 9.20336C63.1707 9.20336 62.6659 9.31044 62.2928 9.54601C61.8977 9.78159 61.5684 10.1028 61.327 10.4883C61.0856 10.8952 60.91 11.345 60.8002 11.8804C60.6905 12.3943 60.6246 12.9512 60.6246 13.5508C60.6246 14.1504 60.6905 14.6858 60.8002 15.2427C60.91 15.7781 61.0636 16.2492 61.305 16.6775C61.5465 17.0844 61.8538 17.4271 62.2489 17.6627C62.622 17.8982 63.1049 18.0267 63.6756 18.0267C64.2243 18.0267 64.7072 17.8982 65.1023 17.6627C65.4754 17.4271 65.7827 17.0844 66.0241 16.6775C66.2656 16.2492 66.4412 15.7781 66.5509 15.2427C66.6607 14.6858 66.7046 14.129 66.7046 13.5508Z" fill="#878787"/>
<path d="M72.8272 15.521C71.9273 15.521 71.4883 15.1355 71.4883 14.3645C71.4883 14.1075 71.4883 13.8291 71.5322 13.5721H76.2293C76.6464 13.5721 76.9756 13.6364 77.239 13.7649C77.5024 13.8934 77.6341 14.2146 77.6341 14.7072V15.0927C77.6121 15.2212 77.6121 15.3497 77.6121 15.4782" fill="#878787"/>
<path d="M81.0143 9.48166H77.1073V9.46024C77.0634 9.31033 77.0634 9.20325 77.0415 9.09617C77.0415 9.01051 77.0195 8.88201 77.0195 8.75352C77.0195 8.43228 77.1293 8.13245 77.3927 7.85405C77.6341 7.57564 78.0512 7.44714 78.6218 7.44714H87.4455C87.4894 7.70414 87.4894 7.96113 87.4894 8.23953C87.4894 8.56077 87.3796 8.8606 87.1601 9.11759C86.9406 9.37458 86.5236 9.50308 85.9529 9.50308H83.5824V19.7185H80.9924" fill="#878787"/>
<path d="M95.5013 17.7483C96.1159 17.7483 96.5109 17.8768 96.7304 18.1552C96.9499 18.4122 97.0597 18.7334 97.0597 19.0547V19.3973C97.0377 19.483 97.0377 19.5901 97.0158 19.6971H88.8945V7.42578H96.7304C96.7524 7.55428 96.7743 7.66136 96.7963 7.76844C96.7963 7.8541 96.8182 7.96118 96.8182 8.11109C96.8182 8.53941 96.6865 8.86065 96.489 9.07481C96.2695 9.28897 95.8305 9.39605 95.2159 9.39605H91.5285V12.4157H95.5013V14.3646H91.5285V17.7483" fill="#878787"/>
<path d="M102.878 15.6495L100.485 19.6971H97.6758L101.385 13.5936L98.0928 7.76842C98.3562 7.66134 98.6196 7.55426 98.883 7.49001C99.1464 7.42577 99.4317 7.38293 99.739 7.38293C100.419 7.38293 100.924 7.68276 101.232 8.2824L103.053 11.5805L104.897 8.47515C105.139 8.08966 105.38 7.81125 105.621 7.63993C105.863 7.4686 106.214 7.38293 106.631 7.38293C106.895 7.38293 107.136 7.40435 107.333 7.4686C107.553 7.51143 107.772 7.59709 108.014 7.72559L104.524 13.4865L108.19 19.6329C107.948 19.7185 107.707 19.7828 107.421 19.8256C107.158 19.8684 106.916 19.9113 106.719 19.9113C106.214 19.9113 105.819 19.8042 105.556 19.6115C105.292 19.4187 105.051 19.1403 104.853 18.7762" fill="#878787"/>
<path d="M117.582 8.7107C120.369 8.7107 122.608 10.9165 122.608 13.615C122.608 16.3134 120.347 18.5192 117.582 18.5192C114.816 18.5192 112.555 16.3134 112.555 13.615C112.555 10.8951 114.816 8.7107 117.582 8.7107ZM117.582 7.14734C113.916 7.14734 110.953 10.0385 110.953 13.615C110.953 17.1914 113.916 20.0826 117.582 20.0826C121.247 20.0826 124.21 17.1914 124.21 13.615C124.232 10.0385 121.247 7.14734 117.582 7.14734Z" fill="#878787"/>
<path d="M119.996 12.1372C119.996 12.4156 119.974 12.6298 119.908 12.844C119.843 13.0367 119.755 13.2295 119.623 13.3794C119.513 13.5293 119.382 13.6578 119.228 13.7649C119.096 13.8719 118.943 13.9362 118.767 14.0004L120.369 16.6132C120.238 16.656 120.106 16.6988 119.974 16.7417C119.843 16.7631 119.711 16.7845 119.579 16.7845C119.338 16.7845 119.14 16.7417 118.987 16.6346C118.833 16.5275 118.679 16.3776 118.548 16.142L117.45 14.3003H116.901V16.6774H115.562V10.3597C115.87 10.3383 116.155 10.3169 116.462 10.2955C116.77 10.274 117.033 10.274 117.275 10.274C118.218 10.274 118.899 10.424 119.338 10.7452C119.777 11.045 119.996 11.4948 119.996 12.1372ZM118.613 12.2443C118.613 11.8588 118.504 11.5804 118.306 11.4091C118.087 11.2592 117.801 11.1735 117.428 11.1735C117.296 11.1735 117.209 11.1735 117.121 11.1735C117.033 11.1735 116.967 11.1735 116.901 11.1949V13.3794H117.362C117.735 13.3794 118.043 13.2723 118.284 13.101C118.504 12.9296 118.613 12.6512 118.613 12.2443Z" fill="#878787"/>
<path d="M141.334 51.4141C140.214 51.4141 139.314 50.5147 139.314 49.4439C139.314 48.523 139.973 47.5378 141.136 46.6812C141.026 46.5313 140.895 46.3814 140.807 46.2315C140.302 46.3385 139.753 46.36 139.183 46.2743C138.678 46.21 138.195 46.1672 137.712 46.1672C137.822 47.1095 137.822 48.0947 137.317 48.9085C136.768 49.8079 135.473 50.172 134.529 49.6366C133.564 49.1012 133.234 47.8805 133.783 46.9168C134.244 46.1244 135.341 45.589 136.79 45.4177C136.768 45.2249 136.746 45.0536 136.724 44.8608C136.241 44.7109 135.737 44.4539 135.298 44.0899C134.902 43.79 134.485 43.5116 134.068 43.2761C133.673 44.1541 133.168 44.9893 132.312 45.4819C131.369 46.0173 130.074 45.6746 129.547 44.7538C128.998 43.8115 129.327 42.5907 130.293 42.0339C131.105 41.5628 132.312 41.6484 133.651 42.2053C133.717 42.0339 133.805 41.8626 133.871 41.6913C133.52 41.3058 133.234 40.8561 133.037 40.3421C132.839 39.8709 132.642 39.4426 132.378 39.0357C131.588 39.5925 130.732 40.0851 129.744 40.0851C128.625 40.0851 127.703 39.1856 127.703 38.0934C127.703 37.0012 128.603 36.1017 129.744 36.1017C130.688 36.1017 131.698 36.7442 132.576 37.8792C132.73 37.7721 132.883 37.6651 133.037 37.5366C132.927 37.044 132.905 36.5086 132.993 35.9518C133.081 35.4592 133.103 34.9881 133.103 34.5169C132.795 34.5383 132.51 34.5598 132.203 34.5598C131.435 34.5598 130.82 34.4098 130.293 34.1314C129.81 33.8744 129.481 33.4461 129.349 32.9321C129.218 32.4182 129.283 31.8828 129.547 31.433C130.074 30.5336 131.369 30.1695 132.312 30.7049C133.147 31.176 133.695 32.2254 133.849 33.6389C134.046 33.6175 134.222 33.596 134.42 33.5746C134.573 33.1035 134.837 32.6109 135.21 32.1826C135.539 31.7971 135.802 31.3902 136.044 30.9833C135.144 30.5978 134.288 30.1052 133.805 29.27C133.256 28.3277 133.586 27.107 134.551 26.5716C135.495 26.0362 136.79 26.3788 137.339 27.2997C137.822 28.0921 137.756 29.27 137.185 30.5764C137.361 30.6406 137.536 30.7263 137.712 30.7905C138.085 30.4479 138.568 30.1695 139.117 29.9767C139.578 29.8054 140.017 29.5912 140.434 29.3557C139.863 28.5847 139.358 27.7281 139.358 26.7858C139.358 25.6935 140.28 24.7941 141.378 24.7941C142.497 24.7941 143.419 25.6935 143.419 26.7858C143.419 27.7066 142.76 28.6918 141.597 29.5484C141.707 29.6983 141.817 29.8482 141.926 29.9982C142.431 29.8911 142.98 29.8911 143.551 29.9767C144.055 30.041 144.538 30.0838 145.021 30.0838C144.911 29.1201 144.911 28.1564 145.416 27.3212C145.965 26.4003 147.26 26.079 148.182 26.593C149.148 27.1284 149.499 28.3491 148.928 29.2914C148.467 30.0838 147.392 30.6192 145.943 30.7905C145.965 30.9833 145.987 31.1546 146.009 31.3259C146.492 31.4759 146.997 31.7328 147.436 32.0969C147.831 32.4182 148.248 32.6751 148.665 32.9107C149.06 32.0327 149.565 31.1974 150.399 30.7263C151.343 30.1909 152.638 30.5336 153.186 31.4544C153.45 31.9256 153.537 32.461 153.384 32.9536C153.23 33.4675 152.901 33.8959 152.44 34.1528C151.628 34.6026 150.399 34.5383 149.082 33.9815C149.016 34.1528 148.928 34.3242 148.862 34.4955C149.213 34.8596 149.499 35.3307 149.696 35.8447C149.872 36.2944 150.091 36.7442 150.355 37.1297C151.145 36.5729 152.001 36.0803 152.989 36.0803C154.108 36.0803 155.008 36.9583 155.008 38.072C155.008 39.1856 154.108 40.0637 152.989 40.0637C152.045 40.0637 151.035 39.4212 150.157 38.2861C150.004 38.3932 149.85 38.5217 149.696 38.6288C149.806 39.1214 149.806 39.6568 149.718 40.2136C149.652 40.7061 149.609 41.1773 149.63 41.6484C149.938 41.627 150.245 41.6056 150.552 41.6056C151.321 41.6056 151.935 41.7555 152.462 42.0339C153.428 42.5907 153.779 43.79 153.208 44.7538C152.659 45.6532 151.364 46.0173 150.421 45.4819C149.609 45.0108 149.06 43.9614 148.884 42.5479C148.687 42.5693 148.511 42.5907 148.314 42.6122C148.16 43.0833 147.896 43.5759 147.523 44.0042C147.194 44.3897 146.931 44.7752 146.689 45.2035C147.589 45.589 148.445 46.0816 148.928 46.8954C149.499 47.8377 149.17 49.0584 148.182 49.6152C147.238 50.1506 145.943 49.8079 145.416 48.887C144.955 48.0732 145.021 46.9168 145.592 45.589C145.416 45.5247 145.241 45.4391 145.065 45.3748C144.692 45.7175 144.209 45.9959 143.682 46.21C143.199 46.3814 142.76 46.5955 142.365 46.8311C142.936 47.6021 143.441 48.4587 143.441 49.401C143.375 50.5361 142.475 51.4141 141.334 51.4141ZM141.641 47.3023C140.697 47.9876 140.148 48.78 140.148 49.4439C140.148 50.0863 140.697 50.6217 141.356 50.6217C142.036 50.6217 142.585 50.0863 142.585 49.4439C142.563 48.6943 142.146 47.9876 141.641 47.3023ZM146.294 45.9316C145.833 47.0024 145.745 47.9447 146.097 48.5016C146.426 49.0584 147.194 49.2511 147.765 48.9299C148.335 48.6086 148.533 47.8805 148.204 47.3023C147.809 46.6812 147.084 46.2743 146.294 45.9316ZM136.878 46.21C135.715 46.36 134.837 46.7454 134.485 47.3237C134.156 47.9019 134.354 48.6301 134.924 48.9513C135.495 49.2725 136.263 49.0584 136.593 48.523C136.988 47.8805 136.988 47.0453 136.878 46.21ZM141.817 46.2315C142.277 45.9531 142.782 45.7175 143.331 45.5033C143.66 45.3748 143.968 45.2035 144.231 45.0107C143.924 44.818 143.638 44.5824 143.463 44.2826C143.09 43.6615 143.309 42.8692 143.946 42.5265C144.582 42.1838 145.394 42.4194 145.745 42.9977C146.075 43.5331 146.009 44.1755 145.592 44.7966C145.702 44.8394 145.789 44.8823 145.899 44.9251C146.162 44.4539 146.47 44.0042 146.843 43.5545C147.062 43.2761 147.238 42.9762 147.392 42.6764C146.953 42.655 146.601 42.5693 146.338 42.4194C145.702 42.0553 145.504 41.2844 145.855 40.6633C146.206 40.0637 147.062 39.8495 147.655 40.1922C148.204 40.492 148.489 41.0916 148.445 41.8198C148.555 41.8198 148.665 41.7984 148.774 41.7769C148.752 41.2415 148.796 40.6847 148.884 40.1279C148.928 39.7853 148.95 39.4426 148.906 39.1214C148.577 39.2927 148.226 39.4212 147.853 39.4212C147.128 39.4212 146.536 38.8429 146.536 38.1362C146.536 37.4295 147.128 36.8513 147.853 36.8513C148.489 36.8513 149.038 37.2367 149.367 37.8792C149.455 37.815 149.543 37.7507 149.63 37.6865C149.345 37.2367 149.104 36.7228 148.884 36.2088C148.753 35.8875 148.577 35.5877 148.379 35.3307C148.182 35.6306 147.94 35.909 147.611 36.1017C146.997 36.4444 146.162 36.2302 145.811 35.6306C145.636 35.3307 145.592 34.9881 145.68 34.6454C145.767 34.3028 145.987 34.0458 146.294 33.8744C146.821 33.5746 147.501 33.6389 148.138 34.0244C148.182 33.9173 148.226 33.8316 148.27 33.7245C147.787 33.4675 147.326 33.1677 146.865 32.8036C146.58 32.5895 146.272 32.3967 145.987 32.2682C145.965 32.6323 145.899 32.9964 145.723 33.2962C145.372 33.8744 144.538 34.11 143.924 33.7674C143.287 33.4033 143.068 32.6109 143.441 32.0113C143.748 31.4759 144.363 31.1974 145.109 31.2403C145.087 31.1332 145.087 31.0261 145.065 30.919V30.8976C144.538 30.919 143.946 30.8762 143.375 30.7905C143.002 30.7477 142.651 30.7263 142.343 30.7691C142.541 31.0904 142.673 31.433 142.673 31.7971C142.673 32.5038 142.08 33.0821 141.356 33.0821C140.631 33.0821 140.039 32.5038 140.039 31.7971C140.039 31.176 140.434 30.6406 141.092 30.3194C141.026 30.2337 140.961 30.1481 140.895 30.0624C140.434 30.3408 139.929 30.5764 139.38 30.7905C139.051 30.919 138.744 31.0904 138.48 31.2831C138.788 31.4759 139.073 31.7114 139.27 32.0113C139.622 32.6323 139.402 33.4247 138.788 33.7674C138.59 33.8744 138.37 33.9387 138.129 33.9387C137.668 33.9387 137.207 33.6817 136.988 33.2962C136.68 32.7608 136.746 32.1183 137.141 31.4973C137.032 31.4544 136.944 31.4116 136.834 31.3688C136.571 31.8399 136.263 32.2897 135.89 32.7394C135.671 33.0178 135.473 33.3176 135.363 33.596C135.802 33.6175 136.154 33.7031 136.417 33.853C136.724 34.0244 136.944 34.3028 137.032 34.624C137.119 34.9667 137.075 35.3093 136.9 35.6091C136.549 36.2088 135.715 36.4229 135.1 36.0803C134.551 35.7805 134.266 35.1808 134.31 34.4527C134.2 34.4741 134.09 34.4741 133.981 34.4955C133.981 35.0309 133.959 35.5877 133.871 36.1445C133.827 36.4872 133.827 36.8298 133.849 37.1511C134.178 36.9798 134.529 36.8513 134.902 36.8513C135.627 36.8513 136.219 37.4295 136.219 38.1362C136.219 38.8429 135.627 39.4212 134.902 39.4212C134.266 39.4212 133.739 39.0357 133.388 38.3932C133.3 38.4575 133.212 38.5217 133.125 38.586C133.41 39.0357 133.651 39.5497 133.871 40.0637C134.003 40.3849 134.178 40.6847 134.376 40.9417C134.573 40.6419 134.815 40.3635 135.144 40.1707C135.737 39.8281 136.593 40.0422 136.944 40.6419C137.317 41.263 137.097 42.0553 136.461 42.4194C135.934 42.7192 135.254 42.655 134.617 42.2695C134.573 42.3766 134.529 42.4622 134.485 42.5693C134.968 42.8263 135.429 43.1476 135.89 43.4902C136.176 43.7044 136.483 43.8971 136.768 44.0256C136.79 43.683 136.856 43.2975 137.032 42.9977C137.383 42.4194 138.217 42.1838 138.831 42.5265C139.446 42.8692 139.687 43.6615 139.314 44.2826C139.007 44.818 138.37 45.075 137.646 45.0536C137.646 45.1607 137.668 45.2677 137.69 45.3748C138.239 45.3748 138.809 45.3962 139.38 45.4819C139.753 45.5462 140.104 45.5462 140.412 45.5033C140.236 45.1821 140.104 44.8394 140.104 44.4753C140.104 43.7686 140.697 43.1904 141.421 43.1904C142.146 43.1904 142.738 43.7686 142.738 44.4753C142.738 45.0964 142.343 45.6318 141.685 45.9531C141.685 46.0387 141.751 46.1244 141.817 46.2315ZM141.334 43.9828C141.048 43.9828 140.829 44.1969 140.829 44.4753C140.829 44.6895 140.917 44.9679 141.136 45.2892C141.597 45.0964 141.838 44.7966 141.838 44.4753C141.86 44.1969 141.641 43.9828 141.334 43.9828ZM149.63 42.4837C149.762 43.6401 150.179 44.4968 150.772 44.818C151.343 45.1392 152.111 44.9251 152.44 44.3683C152.769 43.79 152.572 43.0619 151.979 42.7407C151.584 42.5265 151.123 42.4194 150.486 42.4194C150.201 42.4408 149.916 42.4623 149.63 42.4837ZM131.61 42.5479C131.259 42.5479 130.952 42.6122 130.71 42.7407C130.118 43.0619 129.92 43.79 130.271 44.3683C130.6 44.9251 131.369 45.1178 131.939 44.7966C132.598 44.4325 133.015 43.7044 133.366 42.9334C132.708 42.6978 132.115 42.5479 131.61 42.5479ZM144.582 43.1261C144.494 43.1261 144.407 43.1476 144.341 43.1904C144.099 43.3189 144.011 43.6401 144.165 43.8757C144.275 44.0684 144.494 44.2398 144.846 44.4325C145.131 44.047 145.219 43.6615 145.043 43.3831C144.955 43.2332 144.78 43.1261 144.582 43.1261ZM137.493 44.2398C137.844 44.2612 138.305 44.2612 138.524 43.8757C138.656 43.6401 138.568 43.3403 138.327 43.1904C138.085 43.0619 137.778 43.1476 137.646 43.3831C137.536 43.5759 137.493 43.8543 137.493 44.2398ZM146.975 40.8132C146.799 40.8132 146.623 40.9203 146.536 41.0702C146.404 41.3058 146.492 41.6056 146.733 41.7555C146.931 41.8626 147.216 41.9054 147.611 41.9054C147.677 41.4129 147.523 41.0488 147.238 40.8989C147.15 40.8346 147.062 40.8132 146.975 40.8132ZM134.881 41.5414C135.276 41.8198 135.671 41.9054 135.956 41.7341C136.198 41.6056 136.285 41.2844 136.154 41.0488C136.022 40.8346 135.693 40.749 135.451 40.8775C135.276 40.9845 135.078 41.1987 134.881 41.5414ZM150.75 37.8578C151.452 38.7787 152.264 39.3141 152.923 39.3141C153.581 39.3141 154.152 38.7787 154.152 38.1148C154.152 37.4509 153.603 36.9369 152.923 36.9369C152.177 36.9369 151.452 37.3652 150.75 37.8578ZM129.766 36.9369C129.086 36.9369 128.537 37.4723 128.537 38.1148C128.537 38.7787 129.086 39.3141 129.766 39.3141C130.535 39.3141 131.259 38.8858 131.939 38.3932C131.237 37.4937 130.425 36.9369 129.766 36.9369ZM147.853 37.6437C147.567 37.6437 147.348 37.8578 147.348 38.1362C147.348 38.4146 147.589 38.6288 147.853 38.6288C148.072 38.6288 148.335 38.5431 148.687 38.329C148.489 37.9006 148.182 37.6437 147.853 37.6437ZM134.003 37.9221C134.2 38.3718 134.507 38.6074 134.837 38.6074C135.122 38.6074 135.341 38.3932 135.341 38.1148C135.341 37.8364 135.122 37.6222 134.837 37.6222C134.617 37.6437 134.354 37.7293 134.003 37.9221ZM147.062 34.4527C146.931 34.4527 146.821 34.4741 146.733 34.5383C146.623 34.6026 146.536 34.7097 146.492 34.8382C146.47 34.9667 146.47 35.0952 146.536 35.2236C146.667 35.4592 146.997 35.5449 147.238 35.395C147.436 35.2879 147.611 35.0737 147.809 34.7311C147.545 34.5383 147.304 34.4527 147.062 34.4527ZM135.1 34.367C135.056 34.8382 135.188 35.2236 135.473 35.3736C135.715 35.5021 136.044 35.4164 136.176 35.1808C136.241 35.0737 136.263 34.9452 136.219 34.8167C136.176 34.6882 136.11 34.5812 135.978 34.5169C135.759 34.4098 135.473 34.3456 135.1 34.367ZM131.325 31.2831C130.886 31.2831 130.491 31.5187 130.271 31.8828C130.096 32.1612 130.052 32.4824 130.139 32.7822C130.227 33.0821 130.425 33.339 130.71 33.5104C131.105 33.7245 131.588 33.8316 132.203 33.8316C132.488 33.8316 132.773 33.8102 133.059 33.7888C132.905 32.6537 132.51 31.7757 131.917 31.4544C131.742 31.3474 131.522 31.2831 131.325 31.2831ZM149.345 33.3176C150.421 33.7674 151.408 33.853 151.979 33.5104C152.264 33.3605 152.462 33.1035 152.55 32.7822C152.638 32.4824 152.594 32.1612 152.44 31.8828C152.111 31.3474 151.343 31.1332 150.772 31.4544C150.113 31.8185 149.696 32.5467 149.345 33.3176ZM144.999 32.0113C144.714 32.0113 144.363 32.0755 144.165 32.3753C144.099 32.4824 144.077 32.6323 144.121 32.7608C144.143 32.8893 144.231 32.9964 144.363 33.0606C144.604 33.1891 144.933 33.1035 145.065 32.8679C145.175 32.6751 145.219 32.3967 145.219 32.0113C145.131 32.0113 145.065 32.0113 144.999 32.0113ZM137.866 31.8399C137.58 32.2254 137.493 32.6109 137.668 32.8893C137.756 33.0392 137.931 33.1463 138.107 33.1463C138.195 33.1463 138.283 33.1249 138.37 33.0821C138.612 32.9321 138.7 32.6323 138.568 32.3967C138.414 32.204 138.217 32.0113 137.866 31.8399ZM141.553 30.9833C141.092 31.176 140.829 31.4759 140.829 31.7971C140.829 32.0755 141.048 32.2897 141.334 32.2897C141.619 32.2897 141.838 32.0755 141.838 31.7971C141.86 31.5615 141.751 31.3045 141.553 30.9833ZM135.561 27.1498C135.341 27.1498 135.144 27.2141 134.946 27.3212C134.354 27.6424 134.156 28.3705 134.507 28.9488C134.881 29.5912 135.627 29.9982 136.417 30.3408C136.878 29.27 136.966 28.3277 136.636 27.7709C136.395 27.3854 136 27.1498 135.561 27.1498ZM147.15 27.1498C146.711 27.1498 146.316 27.3854 146.097 27.7495C145.702 28.392 145.723 29.2272 145.811 30.0624C146.975 29.9125 147.875 29.5056 148.204 28.9488C148.533 28.392 148.335 27.6638 147.765 27.3212C147.567 27.2141 147.348 27.1498 147.15 27.1498ZM141.334 25.6293C140.675 25.6293 140.126 26.1647 140.126 26.8286C140.126 27.5567 140.565 28.2849 141.07 28.9702C142.014 28.2635 142.563 27.4925 142.563 26.8286C142.563 26.1647 142.014 25.6293 141.334 25.6293Z" fill="#878787"/>
<path d="M136.766 37.9007C136.81 37.2153 137.007 36.5729 137.314 35.9946H138.873C138.741 36.5943 138.675 37.2368 138.653 37.9007" fill="#F6A000"/>
<path d="M139.008 40.749C139.161 41.3273 139.381 41.8412 139.644 42.2696C138.832 41.9483 138.13 41.4129 137.625 40.749" fill="#F6A000"/>
<path d="M138.677 38.3718C138.699 39.0357 138.765 39.6782 138.896 40.2779H137.338C137.031 39.6996 136.811 39.0571 136.789 38.3718" fill="#F6A000"/>
<path d="M137.645 35.5235C138.149 34.8382 138.852 34.3028 139.664 33.9816C139.4 34.4099 139.181 34.9239 139.027 35.5235" fill="#F6A000"/>
<path d="M143.047 33.9816C143.859 34.3028 144.561 34.8382 145.066 35.5235H143.705C143.53 34.9239 143.31 34.4099 143.047 33.9816Z" fill="#F6A000"/>
<path d="M145.066 40.749C144.561 41.4343 143.859 41.9697 143.047 42.2696C143.31 41.8412 143.53 41.3273 143.705 40.749" fill="#F6A000"/>
<path d="M145.918 38.3718C145.874 39.0571 145.677 39.6996 145.347 40.2779H143.789C143.921 39.6782 143.987 39.0357 144.009 38.3718" fill="#F6A000"/>
<path d="M145.347 35.9946C145.677 36.5514 145.874 37.2153 145.896 37.9007H144.009C143.987 37.2368 143.921 36.5943 143.789 35.9946" fill="#F6A000"/>
<path d="M140.456 33.7461C140.675 33.7032 140.895 33.6818 141.114 33.6604V35.5022H139.512C139.753 34.7312 140.082 34.1316 140.456 33.7461Z" fill="#F6A000"/>
<path d="M139.16 37.9007C139.182 37.2153 139.248 36.5729 139.38 35.9946H141.092V37.9007" fill="#F6A000"/>
<path d="M139.38 40.2779C139.248 39.721 139.182 39.0571 139.16 38.3718H141.114V40.2779" fill="#F6A000"/>
<path d="M141.114 42.5908C140.895 42.5694 140.675 42.548 140.456 42.5051C140.082 42.1196 139.753 41.52 139.512 40.749H141.114" fill="#F6A000"/>
<path d="M143.177 40.749C142.935 41.5199 142.606 42.1196 142.233 42.5051C142.035 42.5479 141.816 42.5693 141.574 42.5693V40.7275" fill="#F6A000"/>
<path d="M143.547 38.3718C143.525 39.0571 143.438 39.6996 143.328 40.2779H141.594V38.3718" fill="#F6A000"/>
<path d="M143.308 35.9946C143.44 36.5514 143.528 37.1939 143.528 37.9007H141.574V35.9946" fill="#F6A000"/>
<path d="M141.594 33.6818C141.813 33.7032 142.033 33.7246 142.252 33.7674C142.625 34.1529 142.955 34.7526 143.196 35.5235H141.594" fill="#F6A000"/>
<path d="M13.7634 41.6699C14.0707 41.9055 14.4658 42.141 14.9267 42.3766C15.3657 42.6122 15.9144 42.7193 16.529 42.7193C16.7704 42.7193 16.9899 42.6979 17.2314 42.6336C17.4509 42.5694 17.6484 42.4837 17.824 42.3766C17.9996 42.2695 18.1313 42.1196 18.263 41.9269C18.3727 41.7556 18.4386 41.52 18.4386 41.2416C18.4386 40.9632 18.3727 40.7276 18.241 40.5348C18.1094 40.3421 17.9557 40.1708 17.7582 40.0423C17.5606 39.9138 17.3192 39.7853 17.0558 39.6996C16.7924 39.5925 16.5071 39.5069 16.2217 39.3998C15.8705 39.2713 15.4974 39.1428 15.1462 38.9929C14.7731 38.8644 14.4438 38.6716 14.1585 38.4361C13.8731 38.2005 13.6317 37.9221 13.4341 37.558C13.2586 37.1939 13.1488 36.7656 13.1488 36.2088C13.1488 35.6734 13.2586 35.2237 13.478 34.8168C13.6975 34.4099 13.9829 34.0886 14.356 33.8102C14.7292 33.5532 15.1462 33.3391 15.6291 33.2106C16.112 33.0821 16.6168 33.0178 17.1655 33.0178C17.5387 33.0178 17.8899 33.0392 18.1971 33.1035C18.5264 33.1463 18.8117 33.232 19.0532 33.2962C19.3166 33.3605 19.5141 33.4461 19.6897 33.5318C19.8653 33.6175 19.997 33.6817 20.0848 33.746C20.3921 33.9173 20.5677 34.1529 20.5677 34.4741C20.5677 34.6026 20.5018 34.7953 20.3921 35.0095C20.2823 35.2237 20.1067 35.4592 19.8872 35.6734C19.6019 35.4592 19.2507 35.2451 18.7898 35.0523C18.3508 34.8596 17.8679 34.7525 17.3631 34.7525C17.1655 34.7525 16.946 34.7739 16.7485 34.8168C16.529 34.8596 16.3315 34.9238 16.1559 35.0095C15.9803 35.0952 15.8486 35.2237 15.7388 35.395C15.6291 35.5663 15.5632 35.7591 15.5632 35.9946C15.5632 36.2302 15.6291 36.423 15.7388 36.5943C15.8486 36.7656 16.0022 36.9155 16.1998 37.044C16.3973 37.1725 16.6168 37.2796 16.8582 37.3867C17.0997 37.4938 17.3631 37.5794 17.6484 37.6865C17.9996 37.815 18.3727 37.9649 18.7459 38.1148C19.119 38.2647 19.4483 38.4575 19.7555 38.6931C20.0628 38.9286 20.3043 39.2285 20.5018 39.5711C20.6994 39.9138 20.7872 40.3635 20.7872 40.8989C20.7872 41.4771 20.6774 41.9911 20.4799 42.4194C20.2604 42.8478 19.997 43.2333 19.6239 43.5331C19.2507 43.8329 18.8117 44.0685 18.2849 44.2184C17.7582 44.3683 17.1875 44.4326 16.5729 44.4326C15.7608 44.4326 15.1023 44.3469 14.5975 44.197C14.0926 44.0471 13.7414 43.8972 13.5 43.7687C13.3683 43.7044 13.2586 43.5973 13.1708 43.4688C13.083 43.3618 13.0391 43.2118 13.0391 43.0619C13.0391 42.8692 13.1049 42.655 13.2586 42.398C13.4122 42.141 13.5658 41.884 13.7634 41.6699Z" fill="#F6A000"/>
<path d="M25.0245 35.0523H21.5126V35.0309C21.4907 34.9024 21.4688 34.7954 21.4688 34.7097C21.4688 34.624 21.4688 34.5169 21.4688 34.3884C21.4688 34.0886 21.5785 33.8316 21.798 33.5746C22.0175 33.3391 22.3906 33.2106 22.8955 33.2106H30.8192C30.8411 33.4461 30.8631 33.6817 30.8631 33.9173C30.8631 34.1957 30.7533 34.4527 30.5558 34.6883C30.3582 34.9238 29.9851 35.0309 29.4803 35.0309H27.3512V44.1541H25.0245" fill="#F6A000"/>
<path d="M37.2946 44.1755L36.3288 41.4985H32.4219L31.5 44.1755H29.1953L33.1023 33.3819C33.234 33.3391 33.4315 33.2748 33.673 33.232C33.9144 33.1891 34.1778 33.1677 34.4631 33.1677C34.5948 33.1677 34.7265 33.1677 34.8802 33.1891C35.0338 33.2106 35.1875 33.2534 35.3192 33.3391C35.4728 33.4033 35.6045 33.5104 35.7362 33.6389C35.8679 33.7674 35.9776 33.9601 36.0435 34.1743L39.6651 44.1755H37.2946ZM34.4192 35.2022L32.8828 39.8709H35.9118L34.4192 35.2022Z" fill="#F6A000"/>
<path d="M49.8484 44.1756H47.8949L43.088 36.9798V44.1756H40.8711V33.2534C40.9808 33.232 41.1345 33.2106 41.332 33.1892C41.5296 33.1678 41.7052 33.1678 41.9027 33.1678C42.2539 33.1678 42.5392 33.232 42.7368 33.3391C42.9343 33.4676 43.1099 33.6389 43.2855 33.8959L47.6315 40.7704V33.232C47.7851 33.2106 47.9388 33.1892 48.0705 33.1678C48.2022 33.1464 48.3119 33.1464 48.3997 33.1464C48.5753 33.1464 48.7289 33.1678 48.9045 33.1892C49.0801 33.232 49.2338 33.2963 49.3655 33.3819C49.4972 33.4676 49.6289 33.5961 49.7167 33.7674C49.8045 33.9388 49.8484 34.1529 49.8484 34.4099" fill="#F6A000"/>
<path d="M61.0632 38.5218C61.0632 39.2927 60.9535 40.0209 60.734 40.7062C60.5145 41.3915 60.1852 41.9911 59.7462 42.5051C59.3073 43.0191 58.7585 43.426 58.0781 43.7258C57.3977 44.0257 56.6075 44.1756 55.6856 44.1756H52.0859V33.3177C52.8103 33.232 53.4248 33.1678 53.9297 33.1463C54.4345 33.1249 54.8735 33.1035 55.2466 33.1035C56.3661 33.1035 57.3099 33.2534 58.0561 33.5318C58.8024 33.8317 59.3951 34.2171 59.834 34.7097C60.273 35.2023 60.6023 35.7805 60.7779 36.423C60.9535 37.1083 61.0632 37.7936 61.0632 38.5218ZM58.6927 38.5646C58.6927 38.0506 58.6488 37.5795 58.539 37.1297C58.4293 36.68 58.2756 36.2945 58.0122 35.9518C57.7708 35.6092 57.4416 35.3522 57.0026 35.1595C56.5855 34.9667 56.0588 34.8596 55.4003 34.8596C55.071 34.8596 54.7418 34.881 54.3906 34.9025V42.4409H55.3125C55.971 42.4409 56.5197 42.3552 56.9587 42.1625C57.3977 41.9697 57.7489 41.7127 57.9903 41.3487C58.2317 41.006 58.4073 40.5991 58.5171 40.1065C58.6488 39.6568 58.6927 39.1428 58.6927 38.5646Z" fill="#F6A000"/>
<path d="M69.2727 44.1755L68.3069 41.4985H64.3999L63.478 44.1755H61.1953L65.1023 33.3819C65.234 33.3391 65.4315 33.2748 65.673 33.232C65.9144 33.1891 66.1778 33.1677 66.4631 33.1677C66.5948 33.1677 66.7265 33.1677 66.8802 33.1891C67.0338 33.2106 67.1875 33.2534 67.3192 33.3391C67.4728 33.4033 67.6045 33.5104 67.7362 33.6389C67.8679 33.7674 67.9776 33.9601 68.0435 34.1743L71.6651 44.1755H69.2727ZM66.3753 35.2022L64.8389 39.8709H67.8679L66.3753 35.2022Z" fill="#F6A000"/>
<path d="M80.6222 36.3587C80.6222 36.8084 80.5563 37.2153 80.4466 37.558C80.3368 37.9006 80.1612 38.2219 79.9637 38.4789C79.7662 38.7359 79.5247 38.95 79.2613 39.1428C78.9979 39.3141 78.7345 39.4426 78.4711 39.5497L81.2587 44.0685C81.0392 44.1541 80.8197 44.2184 80.5783 44.2612C80.3368 44.304 80.1173 44.3469 79.8979 44.3469C79.4808 44.3469 79.1296 44.2612 78.8662 44.0899C78.5809 43.9185 78.3175 43.6401 78.098 43.2332L76.1665 40.0637H75.2446V44.1755H72.918V33.2962C73.4228 33.232 73.9496 33.1891 74.4544 33.1677C74.9812 33.1463 75.4641 33.1249 75.8811 33.1249C77.5054 33.1249 78.6906 33.3819 79.4589 33.9173C80.249 34.4527 80.6222 35.2665 80.6222 36.3587ZM78.2078 36.5729C78.2078 35.8875 78.0102 35.395 77.659 35.1166C77.2859 34.8382 76.781 34.7097 76.1445 34.7097C75.947 34.7097 75.7714 34.7097 75.6177 34.7311C75.486 34.7311 75.3543 34.7525 75.2446 34.7525V38.5217H76.0348C76.7152 38.5217 77.242 38.3718 77.6151 38.0506C78.0102 37.7293 78.2078 37.2368 78.2078 36.5729Z" fill="#F6A000"/>
<path d="M91.5725 38.5218C91.5725 39.2927 91.4628 40.0209 91.2652 40.7062C91.0457 41.3915 90.7165 41.9911 90.2775 42.5051C89.8385 43.0191 89.2678 43.426 88.6094 43.7258C87.9289 44.0257 87.1388 44.1756 86.2169 44.1756H82.6172V33.3177C83.3415 33.232 83.9561 33.1678 84.4609 33.1463C84.9658 33.1249 85.4048 33.1035 85.7779 33.1035C86.8973 33.1035 87.8411 33.2534 88.5874 33.5318C89.3337 33.8317 89.9263 34.2171 90.3653 34.7097C90.8043 35.2023 91.1116 35.7805 91.3091 36.423C91.4847 37.1083 91.5725 37.7936 91.5725 38.5218ZM89.2239 38.5646C89.2239 38.0506 89.1581 37.5795 89.0703 37.1297C88.9825 36.68 88.785 36.2945 88.5435 35.9518C88.3021 35.6092 87.9728 35.3522 87.5338 35.1595C87.1168 34.9667 86.59 34.8596 85.9535 34.8596C85.6242 34.8596 85.295 34.881 84.9438 34.9025V42.4409H85.8657C86.5242 42.4409 87.0729 42.3552 87.5119 42.1625C87.9509 41.9697 88.2801 41.7127 88.5435 41.3487C88.8069 41.006 88.9825 40.5991 89.0703 40.1065C89.1581 39.6568 89.2239 39.1428 89.2239 38.5646Z" fill="#F6A000"/>
<path d="M100.55 44.1755V35.9304L98.3328 37.0012C98.1791 36.787 98.0255 36.5729 97.8718 36.3373C97.7182 36.1017 97.6523 35.8661 97.6523 35.6734C97.6523 35.5449 97.6962 35.4164 97.784 35.2879C97.8718 35.1594 98.0035 35.0523 98.2011 34.9452L100.594 33.7245C100.813 33.6174 101.033 33.5104 101.252 33.4461C101.45 33.3605 101.669 33.3176 101.889 33.3176C102.108 33.3176 102.306 33.339 102.459 33.4033C102.613 33.4675 102.745 33.5104 102.832 33.5746V44.1969" fill="#F6A000"/>
<path d="M114.206 38.843C114.206 40.6205 113.876 42.0125 113.196 42.9763C112.515 43.94 111.462 44.4325 110.057 44.4325C108.63 44.4325 107.577 43.9614 106.896 43.0405C106.216 42.1196 105.887 40.7062 105.887 38.843C105.887 37.9863 105.975 37.2154 106.15 36.5086C106.326 35.8233 106.589 35.2237 106.94 34.7311C107.291 34.2385 107.73 33.8745 108.279 33.5961C108.806 33.3391 109.443 33.2106 110.145 33.2106C110.869 33.2106 111.506 33.3391 112.011 33.5961C112.537 33.8531 112.954 34.2171 113.284 34.7097C113.613 35.1808 113.854 35.7805 114.008 36.4872C114.14 37.1511 114.206 37.9435 114.206 38.843ZM111.945 38.843C111.945 38.1148 111.901 37.5152 111.813 37.0226C111.725 36.53 111.615 36.1231 111.44 35.8233C111.286 35.5235 111.089 35.3093 110.869 35.1808C110.65 35.0523 110.386 34.9667 110.079 34.9667C109.772 34.9667 109.508 35.0309 109.289 35.1808C109.047 35.3093 108.85 35.5235 108.696 35.8233C108.543 36.1231 108.411 36.53 108.323 37.0226C108.235 37.5152 108.191 38.1362 108.191 38.843C108.191 39.5497 108.235 40.1494 108.323 40.6419C108.411 41.1345 108.543 41.52 108.696 41.8412C108.85 42.141 109.047 42.3552 109.289 42.5051C109.53 42.6336 109.794 42.6979 110.079 42.6979C110.364 42.6979 110.628 42.6336 110.869 42.5051C111.089 42.3766 111.286 42.1625 111.44 41.8626C111.594 41.5628 111.725 41.1559 111.813 40.6848C111.901 40.1708 111.945 39.5497 111.945 38.843Z" fill="#F6A000"/>
<path d="M123.467 38.843C123.467 40.6205 123.138 42.0125 122.458 42.9763C121.777 43.94 120.746 44.4325 119.341 44.4325C117.914 44.4325 116.86 43.9614 116.18 43.0405C115.5 42.1196 115.148 40.7062 115.148 38.843C115.148 37.9863 115.236 37.2154 115.412 36.5086C115.587 35.8233 115.851 35.2237 116.202 34.7311C116.553 34.2385 116.992 33.8745 117.519 33.5961C118.046 33.3391 118.682 33.2106 119.385 33.2106C120.109 33.2106 120.746 33.3391 121.25 33.5961C121.777 33.8531 122.194 34.2171 122.523 34.7097C122.853 35.1808 123.094 35.7805 123.248 36.4872C123.379 37.1511 123.467 37.9435 123.467 38.843ZM121.184 38.843C121.184 38.1148 121.141 37.5152 121.053 37.0226C120.965 36.53 120.855 36.1231 120.68 35.8233C120.526 35.5235 120.328 35.3093 120.109 35.1808C119.889 35.0523 119.626 34.9667 119.319 34.9667C119.033 34.9667 118.77 35.0309 118.529 35.1808C118.287 35.3093 118.09 35.5235 117.936 35.8233C117.782 36.1231 117.651 36.53 117.563 37.0226C117.475 37.5152 117.431 38.1362 117.431 38.843C117.431 39.5497 117.475 40.1494 117.563 40.6419C117.651 41.1345 117.76 41.52 117.936 41.8412C118.09 42.141 118.309 42.3552 118.529 42.5051C118.77 42.6336 119.033 42.6979 119.319 42.6979C119.604 42.6979 119.868 42.6336 120.109 42.5051C120.35 42.3766 120.526 42.1625 120.68 41.8626C120.833 41.5628 120.965 41.1559 121.053 40.6848C121.141 40.1708 121.184 39.5497 121.184 38.843Z" fill="#F6A000"/>
<path d="M30.399 54.8621V54.0483C30.4868 53.9412 30.6405 53.8556 30.7722 53.7271C30.9258 53.5557 31.0795 53.4701 31.2331 53.3202C31.3868 53.1274 31.5624 53.0203 31.716 52.849C31.8477 52.6563 32.0452 52.5278 32.1989 52.3565C32.3745 52.0995 32.594 51.8639 32.7476 51.6283C32.8793 51.3285 32.9452 51.1357 32.9452 50.8787C32.8793 50.7074 32.9232 50.6003 32.8793 50.4933C32.7696 50.3434 32.7696 50.3005 32.6818 50.2577C32.5501 50.172 32.5062 50.1506 32.4184 50.1292C32.2867 50.0435 32.2208 50.0864 32.1111 50.0864C31.8038 50.0435 31.5624 50.1506 31.3209 50.2791C31.0575 50.3648 30.8819 50.5575 30.7063 50.7288C30.5307 50.5575 30.4868 50.4718 30.399 50.3433C30.2893 50.1506 30.2893 50.1292 30.2893 50.0435C30.2235 49.9364 30.3113 49.915 30.3552 49.8508C30.3771 49.7437 30.4429 49.7437 30.5088 49.7009C30.5088 49.5938 30.6405 49.5938 30.7502 49.5295C30.7722 49.4439 30.9697 49.401 31.1234 49.3368C31.2112 49.2511 31.4307 49.2297 31.6282 49.1869C31.7599 49.1012 32.0233 49.1226 32.2647 49.1226C32.4623 49.1012 32.7696 49.1441 33.011 49.2083C33.2305 49.2083 33.45 49.3582 33.6256 49.4867C33.8012 49.6152 33.9329 49.7865 34.0426 50.0007C34.0865 50.172 34.1963 50.4718 34.1963 50.7503C34.1524 50.9002 34.1524 51.1572 34.0865 51.3713C34.0207 51.5212 33.9329 51.7782 33.8012 51.971C33.6256 52.1209 33.5378 52.3565 33.4061 52.5278C33.1866 52.6777 33.0988 52.8704 32.9452 53.0203C32.7257 53.1488 32.6159 53.3416 32.4623 53.4915C32.2647 53.5772 32.155 53.7699 32.0233 53.877H33.7134C33.8231 53.8342 33.9768 53.8984 34.0646 53.9412C34.0865 53.9198 34.2402 54.0269 34.2841 54.0911C34.2621 54.1126 34.3719 54.2196 34.3938 54.2839C34.3719 54.3267 34.4377 54.4338 34.4377 54.498C34.3938 54.5195 34.4377 54.6265 34.4377 54.6694C34.3938 54.6908 34.4377 54.755 34.4377 54.8193H30.399V54.8621Z" fill="#17140F"/>
<path d="M37.0305 54.8621V50.5146L35.8891 51.0715C35.8013 50.943 35.7355 50.8573 35.6477 50.7288C35.5599 50.5575 35.5379 50.4932 35.5379 50.3861C35.494 50.3219 35.5599 50.2362 35.6038 50.172C35.5818 50.1077 35.7135 50.0435 35.8233 50.0007L37.0744 49.3582C37.1622 49.2939 37.3158 49.2511 37.4256 49.2083C37.5353 49.1226 37.645 49.144 37.7767 49.144C37.8426 49.1226 37.9962 49.1654 38.084 49.1869C38.1718 49.1869 38.2377 49.2511 38.2816 49.2725V54.8621H37.0305Z" fill="#17140F"/>
<path d="M44.3821 54.5622C44.2723 54.5408 44.2943 54.6479 44.2065 54.6907C44.1187 54.7335 44.0089 54.7978 43.8772 54.8406C43.7016 54.8192 43.5919 54.9263 43.3943 54.9691C43.1748 54.9691 42.9773 55.0119 42.7359 55.0119C42.231 54.9477 41.8579 54.9477 41.5067 54.7978C41.1116 54.605 40.8702 54.4337 40.6507 54.1767C40.3434 53.8555 40.2556 53.5985 40.1458 53.2344C39.9922 52.8275 39.9922 52.4634 39.9922 52.0351C39.9922 51.5426 40.058 51.1999 40.1678 50.8358C40.2336 50.4504 40.4531 50.1505 40.6726 49.8935C40.8921 49.5723 41.1775 49.4224 41.5286 49.2725C41.8798 49.0583 42.2749 49.0369 42.7359 49.0369C42.9334 48.9726 43.1748 49.0583 43.3504 49.1011C43.5041 49.1226 43.7016 49.1868 43.8333 49.2296C43.9431 49.2296 44.0748 49.3367 44.1845 49.401C44.2723 49.4224 44.3382 49.508 44.3821 49.5509C44.426 49.5723 44.4699 49.658 44.5138 49.7222C44.5138 49.7222 44.5796 49.8507 44.5796 49.915C44.5137 49.9578 44.5357 50.1505 44.4479 50.2576C44.3382 50.3433 44.2723 50.4718 44.1626 50.5788C44.0089 50.4503 44.0089 50.4503 43.9211 50.3647C43.7675 50.3004 43.7455 50.2362 43.6358 50.1719C43.4821 50.1077 43.4163 50.0649 43.2626 50.0434C43.0651 49.9792 42.9773 49.9792 42.8017 49.9792C42.4505 49.9578 42.253 50.0434 42.0554 50.1505C41.8359 50.2576 41.6823 50.4289 41.5725 50.6217C41.4408 50.793 41.375 51.0286 41.3091 51.2642C41.1775 51.4783 41.2214 51.7567 41.2214 52.0137C41.1775 52.2279 41.2433 52.5491 41.3091 52.7847C41.2872 52.9988 41.4628 53.2558 41.5725 53.4486C41.6823 53.5985 41.8579 53.7912 42.0774 53.8983C42.253 53.9626 42.5383 54.0696 42.8676 54.0696C43.0212 54.0482 43.1748 54.0482 43.3065 54.0054C43.4382 53.9626 43.5699 53.9197 43.6797 53.8555C43.7236 53.7698 43.8772 53.727 43.9431 53.6842C43.9431 53.5771 44.0967 53.5771 44.1406 53.5128C44.1187 53.4914 44.2065 53.5985 44.2723 53.6627C44.2943 53.6842 44.3601 53.7698 44.404 53.8341C44.4479 53.8769 44.4699 53.9626 44.5138 54.0268C44.5138 54.0696 44.5576 54.1553 44.5576 54.1981C44.5137 54.2624 44.5357 54.3266 44.5138 54.3909C44.4479 54.3909 44.426 54.498 44.3821 54.5622Z" fill="#17140F"/>
<path d="M47.3661 52.9775L46.2466 54.8621H44.9297L46.6637 52.0352L45.1272 49.3368C45.215 49.2725 45.3687 49.2511 45.5004 49.2083C45.5662 49.144 45.7638 49.144 45.8955 49.144C46.1588 49.1226 46.4442 49.2725 46.5978 49.5509L47.4539 51.0929L48.3318 49.658C48.3757 49.4438 48.5513 49.3582 48.6611 49.2725C48.7489 49.1226 48.9464 49.144 49.144 49.144C49.2317 49.1226 49.3854 49.1654 49.4732 49.1869C49.561 49.1869 49.6707 49.2511 49.7805 49.3153L48.1562 52.0138L49.8683 54.8835C49.6927 54.9049 49.6488 54.9263 49.5171 54.9477C49.3854 54.9477 49.2756 54.9692 49.1879 54.9692C48.9025 54.9477 48.7708 54.9263 48.6391 54.8407C48.5074 54.6908 48.3977 54.6265 48.3099 54.4552L47.3661 52.9775Z" fill="#17140F"/>
<path d="M53.2939 52.078C53.25 51.6925 53.2719 51.3927 53.228 51.1357C53.1622 50.8359 53.1183 50.6645 53.0305 50.5146C52.9207 50.3005 52.8549 50.2362 52.7232 50.172C52.5915 50.0863 52.4598 50.0649 52.3281 50.0649C52.1525 50.0221 52.0427 50.1077 51.911 50.172C51.7574 50.2362 51.6916 50.3433 51.6038 50.5146C51.4501 50.6217 51.4501 50.8787 51.4062 51.1357C51.3623 51.3499 51.3404 51.7139 51.3404 52.078C51.2745 52.4421 51.3623 52.7633 51.4062 53.0203C51.4501 53.2345 51.516 53.4915 51.6038 53.6414C51.6257 53.7699 51.7794 53.9198 51.911 53.984C51.9988 53.984 52.1744 54.0911 52.3281 54.0911C52.4598 54.0697 52.6134 54.0697 52.7232 53.984C52.8329 53.8555 52.9427 53.8127 53.0305 53.6414C53.0744 53.47 53.1841 53.2773 53.228 53.0203C53.25 52.7419 53.2939 52.4635 53.2939 52.078ZM54.523 52.078C54.5011 53.0203 54.3474 53.7484 53.9962 54.2624C53.5792 54.755 53.0963 55.0334 52.35 55.0334C51.5818 54.9692 51.055 54.7978 50.6819 54.2838C50.2868 53.7699 50.1332 53.0631 50.1332 52.078C50.1112 51.6283 50.1771 51.2214 50.2649 50.8573C50.2868 50.4718 50.4843 50.172 50.6819 49.915C50.8136 49.5937 51.0989 49.4653 51.3843 49.3153C51.6038 49.1654 51.9988 49.1012 52.372 49.1012C52.7232 49.0798 53.0963 49.1654 53.3597 49.2939C53.5572 49.4224 53.8645 49.6152 54.0182 49.8722C54.1279 50.0649 54.3255 50.429 54.3913 50.793C54.4352 51.1785 54.523 51.6283 54.523 52.078Z" fill="#17140F"/>
<path d="M58.122 52.078C58.0781 51.6925 58.1 51.3927 58.0561 51.1357C57.9903 50.8359 57.9464 50.6645 57.8586 50.5146C57.7488 50.3005 57.683 50.2362 57.5513 50.172C57.4196 50.0863 57.2879 50.0649 57.1562 50.0649C56.9806 50.0221 56.8709 50.1077 56.7392 50.172C56.5855 50.2362 56.5197 50.3433 56.4319 50.5146C56.2782 50.6217 56.2782 50.8787 56.2343 51.1357C56.1904 51.3499 56.1685 51.7139 56.1685 52.078C56.1026 52.4421 56.1904 52.7633 56.2343 53.0203C56.2782 53.2345 56.3441 53.4915 56.4319 53.6414C56.4538 53.7699 56.6075 53.9198 56.7392 53.984C56.827 53.984 57.0026 54.0911 57.1562 54.0911C57.2879 54.0697 57.4415 54.0697 57.5513 53.984C57.661 53.8555 57.7708 53.8127 57.8586 53.6414C57.9025 53.47 58.0122 53.2773 58.0561 53.0203C58.0781 52.7419 58.122 52.4635 58.122 52.078ZM59.3511 52.078C59.3292 53.0203 59.1755 53.7484 58.8243 54.2624C58.4073 54.755 57.9244 55.0334 57.1782 55.0334C56.4099 54.9692 55.8832 54.7978 55.51 54.2838C55.1149 53.7699 54.9613 53.0631 54.9613 52.078C54.9393 51.6283 55.0052 51.2214 55.093 50.8573C55.1149 50.4718 55.3125 50.172 55.51 49.915C55.6417 49.5937 55.9271 49.4653 56.2124 49.3153C56.4319 49.1654 56.827 49.1012 57.2001 49.1012C57.5513 49.0798 57.9244 49.1654 58.1878 49.2939C58.3854 49.4224 58.6927 49.6152 58.8463 49.8722C58.956 50.0649 59.1536 50.429 59.2194 50.793C59.2633 51.1785 59.3511 51.6283 59.3511 52.078Z" fill="#17140F"/>
<path d="M61.8312 54.8621V50.5146L60.6899 51.0715C60.6021 50.943 60.5143 50.8573 60.4484 50.7288C60.3606 50.5575 60.3387 50.4932 60.3387 50.3861C60.2948 50.3219 60.3606 50.2362 60.4045 50.172C60.3826 50.1077 60.5143 50.0435 60.624 50.0007L61.8751 49.3582C61.9629 49.2939 62.1166 49.2511 62.2263 49.2083C62.3361 49.1226 62.4458 49.144 62.5775 49.144C62.6434 49.1226 62.797 49.1654 62.8848 49.1869C62.9726 49.1869 63.0385 49.2511 63.0824 49.2725V54.8621H61.8312Z" fill="#17140F"/>
<path d="M68.6583 53.2346C68.6144 53.4702 68.6144 53.7272 68.5266 53.9628C68.373 54.1341 68.3071 54.3697 68.1315 54.541C67.934 54.6695 67.7364 54.8194 67.4511 54.9051C67.1658 54.9907 66.8804 55.0336 66.5073 55.0336C66.2219 54.9693 66.0902 55.0121 65.8927 54.9907C65.7171 54.9265 65.5634 54.9265 65.4318 54.8837C65.3001 54.8408 65.1903 54.798 65.1025 54.7552C64.9708 54.6695 64.9489 54.6695 64.883 54.6267C64.7733 54.5196 64.7294 54.5196 64.6855 54.4553C64.5977 54.3697 64.6196 54.3054 64.6196 54.2412C64.5977 54.0698 64.7513 53.8129 64.9708 53.4702C64.9708 53.4916 65.1245 53.5987 65.2123 53.6844C65.3001 53.7272 65.4098 53.8343 65.5415 53.8771C65.6293 53.8985 65.8049 53.9842 65.9366 54.027C66.0463 54.0698 66.2439 54.0913 66.4195 54.0913C66.5073 54.0698 66.6609 54.0698 66.7926 54.0484C66.9024 54.0056 67.0121 53.9628 67.0999 53.8985C67.1438 53.7914 67.2755 53.7272 67.3194 53.6201C67.3413 53.4916 67.4072 53.3631 67.4072 53.2132C67.3413 52.999 67.3633 52.8705 67.2755 52.7635C67.1658 52.635 67.0999 52.5707 66.9902 52.5279C66.8804 52.4636 66.7707 52.4422 66.6609 52.4208C66.5073 52.3566 66.4414 52.3994 66.3756 52.3994H65.9366V51.4571H66.3756C66.4414 51.4571 66.5292 51.4357 66.639 51.4143C66.7048 51.3286 66.8365 51.35 66.9243 51.3072C66.9682 51.2215 67.078 51.1787 67.1438 51.093C67.1438 50.9645 67.2316 50.8789 67.2316 50.7289C67.2096 50.472 67.1658 50.3435 67.0121 50.2578C66.8585 50.1293 66.6609 50.1079 66.3975 50.1079C66.2219 50.0651 66.1122 50.1293 65.9805 50.1507C65.8268 50.1293 65.739 50.2364 65.6293 50.2792C65.4537 50.3006 65.4098 50.3863 65.322 50.4505C65.1903 50.4934 65.1245 50.579 65.0367 50.6433C64.905 50.5148 64.8172 50.4291 64.7513 50.3006C64.6196 50.1293 64.6416 50.065 64.6416 50.0008C64.6196 49.8937 64.6635 49.8509 64.7074 49.8081C64.7074 49.7224 64.7952 49.701 64.8611 49.6581C64.883 49.5725 64.9928 49.5511 65.1025 49.5082C65.1684 49.3797 65.322 49.4012 65.4757 49.3369C65.6073 49.2727 65.7829 49.2512 65.9585 49.2084C66.1122 49.1442 66.3536 49.1656 66.5951 49.1656C66.9024 49.1442 67.2096 49.2084 67.4291 49.2727C67.6486 49.2941 67.8681 49.444 68.0218 49.5725C68.1096 49.6796 68.2852 49.8509 68.351 50.0222C68.3949 50.1721 68.4608 50.3863 68.4608 50.6005C68.3949 50.7289 68.4388 50.9645 68.373 51.1144C68.2852 51.2429 68.2413 51.3928 68.1315 51.4999C68.0218 51.5856 67.934 51.6927 67.8242 51.7569C67.6486 51.7997 67.6267 51.864 67.5608 51.9068C67.6047 51.9497 67.7584 51.9925 67.8901 52.0567C67.9998 52.0782 68.1315 52.2067 68.2413 52.2923C68.3071 52.3351 68.4388 52.5279 68.5266 52.6778C68.6144 52.7635 68.6583 52.999 68.6583 53.2346Z" fill="#17140F"/>
<path d="M71.0749 50.1506L70.9432 51.1786C70.9432 51.0929 71.1188 51.1357 71.2505 51.1143C71.3383 51.0501 71.4919 51.0929 71.6236 51.0929C71.909 51.0715 72.1724 51.1357 72.4138 51.2C72.6113 51.2 72.8528 51.3927 73.0284 51.5427C73.1601 51.6497 73.3357 51.8853 73.4454 52.1209C73.5113 52.335 73.5771 52.6349 73.5771 52.9775C73.5113 53.2345 73.5332 53.5129 73.4454 53.7699C73.3357 53.9412 73.2259 54.2411 73.0503 54.4124C72.8308 54.5409 72.6333 54.7551 72.3699 54.8621C72.0626 54.9692 71.7773 55.0335 71.4041 55.0335C71.1627 54.9692 70.9432 55.012 70.7456 54.9906C70.5481 54.9264 70.3945 54.9264 70.2628 54.8835C70.0652 54.8407 70.0213 54.7979 69.9335 54.7551C69.8238 54.6694 69.7799 54.6694 69.736 54.6266C69.6482 54.5195 69.6262 54.5409 69.5823 54.4766C69.4726 54.391 69.5165 54.3481 69.5165 54.2625C69.4945 54.1768 69.5384 54.0912 69.6262 53.9412C69.6262 53.7485 69.7799 53.6414 69.9116 53.4915C69.9555 53.5129 70.0652 53.62 70.153 53.6843C70.2408 53.7057 70.3725 53.8127 70.4823 53.877C70.5481 53.8984 70.7456 53.9841 70.8993 54.0269C71.009 54.0483 71.2066 54.0912 71.3822 54.0912C71.448 54.0697 71.6236 54.0697 71.7553 54.0269C71.8431 53.9841 71.9748 53.9198 72.0846 53.8556C72.1065 53.7485 72.2601 53.6628 72.304 53.5343C72.2821 53.3416 72.3918 53.2559 72.3918 53.0632C72.3699 52.8062 72.3479 52.6563 72.2821 52.5278C72.1504 52.3779 72.1065 52.2922 71.9968 52.2065C71.8431 52.0781 71.7773 52.0781 71.6456 52.0566C71.448 52.0352 71.4041 52.0138 71.2944 52.0138C71.0749 51.9496 70.9212 52.0352 70.7676 52.0566C70.5481 52.0781 70.4603 52.1423 70.3067 52.2065L69.8896 52.0352L70.1969 49.1869H73.3576C73.3137 49.2083 73.3796 49.294 73.3796 49.3368C73.3137 49.3582 73.3796 49.4225 73.3796 49.4867C73.3137 49.6795 73.3357 49.8294 73.2259 49.9579C73.0942 50.0435 72.9186 50.1292 72.6333 50.1292H71.0749V50.1506Z" fill="#17140F"/>
<path d="M80.8195 54.5622C80.7098 54.5408 80.7317 54.6479 80.6439 54.6907C80.5562 54.7335 80.4464 54.7978 80.3147 54.8406C80.1391 54.8192 80.0294 54.9263 79.8318 54.9691C79.6123 54.9691 79.4148 55.0119 79.1733 55.0119C78.6685 54.9477 78.2954 54.9477 77.9442 54.7978C77.5271 54.605 77.3077 54.4337 77.0882 54.1767C76.7809 53.8555 76.6931 53.5985 76.5833 53.2344C76.4297 52.8275 76.4297 52.4634 76.4297 52.0351C76.4297 51.5426 76.4955 51.1999 76.6053 50.8358C76.6711 50.4504 76.8906 50.1505 77.1101 49.8935C77.3296 49.5723 77.6149 49.4224 77.9661 49.2725C78.3173 49.0583 78.7124 49.0369 79.1733 49.0369C79.3709 48.9726 79.6123 49.0583 79.7879 49.1011C79.9416 49.1226 80.1391 49.1868 80.2708 49.2296C80.3806 49.2296 80.5122 49.3367 80.622 49.401C80.7098 49.4224 80.7756 49.508 80.8195 49.5509C80.8634 49.5723 80.9073 49.658 80.9512 49.7222C80.9512 49.7222 81.0171 49.8507 81.0171 49.915C80.9512 49.9578 80.9732 50.1505 80.8854 50.2576C80.7756 50.3433 80.7098 50.4718 80.6 50.5788C80.4684 50.4503 80.4464 50.4503 80.3586 50.3647C80.205 50.3004 80.183 50.2362 80.0733 50.1719C79.9196 50.1077 79.8538 50.0649 79.7001 50.0434C79.5026 49.9792 79.4148 49.9792 79.2392 49.9792C78.888 49.9578 78.6905 50.0434 78.4929 50.1505C78.2734 50.2576 78.1198 50.4289 78.01 50.6217C77.8783 50.793 77.7905 51.0286 77.7466 51.2642C77.6149 51.4783 77.6588 51.7567 77.6588 52.0137C77.615 52.2279 77.6808 52.5491 77.7466 52.7847C77.7247 52.9988 77.8783 53.2558 78.01 53.4486C78.1198 53.5985 78.2954 53.7912 78.5149 53.8983C78.6905 53.9626 78.9758 54.0696 79.305 54.0696C79.4587 54.0482 79.6123 54.0482 79.744 54.0054C79.8757 53.9626 80.0074 53.9197 80.1172 53.8555C80.1611 53.7698 80.3147 53.727 80.3806 53.6842C80.3806 53.5771 80.5342 53.5771 80.5781 53.5128C80.5561 53.4914 80.6439 53.5985 80.7098 53.6627C80.7317 53.6842 80.7976 53.7698 80.8415 53.8341C80.8854 53.8769 80.9073 53.9626 80.9512 54.0268C80.9512 54.0696 80.9951 54.1553 80.9951 54.1981C80.9512 54.2624 80.9732 54.3266 80.9512 54.3909C80.8854 54.3909 80.8634 54.498 80.8195 54.5622Z" fill="#17140F"/>
<path d="M85.2066 53.9198C85.2725 53.8769 85.47 53.9412 85.5578 53.9626C85.6017 53.9412 85.7334 54.0483 85.7773 54.1125C85.7993 54.1339 85.8651 54.241 85.8871 54.3267C85.909 54.3695 85.931 54.4766 85.931 54.5622C85.909 54.5837 85.931 54.6907 85.931 54.7336C85.909 54.755 85.931 54.8192 85.909 54.8835H82.0898V49.1654H85.7554C85.7334 49.2082 85.7773 49.2725 85.7773 49.3367C85.7334 49.3796 85.7773 49.4438 85.7773 49.5081C85.7334 49.658 85.7334 49.8721 85.6237 49.9792C85.4481 50.022 85.3164 50.1291 85.031 50.1291H83.2971V51.4998H85.1627V52.4421H83.2971V53.984H85.2066V53.9198Z" fill="#17140F"/>
<path d="M90.212 53.0846V49.1227C90.212 49.1013 90.3218 49.1227 90.3657 49.1227C90.3657 49.1013 90.4535 49.1227 90.4974 49.1227C90.5413 49.1013 90.5852 49.1227 90.6291 49.1227C90.673 49.1013 90.8047 49.1227 90.9144 49.1441C90.9363 49.1227 91.09 49.1869 91.1778 49.2298C91.2436 49.2083 91.3314 49.3368 91.3753 49.4225C91.4192 49.4653 91.4631 49.6367 91.4631 49.7652V54.8407H90.4315L87.8854 51.0929V54.8407H86.6562V49.1227C86.6782 49.1013 86.7879 49.1227 86.8977 49.1227C86.9635 49.1013 87.0952 49.1227 87.205 49.1227C87.3367 49.1013 87.5342 49.1441 87.644 49.2083C87.6879 49.2298 87.8415 49.3583 87.9293 49.4867L90.212 53.0846Z" fill="#17140F"/>
<path d="M93.7246 50.065H91.9028C91.8589 49.9579 91.8808 49.9365 91.8808 49.8937C91.8589 49.7866 91.8808 49.7866 91.8808 49.7223C91.8589 49.5724 91.9467 49.4439 92.0564 49.3154C92.1662 49.1869 92.3637 49.1227 92.6271 49.1227H96.7536C96.7317 49.2298 96.7756 49.3583 96.7756 49.4868C96.7317 49.4868 96.7536 49.6367 96.7317 49.7009C96.6658 49.7009 96.6658 49.8294 96.6 49.8937C96.4683 49.8937 96.4683 50.0007 96.3805 50.0222C96.2268 50.0222 96.1829 50.065 96.0512 50.065H94.9538V54.8622H93.7246V50.065Z" fill="#17140F"/>
<path d="M100.176 50.8359C100.154 50.4504 100.089 50.2363 99.891 50.0864C99.6276 49.8936 99.452 49.8936 99.1228 49.8936C98.9911 49.8294 98.9252 49.8936 98.8594 49.8936C98.7716 49.8294 98.7277 49.8936 98.6838 49.8936V51.8639H99.0789C99.3862 51.8639 99.6715 51.7782 99.869 51.6069C100.023 51.3927 100.176 51.1786 100.176 50.8359ZM101.406 50.7288C101.34 50.9002 101.384 51.1786 101.318 51.3499C101.23 51.4784 101.186 51.6926 101.076 51.8425C100.945 51.9067 100.857 52.0995 100.725 52.1851C100.549 52.228 100.462 52.3565 100.308 52.3993L101.757 54.7551C101.625 54.7765 101.537 54.8407 101.406 54.8835C101.23 54.905 101.164 54.9264 101.054 54.9264C100.835 54.905 100.659 54.8835 100.506 54.7979C100.308 54.648 100.22 54.5623 100.11 54.3481L99.1667 52.6991H98.7057V54.8621H97.4766V49.1441C97.6741 49.1012 98.0033 49.1012 98.2667 49.0798C98.5082 48.9942 98.7935 49.0584 98.9911 49.0584C99.7593 48.9942 100.44 49.2083 100.835 49.4867C101.208 49.6795 101.406 50.172 101.406 50.7288Z" fill="#17140F"/>
<path d="M106.148 51.9924C106.126 51.6711 106.126 51.457 106.082 51.2214C106.038 50.9644 105.951 50.7502 105.841 50.5789C105.665 50.3862 105.599 50.2362 105.424 50.1506C105.248 50.0435 105.029 49.9793 104.787 49.9793C104.524 49.9578 104.304 50.0435 104.107 50.1506C103.931 50.2577 103.778 50.4076 103.668 50.5789C103.558 50.7716 103.47 50.9858 103.426 51.2214C103.317 51.457 103.36 51.7139 103.36 51.9924C103.317 52.2065 103.382 52.5278 103.426 52.7847C103.404 53.0203 103.558 53.2559 103.668 53.4486C103.778 53.62 103.931 53.7913 104.107 53.9198C104.217 53.984 104.502 54.0911 104.765 54.0911C105.029 54.0697 105.248 54.0269 105.424 53.9198C105.599 53.7699 105.753 53.6628 105.841 53.4486C105.885 53.2131 106.016 53.0417 106.082 52.7847C106.126 52.5063 106.148 52.2708 106.148 51.9924ZM107.377 51.9924C107.311 52.3564 107.333 52.7847 107.224 53.1702C107.092 53.5343 106.96 53.8555 106.763 54.134C106.543 54.3695 106.28 54.6265 105.929 54.7979C105.555 54.9049 105.182 55.0334 104.721 55.0334C104.195 54.9692 103.843 54.9478 103.514 54.7979C103.163 54.5837 102.922 54.4124 102.702 54.134C102.439 53.8127 102.329 53.5343 102.241 53.1702C102.109 52.8062 102.109 52.4207 102.109 52.0138C102.109 51.564 102.153 51.2428 102.263 50.8787C102.307 50.4932 102.526 50.1934 102.746 49.9364C102.9 49.5938 103.251 49.4439 103.58 49.2939C103.865 49.0584 104.304 49.0584 104.787 49.0584C105.226 48.9941 105.643 49.144 105.972 49.2939C106.258 49.3796 106.565 49.658 106.785 49.915C106.982 50.1292 107.136 50.4932 107.246 50.8573C107.311 51.1785 107.377 51.5854 107.377 51.9924Z" fill="#17140F"/>
<path d="M112.644 54.5622C112.534 54.5408 112.556 54.6479 112.468 54.6907C112.38 54.7335 112.271 54.7978 112.139 54.8406C111.963 54.8192 111.854 54.9263 111.656 54.9691C111.437 54.9691 111.239 55.0119 110.998 55.0119C110.493 54.9477 110.12 54.9477 109.768 54.7978C109.351 54.605 109.132 54.4337 108.912 54.1767C108.605 53.8555 108.517 53.5985 108.408 53.2344C108.254 52.8275 108.254 52.4634 108.254 52.0351C108.254 51.5426 108.32 51.1999 108.43 50.8358C108.495 50.4504 108.715 50.1505 108.934 49.8935C109.154 49.5723 109.439 49.4224 109.79 49.2725C110.142 49.0583 110.537 49.0369 110.998 49.0369C111.195 48.9726 111.437 49.0583 111.612 49.1011C111.766 49.1226 111.963 49.1868 112.095 49.2296C112.205 49.2296 112.336 49.3367 112.446 49.401C112.534 49.4224 112.6 49.508 112.644 49.5509C112.688 49.5723 112.732 49.658 112.775 49.7222C112.775 49.7222 112.841 49.8507 112.841 49.915C112.775 49.9578 112.797 50.1505 112.71 50.2576C112.6 50.3433 112.534 50.4718 112.424 50.5788C112.293 50.4503 112.271 50.4503 112.183 50.3647C112.029 50.3004 112.007 50.2362 111.897 50.1719C111.744 50.1077 111.678 50.0649 111.524 50.0434C111.327 49.9792 111.239 49.9792 111.063 49.9792C110.712 49.9578 110.515 50.0434 110.317 50.1505C110.098 50.2576 109.944 50.4289 109.834 50.6217C109.703 50.793 109.615 51.0286 109.571 51.2642C109.439 51.4783 109.483 51.7567 109.483 52.0137C109.439 52.2279 109.505 52.5491 109.571 52.7847C109.549 52.9988 109.703 53.2558 109.834 53.4486C109.944 53.5985 110.12 53.7912 110.339 53.8983C110.515 53.9626 110.8 54.0696 111.129 54.0696C111.283 54.0482 111.437 54.0482 111.568 54.0054C111.7 53.9626 111.832 53.9197 111.941 53.8555C111.985 53.7698 112.139 53.727 112.205 53.6842C112.205 53.5771 112.358 53.5771 112.402 53.5128C112.38 53.4914 112.468 53.5985 112.534 53.6627C112.556 53.6842 112.622 53.7698 112.666 53.8341C112.71 53.8769 112.732 53.9626 112.775 54.0268C112.775 54.0696 112.819 54.1553 112.819 54.1981C112.775 54.2624 112.797 54.3266 112.775 54.3909C112.71 54.3909 112.688 54.498 112.644 54.5622Z" fill="#17140F"/>
<path d="M117.343 51.9924C117.321 51.6711 117.321 51.457 117.277 51.2214C117.234 50.9644 117.146 50.7502 117.036 50.5789C116.86 50.3862 116.795 50.2362 116.619 50.1506C116.443 50.0435 116.224 49.9793 115.982 49.9793C115.719 49.9578 115.5 50.0435 115.302 50.1506C115.126 50.2577 114.973 50.4076 114.863 50.5789C114.753 50.7716 114.666 50.9858 114.622 51.2214C114.512 51.457 114.556 51.7139 114.556 51.9924C114.512 52.2065 114.578 52.5278 114.622 52.7847C114.6 53.0203 114.753 53.2559 114.863 53.4486C114.973 53.62 115.126 53.7913 115.302 53.9198C115.412 53.984 115.697 54.0911 115.961 54.0911C116.224 54.0697 116.443 54.0269 116.619 53.9198C116.795 53.7699 116.948 53.6628 117.036 53.4486C117.08 53.2131 117.212 53.0417 117.277 52.7847C117.321 52.5063 117.343 52.2708 117.343 51.9924ZM118.573 51.9924C118.507 52.3564 118.529 52.7847 118.419 53.1702C118.287 53.5343 118.155 53.8555 117.958 54.134C117.738 54.3695 117.475 54.6265 117.124 54.7979C116.751 54.9049 116.378 55.0334 115.917 55.0334C115.39 54.9692 115.039 54.9478 114.709 54.7979C114.358 54.5837 114.117 54.4124 113.897 54.134C113.634 53.8127 113.546 53.5343 113.436 53.1702C113.305 52.8062 113.305 52.4207 113.305 52.0138C113.305 51.564 113.349 51.2428 113.458 50.8787C113.502 50.4932 113.722 50.1934 113.941 49.9364C114.095 49.5938 114.446 49.4439 114.775 49.2939C115.061 49.0584 115.5 49.0584 115.982 49.0584C116.421 48.9941 116.839 49.144 117.168 49.2939C117.453 49.3796 117.76 49.658 117.98 49.915C118.177 50.1292 118.331 50.4932 118.441 50.8573C118.507 51.1785 118.573 51.5854 118.573 51.9924Z" fill="#17140F"/>
<path d="M120.502 50.065H118.68C118.636 49.9579 118.658 49.9365 118.658 49.8937C118.636 49.7866 118.658 49.7866 118.658 49.7223C118.636 49.5724 118.724 49.4439 118.834 49.3154C118.944 49.1869 119.141 49.1227 119.404 49.1227H123.531C123.509 49.2298 123.553 49.3583 123.553 49.4868C123.509 49.4868 123.531 49.6367 123.509 49.7009C123.443 49.7009 123.443 49.8294 123.377 49.8937C123.246 49.8937 123.246 50.0007 123.158 50.0222C123.004 50.0222 122.96 50.065 122.829 50.065H121.731V54.8622H120.502V50.065Z" fill="#17140F"/>
</g>
<defs>
<clipPath id="clip0_1448_5931">
<rect y="0.10144" width="168" height="85" rx="5" fill="white"/>
</clipPath>
</defs>
</svg>
