<svg width="96" height="79" viewBox="0 0 96 79" fill="none" xmlns="http://www.w3.org/2000/svg">
<path d="M18.543 46.8554C18.6939 45.819 18.8071 44.7759 19.0046 43.7484C20.7312 34.7914 25.5359 27.9915 33.3878 23.3554C36.1951 21.6976 39.2311 20.6213 42.4269 19.9888C43.2591 19.8245 43.8805 20.1508 44.0447 20.861C44.1957 21.509 43.7562 22.0927 42.9395 22.2547C38.3878 23.1623 34.2888 25.0443 30.7202 28.0159C25.8089 32.1083 22.6553 37.2903 21.4214 43.5687C19.91 51.2474 21.3903 58.3557 25.9554 64.714C30.243 70.6861 36.0642 74.3679 43.3346 75.6306C56.8744 77.9831 69.9904 69.9648 73.9429 56.8444C78.5457 41.5735 69.2736 25.81 53.6587 22.3834C53.3968 22.3257 53.1327 22.2879 52.8708 22.2325C52.1451 22.0816 51.7079 21.5334 51.8011 20.9031C51.9032 20.2218 52.4736 19.7757 53.2437 19.9577C54.8771 20.3394 56.546 20.6701 58.1017 21.2715C67.4915 24.9089 73.6988 31.5557 76.4063 41.2695C80.8427 57.1973 70.9225 73.8064 54.8327 77.5747C39.0314 81.2765 23.3455 71.7669 19.4041 56.0632C19.0334 54.5874 18.9003 53.0494 18.6539 51.5425C18.6295 51.3961 18.5807 51.254 18.543 51.1098V46.8554Z" fill="#009819"/>
<path d="M48.3338 19.4806C48.4425 19.5561 48.5535 19.6271 48.6578 19.707C49.217 20.1331 49.3102 20.8566 48.8775 21.3692C48.4558 21.8686 47.6635 21.9129 47.1864 21.4624C46.7115 21.0164 46.7203 20.2374 47.2064 19.7736C47.3129 19.6737 47.4216 19.576 47.5304 19.4784H48.3338V19.4806Z" fill="#009819"/>
<path d="M64.1422 34.3697C62.8173 35.7612 61.6388 37.0461 60.4116 38.2801C58.2189 40.4794 56.0063 42.6565 53.7804 44.8225C53.4319 45.1621 53.3099 45.5038 53.3121 45.9788C53.3276 50.8856 53.3276 55.7924 53.3188 60.6993C53.3143 63.3913 51.9073 65.433 49.5504 66.2097C46.075 67.3549 42.4376 64.7938 42.3688 61.1365C42.3422 59.7006 42.3622 58.2625 42.3622 56.8244C42.3622 56.6402 42.3622 56.4582 42.3622 56.0942C39.395 59.1746 36.5432 62.1329 33.647 65.14C34.0243 65.4441 34.5836 65.9257 35.1761 66.3629C37.5308 68.0939 40.1296 69.3123 42.9769 69.9847C43.5184 70.1112 43.9489 70.3642 44.0643 70.9479C44.233 71.7979 43.5273 72.4703 42.6307 72.2861C40.711 71.8911 38.8757 71.2231 37.1491 70.3065C30.0651 66.5449 25.6976 60.7148 24.346 52.8141C22.1645 40.0666 30.7708 27.7784 43.4141 25.3772C56.0352 22.9803 68.4587 31.0985 71.3482 43.633C74.2888 56.385 66.3193 69.2235 53.5829 72.2528C52.6885 72.4659 52.0626 72.173 51.8918 71.465C51.7186 70.7504 52.1137 70.1934 52.9659 69.9958C55.3339 69.4432 57.5576 68.5289 59.5882 67.1973C65.1142 63.5777 68.4609 58.5088 69.393 51.9575C70.3051 45.5615 68.5763 39.8735 64.4662 34.9001C64.3797 34.7958 64.3242 34.6693 64.1422 34.3697ZM53.3254 41.8686C53.3787 41.8931 53.4297 41.9175 53.483 41.9419C56.428 38.8837 59.373 35.8233 62.3157 32.7674C54.9854 25.7589 41.5055 24.7602 32.6506 33.6773C23.7046 42.6853 25.0407 56.0144 31.8139 63.2248C31.8827 63.1671 31.9604 63.1138 32.0247 63.0495C35.3803 59.7383 38.7403 56.4316 42.0803 53.1049C42.2534 52.934 42.3444 52.6033 42.3444 52.3481C42.3599 48.3223 42.3555 44.2988 42.3555 40.2752V38.5064C42.2601 38.4532 42.1957 38.4088 42.1247 38.3799C40.3004 37.6165 39.3639 35.9942 39.7323 34.2321C40.0963 32.4944 41.5921 31.347 43.5117 31.347C46.4057 31.3448 49.2996 31.3404 52.1936 31.3537C52.6086 31.3559 53.0391 31.4069 53.4364 31.5223C54.8989 31.9396 55.9264 33.2556 56.0196 34.7692C56.1106 36.2494 55.2118 37.6764 53.8114 38.2912C53.6339 38.3688 53.3476 38.5064 53.3432 38.6241C53.3121 39.7048 53.3254 40.7879 53.3254 41.8686ZM50.9619 47.6676C50.8465 47.7608 50.7888 47.7986 50.7399 47.8452C48.8025 49.756 46.8606 51.6623 44.941 53.5909C44.779 53.7529 44.6991 54.0614 44.6968 54.3033C44.6791 56.4493 44.6813 58.5954 44.6902 60.7414C44.6924 61.1032 44.7168 61.4738 44.8056 61.8222C45.1962 63.3602 46.652 64.2989 48.3165 64.1147C49.779 63.9527 50.9774 62.6012 50.9819 61.0588C50.9929 56.729 50.9863 52.3969 50.9863 48.0671C50.9863 47.9606 50.973 47.854 50.9619 47.6676ZM47.8416 33.6995C46.4057 33.6995 44.9676 33.6861 43.5317 33.7106C43.201 33.7172 42.8304 33.7794 42.5552 33.9436C42.0692 34.2365 41.9005 34.7314 42.047 35.2907C42.2068 35.8988 42.6973 36.2494 43.4474 36.2516C46.3791 36.2627 49.3107 36.265 52.2424 36.2516C53.1301 36.2472 53.6872 35.7124 53.6783 34.9489C53.6716 34.1788 53.1301 33.7083 52.2113 33.7017C50.7533 33.695 49.2974 33.7017 47.8416 33.6995ZM44.7346 38.6019V41.3826C46.2304 41.123 47.5109 41.6223 48.8136 42.1682C49.4461 42.4346 50.2073 42.3902 50.9597 42.4945V38.6019H44.7346ZM50.1918 44.7914C49.1154 44.8292 47.9725 44.3942 46.8318 43.8882C46.3813 43.6885 45.8331 43.6751 45.3249 43.6463C44.8921 43.6219 44.6502 43.8083 44.6702 44.3343C44.7146 45.5371 44.6835 46.7444 44.6835 47.9495C44.6835 48.764 44.6835 49.5784 44.6835 50.475C46.5921 48.5065 48.4297 46.6113 50.1918 44.7914Z" fill="#009819"/>
<path d="M49.1391 71.7115C49.1502 72.3595 48.6952 72.8522 48.0627 72.8744C47.388 72.8988 46.8643 72.4305 46.8443 71.7891C46.8244 71.15 47.3281 70.5952 47.954 70.5708C48.5754 70.5463 49.128 71.0767 49.1391 71.7115Z" fill="#009819"/>
<path d="M10.0707 39.1081L11.895 39.4454C12.4343 39.563 12.9003 39.7627 13.2798 40.0379C13.6105 40.2665 13.9079 40.5839 14.112 40.9944C14.334 41.4094 14.4072 41.9265 14.2874 42.5768C14.1675 43.227 13.9101 43.702 13.555 44.0104C13.2177 44.3211 12.8315 44.492 12.4387 44.5897C11.986 44.7117 11.4777 44.7295 10.934 44.6474L3.11104 43.2004C2.58951 43.085 2.12346 42.8875 1.74397 42.6101C1.41329 42.3815 1.09372 42.0797 0.889542 41.6669C0.685368 41.2563 0.598816 40.717 0.718657 40.0668C0.838498 39.4165 1.10925 38.9616 1.44658 38.6509C1.78391 38.3402 2.19226 38.1538 2.58286 38.0583C3.03559 37.9363 3.5438 37.9185 4.06977 37.9984L5.89403 38.3357L5.55669 40.16L3.73244 39.8227C3.3707 39.7561 3.10217 39.8005 2.84695 39.958C2.74042 40.0313 2.65609 40.1844 2.61836 40.3819C2.554 40.7259 2.77815 40.9345 2.99564 41.0677C3.13102 41.1476 3.28859 41.1964 3.46613 41.2474L11.2891 42.6944C11.6708 42.7455 11.9438 42.6855 12.1768 42.5413C12.2833 42.468 12.361 42.3504 12.3921 42.1884C12.4698 41.7734 12.2811 41.5692 12.0281 41.4294C11.9127 41.3517 11.7529 41.3029 11.5532 41.2674L9.72895 40.9301L10.0707 39.1081Z" fill="#009819"/>
<path d="M13.9554 33.6285C14.2483 33.7372 14.9252 34.0235 15.409 34.5739C15.9105 35.1287 16.2168 35.9476 15.804 37.0684C15.3801 38.2246 14.63 38.613 13.8888 38.7128C13.1653 38.8194 12.4618 38.5997 12.1688 38.4931L4.9606 35.8455C4.53006 35.688 3.75997 35.3861 3.24288 34.8224C2.74132 34.2676 2.42396 33.4842 2.8545 32.3102C3.28504 31.1384 4.03516 30.7478 4.7764 30.648C5.5354 30.5548 6.31658 30.8233 6.74934 30.9809L7.54385 31.2716L6.86031 33.1336C6.01476 32.8229 5.45772 32.6387 5.10486 32.5876C4.75199 32.5366 4.5811 32.6298 4.47902 32.905C4.3969 33.1291 4.44351 33.3222 4.64324 33.4731C4.83632 33.6418 5.16921 33.8038 5.6508 33.9813L7.91003 34.8113C7.84123 34.4141 7.82126 34.0945 7.9411 33.7661C8.29618 32.8007 8.98638 32.4656 9.6566 32.399C10.3268 32.3324 11.0303 32.5499 11.3743 32.6764L13.9554 33.6285ZM13.405 36.8331C13.5603 36.8908 14.0242 36.9041 14.1839 36.4736C14.3304 36.0763 13.9798 35.7523 13.8244 35.6946L10.0294 34.3009C9.87409 34.2432 9.39695 34.2654 9.25048 34.6604C9.104 35.0577 9.37476 35.3329 9.55896 35.4194L13.405 36.8331Z" fill="#009819"/>
<path d="M7.26953 23.5575L7.99302 22.2992L18.4458 33.8683L17.6935 35.1733L7.26953 23.5575Z" fill="#009819"/>
<path d="M19.6368 21.9106L21.0661 23.0957C21.4788 23.4619 21.7895 23.8636 21.9871 24.2875C22.1646 24.6492 22.2689 25.0709 22.2467 25.5281C22.2378 25.9985 22.0492 26.4868 21.6275 26.995C21.2059 27.5054 20.7509 27.7962 20.2893 27.8916C19.8432 27.9981 19.4216 27.9604 19.0332 27.8516C18.5782 27.7385 18.1255 27.5054 17.6905 27.1681L11.5653 22.0926C11.1658 21.7375 10.8551 21.338 10.6598 20.9119C10.4823 20.5502 10.3514 20.133 10.3735 19.6736C10.3957 19.2142 10.5822 18.7015 11.0038 18.1911C11.4255 17.6829 11.8849 17.4166 12.331 17.31C12.777 17.2035 13.2253 17.239 13.6137 17.3456C14.0687 17.4587 14.5192 17.6918 14.9431 18.018L16.3723 19.2031L15.1894 20.6323L13.7602 19.4472C13.4761 19.212 13.2209 19.1188 12.9213 19.1343C12.7926 19.1454 12.6439 19.2386 12.5152 19.394C12.2932 19.6625 12.3842 19.9532 12.5107 20.1774C12.5884 20.3127 12.7038 20.4326 12.8347 20.5635L18.9622 25.639C19.2707 25.872 19.5392 25.9497 19.8122 25.9386C19.9409 25.9275 20.0652 25.8632 20.1717 25.7344C20.4402 25.4082 20.3781 25.1419 20.2227 24.8933C20.1584 24.7691 20.043 24.6492 19.8876 24.5205L18.4584 23.3376L19.6368 21.9106Z" fill="#009819"/>
<path d="M25.6122 18.9325C25.6965 19.0301 25.9229 19.3208 26.1404 19.7137C26.3712 20.122 26.5398 20.6546 26.5132 21.2139C26.4843 21.7709 26.2447 22.3923 25.5922 22.956C24.9397 23.5197 24.2895 23.6684 23.7324 23.6152C23.1754 23.5619 22.6738 23.3156 22.3032 23.0293C21.9459 22.7563 21.6907 22.49 21.6064 22.3923L20.5744 21.1961C19.9131 20.4305 19.518 19.4385 19.6112 18.5086C18.7568 18.4464 17.9068 17.9404 17.2943 17.2325L16.5486 16.3714C16.4399 16.2471 15.9738 15.679 15.7807 14.9466C15.5877 14.2143 15.6254 13.3332 16.5708 12.5165C17.5162 11.6998 18.4084 11.7775 19.103 12.0771C19.7976 12.3745 20.277 12.9315 20.3858 13.0558L21.1314 13.9169C21.744 14.6271 22.119 15.5392 22.0569 16.3936C22.9912 16.4358 23.9166 16.9728 24.578 17.7363L25.6122 18.9325ZM19.3715 14.8534C18.9632 14.3807 18.6347 14.0567 18.3884 13.857C18.1287 13.6683 17.9068 13.6661 17.7137 13.8348C17.5473 13.979 17.5207 14.1721 17.6449 14.4295C17.8669 14.94 19.0431 16.3292 19.5735 16.7198C19.8309 16.9351 20.064 16.9506 20.2593 16.7842C20.4546 16.6178 20.4701 16.3825 20.3103 16.0851C20.1483 15.8099 19.8398 15.3971 19.3715 14.8534ZM23.637 19.596C23.1088 18.9835 22.6849 18.5485 22.3898 18.2933C22.0813 18.0492 21.7972 18.0292 21.5331 18.2578C21.269 18.4864 21.2491 18.7705 21.4599 19.0989C21.8638 19.7935 23.1643 21.2694 23.6858 21.5934C23.9588 21.7709 24.194 21.7621 24.4027 21.5801C24.6668 21.3515 24.7 21.0807 24.5269 20.7678C24.3405 20.4682 24.0454 20.0687 23.637 19.596Z" fill="#009819"/>
<path d="M32.7456 12.8361L33.5867 14.4916C33.8197 14.991 33.9462 15.4837 33.9573 15.9519C33.9773 16.3536 33.9063 16.7819 33.7021 17.1947C33.5068 17.6231 33.1406 17.9959 32.5503 18.2955C31.96 18.5951 31.4274 18.6817 30.9657 18.5862C30.513 18.5063 30.1424 18.3044 29.8295 18.0514C29.4589 17.7673 29.1348 17.3745 28.8685 16.8907L25.2644 9.79786C25.0403 9.31406 24.9138 8.82138 24.9027 8.35311C24.8827 7.95142 24.9293 7.51422 25.1335 7.10144C25.3354 6.68865 25.7105 6.29362 26.3008 5.99401C26.8911 5.69441 27.4149 5.63449 27.8676 5.71217C28.3204 5.78984 28.7154 6.00289 29.0305 6.25589C29.4012 6.53996 29.7252 6.93277 29.9826 7.40104L30.8237 9.05662L29.1703 9.89773L28.3292 8.24437C28.1628 7.91591 27.9631 7.72949 27.6834 7.62297C27.5591 7.58302 27.3883 7.60743 27.2063 7.70064C26.8956 7.85821 26.8645 8.16225 26.8911 8.41747C26.9089 8.57282 26.9666 8.72817 27.0332 8.90128L30.6373 15.9941C30.8282 16.3292 31.0434 16.509 31.2986 16.6066C31.4229 16.6466 31.5627 16.6377 31.7092 16.5622C32.0865 16.3714 32.1331 16.0984 32.0909 15.8121C32.082 15.6723 32.0243 15.517 31.9311 15.3372L31.09 13.6838L32.7456 12.8361Z" fill="#009819"/>
<path d="M37.1234 10.0753L35.6454 10.5191L37.3365 16.1517L35.4367 16.722L31.5508 3.78806L33.4527 3.2177L35.0595 8.56617L36.5375 8.12232L34.9307 2.77385L36.8305 2.20349L40.7164 15.1353L38.8145 15.7078L37.1234 10.0753Z" fill="#009819"/>
<path d="M39.9844 1.59551L44.4873 1.03625L44.7381 3.06024L42.2037 3.37538L42.6409 6.89294L44.4651 6.66657L44.7314 8.81928L42.9072 9.04565L43.3643 12.7297L45.8988 12.4145L46.1495 14.4385L41.6466 14.9978L39.9844 1.59551Z" fill="#009819"/>
<path d="M49.9386 14.5271L49.2462 5.97179L49.2106 5.39921L49.1019 5.39034L48.4894 14.4295L46.6562 14.3052L47.5684 0.829712L49.9874 0.993938L50.7442 7.23456L50.7886 7.95583L50.8241 7.95805L50.9639 7.24788L52.5551 1.16704L54.9741 1.33127L54.0642 14.8068L52.2311 14.6825L52.8414 5.64334L52.7304 5.63668L52.6195 6.20038L50.7819 14.5848L49.9386 14.5271Z" fill="#009819"/>
<path d="M58.0759 2.02433L54.9766 15.1681L56.9076 15.6234L60.0069 2.47966L58.0759 2.02433Z" fill="#009819"/>
<path d="M64.4116 13.3421L63.7525 15.0776C63.5394 15.5858 63.2598 16.0119 62.9225 16.3337C62.6384 16.6178 62.2722 16.853 61.8328 16.9818C61.3845 17.126 60.863 17.1038 60.2438 16.8708C59.6246 16.6356 59.2029 16.2982 58.9633 15.8943C58.7169 15.5059 58.6171 15.0954 58.5926 14.6937C58.5527 14.2276 58.6259 13.7239 58.8057 13.2023L61.6286 5.76329C61.835 5.27283 62.1146 4.84673 62.452 4.52271C62.736 4.23864 63.0911 3.97899 63.5328 3.85249C63.9744 3.72599 64.5203 3.73709 65.1395 3.97011C65.7587 4.20535 66.156 4.55156 66.4023 4.93994C66.6486 5.32831 66.7574 5.76329 66.7818 6.16498C66.8217 6.63103 66.7485 7.13481 66.5754 7.63858L65.9163 9.37406L64.1808 8.71494L64.8399 6.97946C64.9709 6.63547 64.9753 6.3625 64.8643 6.08509C64.8111 5.96746 64.6757 5.8565 64.4871 5.78548C64.1608 5.6612 63.9145 5.84318 63.7436 6.03404C63.6393 6.15166 63.5638 6.30036 63.4817 6.46458L60.6588 13.9036C60.539 14.2698 60.5501 14.5517 60.6499 14.8046C60.7032 14.9223 60.803 15.0199 60.9584 15.0798C61.3534 15.2308 61.5865 15.0821 61.7707 14.8579C61.8683 14.758 61.9438 14.6094 62.0148 14.4207L62.6739 12.6852L64.4116 13.3421Z" fill="#009819"/>
<path d="M62.8711 17.6719L71.5529 7.12805L73.6346 8.37307L68.4526 21.0119L66.797 20.0221L67.8956 17.4677L66.2555 16.4868L64.5245 18.6639L62.8711 17.6719ZM70.4344 11.5755L70.5654 11.247L70.4699 11.1916L70.2436 11.4623L67.5671 14.829L68.7344 15.5258L70.4344 11.5755Z" fill="#009819"/>
<path d="M77.4461 11.0206L78.9597 12.3034L71.4274 21.2116L73.4337 22.9071L72.2486 24.3119L68.7266 21.3336L77.4461 11.0206Z" fill="#009819"/>
<path d="M86.2207 23.3243L84.5651 21.145L81.74 23.2888L82.8519 24.7513L81.2273 25.9852L80.1177 24.5227L75.435 28.078L74.2344 26.4957L84.989 18.3309L87.8452 22.0904L86.2207 23.3243Z" fill="#009819"/>
<path d="M78.9083 33.6507L83.4579 30.071L83.2071 29.6005L78.176 32.2703L77.2461 30.517L89.177 24.1854L90.1068 25.9387C91.2187 28.0314 90.5063 29.5539 88.2515 30.7523C87.0664 31.3803 85.8325 31.6422 85.0247 31.2183L79.8404 35.4061L78.9083 33.6507ZM84.8294 28.7394C84.9581 28.9835 85.1623 29.2898 85.5285 29.4296C85.8924 29.5694 86.4428 29.5472 87.2884 29.0989C88.1317 28.6506 88.4757 28.1979 88.5644 27.8184C88.6532 27.4389 88.4979 27.1038 88.3691 26.8619L84.8294 28.7394Z" fill="#009819"/>
<path d="M92.8047 31.6688L94.2495 35.972L92.3165 36.62L91.5042 34.1988L88.142 35.3284L88.7279 37.0706L86.6728 37.7608L86.087 36.0208L82.5694 37.2015L83.3817 39.6227L81.4487 40.273L80.0039 35.9698L92.8047 31.6688Z" fill="#009819"/>
<path d="M94.8827 38.5575L95.6639 43.0294L93.6555 43.3822L93.2138 40.8656L89.7207 41.4781L90.038 43.2868L87.9031 43.6618L87.5857 41.8509L83.9306 42.4923L84.37 45.0067L82.3615 45.3596L81.5781 40.8877L94.8827 38.5575Z" fill="#009819"/>
</svg>
