<svg width="143" height="66" viewBox="0 0 143 66" fill="none" xmlns="http://www.w3.org/2000/svg">
<g clip-path="url(#clip0_1448_6108)">
<path d="M67.8098 27.4171C67.8098 27.4171 67.6011 27.0977 67.2071 26.494C67.0042 26.1979 66.7492 25.8321 66.4537 25.4083C66.1407 24.9903 65.7988 24.5026 65.3816 23.9801C64.5586 22.9235 63.5039 21.6985 62.1884 20.398C60.8729 19.0976 59.2676 17.7623 57.3842 16.5199C56.4454 15.8987 55.4138 15.3239 54.3301 14.7898C53.2406 14.2615 52.0931 13.768 50.8704 13.3674C48.4364 12.5604 45.759 12.0495 42.9657 11.916C40.1782 11.7883 37.2516 12.0147 34.3946 12.6127C31.5433 13.2165 28.7327 14.2847 26.148 15.7419C23.5517 17.1817 21.1699 19.0105 19.1184 21.1063C17.0727 23.2022 15.3168 25.5302 13.9549 27.9744C12.593 30.4186 11.5846 32.9731 10.924 35.4405C10.5879 36.7409 10.3503 37.9195 10.1706 39.1387C10.0721 39.7424 10.0199 40.3346 9.95039 40.921C9.91562 41.5074 9.84608 42.0821 9.84028 42.6511C9.75336 44.9153 9.88085 46.9995 10.13 48.8341C10.385 50.6687 10.7443 52.2478 11.092 53.5367C11.4687 54.8197 11.7991 55.8241 12.0541 56.4917C12.3148 57.1652 12.4539 57.5193 12.4539 57.5193C12.4539 57.5193 12.2801 57.1768 11.9555 56.5324C11.6368 55.8821 11.1906 54.9242 10.7212 53.6528C10.2633 52.3813 9.76495 50.808 9.38826 48.956C9.00577 47.104 8.7276 44.9675 8.71022 42.6278C8.68704 42.0415 8.7276 41.4435 8.7334 40.8339C8.77396 40.2243 8.79715 39.6031 8.86669 38.9761C8.98259 37.7279 9.2144 36.381 9.49257 35.1153C10.0953 32.4622 11.0341 29.7567 12.4307 27.1442C13.8216 24.5375 15.5833 22.0062 17.7565 19.7768C19.9182 17.5417 22.4333 15.5735 25.1918 14.0234C27.9619 12.4907 30.958 11.3819 34.0121 10.7549C34.3946 10.6852 34.7945 10.5981 35.1653 10.54C35.5478 10.482 35.8839 10.4297 36.3012 10.3775C36.6837 10.3369 37.0604 10.2962 37.4429 10.2556C37.8195 10.2207 38.202 10.1975 38.5787 10.1743C40.0913 10.0872 41.5922 10.093 43.0642 10.1975C46.014 10.3833 48.8246 11.0509 51.3514 11.9973C53.8897 12.9378 56.1208 14.2208 58.0159 15.6026C59.9109 16.9843 61.4698 18.4706 62.7274 19.8871C63.9907 21.2979 64.9527 22.6332 65.6945 23.7595C66.4479 24.88 66.9463 25.8205 67.294 26.4475C67.6359 27.0745 67.8098 27.4171 67.8098 27.4171Z" fill="#6FC2D7"/>
<path d="M44.3151 30.4359C44.3151 30.4359 44.5933 30.2443 45.1148 29.8786C45.6364 29.5128 46.3898 28.9671 47.3344 28.253C48.2732 27.5331 49.4033 26.6506 50.6493 25.5766C51.901 24.5142 53.2687 23.2601 54.648 21.8145C55.3318 21.0888 56.0156 20.2993 56.6241 19.4574C56.9255 19.0394 57.2036 18.5866 57.3717 18.157C57.4528 17.948 57.4934 17.7332 57.476 17.6461C57.4702 17.6287 57.4702 17.6171 57.4702 17.6113C57.4818 17.6287 57.4528 17.5764 57.4934 17.6461L57.4818 17.6229L57.4239 17.53C57.4123 17.5242 57.3659 17.4661 57.3022 17.4255C57.0414 17.2281 56.5314 17.0945 55.9982 17.0597C55.4593 17.0249 54.8856 17.0307 54.3003 17.0771C53.1296 17.17 51.9126 17.3616 50.684 17.6054C48.2153 18.0931 45.6828 18.8014 43.185 19.7245C40.6873 20.6476 38.2012 21.7507 35.8019 23.0047C33.3853 24.2297 31.0441 25.5882 28.7376 26.9177C26.4369 28.253 24.1941 29.5941 22.0847 30.9875C19.981 32.3866 17.9759 33.7742 16.1504 35.1675C15.2347 35.8584 14.3655 36.5609 13.5657 37.275C12.7602 37.9775 12.0126 38.6915 11.3925 39.4289C11.0854 39.7946 10.8014 40.1662 10.5812 40.5377C10.361 40.9035 10.2103 41.2809 10.1871 41.5711C10.1755 41.7105 10.2045 41.8324 10.2393 41.9137L10.2798 41.9892C10.2914 42.0066 10.2914 42.0008 10.2972 42.0124C10.2972 42.0182 10.3204 42.0414 10.3378 42.0646C10.3784 42.1111 10.4305 42.1575 10.4885 42.1982C10.7319 42.3723 11.097 42.4826 11.4621 42.5465C12.2039 42.6684 12.963 42.6568 13.6584 42.622C14.3539 42.5813 15.0029 42.5001 15.5825 42.4246C16.7473 42.2678 17.6629 42.0762 18.283 41.9543C18.9089 41.8266 19.2392 41.7569 19.2392 41.7569L19.2914 41.8963C19.2914 41.8963 18.9727 42.0124 18.37 42.233C17.7673 42.442 16.8748 42.7381 15.71 43.0458C15.1304 43.2025 14.4756 43.3419 13.7512 43.458C13.0268 43.5741 12.227 43.6612 11.323 43.5857C10.871 43.5393 10.3842 43.4638 9.87418 43.1735C9.74668 43.1038 9.61919 43.011 9.50328 42.9006C9.44533 42.8484 9.38738 42.7903 9.32363 42.7091L9.2367 42.5929L9.19034 42.5233C8.9991 42.2156 8.92376 41.8672 8.91797 41.5479C8.92376 40.8977 9.13819 40.3636 9.38159 39.8817C9.63078 39.394 9.93213 38.9528 10.2625 38.5232C11.578 36.8221 13.2702 35.3301 15.1188 33.8496C16.9791 32.3808 19.0306 30.9758 21.2212 29.6347C23.4118 28.2994 25.7067 26.9758 28.0943 25.7508C30.4819 24.52 32.9797 23.4169 35.4832 22.337C37.9983 21.2862 40.5077 20.2412 42.9938 19.2484C45.4857 18.2673 47.9429 17.2919 50.4175 16.5488C51.6576 16.1889 52.8978 15.8754 54.1612 15.7244C54.7928 15.6489 55.4361 15.6025 56.091 15.6489C56.4213 15.6722 56.7516 15.7128 57.0993 15.8057C57.4413 15.8986 57.8006 16.0263 58.1425 16.2876C58.3105 16.4211 58.467 16.572 58.6177 16.8043L58.6698 16.8972L58.6988 16.9378C58.751 17.0307 58.7278 16.99 58.7394 17.0249L58.7799 17.1236C58.8263 17.2571 58.8553 17.3848 58.8669 17.5126C58.9016 18.0002 58.7742 18.3544 58.6525 18.6737C58.3917 19.2949 58.0555 19.7884 57.7136 20.2586C57.0298 21.1875 56.2706 21.9713 55.5346 22.697C54.0569 24.1542 52.5733 25.327 51.2462 26.3313C49.9017 27.3241 48.6905 28.1311 47.6705 28.7523C46.6506 29.3793 45.8277 29.8321 45.2597 30.1282C44.6918 30.4185 44.3847 30.5695 44.3847 30.5695L44.3151 30.4359Z" fill="#6FC2D7"/>
<path d="M40.6318 12.2468C40.6318 12.2468 40.6492 12.2991 40.6898 12.392C40.7246 12.4907 40.7651 12.6648 40.7709 12.868C40.7825 13.2918 40.6145 13.9014 40.2262 14.5633C40.0349 14.8942 39.7973 15.2542 39.525 15.6257C39.241 15.9915 38.9223 16.3746 38.563 16.7752C37.8386 17.5648 36.9519 18.395 35.903 19.1904C34.8482 19.9799 33.6254 20.7173 32.2694 21.3559C30.9075 22.0003 29.4123 22.517 27.836 22.9524C26.2597 23.3879 24.6255 23.7652 22.9333 24.0265C22.5102 24.0962 22.0814 24.1368 21.6467 24.1658C21.2121 24.2007 20.7717 24.2181 20.3312 24.1832C19.885 24.16 19.433 24.102 18.9751 23.9336C18.5231 23.7652 18.0595 23.5156 17.7581 22.935C17.6654 22.8015 17.5611 22.4125 17.5553 22.1629C17.5495 21.89 17.5843 21.6229 17.648 21.3791C17.7755 20.8856 17.99 20.456 18.2276 20.0554C18.7202 19.2659 19.3229 18.5924 19.9545 17.9828C21.2295 16.7694 22.6203 15.7651 24.017 14.8942C25.4136 14.0176 26.8392 13.3035 28.2243 12.7229C29.6209 12.1423 30.9712 11.6779 32.2578 11.3992C33.5443 11.1031 34.7497 10.9638 35.8218 10.9115C36.355 10.8883 36.8592 10.8883 37.3228 10.9057C37.7864 10.9289 38.2094 10.9754 38.5861 11.0451C39.3453 11.1728 39.919 11.434 40.2378 11.7185C40.3942 11.8579 40.4928 11.9914 40.5507 12.0843C40.6029 12.1946 40.6318 12.241 40.6318 12.2468ZM40.487 12.3107C40.487 12.3107 40.4638 12.2701 40.4116 12.183C40.3595 12.1017 40.2725 11.9856 40.1277 11.8637C39.977 11.7417 39.7684 11.6256 39.5076 11.5269C39.241 11.434 38.9165 11.376 38.5514 11.3411C37.8212 11.2831 36.9171 11.3818 35.9203 11.6198C34.9178 11.852 33.8225 12.2352 32.6402 12.6764C31.4696 13.1351 30.1947 13.6344 28.8907 14.244C27.5752 14.8536 26.2192 15.5328 24.8515 16.305C23.4896 17.0829 22.1219 17.9712 20.8876 19.022C20.5746 19.2833 20.2791 19.5561 19.9951 19.8406C19.7111 20.1193 19.433 20.4154 19.2012 20.7289C18.9635 21.0366 18.7491 21.3617 18.6216 21.6868C18.5521 21.8494 18.5173 22.0119 18.4941 22.1687C18.4941 22.3487 18.471 22.3893 18.5579 22.6389C18.5347 22.5809 18.5521 22.6273 18.5521 22.6215L18.5579 22.6331L18.5695 22.6564L18.5927 22.7086C18.6042 22.7434 18.6332 22.7725 18.6506 22.8073C18.6854 22.877 18.7491 22.9292 18.8013 22.9931C18.9288 23.1034 19.0737 23.2079 19.2417 23.2892C19.5778 23.4517 19.9777 23.5504 20.3834 23.6085C21.1947 23.713 22.0408 23.6723 22.8637 23.5562C24.5154 23.3356 26.0917 22.8015 27.5521 22.1687C29.0066 21.5301 30.3685 20.7985 31.6435 20.1251C32.9184 19.44 34.1122 18.7782 35.2017 18.1454C36.2912 17.5125 37.2822 16.903 38.1051 16.2818C38.9281 15.6664 39.5771 15.0335 40.0002 14.4298C40.2088 14.1279 40.3711 13.8434 40.4696 13.5763C40.5623 13.3093 40.6087 13.0712 40.6087 12.8796C40.6029 12.6823 40.5739 12.5545 40.5449 12.4558C40.5043 12.3513 40.487 12.3049 40.487 12.3107Z" fill="#6FC2D7"/>
<path d="M26.3613 14.5575C26.3613 14.5575 25.9672 14.9233 25.3355 15.6083C25.0168 15.945 24.6517 16.3747 24.2344 16.8681C23.823 17.3616 23.3826 17.9364 22.9131 18.5692C22.4553 19.2136 21.9801 19.9161 21.5165 20.6824C21.0471 21.443 20.6066 22.279 20.1778 23.1498C19.7432 24.0207 19.3897 24.9612 19.0361 25.9075C18.7058 26.8655 18.4103 27.8582 18.2074 28.8684L18.0394 29.6231L17.9177 30.3837C17.8192 30.8888 17.7844 31.3997 17.7322 31.9048C17.7032 32.1544 17.6859 32.4099 17.6801 32.6595C17.6627 32.9091 17.6511 33.1588 17.6337 33.4084C17.6047 33.9077 17.6279 34.4012 17.6221 34.8889C17.6569 35.8584 17.7032 36.8047 17.8134 37.693C17.8423 37.9136 17.8539 38.14 17.8887 38.3548C17.9235 38.5696 17.9582 38.7844 17.993 38.9934C18.0625 39.4115 18.0973 39.8237 18.19 40.2068C18.3581 40.9732 18.4798 41.6989 18.6537 42.3143C18.8217 42.9355 18.9318 43.4928 19.0825 43.9341C19.3491 44.8281 19.4824 45.3506 19.4824 45.3506C19.4824 45.3506 19.2216 44.8862 18.787 44.0444C18.5609 43.6322 18.3349 43.1038 18.0799 42.5001C17.8076 41.9021 17.57 41.1938 17.3092 40.4216C17.1701 40.0385 17.0774 39.6263 16.9557 39.2025C16.834 38.7786 16.7297 38.3374 16.6485 37.873C16.4515 36.9557 16.3124 35.9745 16.2313 34.9469C16.1675 33.9251 16.127 32.8569 16.2139 31.7712C16.2602 31.2313 16.295 30.6856 16.3877 30.1456L16.5094 29.3271L16.6717 28.5143C16.9035 27.4344 17.2396 26.3836 17.6105 25.3676C17.8134 24.8625 17.9988 24.3632 18.2422 23.8872C18.3581 23.6491 18.474 23.4111 18.5841 23.1789C18.7058 22.9467 18.8275 22.7202 18.9492 22.4938C19.1868 22.041 19.4592 21.6114 19.72 21.1933C19.9982 20.787 20.2589 20.3806 20.5487 20.009C21.0934 19.2427 21.6788 18.5808 22.2235 17.977C23.3304 16.7811 24.3735 15.916 25.1327 15.3587C25.8861 14.8071 26.3613 14.5575 26.3613 14.5575Z" fill="#6FC2D7"/>
<path d="M26.2266 14.5286C26.2266 14.5286 26.7134 14.3021 27.6174 14.0293C28.5157 13.7564 29.837 13.4371 31.4538 13.2687C32.2652 13.1874 33.146 13.1178 34.0849 13.141C34.5543 13.1352 35.0353 13.17 35.5279 13.1933C36.0205 13.2339 36.5189 13.2745 37.0288 13.3558C37.2838 13.3965 37.5388 13.4313 37.7996 13.4719C38.0546 13.5184 38.3154 13.5706 38.5761 13.6229C39.0977 13.7158 39.6135 13.8667 40.1351 14.0002C41.1666 14.3137 42.2097 14.6737 43.2123 15.1323L43.9599 15.4865L44.6843 15.8813C45.1711 16.1309 45.6289 16.4328 46.0867 16.7173C47.0024 17.292 47.8311 17.9655 48.6134 18.6331C49.3842 19.3124 50.0854 20.0149 50.6997 20.7174C51.0185 21.0599 51.3082 21.4082 51.5748 21.7624C51.8356 22.1165 52.1138 22.4358 52.3398 22.7784C52.7976 23.446 53.2264 24.0614 53.5394 24.642C53.8697 25.2109 54.1595 25.7044 54.3507 26.134C54.7622 26.9817 54.9766 27.4693 54.9766 27.4693C54.9766 27.4693 54.6405 27.0455 54.0841 26.2966C53.8175 25.9134 53.4409 25.4896 53.041 24.9845C52.6469 24.4736 52.1485 23.9453 51.6328 23.3473C51.3836 23.0454 51.0764 22.7668 50.7809 22.4591C50.636 22.3081 50.4853 22.1514 50.3346 21.9946C50.184 21.8379 50.0159 21.6927 49.8536 21.536C49.2104 20.9148 48.4802 20.311 47.7268 19.7014C47.3327 19.4169 46.956 19.1034 46.5388 18.8247C46.3301 18.6854 46.1215 18.5519 45.9129 18.4125C45.7101 18.2674 45.4956 18.128 45.2754 18.0003C44.8408 17.7391 44.4119 17.4662 43.9483 17.2398L43.2645 16.8856L42.5633 16.5663C41.636 16.1193 40.6682 15.7652 39.7004 15.4516C38.7268 15.1672 37.7648 14.8827 36.8086 14.7143C35.8524 14.5344 34.9252 14.3892 34.0327 14.3079C33.1402 14.2209 32.2941 14.186 31.506 14.1628C30.7178 14.157 29.9992 14.1686 29.356 14.1976C28.7127 14.2383 28.1506 14.2731 27.6927 14.3254C26.7539 14.4299 26.2266 14.5286 26.2266 14.5286Z" fill="#6FC2D7"/>
<path d="M26.88 30.3198C26.88 30.3198 26.6946 30.1282 26.4048 29.7683C26.2599 29.5883 26.0803 29.3793 25.889 29.1239C25.7268 28.8452 25.5355 28.5259 25.3443 28.1659C25.1298 27.806 24.9908 27.3938 24.8285 26.9583C24.7532 26.7377 24.6604 26.5171 24.5967 26.2791C24.5387 26.0411 24.4866 25.7972 24.4286 25.5534C24.3011 25.0599 24.249 24.5374 24.2026 24.0091C24.1273 23.4808 24.1678 22.9408 24.162 22.4009C24.1794 21.861 24.249 21.3269 24.3069 20.8044C24.3533 20.5431 24.3996 20.2877 24.4518 20.0322C24.4982 19.7768 24.5503 19.5271 24.6199 19.2891C24.7474 18.8072 24.8806 18.3428 25.0429 17.9132C25.1878 17.4835 25.3674 17.0888 25.5297 16.723C25.8716 16.0031 26.202 15.4341 26.4627 15.051C26.7177 14.6678 26.8974 14.4646 26.8974 14.4646C26.8974 14.4646 26.8452 14.72 26.7525 15.1729C26.7061 15.3935 26.654 15.6664 26.5902 15.9741C26.5323 16.2818 26.4685 16.6243 26.399 17.0075C26.3352 17.3848 26.2541 17.7854 26.1904 18.2209C26.115 18.6447 26.0571 19.0975 25.9933 19.562C25.918 20.0264 25.8948 20.5083 25.8253 20.9901C25.8021 21.4778 25.7441 21.9713 25.7383 22.459C25.7383 22.9525 25.692 23.4459 25.7325 23.9278C25.7441 24.1658 25.7499 24.4097 25.7557 24.6477C25.7557 24.8857 25.8021 25.1122 25.8195 25.3444C25.8427 25.5766 25.8658 25.7972 25.8774 26.0236C25.9006 26.2443 25.9528 26.4533 25.9817 26.6681C26.0513 27.0861 26.0976 27.4983 26.202 27.8408C26.2889 28.1949 26.3642 28.5375 26.428 28.8452C26.5381 29.1413 26.6192 29.4083 26.6888 29.6289C26.8162 30.0586 26.88 30.3198 26.88 30.3198Z" fill="#6FC2D7"/>
<path d="M40.0913 23.2254C40.0913 23.2254 39.9117 23.0338 39.6161 22.6738C39.4712 22.4939 39.2916 22.279 39.1004 22.0294C38.8801 21.803 38.6367 21.5591 38.3875 21.2921C38.1557 21.0134 37.837 20.7522 37.5241 20.4619C37.3618 20.3225 37.2169 20.16 37.0431 20.0206C36.8634 19.8871 36.6895 19.742 36.5099 19.5968C36.3245 19.4575 36.1622 19.2949 35.9594 19.1672C35.7623 19.0337 35.5653 18.9002 35.3682 18.755C34.9858 18.4647 34.5511 18.2267 34.1397 17.9596C33.7224 17.6984 33.282 17.4778 32.8589 17.2281C32.4185 17.0249 32.0012 16.7753 31.5724 16.5837C31.1493 16.3805 30.7437 16.1831 30.3438 16.0148C29.9497 15.829 29.5672 15.678 29.2195 15.5271C28.866 15.3819 28.5415 15.2426 28.2517 15.1265C27.962 15.0104 27.7012 14.9059 27.4926 14.8246C27.0637 14.6562 26.8203 14.5575 26.8203 14.5575C26.8203 14.5575 27.0869 14.5169 27.5447 14.5169C28.0083 14.5053 28.669 14.5401 29.4571 14.6504C29.8512 14.7143 30.2743 14.7781 30.7147 14.8943C31.1609 14.993 31.6187 15.1323 32.094 15.289C32.3316 15.3587 32.5692 15.4516 32.8068 15.5561C33.0444 15.649 33.2878 15.7535 33.5254 15.858C33.9948 16.0902 34.4816 16.3283 34.9394 16.6069C35.3856 16.9088 35.855 17.1701 36.2607 17.5242C36.678 17.8551 37.0836 18.1803 37.4255 18.5634C37.5994 18.7434 37.779 18.9234 37.9413 19.1034C38.1036 19.2833 38.2427 19.4807 38.3818 19.6665C38.6599 20.0439 38.9265 20.3806 39.1062 20.758C39.3032 21.1179 39.4655 21.4546 39.6103 21.7449C39.7204 22.041 39.8016 22.3081 39.8711 22.5287C40.0276 22.9641 40.0913 23.2254 40.0913 23.2254Z" fill="#6FC2D7"/>
<path d="M27.9488 53.5831C27.9488 53.5831 28.4703 53.914 29.3686 54.5062C29.8206 54.7907 30.3422 55.0868 30.9507 55.4525C31.2462 55.6383 31.6055 55.8009 31.9475 56.0041C32.301 56.1957 32.6603 56.4163 33.0601 56.6021C33.4542 56.7936 33.8657 56.9968 34.2887 57.2175C34.7176 57.4148 35.1638 57.618 35.6216 57.8271C36.0736 58.0477 36.5604 58.2276 37.0414 58.4308C37.2848 58.5295 37.5282 58.6398 37.7832 58.7327C38.0382 58.8256 38.2932 58.9185 38.5482 59.0114C38.8032 59.1101 39.064 59.203 39.3248 59.3017C39.5855 59.3946 39.8521 59.4759 40.1245 59.5629C40.6634 59.7313 41.1966 59.9229 41.753 60.068C42.3035 60.219 42.854 60.399 43.4278 60.5209C43.9957 60.6544 44.552 60.8228 45.1258 60.9215L45.9834 61.0898C46.2674 61.1537 46.5572 61.2117 46.8411 61.2524C47.4149 61.3395 47.9886 61.4556 48.5623 61.5194C49.136 61.5891 49.6982 61.6762 50.2661 61.7284C50.8282 61.7691 51.3904 61.8329 51.9409 61.8794C52.4915 61.8968 53.0362 61.9258 53.5694 61.9607C54.1025 61.9839 54.6241 61.9665 55.1399 61.9839C55.2674 61.9839 55.3949 61.9897 55.5224 61.9897H55.6151H55.6267C55.6614 61.9839 55.5919 61.9955 55.6035 61.9955H55.6267H55.673L55.8643 61.9897C56.1193 61.9839 56.3743 61.9723 56.6235 61.9665C57.116 61.9491 57.6202 61.9607 58.0549 61.92C58.5011 61.891 58.9299 61.8678 59.3356 61.8446C59.7471 61.8329 60.1353 61.7923 60.5062 61.7517C60.8771 61.7168 61.2248 61.682 61.5494 61.653C61.8739 61.6297 62.1695 61.5949 62.436 61.5543C62.975 61.4904 63.398 61.444 63.6878 61.4091C63.9834 61.3801 64.1398 61.3685 64.1398 61.3685C64.1398 61.3685 64.0008 61.444 63.7458 61.5891C63.485 61.7284 63.1025 61.9316 62.6215 62.1871C62.1347 62.4541 61.5146 62.6922 60.8076 62.9941C60.1064 63.3076 59.2603 63.5514 58.3446 63.8533C57.881 64.0043 57.4232 64.0971 56.9364 64.2307C56.693 64.2887 56.4496 64.3468 56.1946 64.4106L56.0034 64.4571L55.957 64.4687L55.9338 64.4745L55.8759 64.4803L55.7774 64.4977C55.6441 64.521 55.5108 64.5442 55.3775 64.5674C54.8385 64.6603 54.2822 64.7648 53.7085 64.8345C53.1347 64.8983 52.5494 64.9622 51.9525 65.0144C51.3556 65.0435 50.7413 65.0783 50.1212 65.0957C49.5011 65.1073 48.8753 65.0783 48.2436 65.0667C46.9802 64.997 45.6937 64.8925 44.4245 64.6719C43.1554 64.4687 41.892 64.1958 40.6692 63.8475C40.055 63.6966 39.458 63.4934 38.8669 63.2902C38.5714 63.1915 38.2816 63.0928 37.9919 62.9883C37.7079 62.878 37.4239 62.7618 37.14 62.6515C36.5778 62.4367 36.0331 62.1987 35.5057 61.9432C34.9841 61.6878 34.4568 61.473 33.9758 61.1943C33.4948 60.9273 33.0196 60.666 32.5675 60.4164C32.1213 60.1493 31.6983 59.8822 31.2926 59.621C30.8811 59.3714 30.5102 59.0927 30.1509 58.843C29.7916 58.5876 29.4555 58.3554 29.1426 58.1057C28.5283 57.6064 27.9662 57.1768 27.5663 56.8111C26.7723 56.0796 26.3203 55.6615 26.3203 55.6615L27.9488 53.5831Z" fill="#008295"/>
<path d="M26.2698 61.7458L28.6516 55.8705L34.5338 53.5076L20.6484 47.8123L26.2698 61.7458Z" fill="#008295"/>
<path d="M73.4537 20.5199C73.4537 20.5199 73.1639 20.1368 72.6191 19.4169C72.48 19.2369 72.3352 19.0279 72.1613 18.8189C71.9875 18.6099 71.802 18.3893 71.5934 18.1454C71.3848 17.9016 71.1761 17.6403 70.9327 17.3675C70.6835 17.1004 70.417 16.8101 70.1388 16.5082C69.0087 15.3123 67.5889 13.9073 65.7982 12.5023C64.0248 11.08 61.9038 9.63435 59.4524 8.32808C57.0011 7.03342 54.2194 5.86068 51.1595 5.07691C50.777 4.97822 50.3945 4.87952 50.0062 4.78083C49.618 4.68213 49.2239 4.61827 48.824 4.53118L48.2271 4.40926L47.9837 4.36282L47.665 4.31637C47.2419 4.25832 46.8131 4.19446 46.3842 4.1364L45.7468 4.04931C45.5265 4.01448 45.3121 3.99126 45.1151 3.97965C44.7094 3.95062 44.3038 3.92159 43.8923 3.89256C43.4808 3.86934 43.081 3.81128 42.6521 3.81709C42.2291 3.81709 41.8002 3.81709 41.3714 3.81128C37.9464 3.82289 34.4055 4.27573 30.9458 5.24528C27.4745 6.18579 24.1017 7.67204 20.9954 9.57629C17.8892 11.4922 15.0438 13.826 12.6387 16.4966L12.1809 16.9901L12.065 17.112L12.0071 17.1759L11.9781 17.2049C11.9317 17.2572 12.0071 17.1643 11.9897 17.1875L11.7695 17.4662C11.4739 17.8319 11.1783 18.1977 10.8886 18.5634L10.4482 19.1092C10.2975 19.2891 10.1932 19.4691 10.0657 19.6433C9.81647 19.9974 9.57308 20.3516 9.32388 20.7057L8.95299 21.234L8.61107 21.7972C8.37926 22.1745 8.15325 22.5461 7.92144 22.9177C7.68384 23.2834 7.4926 23.6782 7.28976 24.0614C7.08693 24.4445 6.8841 24.8277 6.68706 25.2109C5.14554 28.2937 4.06763 31.4926 3.40118 34.6102C3.22732 35.3882 3.12301 36.1661 2.97813 36.9325C2.897 37.3157 2.86802 37.6988 2.82166 38.0762C2.7753 38.4536 2.73473 38.8309 2.69417 39.2083C2.67098 39.3941 2.6536 39.5799 2.63042 39.7656C2.61883 39.9514 2.60724 40.1372 2.60144 40.323C2.58406 40.6945 2.56667 41.0603 2.54929 41.4261C2.52031 41.7918 2.47974 42.1518 2.48554 42.5117C2.49133 42.8717 2.49133 43.2258 2.49713 43.5742C2.50292 43.9225 2.50292 44.2708 2.50872 44.6134C2.50872 44.9559 2.55508 45.2926 2.57247 45.6293C2.63042 46.297 2.6478 46.9588 2.72314 47.5975C2.81007 48.2361 2.8912 48.8573 2.97234 49.4611C3.00711 49.763 3.05926 50.0591 3.12301 50.3493C3.18096 50.6396 3.23891 50.9241 3.29687 51.2086C3.75469 53.467 4.32841 55.3944 4.89634 56.9794C5.46427 58.5353 5.98005 59.7603 6.36833 60.5673C6.75081 61.3859 6.95944 61.8213 6.95944 61.8213C6.95944 61.8213 6.69286 61.4207 6.18868 60.6718C5.92789 60.3002 5.64972 59.8125 5.3136 59.2494C4.96589 58.6921 4.61817 58.0186 4.2241 57.2581C4.01547 56.8807 3.84741 56.4743 3.65037 56.0563C3.55186 55.8473 3.45334 55.6267 3.34902 55.4061L3.27369 55.2377L3.19835 55.0519C3.15199 54.9358 3.10562 54.8139 3.05926 54.6978C2.86802 54.2217 2.67678 53.7224 2.46815 53.2057C2.25373 52.689 2.10885 52.1317 1.9292 51.5627C1.2048 49.2927 0.613686 46.6337 0.352901 43.6845C0.0747315 40.7352 0.109503 37.4898 0.619481 34.1051C1.12366 30.7205 2.10885 27.208 3.63878 23.7769C3.84162 23.3531 4.04445 22.9293 4.24728 22.4997C4.45011 22.07 4.64715 21.6404 4.89055 21.2282C5.12236 20.8102 5.35996 20.3922 5.59177 19.9742L5.94528 19.3414C6.07277 19.1324 6.21186 18.9292 6.35094 18.7202C6.62332 18.308 6.89569 17.89 7.17386 17.4778C7.31295 17.2746 7.44624 17.0482 7.59112 16.8682L8.01417 16.3108C8.29813 15.9393 8.5821 15.5619 8.86606 15.1903L9.08048 14.9059L9.15003 14.8188L9.179 14.784L9.23695 14.7143L9.35865 14.575L9.84545 14.0176C12.4417 11.0219 15.5306 8.36871 18.9555 6.24965C22.3689 4.11318 26.1068 2.49921 29.9316 1.48322C33.7565 0.473037 37.6682 0.0143908 41.4293 0.124698C45.26 0.2292 48.7892 0.862015 52.0925 1.88381C55.3784 2.9056 58.3224 4.31637 60.8607 5.87809C63.4106 7.4282 65.5432 9.14667 67.2991 10.7839C67.728 11.2077 68.1626 11.5908 68.5451 12.003C68.9276 12.4094 69.2985 12.8042 69.6578 13.1816C70.0055 13.5706 70.3184 13.9537 70.6256 14.3195C70.7763 14.5053 70.9269 14.6795 71.0718 14.8536C71.2109 15.0336 71.3442 15.2078 71.4717 15.3819C71.7325 15.7245 71.9759 16.0496 72.2077 16.3515C72.4337 16.665 72.6307 16.9669 72.822 17.2397C73.2045 17.7971 73.5232 18.2673 73.7492 18.6505C74.2186 19.4227 74.4678 19.8291 74.4678 19.8291L73.4537 20.5199Z" fill="#008295"/>
<path d="M76.9768 13.6635L72.9085 18.5228L66.5859 18.964L78.0605 28.6536L76.9768 13.6635Z" fill="#008295"/>
<path d="M35.3988 42.4595C34.6629 42.7382 33.2198 43.1155 31.6725 43.1155C29.7137 43.1155 28.236 42.6163 27.1407 41.5654C26.1091 40.5843 25.5064 39.0516 25.5238 37.2983C25.5238 33.6349 28.1316 31.2778 31.9623 31.2778C33.3879 31.2778 34.5064 31.5681 35.0337 31.8294L34.5701 33.5304C33.9327 33.2576 33.1619 33.0311 31.9449 33.0311C29.4703 33.0311 27.7376 34.4942 27.7376 37.1938C27.7376 39.8237 29.3544 41.3913 31.7537 41.3913C32.507 41.3913 33.075 41.2868 33.3531 41.1474V38.2562H31.3074V36.59H35.393V42.4595H35.3988Z" fill="#002D74"/>
<path d="M39.6503 30.7786H37.5234V42.9936H39.6503V30.7786Z" fill="#002D74"/>
<path d="M49.8904 38.7206C49.8904 41.7976 47.7288 43.1736 45.5962 43.1736C43.2259 43.1736 41.4062 41.5422 41.4062 38.8542C41.4062 36.1023 43.2086 34.4128 45.7353 34.4128C48.2214 34.4245 49.8904 36.1778 49.8904 38.7206ZM43.5852 38.8077C43.5852 40.4275 44.3734 41.6467 45.6599 41.6467C46.8595 41.6467 47.7056 40.4565 47.7056 38.7729C47.7056 37.4666 47.1203 35.9688 45.6831 35.9688C44.1879 35.9688 43.5852 37.4144 43.5852 38.8077Z" fill="#002D74"/>
<path d="M51.5547 42.9878C51.5895 42.4188 51.6242 41.4899 51.6242 40.6307V30.7727H53.7395V35.7598H53.7743C54.29 34.9528 55.1999 34.4187 56.4516 34.4187C58.4974 34.4187 59.952 36.1197 59.9404 38.6684C59.9404 41.6815 58.0337 43.1736 56.1445 43.1736C55.0608 43.1736 54.0988 42.7614 53.5019 41.728H53.4671L53.3628 42.982H51.5547V42.9878ZM53.7395 39.5334C53.7395 39.7076 53.7569 39.876 53.7916 40.0327C54.0119 40.8745 54.7536 41.5132 55.6635 41.5132C56.9848 41.5132 57.7903 40.4449 57.7903 38.7613C57.7903 37.2808 57.0891 36.0791 55.6809 36.0791C54.8232 36.0791 54.0466 36.7003 53.809 37.6292C53.7743 37.7859 53.7395 37.9717 53.7395 38.1807V39.5334Z" fill="#002D74"/>
<path d="M66.377 42.9878L66.2379 42.0589H66.1857C65.6699 42.7091 64.7949 43.1793 63.7112 43.1793C62.0306 43.1793 61.0859 41.9602 61.0859 40.6829C61.0859 38.5697 62.9578 37.5014 66.0466 37.5188V37.3795C66.0466 36.828 65.8264 35.9165 64.3486 35.9165C63.5257 35.9165 62.668 36.1719 62.1001 36.5377L61.6886 35.1618C62.3087 34.7844 63.3866 34.4244 64.7079 34.4244C67.3853 34.4244 68.1619 36.1255 68.1619 37.9485V40.9732C68.1619 41.7279 68.1967 42.4711 68.2836 42.9878H66.377V42.9878ZM66.0988 38.8948C64.6036 38.86 63.178 39.1851 63.178 40.4623C63.178 41.2867 63.7112 41.6641 64.3776 41.6641C65.2179 41.6641 65.838 41.1125 66.0293 40.5088C66.0814 40.352 66.0988 40.1836 66.0988 40.0443V38.8948V38.8948Z" fill="#002D74"/>
<path d="M72.5253 30.7786H70.3984V42.9936H72.5253V30.7786Z" fill="#002D74"/>
<path d="M78.4511 31.5506C79.2393 31.4113 80.4273 31.3068 81.6443 31.3068C83.3075 31.3068 84.4433 31.5796 85.2141 32.2357C85.8516 32.7698 86.2109 33.5768 86.2109 34.5579C86.2109 36.0558 85.1967 37.0718 84.113 37.4666V37.5188C84.9359 37.8265 85.4343 38.6393 85.7299 39.754C86.0892 41.1996 86.3963 42.5407 86.6397 42.9877H84.4607C84.2869 42.6452 84.0145 41.6989 83.69 40.2533C83.3654 38.738 82.8149 38.2561 81.6095 38.2213H80.5432V42.9877H78.4453V31.5506H78.4511ZM80.549 36.677H81.8007C83.2263 36.677 84.1188 35.9223 84.1188 34.7669C84.1188 33.4955 83.2263 32.9091 81.8529 32.9091C81.1864 32.9091 80.7518 32.9614 80.549 33.0136V36.677Z" fill="#002D74"/>
<path d="M89.6826 39.3941C89.7347 40.9093 90.9169 41.5596 92.2556 41.5596C93.235 41.5596 93.9362 41.4202 94.5737 41.1822L94.8809 42.6452C94.1623 42.9355 93.1655 43.1619 91.9601 43.1619C89.2479 43.1619 87.6484 41.4957 87.6484 38.9296C87.6484 36.6074 89.0567 34.4244 91.7341 34.4244C94.4462 34.4244 95.3387 36.6596 95.3387 38.5C95.3387 38.8948 95.3039 39.2025 95.2691 39.3941H89.6826ZM93.3625 37.9136C93.3799 37.1415 93.038 35.8642 91.6298 35.8642C90.3258 35.8642 89.7753 37.0486 89.6884 37.9136H93.3625Z" fill="#002D74"/>
<path d="M103.201 42.7324C102.755 42.9414 101.88 43.162 100.831 43.162C98.2233 43.162 96.5195 41.4958 96.5195 38.8949C96.5195 36.381 98.2349 34.4187 101.173 34.4187C101.944 34.4187 102.738 34.5929 103.219 34.8135L102.842 36.3984C102.5 36.2417 102.002 36.0733 101.243 36.0733C99.6258 36.0733 98.6638 37.2577 98.6812 38.7904C98.6812 40.5088 99.7996 41.49 101.243 41.49C101.979 41.49 102.494 41.3332 102.906 41.1649L103.201 42.7324Z" fill="#002D74"/>
<path d="M106.359 34.6102L107.872 39.098C108.045 39.6147 108.213 40.2533 108.335 40.7352H108.387C108.526 40.2533 108.677 39.6321 108.834 39.0806L110.138 34.6102H112.403L110.306 40.323C109.152 43.4522 108.382 44.8456 107.385 45.7048C106.562 46.4421 105.704 46.7208 105.171 46.7905L104.69 45.0023C105.049 44.9152 105.496 44.7295 105.924 44.416C106.318 44.1605 106.782 43.6612 107.072 43.0923C107.159 42.9355 107.211 42.8136 107.211 42.7149C107.211 42.6278 107.194 42.5117 107.089 42.3027L104.035 34.6102H106.359Z" fill="#002D74"/>
<path d="M119.549 42.7324C119.103 42.9414 118.228 43.162 117.179 43.162C114.571 43.162 112.867 41.4958 112.867 38.8949C112.867 36.381 114.583 34.4187 117.521 34.4187C118.292 34.4187 119.085 34.5929 119.566 34.8135L119.19 36.3984C118.848 36.2417 118.349 36.0733 117.59 36.0733C115.973 36.0733 115.011 37.2577 115.029 38.7904C115.029 40.5088 116.147 41.49 117.59 41.49C118.326 41.49 118.842 41.3332 119.254 41.1649L119.549 42.7324Z" fill="#002D74"/>
<path d="M123.24 30.7786H121.113V42.9936H123.24V30.7786Z" fill="#002D74"/>
<path d="M127.018 39.3941C127.071 40.9093 128.253 41.5596 129.592 41.5596C130.571 41.5596 131.272 41.4202 131.91 41.1822L132.217 42.6452C131.498 42.9355 130.501 43.1619 129.296 43.1619C126.584 43.1619 124.984 41.4957 124.984 38.9296C124.984 36.6074 126.393 34.4244 129.07 34.4244C131.782 34.4244 132.675 36.6596 132.675 38.5C132.675 38.8948 132.64 39.2025 132.605 39.3941H127.018ZM130.693 37.9136C130.71 37.1415 130.368 35.8642 128.96 35.8642C127.656 35.8642 127.105 37.0486 127.018 37.9136H130.693Z" fill="#002D74"/>
<path d="M142.1 30.7786V40.6365C142.1 41.4958 142.135 42.4247 142.17 42.9936H140.281L140.194 41.67H140.159C139.661 42.5989 138.646 43.1852 137.429 43.1852C135.436 43.1852 133.86 41.4842 133.86 38.9007C133.842 36.0965 135.592 34.4303 137.603 34.4303C138.756 34.4303 139.579 34.9122 139.956 35.5334H139.991V30.7844H142.1V30.7786ZM139.991 38.1053C139.991 37.9311 139.973 37.7279 139.939 37.5538C139.747 36.7294 139.081 36.0559 138.119 36.0559C136.763 36.0559 136.01 37.2577 136.01 38.8252C136.01 40.3579 136.763 41.4726 138.102 41.4726C138.959 41.4726 139.718 40.8862 139.921 39.9747C139.973 39.7831 139.991 39.5799 139.991 39.3535V38.1053V38.1053Z" fill="#002D74"/>
<path d="M59.6511 54.808C60.3407 55.2028 61.3665 55.5511 62.4502 55.5511C63.8063 55.5511 64.5597 54.9125 64.5597 53.9662C64.5597 53.0895 63.9743 52.5728 62.5024 52.0387C60.5957 51.3537 59.3787 50.3377 59.3787 48.6656C59.3787 46.773 60.9608 45.3274 63.4644 45.3274C64.7161 45.3274 65.6434 45.6061 66.2461 45.9138L65.7303 47.6148C65.3188 47.3884 64.5133 47.0633 63.4296 47.0633C62.0909 47.0633 61.5056 47.7832 61.5056 48.4566C61.5056 49.3507 62.1778 49.7629 63.7194 50.3667C65.7303 51.1214 66.7097 52.1374 66.7097 53.8094C66.7097 55.6672 65.3015 57.287 62.3111 57.287C61.0941 57.287 59.8192 56.9445 59.1875 56.5671L59.6511 54.808Z" fill="#002D74"/>
<path d="M70.8799 46.3435V48.7354H72.8908V50.3204H70.8799V54.0186C70.8799 55.0346 71.1523 55.5687 71.9636 55.5687C72.3229 55.5687 72.6011 55.5164 72.7865 55.4642L72.8213 57.0839C72.5142 57.2059 71.9636 57.2871 71.2914 57.2871C70.5206 57.2871 69.8657 57.0317 69.4717 56.5963C69.0254 56.1144 68.8168 55.3597 68.8168 54.2566V50.3204H67.6172V48.7354H68.8168V46.8428L70.8799 46.3435Z" fill="#002D74"/>
<path d="M79.1895 57.1129L79.0504 56.184H78.9982C78.4824 56.84 77.6074 57.3045 76.5237 57.3045C74.8431 57.3045 73.8984 56.0795 73.8984 54.808C73.8984 52.6948 75.7703 51.6266 78.8591 51.644V51.5046C78.8591 50.9531 78.6331 50.0416 77.1611 50.0416C76.3382 50.0416 75.4805 50.2971 74.9126 50.6628L74.5011 49.2869C75.1212 48.9095 76.1991 48.5496 77.5262 48.5496C80.2036 48.5496 80.9802 50.2506 80.9802 52.0736V55.1041C80.9802 55.8589 81.0149 56.602 81.1019 57.1187H79.1895V57.1129ZM78.9171 53.0199C77.4219 52.9851 75.9963 53.3102 75.9963 54.5874C75.9963 55.4118 76.5295 55.7892 77.1959 55.7892C78.0362 55.7892 78.6563 55.2377 78.8475 54.6397C78.8997 54.4829 78.9171 54.3146 78.9171 54.1752V53.0199Z" fill="#002D74"/>
<path d="M83.2141 51.2318C83.2141 50.2681 83.1967 49.4611 83.1445 48.7354H84.999L85.1033 49.9894H85.1555C85.5148 49.3334 86.4246 48.5438 87.8155 48.5438C89.2759 48.5438 90.7884 49.4901 90.7884 52.1375V57.1071H88.6732V52.3755C88.6732 51.1738 88.2269 50.2623 87.0737 50.2623C86.2334 50.2623 85.6481 50.8661 85.4278 51.4989C85.3583 51.6847 85.3409 51.9459 85.3409 52.184V57.1013H83.2141V51.2318Z" fill="#002D74"/>
<path d="M100.741 44.8978V54.7558C100.741 55.615 100.776 56.5439 100.81 57.1129H98.9212L98.8343 55.7892H98.7995C98.3011 56.7181 97.287 57.3045 96.07 57.3045C94.0764 57.3045 92.5001 55.6034 92.5001 53.0199C92.4827 50.2158 94.2329 48.5496 96.2438 48.5496C97.3971 48.5496 98.22 49.0314 98.5967 49.6468H98.6315V44.8978H100.741ZM98.6315 52.2245C98.6315 52.0504 98.6141 51.8472 98.5793 51.673C98.3881 50.8486 97.7216 50.1752 96.7596 50.1752C95.4035 50.1752 94.6501 51.3769 94.6501 52.9444C94.6501 54.4771 95.4035 55.5918 96.7422 55.5918C97.5999 55.5918 98.3591 55.0054 98.5619 54.094C98.6141 53.9082 98.6315 53.6992 98.6315 53.4728V52.2245V52.2245Z" fill="#002D74"/>
<path d="M107.721 57.1129L107.582 56.184H107.529C107.014 56.84 106.139 57.3045 105.055 57.3045C103.374 57.3045 102.43 56.0795 102.43 54.808C102.43 52.6948 104.302 51.6266 107.39 51.644V51.5046C107.39 50.9531 107.164 50.0416 105.692 50.0416C104.869 50.0416 104.012 50.2971 103.444 50.6628L103.032 49.2869C103.652 48.9095 104.73 48.5496 106.058 48.5496C108.735 48.5496 109.511 50.2506 109.511 52.0736V55.1041C109.511 55.8589 109.546 56.602 109.633 57.1187H107.721V57.1129ZM107.443 53.0199C105.947 52.9851 104.522 53.3102 104.522 54.5874C104.522 55.4118 105.055 55.7892 105.721 55.7892C106.562 55.7892 107.182 55.2377 107.373 54.6397C107.425 54.4829 107.443 54.3146 107.443 54.1752V53.0199Z" fill="#002D74"/>
<path d="M111.738 51.435C111.738 50.2971 111.72 49.4901 111.668 48.7354H113.505L113.575 50.332H113.644C114.056 49.1476 115.035 48.5438 115.927 48.5438C116.136 48.5438 116.252 48.5612 116.426 48.5961V50.5932C116.252 50.5584 116.067 50.5235 115.806 50.5235C114.792 50.5235 114.108 51.1738 113.917 52.1201C113.882 52.3117 113.847 52.5323 113.847 52.7761V57.113H111.738V51.435V51.435Z" fill="#002D74"/>
<path d="M125.409 44.8978V54.7558C125.409 55.615 125.444 56.5439 125.478 57.1129H123.589L123.502 55.7892H123.467C122.969 56.7181 121.955 57.3045 120.738 57.3045C118.744 57.3045 117.168 55.6034 117.168 53.0199C117.151 50.2158 118.901 48.5496 120.912 48.5496C122.065 48.5496 122.888 49.0314 123.265 49.6468H123.299V44.8978H125.409ZM123.299 52.2245C123.299 52.0504 123.282 51.8472 123.247 51.673C123.062 50.8486 122.39 50.1752 121.428 50.1752C120.071 50.1752 119.318 51.3769 119.318 52.9444C119.318 54.4771 120.071 55.5918 121.41 55.5918C122.268 55.5918 123.027 55.0054 123.23 54.094C123.282 53.9082 123.299 53.6992 123.299 53.4728V52.2245V52.2245Z" fill="#002D74"/>
</g>
<defs>
<clipPath id="clip0_1448_6108">
<rect width="142" height="65" fill="white" transform="translate(0.167969 0.10144)"/>
</clipPath>
</defs>
</svg>
