<svg width="109" height="45" viewBox="0 0 109 45" fill="none" xmlns="http://www.w3.org/2000/svg">
<path d="M30.2429 2.64293C30.4956 5.1134 18.3361 8.38822 15.2893 15.4549C12.9444 20.8986 16.0053 25.5236 19.1505 27.7642C18.7153 28.3962 17.6622 29.6889 15.9211 30.4358L18.9259 30.68C18.9259 30.68 21.6077 26.1412 22.1974 25.107C22.1693 25.0783 20.6108 23.6994 19.305 22.062C18.982 21.6455 18.6591 21.229 18.3923 20.8124C18.1255 20.3959 17.9009 19.9937 17.7605 19.6203C17.6903 19.4336 17.6201 19.2756 17.592 19.1032C17.5639 18.9452 17.5077 18.8159 17.5218 18.701C17.5218 18.4712 17.5218 18.3419 17.5218 18.3419C17.5218 18.3419 17.5358 18.4712 17.5639 18.6867C17.5639 18.8016 17.6341 18.9308 17.6762 19.0745C17.7183 19.2181 17.8026 19.3761 17.9009 19.5485C18.0834 19.8932 18.3361 20.2523 18.645 20.6257C18.9399 20.9991 19.305 21.3726 19.67 21.7317C20.4002 22.4498 21.2005 23.0962 21.7902 23.5702C22.2115 23.9005 22.5204 24.116 22.6748 24.2452C23.2645 23.1967 23.8683 22.0908 24.458 20.913L24.444 20.9273C24.444 20.9273 23.2364 19.8501 22.2255 18.6005C21.9728 18.2845 21.7341 17.9685 21.5375 17.6381C21.3409 17.3222 21.1584 17.0062 21.0601 16.7333C21.0039 16.5896 20.9478 16.4604 20.9337 16.3455C20.9056 16.2306 20.8776 16.13 20.8776 16.0295C20.8776 15.8571 20.8776 15.7566 20.8776 15.7566C20.8776 15.7566 20.8916 15.8571 20.9056 16.0295C20.9056 16.1156 20.9618 16.2162 20.9899 16.3311C21.018 16.446 21.0882 16.5609 21.1584 16.6902C21.2988 16.9487 21.4954 17.2216 21.7341 17.5089C21.9728 17.7961 22.2395 18.069 22.5063 18.3563C23.068 18.9021 23.6717 19.4048 24.1351 19.7639C24.444 19.9937 24.6686 20.1661 24.795 20.2523C25.4409 18.9883 26.0727 17.6669 26.7046 16.3024L26.6344 16.3885C26.6344 16.3885 25.6655 15.5268 24.8652 14.5213C24.6686 14.2771 24.472 14.0042 24.3036 13.7601C24.1491 13.5015 24.0087 13.2574 23.9245 13.0275C23.8683 12.927 23.8262 12.8265 23.8121 12.7259C23.7981 12.6254 23.77 12.5536 23.77 12.4817C23.77 12.3381 23.77 12.2663 23.77 12.2663C23.77 12.2663 23.784 12.3525 23.7981 12.4817C23.7981 12.5536 23.8402 12.6254 23.8683 12.7116C23.8964 12.7977 23.9525 12.8983 24.0087 12.9988C24.121 13.2143 24.2755 13.4297 24.458 13.6595C24.6405 13.8893 24.8512 14.1192 25.0758 14.3346C25.5251 14.7799 26.0166 15.1677 26.3816 15.4549C26.6203 15.6417 26.8028 15.7709 26.9152 15.8571C26.9152 15.8427 26.9152 15.8427 26.9292 15.8284C26.9292 15.8284 27.3504 14.8804 27.547 14.4208C29.5408 9.79582 28.7967 11.7492 27.21 15.7566C27.3504 15.7422 27.547 15.7422 27.7717 15.7135C28.2912 15.6704 28.9792 15.5842 29.6532 15.4549C29.9901 15.3831 30.3271 15.2969 30.636 15.1964C30.9449 15.0959 31.2258 14.9809 31.4504 14.866C31.5627 14.8086 31.661 14.7511 31.7453 14.6793C31.8295 14.6075 31.9138 14.5644 31.9559 14.507C32.0542 14.3921 32.1103 14.3202 32.1103 14.3202C32.1103 14.3202 32.0682 14.3921 31.984 14.5213C31.9418 14.5931 31.8716 14.6506 31.8014 14.7224C31.7312 14.8086 31.6329 14.8804 31.5206 14.9522C31.31 15.1102 31.0292 15.2539 30.7343 15.3975C30.4254 15.5411 30.1025 15.656 29.7655 15.7709C28.4176 16.2162 26.9994 16.4316 26.9994 16.4316L26.9854 16.3598C26.5501 17.4371 26.0727 18.6436 25.5813 19.8932C25.7498 19.8788 25.9183 19.8644 26.1429 19.8501C26.8028 19.7926 27.7015 19.6921 28.572 19.5054C29.0073 19.4192 29.4426 19.3043 29.8357 19.175C30.2288 19.0457 30.5939 18.9021 30.8888 18.7441C31.0292 18.6579 31.1696 18.5861 31.2679 18.4999C31.3662 18.4138 31.4785 18.3563 31.5347 18.2701C31.661 18.1265 31.7312 18.0403 31.7312 18.0403C31.7312 18.0403 31.6751 18.1265 31.5627 18.2989C31.5206 18.385 31.4223 18.4569 31.324 18.5574C31.2258 18.6579 31.0994 18.7585 30.959 18.859C30.6782 19.0601 30.3271 19.2468 29.934 19.4336C29.5408 19.6203 29.1196 19.7639 28.6843 19.9219C27.196 20.4103 25.6515 20.6832 25.2443 20.755C24.7809 21.904 24.121 23.0818 23.6717 24.2309C23.8542 24.2165 24.2614 24.2021 24.5001 24.1878C25.2583 24.116 26.2833 24.0011 27.2802 23.8C27.7717 23.6994 28.2771 23.5702 28.7265 23.4265C29.1758 23.2829 29.597 23.1105 29.934 22.9238C30.1025 22.8376 30.2569 22.7515 30.3693 22.6509C30.4816 22.5504 30.608 22.4929 30.6782 22.3924C30.8186 22.22 30.9028 22.1195 30.9028 22.1195C30.9028 22.1195 30.8326 22.2344 30.7062 22.4211C30.6501 22.5216 30.5377 22.6078 30.4254 22.7227C30.3131 22.8376 30.1727 22.9525 30.0042 23.0675C29.6812 23.2973 29.2741 23.5127 28.8247 23.7282C28.3754 23.9436 27.884 24.116 27.3926 24.2883C25.6936 24.8485 23.6998 25.0639 23.2084 25.1501C22.6888 26.4715 21.7762 27.8073 21.355 28.8702C25.4128 30.3352 32.3912 30.6369 35.2134 24.0872C38.2462 16.9774 30.0042 0.17245 30.2429 2.64293Z" fill="#4BB166"/>
<path d="M37.5296 38.4359C35.6621 35.8505 33.219 33.9115 30.6495 32.2023C28.5574 30.809 26.1845 31.1107 23.966 32.0156C22.604 32.5757 21.2702 32.6332 19.9643 32.231C18.2233 31.6996 16.4681 31.6421 14.699 31.6277C13.9408 31.6277 13.3089 31.9006 12.8456 32.5039C12.5928 32.8486 14.6709 34.2706 16.4401 34.2706C16.1031 34.9456 10.3603 33.5237 9.60211 33.5811L5.24941 33.0066C3.7049 32.8773 3.7049 32.2741 2.18848 33.1646C2.13231 33.1933 2.06211 33.1933 2.00595 33.1933C1.16349 33.1502 0.686095 33.4231 0.208702 33.9977C-0.0580765 34.328 -0.0440355 34.7302 0.110415 35.118C0.264866 35.5202 0.658013 35.4196 0.966914 35.5489C2.91861 36.3389 3.53641 36.7267 6.17611 37.3874C8.0576 37.8614 9.88293 38.4359 11.7504 38.8668C12.5226 39.0535 13.3089 39.1828 14.011 39.585C15.4993 40.4468 17.0719 40.7053 18.7709 40.6191C20.6945 40.5329 22.6181 40.6048 24.5557 40.5904C27.9396 40.576 30.5091 41.9549 32.2502 45.0143L43.1319 44.9855C40.745 42.1416 39.7059 41.4522 37.5296 38.4359Z" fill="#4BB166"/>
<path d="M11.0326 30.3351C11.8891 29.5452 12.9843 29.1143 14.2199 29.1143H14.234C14.6692 29.1143 15.1185 29.1143 15.5679 29.1286C15.8206 28.7983 16.0874 28.4392 16.3822 28.0227C16.1295 27.7498 15.8908 27.4625 15.6661 27.1752C15.1888 26.7731 14.7254 26.3422 14.2901 25.8682C14.4446 25.8825 14.599 25.8825 14.7535 25.8969C14.4025 25.3367 14.1076 24.7622 13.8408 24.1446C13.5038 24.0871 13.1669 24.0441 12.8439 23.9722C11.6364 22.105 10.808 19.9074 10.485 17.5375C11.2713 17.8391 12.0857 18.0689 12.9282 18.2413C12.9843 17.7386 13.0686 17.2215 13.1949 16.7044C12.198 16.489 11.2432 16.1874 10.3446 15.7852C10.3446 15.6272 10.3306 15.4836 10.3306 15.3256C10.3306 13.5302 10.6254 11.8066 11.159 10.2123C12.4508 11.1028 13.9953 11.6342 15.6661 11.7348C16.1716 11.0884 16.7192 10.4708 17.323 9.89627C16.9579 9.95372 16.5788 9.99681 16.1997 9.99681C14.5569 9.99681 13.0545 9.43664 11.847 8.5174C12.9001 6.26237 14.4586 4.32333 16.3542 2.91574C17.9548 4.10788 19.2887 5.67348 20.3137 7.48324C20.8051 7.13853 21.2966 6.80817 21.802 6.49218C20.9596 5.01277 19.9206 3.67699 18.699 2.54229C20.3418 2.84392 21.8723 3.43281 23.2483 4.26588C23.1219 4.86914 22.8972 5.44366 22.6164 5.9751C23.4729 5.44366 24.3294 4.95532 25.1157 4.49569C25.5369 4.25152 26.0003 3.97862 26.4636 3.70571C23.7257 1.42196 20.2154 0 16.3682 0C13.0545 0 9.97956 1.04852 7.45218 2.81519C7.45218 2.81519 7.45218 2.81519 7.24157 2.97319C5.83747 3.97862 4.61591 5.21385 3.619 6.62145C3.46455 6.85126 3.3101 7.08107 3.15565 7.31089C2.7625 7.94287 2.41148 8.58921 2.10258 9.26428C1.49882 10.6144 1.09163 12.0508 0.881013 13.5733C0.782726 14.2627 0.726562 14.9521 0.726562 15.6559C0.726562 22.4066 5.03714 28.1519 11.0326 30.3351ZM14.0093 2.57102C12.6052 3.87807 11.4117 5.44366 10.5131 7.21034C9.89531 6.42036 9.446 5.48675 9.2073 4.46696C10.6395 3.54772 12.2682 2.88701 14.0093 2.57102ZM7.69088 5.60166C8.11211 6.89435 8.81416 8.04341 9.72682 9.00575C9.05285 10.8155 8.64567 12.7833 8.60354 14.8372C6.76418 13.6594 5.24775 12.0795 4.25084 10.2266C5.05118 8.44558 6.23062 6.86562 7.69088 5.60166ZM3.08544 15.6559C3.08544 14.435 3.26798 13.2573 3.57688 12.1226C4.84056 13.9898 6.58164 15.5554 8.64567 16.6901C8.81416 19.0313 9.43196 21.2145 10.4008 23.1823C6.97479 21.7172 4.29297 19.0313 3.09949 15.7277C3.08544 15.699 3.08544 15.6846 3.08544 15.6559ZM11.6645 25.3655C12.4929 26.572 13.4758 27.6492 14.571 28.5828C14.6833 28.6259 14.8096 28.669 14.922 28.6977C14.8237 28.7552 14.7394 28.7839 14.6552 28.8414C9.78298 28.2094 5.73919 24.9202 3.99811 20.4676C5.92172 22.7514 8.5895 24.4893 11.6645 25.3655Z" fill="#4BB166"/>
<path d="M57.6218 14.349H57.678L59.0961 0.47408H63.4067L60.1773 20.2666H55.0664L53.6763 6.33428H53.6342L52.1318 20.2666H47.1052L43.8477 0.47408H48.2284L49.5904 14.3777L49.6466 14.3202L51.4719 0.459717H55.8527L57.6218 14.349Z" fill="#4BB166"/>
<path d="M76.9991 13.9611C76.9991 15.067 76.9008 16.0437 76.6902 16.9055C76.4796 17.7673 76.1426 18.4711 75.6652 19.0313C75.1878 19.5914 74.556 20.0223 73.7837 20.3096C73.0115 20.5969 72.0426 20.7405 70.8913 20.7405C69.7399 20.7405 68.7711 20.5969 67.9848 20.3096C67.1985 20.0223 66.5667 19.5914 66.0752 19.0313C65.5838 18.4711 65.2328 17.7673 65.0222 16.9055C64.8115 16.0581 64.6992 15.067 64.6992 13.9611V5.90329C64.6992 3.99298 65.2328 2.52793 66.2999 1.50814C67.367 0.502713 68.8975 0 70.8913 0C72.8851 0 74.4015 0.502713 75.4406 1.5225C76.4796 2.54229 76.9991 3.99298 76.9991 5.91765V13.9611ZM72.4639 6.21928C72.4639 5.91765 72.4498 5.61602 72.4218 5.30003C72.3937 4.98404 72.3375 4.69678 72.2252 4.43824C72.1269 4.1797 71.9584 3.97862 71.7478 3.80626C71.5372 3.64826 71.2423 3.56208 70.8632 3.56208C70.4981 3.56208 70.2173 3.64826 69.9927 3.80626C69.782 3.97862 69.6136 4.1797 69.5012 4.43824C69.3889 4.69678 69.3187 4.98404 69.2766 5.30003C69.2345 5.61602 69.2204 5.91765 69.2204 6.21928V14.3489C69.2204 14.6361 69.2345 14.9378 69.2766 15.2681C69.3047 15.5985 69.3889 15.9145 69.5012 16.1874C69.6136 16.4746 69.782 16.7044 70.0067 16.8912C70.2314 17.0779 70.5262 17.1641 70.8772 17.1641C71.2423 17.1641 71.5231 17.0779 71.7478 16.8912C71.9584 16.7044 72.1269 16.4746 72.2252 16.1874C72.3235 15.9001 72.3937 15.5985 72.4218 15.2681C72.4498 14.9378 72.4639 14.6218 72.4639 14.3489V6.21928V6.21928Z" fill="#4BB166"/>
<path d="M83.6251 20.2667H79.0898V0.474121H85.7172C87.5846 0.474121 88.9887 0.890655 89.9154 1.72372C90.8281 2.55679 91.2914 3.96439 91.2914 5.93215C91.2914 6.98066 91.1229 7.89991 90.8 8.6468C90.477 9.40805 89.8312 9.99694 88.8904 10.4422V10.4997C89.5223 10.6433 90.0558 10.9306 90.463 11.3758C90.8702 11.8211 91.0949 12.3812 91.137 13.0707C91.1791 13.4728 91.2072 13.9756 91.2212 14.5501C91.2493 15.1246 91.2774 15.7135 91.2914 16.3168C91.3195 16.92 91.3476 17.4802 91.3757 18.026C91.4178 18.5718 91.4599 19.0027 91.5301 19.3187C91.6425 19.6203 91.7969 19.8501 91.9654 20.0081V20.2667H87.0089C86.9387 20.0799 86.8826 19.8788 86.8404 19.7065C86.7983 19.5341 86.7702 19.333 86.7562 19.1463C86.7281 18.2702 86.7141 17.4371 86.7281 16.6471C86.7422 15.8571 86.7141 15.1677 86.6439 14.5501C86.5737 13.9325 86.4333 13.4441 86.2226 13.0707C86.012 12.6972 85.6329 12.4961 85.0994 12.4674H83.597V20.2667H83.6251ZM83.6251 8.89097H85.1696C85.4925 8.89097 85.7733 8.81916 85.984 8.67553C86.1946 8.53189 86.3631 8.34517 86.4894 8.11536C86.6017 7.88555 86.686 7.62701 86.7281 7.32538C86.7702 7.02375 86.7983 6.72213 86.7983 6.43486C86.7983 5.86033 86.7422 5.40071 86.6158 5.07035C86.4894 4.74 86.3069 4.48146 86.0542 4.33783C85.8014 4.17983 85.4644 4.09365 85.0572 4.06493C84.6641 4.02184 84.1867 4.02184 83.6251 4.0362V8.89097Z" fill="#4BB166"/>
<path d="M93.4844 20.2667V0.474121H98.0196V8.38826H98.0758L101.432 0.474121H106.079L101.951 9.20696L106.332 20.2667H101.53L99.0306 13.3723L98.0196 15.3832V20.2667H93.4844Z" fill="#4BB166"/>
<path d="M44.6875 44.5259V24.7334H49.2227V44.5259H44.6875Z" fill="#4BB166"/>
<path d="M55.6018 33.4375L55.5456 33.495L55.9668 44.5259H51.6562V24.7334H56.3178L59.8281 35.7931H59.8983L59.463 24.7334H63.7736V44.5259H59.126L55.6018 33.4375Z" fill="#4BB166"/>
<path d="M69.6016 44.5259V24.7334H79.9919V28.6976H74.1368V32.3459H79.8093V36.3102H74.1368V40.5904H80.3008V44.5259H69.6016Z" fill="#4BB166"/>
<path d="M90.0553 31.6421V30.3781C90.0553 29.5307 89.9149 28.8987 89.6481 28.4678C89.3813 28.0369 89.0303 27.8215 88.6091 27.8215C87.907 27.8071 87.4296 27.9795 87.205 28.3529C86.9663 28.7264 86.854 29.2291 86.854 29.8898L86.8259 39.6855C86.8259 40.2457 86.9523 40.6766 87.1909 40.9926C87.4296 41.2942 87.8509 41.4522 88.4546 41.4522C88.8337 41.4522 89.1286 41.366 89.3533 41.1793C89.5779 40.9926 89.7464 40.7628 89.8728 40.4755C89.9992 40.1882 90.0694 39.8866 90.0974 39.5562C90.1255 39.2259 90.1396 38.9099 90.1396 38.6083V36.8129H94.6748V39.2403C94.6748 40.0877 94.5484 40.8633 94.2957 41.5815C94.043 42.2996 93.6638 42.9029 93.1303 43.42C92.6108 43.937 91.9228 44.3248 91.0943 44.6121C90.2659 44.8994 89.269 45.0286 88.1177 45.0286C87.0646 45.0286 86.18 44.885 85.4499 44.6121C84.7197 44.3248 84.116 43.9227 83.6526 43.3912C83.1893 42.8598 82.8523 42.1991 82.6276 41.4091C82.417 40.6335 82.3047 39.7286 82.3047 38.7375V30.6079C82.3047 28.4391 82.7961 26.8591 83.793 25.8394C84.7759 24.8196 86.3204 24.3025 88.3985 24.3025C89.3673 24.3025 90.2238 24.4174 90.9961 24.6328C91.7683 24.8483 92.4142 25.193 92.9478 25.6526C93.4813 26.1123 93.8885 26.7012 94.1693 27.4337C94.4501 28.1662 94.5906 29.028 94.5906 30.0334V31.6996H90.0553V31.6421Z" fill="#4BB166"/>
<path d="M108.995 38.2205C108.995 39.3265 108.897 40.3032 108.686 41.165C108.476 42.0268 108.139 42.7306 107.661 43.2908C107.184 43.8509 106.552 44.2818 105.78 44.5691C105.008 44.8564 104.039 45 102.887 45C101.736 45 100.767 44.8564 99.9809 44.5691C99.1946 44.2818 98.5628 43.8509 98.0713 43.2908C97.5799 42.7306 97.2289 42.0268 97.0182 41.165C96.8076 40.3176 96.6953 39.3265 96.6953 38.2205V30.1628C96.6953 28.2525 97.2289 26.7874 98.296 25.7676C99.3631 24.7622 100.894 24.2451 102.887 24.2451C104.881 24.2451 106.398 24.7478 107.437 25.7676C108.476 26.7874 108.995 28.2381 108.995 30.1628V38.2205V38.2205ZM104.446 30.4788C104.446 30.1771 104.432 29.8755 104.404 29.5595C104.376 29.2435 104.32 28.9563 104.207 28.6977C104.095 28.4392 103.94 28.2381 103.73 28.0657C103.519 27.9077 103.224 27.8216 102.845 27.8216C102.48 27.8216 102.199 27.9077 101.975 28.0657C101.764 28.2381 101.596 28.4392 101.483 28.6977C101.371 28.9563 101.301 29.2435 101.259 29.5595C101.217 29.8755 101.202 30.1771 101.202 30.4788V38.6084C101.202 38.8956 101.217 39.1972 101.259 39.5276C101.287 39.858 101.371 40.1739 101.483 40.4468C101.596 40.7341 101.764 40.9639 101.989 41.1506C102.213 41.3374 102.508 41.4235 102.859 41.4235C103.224 41.4235 103.505 41.3374 103.73 41.1506C103.94 40.9639 104.109 40.7341 104.207 40.4468C104.306 40.1596 104.376 39.858 104.404 39.5276C104.432 39.1972 104.446 38.8813 104.446 38.6084V30.4788V30.4788Z" fill="#4BB166"/>
</svg>
