<svg width="190" height="68" viewBox="0 0 190 68" fill="none" xmlns="http://www.w3.org/2000/svg">
<path d="M57.7844 32.199V25.0316H61.4086C63.4019 25.0316 65.0328 26.6343 65.0328 28.6153C65.0328 30.5964 63.4246 32.199 61.4086 32.199H57.7844ZM67.683 25.0316C67.0488 23.9409 66.1427 23.0505 65.0328 22.405C63.9682 21.804 62.7224 21.4479 61.4086 21.4479H54.1602V46.5784H57.7844V35.805H61.4086C62.7224 35.805 63.9682 35.4489 65.0328 34.8479C66.1201 34.2246 67.0488 33.312 67.683 32.2213C68.2946 31.1751 68.6571 29.9509 68.6571 28.6376C68.6571 27.302 68.2946 26.0778 67.683 25.0316Z" fill="black"/>
<path d="M8.8586 25.0316H12.4828C14.4761 25.0316 16.1071 26.6343 16.1071 28.6153C16.1071 30.5964 14.4761 32.199 12.4828 32.199H8.8586V25.0316ZM8.8586 35.805H9.6514L17.2623 46.5784H21.6793L13.9552 35.6269C14.7253 35.4711 15.4275 35.204 16.0844 34.8256C17.217 34.2024 18.123 33.2897 18.7573 32.199C19.3689 31.1529 19.7313 29.9286 19.7313 28.6153C19.7313 27.302 19.3689 26.0778 18.7573 25.0316C18.123 23.9409 17.217 23.0283 16.1071 22.405C15.0424 21.804 13.7966 21.4479 12.4828 21.4479H5.23438V46.5784H8.8586V35.805Z" fill="black"/>
<path d="M34.2258 25.0316H43.2864V21.4479H30.6016V46.5562H43.2864V42.9725H34.2258V35.805H41.4742V32.199H34.2258V25.0316Z" fill="black"/>
<path d="M121.503 25.0316H130.564V21.4479H117.879V46.5562H130.564V42.9725H121.503V35.805H128.752V32.199H121.503V25.0316Z" fill="black"/>
<path d="M169.523 25.0316H178.583V21.4479H165.898V46.5562H178.583V42.9725H169.523V35.805H176.771V32.199H169.523V25.0316Z" fill="black"/>
<path d="M148.232 37.1851L142.456 21.4257H138.605L148.232 47.6692L157.882 21.4257H154.031L148.232 37.1851Z" fill="black"/>
<path d="M72.6213 19.6449C77.0384 13.8353 84.015 10.0735 91.9203 10.0735C98.2627 10.0735 103.994 12.4997 108.32 16.4619H106.463V19.6449H114.028V12.1436H110.812V14.3472C105.896 9.71733 99.2594 6.86816 91.943 6.86816C82.9957 6.86816 75.045 11.1197 70.0391 17.7084L72.6213 19.6227" fill="#79B945"/>
<path d="M111.219 48.3591C106.802 54.1688 99.8256 57.9306 91.9203 57.9306C85.5779 57.9306 79.8471 55.5043 75.5207 51.5422H77.3781V48.3591H69.8125V55.8605H73.029V53.6568C77.9444 58.2867 84.5812 61.1359 91.8976 61.1359C100.845 61.1359 108.796 56.8621 113.802 50.2734L111.219 48.3591Z" fill="#79B945"/>
<path d="M73.1875 34.0021C73.1875 44.2413 81.5685 52.544 91.9202 52.544C94.9782 52.544 97.8549 51.8094 100.414 50.5184L90.0175 35.8051H89.202V46.5785H85.5778V21.4257H92.8263C94.14 21.4257 95.3859 21.7818 96.4505 22.3828C97.5378 23.0061 98.4665 23.9187 99.1007 25.0094C99.7123 26.0779 100.075 27.2799 100.075 28.5931C100.075 29.9064 99.7123 31.1307 99.1007 32.1769C98.4665 33.2676 97.5604 34.1579 96.4505 34.8034C95.7936 35.1818 95.0688 35.449 94.2986 35.6048L103.45 48.5596C107.821 45.1539 110.63 39.9008 110.63 33.9799C110.63 23.7406 102.249 15.438 91.8976 15.438C81.5685 15.4602 73.1875 23.7629 73.1875 34.0021Z" fill="black"/>
<path d="M96.4516 28.6153C96.4516 26.6343 94.8207 25.0316 92.8273 25.0316H89.2031V32.1991H92.8273C94.8207 32.1991 96.4516 30.5964 96.4516 28.6153Z" fill="black"/>
<path d="M181.94 22.5608H182.212C182.37 22.5608 182.483 22.6721 182.483 22.8279C182.483 22.9837 182.37 23.095 182.212 23.095H181.94V22.5608ZM181.94 23.3844H182.008L182.597 24.208H182.936L182.348 23.3621C182.393 23.3399 182.461 23.3399 182.506 23.2954C182.597 23.2508 182.665 23.1841 182.71 23.095C182.755 23.006 182.778 22.917 182.778 22.8279C182.778 22.7166 182.755 22.6276 182.71 22.5608C182.665 22.4718 182.597 22.405 182.506 22.3605C182.415 22.316 182.325 22.2937 182.234 22.2937H181.668V24.208H181.94V23.3844Z" fill="black"/>
<path d="M182.14 24.7645C181.302 24.7645 180.6 24.0745 180.6 23.2509C180.6 22.405 181.279 21.7372 182.14 21.7372C182.978 21.7372 183.681 22.405 183.681 23.2509C183.681 24.0745 182.978 24.7645 182.14 24.7645ZM182.14 21.4479C181.144 21.4479 180.328 22.2492 180.328 23.2509C180.328 24.2303 181.144 25.0539 182.14 25.0539C183.137 25.0539 183.952 24.2525 183.952 23.2509C183.952 22.2492 183.137 21.4479 182.14 21.4479Z" fill="black"/>
</svg>
