<svg width="122" height="64" viewBox="0 0 122 64" fill="none" xmlns="http://www.w3.org/2000/svg">
<path d="M25.9387 51.1892H25.4363V47.4616H24.3828V47.0078H26.9921V47.4616H25.9387" fill="black"/>
<path d="M28.4812 49.2929V49.1309C28.4812 48.7743 28.3678 48.3691 27.9464 48.3691C27.4278 48.3691 27.3792 49.0012 27.3792 49.1957V49.3091H28.4812V49.2929ZM27.3467 49.6657C27.3467 50.1519 27.3467 50.865 27.9464 50.865C28.4164 50.865 28.4812 50.3788 28.4812 50.1357H28.9674C28.9674 50.4598 28.773 51.2378 27.914 51.2378C27.1523 51.2378 26.8281 50.7029 26.8281 49.6333C26.8281 48.8553 26.974 47.9478 27.9464 47.9478C28.9026 47.9478 28.9998 48.7905 28.9998 49.455V49.6495" fill="black"/>
<path d="M30.8828 48.969C30.8828 48.58 30.7694 48.3531 30.4128 48.3531C30.2508 48.3531 29.9104 48.4018 29.9104 48.8393C29.9104 49.2121 30.2994 49.2769 30.6883 49.4066C31.0611 49.5362 31.4501 49.6659 31.4501 50.298C31.4501 50.9624 31.0287 51.2866 30.4452 51.2866C29.3756 51.2866 29.3594 50.4924 29.3594 50.1683H29.8456C29.8456 50.5411 29.959 50.8976 30.429 50.8976C30.5911 50.8976 30.9477 50.8166 30.9477 50.379C30.9477 49.9576 30.5587 49.8766 30.1859 49.7469C29.797 49.6173 29.408 49.5038 29.408 48.8555C29.408 48.2721 29.8618 47.9966 30.4128 47.9966C31.3204 47.9966 31.369 48.6287 31.369 49.0014" fill="black"/>
<path d="M32.0788 47.1372H32.565V48.0448H33.116V48.4338H32.565V50.4434C32.565 50.7027 32.6298 50.8 32.8891 50.8C33.0026 50.8 33.0512 50.7838 33.0998 50.7838V51.1889C33.035 51.2051 32.9053 51.2213 32.7109 51.2213C32.2084 51.2213 32.0788 51.0107 32.0788 50.6055V48.4338H31.625V48.0448H32.0788" fill="black"/>
<path d="M34.9969 49.2929V49.1309C34.9969 48.7743 34.8834 48.3691 34.462 48.3691C33.9434 48.3691 33.8948 49.0012 33.8948 49.1957V49.3091H34.9969V49.2929ZM33.8624 49.6657C33.8624 50.1519 33.8624 50.865 34.462 50.865C34.932 50.865 34.9969 50.3788 34.9969 50.1357H35.4831C35.4831 50.4598 35.2886 51.2378 34.4296 51.2378C33.6679 51.2378 33.3438 50.7029 33.3438 49.6333C33.3438 48.8553 33.4896 47.9478 34.462 47.9478C35.4182 47.9478 35.5155 48.7905 35.5155 49.455V49.6495" fill="black"/>
<path d="M37.0234 50.8488C37.5744 50.8488 37.6554 50.3302 37.6554 49.6171C37.6554 49.0013 37.542 48.3854 37.0234 48.3854C36.5696 48.3854 36.4561 48.8716 36.4561 49.6171C36.4399 50.3626 36.5696 50.8488 37.0234 50.8488ZM38.1092 51.1892H37.6392V50.8002C37.5744 51.0433 37.2989 51.2702 36.9585 51.2702C36.213 51.2702 35.9375 50.6057 35.9375 49.6171C35.9375 48.9688 36.0509 47.964 36.9261 47.964C37.2016 47.964 37.5096 48.1261 37.6068 48.4016H37.623V47.0078H38.1092" fill="black"/>
<path d="M40.3132 48.4338H39.8594V48.0448H40.3132V47.6721C40.3132 47.2021 40.5239 46.959 40.9939 46.959H41.3504V47.3804H41.1235C40.9128 47.3804 40.8156 47.4614 40.8156 47.6721V48.0448H41.3504V48.4338H40.8156V51.189H40.3294" fill="black"/>
<path d="M43.2816 49.617C43.2816 48.9363 43.1844 48.3528 42.6495 48.3528C42.1471 48.3528 42.0499 48.9363 42.0499 49.617C42.0499 50.2977 42.1471 50.8811 42.6495 50.8811C43.1844 50.8811 43.2816 50.2977 43.2816 49.617ZM42.6657 47.9639C43.5733 47.9639 43.8002 48.7256 43.8002 49.617C43.8002 50.5083 43.5733 51.2701 42.6657 51.2701C41.7581 51.2701 41.5312 50.5083 41.5312 49.617C41.5312 48.7256 41.7581 47.9639 42.6657 47.9639Z" fill="black"/>
<path d="M44.2891 48.0449H44.7753V48.5149H44.7915C44.9373 48.2232 45.1156 47.9639 45.4722 47.9639C45.5694 47.9639 45.6504 47.9801 45.6829 47.9963V48.4825C45.6342 48.4825 45.5856 48.4663 45.4235 48.4663C45.1804 48.4663 44.7753 48.6932 44.7753 49.2118V51.189H44.2891" fill="black"/>
<path d="M47.4297 47.0078H47.9159V48.4016H47.9321C48.0618 48.1423 48.4021 47.964 48.6938 47.964C49.5042 47.964 49.5042 48.5961 49.5042 48.9526V51.173H49.018V49.0175C49.018 48.7744 49.0018 48.3854 48.5642 48.3854C48.3049 48.3854 47.9483 48.5637 47.9483 49.0175V51.173H47.4621" fill="black"/>
<path d="M51.5973 49.471C51.419 49.6655 50.9814 49.6979 50.7545 49.8438C50.5924 49.941 50.5114 50.0707 50.5114 50.3462C50.5114 50.6541 50.6248 50.881 50.949 50.881C51.2731 50.881 51.581 50.6055 51.581 50.2814V49.471H51.5973ZM50.0738 49.001C50.0738 48.2879 50.3817 47.98 51.1273 47.98C52.0835 47.98 52.0835 48.5472 52.0835 48.8876V50.6379C52.0835 50.7676 52.0835 50.8972 52.2293 50.8972C52.2941 50.8972 52.3266 50.881 52.3428 50.8648V51.2214C52.3104 51.2214 52.1807 51.2538 52.051 51.2538C51.8728 51.2538 51.6297 51.2538 51.6135 50.8486H51.5973C51.4352 51.1241 51.1435 51.3024 50.8355 51.3024C50.2521 51.3024 49.9766 50.9458 49.9766 50.3948C49.9766 49.9572 50.171 49.6493 50.56 49.5358L51.2245 49.3414C51.581 49.2279 51.581 49.1307 51.581 48.8714C51.581 48.5796 51.4028 48.4176 51.0786 48.4176C50.5438 48.4176 50.5438 48.92 50.5438 49.0334V49.0658" fill="black"/>
<path d="M52.7422 48.0449H53.2284V48.5149H53.2446C53.3905 48.2232 53.5687 47.9639 53.9253 47.9639C54.0225 47.9639 54.1036 47.9801 54.136 47.9963V48.4825C54.0874 48.4825 54.0387 48.4663 53.8767 48.4663C53.6336 48.4663 53.2284 48.6932 53.2284 49.2118V51.189H52.7422" fill="black"/>
<path d="M54.5312 48.0449H55.0013V48.4177H55.0175C55.1471 48.1259 55.4713 47.9639 55.7792 47.9639C56.1357 47.9639 56.3626 48.1097 56.4599 48.4663C56.6057 48.1908 56.8812 47.9639 57.2054 47.9639C58.0319 47.9639 58.0319 48.5959 58.0319 48.9525V51.1728H57.5457V49.0173C57.5457 48.7742 57.5295 48.3852 57.1244 48.3852C56.8975 48.3852 56.5409 48.5311 56.5409 49.0173V51.1728H56.0547V49.0173C56.0547 48.7742 56.0385 48.3852 55.6333 48.3852C55.4064 48.3852 55.0499 48.5311 55.0499 49.0173V51.1728H54.5637" fill="black"/>
<path d="M58.8757 48.4338H58.4219V48.0448H58.8757V47.6721C58.8757 47.2021 59.0864 46.959 59.5564 46.959H59.9129V47.3804H59.686C59.4753 47.3804 59.3781 47.4614 59.3781 47.6721V48.0448H59.9129V48.4338H59.3619V51.189H58.8757" fill="black"/>
<path d="M62.3089 51.189H61.8389V50.8162H61.8227C61.693 51.1079 61.3689 51.27 61.0609 51.27C60.2344 51.27 60.2344 50.6379 60.2344 50.2814V48.061H60.7206V50.2328C60.7206 50.4759 60.7368 50.8648 61.1906 50.8648C61.4499 50.8648 61.8064 50.6866 61.8064 50.2328V48.061H62.2927" fill="black"/>
<path d="M63.4784 47.0078H62.9922V51.1892H63.4784V47.0078Z" fill="black"/>
<path d="M66.8979 48.969C66.8979 48.58 66.7844 48.3531 66.4279 48.3531C66.2658 48.3531 65.9254 48.4018 65.9254 48.8393C65.9254 49.2121 66.3144 49.2769 66.7034 49.4066C67.0761 49.5362 67.4651 49.6659 67.4651 50.298C67.4651 50.9624 67.0437 51.2866 66.4603 51.2866C65.3906 51.2866 65.3906 50.4924 65.3906 50.1683H65.8768C65.8768 50.5411 65.9741 50.8976 66.4603 50.8976C66.6223 50.8976 66.9789 50.8166 66.9789 50.379C66.9789 49.9576 66.5899 49.8766 66.2172 49.7469C65.8282 49.6173 65.4392 49.5038 65.4392 48.8555C65.4392 48.2721 65.893 47.9966 66.4441 47.9966C67.3517 47.9966 67.3841 48.6287 67.4003 49.0014" fill="black"/>
<path d="M70.0042 51.189H69.5342V50.8162H69.518C69.3883 51.1079 69.0642 51.27 68.7562 51.27C67.9297 51.27 67.9297 50.6379 67.9297 50.2814V48.061H68.4159V50.2328C68.4159 50.4759 68.4321 50.8648 68.8859 50.8648C69.1452 50.8648 69.5018 50.6866 69.5018 50.2328V48.061H69.988" fill="black"/>
<path d="M71.7421 50.8488C72.1959 50.8488 72.3094 50.3302 72.3094 49.6171C72.3094 48.8716 72.1959 48.3854 71.7421 48.3854C71.2235 48.3854 71.11 49.0013 71.11 49.6171C71.1262 50.2654 71.2235 50.8488 71.7421 50.8488ZM70.6562 47.0078H71.1425V48.4016H71.1587C71.2721 48.1261 71.5638 47.964 71.888 47.964C72.7307 47.964 72.8442 48.9526 72.8442 49.6171C72.8442 50.5085 72.5525 51.2702 71.8231 51.2702C71.4828 51.2702 71.2073 51.0271 71.1425 50.8002H71.1262V51.1892H70.6562" fill="black"/>
<path d="M74.7031 48.969C74.7031 48.58 74.5897 48.3531 74.2331 48.3531C74.0711 48.3531 73.7307 48.4018 73.7307 48.8393C73.7307 49.2121 74.1197 49.2769 74.5087 49.4066C74.8976 49.5362 75.2704 49.6659 75.2704 50.298C75.2704 50.9624 74.849 51.2866 74.2656 51.2866C73.1959 51.2866 73.1797 50.4924 73.1797 50.1683H73.6659C73.6659 50.5411 73.7631 50.8976 74.2493 50.8976C74.4114 50.8976 74.768 50.8166 74.768 50.379C74.768 49.9576 74.379 49.8766 74.0062 49.7469C73.6173 49.6173 73.2283 49.5038 73.2283 48.8555C73.2283 48.2721 73.6821 47.9966 74.2331 47.9966C75.1407 47.9966 75.1893 48.6287 75.1893 49.0014" fill="black"/>
<path d="M75.9075 47.1372H76.3937V48.0448H76.9447V48.4338H76.3937V50.4434C76.3937 50.7027 76.4585 50.8 76.7178 50.8C76.8151 50.8 76.8799 50.7838 76.9285 50.7838V51.1889C76.8637 51.2051 76.7341 51.2213 76.5234 51.2213C76.021 51.2213 75.8913 51.0107 75.8913 50.6055V48.4338H75.4375V48.0448H75.8913" fill="black"/>
<path d="M78.706 49.471C78.5278 49.6655 78.0902 49.6979 77.8633 49.8438C77.7012 49.941 77.6202 50.0707 77.6202 50.3462C77.6202 50.6541 77.7336 50.881 78.074 50.881C78.3981 50.881 78.706 50.6055 78.706 50.2814V49.471ZM77.1988 49.001C77.1988 48.2879 77.5067 47.98 78.2523 47.98C79.2085 47.98 79.2085 48.5472 79.2085 48.8876V50.6379C79.2085 50.7676 79.2085 50.8972 79.3543 50.8972C79.4191 50.8972 79.4516 50.881 79.4678 50.8648V51.2214C79.4354 51.2214 79.3057 51.2538 79.176 51.2538C78.9816 51.2538 78.7547 51.2538 78.7385 50.8486H78.7223C78.5602 51.1241 78.2685 51.3024 77.9605 51.3024C77.3771 51.3024 77.1016 50.9458 77.1016 50.3948C77.1016 49.9572 77.2798 49.6493 77.685 49.5358L78.3495 49.3414C78.706 49.2279 78.706 49.1307 78.706 48.8714C78.706 48.5796 78.5278 48.4176 78.2036 48.4176C77.6688 48.4176 77.6688 48.92 77.6688 49.0334V49.0658" fill="black"/>
<path d="M79.875 48.0449H80.345V48.4177H80.3612C80.4909 48.1259 80.815 47.9639 81.1229 47.9639C81.9495 47.9639 81.9495 48.5959 81.9495 48.9525V51.1728H81.4633V49.0173C81.4633 48.7742 81.4471 48.3852 81.0095 48.3852C80.7502 48.3852 80.3936 48.5635 80.3936 49.0173V51.1728H79.9074" fill="black"/>
<path d="M84.0744 49.0013C84.0744 48.6933 83.9609 48.353 83.572 48.353C83.264 48.353 82.9561 48.4988 82.9561 49.6495C82.9561 50.0547 82.9561 50.8813 83.5558 50.8813C83.9772 50.8813 84.0744 50.4437 84.0744 50.1033H84.5606C84.5606 50.6057 84.3175 51.2702 83.5234 51.2702C82.7616 51.2702 82.4375 50.7354 82.4375 49.6657C82.4375 48.8878 82.5834 47.9802 83.5558 47.9802C84.4147 47.9802 84.5606 48.6447 84.5606 49.0175" fill="black"/>
<path d="M86.6375 49.2929V49.1309C86.6375 48.7743 86.524 48.3691 86.0864 48.3691C85.5678 48.3691 85.5192 49.0012 85.5192 49.1957V49.3091H86.6375V49.2929ZM85.503 49.6657C85.503 50.1519 85.503 50.865 86.1026 50.865C86.5726 50.865 86.6375 50.3788 86.6375 50.1357H87.1237C87.1237 50.4598 86.9292 51.2378 86.0702 51.2378C85.3085 51.2378 84.9844 50.7029 84.9844 49.6333C84.9844 48.8553 85.1302 47.9478 86.1026 47.9478C87.0589 47.9478 87.1561 48.7905 87.1561 49.455V49.6495" fill="black"/>
<path d="M89.0307 48.969C89.0307 48.58 88.9172 48.3531 88.5769 48.3531C88.4148 48.3531 88.0745 48.4018 88.0745 48.8393C88.0745 49.2121 88.4634 49.2769 88.8524 49.4066C89.2252 49.5362 89.6141 49.6659 89.6141 50.298C89.6141 50.9624 89.1927 51.2866 88.6093 51.2866C87.5396 51.2866 87.5234 50.4924 87.5234 50.1683H88.0096C88.0096 50.5411 88.1069 50.8976 88.5931 50.8976C88.7552 50.8976 89.1117 50.8166 89.1117 50.379C89.1117 49.9576 88.7227 49.8766 88.35 49.7469C87.9772 49.6173 87.5883 49.5038 87.5883 48.8555C87.5883 48.2721 88.0421 47.9966 88.5931 47.9966C89.5007 47.9966 89.5331 48.6287 89.5493 49.0014" fill="black"/>
<path d="M90.7223 50.5571H90.1875V51.173H90.7223V50.5571Z" fill="black"/>
<path d="M19.4766 55.0786H19.9952L20.4976 57.6393H20.5138L21.0324 55.0786H21.6159L22.1345 57.6393H22.1507L22.6369 55.0786H23.1555L22.41 58.2228H21.859L21.3241 55.6621H21.3079L20.7731 58.2228H20.2059" fill="black"/>
<path d="M23.2656 55.0789H23.7842L24.2867 57.6396H24.3029L24.8377 55.0789H25.4049L25.9398 57.6396L26.426 55.0789H26.9446L26.1991 58.223H25.6642L25.1132 55.6623H25.097L24.5784 58.223H23.9949" fill="black"/>
<path d="M27.0781 55.0786H27.5805L28.083 57.6393H28.0992L28.634 55.0786H29.2174L29.7361 57.6393H29.7523L30.2385 55.0786H30.7409L30.0116 58.2228H29.4605L28.9095 55.6621L28.3747 58.2228H27.8074" fill="black"/>
<path d="M31.5661 57.6069H31.0312V58.2228H31.5661V57.6069Z" fill="black"/>
<path d="M33.9144 56.6507C33.9144 55.97 33.8172 55.3865 33.2823 55.3865C32.7799 55.3865 32.6827 55.97 32.6827 56.6507C32.6827 57.3314 32.7799 57.9148 33.2823 57.9148C33.8172 57.9148 33.9144 57.3314 33.9144 56.6507ZM33.2985 54.9976C34.2061 54.9976 34.433 55.7593 34.433 56.6507C34.433 57.5258 34.2061 58.3038 33.2985 58.3038C32.391 58.3038 32.1641 57.542 32.1641 56.6507C32.1641 55.7755 32.391 54.9976 33.2985 54.9976Z" fill="black"/>
<path d="M36.4734 56.3264V56.1644C36.4734 55.8078 36.36 55.4026 35.9386 55.4026C35.42 55.4026 35.3713 56.0347 35.3713 56.213V56.3264H36.4734ZM35.3389 56.7154C35.3389 57.2016 35.3389 57.9147 35.9386 57.9147C36.4086 57.9147 36.4734 57.4285 36.4734 57.1854H36.9596C36.9596 57.5257 36.7651 58.3037 35.9062 58.3037C35.1445 58.3037 34.8203 57.7688 34.8203 56.6992C34.8203 55.9213 34.9662 55.0137 35.9386 55.0137C36.8948 55.0137 36.992 55.8564 36.992 56.5209V56.7154" fill="black"/>
<path d="M39.8572 58.2229H39.29L38.4148 56.667L38.0096 57.1694V58.2229H37.5234V54.0415H38.0096V56.5374H38.0259L39.1279 55.0787H39.6952L38.739 56.2619" fill="black"/>
<path d="M41.7269 56.6507C41.7269 55.97 41.6297 55.3865 41.0948 55.3865C40.5924 55.3865 40.4952 55.97 40.4952 56.6507C40.4952 57.3314 40.5924 57.9148 41.0948 57.9148C41.6135 57.9148 41.7269 57.3314 41.7269 56.6507ZM41.111 54.9976C42.0186 54.9976 42.2455 55.7593 42.2455 56.6507C42.2455 57.5258 42.0186 58.3038 41.111 58.3038C40.2035 58.3038 39.9766 57.542 39.9766 56.6507C39.9766 55.7755 40.2035 54.9976 41.111 54.9976Z" fill="black"/>
<path d="M44.1528 56.3267H42.7266V56.7805H44.1528V56.3267Z" fill="black"/>
<path d="M44.9309 54.1709H45.4171V55.0785H45.9682V55.4674H45.4171V57.4771C45.4171 57.7202 45.482 57.8337 45.7413 57.8337C45.8547 57.8337 45.9034 57.8175 45.952 57.8175V58.2226C45.8871 58.2388 45.7575 58.255 45.5468 58.255C45.0444 58.255 44.9147 58.0443 44.9147 57.6392V55.4674H44.4609V55.0785H44.9147" fill="black"/>
<path d="M47.8484 56.3264V56.1644C47.8484 55.8078 47.735 55.4026 47.3136 55.4026C46.795 55.4026 46.7463 56.0347 46.7463 56.213V56.3264H47.8484ZM46.7139 56.7154C46.7139 57.2016 46.7139 57.9147 47.3136 57.9147C47.7836 57.9147 47.8484 57.4285 47.8484 57.1854H48.3346C48.3346 57.5257 48.1401 58.3037 47.2812 58.3037C46.5195 58.3037 46.1953 57.7688 46.1953 56.6992C46.1953 55.9213 46.3412 55.0137 47.3136 55.0137C48.2698 55.0137 48.367 55.8564 48.367 56.5209V56.7154" fill="black"/>
<path d="M48.6976 55.0786H49.2325L49.7997 56.1969L50.367 55.0786H50.9018L50.0914 56.5859L50.9342 58.2228H50.3994L49.7673 56.9748L49.1676 58.2228H48.6328L49.4918 56.5859" fill="black"/>
<path d="M51.9333 57.6069H51.3984V58.2228H51.9333V57.6069Z" fill="black"/>
<path d="M54.1916 56.0347C54.1916 55.7268 54.0619 55.3864 53.6892 55.3864C53.3812 55.3864 53.0733 55.5323 53.0733 56.683C53.0733 57.0882 53.0733 57.9147 53.673 57.9147C54.0943 57.9147 54.1916 57.4609 54.1916 57.1368H54.6778C54.6778 57.6392 54.4347 58.3037 53.6406 58.3037C52.8788 58.3037 52.5547 57.7688 52.5547 56.6992C52.5547 55.9213 52.7006 55.0137 53.673 55.0137C54.5319 55.0137 54.6778 55.6782 54.6778 56.0509" fill="black"/>
<path d="M56.7972 56.6507C56.7972 55.97 56.7 55.3865 56.1651 55.3865C55.6627 55.3865 55.5655 55.97 55.5655 56.6507C55.5655 57.3314 55.6627 57.9148 56.1651 57.9148C56.6838 57.9148 56.7972 57.3314 56.7972 56.6507ZM56.1814 54.9976C57.0889 54.9976 57.3158 55.7593 57.3158 56.6507C57.3158 57.5258 57.0889 58.3038 56.1814 58.3038C55.2738 58.3038 55.0469 57.542 55.0469 56.6507C55.0469 55.7755 55.2738 54.9976 56.1814 54.9976Z" fill="black"/>
<path d="M57.8516 55.0786H58.3216V55.4514H58.3378C58.4674 55.1596 58.7916 54.9976 59.0995 54.9976C59.456 54.9976 59.6829 55.1434 59.7802 55.5C59.926 55.2245 60.2016 54.9976 60.5257 54.9976C61.3523 54.9976 61.3523 55.6296 61.3523 55.9862V58.2065H60.866V56.0348C60.866 55.7917 60.8498 55.4027 60.4447 55.4027C60.2178 55.4027 59.8612 55.5486 59.8612 56.0348V58.2065H59.375V56.0348C59.375 55.7917 59.3588 55.4027 58.9536 55.4027C58.7267 55.4027 58.3702 55.5486 58.3702 56.0348V58.2065H57.884" fill="black"/>
<path d="M63.0176 53.9604H63.3904L62.0452 58.3039H61.6562L63.0176 53.9604Z" fill="black"/>
<path d="M65.0151 56.0027C65.0151 55.6137 64.9016 55.3868 64.5451 55.3868C64.383 55.3868 64.0426 55.4354 64.0426 55.873C64.0426 56.2458 64.4316 56.3106 64.8206 56.4403C65.1933 56.5699 65.5823 56.6996 65.5823 57.3317C65.5823 57.9961 65.1609 58.3203 64.5775 58.3203C63.5078 58.3203 63.5078 57.5261 63.5078 57.202H63.994C63.994 57.591 64.0913 57.9313 64.5775 57.9313C64.7395 57.9313 65.0961 57.8503 65.0961 57.4127C65.0961 56.9913 64.7071 56.9103 64.3344 56.7806C63.9454 56.651 63.5564 56.5375 63.5564 55.8892C63.5564 55.3058 64.0102 55.0303 64.5613 55.0303C65.4688 55.0303 65.5175 55.6623 65.5175 56.0351" fill="black"/>
<path d="M66.1966 54.1709H66.6828V55.0785H67.2176V55.4674H66.6828V57.4771C66.6828 57.7202 66.7476 57.8337 67.0069 57.8337C67.1204 57.8337 67.169 57.8175 67.2176 57.8175V58.2226C67.1528 58.2388 67.0231 58.255 66.8124 58.255C66.31 58.255 66.1804 58.0443 66.1804 57.6392V55.4674H65.7266V55.0785H66.1804" fill="black"/>
<path d="M69.0191 56.5048C68.8409 56.6993 68.4033 56.7317 68.1764 56.8776C68.0143 56.9748 67.9333 57.1045 67.9333 57.38C67.9333 57.6879 68.0467 57.9148 68.3871 57.9148C68.7112 57.9148 69.0191 57.6393 69.0191 57.3151V56.5048ZM67.4957 56.0348C67.4957 55.3217 67.8036 54.9976 68.5491 54.9976C69.5053 54.9976 69.5053 55.5648 69.5053 55.9051V57.6555C69.5053 57.7851 69.5053 57.9148 69.6512 57.9148C69.716 57.9148 69.7484 57.8986 69.7646 57.8824V58.2389C69.7322 58.2389 69.6026 58.2714 69.4729 58.2714C69.2784 58.2714 69.0515 58.2714 69.0353 57.8662H69.0191C68.8571 58.1417 68.5653 58.32 68.2574 58.32C67.674 58.32 67.3984 57.9634 67.3984 57.4124C67.3984 56.9748 67.5767 56.6669 67.9819 56.5534L68.6464 56.3589C69.0029 56.2455 69.0029 56.1482 69.0029 55.8889C69.0029 55.5972 68.8246 55.4351 68.5005 55.4351C67.9657 55.4351 67.9657 55.9376 67.9657 56.051V56.0834" fill="black"/>
<path d="M70.1719 55.0786H70.6419V55.4514H70.6581C70.7877 55.1596 71.1119 54.9976 71.4198 54.9976C72.2464 54.9976 72.2464 55.6296 72.2464 55.9862V58.2065H71.7602V56.0348C71.7602 55.7917 71.7439 55.4027 71.2902 55.4027C71.0308 55.4027 70.6743 55.581 70.6743 56.0348V58.2065H70.1881" fill="black"/>
<path d="M73.8599 57.8825C74.4109 57.8825 74.492 57.3639 74.492 56.6508C74.492 56.035 74.3785 55.4191 73.8599 55.4191C73.4061 55.4191 73.2926 55.9053 73.2926 56.6508C73.2764 57.3963 73.4061 57.8825 73.8599 57.8825ZM74.9457 58.2229H74.4757V57.8339H74.4595C74.3947 58.077 74.1192 58.3039 73.7788 58.3039C73.0333 58.3039 72.7578 57.6394 72.7578 56.6508C72.7578 56.0025 72.8551 54.9977 73.7464 54.9977C74.022 54.9977 74.3299 55.1598 74.4271 55.4353H74.4433V54.0415H74.9295" fill="black"/>
<path d="M77.042 56.5048C76.8637 56.6993 76.4261 56.7317 76.1992 56.8776C76.0372 56.9748 75.9561 57.1045 75.9561 57.38C75.9561 57.6879 76.0696 57.9148 76.4099 57.9148C76.7341 57.9148 77.042 57.6393 77.042 57.3151V56.5048ZM75.5347 56.0348C75.5347 55.3217 75.8427 54.9976 76.5882 54.9976C77.5444 54.9976 77.5444 55.5648 77.5444 55.9051V57.6555C77.5444 57.7851 77.5444 57.9148 77.6903 57.9148C77.7551 57.9148 77.7875 57.8986 77.8037 57.8824V58.2389C77.7713 58.2389 77.6416 58.2714 77.512 58.2714C77.3175 58.2714 77.0906 58.2714 77.0744 57.8662H77.0582C76.8961 58.1417 76.6044 58.32 76.2965 58.32C75.713 58.32 75.4375 57.9634 75.4375 57.4124C75.4375 56.9748 75.6158 56.6669 76.0209 56.5534L76.6854 56.3589C77.042 56.2455 77.042 56.1482 77.042 55.8889C77.042 55.5972 76.8637 55.4351 76.5396 55.4351C76.0047 55.4351 76.0047 55.9376 76.0047 56.051V56.0834" fill="black"/>
<path d="M78.2031 55.0786H78.6893V55.5486H78.7055C78.8514 55.2407 79.0297 54.9976 79.3862 54.9976C79.4835 54.9976 79.5645 55.0138 79.5969 55.03V55.5C79.5483 55.5 79.4835 55.4838 79.3376 55.4838C79.0945 55.4838 78.6893 55.7107 78.6893 56.2293V58.2065H78.2031" fill="black"/>
<path d="M80.9146 57.8825C81.4656 57.8825 81.5466 57.3639 81.5466 56.6508C81.5466 56.035 81.4494 55.4191 80.9146 55.4191C80.4608 55.4191 80.3473 55.9053 80.3473 56.6508C80.3473 57.3963 80.4608 57.8825 80.9146 57.8825ZM82.0004 58.2229H81.5304V57.8339H81.5142C81.4494 58.077 81.1739 58.3039 80.8335 58.3039C80.088 58.3039 79.8125 57.6394 79.8125 56.6508C79.8125 56.0025 79.9259 54.9977 80.8011 54.9977C81.0766 54.9977 81.3846 55.1598 81.498 55.4353H81.5142V54.0415H82.0004" fill="black"/>
<path d="M82.7266 54.7544C83.2452 54.722 83.7314 54.6572 83.7476 54.0737H84.1042V58.2227H83.6179V55.111H82.7428" fill="black"/>
<path d="M86.5503 57.9152C87.1824 57.9152 87.2148 57.0886 87.2148 56.2134C87.2148 55.3058 87.1824 54.4631 86.5503 54.4631C85.9182 54.4631 85.8858 55.2896 85.8858 56.2134C85.8858 57.0886 85.9182 57.9152 86.5503 57.9152ZM85.3672 56.2134C85.3672 55.3058 85.432 54.0903 86.5503 54.0903C87.6686 54.0903 87.7334 55.2086 87.7334 56.2134C87.7334 57.0886 87.6686 58.3041 86.5503 58.3041C85.432 58.3041 85.3672 57.1858 85.3672 56.2134Z" fill="black"/>
<path d="M89.355 57.9152C89.987 57.9152 90.0195 57.0886 90.0195 56.2134C90.0195 55.3058 89.987 54.4631 89.355 54.4631C88.7229 54.4631 88.6905 55.2896 88.6905 56.2134C88.6905 57.0886 88.7229 57.9152 89.355 57.9152ZM88.1719 56.2134C88.1719 55.3058 88.2367 54.0903 89.355 54.0903C90.4733 54.0903 90.5381 55.2086 90.5381 56.2134C90.5381 57.0886 90.4733 58.3041 89.355 58.3041C88.2367 58.3041 88.1719 57.1858 88.1719 56.2134Z" fill="black"/>
<path d="M22.646 21.6116C22.6298 21.6278 22.5974 21.6602 22.5488 21.6926C22.5002 21.725 22.4354 21.7575 22.3705 21.7899C22.2895 21.8223 22.1923 21.8547 22.095 21.8709C21.9816 21.8871 21.8519 21.9033 21.706 21.9033C21.4305 21.9033 21.2036 21.8547 20.9929 21.7737C20.7823 21.6926 20.6202 21.563 20.4905 21.4009C20.3609 21.2388 20.2636 21.0606 20.1988 20.8499C20.134 20.6392 20.1016 20.3961 20.1016 20.1368C20.1016 19.8775 20.134 19.6343 20.1988 19.4237C20.2636 19.213 20.3609 19.0185 20.4905 18.8564C20.6202 18.6943 20.7823 18.5809 20.9929 18.4837C21.1874 18.3864 21.4305 18.354 21.6898 18.354C21.8195 18.354 21.9491 18.3702 22.0464 18.3864C22.1598 18.4188 22.2409 18.435 22.3219 18.4675C22.4029 18.4999 22.4678 18.5323 22.5164 18.5647C22.565 18.5971 22.6136 18.6295 22.6298 18.6619C22.6623 18.6943 22.6785 18.7268 22.7109 18.7592C22.7433 18.7916 22.7433 18.8402 22.7433 18.8888C22.7433 18.9537 22.7109 19.0185 22.6623 19.0995C22.6136 19.1643 22.5488 19.2292 22.5002 19.2778C22.4516 19.2454 22.4191 19.1968 22.3705 19.1481C22.3219 19.0995 22.2571 19.0671 22.1923 19.0347C22.1274 19.0023 22.0626 18.9699 21.9816 18.9537C21.9005 18.9212 21.8195 18.9212 21.706 18.9212C21.5278 18.9212 21.3819 18.9537 21.2685 19.0347C21.155 19.0995 21.0578 19.1968 20.9929 19.3102C20.9281 19.4237 20.8633 19.5533 20.8471 19.6992C20.8147 19.845 20.7985 19.9909 20.7985 20.1368C20.7985 20.2988 20.8147 20.4447 20.8471 20.5906C20.8795 20.7364 20.9281 20.8661 21.0091 20.9795C21.0902 21.093 21.1874 21.174 21.3009 21.255C21.4143 21.3199 21.5764 21.3523 21.7547 21.3523C21.8519 21.3523 21.9329 21.3361 22.014 21.3199C22.095 21.3037 22.1598 21.2712 22.2247 21.2388C22.2895 21.2064 22.3381 21.174 22.3867 21.1254C22.4354 21.093 22.4678 21.0606 22.5002 21.0281C22.5164 21.0606 22.5488 21.0768 22.565 21.1254C22.5974 21.1578 22.6136 21.1902 22.646 21.2388C22.6623 21.2712 22.6947 21.3199 22.7109 21.3523C22.7271 21.4009 22.7433 21.4333 22.7433 21.4495C22.7433 21.4981 22.7271 21.5306 22.7109 21.563C22.7109 21.5468 22.6785 21.5792 22.646 21.6116Z" fill="#878787"/>
<path d="M26.0844 20.1043C26.0844 19.9422 26.0682 19.7801 26.0358 19.6343C26.0033 19.4884 25.9547 19.3587 25.8899 19.2453C25.8251 19.1318 25.744 19.0508 25.6468 18.986C25.5495 18.9212 25.4199 18.8887 25.274 18.8887C25.1282 18.8887 24.9823 18.9212 24.8851 18.986C24.7878 19.0508 24.6906 19.1318 24.6258 19.2453C24.5609 19.3587 24.5123 19.4884 24.4799 19.6343C24.4475 19.7801 24.4313 19.926 24.4313 20.1043C24.4313 20.2663 24.4475 20.4284 24.4799 20.5743C24.5123 20.7201 24.5609 20.8498 24.6258 20.9632C24.6906 21.0767 24.7716 21.1739 24.8851 21.2387C24.9985 21.3036 25.1282 21.336 25.274 21.336C25.4361 21.336 25.5658 21.3036 25.663 21.2387C25.7764 21.1739 25.8575 21.0767 25.9223 20.9632C25.9871 20.8498 26.0358 20.7201 26.052 20.5743C26.0682 20.4122 26.0844 20.2663 26.0844 20.1043ZM26.7975 20.1043C26.7975 20.3474 26.7651 20.5743 26.7164 20.8012C26.6678 21.028 26.5706 21.2063 26.4409 21.3846C26.3113 21.5467 26.1492 21.6763 25.9547 21.7736C25.7602 21.8708 25.5171 21.9194 25.2416 21.9194C24.9661 21.9194 24.7392 21.8708 24.5447 21.7736C24.3502 21.6763 24.1882 21.5467 24.0747 21.3846C23.9613 21.2225 23.864 21.028 23.8154 20.8174C23.7668 20.6067 23.7344 20.3798 23.7344 20.1367C23.7344 19.8936 23.7668 19.6667 23.8316 19.456C23.8964 19.2453 23.9937 19.0508 24.1233 18.8887C24.253 18.7267 24.4151 18.597 24.6095 18.516C24.804 18.4187 25.0309 18.3701 25.3064 18.3701C25.5658 18.3701 25.8089 18.4187 25.9871 18.4998C26.1816 18.597 26.3275 18.7105 26.4571 18.8725C26.5868 19.0346 26.6678 19.2129 26.7327 19.4236C26.7651 19.618 26.7975 19.8449 26.7975 20.1043Z" fill="#878787"/>
<path d="M30.7528 21.8059H30.1694L28.727 19.5693V21.8059H28.0625V18.4186C28.0949 18.4024 28.1435 18.4024 28.1922 18.4024C28.2408 18.4024 28.3056 18.3862 28.3704 18.3862C28.4839 18.3862 28.5649 18.4024 28.6297 18.4349C28.6946 18.4673 28.7432 18.5321 28.7918 18.6131L30.1046 20.7524V18.4186C30.1532 18.4186 30.2018 18.4024 30.2342 18.4024C30.2828 18.4024 30.3153 18.4024 30.3315 18.4024C30.3801 18.4024 30.4287 18.4024 30.4773 18.4186C30.5259 18.4349 30.5746 18.4511 30.6232 18.4673C30.6718 18.4997 30.7042 18.5321 30.7366 18.5807C30.7528 18.6293 30.7691 18.6942 30.7691 18.7914" fill="#878787"/>
<path d="M32.7985 19.7479H33.8843V20.2989H32.7985V21.8224H32.1016V18.4189H34.2409C34.2409 18.4514 34.2409 18.4838 34.2571 18.5162C34.2571 18.5486 34.2571 18.5648 34.2571 18.6134C34.2571 18.7107 34.2247 18.8079 34.176 18.8727C34.1112 18.9376 34.014 18.97 33.8519 18.97H32.8147" fill="#878787"/>
<path d="M35.3203 18.4024C35.3689 18.4024 35.4176 18.3862 35.4662 18.3862C35.5148 18.3862 35.5472 18.3862 35.5634 18.3862C35.612 18.3862 35.6607 18.3862 35.7255 18.4024C35.7741 18.4024 35.8227 18.4349 35.8713 18.4511C35.92 18.4835 35.9524 18.5159 35.9848 18.5645C36.0172 18.6131 36.0334 18.678 36.0334 18.7752V21.8059H35.3365" fill="#878787"/>
<path d="M39.3606 20.0555C39.3606 19.8935 39.3444 19.7476 39.312 19.6017C39.2796 19.4559 39.231 19.3424 39.1499 19.229C39.0689 19.1317 38.9717 19.0507 38.842 18.9859C38.7124 18.9211 38.5503 18.8886 38.3558 18.8886C38.2586 18.8886 38.1613 18.8886 38.0479 18.9049V21.2386H38.3234C38.5179 21.2386 38.6962 21.2062 38.8258 21.1414C38.9555 21.0766 39.0689 20.9955 39.1337 20.8983C39.1986 20.8011 39.2634 20.6714 39.2958 20.5093C39.3444 20.4121 39.3606 20.2338 39.3606 20.0555ZM40.0737 20.0555C40.0737 20.2986 40.0413 20.5255 39.9765 20.7362C39.9117 20.9469 39.8144 21.1414 39.6848 21.3035C39.5551 21.4655 39.3768 21.5952 39.1824 21.6762C38.9717 21.7735 38.7286 21.8221 38.453 21.8221H37.3672V18.4511C37.5779 18.4186 37.7724 18.4024 37.9182 18.4024C38.0641 18.4024 38.2099 18.3862 38.3234 18.3862C38.6637 18.3862 38.9393 18.4349 39.1662 18.5159C39.3931 18.6131 39.5713 18.7266 39.701 18.8724C39.8306 19.0183 39.9279 19.1966 39.9927 19.4073C40.0413 19.6017 40.0737 19.8286 40.0737 20.0555Z" fill="#878787"/>
<path d="M43.088 21.271C43.2501 21.271 43.3635 21.3034 43.4284 21.3844C43.4932 21.4654 43.5094 21.5465 43.5094 21.6275C43.5094 21.6599 43.5094 21.6923 43.5094 21.7248C43.5094 21.741 43.5094 21.7734 43.4932 21.8058H41.2891V18.4023H43.4122C43.4122 18.4348 43.4122 18.4672 43.4284 18.4996C43.4284 18.532 43.4284 18.5644 43.4284 18.5968C43.4284 18.7103 43.396 18.8075 43.3311 18.8561C43.2663 18.921 43.1529 18.9534 42.9908 18.9534H41.986V19.7799H43.0556V20.331H41.986V21.271" fill="#878787"/>
<path d="M47.3159 21.8059H46.7325L45.2901 19.5693V21.8059H44.6094V18.4186C44.6418 18.4024 44.6904 18.4024 44.7552 18.4024C44.8039 18.4024 44.8687 18.3862 44.9173 18.3862C45.0308 18.3862 45.1118 18.4024 45.1766 18.4349C45.2414 18.4673 45.2901 18.5321 45.3387 18.6131L46.6514 20.7524V18.4186C46.7001 18.4186 46.7487 18.4024 46.7811 18.4024C46.8297 18.4024 46.8621 18.4024 46.8783 18.4024C46.927 18.4024 46.9756 18.4024 47.0242 18.4186C47.0728 18.4349 47.1214 18.4511 47.1701 18.4673C47.2025 18.4997 47.2511 18.5321 47.2673 18.5807C47.2997 18.6293 47.3159 18.6942 47.3159 18.7914" fill="#878787"/>
<path d="M51.0908 21.6116C51.0746 21.6278 51.0422 21.6602 50.9935 21.6926C50.9449 21.725 50.8801 21.7575 50.8153 21.7899C50.7342 21.8223 50.637 21.8547 50.5397 21.8709C50.4263 21.8871 50.2966 21.9033 50.167 21.9033C49.8915 21.9033 49.6484 21.8547 49.4539 21.7737C49.2432 21.6926 49.0811 21.563 48.9515 21.4009C48.8218 21.2388 48.7246 21.0606 48.6597 20.8499C48.5949 20.6392 48.5625 20.3961 48.5625 20.1368C48.5625 19.8775 48.5949 19.6343 48.6597 19.4237C48.7246 19.213 48.8218 19.0185 48.9515 18.8564C49.0811 18.6943 49.2432 18.5809 49.4539 18.4837C49.6646 18.3864 49.8753 18.354 50.1508 18.354C50.2804 18.354 50.4101 18.3702 50.5073 18.3864C50.6208 18.4188 50.7018 18.435 50.7828 18.4675C50.8639 18.4999 50.9287 18.5323 50.9773 18.5647C51.0259 18.5971 51.0746 18.6295 51.0908 18.6619C51.1232 18.6943 51.1394 18.7268 51.1718 18.7592C51.188 18.7916 51.2042 18.8402 51.2042 18.8888C51.2042 18.9537 51.1718 19.0185 51.1232 19.0995C51.0746 19.1643 51.0097 19.2292 50.9611 19.2778C50.9287 19.2454 50.8801 19.1968 50.8315 19.1481C50.7828 19.0995 50.718 19.0671 50.6694 19.0347C50.6046 19.0023 50.5397 18.9699 50.4587 18.9537C50.3777 18.9212 50.2804 18.9212 50.1832 18.9212C50.0049 18.9212 49.8753 18.9537 49.7456 19.0347C49.6322 19.0995 49.5349 19.1968 49.4701 19.3102C49.4053 19.4237 49.3404 19.5533 49.308 19.6992C49.2756 19.845 49.2594 19.9909 49.2594 20.1368C49.2594 20.2988 49.2756 20.4447 49.308 20.5906C49.3404 20.7364 49.3891 20.8661 49.4701 20.9795C49.5511 21.093 49.6322 21.174 49.7618 21.255C49.8753 21.3199 50.0373 21.3523 50.2156 21.3523C50.3128 21.3523 50.3939 21.3361 50.4749 21.3199C50.5559 21.3037 50.6208 21.2712 50.6856 21.2388C50.7504 21.2064 50.7991 21.174 50.8477 21.1254C50.8963 21.093 50.9287 21.0606 50.9611 21.0281C50.9773 21.0606 51.0097 21.0768 51.0259 21.1254C51.0584 21.1578 51.0746 21.1902 51.107 21.2388C51.1394 21.2712 51.1556 21.3199 51.1718 21.3523C51.188 21.4009 51.2042 21.4333 51.2042 21.4495C51.2042 21.4981 51.188 21.5306 51.1718 21.563C51.1556 21.5468 51.1232 21.5792 51.0908 21.6116Z" fill="#878787"/>
<path d="M54.2046 21.2712C54.3667 21.2712 54.4801 21.3036 54.545 21.3847C54.6098 21.4657 54.626 21.5467 54.626 21.6278C54.626 21.6602 54.626 21.6926 54.626 21.725C54.626 21.7412 54.626 21.7736 54.626 21.806H52.4219V18.4026H54.545C54.545 18.435 54.5612 18.4674 54.5612 18.4998V18.5971C54.5612 18.7105 54.5288 18.8078 54.4639 18.8564C54.3991 18.9212 54.2857 18.9536 54.1236 18.9536H53.135V19.7802H54.2046V20.3312H53.135V21.2712" fill="#878787"/>
<path d="M57.5625 18.4024C57.6111 18.4024 57.6597 18.3862 57.7084 18.3862C57.757 18.3862 57.7894 18.3862 57.8218 18.3862C57.8704 18.3862 57.9191 18.3862 57.9839 18.4024C58.0325 18.4024 58.0811 18.4349 58.1297 18.4511C58.1784 18.4835 58.2108 18.5159 58.2432 18.5645C58.2756 18.6131 58.2918 18.678 58.2918 18.7752V21.8059H57.5949" fill="#878787"/>
<path d="M62.2763 21.8059H61.6928L60.2504 19.5693V21.8059H59.5859V18.4186C59.6184 18.4024 59.667 18.4024 59.7156 18.4024C59.7804 18.4024 59.829 18.3862 59.8939 18.3862C60.0073 18.3862 60.0884 18.4024 60.1532 18.4349C60.218 18.4673 60.2666 18.5321 60.3152 18.6131L61.628 20.7524V18.4186C61.6766 18.4186 61.7252 18.4024 61.7577 18.4024C61.7901 18.4024 61.8225 18.4024 61.8549 18.4024C61.9035 18.4024 61.9521 18.4024 62.0008 18.4186C62.0494 18.4349 62.098 18.4511 62.1304 18.4673C62.179 18.4997 62.2115 18.5321 62.2439 18.5807C62.2763 18.6293 62.2763 18.6942 62.2763 18.7914" fill="#878787"/>
<path d="M66.2265 18.9696H65.1568C65.1406 18.9372 65.1406 18.8886 65.1406 18.8723C65.1406 18.8399 65.1406 18.8075 65.1406 18.7751C65.1406 18.6779 65.173 18.5968 65.2379 18.5158C65.3027 18.4348 65.4161 18.4023 65.562 18.4023H67.9606C67.9768 18.4672 67.9768 18.5482 67.9768 18.613C67.9768 18.7103 67.9444 18.7751 67.8796 18.8561C67.8148 18.9372 67.7013 18.9696 67.5555 18.9696H66.9234V21.8058H66.2265" fill="#878787"/>
<path d="M70.8302 21.271C70.9923 21.271 71.1057 21.3034 71.1543 21.3844C71.2192 21.4654 71.2516 21.5465 71.2516 21.6275C71.2516 21.6599 71.2516 21.6923 71.2516 21.7248C71.2516 21.741 71.2516 21.7734 71.2354 21.8058H69.0312V18.4023H71.1543C71.1543 18.4348 71.1544 18.4672 71.1706 18.4996C71.1706 18.532 71.1706 18.5644 71.1706 18.5968C71.1706 18.7103 71.1381 18.8075 71.0733 18.8561C71.0085 18.921 70.895 18.9534 70.733 18.9534H69.7281V19.7799H70.814V20.331H69.7281V21.271" fill="#878787"/>
<path d="M73.4881 20.6877L72.8399 21.806H72.0781L73.083 20.1043L72.1916 18.4836C72.2564 18.4512 72.3374 18.4187 72.4023 18.4025C72.4833 18.3863 72.5481 18.3701 72.6292 18.3701C72.8074 18.3701 72.9533 18.4512 73.0343 18.6132L73.5205 19.537L74.023 18.678C74.0878 18.5646 74.1526 18.4998 74.2174 18.4512C74.2823 18.4025 74.3795 18.3863 74.493 18.3863C74.5578 18.3863 74.6226 18.3863 74.6874 18.4025C74.7361 18.4187 74.8009 18.4512 74.8657 18.4836L73.9257 20.088L74.9143 21.7898C74.8495 21.806 74.7847 21.8384 74.7036 21.8384C74.6388 21.8546 74.574 21.8546 74.5092 21.8546C74.3795 21.8546 74.2661 21.8222 74.2012 21.7736C74.1364 21.7249 74.0554 21.6439 74.0067 21.5467" fill="#878787"/>
<path d="M76.7656 18.9696H75.6959C75.6959 18.9372 75.6797 18.8886 75.6797 18.8723C75.6797 18.8399 75.6797 18.8075 75.6797 18.7751C75.6797 18.6779 75.7121 18.5968 75.7769 18.5158C75.8418 18.4348 75.9552 18.4023 76.1173 18.4023H78.5159C78.5159 18.4672 78.5321 18.5482 78.5321 18.613C78.5321 18.7103 78.4997 18.7751 78.4349 18.8561C78.37 18.9372 78.2566 18.9696 78.1107 18.9696H77.4624V21.8058H76.7656" fill="#878787"/>
<path d="M79.5547 18.4024C79.6033 18.4024 79.6519 18.3862 79.6843 18.3862C79.733 18.3862 79.7654 18.3862 79.7816 18.3862C79.8302 18.3862 79.8788 18.3862 79.9437 18.4024C79.9923 18.4024 80.0409 18.4349 80.0895 18.4511C80.1381 18.4673 80.1706 18.5159 80.203 18.5645C80.2354 18.6131 80.2516 18.678 80.2516 18.7752V21.8059H79.5547" fill="#878787"/>
<path d="M82.2912 21.2386H83.2798C83.3609 21.2386 83.4257 21.2548 83.4743 21.271C83.523 21.2872 83.5716 21.3196 83.604 21.352C83.6364 21.3844 83.6526 21.4331 83.6688 21.4655C83.685 21.5141 83.685 21.5465 83.685 21.5951V21.7086C83.685 21.7572 83.685 21.7896 83.6688 21.7896H81.5781V18.3862C81.6267 18.3862 81.6754 18.37 81.7078 18.37C81.7564 18.37 81.7888 18.3538 81.805 18.3538C81.8536 18.3538 81.9023 18.3538 81.9671 18.37C82.0157 18.37 82.0643 18.4024 82.113 18.4186C82.1616 18.451 82.194 18.4834 82.2264 18.532C82.2588 18.5807 82.275 18.6455 82.275 18.7265" fill="#878787"/>
<path d="M86.6025 21.2712C86.7646 21.2712 86.878 21.3036 86.9428 21.3847C87.0077 21.4657 87.0401 21.5467 87.0401 21.6278C87.0401 21.6602 87.0401 21.6926 87.0401 21.725C87.0401 21.7412 87.0401 21.7736 87.0401 21.806H84.8359V18.4026H86.959C86.959 18.435 86.9752 18.4674 86.9752 18.4998C86.9752 18.5322 86.9752 18.5647 86.9752 18.5971C86.9752 18.7105 86.9428 18.8078 86.878 18.8564C86.8132 18.9212 86.6997 18.9536 86.5377 18.9536H85.5328V19.7802H86.6025V20.3312H85.5328V21.2712" fill="#878787"/>
<path d="M88.138 21.0278C88.2353 21.1089 88.3487 21.1737 88.4946 21.2547C88.6243 21.3358 88.7863 21.3682 88.9808 21.3682C89.0456 21.3682 89.1267 21.3682 89.1915 21.352C89.2563 21.3358 89.3212 21.3034 89.3698 21.2709C89.4184 21.2385 89.467 21.1899 89.4994 21.1251C89.5318 21.0603 89.5481 20.9954 89.5481 20.9144C89.5481 20.8172 89.5318 20.7523 89.4994 20.6875C89.467 20.6227 89.4184 20.574 89.3536 20.5254C89.2887 20.4768 89.2239 20.4444 89.1429 20.412C89.0618 20.3796 88.9808 20.3472 88.8998 20.3147C88.7863 20.2823 88.6891 20.2337 88.5756 20.2013C88.4622 20.1527 88.3649 20.104 88.2839 20.023C88.1867 19.9582 88.1218 19.8609 88.0732 19.7475C88.0246 19.634 87.9922 19.5044 87.9922 19.3261C87.9922 19.164 88.0246 19.0182 88.0894 18.8885C88.1543 18.7589 88.2353 18.6616 88.3487 18.5806C88.4622 18.4996 88.5918 18.4347 88.7377 18.3861C88.8836 18.3375 89.0456 18.3213 89.2077 18.3213C89.3212 18.3213 89.4184 18.3213 89.5156 18.3375C89.6129 18.3537 89.6939 18.3699 89.7749 18.4023C89.856 18.4185 89.9046 18.4509 89.9694 18.4834C90.0181 18.5158 90.0667 18.532 90.0991 18.5482C90.1963 18.5968 90.2287 18.6778 90.2287 18.7751C90.2287 18.8075 90.2125 18.8723 90.1801 18.9372C90.1477 19.002 90.0991 19.0668 90.0343 19.1478C89.9532 19.083 89.8398 19.0182 89.7101 18.9534C89.5805 18.8885 89.4346 18.8561 89.2887 18.8561C89.2239 18.8561 89.1591 18.8561 89.1105 18.8723C89.0456 18.8885 88.9808 18.9047 88.9322 18.9372C88.8836 18.9696 88.8349 19.002 88.8025 19.0506C88.7701 19.0992 88.7539 19.164 88.7539 19.2451C88.7539 19.3099 88.7701 19.3747 88.8025 19.4234C88.8349 19.472 88.8836 19.5206 88.9484 19.553C88.997 19.5854 89.0781 19.634 89.1429 19.6665C89.2239 19.6989 89.2887 19.7313 89.386 19.7637C89.4994 19.7961 89.5967 19.8447 89.7101 19.8934C89.8236 19.942 89.9208 20.0068 90.018 20.0716C90.1153 20.1527 90.1801 20.2337 90.245 20.3472C90.3098 20.4606 90.3422 20.5903 90.3422 20.7523C90.3422 20.9306 90.3098 21.0927 90.245 21.2223C90.1801 21.352 90.0991 21.4816 89.9856 21.5789C89.8722 21.6761 89.7425 21.7409 89.5805 21.7896C89.4184 21.8382 89.2563 21.8544 89.0618 21.8544C88.8187 21.8544 88.6243 21.8382 88.4622 21.7896C88.3163 21.7409 88.2029 21.6923 88.138 21.6599C88.1056 21.6275 88.057 21.5951 88.0408 21.5627C88.0084 21.5303 88.0084 21.4816 88.0084 21.433C88.0084 21.3844 88.0246 21.3034 88.0732 21.2223C88.0408 21.1737 88.0894 21.0927 88.138 21.0278Z" fill="#878787"/>
<path d="M25.6789 10.5744C25.6789 10.1368 25.6465 9.73166 25.5655 9.34269C25.5006 8.95373 25.371 8.61338 25.1927 8.32166C25.0306 8.02993 24.7875 7.80304 24.5282 7.62476C24.2527 7.44649 23.9123 7.36545 23.5234 7.36545C23.102 7.36545 22.7617 7.44649 22.4699 7.62476C22.1782 7.80304 21.9513 8.02993 21.7892 8.32166C21.611 8.61338 21.4813 8.95373 21.4003 9.34269C21.3192 9.73166 21.2868 10.1368 21.2868 10.5744C21.2868 11.012 21.3355 11.4172 21.4003 11.8223C21.4813 12.2275 21.5948 12.5679 21.773 12.8758C21.9513 13.1837 22.1782 13.4268 22.4537 13.6051C22.7455 13.7834 23.0858 13.8806 23.4748 13.8806C23.8799 13.8806 24.2203 13.7834 24.512 13.6051C24.7875 13.4268 25.0144 13.1837 25.1927 12.8758C25.3548 12.5679 25.4844 12.2275 25.5492 11.8223C25.6465 11.4172 25.6789 11.012 25.6789 10.5744ZM27.5913 10.5744C27.5913 11.2227 27.5103 11.8386 27.3644 12.422C27.2186 13.0055 26.9755 13.5079 26.6351 13.9455C26.2948 14.383 25.8572 14.7234 25.3548 14.9827C24.8199 15.242 24.1879 15.3717 23.4586 15.3717C22.7292 15.3717 22.1134 15.242 21.5948 14.9827C21.0761 14.7234 20.6548 14.383 20.3306 13.9455C20.0065 13.5079 19.7634 13.0055 19.6175 12.422C19.4555 11.8386 19.3906 11.2389 19.3906 10.5906C19.3906 9.95856 19.4717 9.3589 19.6337 8.79166C19.812 8.22442 20.0551 7.722 20.3955 7.30063C20.7358 6.86304 21.1734 6.52269 21.692 6.27959C22.2106 6.02028 22.8265 5.89062 23.5558 5.89062C24.2689 5.89062 24.8848 6.02028 25.3872 6.26338C25.9058 6.50649 26.311 6.83062 26.6513 7.252C26.9755 7.67338 27.2186 8.15959 27.3644 8.74304C27.5103 9.29407 27.5913 9.90994 27.5913 10.5744Z" fill="#878787"/>
<path d="M33.9439 13.7028C34.3815 13.7028 34.6732 13.8 34.8353 13.9945C34.9974 14.189 35.0784 14.4159 35.0784 14.659C35.0784 14.7562 35.0784 14.8535 35.0784 14.9183C35.0784 14.9831 35.0622 15.0642 35.0622 15.1452H29.1953V6.06934H34.8353C34.8515 6.16658 34.8677 6.24761 34.8677 6.32865C34.8839 6.39347 34.8839 6.47451 34.8839 6.57175C34.8839 6.89589 34.8029 7.12278 34.6408 7.28485C34.495 7.44692 34.1708 7.52796 33.7332 7.52796H31.0591V9.76451H33.9439V11.2069H31.0591V13.719" fill="#878787"/>
<path d="M36.2969 6.06922C36.4265 6.05302 36.54 6.03681 36.6696 6.0206C36.7831 6.00439 36.8803 6.00439 36.9452 6.00439C37.0748 6.00439 37.2207 6.0206 37.3503 6.03681C37.4962 6.05302 37.6096 6.11784 37.7393 6.18267C37.8527 6.2637 37.95 6.37715 38.031 6.50681C38.0958 6.63646 38.1283 6.81474 38.1283 7.05784V10.3316C38.1445 10.1209 38.2093 9.91026 38.3065 9.73198C38.42 9.5375 38.5334 9.34302 38.6793 9.16474L40.5431 6.7337C40.7538 6.45819 40.9483 6.2637 41.1752 6.16646C41.3858 6.05302 41.5965 6.00439 41.8234 6.00439C42.0665 6.00439 42.2772 6.03681 42.4717 6.11784C42.65 6.18267 42.812 6.29612 42.9255 6.40957L39.9596 10.4127L43.3307 14.9668C42.9903 15.1775 42.6176 15.2747 42.261 15.2747C41.6614 15.2747 41.1589 15.0478 40.8024 14.5778L38.8089 12.0009C38.6307 11.774 38.4848 11.5472 38.3714 11.304C38.2255 11.0772 38.1607 10.8178 38.1445 10.5585V15.1127H36.2969" fill="#878787"/>
<path d="M49.617 10.5745C49.617 10.1369 49.5846 9.73175 49.5035 9.34279C49.4225 8.95382 49.3091 8.61348 49.1308 8.32175C48.9525 8.03003 48.7418 7.80313 48.4663 7.62486C48.1908 7.44658 47.8666 7.36555 47.4615 7.36555C47.0563 7.36555 46.6835 7.44658 46.408 7.62486C46.1325 7.80313 45.8894 8.03003 45.7111 8.32175C45.5328 8.61348 45.4032 8.95382 45.3384 9.34279C45.2573 9.73175 45.2087 10.1369 45.2087 10.5745C45.2087 11.0121 45.2573 11.4173 45.3384 11.8224C45.4032 12.2276 45.5328 12.568 45.7111 12.8759C45.8732 13.1838 46.1163 13.4269 46.3918 13.6052C46.6673 13.7835 47.0077 13.8807 47.4128 13.8807C47.818 13.8807 48.1584 13.7835 48.4501 13.6052C48.7256 13.4269 48.9525 13.1838 49.1146 12.8759C49.2766 12.568 49.4063 12.2276 49.4873 11.8224C49.5684 11.4173 49.617 11.0121 49.617 10.5745ZM51.5132 10.5745C51.5132 11.2228 51.4322 11.8386 51.2863 12.4221C51.1242 13.0055 50.8973 13.508 50.557 13.9455C50.2166 14.3831 49.7953 14.7235 49.2766 14.9828C48.758 15.2421 48.1259 15.3718 47.3804 15.3718C46.6349 15.3718 46.0191 15.2421 45.5004 14.9828C44.9818 14.7235 44.5604 14.3831 44.2363 13.9455C43.9122 13.508 43.6853 13.0055 43.5232 12.4221C43.3611 11.8386 43.3125 11.2228 43.3125 10.5745C43.3125 9.94244 43.3935 9.34279 43.5556 8.77555C43.7177 8.2083 43.9608 7.70589 44.3173 7.28451C44.6577 6.84693 45.0953 6.50658 45.6139 6.26348C46.1325 6.00417 46.7646 5.87451 47.4777 5.87451C48.1908 5.87451 48.8066 6.00417 49.309 6.24727C49.8115 6.49037 50.249 6.81451 50.557 7.23589C50.8811 7.65727 51.1242 8.14348 51.2701 8.72693C51.4484 9.29417 51.5132 9.91003 51.5132 10.5745Z" fill="#878787"/>
<path d="M54.0271 12.0493C53.3788 12.0493 53.0547 11.7738 53.0547 11.1904C53.0547 10.9959 53.0547 10.8014 53.0871 10.6069H56.4743C56.7661 10.6069 57.0092 10.6556 57.2036 10.7528C57.3981 10.85 57.4792 11.0769 57.4792 11.4497V11.7414C57.463 11.8387 57.463 11.9359 57.463 12.0331" fill="#878787"/>
<path d="M59.9395 7.57618H57.1033V7.55998C57.0871 7.44653 57.0871 7.36549 57.0709 7.28446C57.0709 7.21963 57.0547 7.1386 57.0547 7.02515C57.0547 6.78204 57.1357 6.55515 57.314 6.36067C57.4923 6.16618 57.784 6.05273 58.2054 6.05273H64.5747C64.6071 6.24722 64.6071 6.4417 64.6071 6.63618C64.6071 6.87929 64.5261 7.08998 64.364 7.28446C64.2019 7.47894 63.9102 7.57618 63.505 7.57618H61.8033V15.1286H59.9233" fill="#878787"/>
<path d="M70.4133 13.7024C70.8508 13.7024 71.1426 13.7996 71.3046 13.9941C71.4505 14.1886 71.5315 14.4155 71.5315 14.6586V14.9179C71.5153 14.9665 71.5153 15.0476 71.5153 15.1286H65.6484V6.05273H71.3046C71.3208 6.14998 71.3371 6.23101 71.3371 6.31204C71.3371 6.37687 71.3533 6.45791 71.3533 6.55515C71.3533 6.87929 71.256 7.10618 71.1102 7.26825C70.9481 7.43032 70.6402 7.51135 70.2026 7.51135H67.5284V9.74791H70.3971V11.1903H67.5284V13.7024" fill="#878787"/>
<path d="M75.7287 12.1306L73.9946 15.1289H71.9688L74.6429 10.6072L72.2605 6.29612C72.4388 6.21508 72.6332 6.15026 72.8277 6.08543C73.0222 6.03681 73.2329 6.00439 73.4436 6.00439C73.946 6.00439 74.3025 6.23129 74.5294 6.66888L75.8422 9.11612L77.1712 6.81474C77.3494 6.52302 77.5277 6.31233 77.706 6.19888C77.8843 6.06922 78.1274 6.00439 78.4353 6.00439C78.6298 6.00439 78.7919 6.0206 78.9377 6.06922C79.0998 6.11784 79.2457 6.18267 79.4239 6.26371L76.9119 10.5261L79.5536 15.064C79.3753 15.1289 79.197 15.1775 79.0025 15.2099C78.8081 15.2585 78.646 15.2747 78.4839 15.2747C78.1274 15.2747 77.8356 15.1937 77.6574 15.064C77.4629 14.9182 77.2846 14.7075 77.1388 14.4482" fill="#878787"/>
<path d="M86.3435 5.84229C83.7018 5.84229 81.5625 7.9816 81.5625 10.6233C81.5625 13.265 83.7018 15.4044 86.3435 15.4044C88.9853 15.4044 91.1246 13.265 91.1246 10.6233C91.1408 7.9978 88.9853 5.84229 86.3435 5.84229ZM86.3435 6.99297C88.3532 6.99297 89.9739 8.62987 89.9739 10.6233C89.9739 12.6168 88.337 14.2537 86.3435 14.2537C84.3339 14.2537 82.7132 12.6168 82.7132 10.6233C82.7132 8.62987 84.3501 6.99297 86.3435 6.99297Z" fill="#878787"/>
<path d="M87.087 9.6345C87.087 9.34277 87.0059 9.13208 86.8601 9.01863C86.698 8.90519 86.4873 8.84036 86.228 8.84036C86.1307 8.84036 86.0659 8.84036 86.0173 8.84036C85.9525 8.84036 85.9038 8.84036 85.8552 8.85656V10.4773H86.1956C86.4711 10.4773 86.698 10.3962 86.8601 10.2666C87.0059 10.1207 87.087 9.91001 87.087 9.6345ZM88.0756 9.53725C88.0756 9.73174 88.0594 9.91001 88.0107 10.0559C87.9621 10.2017 87.8973 10.3314 87.8163 10.4448C87.7352 10.5583 87.638 10.6393 87.5245 10.7204C87.4273 10.8014 87.3138 10.85 87.1842 10.8824L88.3511 12.811C88.2538 12.8435 88.1728 12.8759 88.0756 12.9083C87.9783 12.9245 87.8811 12.9407 87.7838 12.9407C87.6056 12.9407 87.4759 12.9083 87.3625 12.8273C87.249 12.7462 87.1356 12.6328 87.0383 12.4707L86.2442 11.1093H85.8552V12.8759H84.8828V8.2245C85.1097 8.20829 85.3204 8.19208 85.5311 8.17588C85.758 8.15967 85.9363 8.15967 86.1145 8.15967C86.7952 8.15967 87.2976 8.27312 87.6056 8.50001C87.9297 8.72691 88.0756 9.06725 88.0756 9.53725Z" fill="#878787"/>
<path d="M103.493 19.5206C103.007 19.5206 102.618 19.9095 102.618 20.4119C102.618 20.963 102.926 21.4816 103.299 21.984C103.979 21.4654 104.385 20.8981 104.385 20.4119C104.385 19.9257 103.979 19.5206 103.493 19.5206ZM107.691 20.655C107.383 20.655 107.075 20.8171 106.929 21.0926C106.654 21.5626 106.654 22.1785 106.718 22.7943C107.561 22.6971 108.209 22.3892 108.453 21.9678C108.696 21.5464 108.55 21.0116 108.128 20.7685C107.983 20.6875 107.837 20.655 107.691 20.655ZM99.3119 20.655C99.166 20.655 99.0039 20.6875 98.8743 20.7685C98.4529 21.0116 98.3071 21.5464 98.5502 21.9678C98.8257 22.4378 99.3605 22.7457 99.9277 22.9888C100.268 22.2109 100.317 21.4978 100.074 21.0764C99.9277 20.8171 99.636 20.655 99.3119 20.655ZM103.655 23.475C103.331 23.6209 103.137 23.8316 103.137 24.0747C103.137 24.2692 103.299 24.4474 103.509 24.4474C103.72 24.4474 103.882 24.2854 103.882 24.0747C103.866 23.9126 103.801 23.7181 103.655 23.475ZM100.981 24.1071C100.77 24.3988 100.706 24.6743 100.835 24.885C100.9 24.9985 101.014 25.0633 101.159 25.0633C101.224 25.0633 101.289 25.0471 101.338 25.0147C101.516 24.9175 101.581 24.6906 101.484 24.5123C101.386 24.3826 101.24 24.253 100.981 24.1071ZM106.135 24.253C105.94 24.253 105.665 24.3016 105.535 24.5285C105.487 24.6095 105.471 24.7068 105.503 24.804C105.519 24.9012 105.584 24.9823 105.665 25.0309C105.827 25.1281 106.07 25.0633 106.167 24.9012C106.248 24.7554 106.281 24.5609 106.281 24.2692C106.232 24.253 106.184 24.253 106.135 24.253ZM109.279 25.2092C110.057 25.5333 110.77 25.5981 111.192 25.355C111.402 25.2416 111.548 25.0471 111.597 24.8202C111.662 24.5933 111.629 24.3502 111.516 24.1557C111.273 23.7506 110.722 23.6047 110.316 23.8316C109.83 24.1071 109.522 24.6419 109.279 25.2092ZM96.265 23.7181C95.9571 23.7181 95.6653 23.8802 95.5033 24.1557C95.3736 24.3502 95.3412 24.5933 95.406 24.8202C95.4708 25.0471 95.6167 25.2416 95.8112 25.355C96.1029 25.5171 96.4433 25.5981 96.8971 25.5981C97.1077 25.5981 97.3184 25.5819 97.5129 25.5657C97.3995 24.723 97.1077 24.0747 96.6864 23.8316C96.5729 23.7506 96.4108 23.7181 96.265 23.7181ZM98.9877 25.9871C98.9553 26.3437 99.0364 26.6192 99.2471 26.7326C99.4091 26.8299 99.6522 26.765 99.7495 26.5868C99.7981 26.5057 99.8143 26.4085 99.7819 26.3112C99.7657 26.214 99.7008 26.133 99.6198 26.0843C99.4739 26.0195 99.2633 25.9709 98.9877 25.9871ZM107.626 26.0357C107.545 26.0357 107.448 26.0519 107.383 26.1006C107.302 26.1492 107.237 26.2302 107.221 26.3112C107.205 26.4085 107.205 26.5057 107.253 26.5868C107.351 26.7488 107.577 26.8137 107.756 26.7164C107.902 26.6354 108.031 26.4733 108.177 26.2302C107.983 26.1168 107.788 26.0357 107.626 26.0357ZM98.1936 28.6288C98.3395 28.953 98.5502 29.1475 98.7933 29.1475C99.0039 29.1475 99.166 28.9854 99.166 28.7909C99.166 28.5964 99.0039 28.4181 98.7933 28.4181C98.6474 28.4019 98.4529 28.4668 98.1936 28.6288ZM108.193 28.4019C107.999 28.4019 107.821 28.564 107.821 28.7747C107.821 28.9854 107.983 29.1312 108.193 29.1312C108.355 29.1312 108.55 29.0664 108.793 28.9206C108.663 28.5964 108.436 28.4019 108.193 28.4019ZM95.1305 27.8995C94.6443 27.8995 94.2553 28.2885 94.2553 28.7747C94.2553 29.2609 94.6443 29.6499 95.1305 29.6499C95.6815 29.6499 96.2002 29.3419 96.7026 28.9692C96.2002 28.2885 95.6167 27.8995 95.1305 27.8995ZM110.284 28.564C110.803 29.2447 111.37 29.6499 111.856 29.6499C112.342 29.6499 112.731 29.2609 112.731 28.7747C112.731 28.2885 112.342 27.8995 111.856 27.8995C111.321 27.8995 110.786 28.2074 110.284 28.564ZM98.8419 31.2868C99.1336 31.4975 99.4091 31.5623 99.6198 31.4326C99.7981 31.3354 99.8629 31.1085 99.7495 30.9302C99.6522 30.7681 99.4091 30.7033 99.2471 30.8006C99.1174 30.8816 98.9715 31.0437 98.8419 31.2868ZM107.561 30.7519C107.432 30.7519 107.302 30.8168 107.237 30.9302C107.14 31.1085 107.205 31.3354 107.367 31.4326C107.513 31.5137 107.723 31.5461 107.999 31.5461C108.047 31.1895 107.95 30.914 107.739 30.8006C107.691 30.7681 107.626 30.7519 107.561 30.7519ZM100.722 33.2964C100.981 33.3126 101.305 33.3126 101.467 33.0371C101.565 32.8588 101.5 32.6319 101.322 32.5347C101.159 32.4375 100.916 32.5023 100.819 32.6643C100.754 32.794 100.722 33.0047 100.722 33.2964ZM105.843 32.4699C105.778 32.4699 105.714 32.4861 105.665 32.5185C105.487 32.6157 105.438 32.8426 105.535 33.0209C105.616 33.1668 105.778 33.2964 106.022 33.4261C106.232 33.1343 106.297 32.8588 106.167 32.6481C106.103 32.5347 105.973 32.4699 105.843 32.4699ZM96.4595 32.0323C96.2002 32.0323 95.9895 32.0809 95.8112 32.1781C95.3898 32.4212 95.2439 32.9561 95.4871 33.3775C95.7139 33.7826 96.2812 33.9285 96.6864 33.7016C97.1564 33.4261 97.4643 32.8912 97.7236 32.324C97.2698 32.1457 96.8322 32.0323 96.4595 32.0323ZM109.474 31.9837C109.571 32.8264 109.879 33.4747 110.3 33.7178C110.705 33.9447 111.273 33.7988 111.499 33.3937C111.743 32.9723 111.597 32.4374 111.175 32.1943C110.9 32.0323 110.543 31.9512 110.089 31.9512C109.895 31.9512 109.684 31.9675 109.474 31.9837ZM103.493 33.1019C103.299 33.1019 103.12 33.264 103.12 33.4585C103.12 33.6206 103.185 33.815 103.347 34.0581C103.672 33.9123 103.866 33.7016 103.866 33.4585C103.866 33.264 103.704 33.1019 103.493 33.1019ZM103.834 34.755C104.174 34.5606 104.531 34.3661 104.936 34.2202C105.179 34.123 105.389 34.0095 105.584 33.8637C105.357 33.7178 105.163 33.5557 105.017 33.3126C104.757 32.8588 104.903 32.2754 105.357 31.9999C105.811 31.7406 106.41 31.9188 106.654 32.3564C106.88 32.7616 106.832 33.2316 106.54 33.6854C106.605 33.7178 106.686 33.7502 106.767 33.7826C106.962 33.4423 107.188 33.1019 107.448 32.7616C107.61 32.5509 107.739 32.3402 107.837 32.1133C107.513 32.1133 107.269 32.0485 107.075 31.935C106.621 31.6757 106.475 31.0923 106.735 30.6223C106.994 30.1847 107.61 30.0226 108.031 30.2657C108.42 30.4926 108.631 30.9302 108.598 31.4812C108.679 31.4812 108.76 31.465 108.842 31.4488H108.858C108.842 31.0599 108.874 30.6547 108.939 30.2333C108.971 29.974 108.987 29.7147 108.955 29.4878C108.728 29.6174 108.469 29.6985 108.193 29.6985C107.658 29.6985 107.237 29.2771 107.237 28.7423C107.237 28.2237 107.658 27.7861 108.193 27.7861C108.647 27.7861 109.036 28.0616 109.295 28.5478C109.36 28.4992 109.425 28.4506 109.49 28.4019C109.279 28.0616 109.101 27.705 108.955 27.2999C108.858 27.0568 108.744 26.8299 108.598 26.6516C108.469 26.8785 108.29 27.0892 108.047 27.2188C107.594 27.4781 106.994 27.2999 106.751 26.8623C106.621 26.6354 106.589 26.3923 106.654 26.133C106.718 25.8899 106.88 25.6792 107.091 25.5495C107.48 25.3226 107.966 25.3712 108.42 25.663C108.453 25.5819 108.485 25.5171 108.517 25.4361C108.177 25.2416 107.837 25.0147 107.513 24.7554C107.302 24.5933 107.091 24.4637 106.88 24.3664C106.88 24.6257 106.832 24.9012 106.686 25.1281C106.443 25.5657 105.827 25.7278 105.389 25.4847C104.936 25.2254 104.774 24.6419 105.049 24.1719C105.276 23.783 105.714 23.5723 106.248 23.6047C106.248 23.5237 106.232 23.4426 106.216 23.3778C105.827 23.394 105.406 23.3616 105.001 23.2968C104.741 23.2643 104.482 23.2481 104.255 23.2806C104.368 23.5075 104.466 23.7668 104.466 24.0261C104.466 24.5447 104.044 24.9823 103.509 24.9823C102.991 24.9823 102.553 24.5609 102.553 24.0261C102.553 23.5723 102.829 23.1671 103.315 22.924C103.266 22.8592 103.218 22.7943 103.169 22.7295C102.829 22.9402 102.472 23.1185 102.083 23.2806C101.84 23.3778 101.613 23.4912 101.435 23.6371C101.662 23.7668 101.873 23.945 102.002 24.1719C102.262 24.6257 102.099 25.2092 101.646 25.4685C101.5 25.5495 101.338 25.5981 101.176 25.5981C100.835 25.5981 100.511 25.4199 100.349 25.1119C100.122 24.723 100.171 24.2368 100.463 23.783C100.398 23.7506 100.317 23.7181 100.236 23.6857C100.041 24.0261 99.8143 24.3664 99.555 24.6906C99.3929 24.9012 99.2633 25.1119 99.166 25.3388C99.4739 25.355 99.7333 25.4199 99.9277 25.5333C100.138 25.663 100.3 25.8575 100.365 26.1168C100.43 26.3599 100.398 26.6192 100.268 26.8461C100.009 27.2837 99.4091 27.4619 98.9715 27.2026C98.5664 26.9757 98.3719 26.5381 98.4043 25.9871C98.3233 25.9871 98.2422 26.0033 98.1612 26.0195C98.1612 26.4085 98.145 26.8299 98.0802 27.235C98.0477 27.4943 98.0315 27.7537 98.0639 27.9806C98.2908 27.8509 98.5502 27.7699 98.8257 27.7699C99.3443 27.7699 99.7819 28.2075 99.7819 28.7261C99.7819 29.2609 99.3443 29.6823 98.8257 29.6823C98.3719 29.6823 97.9829 29.4068 97.7398 28.9206C97.675 28.9692 97.6102 29.0178 97.5453 29.0664C97.7398 29.4068 97.9343 29.7795 98.0802 30.1685C98.1774 30.4116 98.2908 30.6223 98.4367 30.8168C98.5664 30.5899 98.7446 30.3792 98.9877 30.2495C99.4253 30.0064 100.025 30.1523 100.284 30.5899C100.544 31.0599 100.382 31.6433 99.9277 31.9026C99.5388 32.1295 99.0526 32.0809 98.5988 31.7892C98.5664 31.8702 98.5339 31.935 98.5015 32.0161C98.8419 32.2106 99.1822 32.4375 99.5064 32.6968C99.7171 32.8588 99.9277 32.9885 100.138 33.0857C100.155 32.8264 100.203 32.5509 100.333 32.324C100.576 31.8864 101.192 31.7243 101.629 31.9837C102.083 32.243 102.245 32.8264 101.986 33.2964C101.759 33.6854 101.305 33.8799 100.77 33.8637C100.787 33.9447 100.787 34.0257 100.803 34.1068C101.208 34.1068 101.613 34.123 102.018 34.1878C102.278 34.2364 102.537 34.2364 102.764 34.204C102.65 33.9771 102.537 33.7178 102.537 33.4423C102.537 32.9237 102.958 32.4861 103.493 32.4861C104.028 32.4861 104.449 32.9237 104.449 33.4423C104.449 33.8961 104.174 34.3012 103.688 34.5443C103.736 34.6254 103.785 34.6902 103.834 34.755ZM100.284 34.755C99.4415 34.8523 98.8095 35.1602 98.5664 35.5816C98.3233 36.003 98.4691 36.5378 98.8905 36.7809C99.2957 37.0078 99.8629 36.8619 100.09 36.4568C100.349 35.9868 100.349 35.3709 100.284 34.755ZM107.075 34.5443C106.735 35.3385 106.686 36.0354 106.929 36.4568C107.156 36.8619 107.723 37.024 108.128 36.7809C108.55 36.5378 108.696 36.003 108.453 35.5816C108.177 35.0954 107.642 34.8037 107.075 34.5443ZM103.704 35.5654C103.023 36.084 102.618 36.6512 102.618 37.1537C102.618 37.6399 103.007 38.0288 103.493 38.0288C103.979 38.0288 104.385 37.6399 104.385 37.1537C104.385 36.5864 104.077 36.0678 103.704 35.5654ZM103.493 38.6123C102.683 38.6123 102.035 37.9478 102.035 37.1537C102.035 36.473 102.521 35.7437 103.347 35.1116C103.266 34.9981 103.185 34.8847 103.104 34.7874C102.748 34.8685 102.343 34.8847 101.921 34.8199C101.565 34.7712 101.208 34.7388 100.868 34.7388C100.933 35.4519 100.933 36.165 100.592 36.7809C100.203 37.4454 99.2633 37.7047 98.5826 37.3157C97.8857 36.9106 97.6426 36.003 98.0477 35.3061C98.3881 34.7226 99.166 34.3337 100.219 34.204C100.203 34.0743 100.187 33.9285 100.171 33.7988C99.8143 33.6854 99.4577 33.4909 99.1336 33.2316C98.8419 33.0047 98.5502 32.8102 98.2584 32.6319C97.9667 33.2802 97.6102 33.8961 96.9943 34.2526C96.3136 34.6416 95.3736 34.3823 94.9846 33.7178C94.5795 33.0209 94.8226 32.1133 95.5195 31.7081C96.1029 31.3678 96.9781 31.4164 97.9505 31.8216C97.9991 31.6919 98.0639 31.5623 98.1126 31.4488C97.8695 31.1733 97.6588 30.833 97.4967 30.444C97.367 30.1037 97.205 29.7795 97.0267 29.4878C96.4595 29.9092 95.8274 30.2657 95.1305 30.2657C94.3202 30.2657 93.6719 29.6012 93.6719 28.7909C93.6719 27.9806 94.3202 27.3323 95.1305 27.3323C95.8112 27.3323 96.5405 27.8023 97.1726 28.645C97.286 28.564 97.3833 28.483 97.4967 28.4019C97.4157 28.0454 97.3995 27.6402 97.4643 27.2188C97.5129 26.8461 97.5453 26.5057 97.5453 26.1654C97.3346 26.1816 97.1077 26.1978 96.8971 26.1978C96.346 26.1978 95.8922 26.0843 95.5195 25.8737C95.1791 25.6792 94.936 25.355 94.8226 24.9823C94.7253 24.6095 94.7739 24.2043 94.9684 23.864C95.3574 23.1995 96.2974 22.9402 96.9781 23.3292C97.5777 23.6695 97.9667 24.4475 98.0964 25.5009C98.2422 25.4847 98.3719 25.4685 98.5015 25.4523C98.615 25.0957 98.8095 24.7392 99.0688 24.415C99.2957 24.1233 99.4902 23.8316 99.6684 23.5399C99.0202 23.2481 98.4043 22.8916 98.0477 22.2757C97.6426 21.5788 97.8857 20.6712 98.5826 20.2661C99.2633 19.8771 100.203 20.1364 100.592 20.8009C100.933 21.3843 100.884 22.2595 100.479 23.2319C100.608 23.2806 100.738 23.3454 100.852 23.394C101.127 23.1509 101.484 22.9402 101.856 22.7781C102.197 22.6485 102.505 22.4864 102.813 22.3081C102.391 21.7247 102.035 21.1088 102.035 20.3957C102.035 19.5854 102.699 18.9209 103.493 18.9209C104.304 18.9209 104.968 19.5854 104.968 20.3957C104.968 21.0764 104.498 21.8057 103.655 22.4378C103.736 22.5512 103.817 22.6647 103.898 22.7619C104.255 22.6809 104.66 22.6809 105.065 22.7457C105.422 22.7943 105.778 22.8268 106.135 22.8268C106.054 22.1137 106.054 21.4006 106.41 20.7847C106.799 20.1202 107.739 19.8609 108.42 20.2499C109.117 20.655 109.36 21.5464 108.955 22.2595C108.615 22.843 107.837 23.2481 106.799 23.3778C106.816 23.5075 106.832 23.6533 106.848 23.783C107.205 23.8964 107.561 24.0909 107.885 24.3502C108.161 24.5771 108.469 24.7716 108.761 24.9499C109.052 24.3016 109.409 23.6857 110.025 23.3292C110.705 22.9402 111.645 23.1995 112.034 23.864C112.229 24.2043 112.277 24.5933 112.18 24.9823C112.067 25.3712 111.84 25.6792 111.499 25.8737C110.916 26.214 110.041 26.1654 109.068 25.7602C109.02 25.8899 108.971 26.0195 108.906 26.133C109.149 26.4085 109.36 26.7488 109.522 27.1378C109.652 27.4781 109.814 27.8023 109.992 28.094C110.559 27.6888 111.192 27.3161 111.888 27.3161C112.699 27.3161 113.347 27.9643 113.347 28.7747C113.347 29.585 112.699 30.2495 111.888 30.2495C111.208 30.2495 110.478 29.7795 109.846 28.9368C109.733 29.0178 109.619 29.0988 109.522 29.1799C109.603 29.5364 109.603 29.9416 109.538 30.363C109.49 30.7195 109.457 31.0761 109.474 31.4164C109.684 31.384 109.911 31.384 110.138 31.384C110.689 31.384 111.143 31.4812 111.516 31.7081C112.213 32.1133 112.456 33.0209 112.051 33.7178C111.662 34.3823 110.722 34.6416 110.041 34.2526C109.457 33.9123 109.052 33.1343 108.923 32.0809C108.777 32.0971 108.647 32.1133 108.517 32.1295C108.404 32.4861 108.209 32.8426 107.95 33.1668C107.723 33.4585 107.529 33.7502 107.35 34.0419C107.999 34.3337 108.615 34.6902 108.971 35.2899C109.376 35.9868 109.133 36.8943 108.436 37.2995C107.756 37.6885 106.816 37.4454 106.427 36.7647C106.086 36.165 106.135 35.3061 106.54 34.3337C106.41 34.285 106.281 34.2202 106.167 34.1716C105.892 34.4147 105.552 34.6254 105.163 34.7874C104.822 34.9171 104.498 35.0792 104.206 35.2575C104.628 35.8247 104.984 36.4568 104.984 37.1699C104.968 37.9478 104.304 38.6123 103.493 38.6123Z" fill="#878787"/>
<path d="M100.203 28.5965C100.236 28.0941 100.381 27.6079 100.608 27.1865H101.743C101.646 27.6241 101.597 28.1103 101.581 28.5965" fill="#F6A000"/>
<path d="M101.801 30.7036C101.915 31.1412 102.077 31.514 102.271 31.8381C101.688 31.6112 101.185 31.206 100.812 30.7036" fill="#F6A000"/>
<path d="M101.565 28.9531C101.581 29.4393 101.629 29.9255 101.727 30.3631H100.608C100.381 29.9417 100.236 29.4555 100.203 28.9531" fill="#F6A000"/>
<path d="M100.812 26.8303C101.185 26.3279 101.688 25.9227 102.271 25.6958C102.077 26.0037 101.931 26.3927 101.801 26.8303" fill="#F6A000"/>
<path d="M104.719 25.6958C105.302 25.9227 105.805 26.3279 106.177 26.8303H105.189C105.059 26.4089 104.913 26.0199 104.719 25.6958Z" fill="#F6A000"/>
<path d="M106.177 30.7036C105.805 31.206 105.302 31.595 104.719 31.8381C104.913 31.5302 105.075 31.1412 105.189 30.7036" fill="#F6A000"/>
<path d="M106.797 28.9531C106.764 29.4717 106.635 29.9417 106.392 30.3631H105.273C105.371 29.9255 105.419 29.4393 105.436 28.9531" fill="#F6A000"/>
<path d="M106.392 27.1865C106.619 27.6079 106.764 28.0779 106.797 28.5965H105.436C105.419 28.1103 105.371 27.6403 105.273 27.1865" fill="#F6A000"/>
<path d="M102.86 25.5336C103.006 25.5012 103.168 25.485 103.33 25.4688V26.8301H102.18C102.342 26.2629 102.585 25.8091 102.86 25.5336Z" fill="#F6A000"/>
<path d="M101.914 28.5965C101.93 28.0779 101.979 27.6079 102.076 27.1865H103.324V28.5965" fill="#F6A000"/>
<path d="M102.076 30.3631C101.979 29.9417 101.93 29.4717 101.914 28.9531H103.324V30.3631" fill="#F6A000"/>
<path d="M103.33 32.0649C103.168 32.0487 103.006 32.0325 102.86 32.0163C102.585 31.7408 102.342 31.287 102.18 30.7197H103.33" fill="#F6A000"/>
<path d="M104.815 30.7037C104.653 31.2709 104.41 31.7247 104.134 32.0003C103.988 32.0327 103.826 32.0489 103.664 32.0489V30.6875" fill="#F6A000"/>
<path d="M105.074 28.9531C105.058 29.4717 104.993 29.9417 104.912 30.3631H103.664V28.9531" fill="#F6A000"/>
<path d="M104.912 27.1865C105.009 27.6079 105.058 28.0779 105.074 28.5965H103.664V27.1865" fill="#F6A000"/>
<path d="M103.664 25.4688C103.826 25.485 103.988 25.5012 104.134 25.5336C104.41 25.8091 104.653 26.2629 104.815 26.8463H103.664" fill="#F6A000"/>
<path d="M11.3858 31.3841C11.6127 31.5624 11.8882 31.7407 12.2124 31.9028C12.5365 32.081 12.9255 32.1621 13.3793 32.1621C13.5575 32.1621 13.7196 32.1459 13.8817 32.0972C14.0437 32.0486 14.1896 31.9838 14.3193 31.9028C14.4489 31.8217 14.5462 31.7083 14.6272 31.5624C14.7082 31.4328 14.7568 31.2545 14.7568 31.06C14.7568 30.8493 14.7082 30.671 14.6272 30.5252C14.5462 30.3793 14.4165 30.2497 14.2706 30.1524C14.1248 30.0552 13.9627 29.9741 13.752 29.8931C13.5737 29.8445 13.3793 29.7797 13.1686 29.6986C12.9093 29.6014 12.6499 29.5041 12.3906 29.4069C12.1313 29.3097 11.8882 29.1638 11.6775 29.0017C11.4668 28.8235 11.2886 28.6128 11.1589 28.3535C11.0293 28.0941 10.9644 27.77 10.9644 27.3648C10.9644 26.9759 11.0455 26.6355 11.1913 26.3276C11.3372 26.0359 11.5641 25.7766 11.8234 25.5821C12.0827 25.3876 12.3906 25.2417 12.7472 25.1283C13.0875 25.031 13.4603 24.9824 13.8493 24.9824C14.1086 24.9824 14.3679 24.9986 14.5948 25.0472C14.8217 25.0797 15.0324 25.1445 15.2106 25.1931C15.3889 25.2417 15.551 25.3066 15.6806 25.3714C15.8103 25.4362 15.9075 25.4848 15.9724 25.5335C16.1993 25.6631 16.3127 25.8414 16.3127 26.0683C16.3127 26.1655 16.2641 26.2952 16.183 26.4573C16.102 26.6193 15.9724 26.7814 15.8265 26.9435C15.632 26.7814 15.3565 26.6355 15.0486 26.4897C14.7244 26.3438 14.3841 26.279 14.0113 26.279C13.8655 26.279 13.7196 26.2952 13.5575 26.3276C13.3955 26.36 13.2658 26.4086 13.1362 26.4735C13.0065 26.5383 12.9093 26.6355 12.8282 26.7652C12.7472 26.8786 12.6986 27.0407 12.6986 27.2028C12.6986 27.381 12.7472 27.5269 12.8282 27.6404C12.9093 27.77 13.0227 27.8835 13.1524 27.9645C13.2982 28.0617 13.4603 28.1428 13.6386 28.2076C13.8168 28.2724 14.0113 28.3535 14.2058 28.4345C14.4651 28.5317 14.7244 28.629 14.9999 28.7424C15.2755 28.8559 15.5186 29.0017 15.7293 29.1638C15.9562 29.3421 16.1182 29.5528 16.2641 29.8121C16.3937 30.0714 16.4748 30.3955 16.4748 30.8007C16.4748 31.2221 16.3937 31.611 16.2479 31.9352C16.0858 32.2755 15.8913 32.551 15.6158 32.7779C15.3403 33.0048 15.0162 33.1669 14.6434 33.2804C14.2706 33.3938 13.8493 33.4424 13.4117 33.4424C12.8282 33.4424 12.3582 33.3776 12.0017 33.2641C11.6451 33.1507 11.3696 33.0373 11.2075 32.94C11.1103 32.8752 11.0293 32.7941 10.9644 32.6969C10.8996 32.6159 10.8672 32.5024 10.8672 32.4052C10.8672 32.2755 10.9158 32.0972 11.0293 31.9028C11.1427 31.7407 11.2562 31.5462 11.3858 31.3841Z" fill="#F6A000"/>
<path d="M19.5378 26.4898H16.9934V26.4736C16.9771 26.3764 16.9609 26.2953 16.9609 26.2305C16.9609 26.1657 16.9609 26.0846 16.9609 26.0036C16.9609 25.7929 17.042 25.5822 17.204 25.4039C17.3661 25.2257 17.6254 25.1284 17.9982 25.1284H23.7192C23.7354 25.2905 23.7516 25.4688 23.7516 25.647C23.7516 25.8577 23.6706 26.0522 23.5247 26.2305C23.3789 26.4088 23.1196 26.4898 22.7468 26.4898H21.2071V33.2481H19.5216" fill="#F6A000"/>
<path d="M26.2985 26.6034L25.1964 30.0555H27.3681L26.2985 26.6034ZM28.3892 33.2483L27.6923 31.271H24.8723L24.2078 33.2483H22.5547L25.3747 25.2583C25.4719 25.2258 25.6016 25.1772 25.7799 25.1448C25.9581 25.1124 26.1364 25.0962 26.3471 25.0962C26.4443 25.0962 26.5416 25.0962 26.6388 25.1124C26.7523 25.1286 26.8495 25.161 26.963 25.2096C27.0602 25.2583 27.1737 25.3393 27.2547 25.4365C27.3519 25.5338 27.4168 25.6634 27.4816 25.8417L30.0909 33.2483" fill="#F6A000"/>
<path d="M37.4431 33.2483H36.0331L32.5648 27.9324V33.2483H30.9766V25.161C31.0576 25.1448 31.171 25.1286 31.3007 25.1124C31.4466 25.0962 31.5762 25.0962 31.7221 25.0962C31.9814 25.0962 32.1921 25.1448 32.3379 25.2258C32.4838 25.3069 32.6135 25.4527 32.7269 25.631L35.871 30.72V25.161C35.9845 25.1448 36.0979 25.1286 36.179 25.1124C36.2762 25.0962 36.3573 25.0962 36.4059 25.0962C36.5355 25.0962 36.649 25.1124 36.7786 25.1286C36.9083 25.1448 37.0217 25.1934 37.119 25.2745C37.2162 25.3393 37.2973 25.4365 37.3621 25.55C37.4269 25.6796 37.4593 25.8255 37.4593 26.0362" fill="#F6A000"/>
<path d="M43.8357 29.0828C43.8357 28.71 43.8033 28.3535 43.7223 28.0131C43.6412 27.689 43.5278 27.3973 43.3495 27.1542C43.1712 26.9111 42.9281 26.7166 42.6202 26.5707C42.3123 26.4249 41.9395 26.36 41.4695 26.36C41.2426 26.36 40.9995 26.3762 40.7402 26.3924V31.9676H41.4047C41.8747 31.9676 42.2799 31.9028 42.5878 31.7569C42.8957 31.6111 43.155 31.4166 43.3333 31.1573C43.5116 30.9142 43.6412 30.6062 43.7223 30.2497C43.8033 29.9093 43.8357 29.5204 43.8357 29.0828ZM45.5374 29.0666C45.5374 29.65 45.4564 30.1849 45.3106 30.6873C45.1647 31.1897 44.9216 31.6435 44.5974 32.0162C44.2895 32.389 43.8843 32.6969 43.3819 32.9238C42.8795 33.1507 42.3123 33.248 41.6478 33.248H39.0547V25.2093C39.5733 25.1445 40.0271 25.1121 40.3837 25.0959C40.7564 25.0797 41.0643 25.0635 41.3399 25.0635C42.1502 25.0635 42.8309 25.1769 43.3657 25.3876C43.9005 25.5983 44.3381 25.89 44.6461 26.2466C44.9702 26.6031 45.1971 27.0407 45.3268 27.5107C45.4726 28.0131 45.5374 28.5155 45.5374 29.0666Z" fill="#F6A000"/>
<path d="M49.3766 26.6034L48.2745 30.0555H50.4625L49.3766 26.6034ZM51.4673 33.2483L50.7704 31.271H47.9504L47.2859 33.2483H45.6328L48.4528 25.2583C48.5501 25.2258 48.6797 25.1772 48.858 25.1448C49.0363 25.1124 49.2145 25.0962 49.4252 25.0962C49.5063 25.0962 49.6197 25.0962 49.7169 25.1124C49.8304 25.1286 49.9276 25.161 50.0411 25.2096C50.1545 25.2583 50.2518 25.3393 50.3328 25.4365C50.4301 25.5338 50.4949 25.6634 50.5597 25.8417L53.169 33.2483" fill="#F6A000"/>
<path d="M57.918 27.6242C57.918 27.1218 57.7883 26.7652 57.5128 26.5545C57.2373 26.3438 56.8808 26.2466 56.4108 26.2466C56.2649 26.2466 56.1352 26.2466 56.038 26.2628C55.9408 26.2628 55.8435 26.279 55.7625 26.279V29.0666H56.3459C56.8321 29.0666 57.2211 28.9531 57.4966 28.71C57.7721 28.4831 57.918 28.1104 57.918 27.6242ZM59.6683 27.4621C59.6683 27.8024 59.6359 28.0942 59.5387 28.3535C59.4577 28.6128 59.328 28.8397 59.1821 29.0342C59.0363 29.2287 58.8742 29.3907 58.6797 29.5204C58.4852 29.65 58.307 29.7473 58.1125 29.8283L60.1221 33.1669C59.9763 33.2318 59.8142 33.2804 59.6359 33.3128C59.4577 33.3452 59.2956 33.3776 59.1497 33.3776C58.858 33.3776 58.5987 33.3128 58.4042 33.1831C58.2097 33.0535 58.0152 32.8428 57.837 32.5511L56.4432 30.2011H55.7787V33.248H54.1094V25.1931C54.4659 25.1445 54.8387 25.1283 55.2277 25.0959C55.6004 25.0797 55.9408 25.0635 56.2649 25.0635C57.4318 25.0635 58.307 25.258 58.8418 25.6469C59.3928 26.0521 59.6683 26.6518 59.6683 27.4621Z" fill="#F6A000"/>
<path d="M65.8748 29.0828C65.8748 28.71 65.8262 28.3535 65.7613 28.0131C65.6965 27.689 65.5669 27.3973 65.3724 27.1542C65.1941 26.9111 64.951 26.7166 64.6431 26.5707C64.3351 26.4249 63.9624 26.36 63.4924 26.36C63.2493 26.36 63.0224 26.3762 62.7631 26.3924V31.9676H63.4275C63.9137 31.9676 64.3027 31.9028 64.6106 31.7569C64.9186 31.6111 65.1779 31.4166 65.3562 31.1573C65.5344 30.9142 65.6641 30.6062 65.7451 30.2497C65.8262 29.9093 65.8748 29.5204 65.8748 29.0828ZM67.5765 29.0666C67.5765 29.65 67.4955 30.1849 67.3496 30.6873C67.2038 31.1897 66.9606 31.6435 66.6365 32.0162C66.3124 32.389 65.9234 32.6969 65.421 32.9238C64.9348 33.1507 64.3513 33.248 63.6869 33.248H61.0938V25.2093C61.6124 25.1445 62.0662 25.1121 62.4227 25.0959C62.7955 25.0797 63.1196 25.0635 63.3789 25.0635C64.1893 25.0635 64.87 25.1769 65.4048 25.3876C65.9396 25.5983 66.361 25.89 66.6851 26.2466C67.0093 26.6031 67.2362 27.0407 67.3658 27.5107C67.5117 28.0131 67.5765 28.5155 67.5765 29.0666Z" fill="#F6A000"/>
<path d="M74.0438 33.2483V27.1383L72.4555 27.9324C72.3421 27.7866 72.2286 27.6083 72.1152 27.43C72.0017 27.2517 71.9531 27.0897 71.9531 26.9276C71.9531 26.8303 71.9855 26.7331 72.0504 26.6359C72.1152 26.5386 72.2124 26.4576 72.3421 26.3766L74.0762 25.4852C74.2383 25.4041 74.4004 25.3393 74.5462 25.2745C74.6921 25.2097 74.8542 25.1772 75.0162 25.1772C75.1783 25.1772 75.3242 25.1935 75.4214 25.2421C75.5348 25.2907 75.6321 25.3231 75.6969 25.3717V33.2159" fill="#F6A000"/>
<path d="M82.2581 29.2935C82.2581 28.7587 82.2257 28.3049 82.1609 27.9483C82.096 27.5756 82.015 27.2838 81.9015 27.0569C81.7881 26.83 81.6584 26.6842 81.4802 26.5707C81.3181 26.4735 81.1236 26.4249 80.9129 26.4249C80.7022 26.4249 80.5078 26.4735 80.3457 26.5707C80.1674 26.668 80.0378 26.83 79.9081 27.0569C79.7946 27.2838 79.6974 27.5756 79.6326 27.9483C79.5677 28.3211 79.5353 28.7587 79.5353 29.2935C79.5353 29.8121 79.5677 30.2659 79.6326 30.6225C79.6974 30.9952 79.7784 31.2869 79.9081 31.4976C80.0215 31.7245 80.1674 31.8866 80.3457 31.9838C80.5078 32.0811 80.7022 32.1297 80.9129 32.1297C81.1236 32.1297 81.3181 32.0811 81.4802 31.9838C81.6422 31.8866 81.7881 31.7245 81.9015 31.4976C82.015 31.2707 82.096 30.979 82.1609 30.6225C82.2257 30.2659 82.2581 29.8283 82.2581 29.2935ZM83.9112 29.2935C83.9112 30.6063 83.6681 31.6273 83.1819 32.3566C82.6957 33.0697 81.934 33.4263 80.9129 33.4263C79.8757 33.4263 79.114 33.0697 78.6277 32.389C78.1415 31.7083 77.8984 30.6711 77.8984 29.2935C77.8984 28.6614 77.9633 28.078 78.0929 27.5756C78.2226 27.0569 78.4009 26.6194 78.6602 26.2628C78.9195 25.9063 79.2436 25.6145 79.6164 25.4363C80.0053 25.2418 80.4429 25.1445 80.9615 25.1445C81.4964 25.1445 81.934 25.2418 82.3067 25.4363C82.6795 25.6307 82.9874 25.89 83.2143 26.2466C83.4574 26.6032 83.6195 27.0407 83.7329 27.5594C83.8464 28.0618 83.9112 28.6452 83.9112 29.2935Z" fill="#F6A000"/>
<path d="M88.954 29.2935C88.954 28.7587 88.9216 28.3049 88.8567 27.9483C88.7919 27.5756 88.7109 27.2838 88.5974 27.0569C88.484 26.83 88.3543 26.6842 88.1761 26.5707C88.014 26.4735 87.8195 26.4249 87.6088 26.4249C87.3981 26.4249 87.2036 26.4735 87.0416 26.5707C86.8633 26.668 86.7174 26.83 86.604 27.0569C86.4905 27.2838 86.3933 27.5756 86.3447 27.9483C86.2798 28.3211 86.2474 28.7587 86.2474 29.2935C86.2474 29.8121 86.2798 30.2659 86.3447 30.6225C86.4095 30.9952 86.4905 31.2869 86.604 31.4976C86.7174 31.7245 86.8633 31.8866 87.0416 31.9838C87.2036 32.0811 87.3981 32.1297 87.6088 32.1297C87.8195 32.1297 88.014 32.0811 88.1761 31.9838C88.3543 31.8866 88.484 31.7245 88.5974 31.4976C88.7109 31.2707 88.7919 30.979 88.8567 30.6225C88.9216 30.2659 88.954 29.8283 88.954 29.2935ZM90.5909 29.2935C90.5909 30.6063 90.3478 31.6273 89.8616 32.3566C89.3754 33.0697 88.6298 33.4263 87.6088 33.4263C86.5716 33.4263 85.8098 33.0697 85.3236 32.389C84.8374 31.7083 84.5781 30.6711 84.5781 29.2935C84.5781 28.6614 84.643 28.078 84.7726 27.5756C84.9023 27.0569 85.0967 26.6194 85.3398 26.2628C85.5992 25.9063 85.9233 25.6145 86.2961 25.4363C86.685 25.2418 87.1226 25.1445 87.6412 25.1445C88.1598 25.1445 88.6136 25.2418 88.9864 25.4363C89.3592 25.6307 89.6671 25.89 89.894 26.2466C90.1371 26.6032 90.2992 27.0407 90.4126 27.5594C90.5423 28.0618 90.5909 28.6452 90.5909 29.2935Z" fill="#F6A000"/>
<path d="M27.2025 39.0987C27.1863 39.7956 27.0729 40.3304 26.8136 40.7032C26.5219 41.0759 26.1653 41.2704 25.6305 41.2704C25.0794 41.2218 24.6905 41.0922 24.4312 40.7194C24.1394 40.3304 24.0422 39.8118 24.0422 39.0825C24.026 38.7422 24.0746 38.4504 24.1394 38.1749C24.1557 37.8832 24.3015 37.6725 24.4474 37.478C24.5446 37.2349 24.7553 37.1377 24.9498 37.0404C25.1119 36.927 25.3874 36.8946 25.6629 36.8946C25.9222 36.8784 26.1815 36.9432 26.376 37.0404C26.5219 37.1215 26.7325 37.2835 26.8622 37.4618C26.9432 37.6077 27.0729 37.8832 27.1377 38.1425C27.1377 38.4342 27.2025 38.7422 27.2025 39.0987ZM26.3112 39.0987C26.2788 38.8232 26.295 38.5963 26.2625 38.4018C26.2139 38.1749 26.1815 38.0615 26.1329 37.948C26.0519 37.786 26.0032 37.7535 25.9222 37.7049C25.825 37.6401 25.7439 37.6239 25.6305 37.6239C25.5008 37.5915 25.4198 37.6563 25.3388 37.7049C25.2253 37.7535 25.1767 37.8346 25.1119 37.948C24.9984 38.0291 24.9984 38.2235 24.966 38.4018C24.9336 38.5639 24.9174 38.8232 24.9174 39.0987C24.8688 39.3742 24.9336 39.6011 24.966 39.7956C24.9984 39.9577 25.047 40.136 25.1119 40.2494C25.1281 40.3466 25.2415 40.4439 25.3388 40.5087C25.4036 40.5087 25.5332 40.5897 25.6305 40.5897C25.7277 40.5735 25.8412 40.5573 25.9222 40.5087C26.0032 40.4115 26.0843 40.3791 26.1329 40.2656C26.1653 40.136 26.2463 39.9901 26.2625 39.8118C26.2788 39.5849 26.3112 39.3742 26.3112 39.0987Z" fill="#18140F"/>
<path d="M27.5945 38.4504C27.562 38.1424 27.6269 37.9804 27.7079 37.7859C27.7727 37.559 27.8862 37.4293 28.0158 37.2997C28.1293 37.1376 28.2914 37.0728 28.4696 37.0079C28.6479 36.8945 28.8424 36.9107 29.0531 36.9107C29.2638 36.8945 29.5231 36.9593 29.7176 37.0404C29.8472 37.1214 30.0579 37.2511 30.1876 37.4131C30.2686 37.559 30.4145 37.7697 30.4793 37.9966C30.4955 38.2235 30.5765 38.4828 30.5765 38.7583C30.5603 39.1473 30.5117 39.5686 30.3983 39.8766C30.2686 40.1359 30.1227 40.46 29.9283 40.6545C29.7176 40.8166 29.5069 41.011 29.2638 41.1245C29.0045 41.1731 28.7614 41.2704 28.4858 41.2704C28.4048 41.2217 28.3562 41.2704 28.2914 41.2542C28.1779 41.2055 28.1779 41.2217 28.1455 41.1893C28.0969 41.1407 28.0645 41.1245 28.032 41.0759C27.9834 40.9948 27.9996 40.9624 27.9996 40.8976C27.9996 40.8328 27.9996 40.8004 27.9996 40.7355C27.9996 40.6545 28.0158 40.6221 28.032 40.5735C28.1131 40.5573 28.2103 40.5735 28.3076 40.5735C28.4696 40.5573 28.7127 40.541 28.8748 40.4762C29.0045 40.3628 29.1665 40.3304 29.2638 40.2331C29.3124 40.1197 29.442 40.0224 29.5069 39.909C29.5393 39.7793 29.6041 39.6659 29.6203 39.5524C29.5393 39.5848 29.442 39.6983 29.3124 39.7469C29.1665 39.7955 29.0207 39.8279 28.8424 39.8279C28.6155 39.7955 28.4534 39.7955 28.2914 39.7145C28.0969 39.5848 28.0158 39.5362 27.9186 39.4066C27.7889 39.2283 27.7403 39.131 27.6917 38.969C27.6107 38.7745 27.5945 38.6124 27.5945 38.4504ZM28.4696 38.4017C28.4534 38.6124 28.5183 38.8393 28.6155 38.969C28.6965 39.0824 28.8586 39.1797 29.0855 39.1797C29.2314 39.1473 29.361 39.1473 29.4583 39.1148C29.5393 39.05 29.6365 39.0176 29.6852 38.969C29.6527 38.9042 29.6852 38.8555 29.6852 38.7907C29.6527 38.7097 29.6852 38.661 29.6852 38.5962C29.6527 38.4342 29.6852 38.3693 29.6527 38.2559C29.6041 38.0938 29.6041 38.029 29.5555 37.9317C29.5069 37.7859 29.442 37.7535 29.361 37.6886C29.2314 37.6076 29.1665 37.5914 29.0369 37.5914C28.8262 37.559 28.7289 37.6562 28.6317 37.8021C28.5183 37.8993 28.4696 38.1424 28.4696 38.4017Z" fill="#18140F"/>
<path d="M34.1713 39.0987C34.1551 39.7956 34.0416 40.3304 33.7823 40.7032C33.4906 41.0759 33.1341 41.2704 32.5992 41.2704C32.0482 41.2218 31.6592 41.0922 31.3999 40.7194C31.1082 40.3304 31.011 39.8118 31.011 39.0825C30.9947 38.7422 31.0434 38.4504 31.1082 38.1749C31.1244 37.8832 31.2703 37.6725 31.4161 37.478C31.5134 37.2349 31.7241 37.1377 31.9185 37.0404C32.0806 36.927 32.3561 36.8946 32.6316 36.8946C32.891 36.8784 33.1503 36.9432 33.3447 37.0404C33.4906 37.1215 33.7013 37.2835 33.831 37.4618C33.912 37.6077 34.0416 37.8832 34.1065 38.1425C34.1065 38.4342 34.1713 38.7422 34.1713 39.0987ZM33.2799 39.0987C33.2475 38.8232 33.2637 38.5963 33.2313 38.4018C33.1827 38.1749 33.1503 38.0615 33.1016 37.948C33.0206 37.786 32.972 37.7535 32.891 37.7049C32.7937 37.6401 32.7127 37.6239 32.5992 37.6239C32.4696 37.5915 32.3885 37.6563 32.3075 37.7049C32.1941 37.7535 32.1454 37.8346 32.0806 37.948C31.9672 38.0291 31.9672 38.2235 31.9347 38.4018C31.9023 38.5639 31.8861 38.8232 31.8861 39.0987C31.8375 39.3742 31.9023 39.6011 31.9347 39.7956C31.9672 39.9577 32.0158 40.136 32.0806 40.2494C32.0968 40.3466 32.2103 40.4439 32.3075 40.5087C32.3723 40.5087 32.502 40.5897 32.5992 40.5897C32.6965 40.5735 32.8099 40.5573 32.891 40.5087C32.972 40.4115 33.053 40.3791 33.1016 40.2656C33.1341 40.136 33.2151 39.9901 33.2313 39.8118C33.2475 39.5849 33.2799 39.3742 33.2799 39.0987Z" fill="#18140F"/>
<path d="M37.5263 39.6498C37.5101 39.8767 37.4939 40.1522 37.4128 40.3467C37.2994 40.4926 37.2346 40.7195 37.1049 40.8491C36.9428 40.9788 36.8132 41.0922 36.6511 41.1571C36.4242 41.2219 36.2784 41.2543 36.0839 41.2543C35.8246 41.2057 35.5977 41.2057 35.4194 41.1247C35.1763 40.9788 35.079 40.914 34.9494 40.7519C34.7711 40.5574 34.7387 40.3954 34.6739 40.1685C34.609 39.8929 34.5766 39.6822 34.5766 39.4067C34.5442 38.9691 34.6415 38.5964 34.7549 38.2885C34.8359 37.9643 35.0304 37.705 35.2411 37.5105C35.4032 37.2998 35.6625 37.154 35.9056 37.0567C36.1487 36.9433 36.408 36.9109 36.6673 36.9109C36.797 36.8947 36.959 36.9271 37.0401 36.9919C37.1211 37.0081 37.1697 37.1378 37.1697 37.2998C37.1211 37.316 37.1697 37.3971 37.1697 37.4619C37.1211 37.4781 37.1535 37.5754 37.1535 37.624C37.0563 37.5916 37.0401 37.624 36.9915 37.624C36.9104 37.5916 36.8942 37.624 36.8132 37.624C36.5863 37.5916 36.4566 37.6564 36.3108 37.7212C36.1325 37.7698 36.0353 37.8509 35.938 37.9481C35.8246 38.0129 35.7435 38.1426 35.6787 38.256C35.5815 38.3371 35.5653 38.4667 35.5328 38.564C35.5653 38.4667 35.7111 38.4343 35.857 38.3695C35.9704 38.2885 36.1811 38.2722 36.3756 38.2722C36.5377 38.2398 36.7646 38.3047 36.9104 38.3857C37.0401 38.4343 37.1859 38.564 37.2832 38.6936C37.348 38.8071 37.4453 38.9691 37.4939 39.1474C37.4615 39.2771 37.5263 39.4716 37.5263 39.6498ZM36.6511 39.7309C36.6025 39.4716 36.6025 39.2771 36.5215 39.1312C36.3756 38.9691 36.2784 38.9205 36.0677 38.9205C36.0028 38.9205 35.938 38.9367 35.8732 38.9367C35.7597 38.9367 35.7435 38.9691 35.6949 39.0016C35.5977 39.0016 35.5977 39.0502 35.549 39.0826C35.468 39.115 35.468 39.1312 35.4518 39.1636C35.4356 39.196 35.4518 39.2771 35.4518 39.3257C35.4356 39.3581 35.4518 39.4554 35.4518 39.5202C35.4356 39.6012 35.4518 39.7633 35.468 39.8767C35.468 40.0064 35.5166 40.1198 35.5653 40.2171C35.5653 40.3143 35.6787 40.3954 35.7597 40.4764C35.8408 40.4926 35.9542 40.5736 36.1001 40.5736C36.2622 40.5574 36.408 40.4926 36.5053 40.3467C36.5539 40.2171 36.6511 40.0064 36.6511 39.7309Z" fill="#18140F"/>
<path d="M41.0107 39.6498C40.9945 39.8767 40.9782 40.1522 40.8972 40.3467C40.7838 40.4926 40.7189 40.7195 40.5893 40.8491C40.4272 40.9788 40.3138 41.0922 40.1355 41.1571C39.9086 41.2219 39.7627 41.2543 39.5682 41.2543C39.3089 41.2057 39.082 41.2057 38.9038 41.1247C38.6607 40.9788 38.5634 40.914 38.4338 40.7519C38.2555 40.5574 38.2231 40.3954 38.1582 40.1685C38.0934 39.8929 38.061 39.6822 38.061 39.4067C38.0286 38.9691 38.1258 38.5964 38.2393 38.2885C38.3203 37.9643 38.5148 37.705 38.7255 37.5105C38.8876 37.2998 39.1469 37.154 39.39 37.0567C39.6331 36.9433 39.8924 36.9109 40.1517 36.9109C40.2814 36.8947 40.4434 36.9271 40.5245 36.9919C40.6055 37.0081 40.6541 37.1378 40.6541 37.2998C40.6055 37.316 40.6541 37.3971 40.6541 37.4619C40.6055 37.4781 40.6379 37.5754 40.6379 37.624C40.5407 37.5916 40.5245 37.624 40.4758 37.624C40.3948 37.5916 40.3786 37.624 40.2976 37.624C40.0707 37.5916 39.941 37.6564 39.7951 37.7212C39.6169 37.7698 39.5196 37.8509 39.4224 37.9481C39.3089 38.0129 39.2279 38.1426 39.1631 38.256C39.0658 38.3371 39.0496 38.4667 39.0172 38.564C39.0496 38.4667 39.1955 38.4343 39.3414 38.3695C39.4548 38.2885 39.6655 38.2722 39.86 38.2722C40.022 38.2398 40.2489 38.3047 40.3948 38.3857C40.5245 38.4343 40.6703 38.564 40.7676 38.6936C40.8324 38.8071 40.9296 38.9691 40.9782 39.1474C40.9458 39.2771 41.0107 39.4716 41.0107 39.6498ZM40.1355 39.7309C40.0869 39.4716 40.0869 39.2771 40.0058 39.1312C39.86 38.9691 39.7627 38.9205 39.552 38.9205C39.4872 38.9205 39.4224 38.9367 39.3576 38.9367C39.2441 38.9367 39.2279 38.9691 39.1793 39.0016C39.082 39.0016 39.082 39.0502 39.0334 39.0826C38.9524 39.115 38.9524 39.1312 38.9362 39.1636C38.92 39.196 38.9362 39.2771 38.9362 39.3257C38.92 39.3581 38.9362 39.4554 38.9362 39.5202C38.92 39.6012 38.9362 39.7633 38.9524 39.8767C38.9524 40.0064 39.001 40.1198 39.0496 40.2171C39.0496 40.3143 39.1631 40.3954 39.2441 40.4764C39.3251 40.4926 39.4386 40.5736 39.5845 40.5736C39.7465 40.5574 39.8924 40.4926 39.9896 40.3467C40.0382 40.2171 40.1355 40.0064 40.1355 39.7309Z" fill="#18140F"/>
<path d="M42.745 41.1406H41.8374L43.4905 37.6561H41.5781C41.5294 37.6237 41.5619 37.5913 41.5619 37.5589C41.5132 37.5103 41.5457 37.4941 41.5457 37.4616C41.5132 37.3806 41.5457 37.3968 41.5457 37.3644C41.5132 37.2347 41.5781 37.1537 41.6591 37.0727C41.7239 36.9754 41.8698 36.9592 42.0481 36.9592H44.155C44.2684 36.9268 44.3657 36.9754 44.4143 37.0241C44.4143 37.0565 44.4791 37.1375 44.4791 37.251V37.5103L42.745 41.1406Z" fill="#18140F"/>
<path d="M47.8649 39.9418C47.8325 40.12 47.8325 40.3145 47.7677 40.4766C47.6542 40.6063 47.6056 40.7845 47.476 40.898C47.3463 40.9952 47.1842 41.1087 46.9898 41.1735C46.7953 41.2221 46.5684 41.2707 46.3091 41.2707C46.0984 41.2221 46.0011 41.2545 45.8715 41.2383C45.7418 41.1897 45.6284 41.1897 45.5311 41.1573C45.4339 41.1249 45.3529 41.0925 45.288 41.06C45.1908 40.9952 45.1746 40.9952 45.126 40.9628C45.0449 40.8818 45.0287 40.8818 44.9801 40.8331C44.9153 40.7683 44.9315 40.7197 44.9315 40.6711C44.9153 40.5414 45.0125 40.3631 45.1908 40.1038C45.1908 40.12 45.288 40.2011 45.3691 40.2659C45.4339 40.2983 45.5149 40.3631 45.6122 40.4118C45.677 40.428 45.7905 40.4928 45.9039 40.5252C45.9849 40.5414 46.1308 40.5738 46.2442 40.5738C46.3091 40.5576 46.4225 40.5576 46.5198 40.5414C46.6008 40.509 46.6818 40.4766 46.7467 40.428C46.7791 40.3469 46.8601 40.3145 46.9087 40.2335C46.9249 40.1363 46.9736 40.0552 46.9736 39.9256C46.9249 39.7797 46.9411 39.6825 46.8763 39.6014C46.7953 39.5042 46.7467 39.4556 46.6656 39.4231C46.5846 39.3745 46.5036 39.3583 46.4225 39.3421C46.3091 39.2935 46.2767 39.3259 46.2118 39.3259H45.8877V38.6128H46.2118C46.2442 38.6128 46.3253 38.6128 46.4063 38.5804C46.4549 38.5156 46.5522 38.5318 46.617 38.4994C46.6494 38.4345 46.7305 38.4021 46.7791 38.3373C46.7791 38.2563 46.8439 38.1752 46.8439 38.0618C46.8277 37.8673 46.7953 37.7863 46.6818 37.7052C46.5684 37.608 46.4387 37.5918 46.2442 37.5918C46.1146 37.5594 46.0336 37.608 45.9363 37.6242C45.8229 37.608 45.758 37.689 45.677 37.7214C45.5473 37.7376 45.5149 37.8025 45.4501 37.8511C45.3529 37.8835 45.3205 37.9483 45.2556 37.9969C45.1584 37.8997 45.1098 37.8349 45.0449 37.7376C44.9477 37.608 44.9639 37.5756 44.9639 37.5107C44.9477 37.4459 44.9801 37.3973 45.0125 37.3649C45.0125 37.3 45.0773 37.2838 45.126 37.2514C45.1422 37.1866 45.2232 37.1866 45.3042 37.138C45.3529 37.0569 45.4663 37.0569 45.5636 37.0083C45.6608 36.9597 45.7905 36.9435 45.9201 36.9111C46.0336 36.8625 46.2118 36.8787 46.3739 36.8787C46.6008 36.8625 46.8115 36.9111 46.9736 36.9597C47.1356 36.9759 47.2815 37.0894 47.3949 37.1866C47.476 37.2676 47.5894 37.3973 47.638 37.5269C47.6705 37.6404 47.7191 37.8025 47.7191 37.9483C47.6867 38.0456 47.7029 38.2238 47.6542 38.3373C47.5894 38.4183 47.557 38.5318 47.4922 38.6128C47.4111 38.6776 47.3463 38.7587 47.2815 38.8073C47.1518 38.8397 47.1356 38.8883 47.087 38.9207C47.1194 38.9532 47.2329 38.9856 47.3301 39.018C47.4111 39.0342 47.5084 39.1314 47.5894 39.1963C47.6218 39.2287 47.7353 39.3745 47.7839 39.488C47.8325 39.5852 47.8649 39.7635 47.8649 39.9418Z" fill="#18140F"/>
<path d="M49.4545 40.7843C49.422 40.8815 49.4058 41.0436 49.3248 41.1246C49.1952 41.1571 49.1303 41.2543 49.0007 41.2543C48.8224 41.2057 48.7576 41.2057 48.6765 41.1246C48.5469 40.9788 48.5469 40.914 48.5469 40.7843C48.5469 40.606 48.5793 40.5412 48.6765 40.444C48.7252 40.3143 48.871 40.3143 49.0007 40.3143C49.0817 40.2657 49.2276 40.3629 49.3086 40.444C49.3572 40.5088 49.4545 40.6547 49.4545 40.7843Z" fill="#18140F"/>
<path d="M53.9487 39.0338C53.9 39.3093 53.9163 39.6172 53.8352 39.8927C53.7542 40.1683 53.6569 40.4114 53.4949 40.6058C53.3328 40.7841 53.1383 40.9786 52.8952 41.092C52.6359 41.1731 52.3604 41.2703 52.02 41.2703C51.6311 41.2217 51.388 41.2055 51.1611 41.092C50.9018 40.93 50.7235 40.8003 50.5776 40.6058C50.3831 40.3627 50.3183 40.1683 50.2535 39.8927C50.1562 39.6172 50.1562 39.3417 50.1562 39.0338C50.1562 38.6934 50.1887 38.4503 50.2697 38.191C50.3021 37.8993 50.4642 37.6886 50.6263 37.4941C50.7397 37.2348 50.9828 37.1376 51.2259 37.0241C51.4366 36.862 51.7607 36.8458 52.0849 36.8458C52.409 36.7972 52.7007 36.8945 52.9276 37.0079C53.1383 37.0727 53.349 37.2834 53.5111 37.4779C53.6569 37.6238 53.7704 37.8993 53.8352 38.1748C53.9 38.4179 53.9487 38.7258 53.9487 39.0338ZM53.0573 39.0338C53.0411 38.7907 53.0411 38.6448 53.0087 38.4665C52.9763 38.2883 52.9114 38.1262 52.8466 37.9803C52.7169 37.8345 52.6683 37.7372 52.5387 37.6562C52.409 37.5752 52.2631 37.5265 52.0687 37.5265C51.8742 37.5103 51.7121 37.5752 51.5825 37.6562C51.4528 37.7372 51.3394 37.8345 51.2583 37.9803C51.1773 38.11 51.1125 38.272 51.08 38.4665C50.999 38.6448 51.0314 38.8393 51.0314 39.0338C50.999 39.1958 51.0476 39.4227 51.08 39.6172C51.0638 39.7793 51.1773 39.9738 51.2583 40.1034C51.3394 40.2169 51.4366 40.3627 51.5663 40.4438C51.6473 40.4924 51.858 40.5734 52.0362 40.5734C52.2307 40.5572 52.3766 40.5248 52.5063 40.4438C52.6359 40.3303 52.7331 40.2493 52.8142 40.1034C52.8466 39.9414 52.9438 39.7955 52.9763 39.6172C53.0411 39.4065 53.0573 39.2445 53.0573 39.0338Z" fill="#18140F"/>
<path d="M59.1676 40.9303C59.0865 40.9141 59.1027 40.9952 59.0379 41.0276C58.9731 41.06 58.9083 41.1086 58.811 41.141C58.6814 41.1248 58.6003 41.2058 58.4707 41.2383C58.3086 41.2383 58.179 41.2707 58.0007 41.2707C57.6279 41.2221 57.3686 41.2221 57.1093 41.1086C56.8176 40.9627 56.6555 40.8493 56.4934 40.6548C56.2827 40.4117 56.2179 40.2334 56.1369 39.9579C56.0234 39.6662 56.0234 39.3907 56.0234 39.0665C56.0234 38.6938 56.0721 38.4507 56.1531 38.1752C56.2017 37.8834 56.3638 37.6727 56.5259 37.4621C56.6879 37.2189 56.8986 37.1055 57.1417 36.9921C57.3848 36.83 57.6765 36.83 58.0169 36.83C58.1627 36.7814 58.3248 36.8462 58.4545 36.8786C58.5679 36.8948 58.6976 36.9434 58.811 36.9758C58.8759 36.9758 58.9893 37.0569 59.0541 37.1055C59.119 37.1217 59.1676 37.1865 59.2 37.2189C59.2324 37.2352 59.2648 37.3 59.2972 37.3324C59.2972 37.3324 59.3459 37.4296 59.3459 37.4783C59.2972 37.5107 59.3134 37.6403 59.2486 37.7376C59.1676 37.7862 59.119 37.8996 59.0379 37.9645C58.9407 37.8672 58.9245 37.8672 58.8596 37.8186C58.7462 37.77 58.73 37.7214 58.649 37.6727C58.5355 37.6241 58.4869 37.5917 58.3896 37.5755C58.2438 37.5269 58.179 37.5269 58.0493 37.5269C57.79 37.5107 57.6603 37.5755 57.5145 37.6565C57.3524 37.7376 57.2552 37.851 57.1579 37.9969C57.0607 38.1265 57.0121 38.3048 56.9634 38.4831C56.8824 38.6452 56.9148 38.8396 56.9148 39.0341C56.8824 39.1962 56.931 39.4231 56.9634 39.6014C56.9472 39.7634 57.0607 39.9417 57.1579 40.0876C57.239 40.201 57.3686 40.3469 57.5145 40.4279C57.6441 40.4765 57.8548 40.5576 58.0817 40.5576C58.1952 40.5414 58.3086 40.5414 58.4059 40.5089C58.5031 40.4765 58.6003 40.4441 58.6652 40.3955C58.6976 40.3307 58.811 40.3145 58.8596 40.2658C58.8596 40.1848 58.9731 40.1848 59.0055 40.1524C58.9893 40.1362 59.0541 40.2172 59.0865 40.2658C59.1028 40.2821 59.1514 40.3469 59.1838 40.3955C59.2162 40.4279 59.2324 40.4927 59.2648 40.5414C59.2648 40.5738 59.2972 40.6224 59.2972 40.671C59.2648 40.7196 59.281 40.7683 59.2648 40.8007C59.2162 40.8007 59.2162 40.8817 59.1676 40.9303Z" fill="#18140F"/>
<path d="M62.3375 40.4442C62.3862 40.4118 62.5158 40.4604 62.5968 40.4767C62.6455 40.4604 62.7265 40.5415 62.7589 40.5901C62.7751 40.6063 62.8237 40.6873 62.8399 40.736C62.8562 40.7684 62.8724 40.8494 62.8724 40.898C62.8561 40.9142 62.8724 40.9953 62.8724 41.0277C62.8561 41.0439 62.8724 41.0925 62.8724 41.1411H60.1172V36.9111H62.7751C62.7589 36.9435 62.7913 36.9922 62.7913 37.0246C62.7589 37.057 62.7913 37.1056 62.7913 37.138C62.7589 37.2515 62.7589 37.3973 62.6779 37.4784C62.5482 37.5108 62.4672 37.5918 62.2565 37.5918H60.9762V38.5967H62.3213V39.2935H60.9762V40.428H62.3375V40.4442Z" fill="#18140F"/>
<path d="M65.9525 39.8441V36.9106C65.9525 36.8944 66.0173 36.9106 66.0659 36.9106C66.0659 36.8944 66.1308 36.9106 66.1632 36.9106C66.1956 36.8944 66.228 36.9106 66.2604 36.9106C66.2928 36.8944 66.3901 36.9268 66.4549 36.9268C66.4711 36.9268 66.5845 36.9592 66.6494 36.9917C66.698 36.9917 66.7628 37.0727 66.7952 37.1375C66.8276 37.1699 66.8439 37.2834 66.8439 37.3968V41.1406H66.0983L64.2508 38.3692V41.1406H63.3594V36.8944C63.3756 36.8782 63.4566 36.8944 63.5377 36.8944C63.5863 36.8782 63.6835 36.8944 63.7645 36.8944C63.8618 36.8782 64.0076 36.9268 64.0887 36.9592C64.1211 36.9754 64.2345 37.0727 64.2994 37.1699L65.9525 39.8441Z" fill="#18140F"/>
<path d="M68.5008 37.608H67.1718C67.1394 37.527 67.1556 37.5108 67.1556 37.4784C67.1394 37.3973 67.1556 37.3973 67.1556 37.3649C67.1394 37.2515 67.2043 37.1542 67.2853 37.057C67.3663 36.9598 67.5122 36.9111 67.7067 36.9111H70.6887C70.6725 36.9922 70.7049 37.0894 70.7049 37.1704C70.6725 37.1704 70.6887 37.2839 70.6725 37.3325C70.6239 37.3325 70.6239 37.4298 70.5753 37.4622C70.478 37.4622 70.4781 37.5432 70.4132 37.5594C70.2998 37.5594 70.2674 37.5918 70.1701 37.5918H69.376V41.1411H68.4846V37.608H68.5008Z" fill="#18140F"/>
<path d="M74.0399 38.094C73.9913 38.2237 74.0237 38.4182 73.9751 38.564C73.9103 38.6613 73.8778 38.8234 73.7968 38.9206C73.7158 38.9692 73.6347 39.0989 73.5375 39.1799C73.4078 39.2123 73.343 39.2934 73.2458 39.342L74.2992 41.0923C74.202 41.0923 74.1372 41.1572 74.0399 41.1896C73.9103 41.2058 73.8616 41.222 73.7806 41.222C73.6185 41.2058 73.4889 41.1896 73.3916 41.1247C73.2458 41.0113 73.1972 40.9465 73.0999 40.8006L72.4192 39.5689H72.0951V41.1572H71.1875V36.9109C71.3334 36.8785 71.5603 36.8785 71.7547 36.8623C71.933 36.7975 72.1275 36.8461 72.2896 36.8461C72.8568 36.7975 73.3268 36.9434 73.6185 37.154C73.8941 37.3161 74.0399 37.6727 74.0399 38.094ZM73.1485 38.1751C73.1323 37.8996 73.0837 37.7213 72.9541 37.624C72.7758 37.4782 72.6299 37.4782 72.403 37.4782C72.3058 37.4296 72.2734 37.4782 72.2085 37.4782C72.1437 37.4296 72.1113 37.4782 72.0789 37.4782V38.9368H72.3706C72.5975 38.9368 72.792 38.872 72.9378 38.7423C73.0351 38.5803 73.1485 38.4344 73.1485 38.1751Z" fill="#18140F"/>
<path d="M78.4961 39.0338C78.4475 39.3093 78.4637 39.6172 78.3827 39.8927C78.3016 40.1683 78.2044 40.4114 78.0423 40.6058C77.8803 40.7841 77.6858 40.9786 77.4427 41.092C77.1834 41.1731 76.9078 41.2703 76.5675 41.2703C76.1785 41.2217 75.9354 41.2055 75.6923 41.092C75.433 40.93 75.2547 40.8003 75.1089 40.6058C74.9144 40.3627 74.8496 40.1683 74.7847 39.8927C74.6875 39.6172 74.6875 39.3417 74.6875 39.0338C74.6875 38.6934 74.7199 38.4503 74.8009 38.191C74.8334 37.8993 74.9954 37.6886 75.1575 37.4941C75.2709 37.2348 75.5141 37.1376 75.7572 37.0241C75.9678 36.862 76.292 36.8458 76.6161 36.8458C76.9403 36.7972 77.232 36.8945 77.4589 37.0079C77.6696 37.0727 77.8803 37.2834 78.0423 37.4779C78.1882 37.6238 78.3016 37.8993 78.3665 38.1748C78.4475 38.4179 78.4961 38.7258 78.4961 39.0338ZM77.621 39.0338C77.6047 38.7907 77.6047 38.6448 77.5723 38.4665C77.5399 38.2883 77.4751 38.1262 77.4103 37.9803C77.2806 37.8345 77.232 37.7372 77.1023 37.6562C76.9727 37.5752 76.8268 37.5265 76.6323 37.5265C76.4378 37.5103 76.2758 37.5752 76.1461 37.6562C76.0165 37.7372 75.903 37.8345 75.822 37.9803C75.7409 38.11 75.6761 38.272 75.6437 38.4665C75.5627 38.6448 75.5951 38.8393 75.5951 39.0338C75.5627 39.1958 75.6113 39.4227 75.6437 39.6172C75.6275 39.7793 75.7409 39.9738 75.822 40.1034C75.903 40.2169 76.0003 40.3627 76.1299 40.4438C76.2109 40.4924 76.4216 40.5734 76.5999 40.5734C76.7944 40.5572 76.9403 40.5248 77.0699 40.4438C77.1996 40.3303 77.2968 40.2493 77.3778 40.1034C77.4103 39.9414 77.5075 39.7955 77.5399 39.6172C77.5885 39.4065 77.621 39.2445 77.621 39.0338Z" fill="#18140F"/>
<path d="M82.2926 40.9303C82.2115 40.9141 82.2277 40.9952 82.1629 41.0276C82.0981 41.06 82.0333 41.1086 81.936 41.141C81.8064 41.1248 81.7253 41.2058 81.5957 41.2383C81.4336 41.2383 81.304 41.2707 81.1257 41.2707C80.7529 41.2221 80.4936 41.2221 80.2343 41.1086C79.9426 40.9627 79.7805 40.8493 79.6184 40.6548C79.4077 40.4117 79.3429 40.2334 79.2619 39.9579C79.1484 39.6662 79.1484 39.3907 79.1484 39.0665C79.1484 38.6938 79.1971 38.4507 79.2781 38.1752C79.3267 37.8834 79.4888 37.6727 79.6509 37.4621C79.8129 37.2189 80.0236 37.1055 80.2667 36.9921C80.5098 36.83 80.8015 36.83 81.1419 36.83C81.2877 36.7814 81.4498 36.8462 81.5795 36.8786C81.6929 36.8948 81.8226 36.9434 81.936 36.9758C82.0009 36.9758 82.1143 37.0569 82.1791 37.1055C82.244 37.1217 82.2926 37.1865 82.325 37.2189C82.3574 37.2352 82.3898 37.3 82.4222 37.3324C82.4222 37.3324 82.4709 37.4296 82.4709 37.4783C82.4222 37.5107 82.4384 37.6403 82.3736 37.7376C82.2926 37.7862 82.244 37.8996 82.1629 37.9645C82.0657 37.8672 82.0495 37.8672 81.9846 37.8186C81.8712 37.77 81.855 37.7214 81.774 37.6727C81.6605 37.6241 81.6119 37.5917 81.5146 37.5755C81.3688 37.5269 81.304 37.5269 81.1743 37.5269C80.915 37.5107 80.7853 37.5755 80.6395 37.6565C80.4774 37.7376 80.3802 37.851 80.2829 37.9969C80.1857 38.1265 80.1371 38.3048 80.0884 38.4831C80.0074 38.6452 80.0398 38.8396 80.0398 39.0341C80.0074 39.1962 80.056 39.4231 80.0884 39.6014C80.0722 39.7634 80.1857 39.9417 80.2829 40.0876C80.364 40.201 80.4936 40.3469 80.6395 40.4279C80.7691 40.4765 80.9798 40.5576 81.2067 40.5576C81.3202 40.5414 81.4336 40.5414 81.5309 40.5089C81.6281 40.4765 81.7253 40.4441 81.7902 40.3955C81.8226 40.3307 81.936 40.3145 81.9846 40.2658C81.9846 40.1848 82.0981 40.1848 82.1305 40.1524C82.1143 40.1362 82.1791 40.2172 82.2115 40.2658C82.2277 40.2821 82.2764 40.3469 82.3088 40.3955C82.3412 40.4279 82.3574 40.4927 82.3898 40.5414C82.3898 40.5738 82.4222 40.6224 82.4222 40.671C82.3898 40.7196 82.406 40.7683 82.3898 40.8007C82.3412 40.8007 82.3412 40.8817 82.2926 40.9303Z" fill="#18140F"/>
<path d="M86.7461 39.0338C86.6975 39.3093 86.7137 39.6172 86.6327 39.8927C86.5516 40.1683 86.4544 40.4114 86.2923 40.6058C86.1303 40.7841 85.9358 40.9786 85.6927 41.092C85.4334 41.1731 85.1578 41.2703 84.8175 41.2703C84.4285 41.2217 84.1854 41.2055 83.9423 41.092C83.683 40.93 83.5047 40.8003 83.3589 40.6058C83.1644 40.3627 83.0996 40.1683 83.0347 39.8927C82.9375 39.6172 82.9375 39.3417 82.9375 39.0338C82.9375 38.6934 82.9699 38.4503 83.0509 38.191C83.0834 37.8993 83.2454 37.6886 83.4075 37.4941C83.5209 37.2348 83.7641 37.1376 84.0072 37.0241C84.2178 36.862 84.542 36.8458 84.8661 36.8458C85.1903 36.7972 85.482 36.8945 85.7089 37.0079C85.9196 37.0727 86.1303 37.2834 86.2923 37.4779C86.4382 37.6238 86.5516 37.8993 86.6165 38.1748C86.6975 38.4179 86.7461 38.7258 86.7461 39.0338ZM85.8547 39.0338C85.8385 38.7907 85.8385 38.6448 85.8061 38.4665C85.7737 38.2883 85.7089 38.1262 85.6441 37.9803C85.5144 37.8345 85.4658 37.7372 85.3361 37.6562C85.2065 37.5752 85.0606 37.5265 84.8661 37.5265C84.6716 37.5103 84.5096 37.5752 84.3799 37.6562C84.2503 37.7372 84.1368 37.8345 84.0558 37.9803C83.9747 38.11 83.9099 38.272 83.8775 38.4665C83.7965 38.6448 83.8289 38.8393 83.8289 39.0338C83.7965 39.1958 83.8451 39.4227 83.8775 39.6172C83.8613 39.7793 83.9747 39.9738 84.0558 40.1034C84.1368 40.2169 84.2341 40.3627 84.3637 40.4438C84.4447 40.4924 84.6554 40.5734 84.8499 40.5734C85.0444 40.5572 85.1903 40.5248 85.3199 40.4438C85.4496 40.3303 85.5468 40.2493 85.6278 40.1034C85.6603 39.9414 85.7575 39.7955 85.7899 39.6172C85.8385 39.4065 85.8547 39.2445 85.8547 39.0338Z" fill="#18140F"/>
<path d="M88.4461 37.608H87.1172C87.0847 37.527 87.101 37.5108 87.101 37.4784C87.0847 37.3973 87.101 37.3973 87.101 37.3649C87.0847 37.2515 87.1496 37.1542 87.2306 37.057C87.3116 36.9598 87.4575 36.9111 87.652 36.9111H90.6341C90.6178 36.9922 90.6503 37.0894 90.6503 37.1704C90.6179 37.1704 90.6341 37.2839 90.6179 37.3325C90.5692 37.3325 90.5692 37.4298 90.5206 37.4622C90.4234 37.4622 90.4234 37.5432 90.3585 37.5594C90.2451 37.5594 90.2127 37.5918 90.1154 37.5918H89.3375V41.1411H88.4461V37.608Z" fill="#18140F"/>
</svg>
