<svg width="171" height="71" viewBox="0 0 171 71" fill="none" xmlns="http://www.w3.org/2000/svg">
<path d="M47.4463 4.61098C47.8428 8.45394 28.767 13.5481 23.987 24.5408C20.3084 33.0087 25.1104 40.2031 30.0446 43.6886C29.3617 44.6716 27.7096 46.6825 24.9782 47.8443L29.6921 48.2241C29.6921 48.2241 33.8994 41.1638 34.8245 39.5551C34.7805 39.5104 32.3354 37.3655 30.2869 34.8185C29.7802 34.1705 29.2736 33.5226 28.8551 32.8746C28.4365 32.2267 28.0841 31.6011 27.8638 31.0202C27.7537 30.7297 27.6435 30.484 27.5995 30.2158C27.5554 29.9701 27.4673 29.769 27.4894 29.5902C27.4894 29.2328 27.4894 29.0317 27.4894 29.0317C27.4894 29.0317 27.5114 29.2328 27.5554 29.5679C27.5554 29.7466 27.6656 29.9477 27.7317 30.1712C27.7977 30.3946 27.9299 30.6404 28.0841 30.9085C28.3705 31.4447 28.767 32.0033 29.2516 32.5842C29.7141 33.1651 30.2869 33.746 30.8596 34.3046C32.005 35.4217 33.2606 36.4271 34.1857 37.1645C34.8466 37.6783 35.3312 38.0135 35.5735 38.2146C36.4986 36.5835 37.4458 34.8631 38.371 33.031L38.3489 33.0534C38.3489 33.0534 36.4546 31.3777 34.8686 29.4338C34.4721 28.9423 34.0976 28.4508 33.7892 27.9369C33.4809 27.4453 33.1945 26.9538 33.0403 26.5293C32.9522 26.3058 32.8641 26.1048 32.8421 25.926C32.798 25.7473 32.7539 25.5909 32.7539 25.4345C32.7539 25.1664 32.7539 25.01 32.7539 25.01C32.7539 25.01 32.776 25.1664 32.798 25.4345C32.798 25.5685 32.8861 25.7249 32.9302 25.9037C32.9742 26.0824 33.0844 26.2612 33.1945 26.4622C33.4148 26.8644 33.7232 27.2889 34.0976 27.7358C34.4721 28.1826 34.8906 28.6072 35.3091 29.054C36.1902 29.903 37.1374 30.685 37.8643 31.2436C38.3489 31.6011 38.7014 31.8692 38.8996 32.0033C39.9129 30.0371 40.9041 27.9816 41.8954 25.859L41.7852 25.993C41.7852 25.993 40.2653 24.6525 39.0098 23.0885C38.7014 22.7087 38.393 22.2841 38.1287 21.9043C37.8864 21.5021 37.6661 21.1223 37.5339 20.7648C37.4458 20.6084 37.3797 20.452 37.3577 20.2956C37.3357 20.1392 37.2916 20.0275 37.2916 19.9158C37.2916 19.6924 37.2916 19.5807 37.2916 19.5807C37.2916 19.5807 37.3137 19.7147 37.3357 19.9158C37.3357 20.0275 37.4018 20.1392 37.4458 20.2733C37.4899 20.4073 37.578 20.5637 37.6661 20.7201C37.8423 21.0553 38.0846 21.3904 38.371 21.7479C38.6573 22.1054 38.9877 22.4629 39.3402 22.798C40.0451 23.4907 40.816 24.0939 41.3888 24.5408C41.7632 24.8312 42.0496 25.0323 42.2258 25.1664C42.2258 25.144 42.2258 25.144 42.2478 25.1217C42.2478 25.1217 42.9087 23.6471 43.217 22.9321C46.345 15.7377 45.1775 18.7763 42.6884 25.01C42.9087 24.9876 43.217 24.9876 43.5695 24.9429C44.3845 24.8759 45.4639 24.7419 46.5212 24.5408C47.0498 24.4291 47.5785 24.295 48.0631 24.1386C48.5477 23.9822 48.9883 23.8035 49.3407 23.6247C49.5169 23.5353 49.6711 23.446 49.8033 23.3343C49.9355 23.2225 50.0676 23.1555 50.1337 23.0661C50.2879 22.8874 50.376 22.7757 50.376 22.7757C50.376 22.7757 50.3099 22.8874 50.1778 23.0885C50.1117 23.2002 50.0015 23.2896 49.8914 23.4013C49.7813 23.5353 49.6271 23.6471 49.4508 23.7588C49.1204 24.0045 48.6799 24.228 48.2173 24.4514C47.7327 24.6748 47.2261 24.8536 46.6974 25.0323C44.5828 25.7249 42.358 26.0601 42.358 26.0601L42.3359 25.9484C41.6531 27.6241 40.9041 29.5009 40.1332 31.4447C40.3975 31.4224 40.6618 31.4 41.0143 31.3777C42.0496 31.2883 43.4593 31.1319 44.8251 30.8414C45.5079 30.7074 46.1908 30.5286 46.8075 30.3276C47.4243 30.1265 47.997 29.903 48.4596 29.6573C48.6799 29.5232 48.9002 29.4115 49.0543 29.2774C49.2085 29.1434 49.3848 29.054 49.4729 28.92C49.6711 28.6965 49.7813 28.5625 49.7813 28.5625C49.7813 28.5625 49.6931 28.6965 49.5169 28.9646C49.4508 29.0987 49.2966 29.2104 49.1425 29.3668C48.9883 29.5232 48.79 29.6796 48.5697 29.836C48.1292 30.1488 47.5785 30.4393 46.9617 30.7297C46.345 31.0202 45.6841 31.2436 45.0013 31.4894C42.6664 32.249 40.2433 32.6735 39.6045 32.7853C38.8776 34.5727 37.8423 36.4048 37.1374 38.1922C37.4238 38.1699 38.0626 38.1475 38.4371 38.1252C39.6265 38.0135 41.2346 37.8347 42.7985 37.5219C43.5695 37.3655 44.3625 37.1645 45.0674 36.941C45.7722 36.7176 46.4331 36.4495 46.9617 36.159C47.2261 36.025 47.4684 35.8909 47.6446 35.7345C47.8208 35.5781 48.0191 35.4887 48.1292 35.3323C48.3495 35.0642 48.4816 34.9078 48.4816 34.9078C48.4816 34.9078 48.3715 35.0866 48.1732 35.377C48.0851 35.5334 47.9089 35.6675 47.7327 35.8462C47.5565 36.025 47.3362 36.2037 47.0719 36.3825C46.5652 36.7399 45.9264 37.0751 45.2216 37.4102C44.5167 37.7454 43.7457 38.0135 42.9747 38.2816C40.3094 39.153 37.1815 39.4881 36.4105 39.6222C35.5955 41.6777 34.1637 43.7556 33.5029 45.409C39.8688 47.6879 50.8166 48.1571 55.2441 37.9688C60.0021 26.9091 47.0719 0.768011 47.4463 4.61098Z" fill="#4BB166"/>
<path d="M58.8767 60.2892C55.947 56.2675 52.1142 53.2513 48.0832 50.5925C44.8011 48.4252 41.0784 48.8944 37.5981 50.302C35.4614 51.1734 33.3688 51.2628 31.3202 50.6372C28.5888 49.8105 25.8353 49.7211 23.0599 49.6988C21.8704 49.6988 20.8791 50.1233 20.1522 51.0617C19.7557 51.5979 23.0158 53.8098 25.7913 53.8098C25.2626 54.8599 16.2533 52.648 15.0639 52.7374L8.23531 51.8437C5.81228 51.6426 5.81228 50.7042 3.4333 52.0894C3.34519 52.1341 3.23505 52.1341 3.14694 52.1341C1.82529 52.0671 1.07635 52.4916 0.327413 53.3853C-0.0911108 53.8992 -0.0690833 54.5248 0.17322 55.1281C0.415523 55.7537 1.0323 55.5973 1.5169 55.7983C4.57873 57.0272 5.54795 57.6305 9.68913 58.6582C12.6408 59.3955 15.5044 60.2892 18.4341 60.9595C19.6456 61.25 20.8791 61.4511 21.9805 62.0767C24.3154 63.4172 26.7825 63.8194 29.4479 63.6854C32.4656 63.5513 35.4834 63.663 38.5232 63.6407C43.8319 63.6183 47.8629 65.7632 50.5943 70.5223L67.6657 70.4776C63.921 66.0537 62.291 64.9812 58.8767 60.2892Z" fill="#4BB166"/>
<path d="M17.3089 47.6879C18.6525 46.459 20.3707 45.7887 22.3091 45.7887H22.3312C23.014 45.7887 23.7189 45.7887 24.4238 45.8111C24.8203 45.2972 25.2388 44.7386 25.7014 44.0907C25.3049 43.6662 24.9304 43.2193 24.578 42.7725C23.829 42.1469 23.1021 41.4766 22.4193 40.7393C22.6616 40.7616 22.9039 40.7616 23.1462 40.784C22.5955 39.9126 22.1329 39.0189 21.7144 38.0581C21.1857 37.9688 20.6571 37.9017 20.1504 37.79C18.256 34.8855 16.9564 31.467 16.4498 27.7804C17.6833 28.2496 18.9609 28.6071 20.2826 28.8752C20.3707 28.0932 20.5029 27.2889 20.7011 26.4846C19.1371 26.1494 17.6393 25.6802 16.2295 25.0546C16.2295 24.8088 16.2075 24.5854 16.2075 24.3396C16.2075 21.5468 16.6701 18.8657 17.5071 16.3856C19.5336 17.7709 21.9567 18.5975 24.578 18.7539C25.371 17.7485 26.23 16.7878 27.1772 15.8941C26.6045 15.9834 26.0098 16.0505 25.415 16.0505C22.8378 16.0505 20.4808 15.1791 18.5865 13.7492C20.2385 10.2413 22.6836 7.22506 25.6573 5.03547C28.1685 6.88992 30.2611 9.32528 31.8691 12.1405C32.6401 11.6043 33.411 11.0904 34.204 10.5988C32.8824 8.29752 31.2523 6.21964 29.3359 4.45455C31.9131 4.92375 34.3141 5.83981 36.4728 7.13569C36.2746 8.07409 35.9222 8.9678 35.4816 9.79448C36.8253 8.9678 38.169 8.20815 39.4025 7.49318C40.0633 7.11335 40.7903 6.68883 41.5172 6.26432C37.2218 2.71182 31.7149 0.499878 25.6793 0.499878C20.4808 0.499878 15.6568 2.1309 11.6918 4.87907C11.6918 4.87907 11.6918 4.87907 11.3614 5.12484C9.15866 6.68883 7.24226 8.61032 5.6783 10.7999C5.436 11.1574 5.1937 11.5149 4.95139 11.8724C4.33462 12.8554 3.78393 13.8609 3.29933 14.911C2.35214 17.0112 1.71334 19.2455 1.38293 21.6138C1.22874 22.6863 1.14062 23.7587 1.14062 24.8535C1.14062 35.3546 7.90309 44.2918 17.3089 47.6879ZM21.9787 4.49924C19.7759 6.53243 17.9036 8.9678 16.4938 11.716C15.5246 10.4871 14.8197 9.03483 14.4453 7.44849C16.6921 6.01855 19.2473 4.99078 21.9787 4.49924ZM12.0663 9.21357C12.7271 11.2244 13.8285 13.0118 15.2603 14.5088C14.203 17.324 13.5642 20.385 13.4981 23.58C10.6125 21.7479 8.2335 19.2902 6.66955 16.408C7.92512 13.6374 9.77543 11.1797 12.0663 9.21357ZM4.84126 24.8535C4.84126 22.9544 5.12762 21.1223 5.61222 19.3572C7.5947 22.2618 10.3261 24.6971 13.5642 26.4622C13.8285 30.1041 14.7977 33.5002 16.3176 36.5612C10.9429 34.2822 6.73563 30.1041 4.86328 24.9652C4.84126 24.9206 4.84126 24.8982 4.84126 24.8535ZM18.3001 39.9573C19.5997 41.8341 21.1417 43.5098 22.8598 44.9621C23.036 45.0291 23.2343 45.0961 23.4105 45.1408C23.2563 45.2302 23.1241 45.2749 22.992 45.3642C15.3484 44.3811 9.00447 39.2646 6.27305 32.3384C9.29083 35.8909 13.4761 38.5944 18.3001 39.9573Z" fill="#4BB166"/>
<path d="M90.3981 22.8203H90.4862L92.711 1.23719H99.4735L94.4071 32.0256H86.3891L84.2084 10.3531H84.1423L81.7853 32.0256H73.8995L68.7891 1.23719H75.6617L77.7983 22.865L77.8864 22.7757L80.75 1.21484H87.6226L90.3981 22.8203Z" fill="#4BB166"/>
<path d="M120.796 22.2171C120.796 23.9375 120.642 25.4568 120.312 26.7974C119.981 28.1379 119.452 29.2327 118.704 30.1041C117.955 30.9755 116.963 31.6457 115.752 32.0926C114.54 32.5395 113.02 32.7629 111.214 32.7629C109.408 32.7629 107.888 32.5395 106.654 32.0926C105.421 31.6457 104.43 30.9755 103.659 30.1041C102.888 29.2327 102.337 28.1379 102.007 26.7974C101.676 25.4791 101.5 23.9375 101.5 22.2171V9.68277C101.5 6.71118 102.337 4.43221 104.011 2.84587C105.685 1.28188 108.086 0.499878 111.214 0.499878C114.342 0.499878 116.721 1.28188 118.351 2.86822C119.981 4.45455 120.796 6.71118 120.796 9.70511V22.2171ZM113.681 10.1743C113.681 9.70511 113.659 9.23591 113.615 8.74437C113.571 8.25283 113.483 7.80597 113.307 7.4038C113.153 7.00163 112.888 6.68883 112.558 6.42072C112.227 6.17495 111.765 6.04089 111.17 6.04089C110.597 6.04089 110.157 6.17495 109.804 6.42072C109.474 6.68883 109.21 7.00163 109.033 7.4038C108.857 7.80597 108.747 8.25283 108.681 8.74437C108.615 9.23591 108.593 9.70511 108.593 10.1743V22.8203C108.593 23.2672 108.615 23.7364 108.681 24.2503C108.725 24.7642 108.857 25.2557 109.033 25.6802C109.21 26.1271 109.474 26.4846 109.826 26.775C110.179 27.0655 110.641 27.1995 111.192 27.1995C111.765 27.1995 112.205 27.0655 112.558 26.775C112.888 26.4846 113.153 26.1271 113.307 25.6802C113.461 25.2334 113.571 24.7642 113.615 24.2503C113.659 23.7364 113.681 23.2449 113.681 22.8203V10.1743Z" fill="#4BB166"/>
<path d="M131.193 32.0256H124.078V1.23718H134.475C137.405 1.23718 139.608 1.88512 141.061 3.18101C142.493 4.47689 143.22 6.66648 143.22 9.72745C143.22 11.3585 142.956 12.7884 142.449 13.9502C141.942 15.1344 140.929 16.0505 139.453 16.7431V16.8325C140.445 17.0559 141.282 17.5027 141.92 18.1954C142.559 18.888 142.912 19.7594 142.978 20.8318C143.044 21.4574 143.088 22.2394 143.11 23.1331C143.154 24.0268 143.198 24.9429 143.22 25.8813C143.264 26.8197 143.308 27.6911 143.352 28.5401C143.418 29.3891 143.484 30.0594 143.595 30.5509C143.771 31.0201 144.013 31.3776 144.277 31.6234V32.0256H136.502C136.392 31.7351 136.303 31.4223 136.237 31.1542C136.171 30.8861 136.127 30.5733 136.105 30.2828C136.061 28.9199 136.039 27.624 136.061 26.3952C136.083 25.1663 136.039 24.0939 135.929 23.1331C135.819 22.1724 135.599 21.4127 135.268 20.8318C134.938 20.2509 134.343 19.9381 133.506 19.8934H131.149V32.0256H131.193ZM131.193 14.3301H133.616C134.123 14.3301 134.563 14.2184 134.894 13.9949C135.224 13.7715 135.488 13.481 135.687 13.1236C135.863 12.7661 135.995 12.3639 136.061 11.8947C136.127 11.4255 136.171 10.9563 136.171 10.5094C136.171 9.61573 136.083 8.90076 135.885 8.38688C135.687 7.873 135.4 7.47082 135.004 7.2474C134.607 7.00163 134.079 6.86757 133.44 6.82288C132.823 6.75586 132.074 6.75586 131.193 6.7782V14.3301Z" fill="#4BB166"/>
<path d="M146.656 32.0256V1.23718H153.771V13.5481H153.859L159.124 1.23718H166.415L159.939 14.8216L166.811 32.0256H159.278L155.357 21.301L153.771 24.429V32.0256H146.656Z" fill="#4BB166"/>
<path d="M70.1094 69.7625V38.9741H77.2243V69.7625H70.1094Z" fill="#4BB166"/>
<path d="M87.2288 52.5139L87.1407 52.6032L87.8015 69.7625H81.0391V38.9741H88.3522L93.8591 56.1781H93.9692L93.2864 38.9741H100.049V69.7625H92.7577L87.2288 52.5139Z" fill="#4BB166"/>
<path d="M109.188 69.7625V38.9741H125.488V45.1407H116.302V50.8158H125.202V56.9824H116.302V63.6406H125.973V69.7625H109.188Z" fill="#4BB166"/>
<path d="M141.284 49.7211V47.755C141.284 46.4367 141.064 45.4537 140.645 44.7834C140.227 44.1131 139.676 43.7779 139.015 43.7779C137.914 43.7556 137.165 44.0237 136.813 44.6046C136.438 45.1855 136.262 45.9675 136.262 46.9953L136.218 62.2331C136.218 63.1045 136.416 63.7747 136.791 64.2663C137.165 64.7355 137.826 64.9813 138.773 64.9813C139.368 64.9813 139.83 64.8472 140.183 64.5567C140.535 64.2663 140.8 63.9088 140.998 63.462C141.196 63.0151 141.306 62.5459 141.35 62.032C141.394 61.5181 141.416 61.0266 141.416 60.5574V57.7645H148.531V61.5405C148.531 62.8587 148.333 64.0652 147.937 65.1823C147.54 66.2995 146.945 67.2379 146.108 68.0422C145.293 68.8466 144.214 69.4498 142.914 69.8967C141.615 70.3435 140.051 70.5446 138.244 70.5446C136.592 70.5446 135.205 70.3212 134.059 69.8967C132.914 69.4498 131.967 68.8242 131.24 67.9975C130.513 67.1709 129.984 66.1431 129.632 64.9142C129.301 63.7077 129.125 62.3001 129.125 60.7585V48.1124C129.125 44.7387 129.896 42.281 131.46 40.6946C133.002 39.1083 135.425 38.304 138.685 38.304C140.205 38.304 141.549 38.4827 142.76 38.8178C143.972 39.153 144.985 39.6892 145.822 40.4042C146.659 41.1191 147.298 42.0352 147.738 43.1747C148.179 44.3142 148.399 45.6547 148.399 47.2187V49.8105H141.284V49.7211Z" fill="#4BB166"/>
<path d="M170.999 59.954C170.999 61.6744 170.845 63.1937 170.515 64.5343C170.184 65.8749 169.656 66.9697 168.907 67.841C168.158 68.7124 167.166 69.3827 165.955 69.8296C164.743 70.2764 163.224 70.4998 161.417 70.4998C159.611 70.4998 158.091 70.2764 156.858 69.8296C155.624 69.3827 154.633 68.7124 153.862 67.841C153.091 66.9697 152.54 65.8749 152.21 64.5343C151.879 63.2161 151.703 61.6744 151.703 59.954V47.4197C151.703 44.4481 152.54 42.1692 154.214 40.5828C155.888 39.0188 158.289 38.2145 161.417 38.2145C164.545 38.2145 166.924 38.9965 168.554 40.5828C170.184 42.1692 170.999 44.4258 170.999 47.4197V59.954ZM163.862 47.9113C163.862 47.4421 163.84 46.9729 163.796 46.4813C163.752 45.9898 163.664 45.5429 163.488 45.1407C163.312 44.7386 163.069 44.4258 162.739 44.1577C162.409 43.9119 161.946 43.7778 161.351 43.7778C160.778 43.7778 160.338 43.9119 159.985 44.1577C159.655 44.4258 159.391 44.7386 159.215 45.1407C159.038 45.5429 158.928 45.9898 158.862 46.4813C158.796 46.9729 158.774 47.4421 158.774 47.9113V60.5573C158.774 61.0041 158.796 61.4733 158.862 61.9872C158.906 62.5011 159.038 62.9927 159.215 63.4172C159.391 63.864 159.655 64.2215 160.008 64.512C160.36 64.8024 160.823 64.9365 161.373 64.9365C161.946 64.9365 162.386 64.8024 162.739 64.512C163.069 64.2215 163.334 63.864 163.488 63.4172C163.642 62.9703 163.752 62.5011 163.796 61.9872C163.84 61.4733 163.862 60.9818 163.862 60.5573V47.9113Z" fill="#4BB166"/>
</svg>
