<svg width="40" height="43" viewBox="0 0 40 43" fill="none" xmlns="http://www.w3.org/2000/svg">
<path d="M19.7201 42.39C18.5101 41.98 18.0901 41.08 18.2101 39.85C18.1101 39.83 18.0401 39.81 17.9701 39.8C16.9601 39.66 16.2701 38.87 16.2601 37.82C16.2501 36.82 16.2701 35.82 16.2501 34.83C16.2501 34.69 16.1501 34.5 16.0401 34.43C15.3201 34.01 14.9501 33.39 14.9701 32.57C15.0101 31.02 14.8101 29.52 14.0401 28.16C13.6301 27.44 13.1201 26.77 12.5701 26.15C9.92011 23.14 9.07011 19.7 10.3201 15.9C11.5701 12.09 14.2901 9.67998 18.2201 8.93998C22.2801 8.17998 25.6701 9.54998 28.3001 12.75C28.6201 13.14 28.6001 13.49 28.2801 13.74C27.9901 13.96 27.6201 13.88 27.3401 13.51C25.7901 11.54 23.7601 10.41 21.3001 10.04C16.7801 9.36998 12.1301 12.65 11.2401 17.17C10.6301 20.24 11.3401 22.98 13.4901 25.28C14.9401 26.84 15.8701 28.63 16.1301 30.74C16.2001 31.34 16.2001 31.95 16.2301 32.56C16.2501 33.15 16.4701 33.39 17.0701 33.39C19.1201 33.4 21.1701 33.4 23.2201 33.39C23.8401 33.39 24.0701 33.15 24.0601 32.48C24.0301 30.35 24.5301 28.37 25.7501 26.6C26.1201 26.07 26.5601 25.6 26.9801 25.1C29.2201 22.43 29.8001 19.42 28.7601 16.11C28.5601 15.47 28.6401 15.12 29.0601 14.99C29.4301 14.87 29.7401 15.11 29.9201 15.68C31.1401 19.54 30.4501 23.04 27.7601 26.06C26.1501 27.87 25.2501 29.89 25.3201 32.32C25.3501 33.26 25.0501 34 24.1701 34.46C24.0501 34.5 24.0001 34.69 24.0001 34.82C23.9901 35.74 23.9901 36.65 23.9901 37.57C23.9901 38.92 23.4101 39.6 22.0401 39.84C22.1601 41.04 21.7601 41.97 20.5301 42.39H19.7201ZM22.7201 34.65H17.5401V35.97C18.0101 36.03 18.6301 35.85 18.6601 36.55C18.7001 37.36 18.0001 37.18 17.5101 37.23C17.5101 37.46 17.5001 37.65 17.5101 37.84C17.5301 38.31 17.7601 38.58 18.2301 38.58C19.5001 38.59 20.7601 38.59 22.0301 38.58C22.3801 38.58 22.6701 38.41 22.7201 38.03C22.7501 37.77 22.7301 37.51 22.7301 37.22C22.1101 37.22 21.5301 37.22 20.9601 37.22C20.4601 37.22 20.1701 36.99 20.1601 36.61C20.1501 36.23 20.4401 36 20.9401 35.99C21.5301 35.99 22.1201 35.99 22.7301 35.99V34.65H22.7201ZM20.7701 39.83H19.4801C19.3701 40.87 19.5901 41.15 20.1301 41.15C20.6601 41.15 20.8801 40.86 20.7701 39.83Z" fill="black"/>
<path d="M22.5982 18.9801C22.5982 18.2301 22.5882 17.4701 22.5982 16.7201C22.6082 16.1501 22.8182 15.9401 23.3782 15.9301C23.7582 15.9301 24.1282 15.9301 24.5082 15.9301C25.6282 15.9401 26.4782 16.5101 26.8682 17.5501C27.2282 18.5101 27.2282 19.4801 26.8182 20.4201C26.3782 21.4101 25.6082 21.9401 24.5182 21.9701C24.1182 21.9801 23.7082 21.9801 23.3082 21.9801C22.8382 21.9701 22.6182 21.7501 22.6082 21.2801C22.5982 20.5101 22.6082 19.7501 22.6082 18.9801H22.5982ZM23.8582 20.7201C24.5582 20.7501 25.2382 20.8401 25.6082 20.1201C26.0182 19.3101 26.0282 18.4701 25.5482 17.6901C25.1482 17.0501 24.4882 17.1801 23.8582 17.2001V20.7201Z" fill="black"/>
<path d="M19.2517 19.5701V20.7901C19.6817 20.7901 20.1017 20.7901 20.5317 20.7901C21.0117 20.7901 21.3117 21.0401 21.3017 21.4201C21.2917 21.7901 21.0217 22.0201 20.5417 22.0301C19.9317 22.0401 19.3317 22.0401 18.7217 22.0301C18.2117 22.0201 18.0117 21.8001 18.0117 21.3101C18.0117 19.7501 18.0117 18.1901 18.0117 16.6201C18.0117 16.1201 18.2217 15.9101 18.7217 15.9001C19.3417 15.8901 19.9617 15.8901 20.5817 15.9001C21.0317 15.9101 21.2917 16.1301 21.3017 16.5001C21.3117 16.8701 21.0217 17.1301 20.5717 17.1301C20.1417 17.1401 19.7117 17.1301 19.2617 17.1301V18.3501C19.6717 18.3501 20.0717 18.3401 20.4717 18.3501C20.8817 18.3601 21.1417 18.5901 21.1617 18.9401C21.1717 19.3001 20.8917 19.5601 20.4717 19.5601C20.0717 19.5701 19.6817 19.5701 19.2517 19.5701Z" fill="black"/>
<path d="M15.2419 20.81C15.6319 20.81 15.9619 20.8 16.2819 20.81C16.7119 20.83 16.9819 21.1 16.9619 21.45C16.9519 21.79 16.6819 22.04 16.2819 22.05C15.7419 22.06 15.2019 22.07 14.6619 22.05C14.2319 22.03 13.9919 21.78 13.9919 21.35C13.9819 19.76 13.9819 18.17 13.9919 16.58C13.9919 16.16 14.2519 15.87 14.6019 15.86C14.9619 15.85 15.2319 16.15 15.2319 16.6C15.2419 17.83 15.2319 19.05 15.2319 20.28C15.2419 20.44 15.2419 20.6 15.2419 20.81Z" fill="black"/>
<path d="M19.4888 4.16002C19.4888 3.34002 19.4788 2.52002 19.4888 1.70002C19.4988 1.24002 19.7188 0.980022 20.0788 0.960022C20.4788 0.940022 20.7388 1.21002 20.7488 1.69002C20.7588 2.67002 20.7488 3.66002 20.7488 4.64002C20.7488 5.29002 20.7488 5.93002 20.7488 6.58002C20.7388 7.09002 20.5188 7.35002 20.1188 7.35002C19.7188 7.35002 19.4988 7.09002 19.4888 6.58002C19.4888 5.78002 19.4888 4.97002 19.4888 4.16002Z" fill="black"/>
<path d="M5.21 18.4501C6.02 18.4501 6.83 18.4501 7.63 18.4501C8.13 18.4501 8.4 18.6801 8.39 19.0801C8.39 19.4701 8.13 19.7001 7.65 19.7001C6.01 19.7101 4.36 19.7101 2.72 19.7001C2.26 19.7001 2 19.4501 2 19.0701C2 18.6901 2.27 18.4601 2.74 18.4501C3.57 18.4501 4.39 18.4501 5.21 18.4501Z" fill="black"/>
<path d="M35.0519 18.4501C35.8719 18.4501 36.6919 18.4501 37.5219 18.4501C37.9719 18.4501 38.2319 18.6801 38.2519 19.0401C38.2719 19.4201 38.0019 19.6901 37.5419 19.7001C35.8719 19.7101 34.2019 19.7101 32.5319 19.7001C32.0819 19.7001 31.8419 19.4401 31.8519 19.0701C31.8619 18.6901 32.1119 18.4601 32.5519 18.4601C33.3819 18.4501 34.2219 18.4501 35.0519 18.4501Z" fill="black"/>
<path d="M14.5587 4.69006C14.6487 4.78006 14.8887 4.91006 14.9887 5.11006C15.3387 5.87006 15.6487 6.64006 15.9487 7.41006C16.0987 7.79006 15.9687 8.11006 15.6287 8.25006C15.2987 8.40006 14.9787 8.26006 14.8087 7.88006C14.4787 7.11006 14.1587 6.35006 13.8587 5.57006C13.6887 5.11006 13.9587 4.69006 14.5587 4.69006Z" fill="black"/>
<path d="M25.6901 4.69006C26.2501 4.69006 26.5601 5.09006 26.4001 5.51006C26.0901 6.33006 25.7401 7.15006 25.3801 7.96006C25.2301 8.29006 24.9101 8.39006 24.6101 8.26006C24.2801 8.11006 24.1501 7.80006 24.2901 7.42006C24.4901 6.89006 24.7201 6.38006 24.9301 5.85006C25.0401 5.59006 25.1101 5.31006 25.2701 5.08006C25.3901 4.89006 25.6001 4.77006 25.6901 4.69006Z" fill="black"/>
<path d="M6.38806 12.77C6.42806 12.78 6.51806 12.79 6.60806 12.82C7.38806 13.14 8.17806 13.46 8.94806 13.79C9.30806 13.95 9.42806 14.27 9.29806 14.58C9.16806 14.9 8.84806 15.06 8.49806 14.92C7.68806 14.6 6.87806 14.26 6.07806 13.91C5.78806 13.78 5.65806 13.52 5.73806 13.21C5.81806 12.94 6.01806 12.77 6.38806 12.77Z" fill="black"/>
<path d="M31.5398 14.97C31.1998 14.98 30.9598 14.81 30.9398 14.52C30.9198 14.31 31.0298 13.95 31.1898 13.87C32.0198 13.47 32.8798 13.12 33.7498 12.79C34.0598 12.67 34.3398 12.81 34.4798 13.14C34.6098 13.45 34.5298 13.75 34.2498 13.87C33.4098 14.26 32.5498 14.59 31.6898 14.95C31.6298 14.97 31.5698 14.96 31.5398 14.97Z" fill="black"/>
<path d="M9.35814 23.92C9.27814 24.01 9.15814 24.26 8.96814 24.34C8.17814 24.7 7.36814 25.03 6.55814 25.35C6.21814 25.48 5.88814 25.31 5.76814 24.99C5.64814 24.69 5.76814 24.37 6.09814 24.22C6.88814 23.88 7.67814 23.54 8.47814 23.23C8.91814 23.07 9.33814 23.36 9.35814 23.92Z" fill="black"/>
<path d="M30.8908 23.9301C30.8808 23.3901 31.2808 23.0601 31.7008 23.2201C32.5408 23.5401 33.3708 23.8901 34.1908 24.2501C34.4908 24.3901 34.6008 24.6701 34.4708 25.0001C34.3508 25.3101 34.0308 25.4801 33.7108 25.3601C32.8708 25.0301 32.0408 24.6901 31.2208 24.3101C31.0608 24.2401 30.9608 24.0201 30.8908 23.9301Z" fill="black"/>
<path d="M12.0886 10.42C11.9586 10.58 11.8486 10.82 11.6786 10.89C11.4986 10.96 11.1786 10.95 11.0486 10.84C10.3786 10.22 9.72863 9.57002 9.09863 8.90002C8.86863 8.66002 8.89863 8.35002 9.13863 8.11002C9.37863 7.87002 9.68863 7.82002 9.93863 8.06002C10.5986 8.69002 11.2386 9.34002 11.8786 10C11.9686 10.08 11.9986 10.23 12.0886 10.42Z" fill="black"/>
<path d="M28.78 11.04C28.62 10.91 28.38 10.8 28.31 10.63C28.24 10.46 28.25 10.14 28.36 10.01C28.98 9.34005 29.63 8.69005 30.29 8.06005C30.54 7.82005 30.84 7.86005 31.09 8.10005C31.33 8.34005 31.38 8.65005 31.14 8.90005C30.51 9.56005 29.86 10.2 29.2 10.84C29.12 10.92 28.98 10.95 28.78 11.04Z" fill="black"/>
<path d="M9.5199 30.31C9.3599 30.18 9.1299 30.08 9.0499 29.9C8.9699 29.74 8.9699 29.42 9.0699 29.31C9.7099 28.62 10.3699 27.95 11.0599 27.3C11.3099 27.07 11.6299 27.13 11.8499 27.38C12.0799 27.63 12.0999 27.93 11.8599 28.18C11.2299 28.83 10.5899 29.46 9.9499 30.09C9.8599 30.18 9.7199 30.21 9.5199 30.31Z" fill="black"/>
<path d="M28.7993 27.09C29.0193 27.23 29.1993 27.3 29.3293 27.43C29.9093 27.99 30.4793 28.56 31.0493 29.14C31.3593 29.45 31.3693 29.81 31.1093 30.07C30.8393 30.33 30.4993 30.32 30.1893 30.01C29.5993 29.44 29.0293 28.85 28.4493 28.27C28.2493 28.07 28.1393 27.83 28.2993 27.58C28.3993 27.39 28.6093 27.26 28.7993 27.09Z" fill="black"/>
</svg>
