<svg width="41" height="42" viewBox="0 0 41 42" fill="none" xmlns="http://www.w3.org/2000/svg">
<g clip-path="url(#clip0_1469_6972)">
<path d="M23.0883 0.959961C23.1883 1.00996 23.2883 1.05996 23.3883 1.11996C23.9383 1.41996 24.2483 1.86996 24.2583 2.49996C24.2683 3.17996 24.2683 3.85996 24.2583 4.52996C24.2583 4.74996 24.3083 4.84996 24.5383 4.90996C25.8383 5.25996 27.0683 5.76996 28.2383 6.44996C28.4183 6.54996 28.5283 6.53996 28.6683 6.38996C29.1083 5.92996 29.5683 5.47996 30.0183 5.02996C30.7483 4.30996 31.6583 4.28996 32.3783 4.99996C33.5983 6.20996 34.8183 7.42996 36.0283 8.64996C36.7483 9.36996 36.7283 10.28 36.0183 11.01C35.5783 11.46 35.1383 11.91 34.6883 12.33C34.4983 12.51 34.4983 12.65 34.6183 12.86C35.2683 13.99 35.7583 15.19 36.1083 16.46C36.1783 16.7 36.2683 16.8 36.5283 16.79C37.1883 16.77 37.8583 16.78 38.5183 16.79C39.3783 16.8 40.0583 17.46 40.0583 18.32C40.0683 20.12 40.0683 21.92 40.0583 23.72C40.0583 24.56 39.3783 25.23 38.5383 25.24C37.7783 25.25 37.0283 25.25 36.2683 25.25C36.2583 25.25 36.2383 25.26 36.1983 25.27C36.0783 25.64 35.9883 26.05 35.8283 26.42C35.4483 27.33 35.0483 28.23 34.6183 29.12C34.4883 29.38 34.5083 29.52 34.7083 29.71C35.1683 30.14 35.5983 30.59 36.0383 31.03C36.7183 31.72 36.7283 32.64 36.0483 33.33C34.8183 34.58 33.5883 35.81 32.3383 37.04C31.6483 37.72 30.7383 37.69 30.0383 37.01C29.5283 36.51 29.0183 36 28.5083 35.49C28.4883 35.47 28.4683 35.46 28.4583 35.46C27.7683 35.78 27.0983 36.13 26.4083 36.42C25.7183 36.71 24.9983 36.93 24.2483 37.2C24.2483 37.92 24.2483 38.68 24.2483 39.43C24.2483 40.39 23.5883 41.04 22.6283 41.04C20.8983 41.04 19.1583 41.04 17.4283 41.04C16.4683 41.04 15.8083 40.39 15.8083 39.43C15.8083 38.7 15.8083 37.97 15.7983 37.24C15.7983 37.22 15.7883 37.19 15.8083 37.27C14.3583 36.67 12.9683 36.09 11.5283 35.49C11.0783 35.94 10.5683 36.46 10.0483 36.97C9.29828 37.71 8.39828 37.71 7.64828 36.96C6.45828 35.77 5.26828 34.58 4.07828 33.39C3.31828 32.63 3.31828 31.73 4.06828 30.98C4.55828 30.48 5.05828 29.98 5.55828 29.48C5.57828 29.46 5.58828 29.44 5.58828 29.43C5.25828 28.74 4.90828 28.07 4.61828 27.38C4.32828 26.69 4.10828 25.97 3.83828 25.23C3.22828 25.23 2.58828 25.19 1.95828 25.24C1.00828 25.31 0.348281 24.94 -0.0117188 24.06V17.95C0.348281 17.06 1.00828 16.7 1.95828 16.77C2.58828 16.81 3.22828 16.78 3.76828 16.78C4.36828 15.33 4.93828 13.94 5.54828 12.49C5.11828 12.06 4.61828 11.57 4.11828 11.08C3.30828 10.26 3.30828 9.37996 4.10828 8.56996C5.26828 7.40996 6.42828 6.24996 7.58828 5.07996C8.41828 4.25996 9.28828 4.25996 10.1083 5.07996C10.6083 5.56996 11.0983 6.06996 11.5083 6.48996C12.9783 5.87996 14.3683 5.30996 15.7983 4.71996C15.7983 4.02996 15.7583 3.25996 15.8183 2.48996C15.8483 2.15996 15.9983 1.77996 16.2083 1.50996C16.3883 1.26996 16.7183 1.13996 16.9883 0.959961H23.0883ZM1.58828 18.34V23.66C2.52828 23.66 3.44828 23.66 4.37828 23.66C4.96828 23.66 5.18828 23.84 5.32828 24.42C5.70828 26 6.30828 27.49 7.15828 28.88C7.56828 29.54 7.53828 29.76 6.97828 30.31C6.35828 30.92 5.74828 31.54 5.14828 32.13C6.41828 33.39 7.64828 34.62 8.91828 35.88C9.51828 35.27 10.1483 34.63 10.7883 33.99C11.2683 33.51 11.5183 33.48 12.0983 33.83C13.4983 34.69 14.9883 35.3 16.5783 35.69C17.2083 35.85 17.3783 36.05 17.3783 36.69C17.3783 37.6 17.3783 38.51 17.3783 39.43H22.6983C22.6983 38.47 22.6983 37.53 22.6983 36.59C22.6983 36.1 22.8983 35.82 23.3583 35.71C25.0483 35.33 26.6283 34.67 28.0983 33.76C28.5383 33.49 28.8283 33.54 29.2183 33.92C29.7983 34.49 30.3583 35.06 30.9383 35.63C31.0283 35.72 31.1183 35.8 31.1483 35.82C32.4083 34.56 33.6383 33.33 34.8883 32.08C34.3183 31.51 33.7083 30.9 33.0983 30.29C32.5483 29.74 32.5183 29.53 32.9283 28.86C33.7583 27.51 34.3483 26.06 34.7383 24.52C34.9283 23.76 35.0883 23.64 35.8683 23.64C36.7383 23.64 37.6083 23.64 38.4783 23.64V18.32C37.5383 18.32 36.6283 18.32 35.7183 18.32C35.1683 18.32 34.9083 18.15 34.7883 17.63C34.3983 15.94 33.7383 14.37 32.8283 12.89C32.5683 12.47 32.6183 12.16 32.9783 11.8C33.4683 11.3 33.9683 10.8 34.4683 10.31C34.6283 10.15 34.8183 10.02 34.9383 9.91996C33.6283 8.60996 32.3983 7.36996 31.1483 6.11996C30.5683 6.69996 29.9683 7.30996 29.3583 7.90996C28.8183 8.44996 28.5883 8.47996 27.9283 8.06996C26.6683 7.28996 25.3183 6.71996 23.8883 6.34996C22.7183 6.04996 22.7083 6.04996 22.7083 4.82996C22.7083 4.06996 22.7083 3.29996 22.7083 2.53996H17.3883C17.3883 3.50996 17.3883 4.44996 17.3883 5.38996C17.3883 5.83996 17.2083 6.10996 16.7683 6.21996C15.0483 6.62996 13.4283 7.28996 11.9283 8.23996C11.5683 8.45996 11.2283 8.39996 10.9283 8.11996C10.7883 7.98996 10.6483 7.84996 10.5083 7.70996C9.95828 7.15996 9.42828 6.61996 8.92828 6.11996C7.64828 7.39996 6.41828 8.62996 5.16828 9.87996C5.77828 10.48 6.41828 11.12 7.04828 11.75C7.50828 12.21 7.53828 12.48 7.19828 13.03C6.31828 14.45 5.69828 15.97 5.31828 17.59C5.18828 18.14 4.93828 18.33 4.37828 18.33C3.45828 18.34 2.52828 18.34 1.58828 18.34Z" fill="black"/>
<path d="M31.5183 20.98C31.4883 26.61 27.4483 31.35 21.8383 32.28C15.6383 33.31 9.73828 29.04 8.75828 22.83C7.78828 16.66 11.7783 10.94 17.9383 9.75998C20.5583 9.25998 23.0683 9.66998 25.4383 10.91C25.9983 11.2 26.1783 11.64 25.9383 12.08C25.6983 12.52 25.2483 12.6 24.6883 12.31C19.1483 9.40998 12.4483 12.2 10.6183 18.16C8.90828 23.76 12.5383 29.7 18.2883 30.7C23.6483 31.64 28.7583 28.12 29.7383 22.8C30.1183 20.74 29.8583 18.76 28.9783 16.85C28.9283 16.74 28.8683 16.64 28.8383 16.53C28.6983 16.1 28.8683 15.69 29.2583 15.52C29.6683 15.34 30.0683 15.49 30.2983 15.94C30.7883 16.91 31.1383 17.93 31.3083 19C31.3983 19.66 31.4483 20.32 31.5183 20.98Z" fill="black"/>
<path d="M18.938 19.25C20.168 18.02 21.358 16.83 22.548 15.64C23.108 15.08 23.468 15.08 24.038 15.64C24.868 16.47 25.698 17.3 26.528 18.13C27.008 18.62 27.018 19.03 26.538 19.51C24.238 21.82 21.928 24.12 19.618 26.43C19.138 26.91 18.748 26.91 18.268 26.44C16.688 24.86 15.108 23.29 13.538 21.71C13.088 21.26 13.088 20.83 13.528 20.39C14.398 19.51 15.278 18.63 16.158 17.76C16.588 17.33 17.018 17.34 17.458 17.77C17.938 18.24 18.418 18.73 18.938 19.25ZM23.208 17.13C23.078 17.28 22.948 17.46 22.798 17.62C21.738 18.68 20.678 19.74 19.618 20.8C19.128 21.29 18.738 21.29 18.238 20.79C17.758 20.31 17.288 19.82 16.858 19.39C16.278 19.97 15.718 20.53 15.208 21.03C16.438 22.26 17.698 23.52 18.928 24.77C20.898 22.8 22.898 20.8 24.888 18.81C24.368 18.29 23.818 17.74 23.208 17.13Z" fill="black"/>
<path d="M27.7375 14.42C27.3075 14.42 26.9375 14.06 26.9375 13.63C26.9375 13.2 27.3175 12.85 27.7475 12.85C28.1775 12.86 28.5075 13.19 28.5175 13.62C28.5275 14.07 28.1775 14.42 27.7375 14.42Z" fill="black"/>
</g>
<defs>
<clipPath id="clip0_1469_6972">
<rect width="40.08" height="40.08" fill="white" transform="translate(0 0.959961)"/>
</clipPath>
</defs>
</svg>
