<svg width="41" height="41" viewBox="0 0 41 41" fill="none" xmlns="http://www.w3.org/2000/svg">
<g clip-path="url(#clip0_1469_6912)">
<path d="M31.27 4.29145C34.22 4.29145 37.18 4.29145 40.13 4.29145H40.39V2.94145H30.95C30.72 2.03145 30.45 1.86145 29.42 1.86145H28.34C27.26 1.86145 26.18 1.86145 25.1 1.86145C24.15 1.86145 23.77 2.24145 23.76 3.18145C23.76 3.48145 23.76 3.79145 23.76 4.06145V4.21145C23.48 4.29145 23.2 4.37145 22.93 4.45145C22.19 4.66145 21.49 4.85145 20.82 5.14145C18.15 6.26145 15.95 8.19145 14.08 11.0514C12.41 13.6115 11.18 16.6715 10.32 20.4015C9.45 24.2015 9.01 28.3315 8.97 33.0315C8.97 33.1515 8.97 33.2715 8.97 33.4015C7.95 33.4315 7.05 33.1315 6.22 32.7815C4.35 32.0114 2.45 32.0114 0.57 32.7715C0.41 32.8314 0.28 32.8815 0.16 32.9314L0 32.9815V34.4114L0.35 34.2915C0.56 34.2215 0.78 34.1314 1.02 34.0314C2.62 33.3614 4.21 33.3615 5.74 34.0215C7.93 34.9715 10.05 34.9714 12.23 34.0314C13.8 33.3514 15.4 33.3514 16.99 34.0415C19.12 34.9614 21.27 34.9614 23.4 34.0415C24.99 33.3514 26.61 33.3514 28.2 34.0415C29.28 34.5115 30.34 34.7415 31.4 34.7415C32.46 34.7415 33.53 34.5115 34.61 34.0415C36.15 33.3715 37.76 33.3714 39.42 34.0314C39.63 34.1214 39.85 34.1915 40.06 34.2615L40.41 34.3815V32.9815L40.24 32.9214C40.08 32.8615 39.92 32.8015 39.75 32.7315C37.86 31.9815 36 31.9914 34.23 32.7614C32.34 33.5814 30.51 33.5814 28.63 32.7715C26.82 31.9914 24.92 31.9914 22.98 32.7614C22.7 32.8715 22.42 32.9714 22.13 33.0914C22.09 33.1014 22.05 33.1215 22.02 33.1315C22.16 30.1115 22.32 27.2415 23.89 24.6215C24.1 25.1415 24.44 25.2815 25.18 25.2815C26.13 25.2815 27.08 25.2815 28.03 25.2815H29.45C30.48 25.2815 30.74 25.1215 30.97 24.2015H40.41V22.8715H30.99V22.1814H31.27C34.23 22.1814 37.19 22.1814 40.15 22.1814H40.41V20.8414H40.15C37.19 20.8414 34.23 20.8414 31.28 20.8414H31V19.3915H31.19C31.48 19.3915 31.76 19.3915 32.04 19.3915C32.24 19.3915 32.5 19.3715 32.68 19.1915C32.8 19.0714 32.86 18.9114 32.86 18.7015C32.86 18.4114 32.72 18.0515 32.07 18.0515H32.06C31.73 18.0515 31.41 18.0515 31.08 18.0515H31.01V6.85145C31.11 6.85145 31.21 6.85145 31.31 6.85145C31.77 6.85145 32.21 6.85145 32.66 6.84145C32.71 6.84145 32.77 6.84145 32.83 6.85145C33.06 6.86145 33.35 6.88145 33.55 6.68145C33.67 6.56145 33.73 6.38145 33.73 6.16145C33.73 5.96145 33.66 5.80145 33.54 5.68145C33.34 5.49145 33.05 5.50145 32.81 5.50145C32.76 5.50145 32.72 5.51145 32.67 5.50145C32.21 5.49145 31.75 5.50145 31.31 5.50145C31.21 5.50145 31.1 5.50145 31 5.50145V4.29145H31.27ZM25.96 13.0215C26.07 13.1714 26.28 13.4415 26.56 13.4815C26.91 13.5315 27.17 13.0114 27.18 12.9815C27.26 12.8315 27.24 12.6715 27.23 12.5415C27.23 12.5015 27.22 12.4714 27.22 12.4314V3.22145H29.54V23.9314H25.11V3.19145H25.89V12.4815C25.89 12.5114 25.89 12.5515 25.88 12.5815C25.88 12.7115 25.87 12.8814 25.96 13.0215ZM20.65 33.3815C19.88 33.4415 18.94 33.4214 18.1 33.0315C16.92 32.4815 15.75 32.2115 14.57 32.2115C13.9 32.2115 13.23 32.3015 12.55 32.4715C12.56 32.1615 12.58 31.8615 12.59 31.5615C12.62 30.6815 12.66 29.7815 12.75 28.9015C12.86 27.8915 13.01 26.8715 13.15 25.8815C13.25 25.1615 13.36 24.4114 13.46 23.6714C13.5 23.3715 13.25 22.9615 12.99 22.8615C12.77 22.7715 12.6 22.8315 12.49 22.8815C12.31 22.9815 12.18 23.2015 12.14 23.4815C12.08 23.8115 12.03 24.1515 11.97 24.4815C11.82 25.3515 11.66 26.2415 11.58 27.1415C11.47 28.3515 11.4 29.5714 11.33 30.7614C11.29 31.4515 11.25 32.1615 11.2 32.8715C11.2 32.9115 11.14 33.0014 11.11 33.0215C10.87 33.1215 10.62 33.1915 10.35 33.2614C10.34 33.2614 10.32 33.2715 10.31 33.2715C10.31 33.2614 10.31 33.2515 10.31 33.2315C10.39 28.6814 10.72 25.2214 11.37 22.0014C12.16 18.0714 13.27 15.0114 14.85 12.3615C16.56 9.52145 18.64 7.57145 21.24 6.41145C22.12 6.02145 22.93 5.78145 23.78 5.68145V8.85145C23.78 13.3115 23.78 17.9215 23.78 22.4615C23.78 22.6814 23.73 22.8015 23.57 22.9515C22.38 24.0615 21.85 25.5315 21.48 26.8115C20.86 29.0015 20.72 31.2615 20.67 32.9815C20.65 33.1115 20.65 33.2415 20.65 33.3815Z" fill="black"/>
<path d="M39.92 37.2214C38.01 36.4214 36.1 36.4214 34.24 37.2214C32.36 38.0314 30.52 38.0214 28.62 37.2114C26.79 36.4214 24.86 36.4214 23.02 37.2114C21.11 38.0314 19.26 38.0314 17.36 37.2114C15.58 36.4514 13.7 36.4414 11.76 37.1914C11.66 37.2314 11.57 37.2614 11.48 37.3014C11.12 37.4514 10.74 37.6014 10.36 37.6814C8.96 37.9914 7.58 37.8414 6.14 37.2214C4.31 36.4314 2.43 36.4214 0.54 37.1814C0.4 37.2414 0.25 37.3014 0.1 37.3514L0 37.3914V38.6214L0.22 38.5414C0.33 38.5014 0.44 38.4514 0.55 38.4014C2.36 37.5914 4.16 37.5814 6.04 38.3914C7.96 39.2114 9.9 39.2114 11.81 38.4014C13.66 37.6114 15.46 37.6014 17.3 38.3914C19.21 39.2114 21.15 39.2114 23.07 38.3914C24.93 37.6014 26.72 37.6014 28.56 38.3914C29.52 38.8014 30.48 39.0114 31.45 39.0114C32.41 39.0114 33.37 38.8114 34.33 38.4014C36.22 37.5914 38.01 37.5914 39.82 38.4014C39.96 38.4614 40.07 38.5114 40.17 38.5414L40.38 38.6214V37.4114L40.28 37.3714C40.17 37.3214 40.04 37.2714 39.92 37.2214Z" fill="black"/>
<path d="M20.9886 10.7514C21.0186 10.6114 20.9986 10.4714 20.9086 10.3314C20.7986 10.1514 20.6586 10.0914 20.5586 10.0714C20.3886 10.0414 20.2086 10.0914 20.0286 10.2214C19.8286 10.3614 19.6286 10.5014 19.4286 10.6414C18.8986 11.0014 18.3586 11.3814 17.8886 11.8314C17.2786 12.4314 16.7386 13.1114 16.2186 13.7614C16.0786 13.9414 15.9286 14.1214 15.7786 14.3014C15.6486 14.4614 15.6286 14.7414 15.6886 14.9214C15.7286 15.0514 15.8386 15.1214 15.9686 15.2014C16.0186 15.2314 16.0686 15.2614 16.1186 15.3014L16.2286 15.3814L16.3286 15.2814C16.3786 15.2314 16.4386 15.1814 16.4886 15.1314C16.5986 15.0314 16.7086 14.9314 16.7986 14.8114C17.9486 13.1914 19.2086 11.9914 20.6486 11.1614C20.8286 11.0514 20.9486 10.9114 20.9886 10.7514Z" fill="black"/>
</g>
<defs>
<clipPath id="clip0_1469_6912">
<rect width="40.39" height="40" fill="white" transform="translate(0 0.86145)"/>
</clipPath>
</defs>
</svg>
