<svg width="81" height="88" viewBox="0 0 81 88" fill="none" xmlns="http://www.w3.org/2000/svg">
<circle cx="40.5" cy="40.2229" r="38.5" stroke="#00983A" stroke-width="2.5" stroke-linecap="round" stroke-linejoin="round" stroke-dasharray="2 6"/>
<rect x="2" y="56.458" width="77" height="31.5422" fill="#FCFFF5"/>
<path d="M22.7106 37.3928V40.464H15.0325V37.3928H22.7106ZM29.4918 38.412L26.3662 37.6646L27.4941 27.6355H38.6103V30.8019H30.7148L30.2256 35.1913C30.4883 35.0373 30.887 34.8742 31.4215 34.7021C31.956 34.5209 32.5539 34.4303 33.2153 34.4303C34.1756 34.4303 35.0272 34.5798 35.7701 34.8788C36.513 35.1777 37.1427 35.6126 37.6591 36.1833C38.1845 36.7541 38.5832 37.4517 38.855 38.2761C39.1267 39.1006 39.2626 40.0337 39.2626 41.0756C39.2626 41.9544 39.1267 42.7924 38.855 43.5896C38.5832 44.3778 38.1709 45.0845 37.6183 45.7096C37.0657 46.3257 36.3726 46.8103 35.5391 47.1637C34.7056 47.517 33.7181 47.6937 32.5766 47.6937C31.725 47.6937 30.9006 47.5668 30.1033 47.3132C29.3151 47.0595 28.6039 46.6835 27.9698 46.1852C27.3446 45.6869 26.8418 45.0845 26.4613 44.3778C26.0899 43.6621 25.8951 42.8467 25.877 41.9317H29.7636C29.8179 42.4934 29.9629 42.9781 30.1984 43.3858C30.443 43.7844 30.7647 44.0924 31.1633 44.3099C31.5619 44.5273 32.0285 44.636 32.563 44.636C33.0613 44.636 33.4871 44.5409 33.8404 44.3506C34.1937 44.1604 34.4791 43.8977 34.6966 43.5625C34.914 43.2182 35.0725 42.8196 35.1722 42.3666C35.2809 41.9045 35.3353 41.4063 35.3353 40.8717C35.3353 40.3372 35.2718 39.8525 35.145 39.4177C35.0182 38.9828 34.8234 38.6068 34.5607 38.2897C34.2979 37.9726 33.9627 37.728 33.555 37.5559C33.1564 37.3838 32.6898 37.2977 32.1553 37.2977C31.4305 37.2977 30.8688 37.4109 30.4702 37.6374C30.0807 37.8639 29.7545 38.1221 29.4918 38.412ZM41.7359 32.487V31.4406C41.7359 30.6887 41.899 30.0046 42.2252 29.3886C42.5513 28.7725 43.0315 28.2788 43.6656 27.9073C44.2998 27.5359 45.0789 27.3502 46.003 27.3502C46.9543 27.3502 47.747 27.5359 48.3812 27.9073C49.0244 28.2788 49.5046 28.7725 49.8217 29.3886C50.1478 30.0046 50.3109 30.6887 50.3109 31.4406V32.487C50.3109 33.2208 50.1478 33.8958 49.8217 34.5118C49.5046 35.1279 49.029 35.6216 48.3948 35.9931C47.7606 36.3645 46.977 36.5503 46.0438 36.5503C45.1016 36.5503 44.3089 36.3645 43.6656 35.9931C43.0315 35.6216 42.5513 35.1279 42.2252 34.5118C41.899 33.8958 41.7359 33.2208 41.7359 32.487ZM44.3315 31.4406V32.487C44.3315 32.8041 44.3904 33.1076 44.5082 33.3975C44.635 33.6783 44.8253 33.9094 45.0789 34.0906C45.3417 34.2627 45.6588 34.3488 46.0302 34.3488C46.4198 34.3488 46.7369 34.2627 46.9815 34.0906C47.2261 33.9094 47.4073 33.6783 47.5251 33.3975C47.6428 33.1076 47.7017 32.8041 47.7017 32.487V31.4406C47.7017 31.1054 47.6383 30.7974 47.5115 30.5165C47.3937 30.2266 47.208 29.9956 46.9543 29.8235C46.7097 29.6423 46.3926 29.5517 46.003 29.5517C45.6406 29.5517 45.3326 29.6423 45.0789 29.8235C44.8253 29.9956 44.635 30.2266 44.5082 30.5165C44.3904 30.7974 44.3315 31.1054 44.3315 31.4406ZM51.1942 43.6168V42.5704C51.1942 41.8275 51.3573 41.1481 51.6835 40.532C52.0187 39.9159 52.5034 39.4222 53.1375 39.0507C53.7808 38.6793 54.569 38.4936 55.5021 38.4936C56.4443 38.4936 57.2325 38.6793 57.8667 39.0507C58.5009 39.4222 58.981 39.9159 59.3072 40.532C59.6333 41.1481 59.7964 41.8275 59.7964 42.5704V43.6168C59.7964 44.3597 59.6333 45.0392 59.3072 45.6552C58.9901 46.2713 58.5144 46.765 57.8803 47.1365C57.2461 47.5079 56.4624 47.6937 55.5293 47.6937C54.5871 47.6937 53.7944 47.5079 53.1511 47.1365C52.5079 46.765 52.0187 46.2713 51.6835 45.6552C51.3573 45.0392 51.1942 44.3597 51.1942 43.6168ZM53.8034 42.5704V43.6168C53.8034 43.943 53.8759 44.251 54.0208 44.5409C54.1658 44.8308 54.3651 45.0618 54.6188 45.234C54.8815 45.4061 55.185 45.4922 55.5293 45.4922C55.9641 45.4922 56.3039 45.4061 56.5485 45.234C56.7931 45.0618 56.9607 44.8308 57.0513 44.5409C57.151 44.251 57.2008 43.943 57.2008 43.6168V42.5704C57.2008 42.2443 57.1374 41.9408 57.0105 41.6599C56.8837 41.37 56.6935 41.139 56.4398 40.9669C56.1952 40.7857 55.8826 40.6951 55.5021 40.6951C55.1216 40.6951 54.8045 40.7857 54.5508 40.9669C54.3062 41.139 54.1205 41.37 53.9937 41.6599C53.8668 41.9408 53.8034 42.2443 53.8034 42.5704ZM56.467 30.4622L46.8048 45.927L44.9023 44.9214L54.5644 29.4565L56.467 30.4622ZM15.9376 61.7231V78.4219H13.9155V61.7231H15.9376ZM24.0913 66.6588V68.2026H17.7314V66.6588H24.0913ZM19.884 63.7996H21.8952V75.5083C21.8952 75.9069 21.9568 76.2077 22.0801 76.4106C22.2033 76.6136 22.3627 76.7476 22.5584 76.8129C22.7541 76.8781 22.9643 76.9107 23.189 76.9107C23.3557 76.9107 23.5296 76.8962 23.7108 76.8672C23.8992 76.831 24.0406 76.802 24.1348 76.7803L24.1457 78.4219C23.9862 78.4726 23.776 78.5197 23.5151 78.5632C23.2614 78.6139 22.9534 78.6393 22.591 78.6393C22.0982 78.6393 21.6452 78.5415 21.2321 78.3458C20.8189 78.1501 20.4892 77.8239 20.2428 77.3673C20.0036 76.9035 19.884 76.2802 19.884 75.4974V63.7996ZM33.2996 75.3017C33.2996 75.0118 33.2343 74.7436 33.1039 74.4972C32.9807 74.2436 32.7234 74.0152 32.332 73.8123C31.9479 73.6021 31.368 73.4209 30.5925 73.2687C29.9402 73.131 29.3495 72.968 28.8205 72.7795C28.2986 72.5911 27.8529 72.3628 27.4832 72.0946C27.1209 71.8264 26.8418 71.5112 26.6461 71.1488C26.4504 70.7864 26.3526 70.3624 26.3526 69.8768C26.3526 69.4129 26.4541 68.9744 26.657 68.5613C26.8672 68.1482 27.1607 67.7822 27.5376 67.4633C27.9217 67.1444 28.382 66.8943 28.9183 66.7132C29.4546 66.532 30.0526 66.4414 30.7121 66.4414C31.6543 66.4414 32.4588 66.6081 33.1256 66.9415C33.7924 67.2749 34.3034 67.7206 34.6585 68.2787C35.0136 68.8295 35.1912 69.4419 35.1912 70.116H33.18C33.18 69.7898 33.0821 69.4745 32.8864 69.1701C32.698 68.8585 32.419 68.6012 32.0493 68.3983C31.6869 68.1953 31.2412 68.0938 30.7121 68.0938C30.154 68.0938 29.7011 68.1808 29.3532 68.3548C29.0125 68.5215 28.7625 68.7353 28.603 68.9962C28.4508 69.2571 28.3747 69.5325 28.3747 69.8224C28.3747 70.0399 28.411 70.2356 28.4834 70.4095C28.5632 70.5762 28.7009 70.732 28.8966 70.877C29.0922 71.0147 29.3677 71.1451 29.7228 71.2684C30.0779 71.3916 30.5309 71.5148 31.0817 71.638C32.0457 71.8554 32.8393 72.1163 33.4626 72.4207C34.0859 72.7252 34.5498 73.0984 34.8542 73.5405C35.1586 73.9826 35.3108 74.519 35.3108 75.1495C35.3108 75.6641 35.2021 76.1352 34.9847 76.5628C34.7745 76.9904 34.4664 77.3601 34.0606 77.6717C33.6619 77.9761 33.1836 78.2153 32.6255 78.3893C32.0747 78.556 31.455 78.6393 30.7665 78.6393C29.73 78.6393 28.8531 78.4545 28.1355 78.0849C27.418 77.7152 26.8744 77.2369 26.5048 76.6498C26.1352 76.0627 25.9503 75.4431 25.9503 74.7908H27.9725C28.0015 75.3416 28.1609 75.7801 28.4508 76.1062C28.7407 76.4251 29.0959 76.6534 29.5162 76.7911C29.9366 76.9216 30.3534 76.9868 30.7665 76.9868C31.3173 76.9868 31.7775 76.9143 32.1472 76.7694C32.524 76.6244 32.8103 76.4251 33.006 76.1715C33.2017 75.9178 33.2996 75.6279 33.2996 75.3017ZM44.9539 62.5928L38.3549 79.7808H36.6263L43.2362 62.5928H44.9539ZM49.1721 61.7231V78.4219H47.15V61.7231H49.1721ZM56.3582 66.6588L51.2268 72.149L48.3567 75.1278L48.1937 72.9861L50.2484 70.5291L53.9013 66.6588H56.3582ZM54.5209 78.4219L50.3245 72.8121L51.3682 71.0183L56.891 78.4219H54.5209ZM65.8383 66.6588H67.6647V78.1718C67.6647 79.2083 67.4545 80.0925 67.0342 80.8245C66.6138 81.5565 66.0267 82.111 65.273 82.4879C64.5264 82.872 63.664 83.0641 62.6855 83.0641C62.2797 83.0641 61.8013 82.9988 61.2505 82.8684C60.7069 82.7452 60.1706 82.5313 59.6415 82.2269C59.1196 81.9298 58.6811 81.5275 58.326 81.0202L59.3806 79.8243C59.8734 80.4186 60.388 80.8317 60.9243 81.0637C61.4679 81.2956 62.0042 81.4116 62.5333 81.4116C63.1711 81.4116 63.722 81.292 64.1858 81.0528C64.6497 80.8136 65.0084 80.4585 65.2621 79.9874C65.523 79.5235 65.6535 78.951 65.6535 78.2697V69.2462L65.8383 66.6588ZM57.7389 72.6708V72.4425C57.7389 71.5438 57.844 70.7284 58.0542 69.9964C58.2716 69.2571 58.5797 68.6229 58.9783 68.0938C59.3842 67.5648 59.8734 67.1589 60.446 66.8762C61.0185 66.5863 61.6636 66.4414 62.3811 66.4414C63.1204 66.4414 63.7654 66.5718 64.3163 66.8327C64.8743 67.0864 65.3454 67.4597 65.7296 67.9525C66.121 68.4381 66.429 69.0252 66.6537 69.7137C66.8783 70.4023 67.0342 71.1814 67.1211 72.0511V73.0513C67.0414 73.9138 66.8856 74.6893 66.6537 75.3778C66.429 76.0664 66.121 76.6534 65.7296 77.139C65.3454 77.6246 64.8743 77.9979 64.3163 78.2588C63.7582 78.5125 63.1059 78.6393 62.3594 78.6393C61.6563 78.6393 61.0185 78.4907 60.446 78.1936C59.8806 77.8964 59.395 77.4797 58.9892 76.9433C58.5833 76.407 58.2716 75.7764 58.0542 75.0517C57.844 74.3197 57.7389 73.526 57.7389 72.6708ZM59.7502 72.4425V72.6708C59.7502 73.2579 59.8082 73.8087 59.9241 74.3233C60.0473 74.8379 60.2322 75.2909 60.4786 75.6822C60.7323 76.0736 61.0548 76.3816 61.4462 76.6063C61.8375 76.8237 62.305 76.9325 62.8486 76.9325C63.5154 76.9325 64.0662 76.7911 64.5011 76.5085C64.9359 76.2258 65.2802 75.8526 65.5339 75.3887C65.7948 74.9248 65.9977 74.4211 66.1427 73.8775V71.2575C66.063 70.8589 65.9398 70.4747 65.7731 70.1051C65.6136 69.7282 65.4034 69.3948 65.1425 69.1049C64.8888 68.8077 64.5736 68.5722 64.1967 68.3983C63.8198 68.2243 63.3777 68.1373 62.8703 68.1373C62.3195 68.1373 61.8448 68.2533 61.4462 68.4852C61.0548 68.7099 60.7323 69.0216 60.4786 69.4202C60.2322 69.8116 60.0473 70.2682 59.9241 70.79C59.8082 71.3046 59.7502 71.8554 59.7502 72.4425Z" fill="black"/>
</svg>
