<svg width="40" height="45" viewBox="0 0 40 45" fill="none" xmlns="http://www.w3.org/2000/svg">
<path d="M5.89128 44.77C5.61128 44.55 5.37128 44.31 5.52128 43.91C5.67128 43.51 5.99128 43.48 6.36128 43.48C8.18128 43.49 10.0113 43.48 11.8313 43.48C11.9913 43.48 12.1413 43.48 12.3713 43.48C12.3713 42.93 12.3713 42.39 12.3713 41.86C12.3713 41.06 12.5513 40.89 13.3513 40.89C14.7213 40.89 16.0913 40.89 17.4613 40.89C17.6113 40.89 17.7713 40.89 17.9413 40.89V37.28H17.3913C12.6713 37.28 7.95128 37.28 3.23128 37.28C3.10128 37.28 2.97128 37.28 2.84128 37.28C2.23128 37.26 2.05128 37.05 2.01128 36.45C1.90128 34.67 2.20128 32.94 2.58128 31.21C3.54128 26.81 4.45128 22.4 5.37128 17.99C5.56128 17.09 5.67128 16.99 6.59128 16.99C15.4913 16.99 24.3813 16.99 33.2813 16.99C34.1413 16.99 34.2813 17.11 34.4513 17.95C35.5413 23.17 36.6713 28.38 37.7113 33.6C37.9113 34.62 37.8013 35.7 37.7713 36.75C37.7713 36.92 37.4813 37.14 37.2813 37.24C37.1213 37.32 36.8913 37.29 36.6913 37.29C31.9613 37.29 27.2213 37.29 22.4913 37.29H21.9113V40.9C22.0713 40.9 22.2213 40.9 22.3713 40.9C23.7513 40.9 25.1413 40.9 26.5213 40.9C27.2713 40.9 27.4613 41.09 27.4613 41.83C27.4613 42.37 27.4613 42.91 27.4613 43.5C27.6613 43.5 27.8113 43.5 27.9613 43.5C29.8013 43.5 31.6413 43.5 33.4813 43.5C33.8413 43.5 34.1713 43.54 34.3213 43.93C34.4713 44.33 34.2213 44.57 33.9513 44.79H5.89128V44.77ZM36.5013 34.67C36.2813 34.67 36.1013 34.67 35.9213 34.67C27.0813 34.67 18.2413 34.67 9.40128 34.67C8.82128 34.67 8.54128 34.46 8.54128 34.02C8.54128 33.59 8.83128 33.38 9.41128 33.38C10.4413 33.38 11.4613 33.38 12.4913 33.38H13.5613C13.6613 31.97 13.7513 30.61 13.8513 29.24H4.35128C4.06128 30.62 3.77128 31.98 3.48128 33.38C3.66128 33.38 3.80128 33.38 3.94128 33.38C4.72128 33.38 5.51128 33.38 6.29128 33.38C6.75128 33.38 7.03128 33.64 7.03128 34.03C7.03128 34.42 6.76128 34.66 6.29128 34.67C5.86128 34.68 5.44128 34.67 5.01128 34.67C4.46128 34.67 3.91128 34.67 3.36128 34.67V35.93H36.5013V34.67ZM14.8813 33.36H24.9713C24.8813 32.14 24.7813 30.95 24.7313 29.76C24.7113 29.35 24.6313 29.2 24.1813 29.21C21.3513 29.23 18.5113 29.22 15.6813 29.22C15.6013 29.22 15.4913 29.19 15.4313 29.23C15.3313 29.29 15.1713 29.38 15.1613 29.46C15.0513 30.75 14.9713 32.04 14.8813 33.36ZM36.3713 33.37C36.0713 31.98 35.7813 30.61 35.5013 29.26H26.0013C26.1013 30.66 26.2013 32.01 26.2913 33.37H36.3713ZM15.5513 23.79C15.4513 25.17 15.3613 26.53 15.2713 27.88H24.5813C24.4813 26.5 24.3913 25.15 24.2913 23.79H15.5513ZM14.2313 23.77C13.6413 23.77 13.1013 23.77 12.5613 23.77C10.3413 23.77 8.11128 23.77 5.89128 23.76C5.60128 23.76 5.46128 23.83 5.42128 24.14C5.36128 24.59 5.23128 25.03 5.14128 25.47C4.97128 26.27 4.81128 27.07 4.65128 27.88H13.9513C14.0413 26.52 14.1313 25.17 14.2313 23.77ZM35.2113 27.9C34.9413 26.63 34.6713 25.41 34.4413 24.19C34.3713 23.85 34.2413 23.77 33.9113 23.77C31.3013 23.78 28.6913 23.78 26.0813 23.78C25.9413 23.78 25.8013 23.79 25.6113 23.8C25.7113 25.19 25.8013 26.54 25.9013 27.9H35.2113ZM15.9313 18.33C15.8313 19.72 15.7413 21.06 15.6513 22.41H24.2113C24.1113 21.03 24.0213 19.69 23.9213 18.33H15.9313ZM14.3313 22.42C14.4313 21.03 14.5213 19.69 14.6213 18.33H6.65128C6.36128 19.69 6.08128 21.04 5.79128 22.42H14.3313ZM25.2313 18.31C25.3313 19.71 25.4213 21.05 25.5213 22.42H34.0613C33.7913 21.11 33.5213 19.84 33.2613 18.56C33.2113 18.31 33.0513 18.31 32.8513 18.31C31.4513 18.31 30.0613 18.31 28.6613 18.31C27.5413 18.31 26.4113 18.31 25.2313 18.31ZM26.1513 42.22H13.7013V43.45H26.1513V42.22ZM20.5213 37.3H19.3213V40.86H20.5213V37.3Z" fill="black"/>
<path d="M19.9097 10.88C18.1397 10.87 16.6697 9.38998 16.6797 7.62998C16.6897 5.86998 18.1897 4.37998 19.9397 4.39998C21.6997 4.40998 23.1797 5.90998 23.1697 7.65998C23.1597 9.41998 21.6797 10.88 19.9097 10.88ZM19.9197 5.71998C18.8497 5.72998 17.9997 6.56998 17.9997 7.63998C17.9997 8.69998 18.8797 9.56998 19.9297 9.56998C20.9897 9.56998 21.8497 8.69998 21.8397 7.62998C21.8397 6.55998 20.9997 5.71998 19.9197 5.71998Z" fill="black"/>
<path d="M25.4322 8.31998C25.3122 8.29998 25.0322 8.33998 24.8722 8.21998C24.6822 8.07998 24.4922 7.80998 24.4922 7.59998C24.4922 7.40998 24.7222 7.10998 24.9022 7.05998C25.2622 6.96998 25.6622 6.98998 26.0322 7.00998C26.3822 7.03998 26.5922 7.26998 26.5922 7.63998C26.5922 8.00998 26.3722 8.20998 26.0322 8.27998C25.8722 8.30998 25.7022 8.29998 25.4322 8.31998Z" fill="black"/>
<path d="M19.25 2.00996C19.26 1.86996 19.25 1.69996 19.29 1.52996C19.35 1.18996 19.55 0.959961 19.92 0.959961C20.29 0.959961 20.51 1.16996 20.56 1.51996C20.6 1.84996 20.6 2.19996 20.57 2.52996C20.53 2.87996 20.32 3.08996 19.94 3.09996C19.54 3.09996 19.35 2.85996 19.29 2.50996C19.25 2.34996 19.26 2.18996 19.25 2.00996Z" fill="black"/>
<path d="M14.2994 8.33002C14.0894 8.30002 13.8394 8.34002 13.6894 8.23002C13.4994 8.09002 13.2794 7.83002 13.2894 7.63002C13.2994 7.43002 13.5194 7.12002 13.7194 7.06002C14.0594 6.96002 14.4494 6.98002 14.8094 7.01002C15.1794 7.04002 15.3994 7.27002 15.3994 7.66002C15.3894 8.06002 15.1294 8.24002 14.7794 8.30002C14.6294 8.33002 14.4694 8.31002 14.3094 8.31002C14.2994 8.31002 14.2994 8.32002 14.2994 8.33002Z" fill="black"/>
<path d="M19.2422 13.18C19.2622 13.03 19.2322 12.78 19.3322 12.62C19.4622 12.43 19.7222 12.2 19.9222 12.2C20.1222 12.2 20.4422 12.43 20.5022 12.62C20.6022 12.97 20.5822 13.37 20.5522 13.75C20.5222 14.1 20.2922 14.31 19.9222 14.31C19.5422 14.31 19.3522 14.1 19.2822 13.75C19.2622 13.58 19.2622 13.41 19.2422 13.18Z" fill="black"/>
<path d="M15.712 12.6799C15.442 12.4799 15.182 12.3899 15.122 12.2199C15.042 12.0199 15.052 11.6999 15.172 11.5199C15.342 11.2399 15.622 11.0099 15.882 10.7899C16.162 10.5499 16.472 10.5899 16.722 10.8399C16.972 11.0899 17.022 11.4099 16.772 11.6799C16.452 12.0199 16.092 12.3299 15.712 12.6799Z" fill="black"/>
<path d="M24.3112 12.56C23.8012 12.56 22.9012 11.69 22.9512 11.3C22.9812 11.1 23.1212 10.84 23.2812 10.76C23.4612 10.67 23.7812 10.67 23.9412 10.78C24.2412 10.98 24.5212 11.25 24.7112 11.55C24.8212 11.71 24.8212 12.02 24.7412 12.21C24.6612 12.39 24.4112 12.49 24.3112 12.56Z" fill="black"/>
<path d="M16.9199 4.09001C16.8499 4.18001 16.7599 4.42001 16.5899 4.51001C16.4199 4.60001 16.1099 4.62001 15.9699 4.52001C15.6499 4.30001 15.3499 4.01001 15.1299 3.69001C15.0199 3.54001 15.0399 3.21001 15.1299 3.03001C15.2199 2.87001 15.4799 2.75001 15.6799 2.74001C16.0699 2.71001 16.9099 3.58001 16.9199 4.09001Z" fill="black"/>
<path d="M23.5721 4.62991C23.0821 4.61991 22.7521 4.04991 23.0421 3.64991C23.2621 3.34991 23.5421 3.06991 23.8421 2.83991C24.2521 2.53991 24.8121 2.84991 24.8321 3.34991C24.8521 3.76991 23.9921 4.63991 23.5721 4.62991Z" fill="black"/>
</svg>
