<svg width="80" height="89" viewBox="0 0 80 89" fill="none" xmlns="http://www.w3.org/2000/svg">
<circle cx="40" cy="40.5" r="38.5" stroke="#00983A" stroke-width="2.5" stroke-linecap="round" stroke-linejoin="round" stroke-dasharray="2 6"/>
<rect x="2.5" y="56.7351" width="77" height="31.5422" fill="#FCFFF5"/>
<path d="M15.22 37.6699V40.7411H7.5419V37.6699H15.22ZM27.8582 27.8719V47.699H23.9444V32.3836L19.2425 33.8784V30.7936L27.4369 27.8719H27.8582ZM47.6174 36.0664V39.4909C47.6174 40.9767 47.4588 42.2586 47.1417 43.3367C46.8247 44.4058 46.3671 45.2846 45.7692 45.9731C45.1803 46.6526 44.4782 47.1554 43.6628 47.4815C42.8475 47.8077 41.9415 47.9708 40.9449 47.9708C40.1477 47.9708 39.4048 47.8711 38.7162 47.6718C38.0277 47.4634 37.4071 47.1418 36.8545 46.7069C36.3109 46.2721 35.8398 45.724 35.4412 45.0626C35.0516 44.3922 34.7526 43.5949 34.5443 42.6709C34.3359 41.7468 34.2317 40.6868 34.2317 39.4909V36.0664C34.2317 34.5806 34.3902 33.3077 34.7073 32.2477C35.0335 31.1787 35.491 30.3044 36.0799 29.6249C36.6778 28.9454 37.3845 28.4472 38.1998 28.1301C39.0152 27.8039 39.9212 27.6409 40.9177 27.6409C41.715 27.6409 42.4534 27.745 43.1328 27.9534C43.8214 28.1527 44.442 28.4653 44.9946 28.8911C45.5472 29.3169 46.0183 29.865 46.4079 30.5354C46.7975 31.1968 47.0964 31.9895 47.3048 32.9136C47.5132 33.8286 47.6174 34.8795 47.6174 36.0664ZM43.69 40.0073V35.5364C43.69 34.8206 43.6492 34.1955 43.5677 33.661C43.4952 33.1265 43.382 32.6735 43.228 32.3021C43.0739 31.9216 42.8837 31.6135 42.6572 31.378C42.4307 31.1424 42.1725 30.9703 41.8826 30.8616C41.5927 30.7529 41.2711 30.6985 40.9177 30.6985C40.4738 30.6985 40.0797 30.7846 39.7355 30.9567C39.4002 31.1288 39.1149 31.4051 38.8793 31.7857C38.6438 32.1571 38.4626 32.6554 38.3357 33.2805C38.218 33.8966 38.1591 34.6485 38.1591 35.5364V40.0073C38.1591 40.723 38.1953 41.3527 38.2678 41.8963C38.3493 42.4398 38.4671 42.9064 38.6211 43.296C38.7842 43.6765 38.9744 43.989 39.1919 44.2336C39.4184 44.4692 39.6766 44.6413 39.9665 44.7501C40.2654 44.8588 40.5916 44.9131 40.9449 44.9131C41.3798 44.9131 41.7648 44.8271 42.1 44.6549C42.4443 44.4737 42.7342 44.1929 42.9698 43.8124C43.2144 43.4228 43.3956 42.9155 43.5133 42.2903C43.6311 41.6652 43.69 40.9042 43.69 40.0073ZM50.2266 32.7641V31.7177C50.2266 30.9658 50.3896 30.2817 50.7158 29.6657C51.0419 29.0496 51.5221 28.5559 52.1563 28.1844C52.7904 27.813 53.5696 27.6273 54.4937 27.6273C55.4449 27.6273 56.2377 27.813 56.8718 28.1844C57.5151 28.5559 57.9952 29.0496 58.3123 29.6657C58.6385 30.2817 58.8015 30.9658 58.8015 31.7177V32.7641C58.8015 33.4979 58.6385 34.1729 58.3123 34.7889C57.9952 35.405 57.5196 35.8987 56.8854 36.2702C56.2512 36.6416 55.4676 36.8274 54.5344 36.8274C53.5922 36.8274 52.7995 36.6416 52.1563 36.2702C51.5221 35.8987 51.0419 35.405 50.7158 34.7889C50.3896 34.1729 50.2266 33.4979 50.2266 32.7641ZM52.8222 31.7177V32.7641C52.8222 33.0812 52.881 33.3847 52.9988 33.6746C53.1257 33.9554 53.3159 34.1865 53.5696 34.3677C53.8323 34.5398 54.1494 34.6259 54.5208 34.6259C54.9104 34.6259 55.2275 34.5398 55.4721 34.3677C55.7167 34.1865 55.8979 33.9554 56.0157 33.6746C56.1335 33.3847 56.1924 33.0812 56.1924 32.7641V31.7177C56.1924 31.3825 56.1289 31.0745 56.0021 30.7936C55.8843 30.5037 55.6986 30.2727 55.4449 30.1006C55.2003 29.9194 54.8832 29.8288 54.4937 29.8288C54.1313 29.8288 53.8233 29.9194 53.5696 30.1006C53.3159 30.2727 53.1257 30.5037 52.9988 30.7936C52.881 31.0745 52.8222 31.3825 52.8222 31.7177ZM59.6849 43.8939V42.8475C59.6849 42.1046 59.8479 41.4251 60.1741 40.8091C60.5093 40.193 60.994 39.6993 61.6282 39.3278C62.2714 38.9564 63.0596 38.7707 63.9927 38.7707C64.9349 38.7707 65.7231 38.9564 66.3573 39.3278C66.9915 39.6993 67.4717 40.193 67.7978 40.8091C68.1239 41.4251 68.287 42.1046 68.287 42.8475V43.8939C68.287 44.6368 68.1239 45.3163 67.7978 45.9323C67.4807 46.5484 67.0051 47.0421 66.3709 47.4136C65.7367 47.785 64.9531 47.9708 64.0199 47.9708C63.0777 47.9708 62.285 47.785 61.6418 47.4136C60.9985 47.0421 60.5093 46.5484 60.1741 45.9323C59.8479 45.3163 59.6849 44.6368 59.6849 43.8939ZM62.294 42.8475V43.8939C62.294 44.2201 62.3665 44.5281 62.5115 44.818C62.6564 45.1079 62.8557 45.3389 63.1094 45.5111C63.3721 45.6832 63.6756 45.7693 64.0199 45.7693C64.4548 45.7693 64.7945 45.6832 65.0391 45.5111C65.2837 45.3389 65.4513 45.1079 65.5419 44.818C65.6416 44.5281 65.6914 44.2201 65.6914 43.8939V42.8475C65.6914 42.5214 65.628 42.2179 65.5012 41.937C65.3743 41.6471 65.1841 41.4161 64.9304 41.244C64.6858 41.0628 64.3732 40.9722 63.9927 40.9722C63.6122 40.9722 63.2951 41.0628 63.0415 41.244C62.7969 41.4161 62.6111 41.6471 62.4843 41.937C62.3575 42.2179 62.294 42.5214 62.294 42.8475ZM64.9576 30.7393L55.2954 46.2041L53.3929 45.1985L63.0551 29.7336L64.9576 30.7393ZM13.7414 62.8699V78.699H11.6432V62.8699H13.7414ZM23.2976 62.8699L16.7203 70.2517L13.0239 74.0894L12.676 71.8499L15.4591 68.7841L20.7754 62.8699H23.2976ZM21.2755 78.699L15.4157 70.9801L16.6659 69.3168L23.7759 78.699H21.2755ZM27.6027 76.6116L30.625 66.9359H31.9514L31.6905 68.8602L28.6138 78.699H27.3201L27.6027 76.6116ZM25.5697 66.9359L28.1463 76.7203L28.3311 78.699H26.9722L23.5585 66.9359H25.5697ZM34.8432 76.6442L37.3002 66.9359H39.3006L35.8869 78.699H34.5388L34.8432 76.6442ZM32.2449 66.9359L35.202 76.4486L35.539 78.699H34.2562L31.0925 68.8384L30.8316 66.9359H32.2449ZM48.3675 62.8699L41.7684 80.0579H40.0399L46.6498 62.8699H48.3675ZM52.5857 62.0002V78.699H50.5636V62.0002H52.5857ZM59.7718 66.9359L54.6404 72.4261L51.7703 75.4049L51.6073 73.2632L53.662 70.8062L57.3149 66.9359H59.7718ZM57.9345 78.699L53.7381 73.0892L54.7818 71.2954L60.3045 78.699H57.9345ZM69.2519 66.9359H71.0783V78.4489C71.0783 79.4854 70.8681 80.3696 70.4478 81.1016C70.0274 81.8336 69.4403 82.3881 68.6866 82.765C67.94 83.1491 67.0776 83.3412 66.0991 83.3412C65.6932 83.3412 65.2149 83.2759 64.6641 83.1455C64.1205 83.0223 63.5841 82.8084 63.0551 82.504C62.5332 82.2069 62.0947 81.8046 61.7396 81.2973L62.7941 80.1014C63.287 80.6957 63.8016 81.1088 64.3379 81.3408C64.8815 81.5727 65.4178 81.6887 65.9469 81.6887C66.5847 81.6887 67.1355 81.5691 67.5994 81.3299C68.0633 81.0907 68.422 80.7356 68.6757 80.2645C68.9366 79.8006 69.0671 79.2281 69.0671 78.5468V69.5233L69.2519 66.9359ZM61.1525 72.9479V72.7196C61.1525 71.8209 61.2576 71.0055 61.4678 70.2735C61.6852 69.5342 61.9933 68.9 62.3919 68.3709C62.7978 67.8419 63.287 67.436 63.8596 67.1533C64.4321 66.8634 65.0772 66.7185 65.7947 66.7185C66.534 66.7185 67.179 66.8489 67.7299 67.1098C68.2879 67.3635 68.759 67.7368 69.1432 68.2296C69.5345 68.7152 69.8426 69.3023 70.0673 69.9908C70.2919 70.6793 70.4478 71.4585 70.5347 72.3282V73.3284C70.455 74.1909 70.2992 74.9664 70.0673 75.6549C69.8426 76.3435 69.5345 76.9305 69.1432 77.4161C68.759 77.9017 68.2879 78.275 67.7299 78.5359C67.1718 78.7896 66.5195 78.9164 65.773 78.9164C65.0699 78.9164 64.4321 78.7678 63.8596 78.4707C63.2942 78.1735 62.8086 77.7568 62.4028 77.2204C61.9969 76.6841 61.6852 76.0535 61.4678 75.3288C61.2576 74.5968 61.1525 73.8031 61.1525 72.9479ZM63.1638 72.7196V72.9479C63.1638 73.535 63.2218 74.0858 63.3377 74.6004C63.4609 75.115 63.6458 75.568 63.8922 75.9593C64.1458 76.3507 64.4684 76.6587 64.8597 76.8834C65.2511 77.1008 65.7186 77.2096 66.2622 77.2096C66.929 77.2096 67.4798 77.0682 67.9147 76.7856C68.3495 76.5029 68.6938 76.1297 68.9475 75.6658C69.2084 75.2019 69.4113 74.6982 69.5563 74.1546V71.5346C69.4766 71.136 69.3533 70.7518 69.1867 70.3822C69.0272 70.0053 68.817 69.6719 68.5561 69.382C68.3024 69.0848 67.9871 68.8493 67.6103 68.6753C67.2334 68.5014 66.7913 68.4144 66.2839 68.4144C65.7331 68.4144 65.2584 68.5304 64.8597 68.7623C64.4684 68.987 64.1458 69.2987 63.8922 69.6973C63.6458 70.0887 63.4609 70.5453 63.3377 71.0671C63.2218 71.5817 63.1638 72.1325 63.1638 72.7196Z" fill="black"/>
</svg>
