<svg width="41" height="41" viewBox="0 0 41 41" fill="none" xmlns="http://www.w3.org/2000/svg">
<g clip-path="url(#clip0_1469_6906)">
<path d="M40.0492 21.3364C39.9992 21.4464 39.9392 21.5664 39.8892 21.6764C39.5292 22.4264 38.9192 22.8464 38.0992 22.8764C37.3092 22.8964 36.6792 22.5464 36.2992 21.8364C36.1792 21.6264 36.0592 21.5464 35.8192 21.5464C30.8792 21.5564 25.9492 21.5564 21.0092 21.5564C20.9192 21.5564 20.8292 21.5664 20.7092 21.5664V23.5264C20.8492 23.5264 20.9992 23.5264 21.1592 23.5264C24.4992 23.5264 27.8392 23.5264 31.1892 23.5264C32.5492 23.5264 33.3792 24.3664 33.3892 25.7164C33.3892 26.7064 33.3992 27.6964 33.3892 28.6864C33.3892 28.8964 33.4492 29.0064 33.6392 29.1064C34.5492 29.5964 34.9392 30.5864 34.6092 31.5264C34.3092 32.4064 33.3992 32.9964 32.5092 32.8864C31.4992 32.7664 30.7292 31.9764 30.6992 30.9464C30.6792 30.1564 31.0192 29.5264 31.7192 29.1364C31.9692 28.9964 32.0392 28.8464 32.0292 28.5864C32.0192 27.6064 32.0292 26.6364 32.0192 25.6564C32.0192 25.0964 31.7892 24.8564 31.2392 24.8564C27.7892 24.8564 24.3492 24.8564 20.8992 24.8564C20.8492 24.8564 20.7992 24.8664 20.7192 24.8764V26.8464H21.1692C23.3392 26.8464 25.4992 26.8464 27.6692 26.8464C27.8092 26.8464 27.9592 26.8464 28.0992 26.8564C28.4592 26.8964 28.6892 27.1664 28.6992 27.5064C28.6992 27.8464 28.4492 28.1364 28.1092 28.1764C27.9892 28.1864 27.8692 28.1864 27.7592 28.1864C25.5692 28.1864 23.3692 28.1864 21.1792 28.1864H20.7292V29.5164C21.3092 29.5164 21.8892 29.5164 22.4592 29.5164C23.2292 29.5164 23.9992 29.5064 24.7692 29.5264C25.7692 29.5464 26.6292 30.2964 26.6692 31.2964C26.7292 32.5964 26.7092 33.9064 26.7092 35.2064C26.7092 35.4864 26.7592 35.6664 27.0492 35.8164C27.8492 36.2464 28.2192 37.1964 27.9892 38.0564C27.7492 38.9464 26.9592 39.5464 26.0192 39.5364C25.1292 39.5364 24.3392 38.9364 24.1092 38.0864C23.8292 37.2264 24.1892 36.2764 24.9992 35.8364C25.2592 35.6964 25.3392 35.5464 25.3292 35.2664C25.3092 34.0764 25.3192 32.8964 25.3192 31.7064C25.3192 31.1264 25.0792 30.8764 24.4892 30.8764C23.2492 30.8764 22.0092 30.8764 20.7692 30.8764C20.6592 30.8764 20.4992 30.8864 20.4592 30.9564C20.0192 31.6064 19.3792 31.5564 18.7292 31.4764C14.1992 30.9164 10.5992 27.6764 9.54919 23.2164C8.17919 17.3864 12.0592 11.4464 17.9692 10.3664C18.3992 10.2864 18.8492 10.2464 19.2892 10.1964C19.7192 10.1564 20.0692 10.3164 20.3692 10.6264C20.4692 10.7264 20.6392 10.8264 20.7792 10.8264C22.0292 10.8464 23.2892 10.8364 24.5392 10.8364C25.0792 10.8364 25.3292 10.5764 25.3292 10.0464C25.3292 8.81637 25.3292 7.59637 25.3392 6.36637C25.3392 6.14637 25.2792 6.02637 25.0692 5.91637C24.2092 5.45637 23.8292 4.55637 24.0692 3.63637C24.2992 2.75637 25.0792 2.15637 25.9992 2.15637C26.9392 2.15637 27.7392 2.75637 27.9692 3.63637C28.2092 4.53637 27.8092 5.45637 26.9592 5.91637C26.7492 6.02637 26.6992 6.15637 26.6992 6.37637C26.7092 7.59637 26.7092 8.82637 26.6992 10.0564C26.6892 11.1164 26.1292 11.8664 25.1792 12.1164C24.9692 12.1664 24.7392 12.1764 24.5192 12.1764C23.2692 12.1864 22.0092 12.1764 20.7292 12.1764V13.5064H21.1392C23.3492 13.5064 25.5492 13.5064 27.7592 13.5064C27.8792 13.5064 27.9992 13.4964 28.1092 13.5164C28.4492 13.5664 28.6992 13.8564 28.6992 14.1964C28.6992 14.5464 28.4592 14.8064 28.0992 14.8464C27.9692 14.8564 27.8392 14.8564 27.7092 14.8564C25.5292 14.8564 23.3492 14.8564 21.1692 14.8564C21.0292 14.8564 20.8892 14.8564 20.7192 14.8564V16.8564H21.1392C24.4592 16.8564 27.7692 16.8564 31.0892 16.8564C31.8292 16.8564 32.0192 16.6664 32.0192 15.9364C32.0192 14.9764 32.0192 14.0064 32.0192 13.0464C32.0192 12.8364 31.9692 12.7264 31.7692 12.6264C30.8792 12.1364 30.4892 11.1964 30.7692 10.2764C31.0292 9.39637 31.8792 8.79637 32.7792 8.83637C33.7392 8.87637 34.4992 9.56637 34.6892 10.5464C34.8392 11.3264 34.4192 12.1964 33.6592 12.6064C33.4392 12.7264 33.3792 12.8564 33.3792 13.0864C33.3892 14.0764 33.3892 15.0664 33.3792 16.0564C33.3692 17.3564 32.5192 18.2064 31.2192 18.2064C27.8792 18.2064 24.5292 18.2064 21.1892 18.2064H20.6992V20.1864H21.1292C25.9992 20.1864 30.8692 20.1864 35.7392 20.1864C36.0192 20.1864 36.1692 20.1164 36.3192 19.8664C36.7192 19.1764 37.3492 18.8264 38.1392 18.8664C38.9592 18.9164 39.5592 19.3364 39.8992 20.0964C39.9392 20.1964 39.9992 20.2964 40.0492 20.3964V21.3364V21.3364ZM19.2892 11.5664C14.4792 11.8964 10.1892 16.1064 10.6892 21.7064C11.1892 27.2364 15.9192 30.0764 19.2892 30.1264V11.5664ZM25.9992 38.2164C26.3392 38.2264 26.6492 37.9364 26.6592 37.5864C26.6792 37.2064 26.3992 36.9064 26.0292 36.8964C25.6792 36.8864 25.3792 37.1664 25.3692 37.5164C25.3392 37.8864 25.6292 38.2064 25.9992 38.2164ZM38.7092 20.8864C38.7192 20.5364 38.4392 20.2464 38.0792 20.2264C37.6892 20.2064 37.3992 20.4764 37.3892 20.8464C37.3792 21.1964 37.6492 21.4864 38.0092 21.5064C38.3892 21.5264 38.6992 21.2464 38.7092 20.8864ZM26.0292 3.51637C25.6792 3.50637 25.3792 3.79637 25.3592 4.14637C25.3492 4.50637 25.6192 4.80637 25.9692 4.82637C26.3492 4.84637 26.6492 4.55637 26.6492 4.18637C26.6592 3.82637 26.3792 3.52637 26.0292 3.51637ZM32.6892 11.4964C33.0592 11.4964 33.3292 11.2364 33.3392 10.8764C33.3492 10.5064 33.0892 10.2264 32.7192 10.2164C32.3292 10.2064 32.0492 10.4764 32.0492 10.8564C32.0492 11.2264 32.3192 11.4864 32.6892 11.4964ZM32.6892 31.5264C33.0592 31.5264 33.3392 31.2664 33.3392 30.9064C33.3492 30.5364 33.0892 30.2564 32.7192 30.2464C32.3292 30.2364 32.0492 30.5064 32.0492 30.8864C32.0492 31.2564 32.3192 31.5164 32.6892 31.5264Z" fill="black"/>
<path d="M19.6803 0.836426C20.4403 1.16643 20.7103 1.74643 20.6903 2.54643C20.6603 4.14643 20.6803 5.75643 20.6803 7.35643C20.6803 8.28643 20.1403 8.80643 19.2103 8.88643C14.6903 9.27643 11.3103 11.4564 9.27031 15.4764C5.66031 22.5864 9.86031 31.0764 17.6803 32.6464C18.1803 32.7464 18.6903 32.7964 19.1903 32.8264C20.1703 32.8964 20.6803 33.4264 20.6803 34.4164C20.6803 36.0564 20.6803 37.7064 20.6803 39.3464C20.6803 40.3564 20.1403 40.9064 19.1303 40.8764C18.7103 40.8664 18.2903 40.8564 17.8903 40.7564C16.9003 40.5164 16.5203 39.7764 16.4003 38.8364C16.3403 38.3464 16.2603 37.8564 16.1503 37.3764C16.1303 37.2564 16.0003 37.0964 15.8903 37.0764C14.3103 36.6764 12.8303 36.0564 11.4303 35.2264C11.3303 35.1664 11.1303 35.1764 11.0303 35.2464C10.5103 35.5964 10.0103 35.9664 9.50031 36.3264C8.70031 36.8864 7.81031 36.8664 7.10031 36.2064C6.24031 35.4064 5.41031 34.5864 4.61031 33.7164C3.97031 33.0164 3.98031 32.1264 4.53031 31.3464C4.88031 30.8464 5.25031 30.3564 5.59031 29.8464C5.66031 29.7364 5.68031 29.5164 5.62031 29.4164C4.80031 28.0264 4.20031 26.5564 3.78031 24.9964C3.75031 24.8764 3.59031 24.7264 3.47031 24.6964C2.87031 24.5664 2.27031 24.4764 1.66031 24.3764C0.740312 24.2264 0.0603125 23.5264 0.0303125 22.5964C0.0003125 21.4264 0.0003125 20.2564 0.0303125 19.0864C0.0503125 18.1864 0.750312 17.4764 1.64031 17.3364C2.24031 17.2464 2.85031 17.1464 3.45031 17.0264C3.58031 16.9964 3.75031 16.8664 3.78031 16.7464C4.20031 15.1764 4.81031 13.6964 5.63031 12.2964C5.69031 12.1964 5.67031 11.9964 5.60031 11.8964C5.25031 11.3764 4.87031 10.8764 4.52031 10.3664C3.98031 9.60643 3.97031 8.71643 4.60031 8.03643C5.42031 7.14643 6.28031 6.28643 7.17031 5.47643C7.82031 4.87643 8.72031 4.87643 9.45031 5.37643C9.98031 5.73643 10.5003 6.10643 11.0103 6.48643C11.1703 6.60643 11.2803 6.60643 11.4603 6.50643C12.8403 5.67643 14.3103 5.05643 15.8803 4.67643C16.0703 4.62643 16.1503 4.55643 16.1803 4.34643C16.2603 3.76643 16.3703 3.19643 16.4703 2.61643C16.6403 1.58643 17.2203 1.02643 18.2503 0.916426C18.3403 0.906426 18.4203 0.866426 18.5103 0.846426H19.6803V0.836426ZM19.2803 34.2264C15.6903 33.9664 12.6203 32.5764 10.1703 29.9364C7.71031 27.2764 6.53031 24.1064 6.61031 20.4964C6.68031 17.5464 7.64031 14.8764 9.50031 12.5664C12.0003 9.45643 15.2903 7.79643 19.2803 7.49643V2.18643C18.9803 2.20643 18.7103 2.22643 18.4403 2.23643C18.0503 2.24643 17.8503 2.43643 17.7903 2.81643C17.6803 3.56643 17.5203 4.30643 17.4303 5.04643C17.3703 5.53643 17.1203 5.77643 16.6503 5.87643C14.8703 6.25643 13.2203 6.94643 11.7003 7.93643C11.3403 8.16643 11.0103 8.16643 10.6603 7.90643C10.0303 7.43643 9.39031 6.99643 8.76031 6.53643C8.48031 6.33643 8.21031 6.31643 7.95031 6.56643C7.20031 7.30643 6.45031 8.05643 5.71031 8.79643C5.43031 9.07643 5.44031 9.35643 5.67031 9.66643C6.14031 10.3064 6.60031 10.9564 7.06031 11.5964C7.28031 11.8964 7.30031 12.1964 7.09031 12.5064C6.06031 14.0964 5.35031 15.8164 4.94031 17.6664C4.86031 18.0364 4.65031 18.2264 4.28031 18.2864C3.49031 18.4064 2.71031 18.5564 1.93031 18.6664C1.58031 18.7164 1.36031 18.8964 1.35031 19.2364C1.33031 20.3164 1.33031 21.3964 1.35031 22.4764C1.35031 22.8164 1.56031 23.0064 1.91031 23.0564C2.67031 23.1664 3.42031 23.3264 4.19031 23.4264C4.65031 23.4864 4.88031 23.7164 4.97031 24.1564C5.36031 25.9564 6.06031 27.6264 7.06031 29.1664C7.29031 29.5264 7.26031 29.8364 7.02031 30.1764C6.56031 30.7964 6.13031 31.4264 5.67031 32.0464C5.43031 32.3764 5.42031 32.6564 5.72031 32.9464C6.45031 33.6664 7.18031 34.3964 7.91031 35.1264C8.19031 35.4064 8.47031 35.3964 8.78031 35.1664C9.42031 34.6964 10.0703 34.2364 10.7203 33.7764C11.0203 33.5664 11.3103 33.5364 11.6303 33.7464C13.2203 34.7764 14.9403 35.4864 16.8003 35.8864C17.1603 35.9664 17.3603 36.1864 17.4103 36.5464C17.5303 37.3464 17.6703 38.1364 17.8003 38.9364C17.8503 39.2264 18.0003 39.4264 18.2903 39.4664C18.6103 39.5064 18.9303 39.5164 19.2803 39.5364V34.2264V34.2264Z" fill="black"/>
</g>
<defs>
<clipPath id="clip0_1469_6906">
<rect width="40.05" height="40.05" fill="white" transform="translate(0 0.836426)"/>
</clipPath>
</defs>
</svg>
