<svg width="51" height="52" viewBox="0 0 51 52" fill="none" xmlns="http://www.w3.org/2000/svg">
<path d="M43.3457 19.5707C43.6758 19.2405 43.6565 18.7353 43.3457 18.4411C43.0572 18.1445 42.5122 18.1445 42.2157 18.4411C41.9472 18.6952 41.8697 19.1384 42.2157 19.5707C42.5458 19.9008 43.0514 19.8811 43.3457 19.5707Z" fill="black"/>
<path d="M39.5404 19.571C39.8817 19.2293 39.8207 18.7067 39.5404 18.4414C39.2052 18.1059 38.705 18.1467 38.4103 18.4414C38.0555 18.7777 38.1315 19.32 38.4103 19.571C38.6834 19.8587 39.2079 19.9031 39.5404 19.571Z" fill="black"/>
<path d="M0.801272 51.5032H50.1986C50.6413 51.5032 51 51.1449 51 50.7017C51 50.259 50.6417 49.9003 50.1986 49.9003H46.488V47.2935C46.488 46.8508 46.1297 46.4921 45.6865 46.4921H42.7342V28.024H45.5107C47.0218 28.024 48.2513 26.7945 48.2513 25.2834V17.3746C48.2513 15.8631 47.0218 14.6336 45.5107 14.6336L35.0736 14.6347V10.633H40.8228C41.2656 10.633 41.6243 10.2743 41.6243 9.83154L41.6239 1.02117C41.6239 0.57879 41.2656 0.219727 40.8224 0.219727L27.7225 0.220112C27.2797 0.220112 26.9211 0.578791 26.9211 1.02155V9.83153C26.9211 10.2739 27.2794 10.633 27.7225 10.633H33.471V14.6347H5.48507C3.97396 14.6347 2.74443 15.8643 2.74443 17.3758V25.2845C2.74443 26.7956 3.97396 28.0252 5.48507 28.0252H8.2662V46.4932L5.31347 46.4928C4.87071 46.4928 4.51204 46.8511 4.51204 47.2943V49.901L0.801439 49.9007C0.358679 49.9007 0 50.2589 0 50.7021C0 51.1449 0.358679 51.5031 0.801439 51.5031L0.801272 51.5032ZM28.5236 1.82249H40.0211V9.03003H28.5236V1.82249ZM44.8857 49.9007H38.9806V48.0954H44.8857V49.9007ZM41.1319 35.5399H36.8505V28.0239H41.1319V35.5399ZM16.097 24.8629H35.2474V27.2113C35.2474 27.2155 35.2451 27.219 35.2451 27.2229C35.2451 27.2271 35.2474 27.2306 35.2474 27.2344V45.4932H16.097V24.8629ZM4.34679 25.2837V17.3749C4.34679 16.7474 4.85704 16.2368 5.48449 16.2368H45.51C46.1375 16.2368 46.6477 16.7475 46.6477 17.3749V25.2837C46.6477 25.9112 46.1375 26.4214 45.51 26.4214H36.8496V24.8625H40.8217C41.2644 24.8625 41.6231 24.5042 41.6231 24.0611C41.6231 23.6183 41.2648 23.2596 40.8217 23.2596C40.9042 23.2596 34.3477 23.2561 10.5224 23.2596C10.0796 23.2596 9.72092 23.6179 9.72092 24.0611C9.72092 24.5038 10.0792 24.8625 10.5224 24.8625H14.4937V26.4214H5.48429C4.85679 26.4214 4.34659 25.9111 4.34659 25.2837H4.34679ZM14.4936 28.0243V35.5404H9.86815V28.0243H14.4936ZM9.86815 37.1428H14.4936V46.2939C14.4936 46.7366 14.8519 47.0953 15.2951 47.0953H36.0488C36.4916 47.0953 36.8503 46.737 36.8503 46.2939L36.8499 37.1428H41.1312V46.4924H38.1789C37.7362 46.4924 37.3775 46.8507 37.3775 47.2938V49.9006H13.6222V47.2938C13.6222 46.8511 13.2639 46.4924 12.8208 46.4924H9.86846L9.86815 37.1428ZM6.11431 48.0953H12.0195V49.9007H6.11431V48.0953Z" fill="black"/>
<path d="M12.8887 19.8058C13.3315 19.8058 13.6902 19.4471 13.6902 19.0043C13.6902 18.5619 13.3319 18.2029 12.8887 18.2029L8.2155 18.2033C7.77274 18.2033 7.41406 18.5619 7.41406 19.0047C7.41406 19.4471 7.77236 19.8061 8.2155 19.8061L12.8887 19.8058Z" fill="black"/>
<path d="M31.8405 4.85752H36.7047C37.1475 4.85752 37.5061 4.49884 37.5061 4.05608C37.5061 3.6137 37.1478 3.25464 36.7047 3.25464H31.8405C31.3977 3.25464 31.0391 3.61332 31.0391 4.05608C31.0391 4.49845 31.3974 4.85752 31.8405 4.85752Z" fill="black"/>
<path d="M37.5061 6.79472C37.5061 6.35235 37.1478 5.99329 36.7047 5.99329H31.8405C31.3977 5.99329 31.0391 6.35196 31.0391 6.79472C31.0391 7.2371 31.3974 7.59616 31.8405 7.59616H36.7047C37.1475 7.59616 37.5061 7.23748 37.5061 6.79472Z" fill="black"/>
<path d="M31.415 28.301H19.9303C19.4876 28.301 19.1289 28.6593 19.1289 29.1025C19.1289 29.5452 19.4872 29.9039 19.9303 29.9039H31.415C31.8578 29.9039 32.2164 29.5456 32.2164 29.1025C32.2164 28.6593 31.8578 28.301 31.415 28.301Z" fill="black"/>
<path d="M31.415 34.377H19.9303C19.4876 34.377 19.1289 34.7352 19.1289 35.1784C19.1289 35.6212 19.4872 35.9798 19.9303 35.9798H31.415C31.8578 35.9798 32.2164 35.6215 32.2164 35.1784C32.2164 34.7352 31.8578 34.377 31.415 34.377Z" fill="black"/>
<path d="M31.415 40.454H19.9303C19.4876 40.454 19.1289 40.8123 19.1289 41.2554C19.1289 41.6982 19.4872 42.0569 19.9303 42.0569H31.415C31.8578 42.0569 32.2164 41.6986 32.2164 41.2554C32.2164 40.8123 31.8578 40.454 31.415 40.454Z" fill="black"/>
</svg>
