<svg width="40" height="41" viewBox="0 0 40 41" fill="none" xmlns="http://www.w3.org/2000/svg">
<path d="M0 18.61C0.03 18.56 0.07 18.51 0.09 18.45C0.42 17.58 1.12 17.07 2.04 17.07C3.85 17.06 5.66 17.06 7.48 17.07C8.25 17.07 8.8 17.45 9.16 18.13C9.21 18.23 9.34 18.37 9.44 18.37C10.32 18.39 11.19 18.38 12.15 18.38C10.12 16.09 9.12 13.48 9.31 10.47C9.49 7.45002 10.77 4.96002 13.05 2.99002C16.67 -0.139981 22.21 -0.33998 26.1 2.49002C27.59 3.58002 28.75 4.95002 29.52 6.63002C30.29 8.32002 30.62 10.09 30.47 11.95C30.32 13.79 29.72 15.46 28.68 17.06C29.29 17.06 29.83 17.07 30.37 17.05C30.45 17.05 30.57 16.94 30.6 16.86C30.96 16.08 31.58 15.74 32.43 15.74C34.16 15.75 35.9 15.74 37.63 15.74C38.94 15.74 39.77 16.57 39.77 17.87C39.77 21.77 39.77 25.66 39.77 29.55C39.77 30.82 38.96 31.64 37.7 31.65C36.66 31.66 35.63 31.65 34.59 31.65C33.76 31.66 33.19 31.28 32.84 30.54C32.79 30.44 32.62 30.34 32.5 30.33C31.83 30.31 31.15 30.32 30.48 30.32C30.36 30.32 30.23 30.36 30.13 30.42C29.88 30.57 29.64 30.74 29.37 30.93C29.63 31.83 29.46 32.66 28.76 33.36C28.75 33.37 28.74 33.38 28.73 33.39C28.47 33.57 28.11 33.71 27.99 33.96C27.88 34.2 28.05 34.56 28.03 34.87C27.97 35.85 27.4 36.48 26.57 36.86C26.57 37.3 26.64 37.75 26.56 38.16C26.27 39.61 24.75 40.38 23.38 39.78C22.61 39.44 21.87 39.05 21.08 38.67C20.77 39.51 20.15 39.98 19.35 40.25H18.34C17.66 39.98 17.05 39.61 16.74 38.9C15.36 39.36 14.33 38.94 13.62 37.75C12.27 38.18 11.24 37.77 10.51 36.58C10.38 36.61 10.24 36.65 10.11 36.68C9.53 36.83 8.98 36.76 8.46 36.48C7.45 35.94 6.99 34.77 7.38 33.66C7.61 33 7.87 32.34 8.12 31.65H7.02C6.8 32.27 6.4 32.84 5.75 32.88C4.32 32.96 2.88 32.96 1.46 32.86C0.66 32.82 0.26 32.13 0 31.42V18.61ZM23.7 17.07C24.7 17.07 25.69 17.08 26.69 17.06C26.85 17.06 27.07 16.96 27.17 16.83C28.83 14.7 29.46 12.27 29.04 9.62002C28.22 4.53002 23.4 1.08002 18.36 1.99002C14.58 2.67002 12.03 4.91002 11 8.59002C9.96 12.31 10.98 15.55 13.89 18.15C14.04 18.29 14.3 18.37 14.51 18.37C15.67 18.39 16.84 18.37 18 18.39C18.29 18.39 18.48 18.32 18.67 18.1C19.28 17.36 20.08 17.05 21.03 17.06C21.91 17.08 22.8 17.07 23.7 17.07ZM19.28 33.8C20.04 33.75 20.69 33.94 21.21 34.48C21.92 35.23 22.07 36.1 21.67 37.05C21.55 37.34 21.61 37.47 21.9 37.6C22.54 37.88 23.16 38.2 23.79 38.5C24.39 38.78 24.93 38.63 25.18 38.12C25.44 37.59 25.23 37.04 24.64 36.74C24.12 36.48 23.59 36.24 23.07 35.98C22.62 35.76 22.46 35.38 22.64 35.01C22.82 34.65 23.2 34.56 23.65 34.77C24.16 35.01 24.67 35.27 25.19 35.51C25.77 35.78 26.34 35.61 26.59 35.11C26.86 34.58 26.64 34.03 26.04 33.74C25.5 33.47 24.94 33.22 24.4 32.95C23.96 32.73 23.8 32.38 23.96 32.01C24.13 31.63 24.53 31.53 24.99 31.74C25.54 32 26.08 32.27 26.63 32.52C27.21 32.79 27.77 32.62 28.02 32.11C28.28 31.59 28.06 31.03 27.46 30.74C26.96 30.5 26.46 30.26 25.96 30.02C25.49 29.79 25.34 29.44 25.53 29.06C25.71 28.69 26.08 28.6 26.53 28.81C27.07 29.06 27.6 29.32 28.14 29.57C28.53 29.75 28.9 29.71 29.23 29.43C29.55 29.16 29.68 28.77 29.5 28.42C29.35 28.13 29.08 27.86 28.79 27.71C26.39 26.45 23.97 25.23 21.56 23.98C21.3 23.84 21.14 23.87 20.92 24.07C19.85 25.05 18.79 26.04 17.69 26.98C16.6 27.91 15.04 27.81 14.08 26.8C13.12 25.8 13.1 24.24 14.04 23.18C14.35 22.83 14.67 22.49 14.98 22.15C15.68 21.38 16.38 20.61 17.13 19.77H9.17C8.53 23.28 7.89 26.79 7.25 30.34C7.66 30.34 8.02 30.33 8.38 30.35C8.68 30.37 8.91 30.28 9.16 30.1C9.65 29.73 10.22 29.61 10.85 29.71C11.51 29.82 12.01 30.18 12.42 30.67C13.93 29.87 14.9 30.12 15.98 31.58C17.35 31 19.1 31.7 19.28 33.8ZM22.29 22.85C22.44 22.93 22.55 22.99 22.67 23.05C24.93 24.21 27.19 25.38 29.46 26.53C30.24 26.93 30.75 27.51 30.89 28.38C30.92 28.58 30.92 28.78 30.94 28.99H32.53C31.89 25.45 31.25 21.93 30.61 18.44C30.53 18.42 30.51 18.41 30.48 18.41C27.25 18.42 24.01 18.42 20.78 18.43C20.38 18.43 20.05 18.58 19.78 18.87C18.19 20.61 16.61 22.35 15.03 24.1C14.53 24.66 14.57 25.41 15.09 25.91C15.59 26.39 16.33 26.4 16.88 25.92C17.18 25.66 17.48 25.38 17.77 25.12C19.16 23.86 20.55 22.6 21.95 21.35C22.36 20.98 22.75 20.96 23.04 21.28C23.33 21.61 23.26 21.97 22.84 22.35C22.67 22.51 22.5 22.66 22.29 22.85ZM38.45 23.72C38.45 21.79 38.45 19.87 38.45 17.94C38.45 17.35 38.23 17.1 37.68 17.1C35.91 17.09 34.13 17.09 32.36 17.1C31.91 17.1 31.78 17.26 31.84 17.71C31.91 18.22 32.01 18.73 32.11 19.23C32.75 22.73 33.38 26.23 34.02 29.73C34.11 30.21 34.23 30.32 34.71 30.33C35.65 30.33 36.6 30.33 37.54 30.33C38.22 30.33 38.45 30.1 38.45 29.42C38.45 27.52 38.45 25.62 38.45 23.72ZM1.33 25.02C1.33 26.95 1.33 28.87 1.33 30.8C1.33 31.41 1.57 31.65 2.17 31.65C2.92 31.65 3.67 31.65 4.42 31.65C5.71 31.64 5.62 31.8 5.85 30.47C6.53 26.7 7.23 22.94 7.91 19.17C8.02 18.58 7.87 18.42 7.27 18.42C5.59 18.42 3.91 18.42 2.22 18.42C1.51 18.42 1.31 18.63 1.31 19.35C1.32 21.25 1.33 23.13 1.33 25.02ZM17.88 33.84C17.89 33.26 17.58 32.88 17.08 32.77C16.66 32.68 16.18 32.91 16.01 33.35C15.6 34.39 15.21 35.45 14.83 36.5C14.78 36.65 14.77 36.83 14.8 36.99C14.89 37.44 15.25 37.74 15.7 37.78C16.11 37.81 16.52 37.56 16.69 37.11C17.08 36.11 17.45 35.11 17.82 34.1C17.85 33.99 17.87 33.88 17.88 33.84ZM14.77 32.67C14.78 32.1 14.49 31.73 14 31.61C13.57 31.5 13.09 31.73 12.9 32.2C12.49 33.23 12.11 34.27 11.73 35.31C11.68 35.45 11.66 35.62 11.68 35.76C11.75 36.22 12.1 36.55 12.56 36.6C12.99 36.65 13.4 36.39 13.58 35.92C13.96 34.93 14.33 33.94 14.7 32.95C14.75 32.84 14.76 32.71 14.77 32.67ZM10.41 31.03C10.07 31.05 9.74 31.22 9.59 31.61C9.25 32.46 8.92 33.31 8.63 34.18C8.46 34.69 8.73 35.2 9.21 35.38C9.7 35.56 10.23 35.36 10.44 34.87C10.79 34.04 11.12 33.2 11.41 32.35C11.62 31.68 11.14 31.04 10.41 31.03ZM20.51 36.23C20.51 35.67 20.21 35.3 19.72 35.19C19.28 35.09 18.83 35.3 18.64 35.75C18.39 36.34 18.16 36.95 17.95 37.55C17.74 38.12 17.98 38.67 18.49 38.86C19.03 39.07 19.56 38.82 19.8 38.23C20.02 37.67 20.23 37.1 20.44 36.53C20.48 36.41 20.5 36.28 20.51 36.23Z" fill="black"/>
<path d="M17.7708 11.59C19.0508 10.17 20.2608 8.82003 21.4708 7.48003C21.7608 7.15003 22.0508 6.82003 22.3508 6.50003C23.1508 5.64003 24.3708 5.57003 25.2008 6.33003C26.0408 7.10003 26.1008 8.30003 25.3208 9.18003C23.3608 11.37 21.4008 13.55 19.4308 15.72C18.5808 16.66 17.3508 16.68 16.4508 15.8C15.8008 15.17 15.1608 14.53 14.5308 13.88C13.7308 13.05 13.7208 11.84 14.4908 11.06C15.2708 10.27 16.5208 10.27 17.3508 11.06C17.5008 11.21 17.6208 11.4 17.7708 11.59ZM24.5908 7.76003C24.4408 7.57003 24.3308 7.31003 24.1508 7.25003C23.9408 7.18003 23.6408 7.23003 23.4408 7.34003C23.2208 7.47003 23.0608 7.72003 22.8808 7.92003C21.4108 9.55003 19.9408 11.19 18.4708 12.82C18.0508 13.29 17.7108 13.29 17.2508 12.85C16.9808 12.59 16.7208 12.32 16.4508 12.06C16.0808 11.71 15.7208 11.68 15.4308 11.99C15.1608 12.28 15.1908 12.64 15.5208 12.98C16.1308 13.6 16.7408 14.21 17.3608 14.82C17.7208 15.18 18.1008 15.18 18.4408 14.81C20.3908 12.65 22.3408 10.49 24.2808 8.32003C24.4008 8.18003 24.4608 7.99003 24.5908 7.76003Z" fill="black"/>
</svg>
