<svg width="40" height="41" viewBox="0 0 40 41" fill="none" xmlns="http://www.w3.org/2000/svg">
<g clip-path="url(#clip0_1469_7137)">
<path d="M0.000208949 20.34C0.0502089 9.36 9.02021 0.439996 19.9502 0.499996C30.9302 0.559996 39.8202 9.5 39.8002 20.45C39.7802 31.45 30.8402 40.29 19.7502 40.27C8.88021 40.25 -0.0497911 31.24 0.000208949 20.34ZM1.41021 20.4C1.42021 30.62 9.67021 38.9 19.8502 38.9C30.1202 38.9 38.4002 30.61 38.3902 20.35C38.3702 10.14 30.0802 1.88 19.8902 1.9C9.66021 1.91 1.40021 10.18 1.41021 20.4Z" fill="black"/>
<path d="M16.109 5.70999C16.109 5.48999 16.109 5.32999 16.109 5.16999C16.129 4.67999 16.369 4.40999 16.859 4.39999C18.959 4.38999 21.069 4.38999 23.179 4.39999C23.679 4.39999 23.939 4.68999 23.919 5.21999C23.899 5.65999 24.069 5.81999 24.469 5.93999C25.839 6.33999 27.109 6.96999 28.299 7.76999C28.999 8.23999 29.039 8.60999 28.449 9.19999C23.489 14.16 18.529 19.12 13.569 24.08C11.969 25.68 10.359 27.29 8.75904 28.89C8.10904 29.54 7.76904 29.51 7.26904 28.75C1.63904 20.33 5.88904 8.67999 15.619 5.84999C15.779 5.80999 15.929 5.75999 16.109 5.70999ZM16.109 7.18999C6.85904 9.86999 3.59904 20.63 8.10904 27.41C9.81904 25.7 11.539 23.98 13.219 22.3C12.619 20.62 12.499 18.96 13.419 17.28C12.879 16.73 12.739 16 12.809 15.21C12.949 13.71 13.399 12.31 14.419 11.19C15.039 10.51 15.829 9.96999 16.559 9.38999C16.779 9.21999 16.999 9.03999 16.619 8.87999C16.199 8.69999 16.089 8.40999 16.099 7.99999C16.119 7.74999 16.109 7.48999 16.109 7.18999ZM18.219 8.93999C18.219 9.13999 18.209 9.29999 18.219 9.45999C18.239 9.91999 18.049 10.2 17.619 10.41C15.519 11.42 14.379 13.1 14.199 15.43C14.139 16.23 14.469 16.61 15.279 16.62C16.429 16.63 17.579 16.64 18.729 16.61C18.939 16.61 19.189 16.49 19.349 16.34C20.239 15.49 21.099 14.61 21.969 13.74C22.679 13.03 23.379 12.33 24.159 11.56C23.679 11.23 23.289 10.83 22.809 10.64C22.049 10.33 21.689 9.87999 21.819 9.05999C21.819 9.02999 21.789 8.99999 21.759 8.94999H18.219V8.93999ZM17.499 7.46999H22.489V5.81999H17.499V7.46999ZM27.019 8.53999C26.029 8.09999 25.029 7.64999 23.919 7.15999C23.919 7.48999 23.919 7.65999 23.919 7.83999C23.929 8.30999 23.909 8.75999 23.329 8.91999C23.299 8.92999 23.299 9.27999 23.379 9.33999C23.949 9.75999 24.539 10.14 25.069 10.5C25.679 9.87999 26.319 9.23999 27.019 8.53999ZM17.629 17.99C16.839 17.99 16.099 17.99 15.359 17.99C14.649 18 14.239 18.37 14.199 19.08C14.169 19.64 14.179 20.21 14.199 20.77C14.199 20.95 14.269 21.12 14.319 21.31C15.439 20.18 16.499 19.11 17.629 17.99Z" fill="black"/>
<path d="M35.0502 19.79C35.0602 26.67 31.1402 32.38 25.2702 34.56C20.4402 36.35 15.8402 35.76 11.5102 33.01C10.8002 32.56 10.7602 32.17 11.3602 31.58C17.9302 25.01 24.5102 18.43 31.0802 11.86C31.6702 11.27 32.0502 11.31 32.5102 12C34.2002 14.55 35.0202 17.37 35.0502 19.79ZM27.1302 32.08C34.3402 27.74 35.1802 18.47 31.6002 13.28C30.1302 14.75 28.6702 16.22 27.2202 17.7C27.1302 17.79 27.1102 17.99 27.1202 18.13C27.1902 19.56 27.5602 21.04 26.5202 22.3C27.5102 23.55 27.5002 25.92 26.5302 27.57C27.0502 28.12 27.2502 28.77 27.2102 29.52C27.1702 30.37 27.1502 31.22 27.1302 32.08ZM20.8202 28.21C19.5702 28.21 18.3302 28.2 17.0802 28.22C16.8802 28.22 16.6302 28.3 16.4802 28.44C15.7602 29.12 15.0702 29.82 14.3802 30.53C14.2702 30.64 14.1902 30.84 14.1902 30.99C14.2302 32.29 15.1502 33.42 16.4102 33.73C18.8602 34.33 21.3102 34.31 23.7402 33.63C24.8502 33.32 25.5202 32.58 25.7202 31.48C25.8402 30.85 25.8102 30.19 25.8202 29.55C25.8302 28.62 25.4302 28.22 24.5002 28.22C23.2802 28.2 22.0502 28.21 20.8202 28.21ZM18.1002 26.78C18.2402 26.81 18.2802 26.83 18.3202 26.83C20.4602 26.83 22.5902 26.84 24.7302 26.83C25.3902 26.83 25.8102 26.38 25.8202 25.72C25.8302 25.22 25.8302 24.72 25.8202 24.21C25.8102 23.39 25.4202 22.97 24.6202 22.96C23.8102 22.94 23.0002 22.95 22.1902 22.96C22.0502 22.96 21.8702 23.03 21.7702 23.13C20.5602 24.33 19.3602 25.53 18.1002 26.78ZM25.8202 19.21C25.0302 20.01 24.2502 20.79 23.4802 21.58C23.9402 21.58 24.4302 21.61 24.9202 21.57C25.3802 21.53 25.7702 21.14 25.8102 20.68C25.8502 20.19 25.8202 19.69 25.8202 19.21Z" fill="black"/>
</g>
<defs>
<clipPath id="clip0_1469_7137">
<rect width="40" height="40" fill="white" transform="translate(0 0.5)"/>
</clipPath>
</defs>
</svg>
