<svg width="40" height="41" viewBox="0 0 40 41" fill="none" xmlns="http://www.w3.org/2000/svg">
<g clip-path="url(#clip0_1469_7144)">
<path d="M20.4115 0.5C21.0015 0.68 21.4915 1.02 21.9515 1.42C22.3515 1.78 22.8315 1.81 23.3315 1.61C23.9015 1.37 24.4915 1.26 25.1115 1.43C25.8415 1.63 26.3815 2.05 26.7215 2.72C26.9415 3.14 27.1515 3.57 27.6515 3.69C27.8815 3.75 28.1315 3.77 28.3815 3.77C29.7215 3.77 30.8415 4.8 30.9115 6.06C30.9515 6.86 31.3315 7.36 32.0915 7.65C33.3715 8.14 33.9915 9.37 33.6015 10.69C33.3715 11.46 33.5515 12.03 34.1315 12.56C35.1715 13.51 35.2815 14.85 34.4315 15.97C33.9615 16.59 33.9115 17.18 34.2615 17.87C34.8915 19.12 34.5215 20.43 33.3315 21.17C32.7115 21.56 32.3615 22.05 32.4715 22.8C32.6715 24.16 31.7915 25.3 30.5415 25.63C30.6215 25.77 30.6915 25.9 30.7715 26.02C32.3915 28.55 34.0115 31.07 35.6115 33.61C35.7515 33.84 35.8715 34.13 35.8815 34.39C35.9015 34.96 35.3815 35.34 34.7615 35.28C33.1815 35.13 31.5915 34.99 30.0115 34.84C29.9515 34.83 29.8815 34.84 29.7715 34.84C29.5015 35.58 29.2315 36.32 28.9615 37.07C28.6715 37.87 28.3815 38.67 28.1015 39.47C27.9515 39.89 27.7215 40.21 27.2415 40.26C26.7715 40.31 26.4815 40.05 26.2315 39.67C24.2415 36.55 22.2515 33.44 20.2615 30.32C20.1715 30.18 20.0815 30.04 19.9615 29.86C19.8415 30.03 19.7415 30.16 19.6615 30.29C17.6915 33.37 15.7215 36.45 13.7515 39.54C13.6915 39.63 13.6415 39.72 13.5815 39.8C13.3615 40.13 13.0615 40.31 12.6615 40.26C12.2615 40.21 12.0015 39.98 11.8715 39.61C11.4315 38.4 10.9915 37.18 10.5515 35.97C10.4115 35.59 10.2815 35.22 10.1315 34.82C9.40152 34.88 8.68152 34.94 7.96152 35C7.00152 35.1 6.03152 35.19 5.06152 35.28C4.67152 35.31 4.34152 35.17 4.14152 34.83C3.91152 34.45 3.99152 34.07 4.22152 33.7C5.34152 31.95 6.46152 30.19 7.58152 28.44C8.17152 27.52 8.76152 26.59 9.37152 25.64C8.44152 25.37 7.79152 24.83 7.52152 23.91C7.43152 23.61 7.39152 23.27 7.43152 22.96C7.52152 22.19 7.29152 21.62 6.60152 21.2C5.36152 20.43 5.00152 19.16 5.65152 17.85C5.98152 17.18 5.93152 16.61 5.49152 16.02C4.61152 14.84 4.72152 13.54 5.79152 12.55C6.35152 12.04 6.52152 11.48 6.30152 10.75C5.90152 9.38 6.50152 8.17 7.84152 7.65C8.60152 7.34 8.94152 6.82 9.00152 6.03C9.09152 4.78 10.1515 3.76 11.4015 3.8C12.3015 3.82 12.8415 3.46 13.2115 2.66C13.7215 1.59 15.0615 1.09 16.1915 1.49C16.3715 1.55 16.5615 1.61 16.7415 1.68C17.1715 1.82 17.5715 1.75 17.9015 1.46C18.3715 1.04 18.8815 0.7 19.4815 0.51H20.4115V0.5ZM8.61152 22.76C8.54152 23.78 8.89152 24.36 9.74152 24.49C10.9715 24.68 11.7015 25.37 12.0215 26.55C12.2515 27.39 12.8415 27.73 13.7015 27.55C14.8115 27.32 15.7215 27.63 16.4115 28.54C17.0615 29.39 17.6515 29.49 18.5715 28.93C19.4715 28.39 20.4115 28.34 21.2815 28.93C22.1115 29.49 22.9715 29.3 23.5215 28.51C24.1015 27.66 24.9715 27.36 26.0015 27.53C26.2915 27.58 26.6015 27.62 26.8815 27.56C27.5515 27.44 27.7815 26.91 27.9515 26.32C28.2315 25.33 28.9115 24.75 29.9015 24.53C31.0515 24.28 31.3715 23.9 31.2815 22.75C31.2015 21.66 31.6215 20.85 32.5515 20.28C33.4115 19.75 33.5915 19.14 33.1415 18.26C32.6315 17.25 32.7215 16.3 33.4115 15.4C34.0115 14.62 33.9415 13.98 33.2215 13.33C32.3815 12.57 32.1115 11.65 32.4315 10.56C32.7115 9.63 32.4115 9.02 31.5115 8.69C30.4015 8.28 29.8415 7.48 29.7515 6.33C29.6815 5.45 29.2015 4.98 28.3215 4.99C27.1115 5.01 26.2515 4.5 25.7315 3.39C25.3615 2.6 24.7215 2.36 23.9015 2.68C22.7915 3.13 21.8115 2.96 20.9415 2.13C20.2815 1.51 19.6215 1.52 18.9515 2.14C18.0815 2.95 17.1215 3.13 16.0215 2.68C15.1815 2.34 14.5515 2.58 14.1615 3.39C13.6415 4.48 12.7915 4.99 11.6015 4.97C10.7015 4.96 10.2315 5.42 10.1515 6.33C10.0515 7.47 9.49152 8.26 8.40152 8.67C7.48152 9.01 7.19152 9.6 7.47152 10.56C7.78152 11.63 7.52152 12.55 6.69152 13.3C5.95152 13.97 5.88152 14.6 6.49152 15.4C7.18152 16.3 7.26152 17.25 6.74152 18.27C6.30152 19.14 6.47152 19.75 7.31152 20.27C8.26152 20.83 8.70152 21.66 8.61152 22.76ZM21.7015 30.39C23.5015 33.21 25.2715 35.97 27.0715 38.79C27.3515 38.01 27.6015 37.31 27.8715 36.61C27.9715 36.35 27.9415 36.16 27.7915 35.93C26.5615 34 25.3515 32.07 24.1315 30.14C24.0715 30.04 24.0015 29.96 23.9315 29.85C23.2715 30.35 22.5715 30.58 21.7015 30.39ZM12.8215 38.79C14.6315 35.96 16.3915 33.21 18.1815 30.4C17.3015 30.58 16.6015 30.35 15.9815 29.86C15.9415 29.89 15.9215 29.9 15.9015 29.92C14.6015 31.97 13.3115 34.02 12.0215 36.08C11.9715 36.17 11.9315 36.31 11.9615 36.4C12.2315 37.18 12.5215 37.95 12.8215 38.79ZM5.40152 34.06C6.21152 33.98 6.94152 33.92 7.67152 33.84C7.79152 33.83 7.95152 33.75 8.01152 33.66C9.16152 31.86 10.2915 30.06 11.4215 28.25C11.4715 28.17 11.4515 28.02 11.4115 27.92C11.2415 27.54 11.0415 27.16 10.8615 26.78C10.7515 26.56 10.6615 26.34 10.5215 26.04C8.79152 28.75 7.11152 31.37 5.40152 34.06ZM29.3715 26.04C29.2415 26.3 29.1515 26.48 29.0615 26.66C28.8515 27.08 28.6415 27.51 28.4515 27.94C28.4115 28.03 28.4215 28.19 28.4815 28.27C29.5915 30.06 30.7215 31.84 31.8515 33.62C31.9115 33.71 32.0115 33.81 32.1015 33.82C32.8715 33.91 33.6515 33.97 34.4915 34.05C32.7815 31.38 31.1015 28.75 29.3715 26.04ZM9.46152 33.62C9.91152 33.66 10.3815 33.59 10.7115 33.77C11.0415 33.95 11.2315 34.39 11.4815 34.72C12.6815 32.81 13.9115 30.86 15.1415 28.91C14.7315 28.61 14.3215 28.66 13.9115 28.71C13.5715 28.75 13.2115 28.79 12.8715 28.73C12.6015 28.7 12.5015 28.76 12.3815 28.96C11.5015 30.37 10.6015 31.78 9.72152 33.19C9.62152 33.33 9.54152 33.47 9.46152 33.62ZM30.4715 33.71C30.3815 33.54 30.3315 33.45 30.2815 33.37C29.3615 31.9 28.4315 30.44 27.5115 28.97C27.3715 28.75 27.2515 28.7 26.9915 28.74C26.6615 28.79 26.3015 28.74 25.9515 28.7C25.5315 28.66 25.1115 28.6 24.7515 28.92C25.9915 30.88 27.2115 32.82 28.5115 34.87C28.7015 33.64 29.4815 33.51 30.4715 33.71Z" fill="black"/>
<path d="M22.0299 19.15C22.4399 19.15 22.8199 19.15 23.1899 19.15C23.7799 19.16 24.0599 19.44 24.0699 20.04C24.0799 20.57 24.0799 21.1 24.0699 21.63C24.0599 22.11 23.8299 22.37 23.3599 22.44C23.2299 22.46 23.0999 22.46 22.9699 22.46C20.9499 22.46 18.9299 22.46 16.9099 22.46C16.0299 22.46 15.7799 22.2 15.7699 21.33C15.7699 20.9 15.7599 20.47 15.7699 20.05C15.7899 19.44 16.0899 19.15 16.6899 19.15C17.1699 19.14 17.6399 19.15 18.1399 19.15V13.62C17.9099 13.81 17.7099 13.98 17.5099 14.14C16.9899 14.55 16.5899 14.5 16.1799 13.98C15.8499 13.56 15.5199 13.15 15.1999 12.72C14.8499 12.26 14.8799 11.88 15.3199 11.5C16.4399 10.54 17.5699 9.59 18.7199 8.66C18.8999 8.51 19.1799 8.43 19.4199 8.42C19.9499 8.38 20.4799 8.41 21.0099 8.41C21.7399 8.41 22.0199 8.68 22.0199 9.41C22.0199 10.99 22.0199 12.57 22.0199 14.15C22.0299 15.79 22.0299 17.44 22.0299 19.15ZM22.8899 20.31C22.4299 20.31 22.0099 20.32 21.5799 20.31C21.1799 20.29 20.9399 20.08 20.8699 19.68C20.8399 19.52 20.8299 19.35 20.8299 19.18C20.8299 16.14 20.8299 13.1 20.8299 10.06V9.62C19.9999 9.52 19.2499 9.51 18.7099 10.21C18.6899 10.24 18.6499 10.26 18.6199 10.28C17.8599 10.92 17.0999 11.56 16.3199 12.22C16.5499 12.51 16.7499 12.77 16.9699 13.05C17.3399 12.75 17.6799 12.47 18.0099 12.19C18.2699 11.97 18.5499 11.84 18.8999 11.99C19.2599 12.15 19.3699 12.45 19.3699 12.81C19.3699 15.01 19.3799 17.21 19.3699 19.41C19.3699 20.06 19.0799 20.32 18.4399 20.33C17.9599 20.34 17.4899 20.33 17.0099 20.33V21.23H22.8899V20.31Z" fill="black"/>
<path d="M19.9807 26.59C14.8007 26.62 10.1607 22.91 9.08072 17.87C9.01072 17.57 8.97072 17.26 8.92072 16.95C8.86072 16.55 9.06072 16.25 9.41072 16.19C9.73072 16.14 10.0107 16.34 10.0807 16.73C10.2707 17.84 10.5407 18.93 11.0807 19.93C12.6807 22.94 15.1507 24.76 18.5307 25.27C23.0407 25.95 27.2707 23.46 29.0107 19.48C29.3407 18.72 29.5007 17.88 29.7307 17.08C29.7707 16.96 29.7707 16.83 29.8107 16.7C29.9007 16.34 30.1607 16.13 30.4707 16.18C30.8107 16.23 31.0407 16.55 30.9607 16.93C30.8207 17.61 30.7207 18.31 30.4807 18.96C29.2107 22.55 26.7507 24.95 23.1107 26.08C22.1107 26.39 21.0407 26.48 20.0007 26.67C20.0007 26.66 19.9907 26.63 19.9807 26.59Z" fill="black"/>
<path d="M30.9715 13.91C30.9415 14.33 30.8115 14.58 30.4815 14.63C30.1415 14.69 29.9015 14.54 29.8115 14.2C29.6015 13.44 29.4815 12.65 29.1915 11.93C27.7715 8.43001 25.1915 6.29001 21.4615 5.70001C16.2915 4.87001 11.4415 8.19001 10.2615 13.28C10.1915 13.58 10.1615 13.89 10.0815 14.19C9.98151 14.55 9.71151 14.71 9.38151 14.63C9.08151 14.56 8.88151 14.25 8.95151 13.91C9.82151 9.22001 12.4915 6.05001 17.1015 4.77001C22.8115 3.18001 28.6415 6.40001 30.5015 12.02C30.7115 12.67 30.8315 13.35 30.9715 13.91Z" fill="black"/>
</g>
<defs>
<clipPath id="clip0_1469_7144">
<rect width="40" height="40" fill="white" transform="translate(0 0.5)"/>
</clipPath>
</defs>
</svg>
