<svg width="40" height="41" viewBox="0 0 40 41" fill="none" xmlns="http://www.w3.org/2000/svg">
<g clip-path="url(#clip0_1469_7131)">
<path d="M33.2906 40.01H29.6206C29.4106 38.55 29.2006 37.1 28.9806 35.6C26.8106 36.36 24.5906 36.17 22.3606 36.2C22.1806 37.48 21.9906 38.73 21.8106 40H18.1306C17.9506 38.74 17.7706 37.49 17.5806 36.2C15.3806 36.16 13.1606 36.38 10.9706 35.6C10.7506 37.09 10.5406 38.54 10.3306 40H6.65064C6.55064 39.29 6.44064 38.57 6.34064 37.86C6.09064 36.13 5.86064 34.39 5.60064 32.66C5.58064 32.51 5.46064 32.35 5.35064 32.23C4.03064 30.87 4.03064 30.87 4.03064 29.01C4.03064 23.24 4.09064 17.48 4.00064 11.71C3.96064 9.1 5.80064 6.93 8.47064 6.84V4.32H7.25064V0.5H17.4006V4.29H16.1706V6.84H21.2406V3.05H25.0606V6.83H27.6206V3.06H31.4506V6.84C32.5406 6.88 33.4906 7.19 34.3006 7.88C35.3406 8.76 35.9206 9.88 35.9206 11.25C35.9306 17.63 35.9306 24.01 35.9206 30.39C35.9206 30.58 35.8406 30.81 35.7206 30.96C35.3706 31.41 34.9706 31.82 34.6006 32.26C34.4906 32.39 34.3806 32.54 34.3506 32.69C34.0406 34.8 33.7506 36.92 33.4506 39.03C33.4006 39.34 33.3406 39.66 33.2906 40.01ZM34.6206 11.99H5.32064V29.8H34.6106V11.99H34.6206ZM34.5506 10.67C34.2106 9.1 32.9506 8.13 31.2606 8.13C23.7406 8.13 16.2206 8.13 8.70064 8.13C8.42064 8.13 8.14064 8.16 7.87064 8.21C6.65064 8.42 5.54064 9.54 5.43064 10.67H34.5506ZM6.08064 31.11C9.23064 34.39 13.1106 35.24 17.4006 34.87C17.2206 33.63 17.0406 32.37 16.8606 31.11H6.08064ZM22.5506 34.88C26.7606 35.43 32.5406 33.48 33.7906 31.1H23.0906C22.9106 32.38 22.7306 33.63 22.5506 34.88ZM20.6906 38.73C21.0506 36.18 21.4106 33.66 21.7806 31.11H18.1806C18.5406 33.66 18.9106 36.19 19.2706 38.73H20.6906ZM14.8406 4.33H9.80064V6.85H14.8406V4.33ZM16.1306 1.78H8.52064V3H16.1306V1.78ZM7.07064 33.78C7.30064 35.41 7.54064 37.07 7.78064 38.72H9.20064C9.36064 37.61 9.53064 36.52 9.68064 35.43C9.69064 35.32 9.64064 35.14 9.56064 35.1C8.74064 34.65 7.90064 34.22 7.07064 33.78ZM32.8806 33.75C32.1606 34.15 31.4906 34.54 30.8006 34.9C30.2506 35.19 30.2506 35.17 30.3206 35.76C30.3506 36 30.3806 36.23 30.4106 36.47C30.5206 37.22 30.6306 37.98 30.7406 38.72H32.1606C32.4106 37.07 32.6406 35.42 32.8806 33.75ZM22.5406 6.83H23.7806V4.33H22.5406V6.83ZM30.1506 4.33H28.9406V6.85H30.1506V4.33Z" fill="black"/>
<path d="M20.6108 25.99V28.51H19.3608V25.99C19.1908 25.99 19.0508 25.99 18.9108 25.99C17.1208 25.99 15.3208 25.99 13.5308 25.99C10.0908 25.98 7.13078 23.4 6.66078 19.99C6.59078 19.47 6.59078 18.93 6.55078 18.34H7.01078C9.16078 18.34 11.3108 18.35 13.4708 18.34C15.5508 18.33 17.2908 19.08 18.7308 20.57C18.7808 20.62 18.8208 20.67 18.8708 20.71C18.8808 20.72 18.8908 20.72 18.9308 20.74C18.9708 20.67 19.0208 20.6 19.0608 20.52C20.9508 16.48 24.1008 14.04 28.4908 13.37C30.0708 13.13 31.6908 13.24 33.3508 13.19C33.4808 16.82 32.3308 19.9 29.8208 22.43C27.3108 24.95 24.2108 26.1 20.6108 25.99ZM26.7608 22.13C25.8908 21.78 25.0708 21.45 24.2408 21.14C24.1208 21.09 23.9008 21.1 23.8208 21.17C23.0408 21.91 22.2608 22.65 21.5208 23.43C21.2008 23.78 20.9908 24.23 20.7008 24.68C27.1008 25.04 31.9608 19.7 32.0008 14.46C30.8408 14.53 29.6808 14.49 28.5508 14.68C24.4508 15.37 21.6408 17.71 20.0408 21.53C19.8008 22.09 19.9608 22.5 20.2108 22.93C20.7508 22.34 21.2108 21.68 21.8308 21.21C23.0108 20.3 23.7408 19.11 24.3208 17.78C24.5608 17.23 24.8608 16.7 25.1508 16.13C25.5508 16.33 25.9108 16.51 26.3008 16.71C26.0608 17.19 25.8408 17.65 25.5708 18.19C26.4508 17.63 27.2408 17.12 28.0408 16.64C28.8508 16.15 29.6808 15.69 30.5208 15.2C30.7408 15.61 30.9308 15.97 31.1208 16.35C30.4908 16.71 29.8908 17.05 29.2408 17.43C29.6608 17.55 30.0008 17.64 30.3508 17.74C30.2408 18.17 30.1308 18.57 30.0308 18.97C29.7808 18.91 29.5808 18.86 29.3708 18.82C28.7908 18.69 28.1708 18.38 27.6408 18.48C27.0908 18.59 26.6108 19.1 26.1108 19.44C25.8108 19.64 25.5208 19.86 25.1908 20.11C25.9208 20.41 26.5808 20.67 27.2508 20.95C27.0708 21.34 26.9208 21.71 26.7608 22.13ZM19.2008 24.3C19.1708 24.12 19.1708 24.03 19.1408 23.94C18.4808 21.36 16.2208 19.62 13.4908 19.61C11.7508 19.6 10.0108 19.61 8.27078 19.61C8.16078 19.61 8.05078 19.63 7.93078 19.63C7.94078 19.76 7.93078 19.85 7.95078 19.94C8.32078 22.16 10.1208 24.16 12.3208 24.52C13.7608 24.75 15.2408 24.7 16.7008 24.78C16.7108 24.73 16.7208 24.68 16.7208 24.63C14.3208 23.58 11.9208 22.53 9.50078 21.47C9.69078 21.05 9.85078 20.68 10.0308 20.29C13.0908 21.63 16.1108 22.95 19.2008 24.3Z" fill="black"/>
</g>
<defs>
<clipPath id="clip0_1469_7131">
<rect width="40" height="40" fill="white" transform="translate(0 0.5)"/>
</clipPath>
</defs>
</svg>
