<svg width="135" height="40" viewBox="0 0 135 40" fill="none" xmlns="http://www.w3.org/2000/svg">
<g clip-path="url(#clip0_1685_7368)">
<path d="M54.5154 39.0502V37.4615L54.313 37.4532C53.7335 37.4311 52.081 37.2046 52.081 36.4862V22.5726C52.081 20.506 51.8564 17.5414 50.7944 15.1377C49.6826 12.6291 47.9358 11.3554 45.5984 11.3554C43.3109 11.3554 41.4366 13.2038 40.6602 14.1017V9.61206L39.1352 9.66456V22.6306H40.6574L40.6602 22.4234C40.6602 22.335 40.8598 13.5049 45.3738 13.5049C46.2361 13.5049 46.921 13.7784 47.4755 14.3448C48.5985 15.4942 49.1142 17.8288 49.0476 21.4785C48.0827 21.1 47.2981 20.9618 46.1807 20.9618C44.9662 20.9618 38.3672 22.6693 38.3672 30.2201C38.3672 37.3206 41.9107 39.8514 45.2241 39.8514C47.2565 39.8514 48.6678 38.8264 49.3027 38.2489V39.0502H54.5154ZM45.7121 37.887C43.5022 37.887 40.8155 34.4224 40.663 29.9549C40.5881 27.7667 41.2785 25.7581 42.554 24.443C43.4662 23.5036 44.603 23.0063 45.8452 23.0063C47.6363 23.0063 49.092 25.3658 49.3055 25.725V35.7458C49.0199 36.0829 47.4367 37.887 45.7121 37.887Z" fill="white"/>
<path d="M63.6473 38.8564H56.6351V37.196H58.5317V17.9694C57.3921 19.4364 57.381 19.4364 57.2784 19.4364C57.1786 19.4364 57.1786 19.4364 56.3967 18.5385L56.2969 18.4252L60.9412 10.5649L61.9754 11.6784L60.9356 13.488V14.4191C61.5872 13.5626 62.9791 12.0127 64.5041 12.0127C65.6797 12.0127 66.359 12.3055 66.7278 12.568V10.4517H68.3581L68.3193 22.0998H67.0356V19.4972C67.0328 19.4558 66.6696 14.0378 64.4292 14.0378C62.3636 14.0378 61.1297 17.6212 61.0105 17.9832V35.5687C61.0105 36.1958 61.5539 37.1932 62.2 37.1932H63.6473V38.8564Z" fill="white"/>
<path d="M79.8842 38.9035H78.6004L78.5588 38.746C78.5034 38.5333 72.933 17.4804 72.409 15.8531C71.9182 14.3363 70.188 13.897 70.1714 13.8942L70.0078 13.8556V12.22L76.1355 12.2117V13.8611H74.9016L79.643 32.4025C80.3583 29.1092 82.8676 17.5688 82.9619 17.1102C83.2392 15.7371 83.1199 14.7452 82.6208 14.2396C82.1134 13.7257 81.3648 13.8556 81.3565 13.8583L81.107 13.9053V12.2117H87.2596V13.8611H85.7013L79.8842 38.9035Z" fill="white"/>
<path d="M95.0084 38.9034H88.0074V37.2457H89.9011V18.0467C88.7615 19.511 88.7532 19.511 88.6506 19.511C88.5508 19.511 88.5508 19.511 87.7717 18.6131L87.6719 18.4998L92.3106 10.6533L93.3448 11.764L92.3051 13.5736V15.1623L92.3799 18.0218V35.6184C92.3799 36.2455 92.9234 37.2429 93.5666 37.2429H95.0112V38.9034H95.0084Z" fill="white"/>
<path d="M90.3073 6.88515C89.2676 6.88515 88.4219 5.70817 88.4219 4.26044C88.4219 2.81271 89.2676 1.63574 90.3073 1.63574C91.3471 1.63574 92.1928 2.81271 92.1928 4.26044C92.1928 5.70817 91.3471 6.88515 90.3073 6.88515Z" fill="white"/>
<path d="M106.283 38.8289C99.7255 38.8289 96.1875 31.7754 96.1875 25.139C96.1875 18.58 100.538 11.2696 106.782 11.2696C107.877 11.2696 109.258 11.8 110.14 12.2006V9.91577H111.385V24.5644H110.14V16.1322C109.524 15.2398 108.204 13.8059 106.069 13.8059C102.301 13.8086 98.4999 17.334 98.4999 25.2109C98.4999 33.2756 103.349 36.2015 106.607 36.2015C109.496 36.2015 112.333 32.2064 112.361 32.1649L112.524 31.9329L113.534 33.2314L113.464 33.353C112.006 35.8782 109.252 38.8289 106.283 38.8289Z" fill="white"/>
<path d="M124.407 11.5845C118.969 11.5845 114.547 17.6959 114.547 25.2053C114.547 32.7175 118.969 38.8289 124.407 38.8289C129.844 38.8289 134.269 32.7175 134.269 25.2053C134.269 17.6931 129.847 11.5845 124.407 11.5845ZM124.407 36.7623C120.661 36.7623 116.618 32.3445 116.618 25.2053C116.618 18.0661 120.661 13.6483 124.407 13.6483C128.153 13.6483 132.195 18.0661 132.195 25.2053C132.198 32.3445 128.155 36.7623 124.407 36.7623Z" fill="white"/>
<path d="M27.2798 38.8677C24.1161 38.8677 21.4183 37.8344 19.25 35.7898C17.628 34.2592 13.8516 29.6757 13.8516 20.1991C13.8516 9.07868 19.6687 1.31233 27.9951 1.31233C30.6597 1.31233 33.1829 2.81256 34.267 3.553V0.593994H35.5314V14.9H34.267V10.2115C33.7069 7.57294 32.0433 3.17725 27.2049 3.17725C20.7417 3.17725 16.0531 10.3137 16.0531 20.1439C16.0531 28.8662 21.446 37.1105 27.1495 37.1105C32.7392 37.1105 35.4315 32.5159 35.4565 32.4689L35.6118 32.1982L36.7098 33.5934L36.4491 33.8973C35.0378 35.544 32.4093 38.6107 28.106 38.8483C27.8315 38.8621 27.5543 38.8677 27.2798 38.8677Z" fill="white"/>
<path d="M0.625 19.826H6.01237C8.05031 19.826 8.0919 17.5494 8.0919 17.5494L8.45789 14.665C8.90985 11.6729 11.4912 9.37695 14.6216 9.37695C17.752 9.37695 20.2558 11.6729 20.7049 14.665L21.0709 17.5494C21.0709 17.5494 21.1125 19.826 23.1505 19.826H28.5378V24.2521H23.1505C21.1125 24.2521 21.0709 21.9755 21.0709 21.9755L20.7049 19.0911C20.253 16.0989 17.7492 13.803 14.6216 13.803C11.494 13.803 8.90985 16.0989 8.45789 19.0911L8.0919 21.9755C8.0919 21.9755 8.05031 24.2521 6.01237 24.2521H0.625V19.826Z" fill="white"/>
<path d="M0.625 26.3934H6.01237C8.05031 26.3934 8.0919 24.1168 8.0919 24.1168L8.45789 21.2324C8.90985 18.2403 11.4912 15.9443 14.6216 15.9443C17.752 15.9443 20.2558 18.2375 20.7049 21.2324L21.0709 24.1168C21.0709 24.1168 21.1125 26.3934 23.1505 26.3934H28.5378V30.8222H23.1505C21.1125 30.8222 21.0709 28.5457 21.0709 28.5457L20.7049 25.6613C20.253 22.6691 17.7492 20.3732 14.6216 20.3732C11.494 20.3732 8.90985 22.6691 8.45789 25.6613L8.0919 28.5457C8.0919 28.5457 8.05031 30.8222 6.01237 30.8222H0.625V26.3934Z" fill="white"/>
</g>
<defs>
<clipPath id="clip0_1685_7368">
<rect width="133.642" height="39.2572" fill="white" transform="translate(0.625 0.593994)"/>
</clipPath>
</defs>
</svg>
