<svg width="105" height="49" viewBox="0 0 105 49" fill="none" xmlns="http://www.w3.org/2000/svg">
<g clip-path="url(#clip0_1685_7403)">
<path d="M2.62154 47.2391L1.54162 48.2659C1.36384 48.4301 1.08393 48.532 0.892908 48.3414L0.828604 48.2772C0.728366 48.1772 0.664062 48.062 0.664062 47.9488C0.664062 47.8337 0.701888 47.7204 0.766192 47.643L1.45273 46.7937C1.57944 46.6427 1.69481 46.4011 1.69481 46.1973V38.5138C1.69481 38.2345 1.92366 38.0061 2.20357 38.0061H2.49482C2.77473 38.0061 3.00358 38.2345 3.00358 38.5138V46.3105C3.00169 46.6182 2.92604 46.9466 2.62154 47.2391Z" fill="white"/>
<path d="M10.01 46.5786H6.3125V38.0081H10.3409V38.7177C10.3409 38.997 10.1121 39.1745 9.83218 39.1745H7.62127V41.7111H9.53903C9.81894 41.7111 10.0478 41.8885 10.0478 42.1678V42.4207C10.0478 42.7001 9.81894 42.8775 9.53903 42.8775H7.62127V45.4141H10.01C10.2899 45.4141 10.5055 45.5915 10.5055 45.8709V46.1256C10.5055 46.4012 10.288 46.5786 10.01 46.5786Z" fill="white"/>
<path d="M17.8338 46.4521L17.5671 46.5785C17.3137 46.705 17.0073 46.5653 16.8938 46.3124L15.3449 42.8774H14.4181V46.0727C14.4181 46.352 14.1893 46.5804 13.9094 46.5804H13.6181C13.3382 46.5804 13.1094 46.352 13.1094 46.0727V38.5025C13.1094 38.2231 13.2872 38.008 13.5784 38.008H13.9983L14.316 38.476C14.3803 38.5647 14.456 38.5912 14.5184 38.5912C14.8096 38.5912 15.1028 37.9702 15.865 37.9702H16.1071C17.0224 37.9702 17.5425 38.6931 17.5425 39.5179V41.3316C17.5425 41.928 17.2116 42.4603 16.7161 42.7264L18.1005 45.7953C18.1269 45.8594 18.1383 45.9217 18.1383 45.9972C18.1383 46.186 18.0362 46.3634 17.8338 46.4521ZM16.2319 39.6821C16.2319 39.4027 16.003 39.1744 15.7231 39.1744H14.9231C14.6432 39.1744 14.4144 39.4027 14.4144 39.6821V41.711H15.7231C16.003 41.711 16.2319 41.4826 16.2319 41.2033V39.6821Z" fill="white"/>
<path d="M23.0014 46.5786H20.6259C20.346 46.5786 20.1172 46.4011 20.1172 46.1218V45.4122H22.7082C23.026 45.4122 23.2794 45.1592 23.2794 44.8403V43.4455C23.2794 43.1284 23.026 42.8755 22.7082 42.8755H21.8061C20.9285 42.8755 20.2174 42.1659 20.2174 41.2901V39.5915C20.2174 38.7176 20.9285 38.0061 21.8061 38.0061H23.7125C23.9924 38.0061 24.2213 38.1835 24.2213 38.4628V39.1725H22.0993C21.7815 39.1725 21.5281 39.4254 21.5281 39.7444V41.1391C21.5281 41.4562 21.7815 41.7091 22.0993 41.7091H23.0014C23.8789 41.7091 24.5901 42.4188 24.5901 43.2945V44.9932C24.5901 45.8689 23.8771 46.5786 23.0014 46.5786Z" fill="white"/>
<path d="M31.0881 46.5786H27.3906V38.0081H31.4172V38.7177C31.4172 38.997 31.1883 39.1745 30.9084 39.1745H28.6975V41.7111H30.6153C30.8952 41.7111 31.124 41.8885 31.124 42.1678V42.4207C31.124 42.7001 30.8952 42.8775 30.6153 42.8775H28.6975V45.4141H31.0862C31.3661 45.4141 31.5817 45.5915 31.5817 45.8709V46.1256C31.5836 46.4012 31.368 46.5786 31.0881 46.5786Z" fill="white"/>
<path d="M38.3145 38.844L36.5235 42.281V46.0708C36.5235 46.3501 36.2946 46.5785 36.0147 46.5785H35.7235C35.4436 46.5785 35.2147 46.3501 35.2147 46.0708V42.281L33.4237 38.844C33.3859 38.7818 33.3594 38.7044 33.3594 38.6402C33.3594 38.4496 33.4483 38.2476 33.626 38.1589L33.8927 38.0193C34.1216 37.8928 34.4525 37.9815 34.5793 38.2344L35.8748 40.7069L37.1571 38.2344C37.2838 37.9815 37.6148 37.8928 37.8436 38.0193L38.1103 38.1589C38.2881 38.2476 38.3769 38.4383 38.3769 38.6157C38.3788 38.6931 38.3542 38.7685 38.3145 38.844Z" fill="white"/>
<path d="M47.8627 46.5786H44.1406V38.5158C44.1406 38.2364 44.3695 38.0081 44.6494 38.0081H45.4494V45.4122H47.8627C48.1426 45.4122 48.3714 45.5896 48.3714 45.869V46.1238C48.3714 46.4012 48.1426 46.5786 47.8627 46.5786Z" fill="white"/>
<path d="M53.8208 46.5786H52.0809C51.2052 46.5786 50.4922 45.8689 50.4922 44.9932V39.5915C50.4922 38.7176 51.2033 38.0061 52.0809 38.0061H53.8208C54.6984 38.0061 55.4095 38.7158 55.4095 39.5915V44.9932C55.4095 45.8689 54.6984 46.5786 53.8208 46.5786ZM54.1007 39.7463C54.1007 39.4292 53.8473 39.1744 53.5296 39.1744H52.374C52.0563 39.1744 51.8028 39.4273 51.8028 39.7463V44.8422C51.8028 45.1592 52.0563 45.414 52.374 45.414H53.5296C53.8473 45.414 54.1007 45.1611 54.1007 44.8422V39.7463Z" fill="white"/>
<path d="M63.4654 46.5786H63.1723C62.8924 46.5786 62.6635 46.3502 62.6635 46.0709V40.4031C62.6635 40.4031 62.5992 40.7201 62.3969 41.0882L61.5836 42.5849H61.2413C61.0389 42.5849 60.899 42.4339 60.8347 42.3188L60.1614 41.0882C59.9571 40.7201 59.8947 40.4031 59.8947 40.4031V46.0709C59.8947 46.3502 59.6659 46.5786 59.3859 46.5786H59.0947C58.8148 46.5786 58.5859 46.3502 58.5859 46.0709V38.527C58.5859 38.2345 58.7372 38.0061 59.0436 38.0061H59.4257C59.6299 38.0061 59.7812 38.1193 59.8834 38.31L61.281 40.8466L62.6787 38.31C62.7808 38.1193 62.934 38.0061 63.1364 38.0061H63.9742V46.069C63.9723 46.3502 63.7453 46.5786 63.4654 46.5786Z" fill="white"/>
<path d="M70.8459 46.5786H67.1484V38.0081H71.175V38.7177C71.175 38.997 70.9461 39.1745 70.6662 39.1745H68.4553V41.7111H70.3731C70.653 41.7111 70.8818 41.8885 70.8818 42.1678V42.4207C70.8818 42.7001 70.653 42.8775 70.3731 42.8775H68.4553V45.4141H70.844C71.1239 45.4141 71.3395 45.5915 71.3395 45.8709V46.1256C71.3414 46.4012 71.1258 46.5786 70.8459 46.5786Z" fill="white"/>
<path d="M77.6674 46.5786H73.9453V38.5158C73.9453 38.2364 74.1742 38.0081 74.4541 38.0081H75.2541V45.4122H77.6674C77.9473 45.4122 78.1761 45.5896 78.1761 45.869V46.1238C78.1761 46.4012 77.9473 46.5786 77.6674 46.5786Z" fill="white"/>
<path d="M84.0267 46.5786H80.3047V38.5158C80.3047 38.2364 80.5335 38.0081 80.8134 38.0081H81.6135V45.4122H84.0267C84.3066 45.4122 84.5355 45.5896 84.5355 45.869V46.1238C84.5355 46.4012 84.3066 46.5786 84.0267 46.5786Z" fill="white"/>
<path d="M87.5813 46.5786H87.29C87.0101 46.5786 86.7812 46.3502 86.7812 46.0709V38.5138C86.7812 38.2345 87.0101 38.0061 87.29 38.0061H87.5813C87.8612 38.0061 88.09 38.2345 88.09 38.5138V46.0709C88.09 46.3502 87.8612 46.5786 87.5813 46.5786Z" fill="white"/>
<path d="M95.8238 46.5787H95.5439C95.2261 46.5787 95.0351 46.2993 94.9727 46.1597L93.1438 42.2037C92.9793 41.8489 92.6994 40.9732 92.6994 40.9732V46.0691C92.6994 46.3484 92.4706 46.5768 92.1906 46.5768H91.8994C91.6195 46.5768 91.3906 46.3484 91.3906 46.0691V38.5252C91.3906 38.2327 91.5419 38.0043 91.8483 38.0043H92.2304C92.4081 38.0043 92.5727 38.0685 92.6748 38.295L94.6569 42.7454C94.899 43.2776 94.9614 43.6834 94.9614 43.6834V38.5101C94.9614 38.2176 95.1524 38.0024 95.3945 38.0024H96.2701V46.054C96.2682 46.3503 96.1283 46.5787 95.8238 46.5787Z" fill="white"/>
<path d="M103.864 46.5408L103.584 46.6031C103.317 46.6673 103.064 46.5144 103 46.2483L102.491 44.1816H100.547L100.038 46.2483C99.9754 46.5144 99.7201 46.6673 99.4534 46.6031L99.1735 46.5408C98.9825 46.5031 98.8047 46.2879 98.8047 46.0708C98.8047 46.0331 98.8047 45.9821 98.8179 45.9444L100.635 38.3741C100.698 38.108 100.915 38.0061 101.182 38.0061H102.313L104.219 45.9425C104.233 45.9803 104.233 46.018 104.233 46.0557C104.233 46.2879 104.068 46.4898 103.864 46.5408ZM101.857 41.4562C101.666 40.6692 101.539 39.1234 101.539 39.1234H101.502C101.502 39.1234 101.375 40.6692 101.184 41.4562L100.815 43.0152H102.226L101.857 41.4562Z" fill="white"/>
<path d="M24.2144 19.3288H33.198C34.624 19.3288 35.7796 20.6273 35.7796 22.2316V29.3999C35.7796 29.8547 36.1484 30.2228 36.6042 30.2228C37.06 30.2228 37.4288 29.8547 37.4288 29.3885V2.90302C37.4288 1.30064 38.5844 0.000244141 40.0104 0.000244141H48.8748C50.3009 0.000244141 51.4564 1.29876 51.4564 2.90302V30.57C51.4564 32.1724 50.3009 33.4709 48.8748 33.4709H24.2144C22.7884 33.4709 21.6328 32.1724 21.6328 30.57V22.2316C21.6328 20.6273 22.7884 19.3288 24.2144 19.3288Z" fill="white"/>
<path d="M82.2108 19.3288H73.2272C71.8012 19.3288 70.6456 20.6273 70.6456 22.2316V29.3999C70.6456 29.8547 70.2768 30.2228 69.821 30.2228C69.3652 30.2228 68.9964 29.8547 68.9964 29.3885V2.90302C68.9983 1.29876 67.8427 0.000244141 66.4167 0.000244141H57.5503C56.1243 0.000244141 54.9688 1.29876 54.9688 2.90302V30.57C54.9688 32.1724 56.1243 33.4709 57.5503 33.4709H82.2108C83.6368 33.4709 84.7924 32.1724 84.7924 30.57V22.2316C84.7943 20.6273 83.6368 19.3288 82.2108 19.3288Z" fill="white"/>
</g>
<defs>
<clipPath id="clip0_1685_7403">
<rect width="103.572" height="48.4451" fill="white" transform="translate(0.664062)"/>
</clipPath>
</defs>
</svg>
