<svg width="209" height="41" viewBox="0 0 209 41" fill="none" xmlns="http://www.w3.org/2000/svg">
<g clip-path="url(#clip0_1685_7424)">
<path fill-rule="evenodd" clip-rule="evenodd" d="M48.9551 27.2083C48.9551 27.2083 47.5085 24.5873 45.6186 24.5873C42.6373 24.5873 40.5944 27.6023 40.7163 31.1255C40.8329 34.5657 42.9458 38.5477 45.4968 38.5477C47.3348 38.5477 48.9525 36.4685 48.9525 36.4685V27.2083H48.9551ZM39.713 12.7891L40.7189 12.7554V17.1988C40.7189 17.1988 42.7773 14.3394 45.3982 14.3394C49.9247 14.3394 51.1016 19.8924 51.1016 24.3825V37.0803C51.1016 38.0655 53.3156 38.1536 53.3156 38.1536V39.2269H48.9577V38.2236C48.9577 38.2236 47.5111 39.9605 45.0586 39.9605C40.8874 39.9605 39.0156 36.0097 39.0156 31.364C39.0156 24.9451 44.4468 23.1044 45.9297 23.1044C46.9563 23.1044 47.7003 23.2315 48.7218 23.667C48.8229 19.7861 48.3147 15.9208 45.1986 15.9208C40.8589 15.9208 40.7215 24.2451 40.7215 24.2451H39.7156V12.7891H39.713Z" fill="white"/>
<path fill-rule="evenodd" clip-rule="evenodd" d="M58.5618 12.9938L59.2566 13.7456L58.3207 15.3762V16.9343C58.3207 16.9343 60.0266 14.2304 61.8828 14.2304C63.7364 14.2304 64.1771 15.0237 64.1771 15.0237V12.7527H65.3178L65.2815 23.3765H64.4674V21.1133C64.4674 21.1133 64.1382 15.7496 61.8102 15.7496C59.5962 15.7496 58.3881 19.6486 58.3881 19.6486C58.3881 19.6486 58.3881 29.7695 58.3881 36.3155C58.3881 36.9973 58.9611 38.0524 59.7051 38.0524C60.3532 38.0524 60.8717 38.0524 60.8717 38.0524V39.2268H54.6576V38.0524H56.4438V19.086C56.4438 19.086 55.075 20.8567 55.0646 20.8567C55.0594 20.8567 54.3828 20.0764 54.3828 20.0764L58.5618 12.9938Z" fill="white"/>
<path fill-rule="evenodd" clip-rule="evenodd" d="M65.8984 14.8785V16.0684C65.8984 16.0684 67.6432 16.491 68.1461 18.0516C68.649 19.6123 73.9376 39.683 73.9376 39.683H74.8372L80.3099 16.0347H81.7357V14.8733H76.3434V16.0347C76.3434 16.0347 78.8425 15.5733 78.0855 19.3375C77.9818 19.8482 74.7828 34.6044 74.7828 34.6044L70.0515 16.0347H71.2674V14.8733L65.8984 14.8785Z" fill="white"/>
<path fill-rule="evenodd" clip-rule="evenodd" d="M85.0515 12.8616L85.7488 13.6134L84.813 15.244V16.8047L84.883 19.519C84.883 19.519 84.883 29.6399 84.883 36.1858C84.883 36.8677 85.4585 37.9228 86.2025 37.9228C86.848 37.9228 87.3691 37.9228 87.3691 37.9228V39.0972H81.155V37.9228H82.9438V18.9538C82.9438 18.9538 81.575 20.7245 81.562 20.7245C81.5594 20.7245 80.8828 19.9441 80.8828 19.9441L85.0515 12.8616Z" fill="white"/>
<path d="M81.9453 6.68903C81.9453 5.36429 82.6867 4.29102 83.6019 4.29102C84.517 4.29102 85.2585 5.36429 85.2585 6.68903C85.2585 8.01377 84.517 9.08446 83.6019 9.08446C82.6867 9.08446 81.9453 8.01118 81.9453 6.68903Z" fill="white"/>
<path fill-rule="evenodd" clip-rule="evenodd" d="M101.312 33.6842C101.312 33.6842 98.5921 37.5807 95.7353 37.5807C92.1732 37.5807 87.9086 34.2572 87.9086 27.0035C87.9086 19.5813 91.5018 16.0374 95.2323 16.0374C97.3737 16.0374 98.6751 17.497 99.261 18.3706V26.1972H100.036V12.7554H99.261V15.0264C98.6155 14.7179 97.06 14.036 95.9038 14.036C90.0293 14.036 86.1328 20.9916 86.1328 26.9361C86.1328 33.0854 89.3863 39.665 95.4319 39.665C98.3225 39.665 100.842 36.6422 102.017 34.5942L101.312 33.6842Z" fill="white"/>
<path d="M110.722 15.664C106.999 15.664 103.194 20.123 103.194 26.7778C103.194 33.43 106.999 37.8916 110.722 37.8916C114.44 37.8916 118.25 33.43 118.25 26.7778C118.25 20.123 114.442 15.664 110.722 15.664ZM101.641 26.7778C101.641 19.7834 105.708 14.1111 110.722 14.1111C115.736 14.1111 119.803 19.7834 119.803 26.7778C119.803 33.7722 115.736 39.4445 110.722 39.4445C105.708 39.4445 101.641 33.7722 101.641 26.7778Z" fill="white"/>
<path d="M36.6081 10.0928C36.0067 7.24625 34.2101 2.42689 28.9189 2.42689C21.5201 2.42689 16.9003 10.7746 16.9003 20.6596C16.9003 29.6735 22.5285 38.8897 28.8593 38.8897C34.9775 38.8897 37.8396 33.8526 37.8396 33.8526L38.6847 34.9284C37.2666 36.5824 34.4797 40.033 29.86 40.287C18.9173 40.8937 15.0156 30.0106 15.0156 20.7166C15.0156 8.58136 21.463 0.889564 29.7511 0.889564C32.8802 0.889564 35.8667 2.93241 36.6081 3.47683V0.132568H37.4999V14.8732H36.6081V10.0928Z" fill="white"/>
<path fill-rule="evenodd" clip-rule="evenodd" d="M0.90625 20.1255C0.90625 20.1255 4.4242 20.1255 6.56557 20.1255C8.70693 20.1255 8.751 17.7275 8.751 17.7275L9.13469 14.6866C9.60911 11.5315 12.3208 9.11279 15.608 9.11279C18.8953 9.11279 21.524 11.5315 21.9984 14.6866L22.3821 17.7275C22.3821 17.7275 22.4262 20.1255 24.565 20.1255C26.7063 20.1255 30.2243 20.1255 30.2243 20.1255V24.7919C30.2243 24.7919 26.7063 24.7919 24.565 24.7919C22.4236 24.7919 22.3821 22.3913 22.3821 22.3913L21.9984 19.3504C21.524 16.1954 18.8953 13.7766 15.608 13.7766C12.3208 13.7766 9.60911 16.1954 9.13469 19.3504L8.751 22.3913C8.751 22.3913 8.70952 24.7919 6.56557 24.7919C4.4242 24.7919 0.90625 24.7919 0.90625 24.7919V20.1255H0.90625Z" fill="white"/>
<path fill-rule="evenodd" clip-rule="evenodd" d="M0.90625 27.0474C0.90625 27.0474 4.4242 27.0474 6.56557 27.0474C8.70693 27.0474 8.751 24.6468 8.751 24.6468L9.13469 21.6058C9.60911 18.4508 12.3208 16.0347 15.608 16.0347C18.8953 16.0347 21.524 18.4534 21.9984 21.6058L22.3821 24.6468C22.3821 24.6468 22.4262 27.0474 24.565 27.0474C26.7063 27.0474 30.2243 27.0474 30.2243 27.0474V31.7138C30.2243 31.7138 26.7063 31.7138 24.565 31.7138C22.4236 31.7138 22.3821 29.3132 22.3821 29.3132L21.9984 26.2723C21.524 23.1172 18.8953 20.6985 15.608 20.6985C12.3208 20.6985 9.60911 23.1172 9.13469 26.2723L8.751 29.3132C8.751 29.3132 8.70952 31.7138 6.56557 31.7138C4.4242 31.7138 0.90625 31.7138 0.90625 31.7138V27.0474H0.90625Z" fill="white"/>
<path d="M125.648 28.04H132.469V29.1781H126.714V32.9527H131.863V34.0908H126.714V37.9588H132.537V39.0968H125.648V28.04Z" fill="white"/>
<path d="M135.876 29.1937H132.695V28.04H140.12V29.1937H136.939V39.0942H135.874V29.1937H135.876Z" fill="white"/>
<path d="M140.867 28.04H141.933V32.9501H147.377V28.04H148.442V39.0942H147.377V34.1193H141.933V39.0942H140.867V28.04Z" fill="white"/>
<path d="M150 28.04H151.065V39.0942H150V28.04Z" fill="white"/>
<path d="M152.211 33.601V33.5699C152.211 30.5211 154.166 27.8535 157.035 27.8535C159.905 27.8535 161.834 30.49 161.834 33.5388V33.5699C161.834 36.6186 159.879 39.2862 157.01 39.2862C154.14 39.2862 152.211 36.6471 152.211 33.601ZM160.73 33.601V33.5699C160.73 31.0578 159.166 29.0072 157.01 29.0072C154.853 29.0072 153.318 31.0293 153.318 33.5388V33.5699C153.318 36.0794 154.881 38.1326 157.038 38.1326C159.192 38.1326 160.73 36.1105 160.73 33.601Z" fill="white"/>
<path d="M162.893 28.04H166.424C168.553 28.04 169.955 29.3674 169.955 31.545V31.5761C169.955 33.9612 168.257 35.1926 166.248 35.1926H163.956V39.0942H162.891V28.04H162.893ZM166.289 34.0571C167.853 34.0571 168.877 33.0772 168.877 31.6254V31.5943C168.877 30.0155 167.866 29.1937 166.344 29.1937H163.959V34.0571H166.289Z" fill="white"/>
<path d="M170.781 28.04H171.847V39.0942H170.781V28.04Z" fill="white"/>
<path d="M176.91 27.9624H177.908L182.207 39.0944H181.061L179.956 36.1727H174.821L173.701 39.0944H172.609L176.91 27.9624ZM179.539 35.0528L177.395 29.4142L175.238 35.0528H179.539Z" fill="white"/>
<path d="M185.706 28.04H189.237C191.365 28.04 192.768 29.3674 192.768 31.545V31.5761C192.768 33.9612 191.07 35.1926 189.06 35.1926H186.769V39.0942H185.703V28.04H185.706ZM189.102 34.0571C190.665 34.0571 191.689 33.0772 191.689 31.6254V31.5943C191.689 30.0155 190.678 29.1937 189.156 29.1937H186.771V34.0571H189.102Z" fill="white"/>
<path d="M193.508 28.04H194.573V37.9406H199.883V39.0942H193.508V28.04Z" fill="white"/>
<path d="M199.547 33.601V33.5699C199.547 30.4434 201.54 27.8535 204.317 27.8535C206.028 27.8535 207.052 28.5638 207.996 29.606L207.267 30.5211C206.471 29.6371 205.582 29.0046 204.301 29.0046C202.212 29.0046 200.649 30.9956 200.649 33.5362V33.5673C200.649 36.126 202.225 38.13 204.301 38.13C205.595 38.13 206.445 37.5467 207.348 36.5356L208.048 37.3419C207.065 38.5111 205.987 39.2836 204.273 39.2836C201.553 39.2862 199.547 36.7741 199.547 33.601Z" fill="white"/>
</g>
<defs>
<clipPath id="clip0_1685_7424">
<rect width="207.145" height="40.1804" fill="white" transform="translate(0.898438 0.132324)"/>
</clipPath>
</defs>
</svg>
