<svg width="174" height="36" viewBox="0 0 174 36" fill="none" xmlns="http://www.w3.org/2000/svg">
<g clip-path="url(#clip0_1685_7351)">
<path d="M173.858 2.84557C173.784 3.04219 173.723 3.24559 173.635 3.43544C173.208 4.33042 172.231 4.78469 171.282 4.5406C170.333 4.29652 169.662 3.38798 169.723 2.44554C169.79 1.45564 170.529 0.628458 171.465 0.506415C172.489 0.370812 173.391 0.906444 173.723 1.85566C173.77 1.98449 173.811 2.11331 173.858 2.24213C173.858 2.43876 173.858 2.64216 173.858 2.84557ZM170.068 2.54724C170.075 3.5507 170.821 4.31686 171.791 4.31686C172.767 4.31686 173.492 3.5507 173.492 2.54046C173.492 1.53022 172.747 0.764061 171.777 0.770841C170.807 0.777621 170.062 1.54378 170.068 2.54724Z" fill="white"/>
<path d="M0.882812 35.9868C0.882812 24.1351 0.882812 12.3106 0.882812 0.445312C56.3783 0.445312 111.867 0.445312 167.376 0.445312C167.376 12.297 167.376 24.1351 167.376 35.9936C164.928 35.9936 162.501 35.9936 160.047 35.9936C160.047 34.5223 160.047 33.0578 160.047 31.5594C160.989 31.5594 161.932 31.5594 162.888 31.5594C162.888 22.6571 162.888 13.7886 162.888 4.89309C110.369 4.89309 57.8632 4.89309 5.33737 4.89309C5.33737 13.7751 5.33737 22.6299 5.33737 31.5323C25.7049 31.5323 46.0657 31.5323 66.4604 31.5323C66.4604 33.0375 66.4604 34.502 66.4604 35.9868C44.6012 35.9868 22.7488 35.9868 0.882812 35.9868Z" fill="white"/>
<path d="M156.572 36.0003C151.276 36.0003 146.015 36.0003 140.727 36.0003C140.727 34.5358 140.727 33.0713 140.727 31.5661C144.496 31.5661 148.28 31.5661 152.09 31.5661C152.09 30.0744 152.09 28.6235 152.09 27.1251C148.314 27.1251 144.53 27.1251 140.727 27.1251C140.727 21.8027 140.727 16.5277 140.727 11.2324C142.191 11.2324 143.649 11.2324 145.14 11.2324C145.14 15.0225 145.14 18.7991 145.14 22.6095C147.473 22.6095 149.771 22.6095 152.11 22.6095C152.11 18.8262 152.11 15.0496 152.11 11.2392C153.622 11.2392 155.087 11.2392 156.579 11.2392C156.572 19.4839 156.572 27.7217 156.572 36.0003Z" fill="white"/>
<path d="M83.2812 35.9869C83.2812 34.502 83.2812 33.0511 83.2812 31.573C100.672 31.573 118.043 31.573 135.441 31.573C135.441 33.0375 135.441 34.502 135.441 35.9869C118.057 35.9869 100.686 35.9869 83.2812 35.9869Z" fill="white"/>
<path d="M122.773 16.9279C122.773 20.3586 122.773 23.7148 122.773 27.0913C117.484 27.0913 112.216 27.0913 106.914 27.0913C106.914 25.62 106.914 24.1555 106.914 22.6571C110.501 22.6571 114.081 22.6571 117.694 22.6571C117.694 22.2367 117.694 21.8435 117.694 21.4095C114.115 21.4095 110.535 21.4095 106.914 21.4095C106.914 18.0059 106.914 14.6429 106.914 11.2461C112.189 11.2461 117.471 11.2461 122.766 11.2461C122.766 12.7106 122.766 14.1683 122.766 15.66C119.166 15.66 115.572 15.66 111.945 15.66C111.945 16.0939 111.945 16.4871 111.945 16.9279C115.559 16.9279 119.152 16.9279 122.773 16.9279Z" fill="white"/>
<path d="M16.1614 15.6666C16.1614 16.1141 16.1614 16.487 16.1614 16.921C19.965 16.921 23.7551 16.921 27.5656 16.921C27.5656 18.4262 27.5656 19.8703 27.5656 21.362C23.7822 21.362 19.9989 21.362 16.1817 21.362C16.1817 21.8027 16.1817 22.1959 16.1817 22.6231C19.965 22.6231 23.7483 22.6231 27.552 22.6231C27.552 24.1215 27.552 25.586 27.552 27.0776C22.2567 27.0776 16.9818 27.0776 11.6797 27.0776C11.6797 21.7891 11.6797 16.5209 11.6797 11.2324C16.9682 11.2324 22.2432 11.2324 27.5384 11.2324C27.5384 12.6969 27.5384 14.1614 27.5384 15.6666C23.7551 15.6666 19.9718 15.6666 16.1614 15.6666Z" fill="white"/>
<path d="M123.805 11.2324C129.1 11.2324 134.375 11.2324 139.67 11.2324C139.67 12.7037 139.67 14.1614 139.67 15.6599C135.867 15.6599 132.076 15.6599 128.259 15.6599C128.259 16.0938 128.259 16.4735 128.259 16.9142C132.063 16.9142 135.853 16.9142 139.67 16.9142C139.67 18.4194 139.67 19.8771 139.67 21.3823C135.873 21.3823 132.076 21.3823 128.259 21.3823C128.259 21.8162 128.259 22.2027 128.259 22.6298C132.063 22.6298 135.86 22.6298 139.67 22.6298C139.67 24.1283 139.67 25.586 139.67 27.0708C134.388 27.0708 129.114 27.0708 123.805 27.0708C123.805 21.8095 123.805 16.5413 123.805 11.2324Z" fill="white"/>
<path d="M83.5181 15.6666C83.5181 16.1141 83.5181 16.5005 83.5181 16.9209C87.3217 16.9209 91.1051 16.9209 94.9155 16.9209C94.9155 18.4125 94.9155 19.8635 94.9155 21.3687C91.1322 21.3687 87.3353 21.3687 83.5249 21.3687C83.5249 21.8026 83.5249 22.1891 83.5249 22.6162C87.315 22.6162 91.1051 22.6162 94.9223 22.6162C94.9223 24.1214 94.9223 25.5927 94.9223 27.0776C89.6338 27.0776 84.3656 27.0776 79.0703 27.0776C79.0703 21.8026 79.0703 16.5277 79.0703 11.2256C84.352 11.2256 89.6202 11.2256 94.9155 11.2256C94.9155 12.6969 94.9155 14.1614 94.9155 15.6598C91.1119 15.6666 87.3285 15.6666 83.5181 15.6666Z" fill="white"/>
<path d="M56.6875 27.0776C56.6875 21.7891 56.6875 16.5209 56.6875 11.2324C61.976 11.2324 67.2442 11.2324 72.5327 11.2324C72.5327 16.5142 72.5327 21.7823 72.5327 27.0776C67.2577 27.0776 61.9964 27.0776 56.6875 27.0776ZM68.0714 22.6231C68.0714 20.2975 68.0714 17.999 68.0714 15.7005C65.7526 15.7005 63.4541 15.7005 61.1556 15.7005C61.1556 18.0193 61.1556 20.3178 61.1556 22.6231C63.4676 22.6231 65.7526 22.6231 68.0714 22.6231Z" fill="white"/>
<path d="M33.1571 22.6231C35.5166 22.6231 37.8015 22.6231 40.1271 22.6231C40.1271 18.8262 40.1271 15.0497 40.1271 11.2393C41.6323 11.2393 43.09 11.2393 44.5816 11.2393C44.5816 16.5142 44.5816 21.7824 44.5816 27.0777C39.3135 27.0777 34.0453 27.0777 28.75 27.0777C28.75 21.8095 28.75 16.5346 28.75 11.2393C30.2145 11.2393 31.6655 11.2393 33.1639 11.2393C33.1571 15.0294 33.1571 18.8059 33.1571 22.6231Z" fill="white"/>
<path d="M78.0249 11.2393C78.0249 19.4907 78.0249 27.7218 78.0249 35.98C75.9162 35.98 73.8076 35.98 71.6719 35.98C71.6719 34.5223 71.6719 33.0578 71.6719 31.5526C72.2956 31.5526 72.9059 31.5526 73.5635 31.5526C73.5635 24.7589 73.5635 18.0058 73.5635 11.2393C75.0755 11.2393 76.54 11.2393 78.0249 11.2393Z" fill="white"/>
<path d="M55.6344 11.2461C55.6344 12.7038 55.6344 14.1616 55.6344 15.66C53.8309 15.66 52.0409 15.66 50.2035 15.66C50.2035 19.484 50.2035 23.2673 50.2035 27.0777C48.6983 27.0777 47.2338 27.0777 45.7422 27.0777C45.7422 21.8096 45.7422 16.5414 45.7422 11.2461C49.0306 11.2461 52.3189 11.2461 55.6344 11.2461Z" fill="white"/>
<path d="M105.849 15.6734C104.039 15.6734 102.242 15.6734 100.412 15.6734C100.412 19.4906 100.412 23.274 100.412 27.0776C98.9202 27.0776 97.4692 27.0776 95.9844 27.0776C95.9844 21.8094 95.9844 16.5345 95.9844 11.2324C99.266 11.2324 102.548 11.2324 105.849 11.2324C105.849 12.7105 105.849 14.1682 105.849 15.6734Z" fill="white"/>
<path d="M73.5938 9.93061C73.5938 9.08309 73.5938 8.24913 73.5938 7.40161C75.0786 7.40161 76.5296 7.40161 78.0212 7.40161C78.0212 8.24235 78.0212 9.07631 78.0212 9.93061C76.5431 9.93061 75.0786 9.93061 73.5938 9.93061Z" fill="white"/>
<path d="M171.024 1.39437C171.451 1.39437 171.817 1.38759 172.184 1.39437C172.604 1.40793 172.807 1.57065 172.848 1.91644C172.896 2.28257 172.733 2.49275 172.319 2.6148C172.285 2.62836 172.251 2.64192 172.17 2.66904C172.38 2.99449 172.577 3.30637 172.78 3.61826C172.76 3.65216 172.733 3.68606 172.712 3.71996C172.59 3.6386 172.434 3.58436 172.346 3.47588C172.211 3.31315 172.095 3.13009 172.007 2.93346C171.878 2.66904 171.702 2.547 171.309 2.6826C171.309 2.89278 171.323 3.15721 171.302 3.42163C171.295 3.50978 171.221 3.59114 171.18 3.67928C171.133 3.59792 171.045 3.51656 171.045 3.42841C171.017 2.76396 171.024 2.09951 171.024 1.39437ZM171.316 2.38427C171.614 2.38427 171.878 2.39783 172.143 2.37749C172.367 2.36393 172.556 2.23511 172.502 1.9978C172.468 1.85542 172.306 1.66558 172.17 1.63846C171.899 1.58421 171.607 1.6249 171.316 1.6249C171.316 1.88932 171.316 2.11307 171.316 2.38427Z" fill="white"/>
</g>
<defs>
<clipPath id="clip0_1685_7351">
<rect width="172.975" height="35.5551" fill="white" transform="translate(0.867188 0.445068)"/>
</clipPath>
</defs>
</svg>
