<svg width="141" height="38" viewBox="0 0 141 38" fill="none" xmlns="http://www.w3.org/2000/svg">
<path d="M23.3438 22.4038C23.4934 22.4038 23.6566 22.4718 23.7517 22.6213L29.5981 30.9286C29.7613 31.1598 29.7069 31.4589 29.4757 31.622C29.2446 31.7852 28.9455 31.7308 28.7823 31.4997L22.9359 23.1924C22.7864 22.9748 22.8408 22.6621 23.0583 22.499C23.1535 22.431 23.2487 22.4038 23.3438 22.4038Z" fill="white"/>
<path d="M6.36912 0.962891C6.51868 0.962891 6.68183 1.03087 6.77701 1.18043L17.2325 16.0547C17.3549 16.2314 17.3549 16.449 17.2325 16.6257L6.77701 31.5C6.62745 31.7175 6.31474 31.7855 6.0836 31.6224C5.86606 31.4592 5.81168 31.1601 5.96124 30.929L16.2264 16.3402L5.96124 1.75147C5.79808 1.53393 5.85247 1.22122 6.0836 1.05807C6.17877 0.990084 6.27395 0.962891 6.36912 0.962891Z" fill="white"/>
<path d="M29.194 0.962891C29.2891 0.962891 29.3843 0.990084 29.4795 1.05807C29.697 1.22122 29.7514 1.52034 29.6018 1.75147L23.7555 10.0588C23.5923 10.2763 23.2932 10.3443 23.0621 10.1811C22.8309 10.018 22.7901 9.71886 22.9397 9.48772L28.7861 1.18043C28.8948 1.04447 29.0444 0.962891 29.194 0.962891Z" fill="white"/>
<path d="M22.0038 24.3213C22.1534 24.3213 22.3165 24.3893 22.4117 24.5388L26.9121 30.9291C27.0616 31.1602 27.0208 31.4593 26.7897 31.6225C26.5586 31.7856 26.2594 31.7176 26.0963 31.5001L21.5959 25.1099C21.4464 24.8923 21.4872 24.5796 21.7183 24.4165C21.8135 24.3485 21.9087 24.3213 22.0038 24.3213Z" fill="white"/>
<path d="M3.67381 0.962891C3.82337 0.962891 3.98652 1.03087 4.0817 1.18043L14.5508 16.0547C14.6732 16.2314 14.6732 16.449 14.5508 16.6257L4.0817 31.5C3.93214 31.7175 3.61942 31.7855 3.38829 31.6224C3.17075 31.4592 3.11636 31.1601 3.26592 30.929L13.5311 16.3402L3.26592 1.75147C3.10277 1.53393 3.15715 1.22122 3.38829 1.05807C3.46987 0.990084 3.57864 0.962891 3.67381 0.962891Z" fill="white"/>
<path d="M26.5042 0.962891C26.5994 0.962891 26.6945 0.990084 26.7897 1.05807C27.0072 1.22122 27.0616 1.52034 26.9121 1.75147L22.4117 8.1417C22.2622 8.35924 21.9494 8.42722 21.7183 8.26406C21.4872 8.10091 21.4464 7.80179 21.5959 7.57065L26.0963 1.18043C26.1915 1.04447 26.341 0.962891 26.5042 0.962891Z" fill="white"/>
<path d="M20.664 26.238C20.8135 26.238 20.9767 26.306 21.0719 26.4556L24.2126 30.9287C24.3757 31.1463 24.3214 31.459 24.0902 31.6221C23.8591 31.7853 23.56 31.7309 23.3968 31.4998L20.2425 27.0266C20.0793 26.8091 20.1337 26.4964 20.3649 26.3332C20.46 26.2652 20.5688 26.238 20.664 26.238Z" fill="white"/>
<path d="M0.970684 0.962891C1.12024 0.962891 1.2834 1.03087 1.37857 1.18043L11.8477 16.0547C11.97 16.2314 11.97 16.449 11.8477 16.6257L1.37857 31.5C1.22901 31.7175 0.9163 31.7855 0.685164 31.6224C0.467624 31.4592 0.413239 31.1601 0.562798 30.929L10.8279 16.3402L0.562798 1.75147C0.399643 1.53393 0.454028 1.22122 0.685164 1.05807C0.780337 0.990084 0.875511 0.962891 0.970684 0.962891Z" fill="white"/>
<path d="M23.8107 0.962891C23.9058 0.962891 24.0146 0.990084 24.0962 1.05807C24.3137 1.22122 24.3681 1.52034 24.2185 1.75147L21.0642 6.22463C20.9147 6.44217 20.602 6.51015 20.3708 6.34699C20.1533 6.18384 20.0989 5.88472 20.2484 5.65359L23.4028 1.18043C23.4979 1.04447 23.6475 0.962891 23.8107 0.962891Z" fill="white"/>
<path d="M136.486 12.3973V11.432H137.207C137.601 11.432 137.818 11.6087 137.818 11.9079C137.818 12.1934 137.601 12.3837 137.207 12.3837H136.486V12.3973ZM135.344 14.5047H136.486V13.2947H136.976L137.791 14.5047H139.11L138.145 13.1043C138.648 12.9004 138.974 12.4653 138.974 11.8399C138.974 10.9017 138.281 10.4802 137.288 10.4802H135.358V14.5047H135.344ZM137.016 15.9731C135.086 15.9731 133.644 14.4367 133.644 12.5741V12.5605C133.644 10.6978 135.113 9.14782 137.016 9.14782C138.947 9.14782 140.388 10.6842 140.388 12.5333V12.5605C140.375 14.4096 138.92 15.9731 137.016 15.9731ZM137.016 16.381C139.137 16.381 140.823 14.6271 140.823 12.5469V12.5333C140.823 10.4531 139.165 8.72634 137.016 8.72634C134.895 8.72634 133.209 10.4802 133.209 12.5605V12.5741C133.209 14.6543 134.868 16.381 137.016 16.381ZM120.035 24.2668H131.7V21.2621H123.379V18.0533H130.599V15.0486H123.379V11.935H131.591V8.93028H120.035V24.2668ZM111.782 24.5251C114.732 24.5251 116.486 23.4782 118.063 21.7923L115.915 19.6305C114.719 20.7318 113.644 21.4252 111.89 21.4252C109.266 21.4252 107.445 19.2362 107.445 16.6121V16.5714C107.445 13.9473 109.307 11.7991 111.89 11.7991C113.427 11.7991 114.623 12.4517 115.806 13.5258L117.954 11.0513C116.527 9.65088 114.8 8.68555 111.918 8.68555C107.213 8.68555 103.923 12.2478 103.923 16.6121V16.6529C103.923 21.0445 107.281 24.5251 111.782 24.5251ZM87.8252 24.2668H91.1562V14.5319L98.5798 24.2668H101.449V8.94388H98.1175V18.3797L90.9387 8.94388H87.8252V24.2668ZM75.9285 17.8494L77.9679 12.8868L80.0073 17.8494H75.9285ZM69.8918 24.2668H73.3316L74.732 20.827H81.2038L82.6042 24.2668H86.1256L79.5587 8.83511H76.4587L69.8918 24.2668ZM57.7503 24.2668H68.7633V21.2077H61.1222V8.95747H57.7503V24.2668ZM51.9312 8.94388L48.6681 13.9065L45.4729 8.94388H41.53L46.6558 16.4762L41.3125 24.2668H45.1466L48.6001 19.0187L52.0399 24.2668H55.9828L50.6395 16.4354L55.7653 8.95747H51.9312V8.94388Z" fill="white"/>
<path d="M116.515 37.3871H117.534V34.899C117.534 34.2192 117.942 33.7977 118.527 33.7977C119.125 33.7977 119.479 34.192 119.479 34.8718V37.3871H120.485V34.5591C120.485 33.5394 119.914 32.8732 118.908 32.8732C118.214 32.8732 117.806 33.2267 117.521 33.6481V32.9683H116.501V37.3871H116.515ZM113.238 36.5985C112.45 36.5985 111.892 35.9459 111.892 35.1845V35.1709C111.892 34.3959 112.409 33.7569 113.224 33.7569C114.027 33.7569 114.584 34.3959 114.584 35.1845V35.1981C114.584 35.9595 114.067 36.5985 113.238 36.5985ZM113.224 37.4823C114.584 37.4823 115.59 36.4354 115.59 35.1845V35.1709C115.59 33.9065 114.598 32.8732 113.238 32.8732C111.878 32.8732 110.872 33.9201 110.872 35.1845V35.1981C110.872 36.449 111.878 37.4823 113.224 37.4823ZM108.928 37.3871H109.948V32.9683H108.928V37.3871ZM108.887 32.2885H109.975V31.3232H108.887V32.2885ZM107.065 37.4551C107.446 37.4551 107.732 37.3735 107.976 37.2239V36.3946C107.772 36.4897 107.568 36.5441 107.351 36.5441C107.011 36.5441 106.807 36.381 106.807 35.9867V33.8113H107.99V32.9411H106.807V31.7311H105.801V32.9411H105.244V33.8113H105.801V36.1362C105.801 37.1288 106.318 37.4551 107.065 37.4551ZM102.402 36.7345C101.912 36.7345 101.545 36.4898 101.545 36.0683V36.0547C101.545 35.5924 101.926 35.3205 102.579 35.3205C102.987 35.3205 103.326 35.4021 103.585 35.4972V35.7963C103.585 36.3538 103.068 36.7345 102.402 36.7345ZM102.116 37.4687C102.796 37.4687 103.258 37.1832 103.558 36.8297V37.3871H104.55V34.763C104.55 34.192 104.401 33.7161 104.074 33.4034C103.762 33.0907 103.272 32.9139 102.606 32.9139C101.899 32.9139 101.423 33.0635 100.934 33.2674L101.205 34.056C101.613 33.8929 101.98 33.7841 102.47 33.7841C103.177 33.7841 103.571 34.124 103.571 34.7494V34.8582C103.231 34.7494 102.878 34.6815 102.388 34.6815C101.314 34.6815 100.553 35.1437 100.553 36.1091V36.1226C100.539 36.9928 101.287 37.4687 102.116 37.4687ZM97.4801 37.4143H98.391L100.199 32.9547H99.1388L97.9423 36.2042L96.7595 32.9547H95.6718L97.4801 37.4143ZM93.0341 36.5985C92.2455 36.5985 91.6881 35.9459 91.6881 35.1845V35.1709C91.6881 34.3959 92.2047 33.7569 93.0205 33.7569C93.8227 33.7569 94.3801 34.3959 94.3801 35.1845V35.1981C94.3801 35.9595 93.8635 36.5985 93.0341 36.5985ZM93.0205 37.4823C94.3801 37.4823 95.3862 36.4354 95.3862 35.1845V35.1709C95.3862 33.9065 94.3937 32.8732 93.0341 32.8732C91.6745 32.8732 90.6684 33.9201 90.6684 35.1845V35.1981C90.682 36.449 91.6745 37.4823 93.0205 37.4823ZM85.8281 37.3871H86.8478V34.899C86.8478 34.2192 87.2557 33.7977 87.8403 33.7977C88.4386 33.7977 88.7921 34.192 88.7921 34.8718V37.3871H89.7982V34.5591C89.7982 33.5394 89.2272 32.8732 88.221 32.8732C87.5412 32.8732 87.1198 33.2267 86.8342 33.6481V32.9683H85.8145V37.3871H85.8281ZM80.7159 37.3871H81.7356V34.899C81.7356 34.2192 82.1435 33.7977 82.7282 33.7977C83.3264 33.7977 83.6799 34.192 83.6799 34.8718V37.3871H84.6996V34.5591C84.6996 33.5394 84.115 32.8732 83.1225 32.8732C82.4426 32.8732 82.0212 33.2267 81.7356 33.6481V32.9683H80.7159V37.3871ZM78.4997 37.3871H79.5195V32.9683H78.4997V37.3871ZM78.459 32.2885H79.5467V31.3232H78.459V32.2885ZM72.0551 34.8582C72.1503 34.1648 72.5854 33.6889 73.1972 33.6889C73.8634 33.6889 74.2577 34.2056 74.3257 34.8582H72.0551ZM73.3196 37.4823C74.1354 37.4823 74.7064 37.156 75.1279 36.6529L74.5296 36.1226C74.1761 36.4626 73.8226 36.6529 73.3332 36.6529C72.6806 36.6529 72.1639 36.245 72.0551 35.5244H75.3046C75.3182 35.4292 75.3182 35.3341 75.3182 35.2389C75.3182 33.9609 74.6112 32.8596 73.1972 32.8596C71.9328 32.8596 71.0354 33.8929 71.0354 35.1573V35.1709C71.0626 36.5577 72.0415 37.4823 73.3196 37.4823ZM69.0776 37.3871H70.0973V31.2688H69.0776V37.3871ZM65.8009 36.5985C65.1075 36.5985 64.5092 36.0275 64.5092 35.1845V35.1709C64.5092 34.328 65.1075 33.7569 65.8009 33.7569C66.4807 33.7569 67.0653 34.3144 67.0653 35.1709V35.1845C67.0653 36.0547 66.4943 36.5985 65.8009 36.5985ZM66.0456 37.4687C67.0925 37.4687 68.0986 36.6393 68.0986 35.1709V35.1573C68.0986 33.6889 67.0789 32.8596 66.0456 32.8596C65.325 32.8596 64.8627 33.2267 64.5364 33.6889V31.2688H63.5167V37.3735H64.5364V36.6937C64.8491 37.1016 65.3114 37.4687 66.0456 37.4687ZM61.3005 37.3871H62.3202V32.9683H61.3005V37.3871ZM61.2733 32.2885H62.361V31.3232H61.2733V32.2885ZM58.7172 37.4687C59.6418 37.4687 60.3624 37.0064 60.3624 36.0819V36.0547C60.3624 35.2661 59.6418 34.967 58.9892 34.763C58.4725 34.5999 57.9966 34.4639 57.9966 34.1376V34.124C57.9966 33.8793 58.2278 33.6889 58.6085 33.6889C58.9756 33.6889 59.4242 33.8521 59.8593 34.1104L60.2536 33.3898C59.7913 33.0771 59.1795 32.8868 58.6357 32.8868C57.7519 32.8868 57.0585 33.4034 57.0585 34.2464V34.26C57.0585 35.1029 57.7791 35.3613 58.4317 35.5516C58.9484 35.7148 59.4242 35.8235 59.4242 36.177V36.1906C59.4242 36.4898 59.1795 36.6665 58.7444 36.6665C58.2958 36.6665 57.7791 36.4762 57.2896 36.1226L56.841 36.8025C57.3848 37.2511 58.0782 37.4687 58.7172 37.4687ZM54.9919 37.3871H56.0116V32.9683H54.9919V37.3871ZM54.9511 32.2885H56.0388V31.3232H54.9511V32.2885ZM51.5248 37.4143H52.4358L54.2441 32.9547H53.1836L51.9871 36.2042L50.8042 32.9547H49.7165L51.5248 37.4143ZM45.2434 37.3871H46.2631V34.899C46.2631 34.2192 46.671 33.7977 47.2556 33.7977C47.8539 33.7977 48.2074 34.192 48.2074 34.8718V37.3871H49.2135V34.5591C49.2135 33.5394 48.6424 32.8732 47.6363 32.8732C46.9429 32.8732 46.535 33.2267 46.2495 33.6481V32.9683H45.2298V37.3871H45.2434ZM43.0272 37.3871H44.0469V32.9683H43.0272V37.3871ZM43 32.2885H44.0877V31.3232H43V32.2885Z" fill="white"/>
</svg>
