<svg width="105" height="41" viewBox="0 0 105 41" fill="none" xmlns="http://www.w3.org/2000/svg">
<g clip-path="url(#clip0_1685_7382)">
<path d="M104.627 17.7291H100.4C98.2788 4.8494 79.3101 0.397461 52.0639 0.397461C24.8177 0.397461 6.69252 4.8494 4.67119 17.7291H0.453125V22.7156H4.67119C6.69252 35.5953 24.8177 40.0473 52.0639 40.0473C79.3101 40.0473 98.2872 35.5953 100.409 22.7156H104.635V17.7291H104.627Z" fill="#033956"/>
<path d="M103.621 18.6898H99.3774C98.1329 7.16324 82.6304 1.55029 52.0683 1.55029C36.7162 1.55029 25.5154 2.95353 17.831 5.84353C10.2719 8.67506 6.29601 12.8931 5.71968 18.6898H1.47656V21.7552H5.71968C6.30437 27.5603 10.2802 31.77 17.831 34.6099C25.5237 37.4915 36.7245 38.8948 52.0683 38.8948C82.6304 38.8948 98.1412 33.2818 99.3774 21.7552H103.621V18.6898Z" fill="white"/>
<path d="M97.4306 18.69C96.8292 14.0042 93.4046 10.4877 87.0065 7.96526C86.4636 7.74809 85.8956 7.53928 85.3026 7.34717H19.317C19.0414 7.4474 18.7658 7.54763 18.4985 7.64786C11.7162 10.1954 8.22477 13.7286 7.64844 18.69H97.4306Z" fill="#033956"/>
<path d="M7.64844 21.7551C8.22477 26.7249 11.7162 30.2581 18.4985 32.8056C18.7658 32.9059 19.0414 33.0061 19.317 33.1063H85.3026C85.8873 32.9059 86.4552 32.697 87.0065 32.4882C93.4046 29.9657 96.8292 26.4493 97.4306 21.7635H7.64844V21.7551Z" fill="#033956"/>
<path d="M26.3953 10.8464H22.3359V28.1697H26.3953V10.8464Z" fill="white"/>
<path d="M25.7078 11.5229V27.4847H23.0099V11.5229H25.7078ZM27.0693 10.1614H21.6484V28.8462H27.0693V10.1614Z" fill="#033956"/>
<path d="M52.5566 28.1614V16.6431L45.2481 25.9646L37.9396 16.6431V28.1614H33.1953V10.8464H39.5516L45.2481 18.439L50.9362 10.8464H57.3009V28.1614H52.5566Z" fill="white"/>
<path d="M56.614 11.5229V27.4847H53.2312V18.6142V14.6801L50.8006 17.779L45.2461 24.8703L39.6916 17.779L37.261 14.6801V18.6142V27.4847H33.8782V11.5229H39.2155L44.1602 18.1214L45.2461 19.5748L46.3319 18.1214L51.2767 11.5229H56.614ZM57.9754 10.1614H50.5917L45.2377 17.3029L39.8837 10.1614H32.5V28.8462H38.6058V18.6142L45.2294 27.067L51.853 18.6142V28.8462H57.9587V10.1614H57.9754Z" fill="#033956"/>
<path d="M63.1172 28.1614V10.8464H82.7542V14.5968H67.8281V17.6287H80.4823V21.4793H67.8281V24.7786H82.7542V28.1614H63.1172Z" fill="white"/>
<path d="M82.0667 11.5229V13.92H68.502H67.1406V15.2815V16.9604V18.3219H68.502H79.8031V20.8193H68.502H67.1406V22.1808V24.1186V25.455H68.502H82.075V27.4847H63.7912V11.5229H82.0667ZM83.4281 10.1614H62.4297V28.8462H83.4281V24.1019H68.502V22.1641H81.1562V16.952H68.502V15.2732H83.4281V10.1614Z" fill="#033956"/>
</g>
<defs>
<clipPath id="clip0_1685_7382">
<rect width="104.174" height="39.6498" fill="white" transform="translate(0.453125 0.397705)"/>
</clipPath>
</defs>
</svg>
